<?xml version="1.0" encoding="UTF-8" standalone="no"?>
<!-- Created with Inkscape (http://www.inkscape.org/) -->

<svg
   xmlns:dc="http://purl.org/dc/elements/1.1/"
   xmlns:cc="http://creativecommons.org/ns#"
   xmlns:rdf="http://www.w3.org/1999/02/22-rdf-syntax-ns#"
   xmlns:svg="http://www.w3.org/2000/svg"
   xmlns="http://www.w3.org/2000/svg"
   xmlns:sodipodi="http://sodipodi.sourceforge.net/DTD/sodipodi-0.dtd"
   xmlns:inkscape="http://www.inkscape.org/namespaces/inkscape"
   width="1600"
   height="1200"
   id="svg2"
   sodipodi:version="0.32"
   inkscape:version="0.48.3.1 r9886"
   sodipodi:docname="NACA_0012_slimmer_front.dxf"
   version="1.0"
   inkscape:output_extension="org.inkscape.output.svg.inkscape">
  <defs
     id="defs4" />
  <sodipodi:namedview
     id="base"
     pagecolor="#ffffff"
     bordercolor="#666666"
     borderopacity="1.0"
     inkscape:pageopacity="0.0"
     inkscape:pageshadow="2"
     inkscape:zoom="0.94045202"
     inkscape:cx="469.67275"
     inkscape:cy="713.14884"
     inkscape:document-units="px"
     inkscape:current-layer="layer2"
     inkscape:window-width="1280"
     inkscape:window-height="1024"
     inkscape:window-x="0"
     inkscape:window-y="31"
     width="1600px"
     height="1200px"
     borderlayer="true"
     showguides="true"
     inkscape:guide-bbox="true"
     showgrid="false"
     inkscape:window-maximized="0" />
  <metadata
     id="metadata7">
    <rdf:RDF>
      <cc:Work
         rdf:about="">
        <dc:format>image/svg+xml</dc:format>
        <dc:type
           rdf:resource="http://purl.org/dc/dcmitype/StillImage" />
        <dc:title></dc:title>
      </cc:Work>
    </rdf:RDF>
  </metadata>
  <g
     inkscape:groupmode="layer"
     id="layer3"
     inkscape:label="PNG"
     style="display:inline" />
  <g
     inkscape:groupmode="layer"
     id="layer2"
     inkscape:label="Milimeterpapier"
     style="display:inline">
    <path
       inkscape:connector-curvature="0"
       style="fill:none;stroke:#ff0000;stroke-width:2.96281862;stroke-linecap:butt;stroke-linejoin:miter;stroke-miterlimit:4;stroke-opacity:1;stroke-dasharray:none"
       d="m 754.33782,472.63701 -2.42832,0.0777 -2.41576,0.0771 -2.40326,0.0766 -2.39078,0.076 -2.37835,0.0755 -2.36597,0.0749 -2.35363,0.0744 -2.34133,0.0738 -2.32907,0.0733 -2.31686,0.0727 -2.30469,0.0722 -2.29256,0.0716 -2.28047,0.0711 -2.26843,0.0706 -2.25643,0.07 -2.24447,0.0695 -2.23255,0.069 -2.22068,0.0684 -2.20886,0.0679 -2.19706,0.0673 -2.18532,0.0668 -2.17361,0.0663 -2.16196,0.0657 -2.15034,0.0652 -2.13877,0.0647 -2.12723,0.0642 -2.11574,0.0636 -2.1043,0.0631 -2.0929,0.0626 -2.08153,0.0621 -2.07021,0.0616 -2.05894,0.061 -8.12385,0.23896 -7.94684,0.23073 -7.77258,0.22258 -7.60102,0.2145 -7.43221,0.20649 -7.26613,0.19855 -7.10276,0.19069 -6.94214,0.18291 -6.78423,0.17519 -6.62906,0.16755 -6.47663,0.15997 -6.3269,0.15249 -6.17993,0.14506 -6.03567,0.13771 -5.89414,0.13043 -5.75535,0.12323 -5.61927,0.1161 -5.48594,0.10905 -5.35533,0.10206 -5.22745,0.0951 -5.10229,0.0883 -4.97987,0.0815 -4.86018,0.0749 -4.74321,0.0682 -4.62897,0.0617 -4.51747,0.0552 -4.40869,0.0488 -4.30264,0.0425 -4.19932,0.0362 -4.09873,0.0301 -4.00087,0.024 -3.90573,0.0179 -5.44828,0.0192 -5.43155,0.0154 -5.41426,0.0116 -5.3964,0.008 -5.37798,0.004 -5.35897,-4.1e-4 -5.33941,-0.005 -5.31927,-0.009 -5.29857,-0.013 -5.27729,-0.0173 -5.25545,-0.0216 -5.23304,-0.0261 -5.21006,-0.0306 -5.1865,-0.0352 -5.16239,-0.0398 -5.1377,-0.0445 -5.11244,-0.0492 -5.08662,-0.0541 -5.06022,-0.0589 -5.03325,-0.0639 -5.00573,-0.0689 -4.97762,-0.074 -4.94895,-0.0791 -4.91971,-0.0843 -4.8899,-0.0896 -4.85952,-0.0949 -4.82857,-0.10029 -4.79706,-0.10574 -4.76497,-0.11126 -4.73232,-0.11685 -4.6991,-0.12249 -4.6653,-0.1282 -4.63094,-0.13397 -4.59601,-0.13981 -4.56051,-0.14571 -4.52444,-0.15168 -4.48781,-0.1577 -4.4506,-0.16379 -4.41282,-0.16995 -4.37448,-0.17617 -4.33556,-0.18244 -4.29609,-0.18879 -4.25603,-0.19521 -4.21541,-0.20167 -4.17422,-0.20821 -4.13246,-0.21481 -4.09014,-0.22147 -4.04723,-0.2282 -4.00378,-0.23499 -3.95973,-0.24184 -3.91514,-0.24876 -3.86996,-0.25574 -3.82422,-0.26279 -3.77791,-0.26989 -3.73103,-0.27707 -3.68358,-0.2843 -3.63557,-0.2916 -3.58697,-0.29896 -3.53782,-0.30639 -3.4881,-0.31388 -3.4378,-0.32143 -3.38694,-0.32905 -3.33551,-0.33673 -3.28351,-0.34447 -8.94006,-0.98312 -8.68698,-1.00978 -8.43169,-1.03582 -8.17421,-1.06122 -7.91455,-1.086 -7.6527,-1.11016 -7.38864,-1.13368 -7.12241,-1.15659 -6.85398,-1.17887 -6.58337,-1.20051 -6.31055,-1.22154 -6.03555,-1.24194 -5.75836,-1.26172 -5.47897,-1.28086 -5.197406,-1.29938 -4.913638,-1.31727 -4.627683,-1.33455 -4.339536,-1.35119 -4.049199,-1.3672 -3.756672,-1.38259 -3.461953,-1.39736 -3.165043,-1.4115 -2.865942,-1.42501 -2.564651,-1.4379 -2.261169,-1.45016 -1.955496,-1.46179 -1.647632,-1.4728 -1.337577,-1.48319 -1.025331,-1.49294 -0.710895,-1.50207 -0.394268,-1.51058 -0.07545,-1.51845 0.07545,-1.51845 0.394268,-1.51058 0.710895,-1.50207 1.025331,-1.49294 1.337577,-1.48319 1.647632,-1.4728 1.955496,-1.46179 2.261168,-1.45016 2.564652,-1.4379 2.865942,-1.42501 3.165043,-1.4115 3.461953,-1.39736 3.756671,-1.38259 4.049199,-1.36721 4.339537,-1.35119 4.627682,-1.33454 4.913638,-1.31728 5.197407,-1.29938 5.47897,-1.28086 5.75836,-1.26171 6.03555,-1.24194 6.31055,-1.22154 6.58337,-1.20052 6.85398,-1.17887 7.12241,-1.15658 7.38864,-1.13369 7.6527,-1.11016 7.91455,-1.086 8.17421,-1.06122 8.43169,-1.03581 8.68698,-1.00978 8.94006,-0.98312 3.28351,-0.34447 3.33551,-0.33673 3.38694,-0.32905 3.4378,-0.32143 3.4881,-0.31388 3.53782,-0.30639 3.58697,-0.29896 3.63557,-0.2916 3.68358,-0.2843 3.73103,-0.27707 3.77791,-0.26989 3.82422,-0.26279 3.86996,-0.25574 3.91514,-0.24876 3.95973,-0.24184 4.00378,-0.23499 4.04723,-0.2282 4.09014,-0.22147 4.13246,-0.21481 4.17422,-0.20821 4.21541,-0.20168 4.25603,-0.1952 4.29609,-0.18879 4.33556,-0.18245 4.37448,-0.17616 4.41282,-0.16995 4.4506,-0.16379 4.48781,-0.1577 4.52444,-0.15168 4.56051,-0.14571 4.59601,-0.13981 4.63094,-0.13397 4.6653,-0.1282 4.6991,-0.12249 4.73232,-0.11684 4.76497,-0.11127 4.79706,-0.10574 4.82857,-0.10029 4.85952,-0.0949 4.8899,-0.0896 4.91971,-0.0843 4.94895,-0.0791 4.97762,-0.074 5.00573,-0.0689 5.03325,-0.0639 5.06022,-0.0589 5.08662,-0.054 5.11244,-0.0492 5.1377,-0.0445 5.16239,-0.0398 5.1865,-0.0352 5.21006,-0.0306 5.23304,-0.0261 5.25545,-0.0217 5.27729,-0.0173 5.29857,-0.013 5.31927,-0.009 5.33941,-0.005 5.35897,-4.2e-4 5.37798,0.004 5.3964,0.008 5.41426,0.0116 5.43155,0.0154 5.44828,0.0192 3.90573,0.0179 4.00087,0.0239 4.09873,0.0301 4.19932,0.0362 4.30264,0.0425 4.40869,0.0488 4.51747,0.0552 4.62897,0.0617 4.74321,0.0682 4.86018,0.0748 4.97987,0.0815 5.10229,0.0883 5.22745,0.0951 5.35533,0.10206 5.48594,0.10904 5.61927,0.11611 5.75535,0.12323 5.89414,0.13043 6.03567,0.13771 6.17993,0.14506 6.3269,0.15248 6.47663,0.15998 6.62906,0.16755 6.78423,0.17519 6.94214,0.18291 7.10276,0.19069 7.26613,0.19855 7.43221,0.20649 7.60102,0.2145 7.77258,0.22258 7.94684,0.23073 8.12385,0.23896 2.05894,0.061 2.07021,0.0616 2.08153,0.0621 2.0929,0.0626 2.1043,0.0631 2.11574,0.0636 2.12723,0.0642 2.13877,0.0647 2.15034,0.0652 2.16196,0.0657 2.17361,0.0663 2.18532,0.0668 2.19706,0.0673 2.20886,0.0679 2.22068,0.0684 2.23255,0.0689 2.24447,0.0695 2.25643,0.07 2.26843,0.0706 2.28047,0.0711 2.29256,0.0717 2.30469,0.0722 2.31686,0.0727 2.32907,0.0733 2.34133,0.0738 2.35363,0.0744 2.36597,0.0749 2.37835,0.0755 2.39078,0.076 2.40326,0.0766 2.41576,0.0771 2.42832,0.0777 0,2.78222 0,2.78222 0,2.78223 0,2.78222 0,2.78222 0,2.78222 0,2.78223 0,2.78222 0,2.78222 0,2.78222 0,2.78223 0,2.78222 0,2.78222 0,2.78222 0,2.78223 0,2.78222 0,2.78222 0,2.78222 0,2.78223 0,2.78222 0,2.78222 0,2.78222 0,2.78223 0,2.78222 0,2.78222 0,2.78222 0,2.78223 0,2.78222 0,2.78222 0,2.78222 0,2.78223 z"
       id="path7860"
       sodipodi:nodetypes="ccccccccccccccccccccccccccccccccccccccccccccccccccccccccccccccccccccccccccccccccccccccccccccccccccccccccccccccccccccccccccccccccccccccccccccccccccccccccccccccccccccccccccccccccccccccccccccccccccccccccccccccccccccccccccccccccccccccccccccccccccccccccccccccccccccccccccccccccccccccccccccccccccccccccccccccccccccccccccccccccccccccccccccccccccccccccccccccccc" />
  </g>
  <g
     inkscape:groupmode="layer"
     id="layer4"
     inkscape:label="profile" />
</svg>
