<?xml version="1.0" encoding="UTF-8" standalone="no"?>
<!-- Created with Inkscape (http://www.inkscape.org/) -->

<svg
   xmlns:dc="http://purl.org/dc/elements/1.1/"
   xmlns:cc="http://creativecommons.org/ns#"
   xmlns:rdf="http://www.w3.org/1999/02/22-rdf-syntax-ns#"
   xmlns:svg="http://www.w3.org/2000/svg"
   xmlns="http://www.w3.org/2000/svg"
   xmlns:sodipodi="http://sodipodi.sourceforge.net/DTD/sodipodi-0.dtd"
   xmlns:inkscape="http://www.inkscape.org/namespaces/inkscape"
   width="1600"
   height="1200"
   id="svg2"
   sodipodi:version="0.32"
   inkscape:version="0.48.3.1 r9886"
   sodipodi:docname="NACA_0012_slimmer.svg"
   version="1.0"
   inkscape:output_extension="org.inkscape.output.svg.inkscape">
  <defs
     id="defs4" />
  <sodipodi:namedview
     id="base"
     pagecolor="#ffffff"
     bordercolor="#666666"
     borderopacity="1.0"
     inkscape:pageopacity="0.0"
     inkscape:pageshadow="2"
     inkscape:zoom="0.3325"
     inkscape:cx="872.50006"
     inkscape:cy="232.19206"
     inkscape:document-units="px"
     inkscape:current-layer="layer2"
     inkscape:window-width="1280"
     inkscape:window-height="1024"
     inkscape:window-x="0"
     inkscape:window-y="31"
     width="1600px"
     height="1200px"
     borderlayer="true"
     showguides="true"
     inkscape:guide-bbox="true"
     showgrid="false"
     inkscape:window-maximized="0" />
  <metadata
     id="metadata7">
    <rdf:RDF>
      <cc:Work
         rdf:about="">
        <dc:format>image/svg+xml</dc:format>
        <dc:type
           rdf:resource="http://purl.org/dc/dcmitype/StillImage" />
      </cc:Work>
    </rdf:RDF>
  </metadata>
  <g
     inkscape:groupmode="layer"
     id="layer3"
     inkscape:label="PNG"
     style="display:inline" />
  <g
     inkscape:groupmode="layer"
     id="layer2"
     inkscape:label="Milimeterpapier"
     style="display:inline">
    <path
       inkscape:connector-curvature="0"
       style="fill:none;stroke:#ff0000;stroke-width:2.96281862;stroke-linecap:butt;stroke-linejoin:miter;stroke-miterlimit:4;stroke-opacity:1;stroke-dasharray:none"
       d="m 1299.2103,445.76678 c -96.1191,7.30258 -193.5742,14.76569 -246.8117,16.65844 -163.86066,5.82573 -282.14306,9.83539 -369.75116,12.42843 -87.60811,2.59304 -144.54192,3.76948 -185.7054,3.92878 -58.2021,0.22523 -113.64742,-0.18762 -163.2284,-1.58577 -49.58097,-1.39814 -93.2976,-3.78157 -128.04232,-7.49747 -96.70273,-10.34221 -150.584922,-25.3411 -149.68156,-41.57774 -0.903362,-16.23664 52.97883,-31.23553 149.68156,-41.57774 34.74472,-3.7159 78.46135,-6.09933 128.04232,-7.49747 49.58098,-1.39815 105.0263,-1.811 163.2284,-1.58577 41.16348,0.1593 98.09729,1.33574 185.7054,3.92878 87.6081,2.59304 205.8905,6.6027 369.75116,12.42843 53.2375,1.89275 150.6926,9.35586 246.8117,16.65844 96.1192,7.30259 190.9024,14.44466 238.7961,17.64533 -47.8937,3.20067 -142.6769,10.34274 -238.7961,17.64533 z"
       id="path7860"
       sodipodi:nodetypes="sssssscsssssscs" />
  </g>
  <g
     inkscape:groupmode="layer"
     id="layer4"
     inkscape:label="profile" />
</svg>
