  0
SECTION
  2
HEADER
  9
$ACADVER
  1
AC1014
  9
$HANDSEED
  5
FFFF
  9
$MEASUREMENT
 70
     1
  0
ENDSEC
  0
SECTION
  2
TABLES
  0
TABLE
  2
VPORT
  5
8
330
0
100
AcDbSymbolTable
 70
     4
  0
VPORT
  5
2E
330
8
100
AcDbSymbolTableRecord
100
AcDbViewportTableRecord
  2
*ACTIVE
 70
     0
 10
0.0
 20
0.0
 11
1.0
 21
1.0
 12
210.0
 22
148.5
 13
0.0
 23
0.0
 14
10.0
 24
10.0
 15
10.0
 25
10.0
 16
0.0
 26
0.0
 36
1.0
 17
0.0
 27
0.0
 37
0.0
 40
341.0
 41
1.24
 42
50.0
 43
0.0
 44
0.0
 50
0.0
 51
0.0
 71
     0
 72
   100
 73
     1
 74
     3
 75
     0
 76
     0
 77
     0
 78
     0
  0
ENDTAB
  0
TABLE
  2
LTYPE
  5
5
330
0
100
AcDbSymbolTable
 70
     1
  0
LTYPE
  5
14
330
5
100
AcDbSymbolTableRecord
100
AcDbLinetypeTableRecord
  2
BYBLOCK
 70
     0
  3

 72
    65
 73
     0
 40
0.0
  0
LTYPE
  5
15
330
5
100
AcDbSymbolTableRecord
100
AcDbLinetypeTableRecord
  2
BYLAYER
 70
     0
  3

 72
    65
 73
     0
 40
0.0
  0
LTYPE
  5
16
330
5
100
AcDbSymbolTableRecord
100
AcDbLinetypeTableRecord
  2
CONTINUOUS
 70
     0
  3
Solid line
 72
    65
 73
     0
 40
0.0
  0
ENDTAB
  0
TABLE
  2
LAYER
  5
2
100
AcDbSymbolTable
 70
4
  0
LAYER
  5
50
100
AcDbSymbolTableRecord
100
AcDbLayerTableRecord
  2
0
 70
0
  6
CONTINUOUS
  0
LAYER
  5
51
100
AcDbSymbolTableRecord
100
AcDbLayerTableRecord
  2
PNG
 70
0
  6
CONTINUOUS
  0
LAYER
  5
52
100
AcDbSymbolTableRecord
100
AcDbLayerTableRecord
  2
Milimeterpapier
 70
0
  6
CONTINUOUS
  0
LAYER
  5
53
100
AcDbSymbolTableRecord
100
AcDbLayerTableRecord
  2
profile
 70
0
  6
CONTINUOUS
  0
ENDTAB
  0
TABLE
  2
STYLE
  5
3
330
0
100
AcDbSymbolTable
 70
     1
  0
STYLE
  5
11
330
3
100
AcDbSymbolTableRecord
100
AcDbTextStyleTableRecord
  2
STANDARD
 70
     0
 40
0.0
 41
1.0
 50
0.0
 71
     0
 42
2.5
  3
txt
  4

  0
ENDTAB
  0
TABLE
  2
VIEW
  5
6
330
0
100
AcDbSymbolTable
 70
     0
  0
ENDTAB
  0
TABLE
  2
UCS
  5
7
330
0
100
AcDbSymbolTable
 70
     0
  0
ENDTAB
  0
TABLE
  2
APPID
  5
9
330
0
100
AcDbSymbolTable
 70
     2
  0
APPID
  5
12
330
9
100
AcDbSymbolTableRecord
100
AcDbRegAppTableRecord
  2
ACAD
 70
     0
  0
ENDTAB
  0
TABLE
  2
DIMSTYLE
  5
A
330
0
100
AcDbSymbolTable
 70
     1
  0
DIMSTYLE
105
27
330
A
100
AcDbSymbolTableRecord
100
AcDbDimStyleTableRecord
  2
ISO-25
 70
     0
  3

  4

  5

  6

  7

 40
1.0
 41
2.5
 42
0.625
 43
3.75
 44
1.25
 45
0.0
 46
0.0
 47
0.0
 48
0.0
140
2.5
141
2.5
142
0.0
143
0.03937007874016
144
1.0
145
0.0
146
1.0
147
0.625
 71
     0
 72
     0
 73
     0
 74
     0
 75
     0
 76
     0
 77
     1
 78
     8
170
     0
171
     3
172
     1
173
     0
174
     0
175
     0
176
     0
177
     0
178
     0
270
     2
271
     2
272
     2
273
     2
274
     3
340
11
275
     0
280
     0
281
     0
282
     0
283
     0
284
     8
285
     0
286
     0
287
     3
288
     0
  0
ENDTAB
  0
TABLE
  2
BLOCK_RECORD
  5
1
330
0
100
AcDbSymbolTable
 70
     1
  0
BLOCK_RECORD
  5
1F
330
1
100
AcDbSymbolTableRecord
100
AcDbBlockTableRecord
  2
*MODEL_SPACE
  0
BLOCK_RECORD
  5
1B
330
1
100
AcDbSymbolTableRecord
100
AcDbBlockTableRecord
  2
*PAPER_SPACE
  0
ENDTAB
  0
ENDSEC
  0
SECTION
  2
BLOCKS
  0
BLOCK
  5
20
330
1F
100
AcDbEntity
  8
0
100
AcDbBlockBegin
  2
*MODEL_SPACE
 70
     0
 10
0.0
 20
0.0
 30
0.0
  3
*MODEL_SPACE
  1

  0
ENDBLK
  5
21
330
1F
100
AcDbEntity
  8
0
100
AcDbBlockEnd
  0
BLOCK
  5
1C
330
1B
100
AcDbEntity
 67
     1
  8
0
100
AcDbBlockBegin
  2
*PAPER_SPACE
  1

  0
ENDBLK
  5
1D
330
1B
100
AcDbEntity
 67
     1
  8
0
100
AcDbBlockEnd
  0
ENDSEC
  0
SECTION
  2
ENTITIES
  0
LWPOLYLINE
  5
100
100
AcDbEntity
  8
profile
 62
7
100
AcDbPolyline
 90
129
 70
0
 10
148.997697
 20
105.860559
 30
0.0
 10
151.273870
 20
105.651962
 30
0.0
 10
155.747820
 20
105.235548
 30
0.0
 10
161.231993
 20
104.715534
 30
0.0
 10
167.163988
 20
104.140178
 30
0.0
 10
173.215826
 20
103.536751
 30
0.0
 10
179.372097
 20
102.904547
 30
0.0
 10
185.382968
 20
102.263843
 30
0.0
 10
190.998606
 20
101.634920
 30
0.0
 10
196.320818
 20
101.006566
 30
0.0
 10
201.607698
 20
100.353611
 30
0.0
 10
206.843837
 20
99.675332
 30
0.0
 10
212.013835
 20
98.971030
 30
0.0
 10
217.102282
 20
98.239993
 30
0.0
 10
222.093774
 20
97.481518
 30
0.0
 10
226.972905
 20
96.694894
 30
0.0
 10
231.724266
 20
95.879413
 30
0.0
 10
238.014373
 20
94.741128
 30
0.0
 10
245.255010
 20
93.374507
 30
0.0
 10
253.392902
 20
91.768575
 30
0.0
 10
262.374793
 20
89.912366
 30
0.0
 10
272.147409
 20
87.794895
 30
0.0
 10
282.657495
 20
85.405186
 30
0.0
 10
293.851774
 20
82.732268
 30
0.0
 10
305.676995
 20
79.765167
 30
0.0
 10
318.079872
 20
76.492899
 30
0.0
 10
331.007174
 20
72.904503
 30
0.0
 10
344.405589
 20
68.988994
 30
0.0
 10
358.221891
 20
64.735397
 30
0.0
 10
372.402795
 20
60.132739
 30
0.0
 10
386.895048
 20
55.170045
 30
0.0
 10
401.645392
 20
49.836339
 30
0.0
 10
416.600517
 20
44.120647
 30
0.0
 10
405.800296
 20
44.153368
 30
0.0
 10
395.647126
 20
44.167987
 30
0.0
 10
386.087187
 20
44.167423
 30
0.0
 10
377.066659
 20
44.154695
 30
0.0
 10
368.531779
 20
44.132794
 30
0.0
 10
360.428643
 20
44.104555
 30
0.0
 10
352.703515
 20
44.072988
 30
0.0
 10
345.302519
 20
44.041055
 30
0.0
 10
337.799077
 20
44.016332
 30
0.0
 10
329.979631
 20
44.003773
 30
0.0
 10
322.109892
 20
44.002362
 30
0.0
 10
314.455546
 20
44.011083
 30
0.0
 10
306.962743
 20
44.032899
 30
0.0
 10
300.003730
 20
44.065518
 30
0.0
 10
294.270208
 20
44.102678
 30
0.0
 10
291.305938
 20
44.127570
 30
0.0
 10
289.063688
 20
44.150769
 30
0.0
 10
284.053143
 20
44.199125
 30
0.0
 10
277.251023
 20
44.260590
 30
0.0
 10
269.208034
 20
44.328371
 30
0.0
 10
260.315110
 20
44.397654
 30
0.0
 10
250.750195
 20
44.466257
 30
0.0
 10
240.850974
 20
44.530022
 30
0.0
 10
230.955137
 20
44.584796
 30
0.0
 10
221.160742
 20
44.629384
 30
0.0
 10
211.459336
 20
44.663902
 30
0.0
 10
202.028847
 20
44.686170
 30
0.0
 10
193.047218
 20
44.694016
 30
0.0
 10
184.692373
 20
44.685238
 30
0.0
 10
177.142251
 20
44.657665
 30
0.0
 10
170.574779
 20
44.609140
 30
0.0
 10
165.167893
 20
44.537461
 30
0.0
 10
153.132698
 20
44.340992
 30
0.0
 10
142.382523
 20
44.199859
 30
0.0
 10
132.756479
 20
44.113597
 30
0.0
 10
124.093696
 20
44.081760
 30
0.0
 10
116.233285
 20
44.103886
 30
0.0
 10
109.014371
 20
44.179544
 30
0.0
 10
102.276062
 20
44.308280
 30
0.0
 10
95.857516
 20
44.489619
 30
0.0
 10
89.597810
 20
44.723130
 30
0.0
 10
83.336078
 20
45.008355
 30
0.0
 10
76.911430
 20
45.344848
 30
0.0
 10
70.163005
 20
45.732145
 30
0.0
 10
62.929918
 20
46.169801
 30
0.0
 10
55.051298
 20
46.657359
 30
0.0
 10
46.366236
 20
47.194375
 30
0.0
 10
36.713866
 20
47.780395
 30
0.0
 10
34.531189
 20
47.975653
 30
0.0
 10
32.039505
 20
48.317938
 30
0.0
 10
29.300552
 20
48.802779
 30
0.0
 10
26.376119
 20
49.425694
 30
0.0
 10
23.327918
 20
50.182219
 30
0.0
 10
20.217739
 20
51.067877
 30
0.0
 10
17.107293
 20
52.078205
 30
0.0
 10
14.058343
 20
53.208722
 30
0.0
 10
11.132681
 20
54.454950
 30
0.0
 10
8.391989
 20
55.812434
 30
0.0
 10
5.898059
 20
57.276690
 30
0.0
 10
3.712656
 20
58.843246
 30
0.0
 10
1.897487
 20
60.507632
 30
0.0
 10
0.514346
 20
62.265377
 30
0.0
 10
-0.375031
 20
64.112002
 30
0.0
 10
-0.708906
 20
66.043046
 30
0.0
 10
-0.343461
 20
69.669852
 30
0.0
 10
0.843691
 20
73.102747
 30
0.0
 10
2.787392
 20
76.344467
 30
0.0
 10
5.422489
 20
79.397767
 30
0.0
 10
8.683824
 20
82.265396
 30
0.0
 10
12.506296
 20
84.950086
 30
0.0
 10
16.824668
 20
87.454614
 30
0.0
 10
21.573866
 20
89.781694
 30
0.0
 10
26.688704
 20
91.934090
 30
0.0
 10
32.104030
 20
93.914553
 30
0.0
 10
37.754686
 20
95.725824
 30
0.0
 10
43.575544
 20
97.370649
 30
0.0
 10
49.501447
 20
98.851777
 30
0.0
 10
55.467212
 20
100.171962
 30
0.0
 10
61.407738
 20
101.333938
 30
0.0
 10
67.257844
 20
102.340464
 30
0.0
 10
71.196980
 20
102.902360
 30
0.0
 10
75.741923
 20
103.427899
 30
0.0
 10
80.796227
 20
103.915122
 30
0.0
 10
86.263546
 20
104.362031
 30
0.0
 10
92.047459
 20
104.766657
 30
0.0
 10
98.051570
 20
105.127017
 30
0.0
 10
104.179512
 20
105.441132
 30
0.0
 10
110.334864
 20
105.707028
 30
0.0
 10
116.558002
 20
105.910478
 30
0.0
 10
122.811129
 20
106.044256
 30
0.0
 10
128.880640
 20
106.116878
 30
0.0
 10
134.552931
 20
106.136857
 30
0.0
 10
139.731602
 20
106.102215
 30
0.0
 10
144.163978
 20
106.024961
 30
0.0
 10
147.480168
 20
105.927598
 30
0.0
 10
148.997697
 20
105.860559
 30
0.0
  0
LWPOLYLINE
  5
101
100
AcDbEntity
  8
profile
 62
7
100
AcDbPolyline
 90
3425
 70
0
 10
154.892509
 20
102.781464
 30
0.0
 10
154.956525
 20
102.775597
 30
0.0
 10
155.020545
 20
102.769729
 30
0.0
 10
155.084561
 20
102.763862
 30
0.0
 10
155.148577
 20
102.757994
 30
0.0
 10
155.212597
 20
102.752127
 30
0.0
 10
155.276613
 20
102.746260
 30
0.0
 10
155.340630
 20
102.740392
 30
0.0
 10
155.404646
 20
102.734525
 30
0.0
 10
155.468665
 20
102.728657
 30
0.0
 10
155.532682
 20
102.722790
 30
0.0
 10
155.596698
 20
102.716923
 30
0.0
 10
155.660718
 20
102.711055
 30
0.0
 10
155.724734
 20
102.705188
 30
0.0
 10
155.788751
 20
102.699320
 30
0.0
 10
155.852770
 20
102.693453
 30
0.0
 10
155.916786
 20
102.687586
 30
0.0
 10
155.980803
 20
102.681718
 30
0.0
 10
156.044822
 20
102.675851
 30
0.0
 10
156.108839
 20
102.669983
 30
0.0
 10
156.172855
 20
102.664116
 30
0.0
 10
156.236874
 20
102.658249
 30
0.0
 10
156.300891
 20
102.652381
 30
0.0
 10
156.364907
 20
102.646514
 30
0.0
 10
156.428924
 20
102.640646
 30
0.0
 10
156.492943
 20
102.634779
 30
0.0
 10
156.556959
 20
102.628912
 30
0.0
 10
156.620976
 20
102.623044
 30
0.0
 10
156.684995
 20
102.617177
 30
0.0
 10
156.749012
 20
102.611309
 30
0.0
 10
156.813028
 20
102.605442
 30
0.0
 10
156.877047
 20
102.599575
 30
0.0
 10
156.941064
 20
102.593707
 30
0.0
 10
157.066893
 20
102.581995
 30
0.0
 10
157.192724
 20
102.570283
 30
0.0
 10
157.318553
 20
102.558571
 30
0.0
 10
157.444382
 20
102.546858
 30
0.0
 10
157.570213
 20
102.535146
 30
0.0
 10
157.696042
 20
102.523434
 30
0.0
 10
157.821874
 20
102.511722
 30
0.0
 10
157.947703
 20
102.500009
 30
0.0
 10
158.073531
 20
102.488297
 30
0.0
 10
158.199363
 20
102.476585
 30
0.0
 10
158.325192
 20
102.464873
 30
0.0
 10
158.451023
 20
102.453161
 30
0.0
 10
158.576852
 20
102.441448
 30
0.0
 10
158.702681
 20
102.429736
 30
0.0
 10
158.828513
 20
102.418024
 30
0.0
 10
158.954341
 20
102.406312
 30
0.0
 10
159.080170
 20
102.394599
 30
0.0
 10
159.206002
 20
102.382887
 30
0.0
 10
159.331830
 20
102.371175
 30
0.0
 10
159.457662
 20
102.359463
 30
0.0
 10
159.583491
 20
102.347751
 30
0.0
 10
159.709320
 20
102.336038
 30
0.0
 10
159.835151
 20
102.324326
 30
0.0
 10
159.960980
 20
102.312614
 30
0.0
 10
160.086809
 20
102.300902
 30
0.0
 10
160.212640
 20
102.289189
 30
0.0
 10
160.338469
 20
102.277477
 30
0.0
 10
160.464298
 20
102.265765
 30
0.0
 10
160.590130
 20
102.254053
 30
0.0
 10
160.715958
 20
102.242341
 30
0.0
 10
160.841790
 20
102.230628
 30
0.0
 10
160.967619
 20
102.218916
 30
0.0
 10
161.121862
 20
102.204291
 30
0.0
 10
161.276105
 20
102.189667
 30
0.0
 10
161.430345
 20
102.175042
 30
0.0
 10
161.584588
 20
102.160417
 30
0.0
 10
161.738830
 20
102.145792
 30
0.0
 10
161.893073
 20
102.131168
 30
0.0
 10
162.047316
 20
102.116543
 30
0.0
 10
162.201556
 20
102.101918
 30
0.0
 10
162.355799
 20
102.087293
 30
0.0
 10
162.510042
 20
102.072669
 30
0.0
 10
162.664285
 20
102.058044
 30
0.0
 10
162.818528
 20
102.043419
 30
0.0
 10
162.972771
 20
102.028794
 30
0.0
 10
163.127011
 20
102.014170
 30
0.0
 10
163.281254
 20
101.999545
 30
0.0
 10
163.435497
 20
101.984920
 30
0.0
 10
163.589740
 20
101.970295
 30
0.0
 10
163.743983
 20
101.955671
 30
0.0
 10
163.898223
 20
101.941046
 30
0.0
 10
164.052466
 20
101.926421
 30
0.0
 10
164.206709
 20
101.911796
 30
0.0
 10
164.360951
 20
101.897172
 30
0.0
 10
164.515194
 20
101.882547
 30
0.0
 10
164.669434
 20
101.867922
 30
0.0
 10
164.823677
 20
101.853297
 30
0.0
 10
164.977920
 20
101.838673
 30
0.0
 10
165.132163
 20
101.824048
 30
0.0
 10
165.286406
 20
101.809423
 30
0.0
 10
165.440649
 20
101.794798
 30
0.0
 10
165.594889
 20
101.780173
 30
0.0
 10
165.749132
 20
101.765549
 30
0.0
 10
165.903375
 20
101.750924
 30
0.0
 10
166.070213
 20
101.734741
 30
0.0
 10
166.237049
 20
101.718559
 30
0.0
 10
166.403888
 20
101.702376
 30
0.0
 10
166.570723
 20
101.686193
 30
0.0
 10
166.737562
 20
101.670022
 30
0.0
 10
166.904400
 20
101.653851
 30
0.0
 10
167.071236
 20
101.637679
 30
0.0
 10
167.238074
 20
101.621508
 30
0.0
 10
167.404910
 20
101.605337
 30
0.0
 10
167.571749
 20
101.589165
 30
0.0
 10
167.738587
 20
101.572994
 30
0.0
 10
167.905423
 20
101.556823
 30
0.0
 10
168.072261
 20
101.540651
 30
0.0
 10
168.239097
 20
101.524480
 30
0.0
 10
168.405935
 20
101.508309
 30
0.0
 10
168.572771
 20
101.492137
 30
0.0
 10
168.739609
 20
101.475966
 30
0.0
 10
168.906448
 20
101.459795
 30
0.0
 10
169.073284
 20
101.443623
 30
0.0
 10
169.240122
 20
101.427452
 30
0.0
 10
169.406958
 20
101.411281
 30
0.0
 10
169.573796
 20
101.395109
 30
0.0
 10
169.740635
 20
101.378938
 30
0.0
 10
169.907470
 20
101.362767
 30
0.0
 10
170.074309
 20
101.346595
 30
0.0
 10
170.241145
 20
101.330424
 30
0.0
 10
170.407983
 20
101.314253
 30
0.0
 10
170.574822
 20
101.298081
 30
0.0
 10
170.741657
 20
101.281910
 30
0.0
 10
170.908496
 20
101.265739
 30
0.0
 10
171.075331
 20
101.249567
 30
0.0
 10
171.242170
 20
101.233396
 30
0.0
 10
171.412378
 20
101.216435
 30
0.0
 10
171.582586
 20
101.199473
 30
0.0
 10
171.752795
 20
101.182511
 30
0.0
 10
171.923003
 20
101.165550
 30
0.0
 10
172.093211
 20
101.148588
 30
0.0
 10
172.263416
 20
101.131627
 30
0.0
 10
172.433625
 20
101.114665
 30
0.0
 10
172.603833
 20
101.097704
 30
0.0
 10
172.774041
 20
101.080742
 30
0.0
 10
172.944249
 20
101.063781
 30
0.0
 10
173.114457
 20
101.046819
 30
0.0
 10
173.284666
 20
101.029857
 30
0.0
 10
173.454874
 20
101.012896
 30
0.0
 10
173.625082
 20
100.995934
 30
0.0
 10
173.795290
 20
100.978973
 30
0.0
 10
173.965499
 20
100.962011
 30
0.0
 10
174.135704
 20
100.945050
 30
0.0
 10
174.305912
 20
100.928088
 30
0.0
 10
174.476120
 20
100.911127
 30
0.0
 10
174.646329
 20
100.894165
 30
0.0
 10
174.816537
 20
100.877203
 30
0.0
 10
174.986745
 20
100.860242
 30
0.0
 10
175.156953
 20
100.843280
 30
0.0
 10
175.327162
 20
100.826319
 30
0.0
 10
175.497370
 20
100.809357
 30
0.0
 10
175.667578
 20
100.792396
 30
0.0
 10
175.837783
 20
100.775434
 30
0.0
 10
176.007992
 20
100.758473
 30
0.0
 10
176.178200
 20
100.741511
 30
0.0
 10
176.348408
 20
100.724549
 30
0.0
 10
176.518616
 20
100.707588
 30
0.0
 10
176.688825
 20
100.690626
 30
0.0
 10
176.861971
 20
100.672846
 30
0.0
 10
177.035114
 20
100.655066
 30
0.0
 10
177.208260
 20
100.637286
 30
0.0
 10
177.381406
 20
100.619506
 30
0.0
 10
177.554550
 20
100.601726
 30
0.0
 10
177.727696
 20
100.583946
 30
0.0
 10
177.900839
 20
100.566166
 30
0.0
 10
178.073985
 20
100.548386
 30
0.0
 10
178.247131
 20
100.530606
 30
0.0
 10
178.420275
 20
100.512826
 30
0.0
 10
178.593421
 20
100.495046
 30
0.0
 10
178.766567
 20
100.477266
 30
0.0
 10
178.939710
 20
100.459486
 30
0.0
 10
179.112857
 20
100.441706
 30
0.0
 10
179.286000
 20
100.423926
 30
0.0
 10
179.459146
 20
100.406146
 30
0.0
 10
179.632292
 20
100.388366
 30
0.0
 10
179.805436
 20
100.370586
 30
0.0
 10
179.978582
 20
100.352806
 30
0.0
 10
180.151728
 20
100.335026
 30
0.0
 10
180.324871
 20
100.317246
 30
0.0
 10
180.498017
 20
100.299466
 30
0.0
 10
180.671161
 20
100.281686
 30
0.0
 10
180.844307
 20
100.263906
 30
0.0
 10
181.017453
 20
100.246126
 30
0.0
 10
181.190596
 20
100.228346
 30
0.0
 10
181.363742
 20
100.210566
 30
0.0
 10
181.536889
 20
100.192786
 30
0.0
 10
181.710032
 20
100.175006
 30
0.0
 10
181.883178
 20
100.157226
 30
0.0
 10
182.056321
 20
100.139446
 30
0.0
 10
182.229468
 20
100.121666
 30
0.0
 10
182.398524
 20
100.103632
 30
0.0
 10
182.567578
 20
100.085598
 30
0.0
 10
182.736635
 20
100.067564
 30
0.0
 10
182.905692
 20
100.049559
 30
0.0
 10
183.074746
 20
100.031525
 30
0.0
 10
183.243803
 20
100.013491
 30
0.0
 10
183.412859
 20
99.995457
 30
0.0
 10
183.581913
 20
99.977423
 30
0.0
 10
183.750970
 20
99.959389
 30
0.0
 10
183.920027
 20
99.941383
 30
0.0
 10
184.089081
 20
99.923349
 30
0.0
 10
184.258137
 20
99.905315
 30
0.0
 10
184.427194
 20
99.887281
 30
0.0
 10
184.596248
 20
99.869247
 30
0.0
 10
184.765305
 20
99.851213
 30
0.0
 10
184.934362
 20
99.833179
 30
0.0
 10
185.103416
 20
99.815173
 30
0.0
 10
185.272472
 20
99.797139
 30
0.0
 10
185.441526
 20
99.779105
 30
0.0
 10
185.610583
 20
99.761071
 30
0.0
 10
185.779640
 20
99.743037
 30
0.0
 10
185.948694
 20
99.725003
 30
0.0
 10
186.117750
 20
99.706997
 30
0.0
 10
186.286807
 20
99.688963
 30
0.0
 10
186.455861
 20
99.670929
 30
0.0
 10
186.624918
 20
99.652895
 30
0.0
 10
186.793975
 20
99.634861
 30
0.0
 10
186.963029
 20
99.616827
 30
0.0
 10
187.132085
 20
99.598793
 30
0.0
 10
187.301142
 20
99.580787
 30
0.0
 10
187.470196
 20
99.562753
 30
0.0
 10
187.639253
 20
99.544719
 30
0.0
 10
187.797193
 20
99.527024
 30
0.0
 10
187.955133
 20
99.509329
 30
0.0
 10
188.113073
 20
99.491633
 30
0.0
 10
188.271013
 20
99.473938
 30
0.0
 10
188.428953
 20
99.456243
 30
0.0
 10
188.586890
 20
99.438547
 30
0.0
 10
188.744830
 20
99.420852
 30
0.0
 10
188.902770
 20
99.403157
 30
0.0
 10
189.060710
 20
99.385461
 30
0.0
 10
189.218650
 20
99.367766
 30
0.0
 10
189.376590
 20
99.350071
 30
0.0
 10
189.534530
 20
99.332375
 30
0.0
 10
189.692470
 20
99.314680
 30
0.0
 10
189.850410
 20
99.296985
 30
0.0
 10
190.008350
 20
99.279289
 30
0.0
 10
190.166290
 20
99.261594
 30
0.0
 10
190.324227
 20
99.243899
 30
0.0
 10
190.482168
 20
99.226203
 30
0.0
 10
190.640108
 20
99.208508
 30
0.0
 10
190.798048
 20
99.190813
 30
0.0
 10
190.955988
 20
99.173117
 30
0.0
 10
191.113928
 20
99.155422
 30
0.0
 10
191.271868
 20
99.137727
 30
0.0
 10
191.429808
 20
99.120031
 30
0.0
 10
191.587748
 20
99.102336
 30
0.0
 10
191.745688
 20
99.084641
 30
0.0
 10
191.903625
 20
99.066945
 30
0.0
 10
192.061565
 20
99.049250
 30
0.0
 10
192.219505
 20
99.031555
 30
0.0
 10
192.377445
 20
99.013859
 30
0.0
 10
192.535385
 20
98.996164
 30
0.0
 10
192.693325
 20
98.978469
 30
0.0
 10
192.843013
 20
98.960802
 30
0.0
 10
192.992701
 20
98.943135
 30
0.0
 10
193.142386
 20
98.925467
 30
0.0
 10
193.292074
 20
98.907800
 30
0.0
 10
193.441761
 20
98.890133
 30
0.0
 10
193.591449
 20
98.872466
 30
0.0
 10
193.741134
 20
98.854799
 30
0.0
 10
193.890822
 20
98.837132
 30
0.0
 10
194.040510
 20
98.819465
 30
0.0
 10
194.190198
 20
98.801798
 30
0.0
 10
194.339886
 20
98.784131
 30
0.0
 10
194.489571
 20
98.766463
 30
0.0
 10
194.639259
 20
98.748796
 30
0.0
 10
194.788946
 20
98.731129
 30
0.0
 10
194.938634
 20
98.713462
 30
0.0
 10
195.088322
 20
98.695795
 30
0.0
 10
195.238007
 20
98.678128
 30
0.0
 10
195.387695
 20
98.660461
 30
0.0
 10
195.537383
 20
98.642794
 30
0.0
 10
195.687071
 20
98.625127
 30
0.0
 10
195.836756
 20
98.607459
 30
0.0
 10
195.986443
 20
98.589792
 30
0.0
 10
196.136131
 20
98.572125
 30
0.0
 10
196.285819
 20
98.554458
 30
0.0
 10
196.435507
 20
98.536791
 30
0.0
 10
196.585192
 20
98.519124
 30
0.0
 10
196.734880
 20
98.501457
 30
0.0
 10
196.884568
 20
98.483790
 30
0.0
 10
197.034256
 20
98.466123
 30
0.0
 10
197.183941
 20
98.448455
 30
0.0
 10
197.333628
 20
98.430788
 30
0.0
 10
197.483316
 20
98.413121
 30
0.0
 10
197.632011
 20
98.394749
 30
0.0
 10
197.780702
 20
98.376376
 30
0.0
 10
197.929397
 20
98.358003
 30
0.0
 10
198.078091
 20
98.339631
 30
0.0
 10
198.226783
 20
98.321258
 30
0.0
 10
198.375477
 20
98.302885
 30
0.0
 10
198.524172
 20
98.284513
 30
0.0
 10
198.672866
 20
98.266140
 30
0.0
 10
198.821558
 20
98.247767
 30
0.0
 10
198.970252
 20
98.229395
 30
0.0
 10
199.118946
 20
98.211022
 30
0.0
 10
199.267638
 20
98.192649
 30
0.0
 10
199.416332
 20
98.174277
 30
0.0
 10
199.565027
 20
98.155904
 30
0.0
 10
199.713718
 20
98.137531
 30
0.0
 10
199.862413
 20
98.119159
 30
0.0
 10
200.011107
 20
98.100786
 30
0.0
 10
200.159799
 20
98.082413
 30
0.0
 10
200.308493
 20
98.064041
 30
0.0
 10
200.457188
 20
98.045668
 30
0.0
 10
200.605879
 20
98.027295
 30
0.0
 10
200.754574
 20
98.008923
 30
0.0
 10
200.903268
 20
97.990550
 30
0.0
 10
201.051960
 20
97.972177
 30
0.0
 10
201.200654
 20
97.953805
 30
0.0
 10
201.349349
 20
97.935432
 30
0.0
 10
201.498043
 20
97.917059
 30
0.0
 10
201.646735
 20
97.898687
 30
0.0
 10
201.795429
 20
97.880314
 30
0.0
 10
201.944124
 20
97.861941
 30
0.0
 10
202.092815
 20
97.843569
 30
0.0
 10
202.241510
 20
97.825196
 30
0.0
 10
202.388776
 20
97.806118
 30
0.0
 10
202.536042
 20
97.787039
 30
0.0
 10
202.683309
 20
97.767961
 30
0.0
 10
202.830575
 20
97.748883
 30
0.0
 10
202.977841
 20
97.729805
 30
0.0
 10
203.125108
 20
97.710727
 30
0.0
 10
203.272374
 20
97.691648
 30
0.0
 10
203.419641
 20
97.672570
 30
0.0
 10
203.566907
 20
97.653492
 30
0.0
 10
203.714173
 20
97.634414
 30
0.0
 10
203.861440
 20
97.615335
 30
0.0
 10
204.008706
 20
97.596257
 30
0.0
 10
204.155972
 20
97.577179
 30
0.0
 10
204.303239
 20
97.558101
 30
0.0
 10
204.450505
 20
97.539023
 30
0.0
 10
204.597772
 20
97.519944
 30
0.0
 10
204.745038
 20
97.500866
 30
0.0
 10
204.892304
 20
97.481788
 30
0.0
 10
205.039571
 20
97.462710
 30
0.0
 10
205.186837
 20
97.443631
 30
0.0
 10
205.334103
 20
97.424553
 30
0.0
 10
205.481370
 20
97.405475
 30
0.0
 10
205.628636
 20
97.386397
 30
0.0
 10
205.775903
 20
97.367319
 30
0.0
 10
205.923169
 20
97.348240
 30
0.0
 10
206.070435
 20
97.329162
 30
0.0
 10
206.217702
 20
97.310084
 30
0.0
 10
206.364968
 20
97.291006
 30
0.0
 10
206.512235
 20
97.271927
 30
0.0
 10
206.659501
 20
97.252849
 30
0.0
 10
206.806767
 20
97.233771
 30
0.0
 10
206.954034
 20
97.214693
 30
0.0
 10
207.099440
 20
97.194881
 30
0.0
 10
207.244847
 20
97.175069
 30
0.0
 10
207.390253
 20
97.155257
 30
0.0
 10
207.535660
 20
97.135445
 30
0.0
 10
207.681063
 20
97.115633
 30
0.0
 10
207.826470
 20
97.095821
 30
0.0
 10
207.971877
 20
97.076009
 30
0.0
 10
208.117283
 20
97.056197
 30
0.0
 10
208.262690
 20
97.036385
 30
0.0
 10
208.408096
 20
97.016573
 30
0.0
 10
208.553503
 20
96.996761
 30
0.0
 10
208.698909
 20
96.976949
 30
0.0
 10
208.844313
 20
96.957137
 30
0.0
 10
208.989719
 20
96.937325
 30
0.0
 10
209.135126
 20
96.917513
 30
0.0
 10
209.280533
 20
96.897701
 30
0.0
 10
209.425939
 20
96.877889
 30
0.0
 10
209.571346
 20
96.858077
 30
0.0
 10
209.716752
 20
96.838265
 30
0.0
 10
209.862159
 20
96.818453
 30
0.0
 10
210.007562
 20
96.798641
 30
0.0
 10
210.152969
 20
96.778829
 30
0.0
 10
210.298375
 20
96.759017
 30
0.0
 10
210.443782
 20
96.739205
 30
0.0
 10
210.589189
 20
96.719393
 30
0.0
 10
210.734595
 20
96.699581
 30
0.0
 10
210.880002
 20
96.679769
 30
0.0
 10
211.025405
 20
96.659957
 30
0.0
 10
211.170812
 20
96.640145
 30
0.0
 10
211.316218
 20
96.620333
 30
0.0
 10
211.461625
 20
96.600521
 30
0.0
 10
211.607031
 20
96.580709
 30
0.0
 10
211.750143
 20
96.560135
 30
0.0
 10
211.893256
 20
96.539561
 30
0.0
 10
212.036370
 20
96.518987
 30
0.0
 10
212.179483
 20
96.498413
 30
0.0
 10
212.322595
 20
96.477867
 30
0.0
 10
212.465707
 20
96.457293
 30
0.0
 10
212.608819
 20
96.436719
 30
0.0
 10
212.751931
 20
96.416145
 30
0.0
 10
212.895046
 20
96.395571
 30
0.0
 10
213.038158
 20
96.374997
 30
0.0
 10
213.181270
 20
96.354423
 30
0.0
 10
213.324382
 20
96.333849
 30
0.0
 10
213.467494
 20
96.313275
 30
0.0
 10
213.610609
 20
96.292701
 30
0.0
 10
213.753721
 20
96.272127
 30
0.0
 10
213.896833
 20
96.251553
 30
0.0
 10
214.039945
 20
96.230979
 30
0.0
 10
214.183057
 20
96.210405
 30
0.0
 10
214.326172
 20
96.189831
 30
0.0
 10
214.469284
 20
96.169257
 30
0.0
 10
214.612396
 20
96.148683
 30
0.0
 10
214.755508
 20
96.128109
 30
0.0
 10
214.898620
 20
96.107563
 30
0.0
 10
215.041735
 20
96.086989
 30
0.0
 10
215.184847
 20
96.066415
 30
0.0
 10
215.327959
 20
96.045841
 30
0.0
 10
215.471071
 20
96.025267
 30
0.0
 10
215.614183
 20
96.004721
 30
0.0
 10
215.757295
 20
95.984147
 30
0.0
 10
215.900410
 20
95.963573
 30
0.0
 10
216.043522
 20
95.942999
 30
0.0
 10
216.186634
 20
95.922454
 30
0.0
 10
216.327020
 20
95.901118
 30
0.0
 10
216.467406
 20
95.879782
 30
0.0
 10
216.607792
 20
95.858446
 30
0.0
 10
216.748178
 20
95.837110
 30
0.0
 10
216.888563
 20
95.815774
 30
0.0
 10
217.028949
 20
95.794438
 30
0.0
 10
217.169335
 20
95.773102
 30
0.0
 10
217.309721
 20
95.751766
 30
0.0
 10
217.450107
 20
95.730430
 30
0.0
 10
217.590492
 20
95.709094
 30
0.0
 10
217.730878
 20
95.687758
 30
0.0
 10
217.871264
 20
95.666422
 30
0.0
 10
218.011650
 20
95.645086
 30
0.0
 10
218.152036
 20
95.623750
 30
0.0
 10
218.292421
 20
95.602414
 30
0.0
 10
218.432804
 20
95.581078
 30
0.0
 10
218.573190
 20
95.559742
 30
0.0
 10
218.713576
 20
95.538406
 30
0.0
 10
218.853962
 20
95.517070
 30
0.0
 10
218.994348
 20
95.495734
 30
0.0
 10
219.134733
 20
95.474398
 30
0.0
 10
219.275119
 20
95.453062
 30
0.0
 10
219.415505
 20
95.431726
 30
0.0
 10
219.555891
 20
95.410390
 30
0.0
 10
219.696277
 20
95.389054
 30
0.0
 10
219.836662
 20
95.367718
 30
0.0
 10
219.977048
 20
95.346382
 30
0.0
 10
220.117434
 20
95.325046
 30
0.0
 10
220.257820
 20
95.303710
 30
0.0
 10
220.398206
 20
95.282374
 30
0.0
 10
220.538591
 20
95.261038
 30
0.0
 10
220.678977
 20
95.239702
 30
0.0
 10
220.816202
 20
95.217575
 30
0.0
 10
220.953427
 20
95.195449
 30
0.0
 10
221.090655
 20
95.173323
 30
0.0
 10
221.227880
 20
95.151197
 30
0.0
 10
221.365105
 20
95.129071
 30
0.0
 10
221.502330
 20
95.106944
 30
0.0
 10
221.639557
 20
95.084818
 30
0.0
 10
221.776782
 20
95.062692
 30
0.0
 10
221.914007
 20
95.040566
 30
0.0
 10
222.051232
 20
95.018439
 30
0.0
 10
222.188457
 20
94.996313
 30
0.0
 10
222.325685
 20
94.974187
 30
0.0
 10
222.462910
 20
94.952061
 30
0.0
 10
222.600134
 20
94.929935
 30
0.0
 10
222.737359
 20
94.907808
 30
0.0
 10
222.874584
 20
94.885682
 30
0.0
 10
223.011812
 20
94.863556
 30
0.0
 10
223.149037
 20
94.841430
 30
0.0
 10
223.286262
 20
94.819303
 30
0.0
 10
223.423487
 20
94.797177
 30
0.0
 10
223.560715
 20
94.775051
 30
0.0
 10
223.697939
 20
94.752925
 30
0.0
 10
223.835164
 20
94.730799
 30
0.0
 10
223.972389
 20
94.708672
 30
0.0
 10
224.109614
 20
94.686546
 30
0.0
 10
224.246842
 20
94.664420
 30
0.0
 10
224.384067
 20
94.642294
 30
0.0
 10
224.521292
 20
94.620167
 30
0.0
 10
224.658517
 20
94.598041
 30
0.0
 10
224.795744
 20
94.575915
 30
0.0
 10
224.932969
 20
94.553789
 30
0.0
 10
225.070194
 20
94.531663
 30
0.0
 10
225.203826
 20
94.508718
 30
0.0
 10
225.337459
 20
94.485773
 30
0.0
 10
225.471091
 20
94.462829
 30
0.0
 10
225.604723
 20
94.439884
 30
0.0
 10
225.738355
 20
94.416939
 30
0.0
 10
225.871988
 20
94.393995
 30
0.0
 10
226.005620
 20
94.371050
 30
0.0
 10
226.139252
 20
94.348105
 30
0.0
 10
226.272881
 20
94.325161
 30
0.0
 10
226.406514
 20
94.302216
 30
0.0
 10
226.540146
 20
94.279271
 30
0.0
 10
226.673778
 20
94.256327
 30
0.0
 10
226.807410
 20
94.233382
 30
0.0
 10
226.941042
 20
94.210437
 30
0.0
 10
227.074675
 20
94.187493
 30
0.0
 10
227.208307
 20
94.164548
 30
0.0
 10
227.341939
 20
94.141603
 30
0.0
 10
227.475571
 20
94.118659
 30
0.0
 10
227.609204
 20
94.095714
 30
0.0
 10
227.742836
 20
94.072769
 30
0.0
 10
227.876468
 20
94.049825
 30
0.0
 10
228.010100
 20
94.026880
 30
0.0
 10
228.143732
 20
94.003935
 30
0.0
 10
228.277362
 20
93.980991
 30
0.0
 10
228.410994
 20
93.958046
 30
0.0
 10
228.544626
 20
93.935101
 30
0.0
 10
228.678259
 20
93.912157
 30
0.0
 10
228.811891
 20
93.889212
 30
0.0
 10
228.945523
 20
93.866267
 30
0.0
 10
229.079155
 20
93.843323
 30
0.0
 10
229.212787
 20
93.820378
 30
0.0
 10
229.346420
 20
93.797433
 30
0.0
 10
229.523328
 20
93.765418
 30
0.0
 10
229.700239
 20
93.733406
 30
0.0
 10
229.877147
 20
93.701390
 30
0.0
 10
230.054055
 20
93.669375
 30
0.0
 10
230.230966
 20
93.637362
 30
0.0
 10
230.407874
 20
93.605347
 30
0.0
 10
230.584785
 20
93.573335
 30
0.0
 10
230.761694
 20
93.541319
 30
0.0
 10
230.938602
 20
93.509304
 30
0.0
 10
231.115513
 20
93.477292
 30
0.0
 10
231.292421
 20
93.445276
 30
0.0
 10
231.469329
 20
93.413264
 30
0.0
 10
231.646240
 20
93.381249
 30
0.0
 10
231.823148
 20
93.349233
 30
0.0
 10
232.000059
 20
93.317221
 30
0.0
 10
232.176967
 20
93.285206
 30
0.0
 10
232.353876
 20
93.253190
 30
0.0
 10
232.530787
 20
93.221178
 30
0.0
 10
232.707695
 20
93.189163
 30
0.0
 10
232.884603
 20
93.157147
 30
0.0
 10
233.061514
 20
93.125135
 30
0.0
 10
233.238422
 20
93.093119
 30
0.0
 10
233.415333
 20
93.061107
 30
0.0
 10
233.592241
 20
93.029092
 30
0.0
 10
233.769149
 20
92.997076
 30
0.0
 10
233.946060
 20
92.965064
 30
0.0
 10
234.122969
 20
92.933049
 30
0.0
 10
234.299877
 20
92.901036
 30
0.0
 10
234.476788
 20
92.869021
 30
0.0
 10
234.653696
 20
92.837006
 30
0.0
 10
234.830607
 20
92.804993
 30
0.0
 10
235.007515
 20
92.772978
 30
0.0
 10
235.211158
 20
92.734542
 30
0.0
 10
235.414801
 20
92.696106
 30
0.0
 10
235.618444
 20
92.657670
 30
0.0
 10
235.822088
 20
92.619232
 30
0.0
 10
236.025731
 20
92.580796
 30
0.0
 10
236.229374
 20
92.542360
 30
0.0
 10
236.433017
 20
92.503924
 30
0.0
 10
236.636657
 20
92.465488
 30
0.0
 10
236.840300
 20
92.427052
 30
0.0
 10
237.043943
 20
92.388614
 30
0.0
 10
237.247586
 20
92.350178
 30
0.0
 10
237.451229
 20
92.311742
 30
0.0
 10
237.654873
 20
92.273306
 30
0.0
 10
237.858516
 20
92.234870
 30
0.0
 10
238.062159
 20
92.196435
 30
0.0
 10
238.265802
 20
92.157996
 30
0.0
 10
238.469445
 20
92.119560
 30
0.0
 10
238.673088
 20
92.081124
 30
0.0
 10
238.876731
 20
92.042688
 30
0.0
 10
239.080374
 20
92.004253
 30
0.0
 10
239.284017
 20
91.965817
 30
0.0
 10
239.487660
 20
91.927381
 30
0.0
 10
239.691303
 20
91.888942
 30
0.0
 10
239.894944
 20
91.850506
 30
0.0
 10
240.098587
 20
91.812070
 30
0.0
 10
240.302230
 20
91.773635
 30
0.0
 10
240.505873
 20
91.735199
 30
0.0
 10
240.709516
 20
91.696763
 30
0.0
 10
240.913159
 20
91.658324
 30
0.0
 10
241.116802
 20
91.619888
 30
0.0
 10
241.320445
 20
91.581453
 30
0.0
 10
241.524088
 20
91.543017
 30
0.0
 10
241.752968
 20
91.497850
 30
0.0
 10
241.981844
 20
91.452683
 30
0.0
 10
242.210724
 20
91.407516
 30
0.0
 10
242.439600
 20
91.362349
 30
0.0
 10
242.668480
 20
91.317183
 30
0.0
 10
242.897359
 20
91.272016
 30
0.0
 10
243.126236
 20
91.226849
 30
0.0
 10
243.355115
 20
91.181682
 30
0.0
 10
243.583992
 20
91.136515
 30
0.0
 10
243.812871
 20
91.091348
 30
0.0
 10
244.041751
 20
91.046181
 30
0.0
 10
244.270627
 20
91.001015
 30
0.0
 10
244.499506
 20
90.955848
 30
0.0
 10
244.728383
 20
90.910681
 30
0.0
 10
244.957262
 20
90.865514
 30
0.0
 10
245.186139
 20
90.820347
 30
0.0
 10
245.415018
 20
90.775180
 30
0.0
 10
245.643898
 20
90.730014
 30
0.0
 10
245.872774
 20
90.684847
 30
0.0
 10
246.101654
 20
90.639680
 30
0.0
 10
246.330530
 20
90.594513
 30
0.0
 10
246.559410
 20
90.549346
 30
0.0
 10
246.788289
 20
90.504179
 30
0.0
 10
247.017166
 20
90.459012
 30
0.0
 10
247.246045
 20
90.413846
 30
0.0
 10
247.474922
 20
90.368679
 30
0.0
 10
247.703801
 20
90.323512
 30
0.0
 10
247.932681
 20
90.278345
 30
0.0
 10
248.161557
 20
90.233178
 30
0.0
 10
248.390437
 20
90.188011
 30
0.0
 10
248.619313
 20
90.142845
 30
0.0
 10
248.848193
 20
90.097678
 30
0.0
 10
249.100807
 20
90.045472
 30
0.0
 10
249.353424
 20
89.993267
 30
0.0
 10
249.606038
 20
89.941061
 30
0.0
 10
249.858655
 20
89.888853
 30
0.0
 10
250.111272
 20
89.836648
 30
0.0
 10
250.363887
 20
89.784442
 30
0.0
 10
250.616501
 20
89.732237
 30
0.0
 10
250.869118
 20
89.680031
 30
0.0
 10
251.121735
 20
89.627826
 30
0.0
 10
251.374350
 20
89.575620
 30
0.0
 10
251.626967
 20
89.523415
 30
0.0
 10
251.879581
 20
89.471206
 30
0.0
 10
252.132198
 20
89.419001
 30
0.0
 10
252.384812
 20
89.366796
 30
0.0
 10
252.637429
 20
89.314590
 30
0.0
 10
252.890044
 20
89.262385
 30
0.0
 10
253.142661
 20
89.210179
 30
0.0
 10
253.395275
 20
89.157974
 30
0.0
 10
253.647892
 20
89.105768
 30
0.0
 10
253.900507
 20
89.053563
 30
0.0
 10
254.153124
 20
89.001354
 30
0.0
 10
254.405738
 20
88.949149
 30
0.0
 10
254.658355
 20
88.896944
 30
0.0
 10
254.910969
 20
88.844738
 30
0.0
 10
255.163586
 20
88.792533
 30
0.0
 10
255.416201
 20
88.740327
 30
0.0
 10
255.668818
 20
88.688122
 30
0.0
 10
255.921432
 20
88.635913
 30
0.0
 10
256.174046
 20
88.583708
 30
0.0
 10
256.426664
 20
88.531502
 30
0.0
 10
256.679281
 20
88.479297
 30
0.0
 10
256.931895
 20
88.427092
 30
0.0
 10
257.206748
 20
88.367537
 30
0.0
 10
257.481605
 20
88.307982
 30
0.0
 10
257.756461
 20
88.248431
 30
0.0
 10
258.031314
 20
88.188876
 30
0.0
 10
258.306168
 20
88.129322
 30
0.0
 10
258.581024
 20
88.069767
 30
0.0
 10
258.855880
 20
88.010215
 30
0.0
 10
259.130733
 20
87.950661
 30
0.0
 10
259.405587
 20
87.891106
 30
0.0
 10
259.680443
 20
87.831552
 30
0.0
 10
259.955299
 20
87.771997
 30
0.0
 10
260.230153
 20
87.712446
 30
0.0
 10
260.505006
 20
87.652891
 30
0.0
 10
260.779862
 20
87.593337
 30
0.0
 10
261.054718
 20
87.533782
 30
0.0
 10
261.329572
 20
87.474227
 30
0.0
 10
261.604425
 20
87.414676
 30
0.0
 10
261.879282
 20
87.355121
 30
0.0
 10
262.154138
 20
87.295567
 30
0.0
 10
262.428991
 20
87.236012
 30
0.0
 10
262.703845
 20
87.176460
 30
0.0
 10
262.978701
 20
87.116906
 30
0.0
 10
263.253557
 20
87.057351
 30
0.0
 10
263.528410
 20
86.997797
 30
0.0
 10
263.803264
 20
86.938242
 30
0.0
 10
264.078120
 20
86.878691
 30
0.0
 10
264.352976
 20
86.819136
 30
0.0
 10
264.627830
 20
86.759582
 30
0.0
 10
264.902683
 20
86.700027
 30
0.0
 10
265.177539
 20
86.640475
 30
0.0
 10
265.452395
 20
86.580921
 30
0.0
 10
265.727249
 20
86.521366
 30
0.0
 10
266.022846
 20
86.454155
 30
0.0
 10
266.318442
 20
86.386944
 30
0.0
 10
266.614036
 20
86.319735
 30
0.0
 10
266.909633
 20
86.252524
 30
0.0
 10
267.205230
 20
86.185313
 30
0.0
 10
267.500826
 20
86.118105
 30
0.0
 10
267.796420
 20
86.050893
 30
0.0
 10
268.092017
 20
85.983682
 30
0.0
 10
268.387614
 20
85.916471
 30
0.0
 10
268.683211
 20
85.849262
 30
0.0
 10
268.978807
 20
85.782051
 30
0.0
 10
269.274401
 20
85.714840
 30
0.0
 10
269.569998
 20
85.647629
 30
0.0
 10
269.865595
 20
85.580418
 30
0.0
 10
270.161191
 20
85.513209
 30
0.0
 10
270.456785
 20
85.445998
 30
0.0
 10
270.752382
 20
85.378787
 30
0.0
 10
271.047979
 20
85.311575
 30
0.0
 10
271.343576
 20
85.244367
 30
0.0
 10
271.639172
 20
85.177156
 30
0.0
 10
271.934766
 20
85.109945
 30
0.0
 10
272.230363
 20
85.042733
 30
0.0
 10
272.525960
 20
84.975525
 30
0.0
 10
272.821556
 20
84.908314
 30
0.0
 10
273.117153
 20
84.841103
 30
0.0
 10
273.412747
 20
84.773891
 30
0.0
 10
273.708344
 20
84.706683
 30
0.0
 10
274.003940
 20
84.639472
 30
0.0
 10
274.299537
 20
84.572261
 30
0.0
 10
274.595131
 20
84.505049
 30
0.0
 10
274.890728
 20
84.437841
 30
0.0
 10
275.186325
 20
84.370630
 30
0.0
 10
275.501163
 20
84.295454
 30
0.0
 10
275.816002
 20
84.220279
 30
0.0
 10
276.130843
 20
84.145103
 30
0.0
 10
276.445682
 20
84.069928
 30
0.0
 10
276.760521
 20
83.994749
 30
0.0
 10
277.075359
 20
83.919574
 30
0.0
 10
277.390198
 20
83.844398
 30
0.0
 10
277.705037
 20
83.769223
 30
0.0
 10
278.019878
 20
83.694047
 30
0.0
 10
278.334717
 20
83.618872
 30
0.0
 10
278.649555
 20
83.543696
 30
0.0
 10
278.964394
 20
83.468518
 30
0.0
 10
279.279233
 20
83.393342
 30
0.0
 10
279.594074
 20
83.318167
 30
0.0
 10
279.908913
 20
83.242991
 30
0.0
 10
280.223751
 20
83.167815
 30
0.0
 10
280.538590
 20
83.092640
 30
0.0
 10
280.853429
 20
83.017464
 30
0.0
 10
281.168270
 20
82.942289
 30
0.0
 10
281.483109
 20
82.867113
 30
0.0
 10
281.797947
 20
82.791935
 30
0.0
 10
282.112786
 20
82.716759
 30
0.0
 10
282.427625
 20
82.641584
 30
0.0
 10
282.742463
 20
82.566408
 30
0.0
 10
283.057305
 20
82.491233
 30
0.0
 10
283.372143
 20
82.416057
 30
0.0
 10
283.686982
 20
82.340882
 30
0.0
 10
284.001821
 20
82.265703
 30
0.0
 10
284.316659
 20
82.190528
 30
0.0
 10
284.631501
 20
82.115352
 30
0.0
 10
284.946339
 20
82.040177
 30
0.0
 10
285.261178
 20
81.965001
 30
0.0
 10
285.593763
 20
81.881551
 30
0.0
 10
285.926348
 20
81.798101
 30
0.0
 10
286.258932
 20
81.714653
 30
0.0
 10
286.591514
 20
81.631203
 30
0.0
 10
286.924099
 20
81.547753
 30
0.0
 10
287.256684
 20
81.464302
 30
0.0
 10
287.589269
 20
81.380855
 30
0.0
 10
287.921854
 20
81.297405
 30
0.0
 10
288.254438
 20
81.213954
 30
0.0
 10
288.587020
 20
81.130504
 30
0.0
 10
288.919605
 20
81.047054
 30
0.0
 10
289.252190
 20
80.963606
 30
0.0
 10
289.584775
 20
80.880156
 30
0.0
 10
289.917359
 20
80.796706
 30
0.0
 10
290.249944
 20
80.713255
 30
0.0
 10
290.582529
 20
80.629808
 30
0.0
 10
290.915111
 20
80.546358
 30
0.0
 10
291.247696
 20
80.462907
 30
0.0
 10
291.580280
 20
80.379457
 30
0.0
 10
291.912865
 20
80.296007
 30
0.0
 10
292.245450
 20
80.212559
 30
0.0
 10
292.578035
 20
80.129109
 30
0.0
 10
292.910617
 20
80.045659
 30
0.0
 10
293.243202
 20
79.962208
 30
0.0
 10
293.575786
 20
79.878758
 30
0.0
 10
293.908371
 20
79.795311
 30
0.0
 10
294.240956
 20
79.711860
 30
0.0
 10
294.573541
 20
79.628410
 30
0.0
 10
294.906123
 20
79.544960
 30
0.0
 10
295.238707
 20
79.461512
 30
0.0
 10
295.571292
 20
79.378062
 30
0.0
 10
295.903877
 20
79.294612
 30
0.0
 10
296.252706
 20
79.202579
 30
0.0
 10
296.601539
 20
79.110546
 30
0.0
 10
296.950368
 20
79.018514
 30
0.0
 10
297.299201
 20
78.926481
 30
0.0
 10
297.648030
 20
78.834448
 30
0.0
 10
297.996862
 20
78.742416
 30
0.0
 10
298.345692
 20
78.650383
 30
0.0
 10
298.694521
 20
78.558350
 30
0.0
 10
299.043354
 20
78.466318
 30
0.0
 10
299.392183
 20
78.374285
 30
0.0
 10
299.741015
 20
78.282252
 30
0.0
 10
300.089845
 20
78.190220
 30
0.0
 10
300.438677
 20
78.098187
 30
0.0
 10
300.787507
 20
78.006154
 30
0.0
 10
301.136339
 20
77.914122
 30
0.0
 10
301.485168
 20
77.822089
 30
0.0
 10
301.833998
 20
77.730059
 30
0.0
 10
302.182830
 20
77.638027
 30
0.0
 10
302.531660
 20
77.545994
 30
0.0
 10
302.880492
 20
77.453961
 30
0.0
 10
303.229322
 20
77.361929
 30
0.0
 10
303.578154
 20
77.269896
 30
0.0
 10
303.926983
 20
77.177863
 30
0.0
 10
304.275813
 20
77.085831
 30
0.0
 10
304.624645
 20
76.993798
 30
0.0
 10
304.973475
 20
76.901765
 30
0.0
 10
305.322307
 20
76.809733
 30
0.0
 10
305.671125
 20
76.717700
 30
0.0
 10
306.019980
 20
76.625667
 30
0.0
 10
306.368807
 20
76.533635
 30
0.0
 10
306.717633
 20
76.441602
 30
0.0
 10
307.066460
 20
76.349569
 30
0.0
 10
307.430047
 20
76.248647
 30
0.0
 10
307.793634
 20
76.147721
 30
0.0
 10
308.157193
 20
76.046798
 30
0.0
 10
308.520779
 20
75.945876
 30
0.0
 10
308.884366
 20
75.844950
 30
0.0
 10
309.247953
 20
75.744028
 30
0.0
 10
309.611512
 20
75.643105
 30
0.0
 10
309.975099
 20
75.542180
 30
0.0
 10
310.338686
 20
75.441257
 30
0.0
 10
310.702273
 20
75.340334
 30
0.0
 10
311.065859
 20
75.239409
 30
0.0
 10
311.429418
 20
75.138486
 30
0.0
 10
311.793005
 20
75.037563
 30
0.0
 10
312.156592
 20
74.936638
 30
0.0
 10
312.520179
 20
74.835715
 30
0.0
 10
312.883737
 20
74.734793
 30
0.0
 10
313.247324
 20
74.633867
 30
0.0
 10
313.610911
 20
74.532944
 30
0.0
 10
313.974498
 20
74.432019
 30
0.0
 10
314.338085
 20
74.331096
 30
0.0
 10
314.701644
 20
74.230174
 30
0.0
 10
315.065231
 20
74.129248
 30
0.0
 10
315.428817
 20
74.028325
 30
0.0
 10
315.792404
 20
73.927403
 30
0.0
 10
316.155991
 20
73.826477
 30
0.0
 10
316.519550
 20
73.725555
 30
0.0
 10
316.883137
 20
73.624632
 30
0.0
 10
317.246724
 20
73.523706
 30
0.0
 10
317.610311
 20
73.422784
 30
0.0
 10
317.973869
 20
73.321861
 30
0.0
 10
318.337456
 20
73.220936
 30
0.0
 10
318.701043
 20
73.120013
 30
0.0
 10
319.077866
 20
73.009890
 30
0.0
 10
319.454717
 20
72.899767
 30
0.0
 10
319.831541
 20
72.789641
 30
0.0
 10
320.208364
 20
72.679518
 30
0.0
 10
320.585187
 20
72.569395
 30
0.0
 10
320.962038
 20
72.459271
 30
0.0
 10
321.338861
 20
72.349148
 30
0.0
 10
321.715684
 20
72.239022
 30
0.0
 10
322.092507
 20
72.128899
 30
0.0
 10
322.469331
 20
72.018776
 30
0.0
 10
322.846182
 20
71.908653
 30
0.0
 10
323.223005
 20
71.798530
 30
0.0
 10
323.599828
 20
71.688407
 30
0.0
 10
323.976651
 20
71.578281
 30
0.0
 10
324.353503
 20
71.468158
 30
0.0
 10
324.730326
 20
71.358035
 30
0.0
 10
325.107149
 20
71.247912
 30
0.0
 10
325.484000
 20
71.137788
 30
0.0
 10
325.860823
 20
71.027663
 30
0.0
 10
326.237646
 20
70.917539
 30
0.0
 10
326.614469
 20
70.807416
 30
0.0
 10
326.991293
 20
70.697293
 30
0.0
 10
327.368144
 20
70.587170
 30
0.0
 10
327.744967
 20
70.477047
 30
0.0
 10
328.121790
 20
70.366921
 30
0.0
 10
328.498613
 20
70.256798
 30
0.0
 10
328.875465
 20
70.146675
 30
0.0
 10
329.252288
 20
70.036552
 30
0.0
 10
329.629111
 20
69.926429
 30
0.0
 10
330.005962
 20
69.816303
 30
0.0
 10
330.382785
 20
69.706180
 30
0.0
 10
330.759608
 20
69.596056
 30
0.0
 10
331.148200
 20
69.476425
 30
0.0
 10
331.536764
 20
69.356791
 30
0.0
 10
331.925355
 20
69.237160
 30
0.0
 10
332.313947
 20
69.117526
 30
0.0
 10
332.702539
 20
68.997895
 30
0.0
 10
333.091103
 20
68.878261
 30
0.0
 10
333.479694
 20
68.758630
 30
0.0
 10
333.868286
 20
68.638996
 30
0.0
 10
334.256850
 20
68.519365
 30
0.0
 10
334.645441
 20
68.399733
 30
0.0
 10
335.034033
 20
68.280099
 30
0.0
 10
335.422625
 20
68.160468
 30
0.0
 10
335.811189
 20
68.040834
 30
0.0
 10
336.199780
 20
67.921203
 30
0.0
 10
336.588372
 20
67.801569
 30
0.0
 10
336.976936
 20
67.681938
 30
0.0
 10
337.365527
 20
67.562307
 30
0.0
 10
337.754119
 20
67.442673
 30
0.0
 10
338.142711
 20
67.323041
 30
0.0
 10
338.531275
 20
67.203407
 30
0.0
 10
338.919866
 20
67.083776
 30
0.0
 10
339.308458
 20
66.964142
 30
0.0
 10
339.697050
 20
66.844511
 30
0.0
 10
340.085613
 20
66.724880
 30
0.0
 10
340.474205
 20
66.605246
 30
0.0
 10
340.862797
 20
66.485615
 30
0.0
 10
341.251361
 20
66.365981
 30
0.0
 10
341.639952
 20
66.246350
 30
0.0
 10
342.028544
 20
66.126716
 30
0.0
 10
342.417136
 20
66.007084
 30
0.0
 10
342.805699
 20
65.887450
 30
0.0
 10
343.194291
 20
65.767819
 30
0.0
 10
343.593128
 20
65.638370
 30
0.0
 10
343.991964
 20
65.508920
 30
0.0
 10
344.390801
 20
65.379470
 30
0.0
 10
344.789637
 20
65.250020
 30
0.0
 10
345.188473
 20
65.120571
 30
0.0
 10
345.587310
 20
64.991121
 30
0.0
 10
345.986146
 20
64.861671
 30
0.0
 10
346.384983
 20
64.732222
 30
0.0
 10
346.783819
 20
64.602772
 30
0.0
 10
347.182656
 20
64.473322
 30
0.0
 10
347.581492
 20
64.343873
 30
0.0
 10
347.980329
 20
64.214423
 30
0.0
 10
348.379165
 20
64.084973
 30
0.0
 10
348.778001
 20
63.955524
 30
0.0
 10
349.176838
 20
63.826074
 30
0.0
 10
349.575674
 20
63.696624
 30
0.0
 10
349.974539
 20
63.567172
 30
0.0
 10
350.373375
 20
63.437722
 30
0.0
 10
350.772212
 20
63.308272
 30
0.0
 10
351.171048
 20
63.178823
 30
0.0
 10
351.569885
 20
63.049373
 30
0.0
 10
351.968721
 20
62.919923
 30
0.0
 10
352.367558
 20
62.790474
 30
0.0
 10
352.766394
 20
62.661024
 30
0.0
 10
353.165231
 20
62.531574
 30
0.0
 10
353.564067
 20
62.402125
 30
0.0
 10
353.962903
 20
62.272675
 30
0.0
 10
354.361740
 20
62.143225
 30
0.0
 10
354.760576
 20
62.013775
 30
0.0
 10
355.159413
 20
61.884326
 30
0.0
 10
355.558249
 20
61.754876
 30
0.0
 10
355.957086
 20
61.625426
 30
0.0
 10
355.686999
 20
61.232096
 30
0.0
 10
355.421287
 20
60.825174
 30
0.0
 10
355.162122
 20
60.405659
 30
0.0
 10
354.911650
 20
59.974545
 30
0.0
 10
354.672015
 20
59.532830
 30
0.0
 10
354.445362
 20
59.081518
 30
0.0
 10
354.233865
 20
58.621597
 30
0.0
 10
354.039640
 20
58.154070
 30
0.0
 10
353.864888
 20
57.679934
 30
0.0
 10
353.711697
 20
57.200188
 30
0.0
 10
353.582242
 20
56.715827
 30
0.0
 10
353.478695
 20
56.227850
 30
0.0
 10
353.403172
 20
55.737252
 30
0.0
 10
353.357847
 20
55.245034
 30
0.0
 10
353.344865
 20
54.752192
 30
0.0
 10
353.366314
 20
54.259726
 30
0.0
 10
353.424452
 20
53.768631
 30
0.0
 10
353.521367
 20
53.279904
 30
0.0
 10
353.659204
 20
52.794541
 30
0.0
 10
353.840165
 20
52.313546
 30
0.0
 10
354.066338
 20
51.837912
 30
0.0
 10
354.339896
 20
51.368635
 30
0.0
 10
354.662984
 20
50.906720
 30
0.0
 10
355.037747
 20
50.453155
 30
0.0
 10
355.466358
 20
50.008942
 30
0.0
 10
355.950961
 20
49.575082
 30
0.0
 10
356.493675
 20
49.152567
 30
0.0
 10
357.096699
 20
48.742397
 30
0.0
 10
357.762123
 20
48.345570
 30
0.0
 10
358.492147
 20
47.963082
 30
0.0
 10
359.288917
 20
47.595934
 30
0.0
 10
360.154549
 20
47.245120
 30
0.0
 10
359.914519
 20
47.244556
 30
0.0
 10
359.674460
 20
47.243992
 30
0.0
 10
359.434430
 20
47.243427
 30
0.0
 10
359.194372
 20
47.242863
 30
0.0
 10
358.954342
 20
47.242298
 30
0.0
 10
358.714284
 20
47.241734
 30
0.0
 10
358.474254
 20
47.241169
 30
0.0
 10
358.234196
 20
47.240605
 30
0.0
 10
357.994166
 20
47.240040
 30
0.0
 10
357.754107
 20
47.239476
 30
0.0
 10
357.514077
 20
47.238912
 30
0.0
 10
357.274019
 20
47.238347
 30
0.0
 10
357.033989
 20
47.237783
 30
0.0
 10
356.793931
 20
47.237218
 30
0.0
 10
356.553901
 20
47.236654
 30
0.0
 10
356.313843
 20
47.236089
 30
0.0
 10
356.073813
 20
47.235525
 30
0.0
 10
355.833783
 20
47.234960
 30
0.0
 10
355.593725
 20
47.234396
 30
0.0
 10
355.353695
 20
47.233832
 30
0.0
 10
355.113636
 20
47.233267
 30
0.0
 10
354.873606
 20
47.232703
 30
0.0
 10
354.633548
 20
47.232138
 30
0.0
 10
354.393518
 20
47.231574
 30
0.0
 10
354.153460
 20
47.231009
 30
0.0
 10
353.913430
 20
47.230445
 30
0.0
 10
353.673372
 20
47.229880
 30
0.0
 10
353.433342
 20
47.229316
 30
0.0
 10
353.193283
 20
47.228752
 30
0.0
 10
352.953253
 20
47.228187
 30
0.0
 10
352.713195
 20
47.227623
 30
0.0
 10
352.473165
 20
47.227058
 30
0.0
 10
352.245271
 20
47.226212
 30
0.0
 10
352.017376
 20
47.225365
 30
0.0
 10
351.789454
 20
47.224518
 30
0.0
 10
351.561559
 20
47.223672
 30
0.0
 10
351.333665
 20
47.222825
 30
0.0
 10
351.105770
 20
47.221978
 30
0.0
 10
350.877848
 20
47.221132
 30
0.0
 10
350.649953
 20
47.220285
 30
0.0
 10
350.422059
 20
47.219438
 30
0.0
 10
350.194164
 20
47.218592
 30
0.0
 10
349.966242
 20
47.217745
 30
0.0
 10
349.738347
 20
47.216898
 30
0.0
 10
349.510453
 20
47.216052
 30
0.0
 10
349.282558
 20
47.215205
 30
0.0
 10
349.054636
 20
47.214358
 30
0.0
 10
348.826741
 20
47.213512
 30
0.0
 10
348.598847
 20
47.212665
 30
0.0
 10
348.370952
 20
47.211818
 30
0.0
 10
348.143030
 20
47.210972
 30
0.0
 10
347.915135
 20
47.210125
 30
0.0
 10
347.687241
 20
47.209278
 30
0.0
 10
347.459346
 20
47.208432
 30
0.0
 10
347.231424
 20
47.207585
 30
0.0
 10
347.003529
 20
47.206738
 30
0.0
 10
346.775635
 20
47.205892
 30
0.0
 10
346.547740
 20
47.205045
 30
0.0
 10
346.319818
 20
47.204198
 30
0.0
 10
346.091923
 20
47.203352
 30
0.0
 10
345.864029
 20
47.202505
 30
0.0
 10
345.636134
 20
47.201658
 30
0.0
 10
345.408212
 20
47.200812
 30
0.0
 10
345.180317
 20
47.199965
 30
0.0
 10
344.963063
 20
47.199118
 30
0.0
 10
344.745780
 20
47.198272
 30
0.0
 10
344.528525
 20
47.197425
 30
0.0
 10
344.311242
 20
47.196578
 30
0.0
 10
344.093987
 20
47.195732
 30
0.0
 10
343.876705
 20
47.194885
 30
0.0
 10
343.659450
 20
47.194038
 30
0.0
 10
343.442167
 20
47.193192
 30
0.0
 10
343.224912
 20
47.192345
 30
0.0
 10
343.007629
 20
47.191498
 30
0.0
 10
342.790375
 20
47.190652
 30
0.0
 10
342.573092
 20
47.189805
 30
0.0
 10
342.355837
 20
47.188958
 30
0.0
 10
342.138554
 20
47.188112
 30
0.0
 10
341.921300
 20
47.187265
 30
0.0
 10
341.704017
 20
47.186418
 30
0.0
 10
341.486762
 20
47.185572
 30
0.0
 10
341.269479
 20
47.184725
 30
0.0
 10
341.052225
 20
47.183878
 30
0.0
 10
340.834942
 20
47.183032
 30
0.0
 10
340.617687
 20
47.182185
 30
0.0
 10
340.400404
 20
47.181338
 30
0.0
 10
340.183149
 20
47.180492
 30
0.0
 10
339.965867
 20
47.179645
 30
0.0
 10
339.748612
 20
47.178798
 30
0.0
 10
339.531329
 20
47.177952
 30
0.0
 10
339.314074
 20
47.177105
 30
0.0
 10
339.096791
 20
47.176258
 30
0.0
 10
338.879537
 20
47.175412
 30
0.0
 10
338.662254
 20
47.174565
 30
0.0
 10
338.444999
 20
47.173718
 30
0.0
 10
338.227716
 20
47.172872
 30
0.0
 10
338.019577
 20
47.172025
 30
0.0
 10
337.811410
 20
47.171178
 30
0.0
 10
337.603271
 20
47.170332
 30
0.0
 10
337.395104
 20
47.169485
 30
0.0
 10
337.186965
 20
47.168638
 30
0.0
 10
336.978798
 20
47.167792
 30
0.0
 10
336.770659
 20
47.166945
 30
0.0
 10
336.562492
 20
47.166098
 30
0.0
 10
336.354353
 20
47.165252
 30
0.0
 10
336.146186
 20
47.164405
 30
0.0
 10
335.938047
 20
47.163558
 30
0.0
 10
335.729880
 20
47.162712
 30
0.0
 10
335.521741
 20
47.161865
 30
0.0
 10
335.313574
 20
47.161018
 30
0.0
 10
335.105435
 20
47.160172
 30
0.0
 10
334.897268
 20
47.159325
 30
0.0
 10
334.689129
 20
47.158478
 30
0.0
 10
334.480962
 20
47.157632
 30
0.0
 10
334.272823
 20
47.156785
 30
0.0
 10
334.064656
 20
47.155938
 30
0.0
 10
333.856517
 20
47.155092
 30
0.0
 10
333.648350
 20
47.154245
 30
0.0
 10
333.440211
 20
47.153398
 30
0.0
 10
333.232044
 20
47.152552
 30
0.0
 10
333.023905
 20
47.151705
 30
0.0
 10
332.815738
 20
47.150858
 30
0.0
 10
332.607599
 20
47.150012
 30
0.0
 10
332.399432
 20
47.149165
 30
0.0
 10
332.191293
 20
47.148318
 30
0.0
 10
331.983126
 20
47.147472
 30
0.0
 10
331.774987
 20
47.146625
 30
0.0
 10
331.566820
 20
47.145778
 30
0.0
 10
331.355775
 20
47.145214
 30
0.0
 10
331.144757
 20
47.144649
 30
0.0
 10
330.933711
 20
47.144085
 30
0.0
 10
330.722694
 20
47.143520
 30
0.0
 10
330.511648
 20
47.142956
 30
0.0
 10
330.300602
 20
47.142392
 30
0.0
 10
330.089585
 20
47.141827
 30
0.0
 10
329.878539
 20
47.141263
 30
0.0
 10
329.667521
 20
47.140698
 30
0.0
 10
329.456475
 20
47.140134
 30
0.0
 10
329.245430
 20
47.139569
 30
0.0
 10
329.034412
 20
47.139005
 30
0.0
 10
328.823366
 20
47.138440
 30
0.0
 10
328.612349
 20
47.137876
 30
0.0
 10
328.401303
 20
47.137312
 30
0.0
 10
328.190285
 20
47.136747
 30
0.0
 10
327.979240
 20
47.136183
 30
0.0
 10
327.768194
 20
47.135618
 30
0.0
 10
327.557176
 20
47.135054
 30
0.0
 10
327.346131
 20
47.134489
 30
0.0
 10
327.135113
 20
47.133925
 30
0.0
 10
326.924067
 20
47.133360
 30
0.0
 10
326.713021
 20
47.132796
 30
0.0
 10
326.502004
 20
47.132232
 30
0.0
 10
326.290958
 20
47.131667
 30
0.0
 10
326.079941
 20
47.131103
 30
0.0
 10
325.868895
 20
47.130538
 30
0.0
 10
325.657849
 20
47.129974
 30
0.0
 10
325.446831
 20
47.129409
 30
0.0
 10
325.235786
 20
47.128845
 30
0.0
 10
325.024768
 20
47.128280
 30
0.0
 10
324.813722
 20
47.127716
 30
0.0
 10
324.593815
 20
47.127434
 30
0.0
 10
324.373879
 20
47.127152
 30
0.0
 10
324.153971
 20
47.126869
 30
0.0
 10
323.934036
 20
47.126587
 30
0.0
 10
323.714128
 20
47.126305
 30
0.0
 10
323.494192
 20
47.126023
 30
0.0
 10
323.274285
 20
47.125740
 30
0.0
 10
323.054349
 20
47.125458
 30
0.0
 10
322.834441
 20
47.125176
 30
0.0
 10
322.614506
 20
47.124894
 30
0.0
 10
322.394570
 20
47.124612
 30
0.0
 10
322.174662
 20
47.124329
 30
0.0
 10
321.954755
 20
47.124047
 30
0.0
 10
321.734819
 20
47.123765
 30
0.0
 10
321.514911
 20
47.123483
 30
0.0
 10
321.294976
 20
47.123200
 30
0.0
 10
321.075068
 20
47.122918
 30
0.0
 10
320.855132
 20
47.122636
 30
0.0
 10
320.635225
 20
47.122354
 30
0.0
 10
320.415289
 20
47.122072
 30
0.0
 10
320.195381
 20
47.121789
 30
0.0
 10
319.975446
 20
47.121507
 30
0.0
 10
319.755538
 20
47.121225
 30
0.0
 10
319.535602
 20
47.120943
 30
0.0
 10
319.315695
 20
47.120660
 30
0.0
 10
319.095759
 20
47.120378
 30
0.0
 10
318.875851
 20
47.120096
 30
0.0
 10
318.655916
 20
47.119814
 30
0.0
 10
318.436008
 20
47.119532
 30
0.0
 10
318.216072
 20
47.119249
 30
0.0
 10
317.996165
 20
47.118967
 30
0.0
 10
317.776229
 20
47.118685
 30
0.0
 10
317.554882
 20
47.118640
 30
0.0
 10
317.333563
 20
47.118597
 30
0.0
 10
317.112217
 20
47.118552
 30
0.0
 10
316.890898
 20
47.118507
 30
0.0
 10
316.669551
 20
47.118465
 30
0.0
 10
316.448204
 20
47.118420
 30
0.0
 10
316.226885
 20
47.118377
 30
0.0
 10
316.005539
 20
47.118332
 30
0.0
 10
315.784192
 20
47.118287
 30
0.0
 10
315.562873
 20
47.118245
 30
0.0
 10
315.341526
 20
47.118199
 30
0.0
 10
315.120207
 20
47.118157
 30
0.0
 10
314.898861
 20
47.118112
 30
0.0
 10
314.677514
 20
47.118067
 30
0.0
 10
314.456195
 20
47.118024
 30
0.0
 10
314.234848
 20
47.117979
 30
0.0
 10
314.013501
 20
47.117934
 30
0.0
 10
313.792183
 20
47.117892
 30
0.0
 10
313.570836
 20
47.117847
 30
0.0
 10
313.349517
 20
47.117802
 30
0.0
 10
313.128170
 20
47.117759
 30
0.0
 10
312.906823
 20
47.117714
 30
0.0
 10
312.685505
 20
47.117672
 30
0.0
 10
312.464158
 20
47.117627
 30
0.0
 10
312.242811
 20
47.117581
 30
0.0
 10
312.021492
 20
47.117539
 30
0.0
 10
311.800145
 20
47.117494
 30
0.0
 10
311.578827
 20
47.117452
 30
0.0
 10
311.357480
 20
47.117406
 30
0.0
 10
311.136133
 20
47.117361
 30
0.0
 10
310.914814
 20
47.117319
 30
0.0
 10
310.693467
 20
47.117274
 30
0.0
 10
310.478188
 20
47.117519
 30
0.0
 10
310.262909
 20
47.117765
 30
0.0
 10
310.047630
 20
47.118010
 30
0.0
 10
309.832351
 20
47.118253
 30
0.0
 10
309.617072
 20
47.118499
 30
0.0
 10
309.401793
 20
47.118744
 30
0.0
 10
309.186513
 20
47.118990
 30
0.0
 10
308.971234
 20
47.119235
 30
0.0
 10
308.755955
 20
47.119481
 30
0.0
 10
308.540676
 20
47.119726
 30
0.0
 10
308.325397
 20
47.119972
 30
0.0
 10
308.110118
 20
47.120217
 30
0.0
 10
307.894839
 20
47.120460
 30
0.0
 10
307.679560
 20
47.120706
 30
0.0
 10
307.464281
 20
47.120951
 30
0.0
 10
307.249001
 20
47.121197
 30
0.0
 10
307.033722
 20
47.121442
 30
0.0
 10
306.818443
 20
47.121688
 30
0.0
 10
306.603164
 20
47.121933
 30
0.0
 10
306.387885
 20
47.122179
 30
0.0
 10
306.172606
 20
47.122421
 30
0.0
 10
305.957327
 20
47.122667
 30
0.0
 10
305.742048
 20
47.122913
 30
0.0
 10
305.526774
 20
47.123158
 30
0.0
 10
305.311495
 20
47.123404
 30
0.0
 10
305.096216
 20
47.123649
 30
0.0
 10
304.880940
 20
47.123895
 30
0.0
 10
304.665661
 20
47.124137
 30
0.0
 10
304.450381
 20
47.124383
 30
0.0
 10
304.235102
 20
47.124628
 30
0.0
 10
304.019823
 20
47.124874
 30
0.0
 10
303.804544
 20
47.125120
 30
0.0
 10
303.593809
 20
47.125684
 30
0.0
 10
303.383073
 20
47.126248
 30
0.0
 10
303.172338
 20
47.126813
 30
0.0
 10
302.961603
 20
47.127377
 30
0.0
 10
302.750867
 20
47.127942
 30
0.0
 10
302.540135
 20
47.128506
 30
0.0
 10
302.329400
 20
47.129071
 30
0.0
 10
302.118664
 20
47.129635
 30
0.0
 10
301.907929
 20
47.130200
 30
0.0
 10
301.697194
 20
47.130764
 30
0.0
 10
301.486458
 20
47.131328
 30
0.0
 10
301.275723
 20
47.131893
 30
0.0
 10
301.064988
 20
47.132457
 30
0.0
 10
300.854252
 20
47.133022
 30
0.0
 10
300.643517
 20
47.133586
 30
0.0
 10
300.432784
 20
47.134151
 30
0.0
 10
300.222049
 20
47.134715
 30
0.0
 10
300.011314
 20
47.135280
 30
0.0
 10
299.800578
 20
47.135844
 30
0.0
 10
299.589843
 20
47.136408
 30
0.0
 10
299.379108
 20
47.136973
 30
0.0
 10
299.168372
 20
47.137537
 30
0.0
 10
298.957637
 20
47.138102
 30
0.0
 10
298.746902
 20
47.138666
 30
0.0
 10
298.536166
 20
47.139231
 30
0.0
 10
298.325431
 20
47.139795
 30
0.0
 10
298.114699
 20
47.140360
 30
0.0
 10
297.903963
 20
47.140924
 30
0.0
 10
297.693228
 20
47.141488
 30
0.0
 10
297.482493
 20
47.142053
 30
0.0
 10
297.271757
 20
47.142617
 30
0.0
 10
297.061022
 20
47.143182
 30
0.0
 10
296.865301
 20
47.144028
 30
0.0
 10
296.669577
 20
47.144875
 30
0.0
 10
296.473856
 20
47.145722
 30
0.0
 10
296.278132
 20
47.146568
 30
0.0
 10
296.082411
 20
47.147415
 30
0.0
 10
295.886690
 20
47.148262
 30
0.0
 10
295.690966
 20
47.149108
 30
0.0
 10
295.495245
 20
47.149955
 30
0.0
 10
295.299521
 20
47.150802
 30
0.0
 10
295.103799
 20
47.151648
 30
0.0
 10
294.908078
 20
47.152495
 30
0.0
 10
294.712354
 20
47.153342
 30
0.0
 10
294.516633
 20
47.154188
 30
0.0
 10
294.320909
 20
47.155035
 30
0.0
 10
294.125188
 20
47.155882
 30
0.0
 10
293.929467
 20
47.156728
 30
0.0
 10
293.733743
 20
47.157575
 30
0.0
 10
293.538022
 20
47.158422
 30
0.0
 10
293.342298
 20
47.159268
 30
0.0
 10
293.146577
 20
47.160115
 30
0.0
 10
292.950853
 20
47.160962
 30
0.0
 10
292.755132
 20
47.161808
 30
0.0
 10
292.559411
 20
47.162655
 30
0.0
 10
292.363687
 20
47.163502
 30
0.0
 10
292.167966
 20
47.164348
 30
0.0
 10
291.972242
 20
47.165195
 30
0.0
 10
291.776521
 20
47.166042
 30
0.0
 10
291.580800
 20
47.166888
 30
0.0
 10
291.385076
 20
47.167735
 30
0.0
 10
291.189355
 20
47.168582
 30
0.0
 10
290.993631
 20
47.169428
 30
0.0
 10
290.797910
 20
47.170275
 30
0.0
 10
290.636654
 20
47.171404
 30
0.0
 10
290.475400
 20
47.172533
 30
0.0
 10
290.314144
 20
47.173662
 30
0.0
 10
290.152888
 20
47.174791
 30
0.0
 10
289.991632
 20
47.175920
 30
0.0
 10
289.830378
 20
47.177048
 30
0.0
 10
289.669122
 20
47.178177
 30
0.0
 10
289.507866
 20
47.179306
 30
0.0
 10
289.346613
 20
47.180435
 30
0.0
 10
289.185357
 20
47.181564
 30
0.0
 10
289.024101
 20
47.182693
 30
0.0
 10
288.862845
 20
47.183822
 30
0.0
 10
288.701591
 20
47.184951
 30
0.0
 10
288.540335
 20
47.186080
 30
0.0
 10
288.379079
 20
47.187208
 30
0.0
 10
288.217826
 20
47.188337
 30
0.0
 10
288.056569
 20
47.189466
 30
0.0
 10
287.895313
 20
47.190595
 30
0.0
 10
287.734057
 20
47.191724
 30
0.0
 10
287.572804
 20
47.192853
 30
0.0
 10
287.411548
 20
47.193982
 30
0.0
 10
287.250292
 20
47.195111
 30
0.0
 10
287.089036
 20
47.196240
 30
0.0
 10
286.927782
 20
47.197368
 30
0.0
 10
286.766526
 20
47.198497
 30
0.0
 10
286.605270
 20
47.199626
 30
0.0
 10
286.444017
 20
47.200755
 30
0.0
 10
286.282760
 20
47.201884
 30
0.0
 10
286.121504
 20
47.203013
 30
0.0
 10
285.960248
 20
47.204142
 30
0.0
 10
285.798995
 20
47.205271
 30
0.0
 10
285.637739
 20
47.206400
 30
0.0
 10
285.554368
 20
47.206964
 30
0.0
 10
285.470999
 20
47.207528
 30
0.0
 10
285.387628
 20
47.208093
 30
0.0
 10
285.304259
 20
47.208657
 30
0.0
 10
285.220888
 20
47.209222
 30
0.0
 10
285.137520
 20
47.209786
 30
0.0
 10
285.054148
 20
47.210351
 30
0.0
 10
284.970780
 20
47.210915
 30
0.0
 10
284.887409
 20
47.211480
 30
0.0
 10
284.804037
 20
47.212044
 30
0.0
 10
284.720669
 20
47.212608
 30
0.0
 10
284.637298
 20
47.213173
 30
0.0
 10
284.553929
 20
47.213737
 30
0.0
 10
284.470558
 20
47.214302
 30
0.0
 10
284.387190
 20
47.214866
 30
0.0
 10
284.303818
 20
47.215431
 30
0.0
 10
284.220447
 20
47.215995
 30
0.0
 10
284.137079
 20
47.216560
 30
0.0
 10
284.053707
 20
47.217124
 30
0.0
 10
283.970339
 20
47.217688
 30
0.0
 10
283.886968
 20
47.218253
 30
0.0
 10
283.803599
 20
47.218817
 30
0.0
 10
283.720228
 20
47.219382
 30
0.0
 10
283.636859
 20
47.219946
 30
0.0
 10
283.553488
 20
47.220511
 30
0.0
 10
283.470117
 20
47.221075
 30
0.0
 10
283.386748
 20
47.221640
 30
0.0
 10
283.303377
 20
47.222204
 30
0.0
 10
283.220009
 20
47.222768
 30
0.0
 10
283.136637
 20
47.223333
 30
0.0
 10
283.053269
 20
47.223897
 30
0.0
 10
282.969898
 20
47.224462
 30
0.0
 10
282.906835
 20
47.225026
 30
0.0
 10
282.843770
 20
47.225591
 30
0.0
 10
282.780707
 20
47.226155
 30
0.0
 10
282.717645
 20
47.226720
 30
0.0
 10
282.654582
 20
47.227284
 30
0.0
 10
282.591517
 20
47.227848
 30
0.0
 10
282.528454
 20
47.228413
 30
0.0
 10
282.465392
 20
47.228977
 30
0.0
 10
282.402326
 20
47.229542
 30
0.0
 10
282.339264
 20
47.230106
 30
0.0
 10
282.276201
 20
47.230671
 30
0.0
 10
282.213139
 20
47.231235
 30
0.0
 10
282.150073
 20
47.231800
 30
0.0
 10
282.087011
 20
47.232364
 30
0.0
 10
282.023948
 20
47.232928
 30
0.0
 10
281.960886
 20
47.233493
 30
0.0
 10
281.897820
 20
47.234057
 30
0.0
 10
281.834758
 20
47.234622
 30
0.0
 10
281.771695
 20
47.235186
 30
0.0
 10
281.708630
 20
47.235751
 30
0.0
 10
281.645567
 20
47.236315
 30
0.0
 10
281.582505
 20
47.236880
 30
0.0
 10
281.519442
 20
47.237444
 30
0.0
 10
281.456377
 20
47.238008
 30
0.0
 10
281.393314
 20
47.238573
 30
0.0
 10
281.330252
 20
47.239137
 30
0.0
 10
281.267186
 20
47.239702
 30
0.0
 10
281.204124
 20
47.240266
 30
0.0
 10
281.141061
 20
47.240831
 30
0.0
 10
281.077999
 20
47.241395
 30
0.0
 10
281.014933
 20
47.241960
 30
0.0
 10
280.951871
 20
47.242524
 30
0.0
 10
280.810949
 20
47.243935
 30
0.0
 10
280.670027
 20
47.245346
 30
0.0
 10
280.529105
 20
47.246757
 30
0.0
 10
280.388185
 20
47.248168
 30
0.0
 10
280.247263
 20
47.249580
 30
0.0
 10
280.106341
 20
47.250991
 30
0.0
 10
279.965419
 20
47.252402
 30
0.0
 10
279.824497
 20
47.253813
 30
0.0
 10
279.683575
 20
47.255224
 30
0.0
 10
279.542656
 20
47.256635
 30
0.0
 10
279.401734
 20
47.258046
 30
0.0
 10
279.260812
 20
47.259457
 30
0.0
 10
279.119890
 20
47.260868
 30
0.0
 10
278.978968
 20
47.262280
 30
0.0
 10
278.838046
 20
47.263691
 30
0.0
 10
278.697127
 20
47.265102
 30
0.0
 10
278.556205
 20
47.266513
 30
0.0
 10
278.415283
 20
47.267924
 30
0.0
 10
278.274361
 20
47.269335
 30
0.0
 10
278.133439
 20
47.270746
 30
0.0
 10
277.992517
 20
47.272157
 30
0.0
 10
277.851595
 20
47.273568
 30
0.0
 10
277.710675
 20
47.274980
 30
0.0
 10
277.569753
 20
47.276391
 30
0.0
 10
277.428831
 20
47.277802
 30
0.0
 10
277.287909
 20
47.279213
 30
0.0
 10
277.146987
 20
47.280624
 30
0.0
 10
277.006065
 20
47.282035
 30
0.0
 10
276.865146
 20
47.283446
 30
0.0
 10
276.724224
 20
47.284857
 30
0.0
 10
276.583302
 20
47.286268
 30
0.0
 10
276.442380
 20
47.287680
 30
0.0
 10
276.251070
 20
47.289373
 30
0.0
 10
276.059760
 20
47.291066
 30
0.0
 10
275.868450
 20
47.292760
 30
0.0
 10
275.677140
 20
47.294453
 30
0.0
 10
275.485833
 20
47.296146
 30
0.0
 10
275.294523
 20
47.297840
 30
0.0
 10
275.103213
 20
47.299533
 30
0.0
 10
274.911903
 20
47.301226
 30
0.0
 10
274.720593
 20
47.302920
 30
0.0
 10
274.529283
 20
47.304613
 30
0.0
 10
274.337973
 20
47.306306
 30
0.0
 10
274.146666
 20
47.308000
 30
0.0
 10
273.955356
 20
47.309693
 30
0.0
 10
273.764046
 20
47.311386
 30
0.0
 10
273.572736
 20
47.313080
 30
0.0
 10
273.381426
 20
47.314773
 30
0.0
 10
273.190116
 20
47.316466
 30
0.0
 10
272.998806
 20
47.318160
 30
0.0
 10
272.807496
 20
47.319853
 30
0.0
 10
272.616186
 20
47.321546
 30
0.0
 10
272.424879
 20
47.323240
 30
0.0
 10
272.233569
 20
47.324933
 30
0.0
 10
272.042259
 20
47.326626
 30
0.0
 10
271.850949
 20
47.328320
 30
0.0
 10
271.659639
 20
47.330013
 30
0.0
 10
271.468329
 20
47.331706
 30
0.0
 10
271.277019
 20
47.333400
 30
0.0
 10
271.085712
 20
47.335093
 30
0.0
 10
270.894402
 20
47.336786
 30
0.0
 10
270.703092
 20
47.338480
 30
0.0
 10
270.511782
 20
47.340173
 30
0.0
 10
270.320472
 20
47.341866
 30
0.0
 10
270.094262
 20
47.343842
 30
0.0
 10
269.868053
 20
47.345817
 30
0.0
 10
269.641846
 20
47.347793
 30
0.0
 10
269.415636
 20
47.349768
 30
0.0
 10
269.189427
 20
47.351744
 30
0.0
 10
268.963217
 20
47.353720
 30
0.0
 10
268.737008
 20
47.355695
 30
0.0
 10
268.510798
 20
47.357671
 30
0.0
 10
268.284591
 20
47.359646
 30
0.0
 10
268.058382
 20
47.361622
 30
0.0
 10
267.832172
 20
47.363597
 30
0.0
 10
267.605963
 20
47.365573
 30
0.0
 10
267.379753
 20
47.367548
 30
0.0
 10
267.153546
 20
47.369524
 30
0.0
 10
266.927337
 20
47.371500
 30
0.0
 10
266.701127
 20
47.373475
 30
0.0
 10
266.474918
 20
47.375451
 30
0.0
 10
266.248708
 20
47.377426
 30
0.0
 10
266.022501
 20
47.379402
 30
0.0
 10
265.796292
 20
47.381377
 30
0.0
 10
265.570082
 20
47.383353
 30
0.0
 10
265.343873
 20
47.385328
 30
0.0
 10
265.117663
 20
47.387304
 30
0.0
 10
264.891453
 20
47.389280
 30
0.0
 10
264.665247
 20
47.391255
 30
0.0
 10
264.439037
 20
47.393231
 30
0.0
 10
264.212827
 20
47.395206
 30
0.0
 10
263.986618
 20
47.397182
 30
0.0
 10
263.760408
 20
47.399157
 30
0.0
 10
263.534202
 20
47.401133
 30
0.0
 10
263.307992
 20
47.403108
 30
0.0
 10
263.081782
 20
47.405084
 30
0.0
 10
262.831669
 20
47.407060
 30
0.0
 10
262.581555
 20
47.409035
 30
0.0
 10
262.331441
 20
47.411011
 30
0.0
 10
262.081327
 20
47.412986
 30
0.0
 10
261.831216
 20
47.414962
 30
0.0
 10
261.581102
 20
47.416937
 30
0.0
 10
261.330989
 20
47.418913
 30
0.0
 10
261.080875
 20
47.420888
 30
0.0
 10
260.830761
 20
47.422864
 30
0.0
 10
260.580647
 20
47.424840
 30
0.0
 10
260.330533
 20
47.426815
 30
0.0
 10
260.080422
 20
47.428791
 30
0.0
 10
259.830309
 20
47.430766
 30
0.0
 10
259.580195
 20
47.432742
 30
0.0
 10
259.330081
 20
47.434717
 30
0.0
 10
259.079967
 20
47.436693
 30
0.0
 10
258.829853
 20
47.438668
 30
0.0
 10
258.579740
 20
47.440644
 30
0.0
 10
258.329626
 20
47.442620
 30
0.0
 10
258.079512
 20
47.444595
 30
0.0
 10
257.829401
 20
47.446571
 30
0.0
 10
257.579287
 20
47.448546
 30
0.0
 10
257.329173
 20
47.450522
 30
0.0
 10
257.079060
 20
47.452497
 30
0.0
 10
256.828946
 20
47.454473
 30
0.0
 10
256.578832
 20
47.456448
 30
0.0
 10
256.328718
 20
47.458424
 30
0.0
 10
256.078607
 20
47.460400
 30
0.0
 10
255.828494
 20
47.462375
 30
0.0
 10
255.578380
 20
47.464351
 30
0.0
 10
255.328266
 20
47.466326
 30
0.0
 10
255.078152
 20
47.468302
 30
0.0
 10
254.809138
 20
47.470277
 30
0.0
 10
254.540126
 20
47.472253
 30
0.0
 10
254.271112
 20
47.474228
 30
0.0
 10
254.002098
 20
47.476204
 30
0.0
 10
253.733087
 20
47.478180
 30
0.0
 10
253.464072
 20
47.480155
 30
0.0
 10
253.195058
 20
47.482131
 30
0.0
 10
252.926047
 20
47.484106
 30
0.0
 10
252.657033
 20
47.486082
 30
0.0
 10
252.388018
 20
47.488057
 30
0.0
 10
252.119007
 20
47.490033
 30
0.0
 10
251.849993
 20
47.492008
 30
0.0
 10
251.580979
 20
47.493984
 30
0.0
 10
251.311967
 20
47.495960
 30
0.0
 10
251.042953
 20
47.497935
 30
0.0
 10
250.773939
 20
47.499911
 30
0.0
 10
250.504927
 20
47.501886
 30
0.0
 10
250.235913
 20
47.503862
 30
0.0
 10
249.966902
 20
47.505837
 30
0.0
 10
249.697887
 20
47.507813
 30
0.0
 10
249.428873
 20
47.509788
 30
0.0
 10
249.159862
 20
47.511764
 30
0.0
 10
248.890848
 20
47.513740
 30
0.0
 10
248.621833
 20
47.515715
 30
0.0
 10
248.352822
 20
47.517691
 30
0.0
 10
248.083808
 20
47.519666
 30
0.0
 10
247.814794
 20
47.521642
 30
0.0
 10
247.545782
 20
47.523617
 30
0.0
 10
247.276768
 20
47.525593
 30
0.0
 10
247.007754
 20
47.527568
 30
0.0
 10
246.738742
 20
47.529544
 30
0.0
 10
246.469728
 20
47.531520
 30
0.0
 10
246.191313
 20
47.533213
 30
0.0
 10
245.912898
 20
47.534906
 30
0.0
 10
245.634480
 20
47.536600
 30
0.0
 10
245.356065
 20
47.538293
 30
0.0
 10
245.077650
 20
47.539986
 30
0.0
 10
244.799235
 20
47.541680
 30
0.0
 10
244.520820
 20
47.543373
 30
0.0
 10
244.242402
 20
47.545066
 30
0.0
 10
243.963987
 20
47.546760
 30
0.0
 10
243.685572
 20
47.548453
 30
0.0
 10
243.407157
 20
47.550146
 30
0.0
 10
243.128742
 20
47.551840
 30
0.0
 10
242.850327
 20
47.553533
 30
0.0
 10
242.571909
 20
47.555226
 30
0.0
 10
242.293494
 20
47.556920
 30
0.0
 10
242.015079
 20
47.558613
 30
0.0
 10
241.736664
 20
47.560306
 30
0.0
 10
241.458249
 20
47.562000
 30
0.0
 10
241.179831
 20
47.563693
 30
0.0
 10
240.901416
 20
47.565386
 30
0.0
 10
240.623001
 20
47.567080
 30
0.0
 10
240.344586
 20
47.568773
 30
0.0
 10
240.066171
 20
47.570466
 30
0.0
 10
239.787753
 20
47.572160
 30
0.0
 10
239.509338
 20
47.573853
 30
0.0
 10
239.230923
 20
47.575546
 30
0.0
 10
238.952508
 20
47.577240
 30
0.0
 10
238.674093
 20
47.578933
 30
0.0
 10
238.395678
 20
47.580626
 30
0.0
 10
238.117260
 20
47.582320
 30
0.0
 10
237.838845
 20
47.584013
 30
0.0
 10
237.560430
 20
47.585706
 30
0.0
 10
237.282111
 20
47.587117
 30
0.0
 10
237.003789
 20
47.588528
 30
0.0
 10
236.725470
 20
47.589940
 30
0.0
 10
236.447148
 20
47.591351
 30
0.0
 10
236.168829
 20
47.592762
 30
0.0
 10
235.890507
 20
47.594173
 30
0.0
 10
235.612188
 20
47.595584
 30
0.0
 10
235.333866
 20
47.596995
 30
0.0
 10
235.055547
 20
47.598406
 30
0.0
 10
234.777225
 20
47.599817
 30
0.0
 10
234.498906
 20
47.601228
 30
0.0
 10
234.220584
 20
47.602640
 30
0.0
 10
233.942265
 20
47.604051
 30
0.0
 10
233.663943
 20
47.605462
 30
0.0
 10
233.385624
 20
47.606873
 30
0.0
 10
233.107302
 20
47.608284
 30
0.0
 10
232.828983
 20
47.609695
 30
0.0
 10
232.550664
 20
47.611106
 30
0.0
 10
232.272342
 20
47.612517
 30
0.0
 10
231.994023
 20
47.613928
 30
0.0
 10
231.715701
 20
47.615340
 30
0.0
 10
231.437382
 20
47.616751
 30
0.0
 10
231.159060
 20
47.618162
 30
0.0
 10
230.880741
 20
47.619573
 30
0.0
 10
230.602419
 20
47.620984
 30
0.0
 10
230.324100
 20
47.622395
 30
0.0
 10
230.045778
 20
47.623806
 30
0.0
 10
229.767459
 20
47.625217
 30
0.0
 10
229.489137
 20
47.626628
 30
0.0
 10
229.210818
 20
47.628040
 30
0.0
 10
228.932496
 20
47.629451
 30
0.0
 10
228.654177
 20
47.630862
 30
0.0
 10
228.378708
 20
47.631991
 30
0.0
 10
228.103242
 20
47.633120
 30
0.0
 10
227.827773
 20
47.634248
 30
0.0
 10
227.552308
 20
47.635377
 30
0.0
 10
227.276839
 20
47.636506
 30
0.0
 10
227.001373
 20
47.637635
 30
0.0
 10
226.725904
 20
47.638764
 30
0.0
 10
226.450436
 20
47.639893
 30
0.0
 10
226.174970
 20
47.641022
 30
0.0
 10
225.899501
 20
47.642151
 30
0.0
 10
225.624036
 20
47.643280
 30
0.0
 10
225.348567
 20
47.644408
 30
0.0
 10
225.073101
 20
47.645537
 30
0.0
 10
224.797632
 20
47.646666
 30
0.0
 10
224.522167
 20
47.647795
 30
0.0
 10
224.246698
 20
47.648924
 30
0.0
 10
223.971229
 20
47.650053
 30
0.0
 10
223.695763
 20
47.651182
 30
0.0
 10
223.420295
 20
47.652311
 30
0.0
 10
223.144829
 20
47.653440
 30
0.0
 10
222.869360
 20
47.654568
 30
0.0
 10
222.593895
 20
47.655697
 30
0.0
 10
222.318426
 20
47.656826
 30
0.0
 10
222.042957
 20
47.657955
 30
0.0
 10
221.767491
 20
47.659084
 30
0.0
 10
221.492023
 20
47.660213
 30
0.0
 10
221.216557
 20
47.661342
 30
0.0
 10
220.941088
 20
47.662471
 30
0.0
 10
220.665623
 20
47.663600
 30
0.0
 10
220.390154
 20
47.664728
 30
0.0
 10
220.114688
 20
47.665857
 30
0.0
 10
219.839219
 20
47.666986
 30
0.0
 10
219.566367
 20
47.667833
 30
0.0
 10
219.293515
 20
47.668680
 30
0.0
 10
219.020662
 20
47.669526
 30
0.0
 10
218.747812
 20
47.670373
 30
0.0
 10
218.474960
 20
47.671220
 30
0.0
 10
218.202108
 20
47.672066
 30
0.0
 10
217.929255
 20
47.672913
 30
0.0
 10
217.656403
 20
47.673760
 30
0.0
 10
217.383550
 20
47.674606
 30
0.0
 10
217.110701
 20
47.675453
 30
0.0
 10
216.837848
 20
47.676300
 30
0.0
 10
216.564996
 20
47.677146
 30
0.0
 10
216.292143
 20
47.677993
 30
0.0
 10
216.019291
 20
47.678840
 30
0.0
 10
215.746438
 20
47.679686
 30
0.0
 10
215.473586
 20
47.680533
 30
0.0
 10
215.200736
 20
47.681380
 30
0.0
 10
214.927884
 20
47.682226
 30
0.0
 10
214.655031
 20
47.683073
 30
0.0
 10
214.382179
 20
47.683920
 30
0.0
 10
214.109327
 20
47.684766
 30
0.0
 10
213.836474
 20
47.685613
 30
0.0
 10
213.563624
 20
47.686460
 30
0.0
 10
213.290772
 20
47.687306
 30
0.0
 10
213.017920
 20
47.688153
 30
0.0
 10
212.745067
 20
47.689000
 30
0.0
 10
212.472215
 20
47.689846
 30
0.0
 10
212.199362
 20
47.690693
 30
0.0
 10
211.926513
 20
47.691540
 30
0.0
 10
211.653660
 20
47.692386
 30
0.0
 10
211.380808
 20
47.693233
 30
0.0
 10
211.107955
 20
47.694080
 30
0.0
 10
210.842723
 20
47.694644
 30
0.0
 10
210.577490
 20
47.695208
 30
0.0
 10
210.312258
 20
47.695773
 30
0.0
 10
210.047026
 20
47.696337
 30
0.0
 10
209.781793
 20
47.696902
 30
0.0
 10
209.516561
 20
47.697466
 30
0.0
 10
209.251328
 20
47.698031
 30
0.0
 10
208.986096
 20
47.698595
 30
0.0
 10
208.720863
 20
47.699160
 30
0.0
 10
208.455631
 20
47.699724
 30
0.0
 10
208.190398
 20
47.700288
 30
0.0
 10
207.925166
 20
47.700853
 30
0.0
 10
207.659934
 20
47.701417
 30
0.0
 10
207.394701
 20
47.701982
 30
0.0
 10
207.129469
 20
47.702546
 30
0.0
 10
206.864233
 20
47.703111
 30
0.0
 10
206.599001
 20
47.703675
 30
0.0
 10
206.333768
 20
47.704240
 30
0.0
 10
206.068536
 20
47.704804
 30
0.0
 10
205.803304
 20
47.705368
 30
0.0
 10
205.538071
 20
47.705933
 30
0.0
 10
205.272839
 20
47.706497
 30
0.0
 10
205.007606
 20
47.707062
 30
0.0
 10
204.742374
 20
47.707626
 30
0.0
 10
204.477141
 20
47.708191
 30
0.0
 10
204.211909
 20
47.708755
 30
0.0
 10
203.946676
 20
47.709320
 30
0.0
 10
203.681444
 20
47.709884
 30
0.0
 10
203.416212
 20
47.710448
 30
0.0
 10
203.150979
 20
47.711013
 30
0.0
 10
202.885747
 20
47.711577
 30
0.0
 10
202.620514
 20
47.712142
 30
0.0
 10
202.367906
 20
47.712362
 30
0.0
 10
202.115297
 20
47.712582
 30
0.0
 10
201.862688
 20
47.712802
 30
0.0
 10
201.610080
 20
47.713025
 30
0.0
 10
201.357474
 20
47.713245
 30
0.0
 10
201.104865
 20
47.713465
 30
0.0
 10
200.852257
 20
47.713686
 30
0.0
 10
200.599648
 20
47.713906
 30
0.0
 10
200.347039
 20
47.714126
 30
0.0
 10
200.094431
 20
47.714346
 30
0.0
 10
199.841822
 20
47.714566
 30
0.0
 10
199.589213
 20
47.714789
 30
0.0
 10
199.336608
 20
47.715009
 30
0.0
 10
199.083999
 20
47.715229
 30
0.0
 10
198.831390
 20
47.715449
 30
0.0
 10
198.578782
 20
47.715670
 30
0.0
 10
198.326173
 20
47.715890
 30
0.0
 10
198.073564
 20
47.716110
 30
0.0
 10
197.820956
 20
47.716330
 30
0.0
 10
197.568347
 20
47.716553
 30
0.0
 10
197.315741
 20
47.716773
 30
0.0
 10
197.063133
 20
47.716993
 30
0.0
 10
196.810524
 20
47.717213
 30
0.0
 10
196.557915
 20
47.717433
 30
0.0
 10
196.305307
 20
47.717654
 30
0.0
 10
196.052698
 20
47.717874
 30
0.0
 10
195.800089
 20
47.718094
 30
0.0
 10
195.547481
 20
47.718317
 30
0.0
 10
195.294875
 20
47.718537
 30
0.0
 10
195.042266
 20
47.718757
 30
0.0
 10
194.789658
 20
47.718977
 30
0.0
 10
194.537049
 20
47.719197
 30
0.0
 10
194.302068
 20
47.718952
 30
0.0
 10
194.067090
 20
47.718703
 30
0.0
 10
193.832109
 20
47.718458
 30
0.0
 10
193.597128
 20
47.718210
 30
0.0
 10
193.362149
 20
47.717964
 30
0.0
 10
193.127168
 20
47.717716
 30
0.0
 10
192.892190
 20
47.717470
 30
0.0
 10
192.657209
 20
47.717222
 30
0.0
 10
192.422228
 20
47.716976
 30
0.0
 10
192.187250
 20
47.716728
 30
0.0
 10
191.952269
 20
47.716482
 30
0.0
 10
191.717288
 20
47.716234
 30
0.0
 10
191.482309
 20
47.715988
 30
0.0
 10
191.247328
 20
47.715740
 30
0.0
 10
191.012350
 20
47.715495
 30
0.0
 10
190.777369
 20
47.715246
 30
0.0
 10
190.542388
 20
47.715001
 30
0.0
 10
190.307410
 20
47.714752
 30
0.0
 10
190.072429
 20
47.714507
 30
0.0
 10
189.837448
 20
47.714258
 30
0.0
 10
189.602470
 20
47.714013
 30
0.0
 10
189.367489
 20
47.713765
 30
0.0
 10
189.132510
 20
47.713519
 30
0.0
 10
188.897529
 20
47.713271
 30
0.0
 10
188.662548
 20
47.713025
 30
0.0
 10
188.427570
 20
47.712777
 30
0.0
 10
188.192589
 20
47.712531
 30
0.0
 10
187.957608
 20
47.712283
 30
0.0
 10
187.722630
 20
47.712037
 30
0.0
 10
187.487649
 20
47.711789
 30
0.0
 10
187.252670
 20
47.711543
 30
0.0
 10
187.017689
 20
47.711295
 30
0.0
 10
186.805343
 20
47.710448
 30
0.0
 10
186.592996
 20
47.709602
 30
0.0
 10
186.380649
 20
47.708755
 30
0.0
 10
186.168299
 20
47.707908
 30
0.0
 10
185.955952
 20
47.707062
 30
0.0
 10
185.743606
 20
47.706215
 30
0.0
 10
185.531259
 20
47.705368
 30
0.0
 10
185.318912
 20
47.704522
 30
0.0
 10
185.106565
 20
47.703675
 30
0.0
 10
184.894218
 20
47.702828
 30
0.0
 10
184.681871
 20
47.701982
 30
0.0
 10
184.469522
 20
47.701135
 30
0.0
 10
184.257175
 20
47.700288
 30
0.0
 10
184.044828
 20
47.699442
 30
0.0
 10
183.832481
 20
47.698595
 30
0.0
 10
183.620135
 20
47.697748
 30
0.0
 10
183.407788
 20
47.696902
 30
0.0
 10
183.195441
 20
47.696055
 30
0.0
 10
182.983094
 20
47.695208
 30
0.0
 10
182.770744
 20
47.694362
 30
0.0
 10
182.558398
 20
47.693515
 30
0.0
 10
182.346051
 20
47.692668
 30
0.0
 10
182.133704
 20
47.691822
 30
0.0
 10
181.921357
 20
47.690975
 30
0.0
 10
181.709010
 20
47.690128
 30
0.0
 10
181.496664
 20
47.689282
 30
0.0
 10
181.284317
 20
47.688435
 30
0.0
 10
181.071967
 20
47.687588
 30
0.0
 10
180.859620
 20
47.686742
 30
0.0
 10
180.647273
 20
47.685895
 30
0.0
 10
180.434927
 20
47.685048
 30
0.0
 10
180.222580
 20
47.684202
 30
0.0
 10
180.037868
 20
47.682791
 30
0.0
 10
179.853159
 20
47.681380
 30
0.0
 10
179.668448
 20
47.679968
 30
0.0
 10
179.483739
 20
47.678557
 30
0.0
 10
179.299027
 20
47.677146
 30
0.0
 10
179.114318
 20
47.675735
 30
0.0
 10
178.929607
 20
47.674324
 30
0.0
 10
178.744898
 20
47.672913
 30
0.0
 10
178.560186
 20
47.671502
 30
0.0
 10
178.375478
 20
47.670091
 30
0.0
 10
178.190766
 20
47.668680
 30
0.0
 10
178.006057
 20
47.667268
 30
0.0
 10
177.821346
 20
47.665857
 30
0.0
 10
177.636637
 20
47.664446
 30
0.0
 10
177.451925
 20
47.663035
 30
0.0
 10
177.267216
 20
47.661624
 30
0.0
 10
177.082505
 20
47.660213
 30
0.0
 10
176.897796
 20
47.658802
 30
0.0
 10
176.713084
 20
47.657391
 30
0.0
 10
176.528376
 20
47.655980
 30
0.0
 10
176.343664
 20
47.654568
 30
0.0
 10
176.158955
 20
47.653157
 30
0.0
 10
175.974243
 20
47.651746
 30
0.0
 10
175.789535
 20
47.650335
 30
0.0
 10
175.604823
 20
47.648924
 30
0.0
 10
175.420114
 20
47.647513
 30
0.0
 10
175.235403
 20
47.646102
 30
0.0
 10
175.050694
 20
47.644691
 30
0.0
 10
174.865982
 20
47.643280
 30
0.0
 10
174.681273
 20
47.641868
 30
0.0
 10
174.496562
 20
47.640457
 30
0.0
 10
174.311853
 20
47.639046
 30
0.0
 10
174.159783
 20
47.637071
 30
0.0
 10
174.007716
 20
47.635095
 30
0.0
 10
173.855646
 20
47.633120
 30
0.0
 10
173.703579
 20
47.631144
 30
0.0
 10
173.551510
 20
47.629168
 30
0.0
 10
173.399440
 20
47.627193
 30
0.0
 10
173.247373
 20
47.625217
 30
0.0
 10
173.095303
 20
47.623242
 30
0.0
 10
172.943236
 20
47.621266
 30
0.0
 10
172.791166
 20
47.619291
 30
0.0
 10
172.639096
 20
47.617315
 30
0.0
 10
172.487030
 20
47.615340
 30
0.0
 10
172.334960
 20
47.613364
 30
0.0
 10
172.182893
 20
47.611388
 30
0.0
 10
172.030823
 20
47.609413
 30
0.0
 10
171.878753
 20
47.607437
 30
0.0
 10
171.726686
 20
47.605462
 30
0.0
 10
171.574616
 20
47.603486
 30
0.0
 10
171.422549
 20
47.601511
 30
0.0
 10
171.270480
 20
47.599535
 30
0.0
 10
171.118413
 20
47.597560
 30
0.0
 10
170.966343
 20
47.595584
 30
0.0
 10
170.814273
 20
47.593608
 30
0.0
 10
170.662206
 20
47.591633
 30
0.0
 10
170.510136
 20
47.589657
 30
0.0
 10
170.358069
 20
47.587682
 30
0.0
 10
170.205999
 20
47.585706
 30
0.0
 10
170.053930
 20
47.583731
 30
0.0
 10
169.901863
 20
47.581755
 30
0.0
 10
169.749793
 20
47.579780
 30
0.0
 10
169.597726
 20
47.577804
 30
0.0
 10
169.445656
 20
47.575828
 30
0.0
 10
169.107167
 20
47.570297
 30
0.0
 10
168.768676
 20
47.564765
 30
0.0
 10
168.430187
 20
47.559234
 30
0.0
 10
168.091698
 20
47.553702
 30
0.0
 10
167.753206
 20
47.548171
 30
0.0
 10
167.414717
 20
47.542639
 30
0.0
 10
167.076228
 20
47.537108
 30
0.0
 10
166.737737
 20
47.531576
 30
0.0
 10
166.399248
 20
47.526044
 30
0.0
 10
166.060759
 20
47.520513
 30
0.0
 10
165.722267
 20
47.514981
 30
0.0
 10
165.383778
 20
47.509450
 30
0.0
 10
165.045290
 20
47.503918
 30
0.0
 10
164.706798
 20
47.498387
 30
0.0
 10
164.368309
 20
47.492855
 30
0.0
 10
164.029817
 20
47.487324
 30
0.0
 10
163.691328
 20
47.481792
 30
0.0
 10
163.352840
 20
47.476260
 30
0.0
 10
163.014348
 20
47.470729
 30
0.0
 10
162.675859
 20
47.465197
 30
0.0
 10
162.337370
 20
47.459666
 30
0.0
 10
161.998878
 20
47.454134
 30
0.0
 10
161.660390
 20
47.448603
 30
0.0
 10
161.321901
 20
47.443071
 30
0.0
 10
160.983409
 20
47.437540
 30
0.0
 10
160.644920
 20
47.432008
 30
0.0
 10
160.306431
 20
47.426476
 30
0.0
 10
159.967940
 20
47.420945
 30
0.0
 10
159.629451
 20
47.415413
 30
0.0
 10
159.290962
 20
47.409882
 30
0.0
 10
158.952470
 20
47.404350
 30
0.0
 10
158.613981
 20
47.398819
 30
0.0
 10
158.311634
 20
47.394839
 30
0.0
 10
158.009284
 20
47.390860
 30
0.0
 10
157.706936
 20
47.386881
 30
0.0
 10
157.404586
 20
47.382901
 30
0.0
 10
157.102238
 20
47.378922
 30
0.0
 10
156.799888
 20
47.374943
 30
0.0
 10
156.497540
 20
47.370963
 30
0.0
 10
156.195190
 20
47.366984
 30
0.0
 10
155.892843
 20
47.363005
 30
0.0
 10
155.590495
 20
47.359025
 30
0.0
 10
155.288145
 20
47.355046
 30
0.0
 10
154.985797
 20
47.351067
 30
0.0
 10
154.683447
 20
47.347087
 30
0.0
 10
154.381100
 20
47.343108
 30
0.0
 10
154.078749
 20
47.339129
 30
0.0
 10
153.776402
 20
47.335149
 30
0.0
 10
153.474054
 20
47.331170
 30
0.0
 10
153.171704
 20
47.327191
 30
0.0
 10
152.869356
 20
47.323211
 30
0.0
 10
152.567006
 20
47.319232
 30
0.0
 10
152.264659
 20
47.315253
 30
0.0
 10
151.962308
 20
47.311273
 30
0.0
 10
151.659961
 20
47.307294
 30
0.0
 10
151.357611
 20
47.303315
 30
0.0
 10
151.055263
 20
47.299335
 30
0.0
 10
150.752916
 20
47.295356
 30
0.0
 10
150.450565
 20
47.291377
 30
0.0
 10
150.148218
 20
47.287397
 30
0.0
 10
149.845867
 20
47.283418
 30
0.0
 10
149.543520
 20
47.279439
 30
0.0
 10
149.241170
 20
47.275459
 30
0.0
 10
148.938822
 20
47.271480
 30
0.0
 10
148.668089
 20
47.268940
 30
0.0
 10
148.397356
 20
47.266400
 30
0.0
 10
148.126626
 20
47.263860
 30
0.0
 10
147.855893
 20
47.261320
 30
0.0
 10
147.585160
 20
47.258780
 30
0.0
 10
147.314427
 20
47.256240
 30
0.0
 10
147.043694
 20
47.253700
 30
0.0
 10
146.772961
 20
47.251160
 30
0.0
 10
146.502231
 20
47.248620
 30
0.0
 10
146.231498
 20
47.246080
 30
0.0
 10
145.960765
 20
47.243540
 30
0.0
 10
145.690032
 20
47.241000
 30
0.0
 10
145.419299
 20
47.238460
 30
0.0
 10
145.148569
 20
47.235920
 30
0.0
 10
144.877836
 20
47.233380
 30
0.0
 10
144.607103
 20
47.230840
 30
0.0
 10
144.336370
 20
47.228300
 30
0.0
 10
144.065637
 20
47.225760
 30
0.0
 10
143.794907
 20
47.223220
 30
0.0
 10
143.524174
 20
47.220680
 30
0.0
 10
143.253441
 20
47.218140
 30
0.0
 10
142.982708
 20
47.215600
 30
0.0
 10
142.711975
 20
47.213060
 30
0.0
 10
142.441243
 20
47.210520
 30
0.0
 10
142.170512
 20
47.207980
 30
0.0
 10
141.899779
 20
47.205440
 30
0.0
 10
141.629046
 20
47.202900
 30
0.0
 10
141.358314
 20
47.200360
 30
0.0
 10
141.087581
 20
47.197820
 30
0.0
 10
140.816850
 20
47.195280
 30
0.0
 10
140.546117
 20
47.192740
 30
0.0
 10
140.275385
 20
47.190200
 30
0.0
 10
140.031745
 20
47.189353
 30
0.0
 10
139.788102
 20
47.188507
 30
0.0
 10
139.544463
 20
47.187660
 30
0.0
 10
139.300820
 20
47.186813
 30
0.0
 10
139.057181
 20
47.185967
 30
0.0
 10
138.813541
 20
47.185120
 30
0.0
 10
138.569899
 20
47.184273
 30
0.0
 10
138.326259
 20
47.183427
 30
0.0
 10
138.082617
 20
47.182580
 30
0.0
 10
137.838977
 20
47.181733
 30
0.0
 10
137.595337
 20
47.180887
 30
0.0
 10
137.351695
 20
47.180040
 30
0.0
 10
137.108055
 20
47.179193
 30
0.0
 10
136.864413
 20
47.178347
 30
0.0
 10
136.620773
 20
47.177500
 30
0.0
 10
136.377131
 20
47.176653
 30
0.0
 10
136.133491
 20
47.175807
 30
0.0
 10
135.889852
 20
47.174960
 30
0.0
 10
135.646209
 20
47.174113
 30
0.0
 10
135.402569
 20
47.173267
 30
0.0
 10
135.158927
 20
47.172420
 30
0.0
 10
134.915287
 20
47.171573
 30
0.0
 10
134.671648
 20
47.170727
 30
0.0
 10
134.428005
 20
47.169880
 30
0.0
 10
134.184366
 20
47.169033
 30
0.0
 10
133.940723
 20
47.168187
 30
0.0
 10
133.697084
 20
47.167340
 30
0.0
 10
133.453444
 20
47.166493
 30
0.0
 10
133.209802
 20
47.165647
 30
0.0
 10
132.966162
 20
47.164800
 30
0.0
 10
132.722520
 20
47.163953
 30
0.0
 10
132.478880
 20
47.163107
 30
0.0
 10
132.257807
 20
47.163671
 30
0.0
 10
132.036731
 20
47.164236
 30
0.0
 10
131.815658
 20
47.164800
 30
0.0
 10
131.594585
 20
47.165364
 30
0.0
 10
131.373509
 20
47.165929
 30
0.0
 10
131.152435
 20
47.166493
 30
0.0
 10
130.931362
 20
47.167058
 30
0.0
 10
130.710286
 20
47.167622
 30
0.0
 10
130.489213
 20
47.168187
 30
0.0
 10
130.268140
 20
47.168751
 30
0.0
 10
130.047064
 20
47.169316
 30
0.0
 10
129.825991
 20
47.169880
 30
0.0
 10
129.604918
 20
47.170444
 30
0.0
 10
129.383842
 20
47.171009
 30
0.0
 10
129.162769
 20
47.171573
 30
0.0
 10
128.941693
 20
47.172138
 30
0.0
 10
128.720620
 20
47.172702
 30
0.0
 10
128.499547
 20
47.173267
 30
0.0
 10
128.278471
 20
47.173831
 30
0.0
 10
128.057397
 20
47.174396
 30
0.0
 10
127.836324
 20
47.174960
 30
0.0
 10
127.615248
 20
47.175524
 30
0.0
 10
127.394175
 20
47.176089
 30
0.0
 10
127.173102
 20
47.176653
 30
0.0
 10
126.952026
 20
47.177218
 30
0.0
 10
126.730953
 20
47.177782
 30
0.0
 10
126.509880
 20
47.178347
 30
0.0
 10
126.288804
 20
47.178911
 30
0.0
 10
126.067731
 20
47.179476
 30
0.0
 10
125.846658
 20
47.180040
 30
0.0
 10
125.625582
 20
47.180604
 30
0.0
 10
125.404509
 20
47.181169
 30
0.0
 10
125.201478
 20
47.183427
 30
0.0
 10
124.998444
 20
47.185684
 30
0.0
 10
124.795414
 20
47.187942
 30
0.0
 10
124.592380
 20
47.190200
 30
0.0
 10
124.389350
 20
47.192458
 30
0.0
 10
124.186316
 20
47.194716
 30
0.0
 10
123.983285
 20
47.196973
 30
0.0
 10
123.780252
 20
47.199231
 30
0.0
 10
123.577221
 20
47.201489
 30
0.0
 10
123.374191
 20
47.203747
 30
0.0
 10
123.171157
 20
47.206004
 30
0.0
 10
122.968126
 20
47.208262
 30
0.0
 10
122.765093
 20
47.210520
 30
0.0
 10
122.562062
 20
47.212778
 30
0.0
 10
122.359029
 20
47.215036
 30
0.0
 10
122.155998
 20
47.217293
 30
0.0
 10
121.952968
 20
47.219551
 30
0.0
 10
121.749934
 20
47.221809
 30
0.0
 10
121.546903
 20
47.224067
 30
0.0
 10
121.343870
 20
47.226324
 30
0.0
 10
121.140839
 20
47.228582
 30
0.0
 10
120.937806
 20
47.230840
 30
0.0
 10
120.734775
 20
47.233098
 30
0.0
 10
120.531742
 20
47.235356
 30
0.0
 10
120.328711
 20
47.237613
 30
0.0
 10
120.125680
 20
47.239871
 30
0.0
 10
119.922647
 20
47.242129
 30
0.0
 10
119.719616
 20
47.244387
 30
0.0
 10
119.516583
 20
47.246644
 30
0.0
 10
119.313552
 20
47.248902
 30
0.0
 10
119.110518
 20
47.251160
 30
0.0
 10
118.907488
 20
47.253418
 30
0.0
 10
118.717973
 20
47.257030
 30
0.0
 10
118.528458
 20
47.260643
 30
0.0
 10
118.338943
 20
47.264255
 30
0.0
 10
118.149428
 20
47.267868
 30
0.0
 10
117.959913
 20
47.271480
 30
0.0
 10
117.770397
 20
47.275092
 30
0.0
 10
117.580882
 20
47.278705
 30
0.0
 10
117.391367
 20
47.282317
 30
0.0
 10
117.201852
 20
47.285930
 30
0.0
 10
117.012337
 20
47.289542
 30
0.0
 10
116.822822
 20
47.293155
 30
0.0
 10
116.633307
 20
47.296767
 30
0.0
 10
116.443792
 20
47.300380
 30
0.0
 10
116.254277
 20
47.303992
 30
0.0
 10
116.064762
 20
47.307604
 30
0.0
 10
115.875247
 20
47.311217
 30
0.0
 10
115.685735
 20
47.314829
 30
0.0
 10
115.496220
 20
47.318442
 30
0.0
 10
115.306705
 20
47.322054
 30
0.0
 10
115.117190
 20
47.325667
 30
0.0
 10
114.927675
 20
47.329279
 30
0.0
 10
114.738160
 20
47.332892
 30
0.0
 10
114.548645
 20
47.336504
 30
0.0
 10
114.359130
 20
47.340116
 30
0.0
 10
114.169614
 20
47.343729
 30
0.0
 10
113.980099
 20
47.347341
 30
0.0
 10
113.790584
 20
47.350954
 30
0.0
 10
113.601069
 20
47.354566
 30
0.0
 10
113.411554
 20
47.358179
 30
0.0
 10
113.222039
 20
47.361791
 30
0.0
 10
113.032524
 20
47.365404
 30
0.0
 10
112.843009
 20
47.369016
 30
0.0
 10
112.662489
 20
47.374124
 30
0.0
 10
112.481965
 20
47.379232
 30
0.0
 10
112.301444
 20
47.384341
 30
0.0
 10
112.120921
 20
47.389449
 30
0.0
 10
111.940400
 20
47.394557
 30
0.0
 10
111.759880
 20
47.399665
 30
0.0
 10
111.579356
 20
47.404774
 30
0.0
 10
111.398836
 20
47.409882
 30
0.0
 10
111.218315
 20
47.414990
 30
0.0
 10
111.037792
 20
47.420098
 30
0.0
 10
110.857271
 20
47.425206
 30
0.0
 10
110.676748
 20
47.430315
 30
0.0
 10
110.496227
 20
47.435423
 30
0.0
 10
110.315706
 20
47.440531
 30
0.0
 10
110.135183
 20
47.445639
 30
0.0
 10
109.954662
 20
47.450748
 30
0.0
 10
109.774142
 20
47.455856
 30
0.0
 10
109.593618
 20
47.460964
 30
0.0
 10
109.413098
 20
47.466072
 30
0.0
 10
109.232574
 20
47.471180
 30
0.0
 10
109.052054
 20
47.476289
 30
0.0
 10
108.871533
 20
47.481397
 30
0.0
 10
108.691009
 20
47.486505
 30
0.0
 10
108.510489
 20
47.491613
 30
0.0
 10
108.329968
 20
47.496722
 30
0.0
 10
108.149445
 20
47.501830
 30
0.0
 10
107.968924
 20
47.506938
 30
0.0
 10
107.788401
 20
47.512046
 30
0.0
 10
107.607880
 20
47.517154
 30
0.0
 10
107.427359
 20
47.522263
 30
0.0
 10
107.246836
 20
47.527371
 30
0.0
 10
107.066315
 20
47.532479
 30
0.0
 10
106.890262
 20
47.539055
 30
0.0
 10
106.714206
 20
47.545631
 30
0.0
 10
106.538153
 20
47.552206
 30
0.0
 10
106.362098
 20
47.558782
 30
0.0
 10
106.186045
 20
47.565358
 30
0.0
 10
106.009991
 20
47.571934
 30
0.0
 10
105.833936
 20
47.578510
 30
0.0
 10
105.657883
 20
47.585085
 30
0.0
 10
105.481827
 20
47.591661
 30
0.0
 10
105.305774
 20
47.598237
 30
0.0
 10
105.129721
 20
47.604813
 30
0.0
 10
104.953665
 20
47.611388
 30
0.0
 10
104.777612
 20
47.617964
 30
0.0
 10
104.601556
 20
47.624540
 30
0.0
 10
104.425503
 20
47.631116
 30
0.0
 10
104.249447
 20
47.637692
 30
0.0
 10
104.073394
 20
47.644267
 30
0.0
 10
103.897341
 20
47.650843
 30
0.0
 10
103.721285
 20
47.657419
 30
0.0
 10
103.545232
 20
47.663995
 30
0.0
 10
103.369176
 20
47.670570
 30
0.0
 10
103.193123
 20
47.677146
 30
0.0
 10
103.017070
 20
47.683722
 30
0.0
 10
102.841014
 20
47.690298
 30
0.0
 10
102.664961
 20
47.696874
 30
0.0
 10
102.488905
 20
47.703449
 30
0.0
 10
102.312852
 20
47.710025
 30
0.0
 10
102.136799
 20
47.716601
 30
0.0
 10
101.960743
 20
47.723177
 30
0.0
 10
101.784690
 20
47.729752
 30
0.0
 10
101.608634
 20
47.736328
 30
0.0
 10
101.432581
 20
47.742904
 30
0.0
 10
101.256469
 20
47.750919
 30
0.0
 10
101.080359
 20
47.758934
 30
0.0
 10
100.904247
 20
47.766949
 30
0.0
 10
100.728135
 20
47.774964
 30
0.0
 10
100.552025
 20
47.782980
 30
0.0
 10
100.375913
 20
47.790995
 30
0.0
 10
100.199804
 20
47.799010
 30
0.0
 10
100.023691
 20
47.807025
 30
0.0
 10
99.847579
 20
47.815040
 30
0.0
 10
99.671469
 20
47.823055
 30
0.0
 10
99.495357
 20
47.831070
 30
0.0
 10
99.319245
 20
47.839085
 30
0.0
 10
99.143135
 20
47.847100
 30
0.0
 10
98.967023
 20
47.855116
 30
0.0
 10
98.790914
 20
47.863131
 30
0.0
 10
98.614801
 20
47.871146
 30
0.0
 10
98.438689
 20
47.879161
 30
0.0
 10
98.262579
 20
47.887176
 30
0.0
 10
98.086467
 20
47.895191
 30
0.0
 10
97.910355
 20
47.903206
 30
0.0
 10
97.734245
 20
47.911221
 30
0.0
 10
97.558133
 20
47.919236
 30
0.0
 10
97.382024
 20
47.927252
 30
0.0
 10
97.205911
 20
47.935267
 30
0.0
 10
97.029799
 20
47.943282
 30
0.0
 10
96.853689
 20
47.951297
 30
0.0
 10
96.677577
 20
47.959312
 30
0.0
 10
96.501465
 20
47.967327
 30
0.0
 10
96.325355
 20
47.975342
 30
0.0
 10
96.149243
 20
47.983357
 30
0.0
 10
95.973133
 20
47.991372
 30
0.0
 10
95.797021
 20
47.999388
 30
0.0
 10
95.616328
 20
48.008842
 30
0.0
 10
95.435636
 20
48.018296
 30
0.0
 10
95.254943
 20
48.027751
 30
0.0
 10
95.074247
 20
48.037205
 30
0.0
 10
94.893554
 20
48.046660
 30
0.0
 10
94.712862
 20
48.056114
 30
0.0
 10
94.532169
 20
48.065569
 30
0.0
 10
94.351476
 20
48.075023
 30
0.0
 10
94.170783
 20
48.084478
 30
0.0
 10
93.990088
 20
48.093932
 30
0.0
 10
93.809395
 20
48.103386
 30
0.0
 10
93.628702
 20
48.112841
 30
0.0
 10
93.448009
 20
48.122295
 30
0.0
 10
93.267317
 20
48.131750
 30
0.0
 10
93.086624
 20
48.141204
 30
0.0
 10
92.905928
 20
48.150659
 30
0.0
 10
92.725235
 20
48.160113
 30
0.0
 10
92.544543
 20
48.169568
 30
0.0
 10
92.363850
 20
48.179022
 30
0.0
 10
92.183157
 20
48.188476
 30
0.0
 10
92.002464
 20
48.197931
 30
0.0
 10
91.821772
 20
48.207385
 30
0.0
 10
91.641076
 20
48.216840
 30
0.0
 10
91.460383
 20
48.226294
 30
0.0
 10
91.279690
 20
48.235749
 30
0.0
 10
91.098998
 20
48.245203
 30
0.0
 10
90.918305
 20
48.254658
 30
0.0
 10
90.737612
 20
48.264112
 30
0.0
 10
90.556917
 20
48.273566
 30
0.0
 10
90.376224
 20
48.283021
 30
0.0
 10
90.195531
 20
48.292475
 30
0.0
 10
90.014838
 20
48.301930
 30
0.0
 10
89.825038
 20
48.312824
 30
0.0
 10
89.635238
 20
48.323717
 30
0.0
 10
89.445441
 20
48.334611
 30
0.0
 10
89.255641
 20
48.345505
 30
0.0
 10
89.065841
 20
48.356399
 30
0.0
 10
88.876040
 20
48.367292
 30
0.0
 10
88.686243
 20
48.378186
 30
0.0
 10
88.496443
 20
48.389080
 30
0.0
 10
88.306643
 20
48.399974
 30
0.0
 10
88.116843
 20
48.410868
 30
0.0
 10
87.927046
 20
48.421761
 30
0.0
 10
87.737246
 20
48.432655
 30
0.0
 10
87.547445
 20
48.443549
 30
0.0
 10
87.357645
 20
48.454443
 30
0.0
 10
87.167848
 20
48.465336
 30
0.0
 10
86.978048
 20
48.476230
 30
0.0
 10
86.788248
 20
48.487124
 30
0.0
 10
86.598448
 20
48.498018
 30
0.0
 10
86.408651
 20
48.508912
 30
0.0
 10
86.218851
 20
48.519805
 30
0.0
 10
86.029050
 20
48.530699
 30
0.0
 10
85.839250
 20
48.541593
 30
0.0
 10
85.649453
 20
48.552487
 30
0.0
 10
85.459653
 20
48.563380
 30
0.0
 10
85.269853
 20
48.574274
 30
0.0
 10
85.080053
 20
48.585168
 30
0.0
 10
84.890256
 20
48.596062
 30
0.0
 10
84.700455
 20
48.606956
 30
0.0
 10
84.510655
 20
48.617849
 30
0.0
 10
84.320855
 20
48.628743
 30
0.0
 10
84.131058
 20
48.639637
 30
0.0
 10
83.941258
 20
48.650531
 30
0.0
 10
83.737826
 20
48.662836
 30
0.0
 10
83.534398
 20
48.675140
 30
0.0
 10
83.330966
 20
48.687445
 30
0.0
 10
83.127535
 20
48.699750
 30
0.0
 10
82.924104
 20
48.712055
 30
0.0
 10
82.720675
 20
48.724360
 30
0.0
 10
82.517244
 20
48.736665
 30
0.0
 10
82.313812
 20
48.748970
 30
0.0
 10
82.110384
 20
48.761275
 30
0.0
 10
81.906952
 20
48.773580
 30
0.0
 10
81.703521
 20
48.785884
 30
0.0
 10
81.500089
 20
48.798189
 30
0.0
 10
81.296661
 20
48.810494
 30
0.0
 10
81.093229
 20
48.822799
 30
0.0
 10
80.889798
 20
48.835104
 30
0.0
 10
80.686366
 20
48.847409
 30
0.0
 10
80.482938
 20
48.859714
 30
0.0
 10
80.279506
 20
48.872019
 30
0.0
 10
80.076075
 20
48.884324
 30
0.0
 10
79.872646
 20
48.896628
 30
0.0
 10
79.669215
 20
48.908933
 30
0.0
 10
79.465784
 20
48.921238
 30
0.0
 10
79.262352
 20
48.933543
 30
0.0
 10
79.058924
 20
48.945848
 30
0.0
 10
78.855492
 20
48.958153
 30
0.0
 10
78.652061
 20
48.970458
 30
0.0
 10
78.448632
 20
48.982763
 30
0.0
 10
78.245201
 20
48.995068
 30
0.0
 10
78.041769
 20
49.007372
 30
0.0
 10
77.838338
 20
49.019677
 30
0.0
 10
77.634909
 20
49.031982
 30
0.0
 10
77.431478
 20
49.044287
 30
0.0
 10
77.209891
 20
49.058003
 30
0.0
 10
76.988304
 20
49.071719
 30
0.0
 10
76.766720
 20
49.085435
 30
0.0
 10
76.545134
 20
49.099151
 30
0.0
 10
76.323547
 20
49.112867
 30
0.0
 10
76.101960
 20
49.126583
 30
0.0
 10
75.880376
 20
49.140299
 30
0.0
 10
75.658789
 20
49.154015
 30
0.0
 10
75.437202
 20
49.167731
 30
0.0
 10
75.215616
 20
49.181447
 30
0.0
 10
74.994029
 20
49.195163
 30
0.0
 10
74.772445
 20
49.208879
 30
0.0
 10
74.550858
 20
49.222595
 30
0.0
 10
74.329271
 20
49.236311
 30
0.0
 10
74.107685
 20
49.250027
 30
0.0
 10
73.886098
 20
49.263743
 30
0.0
 10
73.664514
 20
49.277459
 30
0.0
 10
73.442927
 20
49.291175
 30
0.0
 10
73.221340
 20
49.304891
 30
0.0
 10
72.999754
 20
49.318607
 30
0.0
 10
72.778170
 20
49.332323
 30
0.0
 10
72.556583
 20
49.346039
 30
0.0
 10
72.334996
 20
49.359755
 30
0.0
 10
72.113409
 20
49.373471
 30
0.0
 10
71.891822
 20
49.387187
 30
0.0
 10
71.670239
 20
49.400903
 30
0.0
 10
71.448652
 20
49.414619
 30
0.0
 10
71.227065
 20
49.428335
 30
0.0
 10
71.005478
 20
49.442051
 30
0.0
 10
70.783894
 20
49.455767
 30
0.0
 10
70.562307
 20
49.469483
 30
0.0
 10
70.340721
 20
49.483199
 30
0.0
 10
70.096455
 20
49.498298
 30
0.0
 10
69.852186
 20
49.513397
 30
0.0
 10
69.607919
 20
49.528496
 30
0.0
 10
69.363650
 20
49.543595
 30
0.0
 10
69.119384
 20
49.558694
 30
0.0
 10
68.875115
 20
49.573792
 30
0.0
 10
68.630849
 20
49.588891
 30
0.0
 10
68.386580
 20
49.603990
 30
0.0
 10
68.142314
 20
49.619089
 30
0.0
 10
67.898048
 20
49.634188
 30
0.0
 10
67.653779
 20
49.649287
 30
0.0
 10
67.409513
 20
49.664386
 30
0.0
 10
67.165244
 20
49.679485
 30
0.0
 10
66.920978
 20
49.694584
 30
0.0
 10
66.676709
 20
49.709682
 30
0.0
 10
66.432442
 20
49.724781
 30
0.0
 10
66.188176
 20
49.739880
 30
0.0
 10
65.943907
 20
49.754979
 30
0.0
 10
65.699641
 20
49.770078
 30
0.0
 10
65.455372
 20
49.785177
 30
0.0
 10
65.211106
 20
49.800276
 30
0.0
 10
64.966837
 20
49.815375
 30
0.0
 10
64.722571
 20
49.830474
 30
0.0
 10
64.478302
 20
49.845572
 30
0.0
 10
64.234036
 20
49.860671
 30
0.0
 10
63.989770
 20
49.875770
 30
0.0
 10
63.745501
 20
49.890869
 30
0.0
 10
63.501234
 20
49.905968
 30
0.0
 10
63.256965
 20
49.921067
 30
0.0
 10
63.012699
 20
49.936166
 30
0.0
 10
62.768430
 20
49.951265
 30
0.0
 10
62.524164
 20
49.966364
 30
0.0
 10
62.191198
 20
49.987304
 30
0.0
 10
61.858216
 20
50.007935
 30
0.0
 10
61.525213
 20
50.028255
 30
0.0
 10
61.192197
 20
50.048321
 30
0.0
 10
60.859169
 20
50.068161
 30
0.0
 10
60.526132
 20
50.087832
 30
0.0
 10
60.193088
 20
50.107362
 30
0.0
 10
59.860037
 20
50.126779
 30
0.0
 10
59.526990
 20
50.146139
 30
0.0
 10
59.193939
 20
50.165500
 30
0.0
 10
58.860897
 20
50.184888
 30
0.0
 10
58.527858
 20
50.204333
 30
0.0
 10
58.194830
 20
50.223891
 30
0.0
 10
57.861814
 20
50.243590
 30
0.0
 10
57.528814
 20
50.263487
 30
0.0
 10
57.195828
 20
50.283610
 30
0.0
 10
56.862865
 20
50.303986
 30
0.0
 10
56.529922
 20
50.324673
 30
0.0
 10
56.197007
 20
50.345727
 30
0.0
 10
55.864118
 20
50.367147
 30
0.0
 10
55.531262
 20
50.389020
 30
0.0
 10
55.198437
 20
50.411343
 30
0.0
 10
54.865649
 20
50.434175
 30
0.0
 10
54.532901
 20
50.457571
 30
0.0
 10
54.200195
 20
50.481560
 30
0.0
 10
53.867531
 20
50.506198
 30
0.0
 10
53.534912
 20
50.531485
 30
0.0
 10
53.202344
 20
50.557506
 30
0.0
 10
52.869830
 20
50.584289
 30
0.0
 10
52.537370
 20
50.611862
 30
0.0
 10
52.204965
 20
50.640262
 30
0.0
 10
51.872623
 20
50.669537
 30
0.0
 10
51.802545
 20
50.679161
 30
0.0
 10
51.732466
 20
50.688785
 30
0.0
 10
51.662388
 20
50.698408
 30
0.0
 10
51.592309
 20
50.708032
 30
0.0
 10
51.522230
 20
50.717656
 30
0.0
 10
51.452151
 20
50.727280
 30
0.0
 10
51.382073
 20
50.736904
 30
0.0
 10
51.311994
 20
50.746527
 30
0.0
 10
51.241916
 20
50.756151
 30
0.0
 10
51.171837
 20
50.765775
 30
0.0
 10
51.101758
 20
50.775399
 30
0.0
 10
51.031680
 20
50.785022
 30
0.0
 10
50.961601
 20
50.794646
 30
0.0
 10
50.891522
 20
50.804270
 30
0.0
 10
50.821444
 20
50.813894
 30
0.0
 10
50.751365
 20
50.823518
 30
0.0
 10
50.681287
 20
50.833141
 30
0.0
 10
50.611208
 20
50.842765
 30
0.0
 10
50.541129
 20
50.852389
 30
0.0
 10
50.471051
 20
50.862013
 30
0.0
 10
50.400972
 20
50.871636
 30
0.0
 10
50.330893
 20
50.881260
 30
0.0
 10
50.260815
 20
50.890884
 30
0.0
 10
50.190736
 20
50.900508
 30
0.0
 10
50.120658
 20
50.910132
 30
0.0
 10
50.050579
 20
50.919755
 30
0.0
 10
49.980500
 20
50.929379
 30
0.0
 10
49.910421
 20
50.939003
 30
0.0
 10
49.840343
 20
50.948627
 30
0.0
 10
49.770264
 20
50.958250
 30
0.0
 10
49.700186
 20
50.967874
 30
0.0
 10
49.630107
 20
50.977498
 30
0.0
 10
49.553074
 20
50.991129
 30
0.0
 10
49.476041
 20
51.004761
 30
0.0
 10
49.399008
 20
51.018392
 30
0.0
 10
49.321975
 20
51.032023
 30
0.0
 10
49.244942
 20
51.045655
 30
0.0
 10
49.167909
 20
51.059286
 30
0.0
 10
49.090875
 20
51.072917
 30
0.0
 10
49.013842
 20
51.086549
 30
0.0
 10
48.936809
 20
51.100180
 30
0.0
 10
48.859776
 20
51.113811
 30
0.0
 10
48.782743
 20
51.127443
 30
0.0
 10
48.705710
 20
51.141074
 30
0.0
 10
48.628677
 20
51.154705
 30
0.0
 10
48.551644
 20
51.168337
 30
0.0
 10
48.474611
 20
51.181968
 30
0.0
 10
48.397578
 20
51.195599
 30
0.0
 10
48.320545
 20
51.209231
 30
0.0
 10
48.243512
 20
51.222862
 30
0.0
 10
48.166479
 20
51.236493
 30
0.0
 10
48.089445
 20
51.250125
 30
0.0
 10
48.012412
 20
51.263756
 30
0.0
 10
47.935379
 20
51.277387
 30
0.0
 10
47.858346
 20
51.291019
 30
0.0
 10
47.781313
 20
51.304650
 30
0.0
 10
47.704280
 20
51.318281
 30
0.0
 10
47.627247
 20
51.331913
 30
0.0
 10
47.550214
 20
51.345544
 30
0.0
 10
47.473181
 20
51.359175
 30
0.0
 10
47.396148
 20
51.372807
 30
0.0
 10
47.319115
 20
51.386438
 30
0.0
 10
47.242082
 20
51.400069
 30
0.0
 10
47.165049
 20
51.413701
 30
0.0
 10
47.082799
 20
51.431227
 30
0.0
 10
47.000549
 20
51.448753
 30
0.0
 10
46.918300
 20
51.466279
 30
0.0
 10
46.836050
 20
51.483805
 30
0.0
 10
46.753800
 20
51.501331
 30
0.0
 10
46.671551
 20
51.518857
 30
0.0
 10
46.589301
 20
51.536383
 30
0.0
 10
46.507051
 20
51.553909
 30
0.0
 10
46.424802
 20
51.571435
 30
0.0
 10
46.342552
 20
51.588961
 30
0.0
 10
46.260303
 20
51.606487
 30
0.0
 10
46.178053
 20
51.624013
 30
0.0
 10
46.095803
 20
51.641539
 30
0.0
 10
46.013553
 20
51.659065
 30
0.0
 10
45.931304
 20
51.676591
 30
0.0
 10
45.849054
 20
51.694117
 30
0.0
 10
45.766805
 20
51.711643
 30
0.0
 10
45.684555
 20
51.729169
 30
0.0
 10
45.602305
 20
51.746695
 30
0.0
 10
45.520056
 20
51.764221
 30
0.0
 10
45.437806
 20
51.781747
 30
0.0
 10
45.355556
 20
51.799273
 30
0.0
 10
45.273307
 20
51.816799
 30
0.0
 10
45.191057
 20
51.834325
 30
0.0
 10
45.108807
 20
51.851851
 30
0.0
 10
45.026558
 20
51.869377
 30
0.0
 10
44.944308
 20
51.886903
 30
0.0
 10
44.862059
 20
51.904429
 30
0.0
 10
44.779809
 20
51.921955
 30
0.0
 10
44.697559
 20
51.939481
 30
0.0
 10
44.615310
 20
51.957007
 30
0.0
 10
44.533060
 20
51.974533
 30
0.0
 10
44.447329
 20
51.995812
 30
0.0
 10
44.361599
 20
52.017092
 30
0.0
 10
44.275868
 20
52.038371
 30
0.0
 10
44.190137
 20
52.059651
 30
0.0
 10
44.104407
 20
52.080930
 30
0.0
 10
44.018676
 20
52.102210
 30
0.0
 10
43.932945
 20
52.123490
 30
0.0
 10
43.847215
 20
52.144769
 30
0.0
 10
43.761484
 20
52.166049
 30
0.0
 10
43.675753
 20
52.187328
 30
0.0
 10
43.590023
 20
52.208608
 30
0.0
 10
43.504292
 20
52.229887
 30
0.0
 10
43.418561
 20
52.251167
 30
0.0
 10
43.332831
 20
52.272446
 30
0.0
 10
43.247100
 20
52.293726
 30
0.0
 10
43.161369
 20
52.315006
 30
0.0
 10
43.075638
 20
52.336285
 30
0.0
 10
42.989908
 20
52.357565
 30
0.0
 10
42.904177
 20
52.378844
 30
0.0
 10
42.818447
 20
52.400124
 30
0.0
 10
42.732716
 20
52.421403
 30
0.0
 10
42.646985
 20
52.442683
 30
0.0
 10
42.561255
 20
52.463962
 30
0.0
 10
42.475524
 20
52.485242
 30
0.0
 10
42.389793
 20
52.506522
 30
0.0
 10
42.304063
 20
52.527801
 30
0.0
 10
42.218332
 20
52.549081
 30
0.0
 10
42.132601
 20
52.570360
 30
0.0
 10
42.046870
 20
52.591640
 30
0.0
 10
41.961140
 20
52.612919
 30
0.0
 10
41.875409
 20
52.634199
 30
0.0
 10
41.789679
 20
52.655478
 30
0.0
 10
41.702205
 20
52.680399
 30
0.0
 10
41.614731
 20
52.705319
 30
0.0
 10
41.527257
 20
52.730239
 30
0.0
 10
41.439783
 20
52.755159
 30
0.0
 10
41.352310
 20
52.780080
 30
0.0
 10
41.264836
 20
52.805000
 30
0.0
 10
41.177362
 20
52.829920
 30
0.0
 10
41.089888
 20
52.854840
 30
0.0
 10
41.002415
 20
52.879760
 30
0.0
 10
40.914941
 20
52.904681
 30
0.0
 10
40.827467
 20
52.929601
 30
0.0
 10
40.739993
 20
52.954521
 30
0.0
 10
40.652519
 20
52.979441
 30
0.0
 10
40.565046
 20
53.004362
 30
0.0
 10
40.477572
 20
53.029282
 30
0.0
 10
40.390098
 20
53.054202
 30
0.0
 10
40.302625
 20
53.079122
 30
0.0
 10
40.215151
 20
53.104042
 30
0.0
 10
40.127677
 20
53.128963
 30
0.0
 10
40.040203
 20
53.153883
 30
0.0
 10
39.952729
 20
53.178803
 30
0.0
 10
39.865255
 20
53.203723
 30
0.0
 10
39.777782
 20
53.228644
 30
0.0
 10
39.690308
 20
53.253564
 30
0.0
 10
39.602834
 20
53.278484
 30
0.0
 10
39.515361
 20
53.303404
 30
0.0
 10
39.427887
 20
53.328324
 30
0.0
 10
39.340413
 20
53.353245
 30
0.0
 10
39.252939
 20
53.378165
 30
0.0
 10
39.165465
 20
53.403085
 30
0.0
 10
39.077991
 20
53.428005
 30
0.0
 10
38.990518
 20
53.452926
 30
0.0
 10
38.903037
 20
53.481340
 30
0.0
 10
38.815555
 20
53.509757
 30
0.0
 10
38.728074
 20
53.538171
 30
0.0
 10
38.640592
 20
53.566588
 30
0.0
 10
38.553111
 20
53.595002
 30
0.0
 10
38.465630
 20
53.623419
 30
0.0
 10
38.378149
 20
53.651833
 30
0.0
 10
38.290667
 20
53.680250
 30
0.0
 10
38.203186
 20
53.708664
 30
0.0
 10
38.115705
 20
53.737081
 30
0.0
 10
38.028223
 20
53.765495
 30
0.0
 10
37.940742
 20
53.793912
 30
0.0
 10
37.853261
 20
53.822326
 30
0.0
 10
37.765779
 20
53.850743
 30
0.0
 10
37.678298
 20
53.879157
 30
0.0
 10
37.590817
 20
53.907574
 30
0.0
 10
37.503335
 20
53.935988
 30
0.0
 10
37.415854
 20
53.964403
 30
0.0
 10
37.328373
 20
53.992820
 30
0.0
 10
37.240892
 20
54.021234
 30
0.0
 10
37.153410
 20
54.049651
 30
0.0
 10
37.065929
 20
54.078065
 30
0.0
 10
36.978447
 20
54.106482
 30
0.0
 10
36.890966
 20
54.134896
 30
0.0
 10
36.803485
 20
54.163313
 30
0.0
 10
36.716004
 20
54.191727
 30
0.0
 10
36.628522
 20
54.220144
 30
0.0
 10
36.541041
 20
54.248558
 30
0.0
 10
36.453560
 20
54.276975
 30
0.0
 10
36.366078
 20
54.305389
 30
0.0
 10
36.278597
 20
54.333806
 30
0.0
 10
36.191116
 20
54.362220
 30
0.0
 10
36.105364
 20
54.394015
 30
0.0
 10
36.019612
 20
54.425810
 30
0.0
 10
35.933861
 20
54.457608
 30
0.0
 10
35.848109
 20
54.489404
 30
0.0
 10
35.762357
 20
54.521199
 30
0.0
 10
35.676605
 20
54.552994
 30
0.0
 10
35.590854
 20
54.584792
 30
0.0
 10
35.505102
 20
54.616587
 30
0.0
 10
35.419350
 20
54.648382
 30
0.0
 10
35.333599
 20
54.680177
 30
0.0
 10
35.247847
 20
54.711973
 30
0.0
 10
35.162095
 20
54.743771
 30
0.0
 10
35.076343
 20
54.775566
 30
0.0
 10
34.990592
 20
54.807361
 30
0.0
 10
34.904840
 20
54.839156
 30
0.0
 10
34.819088
 20
54.870954
 30
0.0
 10
34.733337
 20
54.902749
 30
0.0
 10
34.647585
 20
54.934544
 30
0.0
 10
34.561833
 20
54.966339
 30
0.0
 10
34.476082
 20
54.998135
 30
0.0
 10
34.390330
 20
55.029933
 30
0.0
 10
34.304578
 20
55.061728
 30
0.0
 10
34.218826
 20
55.093523
 30
0.0
 10
34.133075
 20
55.125318
 30
0.0
 10
34.047323
 20
55.157113
 30
0.0
 10
33.961571
 20
55.188911
 30
0.0
 10
33.875819
 20
55.220706
 30
0.0
 10
33.790068
 20
55.252501
 30
0.0
 10
33.704316
 20
55.284297
 30
0.0
 10
33.618564
 20
55.316095
 30
0.0
 10
33.532813
 20
55.347890
 30
0.0
 10
33.447061
 20
55.379685
 30
0.0
 10
34.049051
 20
56.945589
 30
0.0
 10
34.602658
 20
58.413142
 30
0.0
 10
35.108557
 20
59.787832
 30
0.0
 10
35.567420
 20
61.075158
 30
0.0
 10
35.979919
 20
62.280605
 30
0.0
 10
36.346727
 20
63.409669
 30
0.0
 10
36.668517
 20
64.467844
 30
0.0
 10
36.945962
 20
65.460618
 30
0.0
 10
37.179734
 20
66.393483
 30
0.0
 10
37.370507
 20
67.271937
 30
0.0
 10
37.518952
 20
68.101464
 30
0.0
 10
37.625743
 20
68.887563
 30
0.0
 10
37.691553
 20
69.635720
 30
0.0
 10
37.717055
 20
70.351433
 30
0.0
 10
37.702921
 20
71.040190
 30
0.0
 10
37.649823
 20
71.707488
 30
0.0
 10
37.558434
 20
72.358812
 30
0.0
 10
37.429428
 20
72.999659
 30
0.0
 10
37.263477
 20
73.635520
 30
0.0
 10
37.061253
 20
74.271889
 30
0.0
 10
36.823430
 20
74.914255
 30
0.0
 10
36.550680
 20
75.568110
 30
0.0
 10
36.243677
 20
76.238949
 30
0.0
 10
35.903092
 20
76.932262
 30
0.0
 10
35.529598
 20
77.653543
 30
0.0
 10
35.123869
 20
78.408282
 30
0.0
 10
34.686578
 20
79.201972
 30
0.0
 10
34.218395
 20
80.040105
 30
0.0
 10
33.719996
 20
80.928173
 30
0.0
 10
33.192052
 20
81.871670
 30
0.0
 10
32.635236
 20
82.876085
 30
0.0
 10
32.050221
 20
83.946913
 30
0.0
 10
32.171675
 20
84.017352
 30
0.0
 10
32.293129
 20
84.087792
 30
0.0
 10
32.414583
 20
84.158232
 30
0.0
 10
32.536038
 20
84.228672
 30
0.0
 10
32.657492
 20
84.299112
 30
0.0
 10
32.778946
 20
84.369552
 30
0.0
 10
32.900400
 20
84.439991
 30
0.0
 10
33.021854
 20
84.510431
 30
0.0
 10
33.143309
 20
84.580871
 30
0.0
 10
33.264763
 20
84.651311
 30
0.0
 10
33.386217
 20
84.721751
 30
0.0
 10
33.507672
 20
84.792191
 30
0.0
 10
33.629126
 20
84.862630
 30
0.0
 10
33.750580
 20
84.933070
 30
0.0
 10
33.872034
 20
85.003510
 30
0.0
 10
33.993488
 20
85.073950
 30
0.0
 10
34.114943
 20
85.144390
 30
0.0
 10
34.236397
 20
85.214830
 30
0.0
 10
34.357851
 20
85.285270
 30
0.0
 10
34.479305
 20
85.355709
 30
0.0
 10
34.600759
 20
85.426149
 30
0.0
 10
34.722214
 20
85.496589
 30
0.0
 10
34.843668
 20
85.567029
 30
0.0
 10
34.965122
 20
85.637469
 30
0.0
 10
35.086576
 20
85.707909
 30
0.0
 10
35.208031
 20
85.778348
 30
0.0
 10
35.329485
 20
85.848788
 30
0.0
 10
35.450939
 20
85.919228
 30
0.0
 10
35.572393
 20
85.989668
 30
0.0
 10
35.693848
 20
86.060108
 30
0.0
 10
35.815302
 20
86.130548
 30
0.0
 10
35.936756
 20
86.200988
 30
0.0
 10
36.070327
 20
86.266438
 30
0.0
 10
36.203898
 20
86.331885
 30
0.0
 10
36.337469
 20
86.397335
 30
0.0
 10
36.471041
 20
86.462785
 30
0.0
 10
36.604612
 20
86.528233
 30
0.0
 10
36.738183
 20
86.593683
 30
0.0
 10
36.871754
 20
86.659133
 30
0.0
 10
37.005325
 20
86.724580
 30
0.0
 10
37.138896
 20
86.790030
 30
0.0
 10
37.272468
 20
86.855481
 30
0.0
 10
37.406039
 20
86.920928
 30
0.0
 10
37.539610
 20
86.986378
 30
0.0
 10
37.673181
 20
87.051828
 30
0.0
 10
37.806752
 20
87.117276
 30
0.0
 10
37.940323
 20
87.182726
 30
0.0
 10
38.073895
 20
87.248176
 30
0.0
 10
38.207466
 20
87.313623
 30
0.0
 10
38.341037
 20
87.379073
 30
0.0
 10
38.474608
 20
87.444521
 30
0.0
 10
38.608179
 20
87.509971
 30
0.0
 10
38.741750
 20
87.575421
 30
0.0
 10
38.875321
 20
87.640868
 30
0.0
 10
39.008893
 20
87.706319
 30
0.0
 10
39.142464
 20
87.771769
 30
0.0
 10
39.276035
 20
87.837216
 30
0.0
 10
39.409606
 20
87.902666
 30
0.0
 10
39.543177
 20
87.968116
 30
0.0
 10
39.676748
 20
88.033564
 30
0.0
 10
39.810320
 20
88.099014
 30
0.0
 10
39.943891
 20
88.164464
 30
0.0
 10
40.077462
 20
88.229911
 30
0.0
 10
40.211033
 20
88.295361
 30
0.0
 10
40.354888
 20
88.355898
 30
0.0
 10
40.498743
 20
88.416435
 30
0.0
 10
40.642598
 20
88.476969
 30
0.0
 10
40.786453
 20
88.537505
 30
0.0
 10
40.930307
 20
88.598042
 30
0.0
 10
41.074162
 20
88.658579
 30
0.0
 10
41.218017
 20
88.719115
 30
0.0
 10
41.361872
 20
88.779652
 30
0.0
 10
41.505727
 20
88.840186
 30
0.0
 10
41.649582
 20
88.900722
 30
0.0
 10
41.793437
 20
88.961259
 30
0.0
 10
41.937291
 20
89.021796
 30
0.0
 10
42.081146
 20
89.082332
 30
0.0
 10
42.225001
 20
89.142866
 30
0.0
 10
42.368856
 20
89.203403
 30
0.0
 10
42.512711
 20
89.263940
 30
0.0
 10
42.656566
 20
89.324476
 30
0.0
 10
42.800420
 20
89.385013
 30
0.0
 10
42.944275
 20
89.445547
 30
0.0
 10
43.088130
 20
89.506084
 30
0.0
 10
43.231985
 20
89.566620
 30
0.0
 10
43.375840
 20
89.627157
 30
0.0
 10
43.519695
 20
89.687694
 30
0.0
 10
43.663549
 20
89.748230
 30
0.0
 10
43.807404
 20
89.808764
 30
0.0
 10
43.951259
 20
89.869301
 30
0.0
 10
44.095114
 20
89.929837
 30
0.0
 10
44.238969
 20
89.990374
 30
0.0
 10
44.382823
 20
90.050911
 30
0.0
 10
44.526678
 20
90.111445
 30
0.0
 10
44.670533
 20
90.171981
 30
0.0
 10
44.814388
 20
90.232518
 30
0.0
 10
44.966694
 20
90.288217
 30
0.0
 10
45.119000
 20
90.343919
 30
0.0
 10
45.271306
 20
90.399619
 30
0.0
 10
45.423612
 20
90.455321
 30
0.0
 10
45.575918
 20
90.511020
 30
0.0
 10
45.728225
 20
90.566720
 30
0.0
 10
45.880531
 20
90.622422
 30
0.0
 10
46.032837
 20
90.678121
 30
0.0
 10
46.185143
 20
90.733824
 30
0.0
 10
46.337449
 20
90.789523
 30
0.0
 10
46.489755
 20
90.845222
 30
0.0
 10
46.642061
 20
90.900925
 30
0.0
 10
46.794367
 20
90.956624
 30
0.0
 10
46.946673
 20
91.012326
 30
0.0
 10
47.098979
 20
91.068025
 30
0.0
 10
47.251285
 20
91.123728
 30
0.0
 10
47.403591
 20
91.179427
 30
0.0
 10
47.555897
 20
91.235126
 30
0.0
 10
47.708203
 20
91.290829
 30
0.0
 10
47.860509
 20
91.346528
 30
0.0
 10
48.012815
 20
91.402230
 30
0.0
 10
48.165121
 20
91.457930
 30
0.0
 10
48.317427
 20
91.513629
 30
0.0
 10
48.469733
 20
91.569331
 30
0.0
 10
48.622039
 20
91.625031
 30
0.0
 10
48.774345
 20
91.680733
 30
0.0
 10
48.926652
 20
91.736432
 30
0.0
 10
49.078958
 20
91.792131
 30
0.0
 10
49.231264
 20
91.847834
 30
0.0
 10
49.383570
 20
91.903533
 30
0.0
 10
49.535876
 20
91.959235
 30
0.0
 10
49.688182
 20
92.014935
 30
0.0
 10
50.007318
 20
92.123920
 30
0.0
 10
50.326795
 20
92.231746
 30
0.0
 10
50.646598
 20
92.338449
 30
0.0
 10
50.966717
 20
92.444073
 30
0.0
 10
51.287142
 20
92.548656
 30
0.0
 10
51.607862
 20
92.652240
 30
0.0
 10
51.928862
 20
92.754862
 30
0.0
 10
52.250132
 20
92.856564
 30
0.0
 10
52.571665
 20
92.957385
 30
0.0
 10
52.893444
 20
93.057365
 30
0.0
 10
53.215459
 20
93.156546
 30
0.0
 10
53.537703
 20
93.254968
 30
0.0
 10
53.860159
 20
93.352668
 30
0.0
 10
54.182821
 20
93.449690
 30
0.0
 10
54.505672
 20
93.546069
 30
0.0
 10
54.828704
 20
93.641850
 30
0.0
 10
55.151904
 20
93.737072
 30
0.0
 10
55.475266
 20
93.831771
 30
0.0
 10
55.798772
 20
93.925994
 30
0.0
 10
56.122413
 20
94.019774
 30
0.0
 10
56.446178
 20
94.113155
 30
0.0
 10
56.770057
 20
94.206176
 30
0.0
 10
57.094036
 20
94.298880
 30
0.0
 10
57.418104
 20
94.391302
 30
0.0
 10
57.742253
 20
94.483484
 30
0.0
 10
58.066470
 20
94.575469
 30
0.0
 10
58.390740
 20
94.667293
 30
0.0
 10
58.715056
 20
94.758995
 30
0.0
 10
59.039406
 20
94.850622
 30
0.0
 10
59.363778
 20
94.942208
 30
0.0
 10
59.688161
 20
95.033795
 30
0.0
 10
60.012544
 20
95.125421
 30
0.0
 10
60.179211
 20
95.167077
 30
0.0
 10
60.345877
 20
95.208733
 30
0.0
 10
60.512543
 20
95.250392
 30
0.0
 10
60.679210
 20
95.292048
 30
0.0
 10
60.845876
 20
95.333704
 30
0.0
 10
61.012540
 20
95.375363
 30
0.0
 10
61.179206
 20
95.417019
 30
0.0
 10
61.345872
 20
95.458675
 30
0.0
 10
61.512539
 20
95.500331
 30
0.0
 10
61.679205
 20
95.541990
 30
0.0
 10
61.845871
 20
95.583646
 30
0.0
 10
62.012538
 20
95.625302
 30
0.0
 10
62.179204
 20
95.666958
 30
0.0
 10
62.345870
 20
95.708617
 30
0.0
 10
62.512537
 20
95.750273
 30
0.0
 10
62.679200
 20
95.791929
 30
0.0
 10
62.845866
 20
95.833585
 30
0.0
 10
63.012533
 20
95.875244
 30
0.0
 10
63.179199
 20
95.916900
 30
0.0
 10
63.345865
 20
95.958556
 30
0.0
 10
63.512532
 20
96.000212
 30
0.0
 10
63.679198
 20
96.041870
 30
0.0
 10
63.845864
 20
96.083526
 30
0.0
 10
64.012531
 20
96.125182
 30
0.0
 10
64.179197
 20
96.166838
 30
0.0
 10
64.345863
 20
96.208494
 30
0.0
 10
64.512527
 20
96.250153
 30
0.0
 10
64.679193
 20
96.291809
 30
0.0
 10
64.845860
 20
96.333465
 30
0.0
 10
65.012526
 20
96.375124
 30
0.0
 10
65.179192
 20
96.416780
 30
0.0
 10
65.345859
 20
96.458436
 30
0.0
 10
65.513645
 20
96.495565
 30
0.0
 10
65.681432
 20
96.532697
 30
0.0
 10
65.849219
 20
96.569826
 30
0.0
 10
66.017006
 20
96.606958
 30
0.0
 10
66.184795
 20
96.644087
 30
0.0
 10
66.352582
 20
96.681217
 30
0.0
 10
66.520369
 20
96.718349
 30
0.0
 10
66.688156
 20
96.755478
 30
0.0
 10
66.855942
 20
96.792607
 30
0.0
 10
67.023729
 20
96.829739
 30
0.0
 10
67.191516
 20
96.866868
 30
0.0
 10
67.359303
 20
96.903997
 30
0.0
 10
67.527092
 20
96.941129
 30
0.0
 10
67.694879
 20
96.978258
 30
0.0
 10
67.862666
 20
97.015390
 30
0.0
 10
68.030452
 20
97.052519
 30
0.0
 10
68.198239
 20
97.089649
 30
0.0
 10
68.366026
 20
97.126781
 30
0.0
 10
68.533813
 20
97.163910
 30
0.0
 10
68.701599
 20
97.201042
 30
0.0
 10
68.869389
 20
97.238171
 30
0.0
 10
69.037176
 20
97.275300
 30
0.0
 10
69.204962
 20
97.312432
 30
0.0
 10
69.372749
 20
97.349561
 30
0.0
 10
69.540536
 20
97.386690
 30
0.0
 10
69.708323
 20
97.423822
 30
0.0
 10
69.876110
 20
97.460951
 30
0.0
 10
70.043896
 20
97.498083
 30
0.0
 10
70.211686
 20
97.535213
 30
0.0
 10
70.379473
 20
97.572342
 30
0.0
 10
70.547259
 20
97.609474
 30
0.0
 10
70.715046
 20
97.646603
 30
0.0
 10
70.882124
 20
97.679284
 30
0.0
 10
71.049200
 20
97.711963
 30
0.0
 10
71.216278
 20
97.744644
 30
0.0
 10
71.383354
 20
97.777325
 30
0.0
 10
71.550432
 20
97.810007
 30
0.0
 10
71.717511
 20
97.842685
 30
0.0
 10
71.884586
 20
97.875367
 30
0.0
 10
72.051665
 20
97.908048
 30
0.0
 10
72.218743
 20
97.940726
 30
0.0
 10
72.385819
 20
97.973408
 30
0.0
 10
72.552897
 20
98.006089
 30
0.0
 10
72.719973
 20
98.038770
 30
0.0
 10
72.887051
 20
98.071449
 30
0.0
 10
73.054129
 20
98.104130
 30
0.0
 10
73.221205
 20
98.136812
 30
0.0
 10
73.388283
 20
98.169493
 30
0.0
 10
73.555362
 20
98.202171
 30
0.0
 10
73.722437
 20
98.234853
 30
0.0
 10
73.889516
 20
98.267534
 30
0.0
 10
74.056591
 20
98.300213
 30
0.0
 10
74.223669
 20
98.332894
 30
0.0
 10
74.390748
 20
98.365575
 30
0.0
 10
74.557823
 20
98.398257
 30
0.0
 10
74.724902
 20
98.430935
 30
0.0
 10
74.891980
 20
98.463616
 30
0.0
 10
75.059056
 20
98.496298
 30
0.0
 10
75.226134
 20
98.528976
 30
0.0
 10
75.393210
 20
98.561658
 30
0.0
 10
75.560288
 20
98.594339
 30
0.0
 10
75.727366
 20
98.627020
 30
0.0
 10
75.894442
 20
98.659699
 30
0.0
 10
76.061520
 20
98.692380
 30
0.0
 10
76.226056
 20
98.720690
 30
0.0
 10
76.390589
 20
98.748997
 30
0.0
 10
76.555124
 20
98.777306
 30
0.0
 10
76.719657
 20
98.805613
 30
0.0
 10
76.884192
 20
98.833923
 30
0.0
 10
77.048725
 20
98.862233
 30
0.0
 10
77.213261
 20
98.890540
 30
0.0
 10
77.377793
 20
98.918849
 30
0.0
 10
77.542329
 20
98.947156
 30
0.0
 10
77.706862
 20
98.975466
 30
0.0
 10
77.871397
 20
99.003776
 30
0.0
 10
78.035930
 20
99.032083
 30
0.0
 10
78.200466
 20
99.060392
 30
0.0
 10
78.364998
 20
99.088699
 30
0.0
 10
78.529534
 20
99.117009
 30
0.0
 10
78.694067
 20
99.145319
 30
0.0
 10
78.858602
 20
99.173625
 30
0.0
 10
79.023138
 20
99.201935
 30
0.0
 10
79.187670
 20
99.230242
 30
0.0
 10
79.352206
 20
99.258552
 30
0.0
 10
79.516739
 20
99.286859
 30
0.0
 10
79.681274
 20
99.315168
 30
0.0
 10
79.845807
 20
99.343478
 30
0.0
 10
80.010343
 20
99.371785
 30
0.0
 10
80.174875
 20
99.400095
 30
0.0
 10
80.339411
 20
99.428402
 30
0.0
 10
80.503944
 20
99.456711
 30
0.0
 10
80.668479
 20
99.485021
 30
0.0
 10
80.833012
 20
99.513328
 30
0.0
 10
80.997547
 20
99.541638
 30
0.0
 10
81.162080
 20
99.569945
 30
0.0
 10
81.326616
 20
99.598254
 30
0.0
 10
81.437405
 20
99.614059
 30
0.0
 10
81.548191
 20
99.629863
 30
0.0
 10
81.658980
 20
99.645668
 30
0.0
 10
81.769770
 20
99.661472
 30
0.0
 10
81.880556
 20
99.677276
 30
0.0
 10
81.991345
 20
99.693081
 30
0.0
 10
82.102134
 20
99.708885
 30
0.0
 10
82.212921
 20
99.724690
 30
0.0
 10
82.323710
 20
99.740494
 30
0.0
 10
82.434499
 20
99.756299
 30
0.0
 10
82.545285
 20
99.772103
 30
0.0
 10
82.656074
 20
99.787908
 30
0.0
 10
82.766864
 20
99.803712
 30
0.0
 10
82.877650
 20
99.819516
 30
0.0
 10
82.988439
 20
99.835321
 30
0.0
 10
83.099225
 20
99.851125
 30
0.0
 10
83.210014
 20
99.866930
 30
0.0
 10
83.320804
 20
99.882734
 30
0.0
 10
83.431590
 20
99.898539
 30
0.0
 10
83.542379
 20
99.914343
 30
0.0
 10
83.653168
 20
99.930148
 30
0.0
 10
83.763955
 20
99.945952
 30
0.0
 10
83.874744
 20
99.961756
 30
0.0
 10
83.985533
 20
99.977561
 30
0.0
 10
84.096319
 20
99.993365
 30
0.0
 10
84.207108
 20
100.009170
 30
0.0
 10
84.317898
 20
100.024974
 30
0.0
 10
84.428684
 20
100.040779
 30
0.0
 10
84.539473
 20
100.056583
 30
0.0
 10
84.650262
 20
100.072388
 30
0.0
 10
84.761049
 20
100.088192
 30
0.0
 10
84.871838
 20
100.103996
 30
0.0
 10
84.999665
 20
100.118785
 30
0.0
 10
85.127492
 20
100.133573
 30
0.0
 10
85.255318
 20
100.148362
 30
0.0
 10
85.383143
 20
100.163150
 30
0.0
 10
85.510969
 20
100.177939
 30
0.0
 10
85.638796
 20
100.192727
 30
0.0
 10
85.766623
 20
100.207516
 30
0.0
 10
85.894450
 20
100.222304
 30
0.0
 10
86.022277
 20
100.237092
 30
0.0
 10
86.150104
 20
100.251881
 30
0.0
 10
86.277931
 20
100.266669
 30
0.0
 10
86.405755
 20
100.281458
 30
0.0
 10
86.533582
 20
100.296246
 30
0.0
 10
86.661409
 20
100.311035
 30
0.0
 10
86.789236
 20
100.325823
 30
0.0
 10
86.917063
 20
100.340612
 30
0.0
 10
87.044890
 20
100.355400
 30
0.0
 10
87.172716
 20
100.370188
 30
0.0
 10
87.300543
 20
100.384977
 30
0.0
 10
87.428367
 20
100.399765
 30
0.0
 10
87.556194
 20
100.414554
 30
0.0
 10
87.684021
 20
100.429342
 30
0.0
 10
87.811848
 20
100.444131
 30
0.0
 10
87.939675
 20
100.458919
 30
0.0
 10
88.067502
 20
100.473708
 30
0.0
 10
88.195329
 20
100.488496
 30
0.0
 10
88.323156
 20
100.503284
 30
0.0
 10
88.450980
 20
100.518073
 30
0.0
 10
88.578807
 20
100.532861
 30
0.0
 10
88.706634
 20
100.547650
 30
0.0
 10
88.834461
 20
100.562438
 30
0.0
 10
88.962288
 20
100.577227
 30
0.0
 10
89.104440
 20
100.590943
 30
0.0
 10
89.246593
 20
100.604659
 30
0.0
 10
89.388745
 20
100.618375
 30
0.0
 10
89.530898
 20
100.632091
 30
0.0
 10
89.673050
 20
100.645807
 30
0.0
 10
89.815200
 20
100.659523
 30
0.0
 10
89.957352
 20
100.673210
 30
0.0
 10
90.099505
 20
100.686926
 30
0.0
 10
90.241657
 20
100.700614
 30
0.0
 10
90.383810
 20
100.714330
 30
0.0
 10
90.525962
 20
100.728018
 30
0.0
 10
90.668115
 20
100.741734
 30
0.0
 10
90.810267
 20
100.755422
 30
0.0
 10
90.952420
 20
100.769138
 30
0.0
 10
91.094572
 20
100.782826
 30
0.0
 10
91.236722
 20
100.796542
 30
0.0
 10
91.378875
 20
100.810258
 30
0.0
 10
91.521027
 20
100.823974
 30
0.0
 10
91.663180
 20
100.837690
 30
0.0
 10
91.805332
 20
100.851406
 30
0.0
 10
91.947485
 20
100.865122
 30
0.0
 10
92.089637
 20
100.878838
 30
0.0
 10
92.231790
 20
100.892554
 30
0.0
 10
92.373942
 20
100.906270
 30
0.0
 10
92.516095
 20
100.919986
 30
0.0
 10
92.658247
 20
100.933702
 30
0.0
 10
92.800397
 20
100.947418
 30
0.0
 10
92.942549
 20
100.961134
 30
0.0
 10
93.084702
 20
100.974850
 30
0.0
 10
93.226854
 20
100.988566
 30
0.0
 10
93.369007
 20
101.002282
 30
0.0
 10
93.511159
 20
101.015969
 30
0.0
 10
93.664928
 20
101.028528
 30
0.0
 10
93.818697
 20
101.041087
 30
0.0
 10
93.972466
 20
101.053646
 30
0.0
 10
94.126232
 20
101.066205
 30
0.0
 10
94.280001
 20
101.078764
 30
0.0
 10
94.433769
 20
101.091323
 30
0.0
 10
94.587538
 20
101.103882
 30
0.0
 10
94.741307
 20
101.116440
 30
0.0
 10
94.895076
 20
101.128999
 30
0.0
 10
95.048842
 20
101.141558
 30
0.0
 10
95.202610
 20
101.154117
 30
0.0
 10
95.356379
 20
101.166676
 30
0.0
 10
95.510148
 20
101.179235
 30
0.0
 10
95.663917
 20
101.191794
 30
0.0
 10
95.817685
 20
101.204353
 30
0.0
 10
95.971451
 20
101.216912
 30
0.0
 10
96.125220
 20
101.229470
 30
0.0
 10
96.278989
 20
101.242029
 30
0.0
 10
96.432758
 20
101.254588
 30
0.0
 10
96.586527
 20
101.267147
 30
0.0
 10
96.740295
 20
101.279706
 30
0.0
 10
96.894064
 20
101.292265
 30
0.0
 10
97.047830
 20
101.304824
 30
0.0
 10
97.201599
 20
101.317383
 30
0.0
 10
97.355368
 20
101.329942
 30
0.0
 10
97.509136
 20
101.342500
 30
0.0
 10
97.662905
 20
101.355059
 30
0.0
 10
97.816674
 20
101.367618
 30
0.0
 10
97.970440
 20
101.380177
 30
0.0
 10
98.124209
 20
101.392736
 30
0.0
 10
98.277977
 20
101.405295
 30
0.0
 10
98.431746
 20
101.417854
 30
0.0
 10
98.594419
 20
101.429227
 30
0.0
 10
98.757092
 20
101.440601
 30
0.0
 10
98.919765
 20
101.451974
 30
0.0
 10
99.082435
 20
101.463348
 30
0.0
 10
99.245108
 20
101.474722
 30
0.0
 10
99.407781
 20
101.486095
 30
0.0
 10
99.570454
 20
101.497469
 30
0.0
 10
99.733127
 20
101.508842
 30
0.0
 10
99.895799
 20
101.520216
 30
0.0
 10
100.058472
 20
101.531589
 30
0.0
 10
100.221145
 20
101.542963
 30
0.0
 10
100.383815
 20
101.554336
 30
0.0
 10
100.546488
 20
101.565710
 30
0.0
 10
100.709161
 20
101.577084
 30
0.0
 10
100.871834
 20
101.588457
 30
0.0
 10
101.034507
 20
101.599831
 30
0.0
 10
101.197180
 20
101.611204
 30
0.0
 10
101.359853
 20
101.622578
 30
0.0
 10
101.522525
 20
101.633951
 30
0.0
 10
101.685196
 20
101.645325
 30
0.0
 10
101.847868
 20
101.656698
 30
0.0
 10
102.010541
 20
101.668072
 30
0.0
 10
102.173214
 20
101.679446
 30
0.0
 10
102.335887
 20
101.690819
 30
0.0
 10
102.498560
 20
101.702198
 30
0.0
 10
102.661233
 20
101.713578
 30
0.0
 10
102.823906
 20
101.724957
 30
0.0
 10
102.986576
 20
101.736336
 30
0.0
 10
103.149249
 20
101.747715
 30
0.0
 10
103.311922
 20
101.759094
 30
0.0
 10
103.474595
 20
101.770474
 30
0.0
 10
103.637267
 20
101.781853
 30
0.0
 10
103.806132
 20
101.791987
 30
0.0
 10
103.975000
 20
101.802122
 30
0.0
 10
104.143865
 20
101.812257
 30
0.0
 10
104.312730
 20
101.822391
 30
0.0
 10
104.481594
 20
101.832526
 30
0.0
 10
104.650462
 20
101.842660
 30
0.0
 10
104.819327
 20
101.852795
 30
0.0
 10
104.988192
 20
101.862930
 30
0.0
 10
105.157059
 20
101.873064
 30
0.0
 10
105.325924
 20
101.883199
 30
0.0
 10
105.494789
 20
101.893333
 30
0.0
 10
105.663654
 20
101.903468
 30
0.0
 10
105.832522
 20
101.913603
 30
0.0
 10
106.001387
 20
101.923737
 30
0.0
 10
106.170251
 20
101.933872
 30
0.0
 10
106.339116
 20
101.944006
 30
0.0
 10
106.507984
 20
101.954141
 30
0.0
 10
106.676849
 20
101.964276
 30
0.0
 10
106.845714
 20
101.974410
 30
0.0
 10
107.014581
 20
101.984545
 30
0.0
 10
107.183446
 20
101.994679
 30
0.0
 10
107.352311
 20
102.004814
 30
0.0
 10
107.521176
 20
102.014949
 30
0.0
 10
107.690043
 20
102.025083
 30
0.0
 10
107.858908
 20
102.035218
 30
0.0
 10
108.027773
 20
102.045352
 30
0.0
 10
108.196641
 20
102.055487
 30
0.0
 10
108.365506
 20
102.065622
 30
0.0
 10
108.534370
 20
102.075756
 30
0.0
 10
108.703235
 20
102.085891
 30
0.0
 10
108.872103
 20
102.096025
 30
0.0
 10
109.040968
 20
102.106160
 30
0.0
 10
109.213315
 20
102.114993
 30
0.0
 10
109.385666
 20
102.123827
 30
0.0
 10
109.558013
 20
102.132661
 30
0.0
 10
109.730361
 20
102.141494
 30
0.0
 10
109.902711
 20
102.150328
 30
0.0
 10
110.075058
 20
102.159161
 30
0.0
 10
110.247406
 20
102.167995
 30
0.0
 10
110.419753
 20
102.176828
 30
0.0
 10
110.592103
 20
102.185662
 30
0.0
 10
110.764451
 20
102.194495
 30
0.0
 10
110.936798
 20
102.203329
 30
0.0
 10
111.109149
 20
102.212163
 30
0.0
 10
111.281496
 20
102.220996
 30
0.0
 10
111.453844
 20
102.229830
 30
0.0
 10
111.626194
 20
102.238663
 30
0.0
 10
111.798541
 20
102.247497
 30
0.0
 10
111.970889
 20
102.256330
 30
0.0
 10
112.143239
 20
102.265164
 30
0.0
 10
112.315587
 20
102.273997
 30
0.0
 10
112.487934
 20
102.282831
 30
0.0
 10
112.660284
 20
102.291665
 30
0.0
 10
112.832632
 20
102.300498
 30
0.0
 10
113.004979
 20
102.309332
 30
0.0
 10
113.177327
 20
102.318165
 30
0.0
 10
113.349677
 20
102.326999
 30
0.0
 10
113.522025
 20
102.335832
 30
0.0
 10
113.694372
 20
102.344666
 30
0.0
 10
113.866722
 20
102.353499
 30
0.0
 10
114.039070
 20
102.362333
 30
0.0
 10
114.211417
 20
102.371167
 30
0.0
 10
114.383768
 20
102.380000
 30
0.0
 10
114.556115
 20
102.388834
 30
0.0
 10
114.729233
 20
102.396313
 30
0.0
 10
114.902354
 20
102.403791
 30
0.0
 10
115.075472
 20
102.411270
 30
0.0
 10
115.248592
 20
102.418749
 30
0.0
 10
115.421710
 20
102.426228
 30
0.0
 10
115.594831
 20
102.433707
 30
0.0
 10
115.767949
 20
102.441186
 30
0.0
 10
115.941070
 20
102.448665
 30
0.0
 10
116.114188
 20
102.456144
 30
0.0
 10
116.287308
 20
102.463623
 30
0.0
 10
116.460426
 20
102.471101
 30
0.0
 10
116.633547
 20
102.478580
 30
0.0
 10
116.806665
 20
102.486059
 30
0.0
 10
116.979786
 20
102.493538
 30
0.0
 10
117.152904
 20
102.501017
 30
0.0
 10
117.326022
 20
102.508496
 30
0.0
 10
117.499142
 20
102.515975
 30
0.0
 10
117.672260
 20
102.523454
 30
0.0
 10
117.845381
 20
102.530933
 30
0.0
 10
118.018499
 20
102.538411
 30
0.0
 10
118.191620
 20
102.545890
 30
0.0
 10
118.364738
 20
102.553369
 30
0.0
 10
118.537858
 20
102.560848
 30
0.0
 10
118.710976
 20
102.568327
 30
0.0
 10
118.884097
 20
102.575806
 30
0.0
 10
119.057215
 20
102.583285
 30
0.0
 10
119.230336
 20
102.590764
 30
0.0
 10
119.403454
 20
102.598243
 30
0.0
 10
119.576575
 20
102.605721
 30
0.0
 10
119.749692
 20
102.613200
 30
0.0
 10
119.922813
 20
102.620679
 30
0.0
 10
120.095931
 20
102.628158
 30
0.0
 10
120.270957
 20
102.633879
 30
0.0
 10
120.445983
 20
102.639602
 30
0.0
 10
120.621008
 20
102.645323
 30
0.0
 10
120.796034
 20
102.651044
 30
0.0
 10
120.971060
 20
102.656764
 30
0.0
 10
121.146086
 20
102.662485
 30
0.0
 10
121.321111
 20
102.668205
 30
0.0
 10
121.496137
 20
102.673926
 30
0.0
 10
121.671163
 20
102.679647
 30
0.0
 10
121.846189
 20
102.685367
 30
0.0
 10
122.021214
 20
102.691091
 30
0.0
 10
122.196240
 20
102.696812
 30
0.0
 10
122.371266
 20
102.702532
 30
0.0
 10
122.546292
 20
102.708253
 30
0.0
 10
122.721318
 20
102.713973
 30
0.0
 10
122.896343
 20
102.719694
 30
0.0
 10
123.071372
 20
102.725415
 30
0.0
 10
123.246398
 20
102.731135
 30
0.0
 10
123.421423
 20
102.736856
 30
0.0
 10
123.596449
 20
102.742579
 30
0.0
 10
123.771475
 20
102.748300
 30
0.0
 10
123.946501
 20
102.754021
 30
0.0
 10
124.121526
 20
102.759741
 30
0.0
 10
124.296552
 20
102.765462
 30
0.0
 10
124.471578
 20
102.771183
 30
0.0
 10
124.646604
 20
102.776903
 30
0.0
 10
124.821629
 20
102.782624
 30
0.0
 10
124.996655
 20
102.788345
 30
0.0
 10
125.171681
 20
102.794065
 30
0.0
 10
125.346707
 20
102.799789
 30
0.0
 10
125.521732
 20
102.805509
 30
0.0
 10
125.696758
 20
102.811230
 30
0.0
 10
125.872628
 20
102.814992
 30
0.0
 10
126.048497
 20
102.818754
 30
0.0
 10
126.224367
 20
102.822516
 30
0.0
 10
126.400234
 20
102.826278
 30
0.0
 10
126.576103
 20
102.830040
 30
0.0
 10
126.751973
 20
102.833802
 30
0.0
 10
126.927843
 20
102.837564
 30
0.0
 10
127.103712
 20
102.841326
 30
0.0
 10
127.279582
 20
102.845088
 30
0.0
 10
127.455449
 20
102.848850
 30
0.0
 10
127.631318
 20
102.852612
 30
0.0
 10
127.807188
 20
102.856374
 30
0.0
 10
127.983057
 20
102.860136
 30
0.0
 10
128.158927
 20
102.863898
 30
0.0
 10
128.334797
 20
102.867660
 30
0.0
 10
128.510663
 20
102.871422
 30
0.0
 10
128.686533
 20
102.875184
 30
0.0
 10
128.862403
 20
102.878946
 30
0.0
 10
129.038272
 20
102.882708
 30
0.0
 10
129.214142
 20
102.886470
 30
0.0
 10
129.390011
 20
102.890233
 30
0.0
 10
129.565881
 20
102.893995
 30
0.0
 10
129.741748
 20
102.897757
 30
0.0
 10
129.917617
 20
102.901519
 30
0.0
 10
130.093487
 20
102.905281
 30
0.0
 10
130.269356
 20
102.909043
 30
0.0
 10
130.445226
 20
102.912805
 30
0.0
 10
130.621096
 20
102.916567
 30
0.0
 10
130.796962
 20
102.920329
 30
0.0
 10
130.972832
 20
102.924091
 30
0.0
 10
131.148702
 20
102.927853
 30
0.0
 10
131.324571
 20
102.931615
 30
0.0
 10
131.495276
 20
102.933647
 30
0.0
 10
131.665981
 20
102.935679
 30
0.0
 10
131.836686
 20
102.937711
 30
0.0
 10
132.007391
 20
102.939743
 30
0.0
 10
132.178096
 20
102.941775
 30
0.0
 10
132.348801
 20
102.943807
 30
0.0
 10
132.519506
 20
102.945839
 30
0.0
 10
132.690211
 20
102.947871
 30
0.0
 10
132.860916
 20
102.949903
 30
0.0
 10
133.031621
 20
102.951935
 30
0.0
 10
133.202326
 20
102.953967
 30
0.0
 10
133.373030
 20
102.955999
 30
0.0
 10
133.543735
 20
102.958031
 30
0.0
 10
133.714440
 20
102.960063
 30
0.0
 10
133.885145
 20
102.962095
 30
0.0
 10
134.055853
 20
102.964127
 30
0.0
 10
134.226558
 20
102.966159
 30
0.0
 10
134.397263
 20
102.968191
 30
0.0
 10
134.567968
 20
102.970223
 30
0.0
 10
134.738673
 20
102.972255
 30
0.0
 10
134.909378
 20
102.974287
 30
0.0
 10
135.080083
 20
102.976319
 30
0.0
 10
135.250788
 20
102.978351
 30
0.0
 10
135.421492
 20
102.980383
 30
0.0
 10
135.592197
 20
102.982415
 30
0.0
 10
135.762902
 20
102.984447
 30
0.0
 10
135.933607
 20
102.986479
 30
0.0
 10
136.104312
 20
102.988511
 30
0.0
 10
136.275017
 20
102.990543
 30
0.0
 10
136.445722
 20
102.992575
 30
0.0
 10
136.616427
 20
102.994607
 30
0.0
 10
136.787132
 20
102.996639
 30
0.0
 10
136.946667
 20
102.997203
 30
0.0
 10
137.106198
 20
102.997768
 30
0.0
 10
137.265733
 20
102.998332
 30
0.0
 10
137.425265
 20
102.998897
 30
0.0
 10
137.584799
 20
102.999461
 30
0.0
 10
137.744331
 20
103.000025
 30
0.0
 10
137.903866
 20
103.000590
 30
0.0
 10
138.063397
 20
103.001154
 30
0.0
 10
138.222932
 20
103.001719
 30
0.0
 10
138.382464
 20
103.002283
 30
0.0
 10
138.541998
 20
103.002848
 30
0.0
 10
138.701530
 20
103.003412
 30
0.0
 10
138.861065
 20
103.003977
 30
0.0
 10
139.020596
 20
103.004541
 30
0.0
 10
139.180131
 20
103.005105
 30
0.0
 10
139.339663
 20
103.005670
 30
0.0
 10
139.499194
 20
103.006234
 30
0.0
 10
139.658729
 20
103.006799
 30
0.0
 10
139.818264
 20
103.007363
 30
0.0
 10
139.977795
 20
103.007928
 30
0.0
 10
140.137327
 20
103.008492
 30
0.0
 10
140.296862
 20
103.009057
 30
0.0
 10
140.456396
 20
103.009621
 30
0.0
 10
140.615928
 20
103.010185
 30
0.0
 10
140.775460
 20
103.010750
 30
0.0
 10
140.934994
 20
103.011314
 30
0.0
 10
141.094529
 20
103.011879
 30
0.0
 10
141.254061
 20
103.012443
 30
0.0
 10
141.413592
 20
103.013008
 30
0.0
 10
141.573127
 20
103.013572
 30
0.0
 10
141.732662
 20
103.014137
 30
0.0
 10
141.892193
 20
103.014701
 30
0.0
 10
142.037843
 20
103.013713
 30
0.0
 10
142.183495
 20
103.012725
 30
0.0
 10
142.329144
 20
103.011738
 30
0.0
 10
142.474793
 20
103.010750
 30
0.0
 10
142.620445
 20
103.009762
 30
0.0
 10
142.766094
 20
103.008774
 30
0.0
 10
142.911744
 20
103.007787
 30
0.0
 10
143.057396
 20
103.006799
 30
0.0
 10
143.203045
 20
103.005811
 30
0.0
 10
143.348694
 20
103.004823
 30
0.0
 10
143.494343
 20
103.003835
 30
0.0
 10
143.639996
 20
103.002848
 30
0.0
 10
143.785645
 20
103.001860
 30
0.0
 10
143.931294
 20
103.000872
 30
0.0
 10
144.076946
 20
102.999884
 30
0.0
 10
144.222595
 20
102.998897
 30
0.0
 10
144.368245
 20
102.997909
 30
0.0
 10
144.513897
 20
102.996921
 30
0.0
 10
144.659546
 20
102.995933
 30
0.0
 10
144.805195
 20
102.994945
 30
0.0
 10
144.950847
 20
102.993958
 30
0.0
 10
145.096496
 20
102.992970
 30
0.0
 10
145.242146
 20
102.991982
 30
0.0
 10
145.387795
 20
102.990994
 30
0.0
 10
145.533447
 20
102.990007
 30
0.0
 10
145.679096
 20
102.989019
 30
0.0
 10
145.824745
 20
102.988031
 30
0.0
 10
145.970398
 20
102.987043
 30
0.0
 10
146.116047
 20
102.986055
 30
0.0
 10
146.261696
 20
102.985068
 30
0.0
 10
146.407348
 20
102.984080
 30
0.0
 10
146.552997
 20
102.983092
 30
0.0
 10
146.677658
 20
102.980919
 30
0.0
 10
146.802318
 20
102.978746
 30
0.0
 10
146.926978
 20
102.976573
 30
0.0
 10
147.051639
 20
102.974400
 30
0.0
 10
147.176299
 20
102.972227
 30
0.0
 10
147.300960
 20
102.970053
 30
0.0
 10
147.425620
 20
102.967880
 30
0.0
 10
147.550280
 20
102.965707
 30
0.0
 10
147.674944
 20
102.963534
 30
0.0
 10
147.799604
 20
102.961361
 30
0.0
 10
147.924264
 20
102.959188
 30
0.0
 10
148.048925
 20
102.957015
 30
0.0
 10
148.173585
 20
102.954842
 30
0.0
 10
148.298245
 20
102.952669
 30
0.0
 10
148.422906
 20
102.950495
 30
0.0
 10
148.547566
 20
102.948322
 30
0.0
 10
148.672227
 20
102.946149
 30
0.0
 10
148.796887
 20
102.943976
 30
0.0
 10
148.921547
 20
102.941803
 30
0.0
 10
149.046208
 20
102.939630
 30
0.0
 10
149.170868
 20
102.937457
 30
0.0
 10
149.295528
 20
102.935284
 30
0.0
 10
149.420189
 20
102.933111
 30
0.0
 10
149.544849
 20
102.930937
 30
0.0
 10
149.669512
 20
102.928764
 30
0.0
 10
149.794173
 20
102.926591
 30
0.0
 10
149.918833
 20
102.924418
 30
0.0
 10
150.043494
 20
102.922245
 30
0.0
 10
150.168154
 20
102.920072
 30
0.0
 10
150.292814
 20
102.917899
 30
0.0
 10
150.417475
 20
102.915726
 30
0.0
 10
150.542135
 20
102.913553
 30
0.0
 10
150.635404
 20
102.910815
 30
0.0
 10
150.728670
 20
102.908077
 30
0.0
 10
150.821939
 20
102.905340
 30
0.0
 10
150.915207
 20
102.902602
 30
0.0
 10
151.008473
 20
102.899865
 30
0.0
 10
151.101742
 20
102.897127
 30
0.0
 10
151.195011
 20
102.894390
 30
0.0
 10
151.288277
 20
102.891652
 30
0.0
 10
151.381546
 20
102.888915
 30
0.0
 10
151.474815
 20
102.886177
 30
0.0
 10
151.568081
 20
102.883439
 30
0.0
 10
151.661349
 20
102.880702
 30
0.0
 10
151.754618
 20
102.877964
 30
0.0
 10
151.847884
 20
102.875227
 30
0.0
 10
151.941153
 20
102.872489
 30
0.0
 10
152.034422
 20
102.869752
 30
0.0
 10
152.127688
 20
102.867014
 30
0.0
 10
152.220957
 20
102.864277
 30
0.0
 10
152.314223
 20
102.861539
 30
0.0
 10
152.407491
 20
102.858801
 30
0.0
 10
152.500760
 20
102.856064
 30
0.0
 10
152.594026
 20
102.853326
 30
0.0
 10
152.687295
 20
102.850589
 30
0.0
 10
152.780564
 20
102.847851
 30
0.0
 10
152.873830
 20
102.845114
 30
0.0
 10
152.967098
 20
102.842376
 30
0.0
 10
153.060367
 20
102.839639
 30
0.0
 10
153.153633
 20
102.836901
 30
0.0
 10
153.246902
 20
102.834163
 30
0.0
 10
153.340171
 20
102.831426
 30
0.0
 10
153.433437
 20
102.828688
 30
0.0
 10
153.526706
 20
102.825951
 30
0.0
 10
153.569386
 20
102.824060
 30
0.0
 10
153.612067
 20
102.822169
 30
0.0
 10
153.654747
 20
102.820278
 30
0.0
 10
153.697427
 20
102.818387
 30
0.0
 10
153.740108
 20
102.816496
 30
0.0
 10
153.782788
 20
102.814605
 30
0.0
 10
153.825469
 20
102.812715
 30
0.0
 10
153.868149
 20
102.810824
 30
0.0
 10
153.910830
 20
102.808933
 30
0.0
 10
153.953510
 20
102.807042
 30
0.0
 10
153.996191
 20
102.805151
 30
0.0
 10
154.038871
 20
102.803260
 30
0.0
 10
154.081552
 20
102.801369
 30
0.0
 10
154.124232
 20
102.799478
 30
0.0
 10
154.166913
 20
102.797587
 30
0.0
 10
154.209596
 20
102.795697
 30
0.0
 10
154.252276
 20
102.793806
 30
0.0
 10
154.294957
 20
102.791915
 30
0.0
 10
154.337637
 20
102.790024
 30
0.0
 10
154.380318
 20
102.788133
 30
0.0
 10
154.422998
 20
102.786242
 30
0.0
 10
154.465679
 20
102.784351
 30
0.0
 10
154.508359
 20
102.782460
 30
0.0
 10
154.551040
 20
102.780569
 30
0.0
 10
154.593720
 20
102.778679
 30
0.0
 10
154.636401
 20
102.776788
 30
0.0
 10
154.679081
 20
102.774897
 30
0.0
 10
154.721762
 20
102.773006
 30
0.0
 10
154.764442
 20
102.771115
 30
0.0
 10
154.807122
 20
102.769224
 30
0.0
 10
154.849803
 20
102.767333
 30
0.0
 10
154.892509
 20
102.781464
 30
0.0
  0
ENDSEC
  0
SECTION
  2
OBJECTS
  0
DICTIONARY
  5
C
330
0
100
AcDbDictionary
  3
ACAD_GROUP
350
D
  3
ACAD_MLINESTYLE
350
17
  0
DICTIONARY
  5
D
330
C
100
AcDbDictionary
  0
DICTIONARY
  5
1A
330
C
100
AcDbDictionary
  0
DICTIONARY
  5
17
330
C
100
AcDbDictionary
  3
STANDARD
350
18
  0
DICTIONARY
  5
19
330
C
100
AcDbDictionary
  0
ENDSEC
  0
EOF
