<?xml version="1.0" encoding="UTF-8" standalone="no"?>
<!-- Created with Inkscape (http://www.inkscape.org/) -->

<svg
   xmlns:dc="http://purl.org/dc/elements/1.1/"
   xmlns:cc="http://creativecommons.org/ns#"
   xmlns:rdf="http://www.w3.org/1999/02/22-rdf-syntax-ns#"
   xmlns:svg="http://www.w3.org/2000/svg"
   xmlns="http://www.w3.org/2000/svg"
   xmlns:sodipodi="http://sodipodi.sourceforge.net/DTD/sodipodi-0.dtd"
   xmlns:inkscape="http://www.inkscape.org/namespaces/inkscape"
   width="1470"
   height="380"
   id="svg2"
   sodipodi:version="0.32"
   inkscape:version="0.48.3.1 r9886"
   sodipodi:docname="NACA_4415_circles_lighter.dxf"
   version="1.0"
   inkscape:output_extension="org.inkscape.output.svg.inkscape">
  <defs
     id="defs4">
    <inkscape:perspective
       sodipodi:type="inkscape:persp3d"
       inkscape:vp_x="0 : 600 : 1"
       inkscape:vp_y="0 : 1000 : 0"
       inkscape:vp_z="1600 : 600 : 1"
       inkscape:persp3d-origin="800 : 400 : 1"
       id="perspective166" />
    <inkscape:perspective
       id="perspective2389"
       inkscape:persp3d-origin="372.04724 : 350.78739 : 1"
       inkscape:vp_z="744.09448 : 526.18109 : 1"
       inkscape:vp_y="0 : 1000 : 0"
       inkscape:vp_x="0 : 526.18109 : 1"
       sodipodi:type="inkscape:persp3d" />
    <inkscape:perspective
       id="perspective2402"
       inkscape:persp3d-origin="372.04724 : 350.78739 : 1"
       inkscape:vp_z="744.09448 : 526.18109 : 1"
       inkscape:vp_y="0 : 1000 : 0"
       inkscape:vp_x="0 : 526.18109 : 1"
       sodipodi:type="inkscape:persp3d" />
    <symbol
       id="*PAPER_SPACE" />
    <symbol
       id="*MODEL_SPACE" />
    <pattern
       id="Hatch"
       x="0"
       y="0"
       patternUnits="userSpaceOnUse"
       width="8"
       height="8">
      <path
         id="path3760"
         d="M8 4 l-4,4"
         stroke-width="0.25"
         stroke="#000000"
         linecap="square" />
      <path
         id="path3762"
         d="M6 2 l-4,4"
         stroke-width="0.25"
         stroke="#000000"
         linecap="square" />
      <path
         id="path3764"
         d="M4 0 l-4,4"
         stroke-width="0.25"
         stroke="#000000"
         linecap="square" />
    </pattern>
    <marker
       orient="auto"
       id="DistanceX"
       style="overflow:visible"
       refX="0.0"
       refY="0.0">
      <path
         id="path3757"
         d="M 3,-3 L -3,3 M 0,-5 L  0,5"
         style="stroke:#000000; stroke-width:0.5" />
    </marker>
  </defs>
  <sodipodi:namedview
     id="base"
     pagecolor="#ffffff"
     bordercolor="#666666"
     borderopacity="1.0"
     inkscape:pageopacity="0.0"
     inkscape:pageshadow="2"
     inkscape:zoom="0.5"
     inkscape:cx="404.17731"
     inkscape:cy="236.70891"
     inkscape:document-units="px"
     inkscape:current-layer="g4615"
     inkscape:window-width="1280"
     inkscape:window-height="978"
     inkscape:window-x="-4"
     inkscape:window-y="-4"
     width="1600px"
     height="1200px"
     borderlayer="true"
     showguides="true"
     inkscape:guide-bbox="true"
     showgrid="false"
     inkscape:window-maximized="1" />
  <metadata
     id="metadata7">
    <rdf:RDF>
      <cc:Work
         rdf:about="">
        <dc:format>image/svg+xml</dc:format>
        <dc:type
           rdf:resource="http://purl.org/dc/dcmitype/StillImage" />
        <dc:title></dc:title>
      </cc:Work>
    </rdf:RDF>
  </metadata>
  <g
     inkscape:groupmode="layer"
     id="layer3"
     inkscape:label="PNG"
     style="display:inline"
     transform="translate(82.808464,-80.360062)" />
  <g
     inkscape:groupmode="layer"
     id="layer2"
     inkscape:label="Milimeterpapier"
     style="display:inline"
     transform="translate(82.808464,-80.360062)" />
  <g
     inkscape:groupmode="layer"
     id="layer4"
     inkscape:label="profile"
     transform="translate(82.808464,-80.360062)">
    <g
       id="g3790"
       transform="translate(-82.465509,-591.52605)">
      <g
         id="g3768"
         inkscape:label="0" />
      <g
         id="g3770"
         inkscape:label="PNG" />
      <g
         id="g3772"
         inkscape:label="Milimeterpapier" />
      <g
         id="g3774"
         inkscape:label="profile">
        <path
           id="path3776"
           d="m 527.9446,677.26574 8.06518,0.73912 15.85257,1.47548 19.43211,1.84257 21.01888,2.03866 21.44352,2.13813 21.81356,2.24009 21.29836,2.27021 19.89793,2.22847 18.85824,2.22645 18.73303,2.31362 18.55325,2.40335 18.31889,2.49556 18.02993,2.59029 17.68639,2.68751 17.28826,2.78725 16.83553,2.8895 22.28779,4.03329 25.6558,4.84236 28.83505,5.69031 31.82559,6.57712 34.62738,7.50285 37.24046,8.46747 39.6648,9.47097 41.9004,10.51335 43.9472,11.59465 45.8054,12.71479 47.4747,13.87385 48.9554,15.0718 50.2473,16.30863 51.3505,17.58435 52.265,18.89896 52.9906,20.25245 -38.2685,-0.11594 -35.9758,-0.0518 -33.8738,0.002 -31.9625,0.0451 -30.2417,0.0776 -28.7119,0.10006 -27.3725,0.11185 -26.224,0.11315 -26.587,0.0876 -27.7067,0.0445 -27.8849,0.005 -27.1217,-0.0309 -26.5493,-0.0773 -24.658,-0.11558 -20.3156,-0.13167 -10.5033,-0.0882 -7.945,-0.0822 -17.7539,-0.17134 -24.10198,-0.21779 -28.49878,-0.24017 -31.51037,-0.24549 -33.89143,-0.24308 -35.07598,-0.22594 -35.06399,-0.19408 -34.70455,-0.15799 -34.37506,-0.12231 -33.41512,-0.0789 -31.82466,-0.0278 -29.60379,0.0311 -26.7524,0.0977 -23.27057,0.17194 -19.15825,0.25398 -42.6444,0.69615 -38.09117,0.50008 -34.10803,0.30565 -30.6949,0.11281 -27.85185,-0.0784 -25.57883,-0.26808 -23.8759,-0.45615 -22.74287,-0.64254 -22.18007,-0.8274 -22.18723,-1.01064 -22.7645,-1.1923 -23.91175,-1.37231 -25.62905,-1.55075 -27.91637,-1.72757 -30.77384,-1.90281 -34.20131,-2.07645 -7.73389,-0.69186 -8.8288,-1.21282 -9.70496,-1.71794 -10.362161,-2.20718 -10.800712,-2.6806 -11.020319,-3.13816 -11.021265,-3.5799 -10.803367,-4.00577 -10.366519,-4.41577 -9.711113,-4.80998 -8.83676,-5.18831 -7.743554,-5.55079 -6.431701,-5.89743 -4.900893,-6.22823 -3.151336,-6.54316 -1.183022,-6.84228 1.294884,-12.85089 4.206444,-12.1638 6.88713,-11.48641 9.336958,-10.81878 11.555911,-10.16089 13.544192,-9.51268 15.301318,-8.87431 16.827867,-8.24556 18.123442,-7.6266 19.188166,-7.01739 20.02201,-6.41789 20.62508,-5.82812 20.9973,-5.24809 21.13853,-4.67782 21.04911,-4.11724 20.72872,-3.56643 13.95757,-1.99097 16.10413,-1.86214 17.90895,-1.72638 19.37239,-1.58354 20.49418,-1.43371 21.27441,-1.27687 21.71318,-1.11301 21.81031,-0.94215 22.05048,-0.72088 22.15675,-0.47402 21.50614,-0.25732 20.09867,-0.0708 18.34963,0.12274 15.70527,0.27374 11.75027,0.34499 5.37708,0.23754"
           style="fill:none;stroke:#000000"
           inkscape:connector-curvature="0" />
      </g>
    </g>
    <g
       transform="matrix(0.9,0,0,0.9,-8.7839226,-512.8893)"
       id="g4602">
      <g
         inkscape:label="0"
         id="g4604" />
      <g
         inkscape:label="PNG"
         id="g4606" />
      <g
         inkscape:label="Milimeterpapier"
         id="g4608" />
      <g
         inkscape:label="profile"
         id="g4610">
        <g
           id="g4615">
          <path
             sodipodi:type="arc"
             style="opacity:0.8;fill:#264d99;fill-opacity:1;stroke:none"
             id="path4717"
             sodipodi:cx="427.79959"
             sodipodi:cy="225.14362"
             sodipodi:rx="119.50105"
             sodipodi:ry="119.50105"
             d="m 547.30064,225.14362 a 119.50105,119.50105 0 1 1 -239.0021,0 119.50105,119.50105 0 1 1 239.0021,0 z"
             transform="matrix(0.78895465,0,0,0.78895465,-118.0651,613.06062)" />
          <path
             sodipodi:type="arc"
             style="opacity:0.8;fill:#264d99;fill-opacity:1;stroke:none"
             id="path4717-5"
             sodipodi:cx="427.79959"
             sodipodi:cy="225.14362"
             sodipodi:rx="119.50105"
             sodipodi:ry="119.50105"
             d="m 547.30064,225.14362 a 119.50105,119.50105 0 1 1 -239.0021,0 119.50105,119.50105 0 1 1 239.0021,0 z"
             transform="matrix(0.90729784,0,0,0.90729784,59.153274,580.13101)" />
          <path
             sodipodi:type="arc"
             style="opacity:0.8;fill:#264d99;fill-opacity:1;stroke:none"
             id="path4717-0"
             sodipodi:cx="427.79959"
             sodipodi:cy="225.14362"
             sodipodi:rx="119.50105"
             sodipodi:ry="119.50105"
             d="m 547.30064,225.14362 a 119.50105,119.50105 0 1 1 -239.0021,0 119.50105,119.50105 0 1 1 239.0021,0 z"
             transform="matrix(0.7758054,0,0,0.7758054,332.79097,618.24331)" />
          <path
             sodipodi:type="arc"
             style="opacity:0.8;fill:#264d99;fill-opacity:1;stroke:none"
             id="path4717-7"
             sodipodi:cx="427.79959"
             sodipodi:cy="225.14362"
             sodipodi:rx="119.50105"
             sodipodi:ry="119.50105"
             d="m 547.30064,225.14362 a 119.50105,119.50105 0 1 1 -239.0021,0 119.50105,119.50105 0 1 1 239.0021,0 z"
             transform="matrix(0.69690995,0,0,0.69690995,558.24693,651.06873)" />
          <path
             sodipodi:type="arc"
             style="opacity:0.8;fill:#264d99;fill-opacity:1;stroke:none"
             id="path4717-03"
             sodipodi:cx="427.79959"
             sodipodi:cy="225.14362"
             sodipodi:rx="119.50105"
             sodipodi:ry="119.50105"
             d="m 547.30064,225.14362 a 119.50105,119.50105 0 1 1 -239.0021,0 119.50105,119.50105 0 1 1 239.0021,0 z"
             transform="matrix(0.55226827,0,0,0.55226827,780.78339,701.83918)" />
          <path
             sodipodi:type="arc"
             style="opacity:0.8;fill:#264d99;fill-opacity:1;stroke:none"
             id="path4717-03-2"
             sodipodi:cx="427.79959"
             sodipodi:cy="225.14362"
             sodipodi:rx="119.50105"
             sodipodi:ry="119.50105"
             d="m 547.30064,225.14362 a 119.50105,119.50105 0 1 1 -239.0021,0 119.50105,119.50105 0 1 1 239.0021,0 z"
             transform="matrix(0.4109139,0,0,0.4109139,976.25588,750.94905)" />
        </g>
      </g>
    </g>
  </g>
</svg>
