  0
SECTION
  2
HEADER
  9
$ACADVER
  1
AC1014
  9
$HANDSEED
  5
FFFF
  9
$MEASUREMENT
 70
     1
  0
ENDSEC
  0
SECTION
  2
TABLES
  0
TABLE
  2
VPORT
  5
8
330
0
100
AcDbSymbolTable
 70
     4
  0
VPORT
  5
2E
330
8
100
AcDbSymbolTableRecord
100
AcDbViewportTableRecord
  2
*ACTIVE
 70
     0
 10
0.0
 20
0.0
 11
1.0
 21
1.0
 12
210.0
 22
148.5
 13
0.0
 23
0.0
 14
10.0
 24
10.0
 15
10.0
 25
10.0
 16
0.0
 26
0.0
 36
1.0
 17
0.0
 27
0.0
 37
0.0
 40
341.0
 41
1.24
 42
50.0
 43
0.0
 44
0.0
 50
0.0
 51
0.0
 71
     0
 72
   100
 73
     1
 74
     3
 75
     0
 76
     0
 77
     0
 78
     0
  0
ENDTAB
  0
TABLE
  2
LTYPE
  5
5
330
0
100
AcDbSymbolTable
 70
     1
  0
LTYPE
  5
14
330
5
100
AcDbSymbolTableRecord
100
AcDbLinetypeTableRecord
  2
BYBLOCK
 70
     0
  3

 72
    65
 73
     0
 40
0.0
  0
LTYPE
  5
15
330
5
100
AcDbSymbolTableRecord
100
AcDbLinetypeTableRecord
  2
BYLAYER
 70
     0
  3

 72
    65
 73
     0
 40
0.0
  0
LTYPE
  5
16
330
5
100
AcDbSymbolTableRecord
100
AcDbLinetypeTableRecord
  2
CONTINUOUS
 70
     0
  3
Solid line
 72
    65
 73
     0
 40
0.0
  0
ENDTAB
  0
TABLE
  2
LAYER
  5
2
100
AcDbSymbolTable
 70
2
  0
LAYER
  5
50
100
AcDbSymbolTableRecord
100
AcDbLayerTableRecord
  2
0
 70
0
  6
CONTINUOUS
  0
LAYER
  5
51
100
AcDbSymbolTableRecord
100
AcDbLayerTableRecord
  2
Layer_1
 70
0
  6
CONTINUOUS
  0
ENDTAB
  0
TABLE
  2
STYLE
  5
3
330
0
100
AcDbSymbolTable
 70
     1
  0
STYLE
  5
11
330
3
100
AcDbSymbolTableRecord
100
AcDbTextStyleTableRecord
  2
STANDARD
 70
     0
 40
0.0
 41
1.0
 50
0.0
 71
     0
 42
2.5
  3
txt
  4

  0
ENDTAB
  0
TABLE
  2
VIEW
  5
6
330
0
100
AcDbSymbolTable
 70
     0
  0
ENDTAB
  0
TABLE
  2
UCS
  5
7
330
0
100
AcDbSymbolTable
 70
     0
  0
ENDTAB
  0
TABLE
  2
APPID
  5
9
330
0
100
AcDbSymbolTable
 70
     2
  0
APPID
  5
12
330
9
100
AcDbSymbolTableRecord
100
AcDbRegAppTableRecord
  2
ACAD
 70
     0
  0
ENDTAB
  0
TABLE
  2
DIMSTYLE
  5
A
330
0
100
AcDbSymbolTable
 70
     1
  0
DIMSTYLE
105
27
330
A
100
AcDbSymbolTableRecord
100
AcDbDimStyleTableRecord
  2
ISO-25
 70
     0
  3

  4

  5

  6

  7

 40
1.0
 41
2.5
 42
0.625
 43
3.75
 44
1.25
 45
0.0
 46
0.0
 47
0.0
 48
0.0
140
2.5
141
2.5
142
0.0
143
0.03937007874016
144
1.0
145
0.0
146
1.0
147
0.625
 71
     0
 72
     0
 73
     0
 74
     0
 75
     0
 76
     0
 77
     1
 78
     8
170
     0
171
     3
172
     1
173
     0
174
     0
175
     0
176
     0
177
     0
178
     0
270
     2
271
     2
272
     2
273
     2
274
     3
340
11
275
     0
280
     0
281
     0
282
     0
283
     0
284
     8
285
     0
286
     0
287
     3
288
     0
  0
ENDTAB
  0
TABLE
  2
BLOCK_RECORD
  5
1
330
0
100
AcDbSymbolTable
 70
     1
  0
BLOCK_RECORD
  5
1F
330
1
100
AcDbSymbolTableRecord
100
AcDbBlockTableRecord
  2
*MODEL_SPACE
  0
BLOCK_RECORD
  5
1B
330
1
100
AcDbSymbolTableRecord
100
AcDbBlockTableRecord
  2
*PAPER_SPACE
  0
ENDTAB
  0
ENDSEC
  0
SECTION
  2
BLOCKS
  0
BLOCK
  5
20
330
1F
100
AcDbEntity
  8
0
100
AcDbBlockBegin
  2
*MODEL_SPACE
 70
     0
 10
0.0
 20
0.0
 30
0.0
  3
*MODEL_SPACE
  1

  0
ENDBLK
  5
21
330
1F
100
AcDbEntity
  8
0
100
AcDbBlockEnd
  0
BLOCK
  5
1C
330
1B
100
AcDbEntity
 67
     1
  8
0
100
AcDbBlockBegin
  2
*PAPER_SPACE
  1

  0
ENDBLK
  5
1D
330
1B
100
AcDbEntity
 67
     1
  8
0
100
AcDbBlockEnd
  0
ENDSEC
  0
SECTION
  2
ENTITIES
  0
LWPOLYLINE
  5
100
100
AcDbEntity
  8
Layer_1
 62
7
100
AcDbPolyline
 90
3457
 70
0
 10
172.674224
 20
179.305703
 30
0.0
 10
172.738240
 20
179.299833
 30
0.0
 10
172.802259
 20
179.293962
 30
0.0
 10
172.866276
 20
179.288092
 30
0.0
 10
172.930292
 20
179.282222
 30
0.0
 10
172.994312
 20
179.276352
 30
0.0
 10
173.058328
 20
179.270482
 30
0.0
 10
173.122344
 20
179.264611
 30
0.0
 10
173.186361
 20
179.258741
 30
0.0
 10
173.250380
 20
179.252871
 30
0.0
 10
173.314397
 20
179.247001
 30
0.0
 10
173.378413
 20
179.241130
 30
0.0
 10
173.442432
 20
179.235260
 30
0.0
 10
173.506449
 20
179.229390
 30
0.0
 10
173.570465
 20
179.223520
 30
0.0
 10
173.634485
 20
179.217650
 30
0.0
 10
173.698501
 20
179.211779
 30
0.0
 10
173.762518
 20
179.205909
 30
0.0
 10
173.826537
 20
179.200039
 30
0.0
 10
173.890553
 20
179.194169
 30
0.0
 10
173.954570
 20
179.188298
 30
0.0
 10
174.018589
 20
179.182428
 30
0.0
 10
174.082606
 20
179.176558
 30
0.0
 10
174.146622
 20
179.170688
 30
0.0
 10
174.210639
 20
179.164818
 30
0.0
 10
174.274658
 20
179.158947
 30
0.0
 10
174.338674
 20
179.153077
 30
0.0
 10
174.402691
 20
179.147207
 30
0.0
 10
174.466710
 20
179.141337
 30
0.0
 10
174.530726
 20
179.135466
 30
0.0
 10
174.594743
 20
179.129596
 30
0.0
 10
174.658762
 20
179.123726
 30
0.0
 10
174.722779
 20
179.117856
 30
0.0
 10
174.848607
 20
179.106144
 30
0.0
 10
174.974439
 20
179.094431
 30
0.0
 10
175.100268
 20
179.082719
 30
0.0
 10
175.226097
 20
179.071007
 30
0.0
 10
175.351928
 20
179.059295
 30
0.0
 10
175.477757
 20
179.047582
 30
0.0
 10
175.603589
 20
179.035870
 30
0.0
 10
175.729417
 20
179.024158
 30
0.0
 10
175.855246
 20
179.012446
 30
0.0
 10
175.981078
 20
179.000734
 30
0.0
 10
176.106907
 20
178.989021
 30
0.0
 10
176.232735
 20
178.977309
 30
0.0
 10
176.358567
 20
178.965597
 30
0.0
 10
176.484396
 20
178.953885
 30
0.0
 10
176.610227
 20
178.942172
 30
0.0
 10
176.736056
 20
178.930460
 30
0.0
 10
176.861885
 20
178.918748
 30
0.0
 10
176.987716
 20
178.907036
 30
0.0
 10
177.113545
 20
178.895324
 30
0.0
 10
177.239374
 20
178.883611
 30
0.0
 10
177.365206
 20
178.871899
 30
0.0
 10
177.491034
 20
178.860187
 30
0.0
 10
177.616866
 20
178.848475
 30
0.0
 10
177.742695
 20
178.836762
 30
0.0
 10
177.868524
 20
178.825050
 30
0.0
 10
177.994355
 20
178.813338
 30
0.0
 10
178.120184
 20
178.801626
 30
0.0
 10
178.246016
 20
178.789914
 30
0.0
 10
178.371844
 20
178.778201
 30
0.0
 10
178.497673
 20
178.766489
 30
0.0
 10
178.623505
 20
178.754777
 30
0.0
 10
178.749333
 20
178.743065
 30
0.0
 10
178.903576
 20
178.728446
 30
0.0
 10
179.057819
 20
178.713826
 30
0.0
 10
179.212059
 20
178.699207
 30
0.0
 10
179.366302
 20
178.684588
 30
0.0
 10
179.520545
 20
178.669969
 30
0.0
 10
179.674788
 20
178.655350
 30
0.0
 10
179.829031
 20
178.640731
 30
0.0
 10
179.983271
 20
178.626112
 30
0.0
 10
180.137514
 20
178.611493
 30
0.0
 10
180.291757
 20
178.596874
 30
0.0
 10
180.446000
 20
178.582254
 30
0.0
 10
180.600243
 20
178.567635
 30
0.0
 10
180.754486
 20
178.553016
 30
0.0
 10
180.908726
 20
178.538397
 30
0.0
 10
181.062969
 20
178.523778
 30
0.0
 10
181.217212
 20
178.509159
 30
0.0
 10
181.371454
 20
178.494540
 30
0.0
 10
181.525697
 20
178.479921
 30
0.0
 10
181.679937
 20
178.465302
 30
0.0
 10
181.834180
 20
178.450682
 30
0.0
 10
181.988423
 20
178.436063
 30
0.0
 10
182.142666
 20
178.421444
 30
0.0
 10
182.296909
 20
178.406825
 30
0.0
 10
182.451149
 20
178.392206
 30
0.0
 10
182.605392
 20
178.377587
 30
0.0
 10
182.759635
 20
178.362968
 30
0.0
 10
182.913878
 20
178.348349
 30
0.0
 10
183.068121
 20
178.333730
 30
0.0
 10
183.222364
 20
178.319110
 30
0.0
 10
183.376604
 20
178.304491
 30
0.0
 10
183.530847
 20
178.289872
 30
0.0
 10
183.685090
 20
178.275253
 30
0.0
 10
183.851928
 20
178.259082
 30
0.0
 10
184.018764
 20
178.242910
 30
0.0
 10
184.185602
 20
178.226739
 30
0.0
 10
184.352438
 20
178.210568
 30
0.0
 10
184.519276
 20
178.194396
 30
0.0
 10
184.686115
 20
178.178225
 30
0.0
 10
184.852951
 20
178.162054
 30
0.0
 10
185.019789
 20
178.145882
 30
0.0
 10
185.186625
 20
178.129711
 30
0.0
 10
185.353463
 20
178.113540
 30
0.0
 10
185.520302
 20
178.097368
 30
0.0
 10
185.687137
 20
178.081197
 30
0.0
 10
185.853976
 20
178.065026
 30
0.0
 10
186.020812
 20
178.048854
 30
0.0
 10
186.187650
 20
178.032683
 30
0.0
 10
186.354486
 20
178.016512
 30
0.0
 10
186.521324
 20
178.000340
 30
0.0
 10
186.688163
 20
177.984169
 30
0.0
 10
186.854998
 20
177.967998
 30
0.0
 10
187.021837
 20
177.951826
 30
0.0
 10
187.188673
 20
177.935655
 30
0.0
 10
187.355511
 20
177.919484
 30
0.0
 10
187.522350
 20
177.903312
 30
0.0
 10
187.689185
 20
177.887141
 30
0.0
 10
187.856024
 20
177.870970
 30
0.0
 10
188.022859
 20
177.854798
 30
0.0
 10
188.189698
 20
177.838627
 30
0.0
 10
188.356536
 20
177.822456
 30
0.0
 10
188.523372
 20
177.806284
 30
0.0
 10
188.690210
 20
177.790113
 30
0.0
 10
188.857046
 20
177.773942
 30
0.0
 10
189.023885
 20
177.757770
 30
0.0
 10
189.194093
 20
177.740809
 30
0.0
 10
189.364301
 20
177.723847
 30
0.0
 10
189.534509
 20
177.706886
 30
0.0
 10
189.704718
 20
177.689924
 30
0.0
 10
189.874926
 20
177.672963
 30
0.0
 10
190.045131
 20
177.656001
 30
0.0
 10
190.215339
 20
177.639040
 30
0.0
 10
190.385548
 20
177.622078
 30
0.0
 10
190.555756
 20
177.605116
 30
0.0
 10
190.725964
 20
177.588155
 30
0.0
 10
190.896172
 20
177.571193
 30
0.0
 10
191.066380
 20
177.554232
 30
0.0
 10
191.236589
 20
177.537270
 30
0.0
 10
191.406797
 20
177.520309
 30
0.0
 10
191.577005
 20
177.503347
 30
0.0
 10
191.747211
 20
177.486386
 30
0.0
 10
191.917419
 20
177.469424
 30
0.0
 10
192.087627
 20
177.452462
 30
0.0
 10
192.257835
 20
177.435501
 30
0.0
 10
192.428043
 20
177.418539
 30
0.0
 10
192.598252
 20
177.401578
 30
0.0
 10
192.768460
 20
177.384616
 30
0.0
 10
192.938668
 20
177.367655
 30
0.0
 10
193.108876
 20
177.350693
 30
0.0
 10
193.279085
 20
177.333732
 30
0.0
 10
193.449293
 20
177.316770
 30
0.0
 10
193.619498
 20
177.299808
 30
0.0
 10
193.789706
 20
177.282847
 30
0.0
 10
193.959915
 20
177.265885
 30
0.0
 10
194.130123
 20
177.248924
 30
0.0
 10
194.300331
 20
177.231962
 30
0.0
 10
194.470539
 20
177.215001
 30
0.0
 10
194.643685
 20
177.197221
 30
0.0
 10
194.816829
 20
177.179441
 30
0.0
 10
194.989975
 20
177.161661
 30
0.0
 10
195.163118
 20
177.143881
 30
0.0
 10
195.336264
 20
177.126101
 30
0.0
 10
195.509411
 20
177.108321
 30
0.0
 10
195.682554
 20
177.090541
 30
0.0
 10
195.855700
 20
177.072761
 30
0.0
 10
196.028846
 20
177.054981
 30
0.0
 10
196.201990
 20
177.037201
 30
0.0
 10
196.375136
 20
177.019421
 30
0.0
 10
196.548279
 20
177.001641
 30
0.0
 10
196.721425
 20
176.983861
 30
0.0
 10
196.894571
 20
176.966081
 30
0.0
 10
197.067715
 20
176.948301
 30
0.0
 10
197.240861
 20
176.930521
 30
0.0
 10
197.414007
 20
176.912741
 30
0.0
 10
197.587150
 20
176.894961
 30
0.0
 10
197.760296
 20
176.877181
 30
0.0
 10
197.933440
 20
176.859401
 30
0.0
 10
198.106586
 20
176.841621
 30
0.0
 10
198.279732
 20
176.823841
 30
0.0
 10
198.452875
 20
176.806061
 30
0.0
 10
198.626022
 20
176.788281
 30
0.0
 10
198.799168
 20
176.770501
 30
0.0
 10
198.972311
 20
176.752721
 30
0.0
 10
199.145457
 20
176.734941
 30
0.0
 10
199.318601
 20
176.717161
 30
0.0
 10
199.491747
 20
176.699381
 30
0.0
 10
199.664893
 20
176.681601
 30
0.0
 10
199.838036
 20
176.663821
 30
0.0
 10
200.011182
 20
176.646041
 30
0.0
 10
200.180239
 20
176.628007
 30
0.0
 10
200.349293
 20
176.609973
 30
0.0
 10
200.518350
 20
176.591939
 30
0.0
 10
200.687407
 20
176.573905
 30
0.0
 10
200.856461
 20
176.555871
 30
0.0
 10
201.025517
 20
176.537837
 30
0.0
 10
201.194574
 20
176.519831
 30
0.0
 10
201.363628
 20
176.501797
 30
0.0
 10
201.532685
 20
176.483763
 30
0.0
 10
201.701741
 20
176.465729
 30
0.0
 10
201.870795
 20
176.447695
 30
0.0
 10
202.039852
 20
176.429661
 30
0.0
 10
202.208909
 20
176.411627
 30
0.0
 10
202.377963
 20
176.393593
 30
0.0
 10
202.547020
 20
176.375559
 30
0.0
 10
202.716074
 20
176.357525
 30
0.0
 10
202.885130
 20
176.339491
 30
0.0
 10
203.054187
 20
176.321457
 30
0.0
 10
203.223241
 20
176.303423
 30
0.0
 10
203.392298
 20
176.285389
 30
0.0
 10
203.561355
 20
176.267355
 30
0.0
 10
203.730408
 20
176.249321
 30
0.0
 10
203.899465
 20
176.231287
 30
0.0
 10
204.068522
 20
176.213253
 30
0.0
 10
204.237576
 20
176.195219
 30
0.0
 10
204.406633
 20
176.177185
 30
0.0
 10
204.575689
 20
176.159151
 30
0.0
 10
204.744743
 20
176.141117
 30
0.0
 10
204.913800
 20
176.123083
 30
0.0
 10
205.082857
 20
176.105049
 30
0.0
 10
205.251911
 20
176.087015
 30
0.0
 10
205.420968
 20
176.068981
 30
0.0
 10
205.578908
 20
176.051286
 30
0.0
 10
205.736848
 20
176.033590
 30
0.0
 10
205.894788
 20
176.015895
 30
0.0
 10
206.052728
 20
175.998200
 30
0.0
 10
206.210668
 20
175.980504
 30
0.0
 10
206.368605
 20
175.962809
 30
0.0
 10
206.526545
 20
175.945114
 30
0.0
 10
206.684485
 20
175.927418
 30
0.0
 10
206.842425
 20
175.909723
 30
0.0
 10
207.000365
 20
175.892028
 30
0.0
 10
207.158305
 20
175.874332
 30
0.0
 10
207.316245
 20
175.856637
 30
0.0
 10
207.474185
 20
175.838942
 30
0.0
 10
207.632125
 20
175.821246
 30
0.0
 10
207.790065
 20
175.803551
 30
0.0
 10
207.948002
 20
175.785856
 30
0.0
 10
208.105942
 20
175.768160
 30
0.0
 10
208.263882
 20
175.750465
 30
0.0
 10
208.421822
 20
175.732770
 30
0.0
 10
208.579762
 20
175.715074
 30
0.0
 10
208.737702
 20
175.697379
 30
0.0
 10
208.895642
 20
175.679684
 30
0.0
 10
209.053582
 20
175.661988
 30
0.0
 10
209.211522
 20
175.644293
 30
0.0
 10
209.369462
 20
175.626598
 30
0.0
 10
209.527402
 20
175.608902
 30
0.0
 10
209.685340
 20
175.591207
 30
0.0
 10
209.843280
 20
175.573512
 30
0.0
 10
210.001220
 20
175.555816
 30
0.0
 10
210.159160
 20
175.538121
 30
0.0
 10
210.317100
 20
175.520426
 30
0.0
 10
210.475040
 20
175.502730
 30
0.0
 10
210.624728
 20
175.485063
 30
0.0
 10
210.774415
 20
175.467396
 30
0.0
 10
210.924100
 20
175.449729
 30
0.0
 10
211.073788
 20
175.432062
 30
0.0
 10
211.223476
 20
175.414395
 30
0.0
 10
211.373164
 20
175.396728
 30
0.0
 10
211.522849
 20
175.379060
 30
0.0
 10
211.672537
 20
175.361393
 30
0.0
 10
211.822225
 20
175.343726
 30
0.0
 10
211.971913
 20
175.326059
 30
0.0
 10
212.121600
 20
175.308392
 30
0.0
 10
212.271285
 20
175.290725
 30
0.0
 10
212.420973
 20
175.273058
 30
0.0
 10
212.570661
 20
175.255391
 30
0.0
 10
212.720349
 20
175.237724
 30
0.0
 10
212.870037
 20
175.220056
 30
0.0
 10
213.019722
 20
175.202389
 30
0.0
 10
213.169410
 20
175.184722
 30
0.0
 10
213.319098
 20
175.167055
 30
0.0
 10
213.468785
 20
175.149388
 30
0.0
 10
213.618470
 20
175.131721
 30
0.0
 10
213.768158
 20
175.114054
 30
0.0
 10
213.917846
 20
175.096387
 30
0.0
 10
214.067534
 20
175.078720
 30
0.0
 10
214.217222
 20
175.061052
 30
0.0
 10
214.366907
 20
175.043385
 30
0.0
 10
214.516595
 20
175.025718
 30
0.0
 10
214.666282
 20
175.008051
 30
0.0
 10
214.815970
 20
174.990384
 30
0.0
 10
214.965655
 20
174.972717
 30
0.0
 10
215.115343
 20
174.955050
 30
0.0
 10
215.265031
 20
174.937383
 30
0.0
 10
215.413725
 20
174.919010
 30
0.0
 10
215.562417
 20
174.900637
 30
0.0
 10
215.711111
 20
174.882265
 30
0.0
 10
215.859806
 20
174.863892
 30
0.0
 10
216.008498
 20
174.845519
 30
0.0
 10
216.157192
 20
174.827147
 30
0.0
 10
216.305886
 20
174.808774
 30
0.0
 10
216.454578
 20
174.790401
 30
0.0
 10
216.603272
 20
174.772029
 30
0.0
 10
216.751967
 20
174.753656
 30
0.0
 10
216.900661
 20
174.735283
 30
0.0
 10
217.049353
 20
174.716911
 30
0.0
 10
217.198047
 20
174.698538
 30
0.0
 10
217.346742
 20
174.680165
 30
0.0
 10
217.495433
 20
174.661793
 30
0.0
 10
217.644128
 20
174.643420
 30
0.0
 10
217.792822
 20
174.625047
 30
0.0
 10
217.941514
 20
174.606675
 30
0.0
 10
218.090208
 20
174.588302
 30
0.0
 10
218.238903
 20
174.569929
 30
0.0
 10
218.387594
 20
174.551557
 30
0.0
 10
218.536289
 20
174.533184
 30
0.0
 10
218.684983
 20
174.514811
 30
0.0
 10
218.833675
 20
174.496439
 30
0.0
 10
218.982369
 20
174.478066
 30
0.0
 10
219.131063
 20
174.459693
 30
0.0
 10
219.279758
 20
174.441321
 30
0.0
 10
219.428449
 20
174.422948
 30
0.0
 10
219.577144
 20
174.404575
 30
0.0
 10
219.725838
 20
174.386203
 30
0.0
 10
219.874530
 20
174.367830
 30
0.0
 10
220.023224
 20
174.349457
 30
0.0
 10
220.113462
 20
174.337773
 30
0.0
 10
220.203700
 20
174.326089
 30
0.0
 10
220.293938
 20
174.314405
 30
0.0
 10
220.384172
 20
174.302721
 30
0.0
 10
220.474410
 20
174.291037
 30
0.0
 10
220.564648
 20
174.279353
 30
0.0
 10
220.654886
 20
174.267669
 30
0.0
 10
220.745123
 20
174.255985
 30
0.0
 10
220.835361
 20
174.244301
 30
0.0
 10
220.925599
 20
174.232617
 30
0.0
 10
221.015837
 20
174.220933
 30
0.0
 10
221.106071
 20
174.209249
 30
0.0
 10
221.196309
 20
174.197565
 30
0.0
 10
221.286547
 20
174.185881
 30
0.0
 10
221.376785
 20
174.174197
 30
0.0
 10
221.467022
 20
174.162513
 30
0.0
 10
221.557260
 20
174.150829
 30
0.0
 10
221.647498
 20
174.139145
 30
0.0
 10
221.737736
 20
174.127461
 30
0.0
 10
221.827971
 20
174.115777
 30
0.0
 10
221.918208
 20
174.104093
 30
0.0
 10
222.008446
 20
174.092409
 30
0.0
 10
222.098684
 20
174.080725
 30
0.0
 10
222.188921
 20
174.069041
 30
0.0
 10
222.279159
 20
174.057357
 30
0.0
 10
222.369397
 20
174.045673
 30
0.0
 10
222.459635
 20
174.033989
 30
0.0
 10
222.549870
 20
174.022305
 30
0.0
 10
222.640107
 20
174.010621
 30
0.0
 10
222.730345
 20
173.998937
 30
0.0
 10
222.820583
 20
173.987253
 30
0.0
 10
222.910821
 20
173.975569
 30
0.0
 10
222.967849
 20
173.968175
 30
0.0
 10
223.024878
 20
173.960781
 30
0.0
 10
223.081906
 20
173.953387
 30
0.0
 10
223.138935
 20
173.945992
 30
0.0
 10
223.195967
 20
173.938598
 30
0.0
 10
223.252995
 20
173.931204
 30
0.0
 10
223.310024
 20
173.923810
 30
0.0
 10
223.367052
 20
173.916416
 30
0.0
 10
223.424081
 20
173.909021
 30
0.0
 10
223.481110
 20
173.901627
 30
0.0
 10
223.538138
 20
173.894233
 30
0.0
 10
223.595167
 20
173.886839
 30
0.0
 10
223.652199
 20
173.879444
 30
0.0
 10
223.709227
 20
173.872050
 30
0.0
 10
223.766256
 20
173.864656
 30
0.0
 10
223.823284
 20
173.857262
 30
0.0
 10
223.880313
 20
173.849868
 30
0.0
 10
223.937342
 20
173.842473
 30
0.0
 10
223.994370
 20
173.835079
 30
0.0
 10
224.051399
 20
173.827685
 30
0.0
 10
224.108431
 20
173.820291
 30
0.0
 10
224.165459
 20
173.812896
 30
0.0
 10
224.222488
 20
173.805502
 30
0.0
 10
224.279516
 20
173.798108
 30
0.0
 10
224.336545
 20
173.790714
 30
0.0
 10
224.393574
 20
173.783320
 30
0.0
 10
224.450602
 20
173.775925
 30
0.0
 10
224.507631
 20
173.768531
 30
0.0
 10
224.564662
 20
173.761137
 30
0.0
 10
224.621691
 20
173.753743
 30
0.0
 10
224.678720
 20
173.746348
 30
0.0
 10
224.735748
 20
173.738954
 30
0.0
 10
224.881155
 20
173.719142
 30
0.0
 10
225.026561
 20
173.699330
 30
0.0
 10
225.171968
 20
173.679518
 30
0.0
 10
225.317372
 20
173.659706
 30
0.0
 10
225.462778
 20
173.639894
 30
0.0
 10
225.608185
 20
173.620082
 30
0.0
 10
225.753591
 20
173.600270
 30
0.0
 10
225.898998
 20
173.580458
 30
0.0
 10
226.044404
 20
173.560646
 30
0.0
 10
226.189811
 20
173.540834
 30
0.0
 10
226.335217
 20
173.521022
 30
0.0
 10
226.480621
 20
173.501210
 30
0.0
 10
226.626028
 20
173.481398
 30
0.0
 10
226.771434
 20
173.461586
 30
0.0
 10
226.916841
 20
173.441774
 30
0.0
 10
227.062247
 20
173.421962
 30
0.0
 10
227.207654
 20
173.402150
 30
0.0
 10
227.353060
 20
173.382338
 30
0.0
 10
227.498467
 20
173.362526
 30
0.0
 10
227.643871
 20
173.342714
 30
0.0
 10
227.789277
 20
173.322902
 30
0.0
 10
227.934684
 20
173.303090
 30
0.0
 10
228.080090
 20
173.283278
 30
0.0
 10
228.225497
 20
173.263466
 30
0.0
 10
228.370903
 20
173.243654
 30
0.0
 10
228.516310
 20
173.223842
 30
0.0
 10
228.661716
 20
173.204030
 30
0.0
 10
228.807120
 20
173.184218
 30
0.0
 10
228.952527
 20
173.164406
 30
0.0
 10
229.097933
 20
173.144594
 30
0.0
 10
229.243340
 20
173.124782
 30
0.0
 10
229.388746
 20
173.104970
 30
0.0
 10
229.531858
 20
173.084424
 30
0.0
 10
229.674970
 20
173.063850
 30
0.0
 10
229.818085
 20
173.043276
 30
0.0
 10
229.961197
 20
173.022702
 30
0.0
 10
230.104309
 20
173.002128
 30
0.0
 10
230.247421
 20
172.981583
 30
0.0
 10
230.390533
 20
172.961009
 30
0.0
 10
230.533646
 20
172.940435
 30
0.0
 10
230.676760
 20
172.919861
 30
0.0
 10
230.819873
 20
172.899287
 30
0.0
 10
230.962985
 20
172.878741
 30
0.0
 10
231.106097
 20
172.858167
 30
0.0
 10
231.249209
 20
172.837593
 30
0.0
 10
231.392324
 20
172.817019
 30
0.0
 10
231.535436
 20
172.796445
 30
0.0
 10
231.678548
 20
172.775899
 30
0.0
 10
231.821660
 20
172.755325
 30
0.0
 10
231.964772
 20
172.734751
 30
0.0
 10
232.107887
 20
172.714177
 30
0.0
 10
232.250999
 20
172.693603
 30
0.0
 10
232.394111
 20
172.673057
 30
0.0
 10
232.537223
 20
172.652483
 30
0.0
 10
232.680335
 20
172.631909
 30
0.0
 10
232.823447
 20
172.611364
 30
0.0
 10
232.966562
 20
172.590790
 30
0.0
 10
233.109674
 20
172.570216
 30
0.0
 10
233.252786
 20
172.549642
 30
0.0
 10
233.395898
 20
172.529068
 30
0.0
 10
233.539010
 20
172.508522
 30
0.0
 10
233.682125
 20
172.487948
 30
0.0
 10
233.825237
 20
172.467374
 30
0.0
 10
233.968349
 20
172.446800
 30
0.0
 10
234.108735
 20
172.425464
 30
0.0
 10
234.249121
 20
172.404128
 30
0.0
 10
234.389507
 20
172.382792
 30
0.0
 10
234.529892
 20
172.361456
 30
0.0
 10
234.670278
 20
172.340120
 30
0.0
 10
234.810664
 20
172.318784
 30
0.0
 10
234.951050
 20
172.297448
 30
0.0
 10
235.091436
 20
172.276112
 30
0.0
 10
235.231821
 20
172.254776
 30
0.0
 10
235.372207
 20
172.233440
 30
0.0
 10
235.512593
 20
172.212104
 30
0.0
 10
235.652979
 20
172.190768
 30
0.0
 10
235.793365
 20
172.169432
 30
0.0
 10
235.933750
 20
172.148096
 30
0.0
 10
236.074136
 20
172.126760
 30
0.0
 10
236.214519
 20
172.105424
 30
0.0
 10
236.354905
 20
172.084088
 30
0.0
 10
236.495291
 20
172.062752
 30
0.0
 10
236.635677
 20
172.041416
 30
0.0
 10
236.776062
 20
172.020080
 30
0.0
 10
236.916448
 20
171.998744
 30
0.0
 10
237.056834
 20
171.977408
 30
0.0
 10
237.197220
 20
171.956072
 30
0.0
 10
237.337606
 20
171.934736
 30
0.0
 10
237.477991
 20
171.913400
 30
0.0
 10
237.618377
 20
171.892064
 30
0.0
 10
237.758763
 20
171.870728
 30
0.0
 10
237.899149
 20
171.849392
 30
0.0
 10
238.039535
 20
171.828056
 30
0.0
 10
238.179920
 20
171.806720
 30
0.0
 10
238.320306
 20
171.785384
 30
0.0
 10
238.460692
 20
171.764048
 30
0.0
 10
238.597917
 20
171.741922
 30
0.0
 10
238.735142
 20
171.719795
 30
0.0
 10
238.872370
 20
171.697669
 30
0.0
 10
239.009595
 20
171.675543
 30
0.0
 10
239.146819
 20
171.653417
 30
0.0
 10
239.284044
 20
171.631290
 30
0.0
 10
239.421272
 20
171.609164
 30
0.0
 10
239.558497
 20
171.587038
 30
0.0
 10
239.695722
 20
171.564912
 30
0.0
 10
239.832947
 20
171.542786
 30
0.0
 10
239.970172
 20
171.520659
 30
0.0
 10
240.107399
 20
171.498533
 30
0.0
 10
240.244624
 20
171.476407
 30
0.0
 10
240.381849
 20
171.454281
 30
0.0
 10
240.519074
 20
171.432154
 30
0.0
 10
240.656299
 20
171.410028
 30
0.0
 10
240.793527
 20
171.387902
 30
0.0
 10
240.930752
 20
171.365776
 30
0.0
 10
241.067977
 20
171.343650
 30
0.0
 10
241.205202
 20
171.321523
 30
0.0
 10
241.342429
 20
171.299397
 30
0.0
 10
241.479654
 20
171.277271
 30
0.0
 10
241.616879
 20
171.255145
 30
0.0
 10
241.754104
 20
171.233018
 30
0.0
 10
241.891329
 20
171.210892
 30
0.0
 10
242.028557
 20
171.188766
 30
0.0
 10
242.165782
 20
171.166640
 30
0.0
 10
242.303006
 20
171.144514
 30
0.0
 10
242.440231
 20
171.122387
 30
0.0
 10
242.577459
 20
171.100261
 30
0.0
 10
242.714684
 20
171.078135
 30
0.0
 10
242.851909
 20
171.056009
 30
0.0
 10
242.985541
 20
171.033064
 30
0.0
 10
243.119173
 20
171.010119
 30
0.0
 10
243.252806
 20
170.987175
 30
0.0
 10
243.386438
 20
170.964230
 30
0.0
 10
243.520070
 20
170.941285
 30
0.0
 10
243.653702
 20
170.918341
 30
0.0
 10
243.787335
 20
170.895396
 30
0.0
 10
243.920964
 20
170.872451
 30
0.0
 10
244.054596
 20
170.849507
 30
0.0
 10
244.188228
 20
170.826562
 30
0.0
 10
244.321861
 20
170.803617
 30
0.0
 10
244.455493
 20
170.780673
 30
0.0
 10
244.589125
 20
170.757728
 30
0.0
 10
244.722757
 20
170.734783
 30
0.0
 10
244.856389
 20
170.711839
 30
0.0
 10
244.990022
 20
170.688894
 30
0.0
 10
245.123654
 20
170.665949
 30
0.0
 10
245.257286
 20
170.643005
 30
0.0
 10
245.390918
 20
170.620060
 30
0.0
 10
245.524551
 20
170.597115
 30
0.0
 10
245.658183
 20
170.574171
 30
0.0
 10
245.791815
 20
170.551226
 30
0.0
 10
245.925447
 20
170.528281
 30
0.0
 10
246.059077
 20
170.505337
 30
0.0
 10
246.192709
 20
170.482392
 30
0.0
 10
246.326341
 20
170.459447
 30
0.0
 10
246.459973
 20
170.436503
 30
0.0
 10
246.593606
 20
170.413558
 30
0.0
 10
246.727238
 20
170.390613
 30
0.0
 10
246.860870
 20
170.367669
 30
0.0
 10
246.994502
 20
170.344724
 30
0.0
 10
247.128134
 20
170.321779
 30
0.0
 10
247.305043
 20
170.289764
 30
0.0
 10
247.481954
 20
170.257752
 30
0.0
 10
247.658862
 20
170.225736
 30
0.0
 10
247.835770
 20
170.193724
 30
0.0
 10
248.012681
 20
170.161709
 30
0.0
 10
248.189589
 20
170.129693
 30
0.0
 10
248.366500
 20
170.097681
 30
0.0
 10
248.543408
 20
170.065665
 30
0.0
 10
248.720316
 20
170.033650
 30
0.0
 10
248.897227
 20
170.001638
 30
0.0
 10
249.074136
 20
169.969622
 30
0.0
 10
249.251044
 20
169.937607
 30
0.0
 10
249.427955
 20
169.905595
 30
0.0
 10
249.604863
 20
169.873579
 30
0.0
 10
249.781774
 20
169.841567
 30
0.0
 10
249.958682
 20
169.809552
 30
0.0
 10
250.135590
 20
169.777536
 30
0.0
 10
250.312501
 20
169.745524
 30
0.0
 10
250.489410
 20
169.713509
 30
0.0
 10
250.666318
 20
169.681496
 30
0.0
 10
250.843229
 20
169.649481
 30
0.0
 10
251.020137
 20
169.617466
 30
0.0
 10
251.197048
 20
169.585453
 30
0.0
 10
251.373956
 20
169.553438
 30
0.0
 10
251.550864
 20
169.521423
 30
0.0
 10
251.727775
 20
169.489410
 30
0.0
 10
251.904683
 20
169.457395
 30
0.0
 10
252.081592
 20
169.425382
 30
0.0
 10
252.258503
 20
169.393367
 30
0.0
 10
252.435411
 20
169.361352
 30
0.0
 10
252.612322
 20
169.329339
 30
0.0
 10
252.789230
 20
169.297324
 30
0.0
 10
252.992873
 20
169.258888
 30
0.0
 10
253.196516
 20
169.220452
 30
0.0
 10
253.400159
 20
169.182016
 30
0.0
 10
253.603802
 20
169.143578
 30
0.0
 10
253.807445
 20
169.105142
 30
0.0
 10
254.011089
 20
169.066706
 30
0.0
 10
254.214732
 20
169.028270
 30
0.0
 10
254.418372
 20
168.989834
 30
0.0
 10
254.622015
 20
168.951399
 30
0.0
 10
254.825658
 20
168.912960
 30
0.0
 10
255.029301
 20
168.874524
 30
0.0
 10
255.232944
 20
168.836088
 30
0.0
 10
255.436587
 20
168.797652
 30
0.0
 10
255.640230
 20
168.759216
 30
0.0
 10
255.843873
 20
168.720781
 30
0.0
 10
256.047517
 20
168.682345
 30
0.0
 10
256.251160
 20
168.643906
 30
0.0
 10
256.454803
 20
168.605470
 30
0.0
 10
256.658446
 20
168.567034
 30
0.0
 10
256.862089
 20
168.528599
 30
0.0
 10
257.065732
 20
168.490163
 30
0.0
 10
257.269375
 20
168.451727
 30
0.0
 10
257.473018
 20
168.413288
 30
0.0
 10
257.676658
 20
168.374852
 30
0.0
 10
257.880302
 20
168.336417
 30
0.0
 10
258.083945
 20
168.297981
 30
0.0
 10
258.287588
 20
168.259545
 30
0.0
 10
258.491231
 20
168.221109
 30
0.0
 10
258.694874
 20
168.182670
 30
0.0
 10
258.898517
 20
168.144235
 30
0.0
 10
259.102160
 20
168.105799
 30
0.0
 10
259.305803
 20
168.067363
 30
0.0
 10
259.534683
 20
168.022196
 30
0.0
 10
259.763559
 20
167.977029
 30
0.0
 10
259.992439
 20
167.931862
 30
0.0
 10
260.221315
 20
167.886695
 30
0.0
 10
260.450195
 20
167.841529
 30
0.0
 10
260.679074
 20
167.796362
 30
0.0
 10
260.907951
 20
167.751195
 30
0.0
 10
261.136830
 20
167.706028
 30
0.0
 10
261.365706
 20
167.660861
 30
0.0
 10
261.594586
 20
167.615694
 30
0.0
 10
261.823465
 20
167.570528
 30
0.0
 10
262.052342
 20
167.525361
 30
0.0
 10
262.281221
 20
167.480194
 30
0.0
 10
262.510098
 20
167.435027
 30
0.0
 10
262.738977
 20
167.389860
 30
0.0
 10
262.967854
 20
167.344693
 30
0.0
 10
263.196733
 20
167.299526
 30
0.0
 10
263.425613
 20
167.254360
 30
0.0
 10
263.654489
 20
167.209193
 30
0.0
 10
263.883369
 20
167.164026
 30
0.0
 10
264.112245
 20
167.118859
 30
0.0
 10
264.341125
 20
167.073692
 30
0.0
 10
264.570004
 20
167.028525
 30
0.0
 10
264.798881
 20
166.983359
 30
0.0
 10
265.027760
 20
166.938192
 30
0.0
 10
265.256637
 20
166.893025
 30
0.0
 10
265.485516
 20
166.847858
 30
0.0
 10
265.714395
 20
166.802691
 30
0.0
 10
265.943272
 20
166.757524
 30
0.0
 10
266.172151
 20
166.712357
 30
0.0
 10
266.401028
 20
166.667191
 30
0.0
 10
266.629907
 20
166.622024
 30
0.0
 10
266.882522
 20
166.569818
 30
0.0
 10
267.135139
 20
166.517613
 30
0.0
 10
267.387753
 20
166.465407
 30
0.0
 10
267.640370
 20
166.413199
 30
0.0
 10
267.892984
 20
166.360994
 30
0.0
 10
268.145601
 20
166.308788
 30
0.0
 10
268.398216
 20
166.256583
 30
0.0
 10
268.650833
 20
166.204377
 30
0.0
 10
268.903447
 20
166.152172
 30
0.0
 10
269.156064
 20
166.099966
 30
0.0
 10
269.408679
 20
166.047761
 30
0.0
 10
269.661296
 20
165.995553
 30
0.0
 10
269.913910
 20
165.943347
 30
0.0
 10
270.166527
 20
165.891142
 30
0.0
 10
270.419141
 20
165.838936
 30
0.0
 10
270.671758
 20
165.786731
 30
0.0
 10
270.924373
 20
165.734525
 30
0.0
 10
271.176990
 20
165.682320
 30
0.0
 10
271.429604
 20
165.630114
 30
0.0
 10
271.682221
 20
165.577906
 30
0.0
 10
271.934836
 20
165.525701
 30
0.0
 10
272.187453
 20
165.473495
 30
0.0
 10
272.440067
 20
165.421290
 30
0.0
 10
272.692684
 20
165.369084
 30
0.0
 10
272.945298
 20
165.316879
 30
0.0
 10
273.197915
 20
165.264673
 30
0.0
 10
273.450530
 20
165.212468
 30
0.0
 10
273.703147
 20
165.160259
 30
0.0
 10
273.955761
 20
165.108054
 30
0.0
 10
274.208378
 20
165.055849
 30
0.0
 10
274.460993
 20
165.003643
 30
0.0
 10
274.713610
 20
164.951438
 30
0.0
 10
274.988463
 20
164.891883
 30
0.0
 10
275.263319
 20
164.832329
 30
0.0
 10
275.538173
 20
164.772777
 30
0.0
 10
275.813029
 20
164.713222
 30
0.0
 10
276.087882
 20
164.653668
 30
0.0
 10
276.362739
 20
164.594113
 30
0.0
 10
276.637592
 20
164.534561
 30
0.0
 10
276.912445
 20
164.475007
 30
0.0
 10
277.187302
 20
164.415452
 30
0.0
 10
277.462155
 20
164.355898
 30
0.0
 10
277.737011
 20
164.296343
 30
0.0
 10
278.011865
 20
164.236792
 30
0.0
 10
278.286721
 20
164.177237
 30
0.0
 10
278.561574
 20
164.117683
 30
0.0
 10
278.836430
 20
164.058128
 30
0.0
 10
279.111284
 20
163.998576
 30
0.0
 10
279.386137
 20
163.939022
 30
0.0
 10
279.660993
 20
163.879467
 30
0.0
 10
279.935847
 20
163.819913
 30
0.0
 10
280.210703
 20
163.760358
 30
0.0
 10
280.485556
 20
163.700806
 30
0.0
 10
280.760413
 20
163.641252
 30
0.0
 10
281.035266
 20
163.581697
 30
0.0
 10
281.310120
 20
163.522143
 30
0.0
 10
281.584976
 20
163.462588
 30
0.0
 10
281.859829
 20
163.403037
 30
0.0
 10
282.134685
 20
163.343482
 30
0.0
 10
282.409533
 20
163.283928
 30
0.0
 10
282.684389
 20
163.224373
 30
0.0
 10
282.959246
 20
163.164821
 30
0.0
 10
283.234102
 20
163.105267
 30
0.0
 10
283.508958
 20
163.045712
 30
0.0
 10
283.804558
 20
162.978501
 30
0.0
 10
284.100157
 20
162.911293
 30
0.0
 10
284.395757
 20
162.844081
 30
0.0
 10
284.691328
 20
162.776870
 30
0.0
 10
284.986928
 20
162.709659
 30
0.0
 10
285.282527
 20
162.642451
 30
0.0
 10
285.578127
 20
162.575239
 30
0.0
 10
285.873726
 20
162.508028
 30
0.0
 10
286.169326
 20
162.440817
 30
0.0
 10
286.464925
 20
162.373609
 30
0.0
 10
286.760525
 20
162.306397
 30
0.0
 10
287.056096
 20
162.239186
 30
0.0
 10
287.351696
 20
162.171975
 30
0.0
 10
287.647295
 20
162.104766
 30
0.0
 10
287.942895
 20
162.037555
 30
0.0
 10
288.238494
 20
161.970344
 30
0.0
 10
288.534094
 20
161.903133
 30
0.0
 10
288.829694
 20
161.835922
 30
0.0
 10
289.125293
 20
161.768713
 30
0.0
 10
289.420864
 20
161.701502
 30
0.0
 10
289.716464
 20
161.634291
 30
0.0
 10
290.012064
 20
161.567079
 30
0.0
 10
290.307663
 20
161.499871
 30
0.0
 10
290.603263
 20
161.432660
 30
0.0
 10
290.898862
 20
161.365449
 30
0.0
 10
291.194462
 20
161.298237
 30
0.0
 10
291.490061
 20
161.231029
 30
0.0
 10
291.785633
 20
161.163818
 30
0.0
 10
292.081232
 20
161.096607
 30
0.0
 10
292.376832
 20
161.029395
 30
0.0
 10
292.672431
 20
160.962187
 30
0.0
 10
292.968031
 20
160.894976
 30
0.0
 10
293.282878
 20
160.819800
 30
0.0
 10
293.597697
 20
160.744625
 30
0.0
 10
293.912544
 20
160.669449
 30
0.0
 10
294.227391
 20
160.594271
 30
0.0
 10
294.542238
 20
160.519095
 30
0.0
 10
294.857057
 20
160.443920
 30
0.0
 10
295.171904
 20
160.368744
 30
0.0
 10
295.486751
 20
160.293569
 30
0.0
 10
295.801570
 20
160.218393
 30
0.0
 10
296.116417
 20
160.143218
 30
0.0
 10
296.431264
 20
160.068042
 30
0.0
 10
296.746112
 20
159.992864
 30
0.0
 10
297.060930
 20
159.917688
 30
0.0
 10
297.375778
 20
159.842513
 30
0.0
 10
297.690625
 20
159.767337
 30
0.0
 10
298.005444
 20
159.692162
 30
0.0
 10
298.320291
 20
159.616986
 30
0.0
 10
298.635138
 20
159.541810
 30
0.0
 10
298.949985
 20
159.466635
 30
0.0
 10
299.264804
 20
159.391457
 30
0.0
 10
299.579651
 20
159.316281
 30
0.0
 10
299.894498
 20
159.241106
 30
0.0
 10
300.209345
 20
159.165930
 30
0.0
 10
300.524164
 20
159.090754
 30
0.0
 10
300.839011
 20
159.015579
 30
0.0
 10
301.153858
 20
158.940403
 30
0.0
 10
301.468677
 20
158.865228
 30
0.0
 10
301.783524
 20
158.790050
 30
0.0
 10
302.098371
 20
158.714874
 30
0.0
 10
302.413218
 20
158.639698
 30
0.0
 10
302.728037
 20
158.564523
 30
0.0
 10
303.042884
 20
158.489347
 30
0.0
 10
303.375455
 20
158.405897
 30
0.0
 10
303.708054
 20
158.322447
 30
0.0
 10
304.040653
 20
158.238999
 30
0.0
 10
304.373224
 20
158.155549
 30
0.0
 10
304.705794
 20
158.072099
 30
0.0
 10
305.038393
 20
157.988648
 30
0.0
 10
305.370992
 20
157.905201
 30
0.0
 10
305.703563
 20
157.821751
 30
0.0
 10
306.036133
 20
157.738300
 30
0.0
 10
306.368732
 20
157.654850
 30
0.0
 10
306.701331
 20
157.571400
 30
0.0
 10
307.033902
 20
157.487952
 30
0.0
 10
307.366472
 20
157.404502
 30
0.0
 10
307.699071
 20
157.321052
 30
0.0
 10
308.031670
 20
157.237602
 30
0.0
 10
308.364241
 20
157.154154
 30
0.0
 10
308.696812
 20
157.070704
 30
0.0
 10
309.029410
 20
156.987253
 30
0.0
 10
309.362009
 20
156.903803
 30
0.0
 10
309.694580
 20
156.820353
 30
0.0
 10
310.027151
 20
156.736905
 30
0.0
 10
310.359750
 20
156.653455
 30
0.0
 10
310.692348
 20
156.570005
 30
0.0
 10
311.024919
 20
156.486555
 30
0.0
 10
311.357490
 20
156.403104
 30
0.0
 10
311.690089
 20
156.319657
 30
0.0
 10
312.022688
 20
156.236207
 30
0.0
 10
312.355258
 20
156.152756
 30
0.0
 10
312.687829
 20
156.069306
 30
0.0
 10
313.020428
 20
155.985858
 30
0.0
 10
313.353027
 20
155.902408
 30
0.0
 10
313.685597
 20
155.818958
 30
0.0
 10
314.034424
 20
155.726925
 30
0.0
 10
314.383251
 20
155.634893
 30
0.0
 10
314.732077
 20
155.542860
 30
0.0
 10
315.080904
 20
155.450827
 30
0.0
 10
315.429759
 20
155.358795
 30
0.0
 10
315.778586
 20
155.266762
 30
0.0
 10
316.127412
 20
155.174729
 30
0.0
 10
316.476239
 20
155.082697
 30
0.0
 10
316.825066
 20
154.990664
 30
0.0
 10
317.173892
 20
154.898631
 30
0.0
 10
317.522719
 20
154.806599
 30
0.0
 10
317.871574
 20
154.714566
 30
0.0
 10
318.220400
 20
154.622533
 30
0.0
 10
318.569227
 20
154.530501
 30
0.0
 10
318.918054
 20
154.438468
 30
0.0
 10
319.266880
 20
154.346435
 30
0.0
 10
319.615707
 20
154.254405
 30
0.0
 10
319.964534
 20
154.162373
 30
0.0
 10
320.313360
 20
154.070340
 30
0.0
 10
320.662187
 20
153.978307
 30
0.0
 10
321.011042
 20
153.886275
 30
0.0
 10
321.359869
 20
153.794242
 30
0.0
 10
321.708695
 20
153.702209
 30
0.0
 10
322.057522
 20
153.610177
 30
0.0
 10
322.406349
 20
153.518144
 30
0.0
 10
322.755175
 20
153.426111
 30
0.0
 10
323.104002
 20
153.334079
 30
0.0
 10
323.452829
 20
153.242046
 30
0.0
 10
323.801684
 20
153.150013
 30
0.0
 10
324.150510
 20
153.057981
 30
0.0
 10
324.499337
 20
152.965948
 30
0.0
 10
324.848164
 20
152.873915
 30
0.0
 10
325.211750
 20
152.772993
 30
0.0
 10
325.575337
 20
152.672067
 30
0.0
 10
325.938896
 20
152.571145
 30
0.0
 10
326.302483
 20
152.470222
 30
0.0
 10
326.666070
 20
152.369296
 30
0.0
 10
327.029657
 20
152.268374
 30
0.0
 10
327.393215
 20
152.167451
 30
0.0
 10
327.756802
 20
152.066526
 30
0.0
 10
328.120389
 20
151.965603
 30
0.0
 10
328.483976
 20
151.864680
 30
0.0
 10
328.847563
 20
151.763758
 30
0.0
 10
329.211122
 20
151.662832
 30
0.0
 10
329.574708
 20
151.561909
 30
0.0
 10
329.938295
 20
151.460987
 30
0.0
 10
330.301882
 20
151.360061
 30
0.0
 10
330.665469
 20
151.259139
 30
0.0
 10
331.029028
 20
151.158216
 30
0.0
 10
331.392615
 20
151.057290
 30
0.0
 10
331.756202
 20
150.956368
 30
0.0
 10
332.119788
 20
150.855445
 30
0.0
 10
332.483347
 20
150.754520
 30
0.0
 10
332.846934
 20
150.653597
 30
0.0
 10
333.210521
 20
150.552674
 30
0.0
 10
333.574108
 20
150.451749
 30
0.0
 10
333.937695
 20
150.350826
 30
0.0
 10
334.301253
 20
150.249903
 30
0.0
 10
334.664840
 20
150.148981
 30
0.0
 10
335.028427
 20
150.048055
 30
0.0
 10
335.392014
 20
149.947133
 30
0.0
 10
335.755573
 20
149.846210
 30
0.0
 10
336.119160
 20
149.745284
 30
0.0
 10
336.482746
 20
149.644362
 30
0.0
 10
336.859570
 20
149.534239
 30
0.0
 10
337.236393
 20
149.424116
 30
0.0
 10
337.613244
 20
149.313990
 30
0.0
 10
337.990067
 20
149.203867
 30
0.0
 10
338.366890
 20
149.093743
 30
0.0
 10
338.743713
 20
148.983620
 30
0.0
 10
339.120565
 20
148.873497
 30
0.0
 10
339.497388
 20
148.763371
 30
0.0
 10
339.874211
 20
148.653248
 30
0.0
 10
340.251062
 20
148.543125
 30
0.0
 10
340.627885
 20
148.433002
 30
0.0
 10
341.004708
 20
148.322879
 30
0.0
 10
341.381532
 20
148.212756
 30
0.0
 10
341.758355
 20
148.102630
 30
0.0
 10
342.135206
 20
147.992507
 30
0.0
 10
342.512029
 20
147.882384
 30
0.0
 10
342.888852
 20
147.772260
 30
0.0
 10
343.265675
 20
147.662137
 30
0.0
 10
343.642527
 20
147.552011
 30
0.0
 10
344.019350
 20
147.441888
 30
0.0
 10
344.396173
 20
147.331765
 30
0.0
 10
344.773024
 20
147.221642
 30
0.0
 10
345.149847
 20
147.111519
 30
0.0
 10
345.526670
 20
147.001393
 30
0.0
 10
345.903494
 20
146.891270
 30
0.0
 10
346.280317
 20
146.781147
 30
0.0
 10
346.657168
 20
146.671024
 30
0.0
 10
347.033991
 20
146.560901
 30
0.0
 10
347.410814
 20
146.450777
 30
0.0
 10
347.787637
 20
146.340652
 30
0.0
 10
348.164489
 20
146.230528
 30
0.0
 10
348.541312
 20
146.120405
 30
0.0
 10
348.929904
 20
146.000774
 30
0.0
 10
349.318467
 20
145.881140
 30
0.0
 10
349.707059
 20
145.761509
 30
0.0
 10
350.095651
 20
145.641875
 30
0.0
 10
350.484242
 20
145.522244
 30
0.0
 10
350.872806
 20
145.402610
 30
0.0
 10
351.261398
 20
145.282979
 30
0.0
 10
351.649990
 20
145.163345
 30
0.0
 10
352.038553
 20
145.043713
 30
0.0
 10
352.427145
 20
144.924082
 30
0.0
 10
352.815737
 20
144.804448
 30
0.0
 10
353.204328
 20
144.684817
 30
0.0
 10
353.592892
 20
144.565183
 30
0.0
 10
353.981484
 20
144.445552
 30
0.0
 10
354.370076
 20
144.325918
 30
0.0
 10
354.758667
 20
144.206287
 30
0.0
 10
355.147231
 20
144.086656
 30
0.0
 10
355.535823
 20
143.967022
 30
0.0
 10
355.924414
 20
143.847390
 30
0.0
 10
356.312978
 20
143.727756
 30
0.0
 10
356.701570
 20
143.608125
 30
0.0
 10
357.090162
 20
143.488491
 30
0.0
 10
357.478753
 20
143.368860
 30
0.0
 10
357.867317
 20
143.249229
 30
0.0
 10
358.255909
 20
143.129595
 30
0.0
 10
358.644500
 20
143.009964
 30
0.0
 10
359.033064
 20
142.890330
 30
0.0
 10
359.421656
 20
142.770698
 30
0.0
 10
359.810248
 20
142.651064
 30
0.0
 10
360.198839
 20
142.531433
 30
0.0
 10
360.587403
 20
142.411799
 30
0.0
 10
360.975995
 20
142.292168
 30
0.0
 10
361.374831
 20
142.162718
 30
0.0
 10
361.773668
 20
142.033269
 30
0.0
 10
362.172504
 20
141.903819
 30
0.0
 10
362.571340
 20
141.774369
 30
0.0
 10
362.970177
 20
141.644920
 30
0.0
 10
363.369013
 20
141.515470
 30
0.0
 10
363.767850
 20
141.386020
 30
0.0
 10
364.166686
 20
141.256571
 30
0.0
 10
364.565523
 20
141.127121
 30
0.0
 10
364.964359
 20
140.997671
 30
0.0
 10
365.363196
 20
140.868222
 30
0.0
 10
365.762032
 20
140.738772
 30
0.0
 10
366.160868
 20
140.609322
 30
0.0
 10
366.559705
 20
140.479872
 30
0.0
 10
366.958541
 20
140.350423
 30
0.0
 10
367.357406
 20
140.220973
 30
0.0
 10
367.756242
 20
140.091521
 30
0.0
 10
368.155079
 20
139.962071
 30
0.0
 10
368.553915
 20
139.832621
 30
0.0
 10
368.952752
 20
139.703172
 30
0.0
 10
369.351588
 20
139.573722
 30
0.0
 10
369.750425
 20
139.444272
 30
0.0
 10
370.149261
 20
139.314822
 30
0.0
 10
370.548098
 20
139.185373
 30
0.0
 10
370.946934
 20
139.055923
 30
0.0
 10
371.345770
 20
138.926473
 30
0.0
 10
371.744607
 20
138.797024
 30
0.0
 10
372.143443
 20
138.667574
 30
0.0
 10
372.542280
 20
138.538124
 30
0.0
 10
372.941116
 20
138.408675
 30
0.0
 10
373.339953
 20
138.279225
 30
0.0
 10
373.738789
 20
138.149775
 30
0.0
 10
373.468702
 20
137.756445
 30
0.0
 10
373.202990
 20
137.349523
 30
0.0
 10
372.943826
 20
136.930008
 30
0.0
 10
372.693353
 20
136.498894
 30
0.0
 10
372.453718
 20
136.057179
 30
0.0
 10
372.227066
 20
135.605866
 30
0.0
 10
372.015568
 20
135.145946
 30
0.0
 10
371.821343
 20
134.678419
 30
0.0
 10
371.646591
 20
134.204283
 30
0.0
 10
371.493401
 20
133.724536
 30
0.0
 10
371.363946
 20
133.240175
 30
0.0
 10
371.260398
 20
132.752199
 30
0.0
 10
371.184876
 20
132.261601
 30
0.0
 10
371.139551
 20
131.769383
 30
0.0
 10
371.126568
 20
131.276541
 30
0.0
 10
371.148017
 20
130.784074
 30
0.0
 10
371.206155
 20
130.292980
 30
0.0
 10
371.303070
 20
129.804252
 30
0.0
 10
371.440908
 20
129.318890
 30
0.0
 10
371.621868
 20
128.837895
 30
0.0
 10
371.848041
 20
128.362261
 30
0.0
 10
372.121599
 20
127.892984
 30
0.0
 10
372.444687
 20
127.431068
 30
0.0
 10
372.819450
 20
126.977503
 30
0.0
 10
373.248061
 20
126.533291
 30
0.0
 10
373.732665
 20
126.099431
 30
0.0
 10
374.275378
 20
125.676916
 30
0.0
 10
374.878402
 20
125.266746
 30
0.0
 10
375.543826
 20
124.869919
 30
0.0
 10
376.273850
 20
124.487431
 30
0.0
 10
377.070620
 20
124.120283
 30
0.0
 10
377.936252
 20
123.769469
 30
0.0
 10
377.696222
 20
123.768905
 30
0.0
 10
377.456164
 20
123.768340
 30
0.0
 10
377.216134
 20
123.767776
 30
0.0
 10
376.976076
 20
123.767212
 30
0.0
 10
376.736046
 20
123.766647
 30
0.0
 10
376.495987
 20
123.766083
 30
0.0
 10
376.255957
 20
123.765518
 30
0.0
 10
376.015899
 20
123.764954
 30
0.0
 10
375.775869
 20
123.764389
 30
0.0
 10
375.535811
 20
123.763825
 30
0.0
 10
375.295781
 20
123.763260
 30
0.0
 10
375.055723
 20
123.762696
 30
0.0
 10
374.815693
 20
123.762132
 30
0.0
 10
374.575634
 20
123.761567
 30
0.0
 10
374.335604
 20
123.761003
 30
0.0
 10
374.095574
 20
123.760438
 30
0.0
 10
373.855516
 20
123.759874
 30
0.0
 10
373.615486
 20
123.759309
 30
0.0
 10
373.375428
 20
123.758745
 30
0.0
 10
373.135398
 20
123.758180
 30
0.0
 10
372.895340
 20
123.757616
 30
0.0
 10
372.655310
 20
123.757052
 30
0.0
 10
372.415252
 20
123.756487
 30
0.0
 10
372.175222
 20
123.755923
 30
0.0
 10
371.935163
 20
123.755358
 30
0.0
 10
371.695133
 20
123.754794
 30
0.0
 10
371.455075
 20
123.754229
 30
0.0
 10
371.215045
 20
123.753665
 30
0.0
 10
370.974987
 20
123.753100
 30
0.0
 10
370.734957
 20
123.752536
 30
0.0
 10
370.494899
 20
123.751972
 30
0.0
 10
370.254869
 20
123.751407
 30
0.0
 10
370.026974
 20
123.750560
 30
0.0
 10
369.799052
 20
123.749714
 30
0.0
 10
369.571157
 20
123.748867
 30
0.0
 10
369.343263
 20
123.748020
 30
0.0
 10
369.115368
 20
123.747174
 30
0.0
 10
368.887474
 20
123.746327
 30
0.0
 10
368.659551
 20
123.745480
 30
0.0
 10
368.431657
 20
123.744634
 30
0.0
 10
368.203762
 20
123.743787
 30
0.0
 10
367.975840
 20
123.742940
 30
0.0
 10
367.747945
 20
123.742094
 30
0.0
 10
367.520051
 20
123.741247
 30
0.0
 10
367.292156
 20
123.740400
 30
0.0
 10
367.064262
 20
123.739554
 30
0.0
 10
366.836339
 20
123.738707
 30
0.0
 10
366.608445
 20
123.737860
 30
0.0
 10
366.380550
 20
123.737014
 30
0.0
 10
366.152628
 20
123.736167
 30
0.0
 10
365.924733
 20
123.735320
 30
0.0
 10
365.696839
 20
123.734474
 30
0.0
 10
365.468944
 20
123.733627
 30
0.0
 10
365.241050
 20
123.732780
 30
0.0
 10
365.013127
 20
123.731934
 30
0.0
 10
364.785233
 20
123.731087
 30
0.0
 10
364.557338
 20
123.730240
 30
0.0
 10
364.329416
 20
123.729394
 30
0.0
 10
364.101521
 20
123.728547
 30
0.0
 10
363.873627
 20
123.727700
 30
0.0
 10
363.645732
 20
123.726854
 30
0.0
 10
363.417838
 20
123.726007
 30
0.0
 10
363.189915
 20
123.725160
 30
0.0
 10
362.962021
 20
123.724314
 30
0.0
 10
362.744766
 20
123.723467
 30
0.0
 10
362.527483
 20
123.722620
 30
0.0
 10
362.310228
 20
123.721774
 30
0.0
 10
362.092946
 20
123.720927
 30
0.0
 10
361.875691
 20
123.720080
 30
0.0
 10
361.658408
 20
123.719234
 30
0.0
 10
361.441153
 20
123.718387
 30
0.0
 10
361.223870
 20
123.717540
 30
0.0
 10
361.006616
 20
123.716694
 30
0.0
 10
360.789333
 20
123.715847
 30
0.0
 10
360.572078
 20
123.715000
 30
0.0
 10
360.354795
 20
123.714154
 30
0.0
 10
360.137512
 20
123.713307
 30
0.0
 10
359.920258
 20
123.712460
 30
0.0
 10
359.703003
 20
123.711614
 30
0.0
 10
359.485720
 20
123.710767
 30
0.0
 10
359.268437
 20
123.709920
 30
0.0
 10
359.051183
 20
123.709074
 30
0.0
 10
358.833928
 20
123.708227
 30
0.0
 10
358.616645
 20
123.707380
 30
0.0
 10
358.399390
 20
123.706534
 30
0.0
 10
358.182108
 20
123.705687
 30
0.0
 10
357.964853
 20
123.704840
 30
0.0
 10
357.747570
 20
123.703994
 30
0.0
 10
357.530315
 20
123.703147
 30
0.0
 10
357.313032
 20
123.702300
 30
0.0
 10
357.095778
 20
123.701454
 30
0.0
 10
356.878495
 20
123.700607
 30
0.0
 10
356.661240
 20
123.699760
 30
0.0
 10
356.443957
 20
123.698914
 30
0.0
 10
356.226703
 20
123.698067
 30
0.0
 10
356.009420
 20
123.697220
 30
0.0
 10
355.801281
 20
123.696374
 30
0.0
 10
355.593114
 20
123.695527
 30
0.0
 10
355.384975
 20
123.694680
 30
0.0
 10
355.176808
 20
123.693834
 30
0.0
 10
354.968669
 20
123.692987
 30
0.0
 10
354.760502
 20
123.692140
 30
0.0
 10
354.552363
 20
123.691294
 30
0.0
 10
354.344196
 20
123.690447
 30
0.0
 10
354.136057
 20
123.689600
 30
0.0
 10
353.927890
 20
123.688754
 30
0.0
 10
353.719751
 20
123.687907
 30
0.0
 10
353.511584
 20
123.687060
 30
0.0
 10
353.303445
 20
123.686214
 30
0.0
 10
353.095278
 20
123.685367
 30
0.0
 10
352.887139
 20
123.684520
 30
0.0
 10
352.678972
 20
123.683674
 30
0.0
 10
352.470833
 20
123.682827
 30
0.0
 10
352.262666
 20
123.681980
 30
0.0
 10
352.054527
 20
123.681134
 30
0.0
 10
351.846360
 20
123.680287
 30
0.0
 10
351.638221
 20
123.679440
 30
0.0
 10
351.430054
 20
123.678594
 30
0.0
 10
351.221915
 20
123.677747
 30
0.0
 10
351.013748
 20
123.676900
 30
0.0
 10
350.805609
 20
123.676054
 30
0.0
 10
350.597442
 20
123.675207
 30
0.0
 10
350.389303
 20
123.674360
 30
0.0
 10
350.181136
 20
123.673514
 30
0.0
 10
349.972997
 20
123.672667
 30
0.0
 10
349.764830
 20
123.671820
 30
0.0
 10
349.556691
 20
123.670974
 30
0.0
 10
349.348524
 20
123.670127
 30
0.0
 10
349.137478
 20
123.669563
 30
0.0
 10
348.926460
 20
123.668998
 30
0.0
 10
348.715415
 20
123.668434
 30
0.0
 10
348.504397
 20
123.667869
 30
0.0
 10
348.293351
 20
123.667305
 30
0.0
 10
348.082306
 20
123.666740
 30
0.0
 10
347.871288
 20
123.666176
 30
0.0
 10
347.660242
 20
123.665612
 30
0.0
 10
347.449225
 20
123.665047
 30
0.0
 10
347.238179
 20
123.664483
 30
0.0
 10
347.027133
 20
123.663918
 30
0.0
 10
346.816116
 20
123.663354
 30
0.0
 10
346.605070
 20
123.662789
 30
0.0
 10
346.394052
 20
123.662225
 30
0.0
 10
346.183006
 20
123.661660
 30
0.0
 10
345.971989
 20
123.661096
 30
0.0
 10
345.760943
 20
123.660532
 30
0.0
 10
345.549897
 20
123.659967
 30
0.0
 10
345.338880
 20
123.659403
 30
0.0
 10
345.127834
 20
123.658838
 30
0.0
 10
344.916816
 20
123.658274
 30
0.0
 10
344.705771
 20
123.657709
 30
0.0
 10
344.494725
 20
123.657145
 30
0.0
 10
344.283707
 20
123.656580
 30
0.0
 10
344.072662
 20
123.656016
 30
0.0
 10
343.861644
 20
123.655452
 30
0.0
 10
343.650598
 20
123.654887
 30
0.0
 10
343.439552
 20
123.654323
 30
0.0
 10
343.228535
 20
123.653758
 30
0.0
 10
343.017489
 20
123.653194
 30
0.0
 10
342.806472
 20
123.652629
 30
0.0
 10
342.595426
 20
123.652065
 30
0.0
 10
342.375518
 20
123.651783
 30
0.0
 10
342.155582
 20
123.651500
 30
0.0
 10
341.935675
 20
123.651218
 30
0.0
 10
341.715739
 20
123.650936
 30
0.0
 10
341.495832
 20
123.650654
 30
0.0
 10
341.275896
 20
123.650372
 30
0.0
 10
341.055988
 20
123.650089
 30
0.0
 10
340.836052
 20
123.649807
 30
0.0
 10
340.616145
 20
123.649525
 30
0.0
 10
340.396209
 20
123.649243
 30
0.0
 10
340.176302
 20
123.648960
 30
0.0
 10
339.956366
 20
123.648678
 30
0.0
 10
339.736458
 20
123.648396
 30
0.0
 10
339.516522
 20
123.648114
 30
0.0
 10
339.296615
 20
123.647832
 30
0.0
 10
339.076679
 20
123.647549
 30
0.0
 10
338.856772
 20
123.647267
 30
0.0
 10
338.636836
 20
123.646985
 30
0.0
 10
338.416928
 20
123.646703
 30
0.0
 10
338.196992
 20
123.646420
 30
0.0
 10
337.977085
 20
123.646138
 30
0.0
 10
337.757149
 20
123.645856
 30
0.0
 10
337.537242
 20
123.645574
 30
0.0
 10
337.317306
 20
123.645292
 30
0.0
 10
337.097398
 20
123.645009
 30
0.0
 10
336.877462
 20
123.644727
 30
0.0
 10
336.657555
 20
123.644445
 30
0.0
 10
336.437619
 20
123.644163
 30
0.0
 10
336.217712
 20
123.643880
 30
0.0
 10
335.997776
 20
123.643598
 30
0.0
 10
335.777868
 20
123.643316
 30
0.0
 10
335.557932
 20
123.643034
 30
0.0
 10
335.336586
 20
123.642989
 30
0.0
 10
335.115267
 20
123.642946
 30
0.0
 10
334.893920
 20
123.642901
 30
0.0
 10
334.672601
 20
123.642856
 30
0.0
 10
334.451254
 20
123.642814
 30
0.0
 10
334.229908
 20
123.642768
 30
0.0
 10
334.008589
 20
123.642726
 30
0.0
 10
333.787242
 20
123.642681
 30
0.0
 10
333.565895
 20
123.642636
 30
0.0
 10
333.344576
 20
123.642593
 30
0.0
 10
333.123230
 20
123.642548
 30
0.0
 10
332.901911
 20
123.642503
 30
0.0
 10
332.680564
 20
123.642461
 30
0.0
 10
332.459217
 20
123.642416
 30
0.0
 10
332.237898
 20
123.642373
 30
0.0
 10
332.016552
 20
123.642328
 30
0.0
 10
331.795205
 20
123.642283
 30
0.0
 10
331.573886
 20
123.642241
 30
0.0
 10
331.352539
 20
123.642196
 30
0.0
 10
331.131220
 20
123.642150
 30
0.0
 10
330.909874
 20
123.642108
 30
0.0
 10
330.688527
 20
123.642063
 30
0.0
 10
330.467208
 20
123.642021
 30
0.0
 10
330.245861
 20
123.641975
 30
0.0
 10
330.024514
 20
123.641930
 30
0.0
 10
329.803196
 20
123.641888
 30
0.0
 10
329.581849
 20
123.641843
 30
0.0
 10
329.360530
 20
123.641798
 30
0.0
 10
329.139183
 20
123.641755
 30
0.0
 10
328.917836
 20
123.641710
 30
0.0
 10
328.696518
 20
123.641668
 30
0.0
 10
328.475171
 20
123.641623
 30
0.0
 10
328.259892
 20
123.641868
 30
0.0
 10
328.044612
 20
123.642114
 30
0.0
 10
327.829333
 20
123.642359
 30
0.0
 10
327.614054
 20
123.642602
 30
0.0
 10
327.398775
 20
123.642847
 30
0.0
 10
327.183496
 20
123.643093
 30
0.0
 10
326.968217
 20
123.643339
 30
0.0
 10
326.752938
 20
123.643584
 30
0.0
 10
326.537659
 20
123.643830
 30
0.0
 10
326.322380
 20
123.644075
 30
0.0
 10
326.107100
 20
123.644321
 30
0.0
 10
325.891821
 20
123.644563
 30
0.0
 10
325.676542
 20
123.644809
 30
0.0
 10
325.461263
 20
123.645054
 30
0.0
 10
325.245984
 20
123.645300
 30
0.0
 10
325.030733
 20
123.645546
 30
0.0
 10
324.815454
 20
123.645791
 30
0.0
 10
324.600175
 20
123.646037
 30
0.0
 10
324.384896
 20
123.646282
 30
0.0
 10
324.169617
 20
123.646525
 30
0.0
 10
323.954338
 20
123.646770
 30
0.0
 10
323.739058
 20
123.647016
 30
0.0
 10
323.523779
 20
123.647261
 30
0.0
 10
323.308500
 20
123.647507
 30
0.0
 10
323.093221
 20
123.647753
 30
0.0
 10
322.877942
 20
123.647998
 30
0.0
 10
322.662663
 20
123.648244
 30
0.0
 10
322.447384
 20
123.648486
 30
0.0
 10
322.232105
 20
123.648732
 30
0.0
 10
322.016826
 20
123.648977
 30
0.0
 10
321.801546
 20
123.649223
 30
0.0
 10
321.586267
 20
123.649468
 30
0.0
 10
321.375532
 20
123.650033
 30
0.0
 10
321.164797
 20
123.650597
 30
0.0
 10
320.954061
 20
123.651162
 30
0.0
 10
320.743326
 20
123.651726
 30
0.0
 10
320.532591
 20
123.652291
 30
0.0
 10
320.321855
 20
123.652855
 30
0.0
 10
320.111120
 20
123.653420
 30
0.0
 10
319.900385
 20
123.653984
 30
0.0
 10
319.689649
 20
123.654548
 30
0.0
 10
319.478914
 20
123.655113
 30
0.0
 10
319.268179
 20
123.655677
 30
0.0
 10
319.057443
 20
123.656242
 30
0.0
 10
318.846708
 20
123.656806
 30
0.0
 10
318.635973
 20
123.657371
 30
0.0
 10
318.425237
 20
123.657935
 30
0.0
 10
318.214502
 20
123.658500
 30
0.0
 10
318.003767
 20
123.659064
 30
0.0
 10
317.793031
 20
123.659628
 30
0.0
 10
317.582296
 20
123.660193
 30
0.0
 10
317.371561
 20
123.660757
 30
0.0
 10
317.160825
 20
123.661322
 30
0.0
 10
316.950090
 20
123.661886
 30
0.0
 10
316.739355
 20
123.662451
 30
0.0
 10
316.528619
 20
123.663015
 30
0.0
 10
316.317884
 20
123.663580
 30
0.0
 10
316.107149
 20
123.664144
 30
0.0
 10
315.896413
 20
123.664708
 30
0.0
 10
315.685678
 20
123.665273
 30
0.0
 10
315.474943
 20
123.665837
 30
0.0
 10
315.264207
 20
123.666402
 30
0.0
 10
315.053472
 20
123.666966
 30
0.0
 10
314.842737
 20
123.667531
 30
0.0
 10
314.647016
 20
123.668377
 30
0.0
 10
314.451294
 20
123.669224
 30
0.0
 10
314.255573
 20
123.670071
 30
0.0
 10
314.059852
 20
123.670917
 30
0.0
 10
313.864131
 20
123.671764
 30
0.0
 10
313.668410
 20
123.672611
 30
0.0
 10
313.472689
 20
123.673457
 30
0.0
 10
313.276968
 20
123.674304
 30
0.0
 10
313.081247
 20
123.675151
 30
0.0
 10
312.885526
 20
123.675997
 30
0.0
 10
312.689804
 20
123.676844
 30
0.0
 10
312.494083
 20
123.677691
 30
0.0
 10
312.298362
 20
123.678537
 30
0.0
 10
312.102641
 20
123.679384
 30
0.0
 10
311.906920
 20
123.680231
 30
0.0
 10
311.711199
 20
123.681077
 30
0.0
 10
311.515450
 20
123.681924
 30
0.0
 10
311.319728
 20
123.682771
 30
0.0
 10
311.124007
 20
123.683617
 30
0.0
 10
310.928286
 20
123.684464
 30
0.0
 10
310.732565
 20
123.685311
 30
0.0
 10
310.536844
 20
123.686157
 30
0.0
 10
310.341123
 20
123.687004
 30
0.0
 10
310.145402
 20
123.687851
 30
0.0
 10
309.949681
 20
123.688697
 30
0.0
 10
309.753960
 20
123.689544
 30
0.0
 10
309.558238
 20
123.690391
 30
0.0
 10
309.362517
 20
123.691237
 30
0.0
 10
309.166796
 20
123.692084
 30
0.0
 10
308.971075
 20
123.692931
 30
0.0
 10
308.775354
 20
123.693777
 30
0.0
 10
308.579633
 20
123.694624
 30
0.0
 10
308.418371
 20
123.695753
 30
0.0
 10
308.257109
 20
123.696882
 30
0.0
 10
308.095876
 20
123.698011
 30
0.0
 10
307.934614
 20
123.699140
 30
0.0
 10
307.773352
 20
123.700268
 30
0.0
 10
307.612090
 20
123.701397
 30
0.0
 10
307.450857
 20
123.702526
 30
0.0
 10
307.289595
 20
123.703655
 30
0.0
 10
307.128333
 20
123.704784
 30
0.0
 10
306.967072
 20
123.705913
 30
0.0
 10
306.805810
 20
123.707042
 30
0.0
 10
306.644576
 20
123.708171
 30
0.0
 10
306.483314
 20
123.709300
 30
0.0
 10
306.322053
 20
123.710428
 30
0.0
 10
306.160791
 20
123.711557
 30
0.0
 10
305.999557
 20
123.712686
 30
0.0
 10
305.838296
 20
123.713815
 30
0.0
 10
305.677034
 20
123.714944
 30
0.0
 10
305.515772
 20
123.716073
 30
0.0
 10
305.354510
 20
123.717202
 30
0.0
 10
305.193277
 20
123.718331
 30
0.0
 10
305.032015
 20
123.719460
 30
0.0
 10
304.870753
 20
123.720588
 30
0.0
 10
304.709491
 20
123.721717
 30
0.0
 10
304.548230
 20
123.722846
 30
0.0
 10
304.386996
 20
123.723975
 30
0.0
 10
304.225734
 20
123.725104
 30
0.0
 10
304.064472
 20
123.726233
 30
0.0
 10
303.903211
 20
123.727362
 30
0.0
 10
303.741977
 20
123.728491
 30
0.0
 10
303.580715
 20
123.729620
 30
0.0
 10
303.419454
 20
123.730748
 30
0.0
 10
303.336085
 20
123.731313
 30
0.0
 10
303.252717
 20
123.731877
 30
0.0
 10
303.169348
 20
123.732442
 30
0.0
 10
303.085980
 20
123.733006
 30
0.0
 10
303.002611
 20
123.733571
 30
0.0
 10
302.919243
 20
123.734135
 30
0.0
 10
302.835874
 20
123.734700
 30
0.0
 10
302.752506
 20
123.735264
 30
0.0
 10
302.669109
 20
123.735828
 30
0.0
 10
302.585741
 20
123.736393
 30
0.0
 10
302.502372
 20
123.736957
 30
0.0
 10
302.419004
 20
123.737522
 30
0.0
 10
302.335636
 20
123.738086
 30
0.0
 10
302.252267
 20
123.738651
 30
0.0
 10
302.168899
 20
123.739215
 30
0.0
 10
302.085530
 20
123.739780
 30
0.0
 10
302.002162
 20
123.740344
 30
0.0
 10
301.918793
 20
123.740908
 30
0.0
 10
301.835425
 20
123.741473
 30
0.0
 10
301.752056
 20
123.742037
 30
0.0
 10
301.668688
 20
123.742602
 30
0.0
 10
301.585320
 20
123.743166
 30
0.0
 10
301.501951
 20
123.743731
 30
0.0
 10
301.418583
 20
123.744295
 30
0.0
 10
301.335186
 20
123.744860
 30
0.0
 10
301.251818
 20
123.745424
 30
0.0
 10
301.168449
 20
123.745988
 30
0.0
 10
301.085081
 20
123.746553
 30
0.0
 10
301.001712
 20
123.747117
 30
0.0
 10
300.918344
 20
123.747682
 30
0.0
 10
300.834975
 20
123.748246
 30
0.0
 10
300.751607
 20
123.748811
 30
0.0
 10
300.688530
 20
123.749375
 30
0.0
 10
300.625482
 20
123.749940
 30
0.0
 10
300.562405
 20
123.750504
 30
0.0
 10
300.499357
 20
123.751068
 30
0.0
 10
300.436280
 20
123.751633
 30
0.0
 10
300.373232
 20
123.752197
 30
0.0
 10
300.310155
 20
123.752762
 30
0.0
 10
300.247106
 20
123.753326
 30
0.0
 10
300.184030
 20
123.753891
 30
0.0
 10
300.120981
 20
123.754455
 30
0.0
 10
300.057905
 20
123.755020
 30
0.0
 10
299.994856
 20
123.755584
 30
0.0
 10
299.931780
 20
123.756148
 30
0.0
 10
299.868731
 20
123.756713
 30
0.0
 10
299.805654
 20
123.757277
 30
0.0
 10
299.742606
 20
123.757842
 30
0.0
 10
299.679529
 20
123.758406
 30
0.0
 10
299.616453
 20
123.758971
 30
0.0
 10
299.553404
 20
123.759535
 30
0.0
 10
299.490328
 20
123.760100
 30
0.0
 10
299.427279
 20
123.760664
 30
0.0
 10
299.364202
 20
123.761228
 30
0.0
 10
299.301154
 20
123.761793
 30
0.0
 10
299.238077
 20
123.762357
 30
0.0
 10
299.175029
 20
123.762922
 30
0.0
 10
299.111952
 20
123.763486
 30
0.0
 10
299.048904
 20
123.764051
 30
0.0
 10
298.985827
 20
123.764615
 30
0.0
 10
298.922779
 20
123.765180
 30
0.0
 10
298.859702
 20
123.765744
 30
0.0
 10
298.796654
 20
123.766308
 30
0.0
 10
298.733577
 20
123.766873
 30
0.0
 10
298.592663
 20
123.768284
 30
0.0
 10
298.451722
 20
123.769695
 30
0.0
 10
298.310808
 20
123.771106
 30
0.0
 10
298.169894
 20
123.772517
 30
0.0
 10
298.028981
 20
123.773928
 30
0.0
 10
297.888039
 20
123.775340
 30
0.0
 10
297.747126
 20
123.776751
 30
0.0
 10
297.606212
 20
123.778162
 30
0.0
 10
297.465270
 20
123.779573
 30
0.0
 10
297.324357
 20
123.780984
 30
0.0
 10
297.183443
 20
123.782395
 30
0.0
 10
297.042530
 20
123.783806
 30
0.0
 10
296.901588
 20
123.785217
 30
0.0
 10
296.760674
 20
123.786628
 30
0.0
 10
296.619761
 20
123.788040
 30
0.0
 10
296.478847
 20
123.789451
 30
0.0
 10
296.337905
 20
123.790862
 30
0.0
 10
296.196992
 20
123.792273
 30
0.0
 10
296.056078
 20
123.793684
 30
0.0
 10
295.915136
 20
123.795095
 30
0.0
 10
295.774223
 20
123.796506
 30
0.0
 10
295.633309
 20
123.797917
 30
0.0
 10
295.492396
 20
123.799328
 30
0.0
 10
295.351454
 20
123.800740
 30
0.0
 10
295.210540
 20
123.802151
 30
0.0
 10
295.069627
 20
123.803562
 30
0.0
 10
294.928685
 20
123.804973
 30
0.0
 10
294.787772
 20
123.806384
 30
0.0
 10
294.646858
 20
123.807795
 30
0.0
 10
294.505944
 20
123.809206
 30
0.0
 10
294.365003
 20
123.810617
 30
0.0
 10
294.224089
 20
123.812028
 30
0.0
 10
294.032771
 20
123.813722
 30
0.0
 10
293.841480
 20
123.815415
 30
0.0
 10
293.650162
 20
123.817108
 30
0.0
 10
293.458844
 20
123.818802
 30
0.0
 10
293.267553
 20
123.820495
 30
0.0
 10
293.076235
 20
123.822188
 30
0.0
 10
292.884916
 20
123.823882
 30
0.0
 10
292.693626
 20
123.825575
 30
0.0
 10
292.502308
 20
123.827268
 30
0.0
 10
292.310989
 20
123.828962
 30
0.0
 10
292.119671
 20
123.830655
 30
0.0
 10
291.928381
 20
123.832348
 30
0.0
 10
291.737062
 20
123.834042
 30
0.0
 10
291.545744
 20
123.835735
 30
0.0
 10
291.354454
 20
123.837428
 30
0.0
 10
291.163135
 20
123.839122
 30
0.0
 10
290.971817
 20
123.840815
 30
0.0
 10
290.780526
 20
123.842508
 30
0.0
 10
290.589208
 20
123.844202
 30
0.0
 10
290.397890
 20
123.845895
 30
0.0
 10
290.206599
 20
123.847588
 30
0.0
 10
290.015281
 20
123.849282
 30
0.0
 10
289.823962
 20
123.850975
 30
0.0
 10
289.632672
 20
123.852668
 30
0.0
 10
289.441354
 20
123.854362
 30
0.0
 10
289.250035
 20
123.856055
 30
0.0
 10
289.058717
 20
123.857748
 30
0.0
 10
288.867427
 20
123.859442
 30
0.0
 10
288.676108
 20
123.861135
 30
0.0
 10
288.484790
 20
123.862828
 30
0.0
 10
288.293500
 20
123.864522
 30
0.0
 10
288.102181
 20
123.866215
 30
0.0
 10
287.875980
 20
123.868191
 30
0.0
 10
287.649751
 20
123.870166
 30
0.0
 10
287.423550
 20
123.872142
 30
0.0
 10
287.197348
 20
123.874117
 30
0.0
 10
286.971147
 20
123.876093
 30
0.0
 10
286.744918
 20
123.878068
 30
0.0
 10
286.518717
 20
123.880044
 30
0.0
 10
286.292516
 20
123.882020
 30
0.0
 10
286.066315
 20
123.883995
 30
0.0
 10
285.840085
 20
123.885971
 30
0.0
 10
285.613884
 20
123.887946
 30
0.0
 10
285.387683
 20
123.889922
 30
0.0
 10
285.161454
 20
123.891897
 30
0.0
 10
284.935253
 20
123.893873
 30
0.0
 10
284.709052
 20
123.895848
 30
0.0
 10
284.482850
 20
123.897824
 30
0.0
 10
284.256621
 20
123.899800
 30
0.0
 10
284.030420
 20
123.901775
 30
0.0
 10
283.804219
 20
123.903751
 30
0.0
 10
283.578018
 20
123.905726
 30
0.0
 10
283.351788
 20
123.907702
 30
0.0
 10
283.125587
 20
123.909677
 30
0.0
 10
282.899386
 20
123.911653
 30
0.0
 10
282.673157
 20
123.913628
 30
0.0
 10
282.446956
 20
123.915604
 30
0.0
 10
282.220752
 20
123.917580
 30
0.0
 10
281.994542
 20
123.919555
 30
0.0
 10
281.768333
 20
123.921531
 30
0.0
 10
281.542123
 20
123.923506
 30
0.0
 10
281.315916
 20
123.925482
 30
0.0
 10
281.089707
 20
123.927457
 30
0.0
 10
280.863497
 20
123.929433
 30
0.0
 10
280.613383
 20
123.931408
 30
0.0
 10
280.363270
 20
123.933384
 30
0.0
 10
280.113156
 20
123.935360
 30
0.0
 10
279.863045
 20
123.937335
 30
0.0
 10
279.612931
 20
123.939311
 30
0.0
 10
279.362817
 20
123.941286
 30
0.0
 10
279.112703
 20
123.943262
 30
0.0
 10
278.862590
 20
123.945237
 30
0.0
 10
278.612476
 20
123.947213
 30
0.0
 10
278.362362
 20
123.949188
 30
0.0
 10
278.112248
 20
123.951164
 30
0.0
 10
277.862137
 20
123.953140
 30
0.0
 10
277.612023
 20
123.955115
 30
0.0
 10
277.361910
 20
123.957091
 30
0.0
 10
277.111796
 20
123.959066
 30
0.0
 10
276.861682
 20
123.961042
 30
0.0
 10
276.611568
 20
123.963017
 30
0.0
 10
276.361454
 20
123.964993
 30
0.0
 10
276.111341
 20
123.966968
 30
0.0
 10
275.861230
 20
123.968944
 30
0.0
 10
275.611116
 20
123.970920
 30
0.0
 10
275.361002
 20
123.972895
 30
0.0
 10
275.110888
 20
123.974871
 30
0.0
 10
274.860774
 20
123.976846
 30
0.0
 10
274.610661
 20
123.978822
 30
0.0
 10
274.360547
 20
123.980797
 30
0.0
 10
274.110433
 20
123.982773
 30
0.0
 10
273.860322
 20
123.984748
 30
0.0
 10
273.610208
 20
123.986724
 30
0.0
 10
273.360094
 20
123.988700
 30
0.0
 10
273.109981
 20
123.990675
 30
0.0
 10
272.859867
 20
123.992651
 30
0.0
 10
272.590853
 20
123.994626
 30
0.0
 10
272.321841
 20
123.996602
 30
0.0
 10
272.052827
 20
123.998577
 30
0.0
 10
271.783813
 20
124.000553
 30
0.0
 10
271.514801
 20
124.002528
 30
0.0
 10
271.245787
 20
124.004504
 30
0.0
 10
270.976773
 20
124.006480
 30
0.0
 10
270.707762
 20
124.008455
 30
0.0
 10
270.438747
 20
124.010431
 30
0.0
 10
270.169733
 20
124.012406
 30
0.0
 10
269.900722
 20
124.014382
 30
0.0
 10
269.631708
 20
124.016357
 30
0.0
 10
269.362693
 20
124.018333
 30
0.0
 10
269.093682
 20
124.020308
 30
0.0
 10
268.824668
 20
124.022284
 30
0.0
 10
268.555656
 20
124.024260
 30
0.0
 10
268.286642
 20
124.026235
 30
0.0
 10
268.017628
 20
124.028211
 30
0.0
 10
267.748616
 20
124.030186
 30
0.0
 10
267.479602
 20
124.032162
 30
0.0
 10
267.210588
 20
124.034137
 30
0.0
 10
266.941577
 20
124.036113
 30
0.0
 10
266.672562
 20
124.038088
 30
0.0
 10
266.403548
 20
124.040064
 30
0.0
 10
266.134537
 20
124.042040
 30
0.0
 10
265.865523
 20
124.044015
 30
0.0
 10
265.596508
 20
124.045991
 30
0.0
 10
265.327497
 20
124.047966
 30
0.0
 10
265.058483
 20
124.049942
 30
0.0
 10
264.789468
 20
124.051917
 30
0.0
 10
264.520457
 20
124.053893
 30
0.0
 10
264.251443
 20
124.055868
 30
0.0
 10
263.973028
 20
124.057562
 30
0.0
 10
263.694613
 20
124.059255
 30
0.0
 10
263.416195
 20
124.060948
 30
0.0
 10
263.137780
 20
124.062642
 30
0.0
 10
262.859365
 20
124.064335
 30
0.0
 10
262.580950
 20
124.066028
 30
0.0
 10
262.302535
 20
124.067722
 30
0.0
 10
262.024120
 20
124.069415
 30
0.0
 10
261.745702
 20
124.071108
 30
0.0
 10
261.467287
 20
124.072802
 30
0.0
 10
261.188872
 20
124.074495
 30
0.0
 10
260.910457
 20
124.076188
 30
0.0
 10
260.632042
 20
124.077882
 30
0.0
 10
260.353624
 20
124.079575
 30
0.0
 10
260.075209
 20
124.081268
 30
0.0
 10
259.796794
 20
124.082962
 30
0.0
 10
259.518379
 20
124.084655
 30
0.0
 10
259.239964
 20
124.086348
 30
0.0
 10
258.961546
 20
124.088042
 30
0.0
 10
258.683131
 20
124.089735
 30
0.0
 10
258.404716
 20
124.091428
 30
0.0
 10
258.126301
 20
124.093122
 30
0.0
 10
257.847886
 20
124.094815
 30
0.0
 10
257.569470
 20
124.096508
 30
0.0
 10
257.291053
 20
124.098202
 30
0.0
 10
257.012638
 20
124.099895
 30
0.0
 10
256.734223
 20
124.101588
 30
0.0
 10
256.455807
 20
124.103282
 30
0.0
 10
256.177392
 20
124.104975
 30
0.0
 10
255.898975
 20
124.106668
 30
0.0
 10
255.620560
 20
124.108362
 30
0.0
 10
255.342144
 20
124.110055
 30
0.0
 10
255.063825
 20
124.111466
 30
0.0
 10
254.785503
 20
124.112877
 30
0.0
 10
254.507184
 20
124.114288
 30
0.0
 10
254.228862
 20
124.115700
 30
0.0
 10
253.950543
 20
124.117111
 30
0.0
 10
253.672221
 20
124.118522
 30
0.0
 10
253.393902
 20
124.119933
 30
0.0
 10
253.115580
 20
124.121344
 30
0.0
 10
252.837261
 20
124.122755
 30
0.0
 10
252.558939
 20
124.124166
 30
0.0
 10
252.280620
 20
124.125577
 30
0.0
 10
252.002298
 20
124.126988
 30
0.0
 10
251.723979
 20
124.128400
 30
0.0
 10
251.445657
 20
124.129811
 30
0.0
 10
251.167338
 20
124.131222
 30
0.0
 10
250.889019
 20
124.132633
 30
0.0
 10
250.610697
 20
124.134044
 30
0.0
 10
250.332378
 20
124.135455
 30
0.0
 10
250.054056
 20
124.136866
 30
0.0
 10
249.775737
 20
124.138277
 30
0.0
 10
249.497415
 20
124.139688
 30
0.0
 10
249.219096
 20
124.141100
 30
0.0
 10
248.940774
 20
124.142511
 30
0.0
 10
248.662455
 20
124.143922
 30
0.0
 10
248.384133
 20
124.145333
 30
0.0
 10
248.105814
 20
124.146744
 30
0.0
 10
247.827492
 20
124.148155
 30
0.0
 10
247.549173
 20
124.149566
 30
0.0
 10
247.270851
 20
124.150977
 30
0.0
 10
246.992532
 20
124.152388
 30
0.0
 10
246.714210
 20
124.153800
 30
0.0
 10
246.435891
 20
124.155211
 30
0.0
 10
246.160423
 20
124.156340
 30
0.0
 10
245.884957
 20
124.157468
 30
0.0
 10
245.609488
 20
124.158597
 30
0.0
 10
245.334022
 20
124.159726
 30
0.0
 10
245.058554
 20
124.160855
 30
0.0
 10
244.783088
 20
124.161984
 30
0.0
 10
244.507619
 20
124.163113
 30
0.0
 10
244.232153
 20
124.164242
 30
0.0
 10
243.956685
 20
124.165371
 30
0.0
 10
243.681216
 20
124.166500
 30
0.0
 10
243.405750
 20
124.167628
 30
0.0
 10
243.130282
 20
124.168757
 30
0.0
 10
242.854816
 20
124.169886
 30
0.0
 10
242.579347
 20
124.171015
 30
0.0
 10
242.303881
 20
124.172144
 30
0.0
 10
242.028413
 20
124.173273
 30
0.0
 10
241.752944
 20
124.174402
 30
0.0
 10
241.477478
 20
124.175531
 30
0.0
 10
241.202010
 20
124.176660
 30
0.0
 10
240.926544
 20
124.177788
 30
0.0
 10
240.651075
 20
124.178917
 30
0.0
 10
240.375609
 20
124.180046
 30
0.0
 10
240.100141
 20
124.181175
 30
0.0
 10
239.824675
 20
124.182304
 30
0.0
 10
239.549206
 20
124.183433
 30
0.0
 10
239.273738
 20
124.184562
 30
0.0
 10
238.998272
 20
124.185691
 30
0.0
 10
238.722803
 20
124.186820
 30
0.0
 10
238.447337
 20
124.187948
 30
0.0
 10
238.171869
 20
124.189077
 30
0.0
 10
237.896403
 20
124.190206
 30
0.0
 10
237.620934
 20
124.191335
 30
0.0
 10
237.348082
 20
124.192182
 30
0.0
 10
237.075229
 20
124.193028
 30
0.0
 10
236.802377
 20
124.193875
 30
0.0
 10
236.529527
 20
124.194722
 30
0.0
 10
236.256675
 20
124.195568
 30
0.0
 10
235.983822
 20
124.196415
 30
0.0
 10
235.710970
 20
124.197262
 30
0.0
 10
235.438117
 20
124.198108
 30
0.0
 10
235.165265
 20
124.198955
 30
0.0
 10
234.892415
 20
124.199802
 30
0.0
 10
234.619563
 20
124.200648
 30
0.0
 10
234.346710
 20
124.201495
 30
0.0
 10
234.073858
 20
124.202342
 30
0.0
 10
233.801006
 20
124.203188
 30
0.0
 10
233.528153
 20
124.204035
 30
0.0
 10
233.255304
 20
124.204882
 30
0.0
 10
232.982451
 20
124.205728
 30
0.0
 10
232.709599
 20
124.206575
 30
0.0
 10
232.436746
 20
124.207422
 30
0.0
 10
232.163894
 20
124.208268
 30
0.0
 10
231.891041
 20
124.209115
 30
0.0
 10
231.618189
 20
124.209962
 30
0.0
 10
231.345339
 20
124.210808
 30
0.0
 10
231.072487
 20
124.211655
 30
0.0
 10
230.799634
 20
124.212502
 30
0.0
 10
230.526782
 20
124.213348
 30
0.0
 10
230.253929
 20
124.214195
 30
0.0
 10
229.981077
 20
124.215042
 30
0.0
 10
229.708227
 20
124.215888
 30
0.0
 10
229.435375
 20
124.216735
 30
0.0
 10
229.162523
 20
124.217582
 30
0.0
 10
228.889670
 20
124.218428
 30
0.0
 10
228.624438
 20
124.218993
 30
0.0
 10
228.359205
 20
124.219557
 30
0.0
 10
228.093973
 20
124.220122
 30
0.0
 10
227.828740
 20
124.220686
 30
0.0
 10
227.563508
 20
124.221251
 30
0.0
 10
227.298275
 20
124.221815
 30
0.0
 10
227.033043
 20
124.222380
 30
0.0
 10
226.767811
 20
124.222944
 30
0.0
 10
226.502578
 20
124.223508
 30
0.0
 10
226.237346
 20
124.224073
 30
0.0
 10
225.972113
 20
124.224637
 30
0.0
 10
225.706881
 20
124.225202
 30
0.0
 10
225.441648
 20
124.225766
 30
0.0
 10
225.176416
 20
124.226331
 30
0.0
 10
224.911183
 20
124.226895
 30
0.0
 10
224.645951
 20
124.227460
 30
0.0
 10
224.380716
 20
124.228024
 30
0.0
 10
224.115483
 20
124.228588
 30
0.0
 10
223.850251
 20
124.229153
 30
0.0
 10
223.585018
 20
124.229717
 30
0.0
 10
223.319786
 20
124.230282
 30
0.0
 10
223.054553
 20
124.230846
 30
0.0
 10
222.789321
 20
124.231411
 30
0.0
 10
222.524089
 20
124.231975
 30
0.0
 10
222.258856
 20
124.232540
 30
0.0
 10
221.993624
 20
124.233104
 30
0.0
 10
221.728391
 20
124.233668
 30
0.0
 10
221.463159
 20
124.234233
 30
0.0
 10
221.197926
 20
124.234797
 30
0.0
 10
220.932694
 20
124.235362
 30
0.0
 10
220.667461
 20
124.235926
 30
0.0
 10
220.402229
 20
124.236491
 30
0.0
 10
220.149620
 20
124.236711
 30
0.0
 10
219.897012
 20
124.236931
 30
0.0
 10
219.644403
 20
124.237151
 30
0.0
 10
219.391797
 20
124.237371
 30
0.0
 10
219.139189
 20
124.237594
 30
0.0
 10
218.886580
 20
124.237814
 30
0.0
 10
218.633971
 20
124.238034
 30
0.0
 10
218.381363
 20
124.238255
 30
0.0
 10
218.128754
 20
124.238475
 30
0.0
 10
217.876145
 20
124.238695
 30
0.0
 10
217.623537
 20
124.238915
 30
0.0
 10
217.370931
 20
124.239135
 30
0.0
 10
217.118322
 20
124.239358
 30
0.0
 10
216.865714
 20
124.239578
 30
0.0
 10
216.613105
 20
124.239798
 30
0.0
 10
216.360496
 20
124.240018
 30
0.0
 10
216.107888
 20
124.240239
 30
0.0
 10
215.855279
 20
124.240459
 30
0.0
 10
215.602670
 20
124.240679
 30
0.0
 10
215.350065
 20
124.240899
 30
0.0
 10
215.097456
 20
124.241122
 30
0.0
 10
214.844847
 20
124.241342
 30
0.0
 10
214.592239
 20
124.241562
 30
0.0
 10
214.339630
 20
124.241782
 30
0.0
 10
214.087021
 20
124.242002
 30
0.0
 10
213.834413
 20
124.242223
 30
0.0
 10
213.581804
 20
124.242443
 30
0.0
 10
213.329198
 20
124.242663
 30
0.0
 10
213.076590
 20
124.242886
 30
0.0
 10
212.823981
 20
124.243106
 30
0.0
 10
212.571372
 20
124.243326
 30
0.0
 10
212.318764
 20
124.243546
 30
0.0
 10
212.083783
 20
124.243298
 30
0.0
 10
211.848804
 20
124.243052
 30
0.0
 10
211.613823
 20
124.242804
 30
0.0
 10
211.378845
 20
124.242558
 30
0.0
 10
211.143864
 20
124.242310
 30
0.0
 10
210.908883
 20
124.242065
 30
0.0
 10
210.673905
 20
124.241816
 30
0.0
 10
210.438924
 20
124.241571
 30
0.0
 10
210.203943
 20
124.241322
 30
0.0
 10
209.968965
 20
124.241077
 30
0.0
 10
209.733983
 20
124.240828
 30
0.0
 10
209.499005
 20
124.240583
 30
0.0
 10
209.264024
 20
124.240337
 30
0.0
 10
209.029043
 20
124.240089
 30
0.0
 10
208.794065
 20
124.239841
 30
0.0
 10
208.559084
 20
124.239595
 30
0.0
 10
208.324103
 20
124.239347
 30
0.0
 10
208.089125
 20
124.239101
 30
0.0
 10
207.854144
 20
124.238853
 30
0.0
 10
207.619165
 20
124.238607
 30
0.0
 10
207.384184
 20
124.238359
 30
0.0
 10
207.149203
 20
124.238113
 30
0.0
 10
206.914225
 20
124.237865
 30
0.0
 10
206.679244
 20
124.237620
 30
0.0
 10
206.444263
 20
124.237371
 30
0.0
 10
206.209285
 20
124.237126
 30
0.0
 10
205.974304
 20
124.236880
 30
0.0
 10
205.739325
 20
124.236632
 30
0.0
 10
205.504344
 20
124.236383
 30
0.0
 10
205.269363
 20
124.236138
 30
0.0
 10
205.034385
 20
124.235890
 30
0.0
 10
204.799404
 20
124.235644
 30
0.0
 10
204.587057
 20
124.234797
 30
0.0
 10
204.374710
 20
124.233951
 30
0.0
 10
204.162364
 20
124.233104
 30
0.0
 10
203.950017
 20
124.232257
 30
0.0
 10
203.737667
 20
124.231411
 30
0.0
 10
203.525320
 20
124.230564
 30
0.0
 10
203.312974
 20
124.229717
 30
0.0
 10
203.100627
 20
124.228871
 30
0.0
 10
202.888280
 20
124.228024
 30
0.0
 10
202.675933
 20
124.227177
 30
0.0
 10
202.463586
 20
124.226331
 30
0.0
 10
202.251239
 20
124.225484
 30
0.0
 10
202.038890
 20
124.224637
 30
0.0
 10
201.826543
 20
124.223791
 30
0.0
 10
201.614196
 20
124.222944
 30
0.0
 10
201.401849
 20
124.222097
 30
0.0
 10
201.189503
 20
124.221251
 30
0.0
 10
200.977156
 20
124.220404
 30
0.0
 10
200.764809
 20
124.219557
 30
0.0
 10
200.552462
 20
124.218711
 30
0.0
 10
200.340112
 20
124.217864
 30
0.0
 10
200.127766
 20
124.217017
 30
0.0
 10
199.915419
 20
124.216171
 30
0.0
 10
199.703072
 20
124.215324
 30
0.0
 10
199.490725
 20
124.214477
 30
0.0
 10
199.278378
 20
124.213631
 30
0.0
 10
199.066031
 20
124.212784
 30
0.0
 10
198.853685
 20
124.211937
 30
0.0
 10
198.641335
 20
124.211091
 30
0.0
 10
198.428988
 20
124.210244
 30
0.0
 10
198.216641
 20
124.209397
 30
0.0
 10
198.004295
 20
124.208551
 30
0.0
 10
197.819586
 20
124.207140
 30
0.0
 10
197.634874
 20
124.205728
 30
0.0
 10
197.450165
 20
124.204317
 30
0.0
 10
197.265454
 20
124.202906
 30
0.0
 10
197.080745
 20
124.201495
 30
0.0
 10
196.896033
 20
124.200084
 30
0.0
 10
196.711324
 20
124.198673
 30
0.0
 10
196.526613
 20
124.197262
 30
0.0
 10
196.341904
 20
124.195851
 30
0.0
 10
196.157192
 20
124.194440
 30
0.0
 10
195.972484
 20
124.193028
 30
0.0
 10
195.787772
 20
124.191617
 30
0.0
 10
195.603063
 20
124.190206
 30
0.0
 10
195.418352
 20
124.188795
 30
0.0
 10
195.233643
 20
124.187384
 30
0.0
 10
195.048931
 20
124.185973
 30
0.0
 10
194.864222
 20
124.184562
 30
0.0
 10
194.679511
 20
124.183151
 30
0.0
 10
194.494802
 20
124.181740
 30
0.0
 10
194.310090
 20
124.180328
 30
0.0
 10
194.125382
 20
124.178917
 30
0.0
 10
193.940670
 20
124.177506
 30
0.0
 10
193.755961
 20
124.176095
 30
0.0
 10
193.571249
 20
124.174684
 30
0.0
 10
193.386541
 20
124.173273
 30
0.0
 10
193.201829
 20
124.171862
 30
0.0
 10
193.017120
 20
124.170451
 30
0.0
 10
192.832409
 20
124.169040
 30
0.0
 10
192.647700
 20
124.167628
 30
0.0
 10
192.462988
 20
124.166217
 30
0.0
 10
192.278279
 20
124.164806
 30
0.0
 10
192.093568
 20
124.163395
 30
0.0
 10
191.941498
 20
124.161420
 30
0.0
 10
191.789431
 20
124.159444
 30
0.0
 10
191.637361
 20
124.157468
 30
0.0
 10
191.485294
 20
124.155493
 30
0.0
 10
191.333224
 20
124.153517
 30
0.0
 10
191.181155
 20
124.151542
 30
0.0
 10
191.029088
 20
124.149566
 30
0.0
 10
190.877018
 20
124.147591
 30
0.0
 10
190.724951
 20
124.145615
 30
0.0
 10
190.572881
 20
124.143640
 30
0.0
 10
190.420811
 20
124.141664
 30
0.0
 10
190.268744
 20
124.139688
 30
0.0
 10
190.116674
 20
124.137713
 30
0.0
 10
189.964608
 20
124.135737
 30
0.0
 10
189.812538
 20
124.133762
 30
0.0
 10
189.660471
 20
124.131786
 30
0.0
 10
189.508401
 20
124.129811
 30
0.0
 10
189.356331
 20
124.127835
 30
0.0
 10
189.204264
 20
124.125860
 30
0.0
 10
189.052194
 20
124.123884
 30
0.0
 10
188.900127
 20
124.121908
 30
0.0
 10
188.748058
 20
124.119933
 30
0.0
 10
188.595988
 20
124.117957
 30
0.0
 10
188.443921
 20
124.115982
 30
0.0
 10
188.291851
 20
124.114006
 30
0.0
 10
188.139784
 20
124.112031
 30
0.0
 10
187.987714
 20
124.110055
 30
0.0
 10
187.835644
 20
124.108080
 30
0.0
 10
187.683577
 20
124.106104
 30
0.0
 10
187.531508
 20
124.104128
 30
0.0
 10
187.379441
 20
124.102153
 30
0.0
 10
187.227371
 20
124.100177
 30
0.0
 10
186.888882
 20
124.094646
 30
0.0
 10
186.550390
 20
124.089114
 30
0.0
 10
186.211901
 20
124.083583
 30
0.0
 10
185.873413
 20
124.078051
 30
0.0
 10
185.534921
 20
124.072520
 30
0.0
 10
185.196432
 20
124.066988
 30
0.0
 10
184.857943
 20
124.061456
 30
0.0
 10
184.519451
 20
124.055925
 30
0.0
 10
184.180963
 20
124.050393
 30
0.0
 10
183.842474
 20
124.044862
 30
0.0
 10
183.503982
 20
124.039330
 30
0.0
 10
183.165493
 20
124.033799
 30
0.0
 10
182.827004
 20
124.028267
 30
0.0
 10
182.488513
 20
124.022736
 30
0.0
 10
182.150024
 20
124.017204
 30
0.0
 10
181.811535
 20
124.011672
 30
0.0
 10
181.473043
 20
124.006141
 30
0.0
 10
181.134554
 20
124.000609
 30
0.0
 10
180.796063
 20
123.995078
 30
0.0
 10
180.457574
 20
123.989546
 30
0.0
 10
180.119085
 20
123.984015
 30
0.0
 10
179.780593
 20
123.978483
 30
0.0
 10
179.442104
 20
123.972952
 30
0.0
 10
179.103615
 20
123.967420
 30
0.0
 10
178.765124
 20
123.961888
 30
0.0
 10
178.426635
 20
123.956357
 30
0.0
 10
178.088146
 20
123.950825
 30
0.0
 10
177.749654
 20
123.945294
 30
0.0
 10
177.411166
 20
123.939762
 30
0.0
 10
177.072677
 20
123.934231
 30
0.0
 10
176.734185
 20
123.928699
 30
0.0
 10
176.395696
 20
123.923168
 30
0.0
 10
176.093349
 20
123.919188
 30
0.0
 10
175.790998
 20
123.915209
 30
0.0
 10
175.488651
 20
123.911230
 30
0.0
 10
175.186300
 20
123.907250
 30
0.0
 10
174.883953
 20
123.903271
 30
0.0
 10
174.581603
 20
123.899292
 30
0.0
 10
174.279255
 20
123.895312
 30
0.0
 10
173.976908
 20
123.891333
 30
0.0
 10
173.674557
 20
123.887354
 30
0.0
 10
173.372210
 20
123.883374
 30
0.0
 10
173.069860
 20
123.879395
 30
0.0
 10
172.767512
 20
123.875416
 30
0.0
 10
172.465162
 20
123.871436
 30
0.0
 10
172.162814
 20
123.867457
 30
0.0
 10
171.860464
 20
123.863478
 30
0.0
 10
171.558117
 20
123.859498
 30
0.0
 10
171.255769
 20
123.855519
 30
0.0
 10
170.953419
 20
123.851540
 30
0.0
 10
170.651071
 20
123.847560
 30
0.0
 10
170.348721
 20
123.843581
 30
0.0
 10
170.046373
 20
123.839602
 30
0.0
 10
169.744023
 20
123.835622
 30
0.0
 10
169.441676
 20
123.831643
 30
0.0
 10
169.139328
 20
123.827664
 30
0.0
 10
168.836978
 20
123.823684
 30
0.0
 10
168.534630
 20
123.819705
 30
0.0
 10
168.232280
 20
123.815726
 30
0.0
 10
167.929933
 20
123.811746
 30
0.0
 10
167.627582
 20
123.807767
 30
0.0
 10
167.325235
 20
123.803788
 30
0.0
 10
167.022884
 20
123.799808
 30
0.0
 10
166.720537
 20
123.795829
 30
0.0
 10
166.449804
 20
123.793289
 30
0.0
 10
166.179071
 20
123.790749
 30
0.0
 10
165.908341
 20
123.788209
 30
0.0
 10
165.637608
 20
123.785669
 30
0.0
 10
165.366875
 20
123.783129
 30
0.0
 10
165.096142
 20
123.780589
 30
0.0
 10
164.825409
 20
123.778049
 30
0.0
 10
164.554679
 20
123.775509
 30
0.0
 10
164.283946
 20
123.772969
 30
0.0
 10
164.013213
 20
123.770429
 30
0.0
 10
163.742480
 20
123.767889
 30
0.0
 10
163.471747
 20
123.765349
 30
0.0
 10
163.201014
 20
123.762809
 30
0.0
 10
162.930284
 20
123.760269
 30
0.0
 10
162.659551
 20
123.757729
 30
0.0
 10
162.388818
 20
123.755189
 30
0.0
 10
162.118085
 20
123.752649
 30
0.0
 10
161.847352
 20
123.750109
 30
0.0
 10
161.576622
 20
123.747569
 30
0.0
 10
161.305889
 20
123.745029
 30
0.0
 10
161.035156
 20
123.742489
 30
0.0
 10
160.764423
 20
123.739949
 30
0.0
 10
160.493690
 20
123.737409
 30
0.0
 10
160.222960
 20
123.734869
 30
0.0
 10
159.952227
 20
123.732329
 30
0.0
 10
159.681494
 20
123.729789
 30
0.0
 10
159.410761
 20
123.727249
 30
0.0
 10
159.140028
 20
123.724709
 30
0.0
 10
158.869295
 20
123.722169
 30
0.0
 10
158.598565
 20
123.719629
 30
0.0
 10
158.327832
 20
123.717089
 30
0.0
 10
158.057099
 20
123.714549
 30
0.0
 10
157.813460
 20
123.713702
 30
0.0
 10
157.569817
 20
123.712856
 30
0.0
 10
157.326178
 20
123.712009
 30
0.0
 10
157.082535
 20
123.711162
 30
0.0
 10
156.838896
 20
123.710316
 30
0.0
 10
156.595256
 20
123.709469
 30
0.0
 10
156.351613
 20
123.708622
 30
0.0
 10
156.107974
 20
123.707776
 30
0.0
 10
155.864331
 20
123.706929
 30
0.0
 10
155.620692
 20
123.706082
 30
0.0
 10
155.377052
 20
123.705236
 30
0.0
 10
155.133410
 20
123.704389
 30
0.0
 10
154.889770
 20
123.703542
 30
0.0
 10
154.646128
 20
123.702696
 30
0.0
 10
154.402488
 20
123.701849
 30
0.0
 10
154.158848
 20
123.701002
 30
0.0
 10
153.915206
 20
123.700156
 30
0.0
 10
153.671566
 20
123.699309
 30
0.0
 10
153.427924
 20
123.698462
 30
0.0
 10
153.184284
 20
123.697616
 30
0.0
 10
152.940642
 20
123.696769
 30
0.0
 10
152.697002
 20
123.695922
 30
0.0
 10
152.453363
 20
123.695076
 30
0.0
 10
152.209720
 20
123.694229
 30
0.0
 10
151.966081
 20
123.693382
 30
0.0
 10
151.722438
 20
123.692536
 30
0.0
 10
151.478798
 20
123.691689
 30
0.0
 10
151.235159
 20
123.690842
 30
0.0
 10
150.991516
 20
123.689996
 30
0.0
 10
150.747877
 20
123.689149
 30
0.0
 10
150.504234
 20
123.688302
 30
0.0
 10
150.260595
 20
123.687456
 30
0.0
 10
150.039522
 20
123.688020
 30
0.0
 10
149.818446
 20
123.688584
 30
0.0
 10
149.597372
 20
123.689149
 30
0.0
 10
149.376299
 20
123.689713
 30
0.0
 10
149.155223
 20
123.690278
 30
0.0
 10
148.934150
 20
123.690842
 30
0.0
 10
148.713077
 20
123.691407
 30
0.0
 10
148.492001
 20
123.691971
 30
0.0
 10
148.270928
 20
123.692536
 30
0.0
 10
148.049855
 20
123.693100
 30
0.0
 10
147.828779
 20
123.693664
 30
0.0
 10
147.607706
 20
123.694229
 30
0.0
 10
147.386633
 20
123.694793
 30
0.0
 10
147.165557
 20
123.695358
 30
0.0
 10
146.944484
 20
123.695922
 30
0.0
 10
146.723410
 20
123.696487
 30
0.0
 10
146.502334
 20
123.697051
 30
0.0
 10
146.281261
 20
123.697616
 30
0.0
 10
146.060185
 20
123.698180
 30
0.0
 10
145.839112
 20
123.698744
 30
0.0
 10
145.618039
 20
123.699309
 30
0.0
 10
145.396963
 20
123.699873
 30
0.0
 10
145.175890
 20
123.700438
 30
0.0
 10
144.954817
 20
123.701002
 30
0.0
 10
144.733741
 20
123.701567
 30
0.0
 10
144.512668
 20
123.702131
 30
0.0
 10
144.291595
 20
123.702696
 30
0.0
 10
144.070519
 20
123.703260
 30
0.0
 10
143.849446
 20
123.703824
 30
0.0
 10
143.628372
 20
123.704389
 30
0.0
 10
143.407297
 20
123.704953
 30
0.0
 10
143.186223
 20
123.705518
 30
0.0
 10
142.983193
 20
123.707776
 30
0.0
 10
142.780159
 20
123.710033
 30
0.0
 10
142.577129
 20
123.712291
 30
0.0
 10
142.374095
 20
123.714549
 30
0.0
 10
142.171064
 20
123.716807
 30
0.0
 10
141.968031
 20
123.719064
 30
0.0
 10
141.765000
 20
123.721322
 30
0.0
 10
141.561970
 20
123.723580
 30
0.0
 10
141.358936
 20
123.725838
 30
0.0
 10
141.155905
 20
123.728096
 30
0.0
 10
140.952872
 20
123.730353
 30
0.0
 10
140.749841
 20
123.732611
 30
0.0
 10
140.546808
 20
123.734869
 30
0.0
 10
140.343777
 20
123.737127
 30
0.0
 10
140.140744
 20
123.739384
 30
0.0
 10
139.937713
 20
123.741642
 30
0.0
 10
139.734682
 20
123.743900
 30
0.0
 10
139.531649
 20
123.746158
 30
0.0
 10
139.328618
 20
123.748416
 30
0.0
 10
139.125585
 20
123.750673
 30
0.0
 10
138.922554
 20
123.752931
 30
0.0
 10
138.719520
 20
123.755189
 30
0.0
 10
138.516490
 20
123.757447
 30
0.0
 10
138.313459
 20
123.759704
 30
0.0
 10
138.110426
 20
123.761962
 30
0.0
 10
137.907395
 20
123.764220
 30
0.0
 10
137.704362
 20
123.766478
 30
0.0
 10
137.501331
 20
123.768736
 30
0.0
 10
137.298297
 20
123.770993
 30
0.0
 10
137.095267
 20
123.773251
 30
0.0
 10
136.892233
 20
123.775509
 30
0.0
 10
136.689203
 20
123.777767
 30
0.0
 10
136.499687
 20
123.781379
 30
0.0
 10
136.310172
 20
123.784992
 30
0.0
 10
136.120657
 20
123.788604
 30
0.0
 10
135.931142
 20
123.792216
 30
0.0
 10
135.741627
 20
123.795829
 30
0.0
 10
135.552112
 20
123.799441
 30
0.0
 10
135.362597
 20
123.803054
 30
0.0
 10
135.173082
 20
123.806666
 30
0.0
 10
134.983567
 20
123.810279
 30
0.0
 10
134.794052
 20
123.813891
 30
0.0
 10
134.604537
 20
123.817504
 30
0.0
 10
134.415022
 20
123.821116
 30
0.0
 10
134.225507
 20
123.824728
 30
0.0
 10
134.035992
 20
123.828341
 30
0.0
 10
133.846477
 20
123.831953
 30
0.0
 10
133.656965
 20
123.835566
 30
0.0
 10
133.467450
 20
123.839178
 30
0.0
 10
133.277935
 20
123.842791
 30
0.0
 10
133.088420
 20
123.846403
 30
0.0
 10
132.898904
 20
123.850016
 30
0.0
 10
132.709389
 20
123.853628
 30
0.0
 10
132.519874
 20
123.857240
 30
0.0
 10
132.330359
 20
123.860853
 30
0.0
 10
132.140844
 20
123.864465
 30
0.0
 10
131.951329
 20
123.868078
 30
0.0
 10
131.761814
 20
123.871690
 30
0.0
 10
131.572299
 20
123.875303
 30
0.0
 10
131.382784
 20
123.878915
 30
0.0
 10
131.193269
 20
123.882528
 30
0.0
 10
131.003754
 20
123.886140
 30
0.0
 10
130.814239
 20
123.889752
 30
0.0
 10
130.624724
 20
123.893365
 30
0.0
 10
130.444203
 20
123.898473
 30
0.0
 10
130.263680
 20
123.903581
 30
0.0
 10
130.083159
 20
123.908690
 30
0.0
 10
129.902639
 20
123.913798
 30
0.0
 10
129.722115
 20
123.918906
 30
0.0
 10
129.541595
 20
123.924014
 30
0.0
 10
129.361071
 20
123.929122
 30
0.0
 10
129.180550
 20
123.934231
 30
0.0
 10
129.000030
 20
123.939339
 30
0.0
 10
128.819506
 20
123.944447
 30
0.0
 10
128.638986
 20
123.949555
 30
0.0
 10
128.458465
 20
123.954664
 30
0.0
 10
128.277942
 20
123.959772
 30
0.0
 10
128.097421
 20
123.964880
 30
0.0
 10
127.916898
 20
123.969988
 30
0.0
 10
127.736377
 20
123.975096
 30
0.0
 10
127.555856
 20
123.980205
 30
0.0
 10
127.375333
 20
123.985313
 30
0.0
 10
127.194812
 20
123.990421
 30
0.0
 10
127.014292
 20
123.995529
 30
0.0
 10
126.833768
 20
124.000638
 30
0.0
 10
126.653248
 20
124.005746
 30
0.0
 10
126.472724
 20
124.010854
 30
0.0
 10
126.292204
 20
124.015962
 30
0.0
 10
126.111683
 20
124.021070
 30
0.0
 10
125.931160
 20
124.026179
 30
0.0
 10
125.750639
 20
124.031287
 30
0.0
 10
125.570118
 20
124.036395
 30
0.0
 10
125.389595
 20
124.041503
 30
0.0
 10
125.209074
 20
124.046612
 30
0.0
 10
125.028551
 20
124.051720
 30
0.0
 10
124.848030
 20
124.056828
 30
0.0
 10
124.671977
 20
124.063404
 30
0.0
 10
124.495921
 20
124.069980
 30
0.0
 10
124.319868
 20
124.076555
 30
0.0
 10
124.143812
 20
124.083131
 30
0.0
 10
123.967759
 20
124.089707
 30
0.0
 10
123.791706
 20
124.096283
 30
0.0
 10
123.615650
 20
124.102858
 30
0.0
 10
123.439597
 20
124.109434
 30
0.0
 10
123.263541
 20
124.116010
 30
0.0
 10
123.087488
 20
124.122586
 30
0.0
 10
122.911435
 20
124.129162
 30
0.0
 10
122.735380
 20
124.135737
 30
0.0
 10
122.559326
 20
124.142313
 30
0.0
 10
122.383271
 20
124.148889
 30
0.0
 10
122.207218
 20
124.155465
 30
0.0
 10
122.031165
 20
124.162040
 30
0.0
 10
121.855109
 20
124.168616
 30
0.0
 10
121.679056
 20
124.175192
 30
0.0
 10
121.503000
 20
124.181768
 30
0.0
 10
121.326947
 20
124.188344
 30
0.0
 10
121.150891
 20
124.194919
 30
0.0
 10
120.974838
 20
124.201495
 30
0.0
 10
120.798785
 20
124.208071
 30
0.0
 10
120.622729
 20
124.214647
 30
0.0
 10
120.446676
 20
124.221222
 30
0.0
 10
120.270620
 20
124.227798
 30
0.0
 10
120.094567
 20
124.234374
 30
0.0
 10
119.918514
 20
124.240950
 30
0.0
 10
119.742458
 20
124.247526
 30
0.0
 10
119.566405
 20
124.254101
 30
0.0
 10
119.390349
 20
124.260677
 30
0.0
 10
119.214296
 20
124.267253
 30
0.0
 10
119.038184
 20
124.275268
 30
0.0
 10
118.862074
 20
124.283283
 30
0.0
 10
118.685962
 20
124.291298
 30
0.0
 10
118.509852
 20
124.299313
 30
0.0
 10
118.333740
 20
124.307328
 30
0.0
 10
118.157628
 20
124.315344
 30
0.0
 10
117.981518
 20
124.323359
 30
0.0
 10
117.805406
 20
124.331374
 30
0.0
 10
117.629294
 20
124.339389
 30
0.0
 10
117.453184
 20
124.347404
 30
0.0
 10
117.277072
 20
124.355419
 30
0.0
 10
117.100962
 20
124.363434
 30
0.0
 10
116.924850
 20
124.371449
 30
0.0
 10
116.748738
 20
124.379464
 30
0.0
 10
116.572628
 20
124.387480
 30
0.0
 10
116.396516
 20
124.395495
 30
0.0
 10
116.220404
 20
124.403510
 30
0.0
 10
116.044294
 20
124.411525
 30
0.0
 10
115.868182
 20
124.419540
 30
0.0
 10
115.692072
 20
124.427555
 30
0.0
 10
115.515960
 20
124.435570
 30
0.0
 10
115.339848
 20
124.443585
 30
0.0
 10
115.163738
 20
124.451600
 30
0.0
 10
114.987626
 20
124.459616
 30
0.0
 10
114.811514
 20
124.467631
 30
0.0
 10
114.635404
 20
124.475646
 30
0.0
 10
114.459292
 20
124.483661
 30
0.0
 10
114.283182
 20
124.491676
 30
0.0
 10
114.107070
 20
124.499691
 30
0.0
 10
113.930958
 20
124.507706
 30
0.0
 10
113.754848
 20
124.515721
 30
0.0
 10
113.578736
 20
124.523736
 30
0.0
 10
113.398043
 20
124.533191
 30
0.0
 10
113.217350
 20
124.542645
 30
0.0
 10
113.036658
 20
124.552100
 30
0.0
 10
112.855962
 20
124.561554
 30
0.0
 10
112.675269
 20
124.571009
 30
0.0
 10
112.494576
 20
124.580463
 30
0.0
 10
112.313884
 20
124.589918
 30
0.0
 10
112.133191
 20
124.599372
 30
0.0
 10
111.952498
 20
124.608826
 30
0.0
 10
111.771803
 20
124.618281
 30
0.0
 10
111.591110
 20
124.627735
 30
0.0
 10
111.410417
 20
124.637190
 30
0.0
 10
111.229724
 20
124.646644
 30
0.0
 10
111.049031
 20
124.656099
 30
0.0
 10
110.868339
 20
124.665553
 30
0.0
 10
110.687646
 20
124.675008
 30
0.0
 10
110.506950
 20
124.684462
 30
0.0
 10
110.326257
 20
124.693916
 30
0.0
 10
110.145565
 20
124.703371
 30
0.0
 10
109.964872
 20
124.712825
 30
0.0
 10
109.784179
 20
124.722280
 30
0.0
 10
109.603486
 20
124.731734
 30
0.0
 10
109.422791
 20
124.741189
 30
0.0
 10
109.242098
 20
124.750643
 30
0.0
 10
109.061405
 20
124.760098
 30
0.0
 10
108.880712
 20
124.769552
 30
0.0
 10
108.700020
 20
124.779006
 30
0.0
 10
108.519327
 20
124.788461
 30
0.0
 10
108.338631
 20
124.797915
 30
0.0
 10
108.157939
 20
124.807370
 30
0.0
 10
107.977246
 20
124.816824
 30
0.0
 10
107.796553
 20
124.826279
 30
0.0
 10
107.606753
 20
124.837172
 30
0.0
 10
107.416956
 20
124.848066
 30
0.0
 10
107.227156
 20
124.858960
 30
0.0
 10
107.037355
 20
124.869854
 30
0.0
 10
106.847555
 20
124.880748
 30
0.0
 10
106.657758
 20
124.891641
 30
0.0
 10
106.467958
 20
124.902535
 30
0.0
 10
106.278158
 20
124.913429
 30
0.0
 10
106.088358
 20
124.924323
 30
0.0
 10
105.898561
 20
124.935216
 30
0.0
 10
105.708760
 20
124.946110
 30
0.0
 10
105.518960
 20
124.957004
 30
0.0
 10
105.329160
 20
124.967898
 30
0.0
 10
105.139363
 20
124.978792
 30
0.0
 10
104.949563
 20
124.989685
 30
0.0
 10
104.759763
 20
125.000579
 30
0.0
 10
104.569963
 20
125.011473
 30
0.0
 10
104.380165
 20
125.022367
 30
0.0
 10
104.190365
 20
125.033260
 30
0.0
 10
104.000565
 20
125.044154
 30
0.0
 10
103.810765
 20
125.055048
 30
0.0
 10
103.620968
 20
125.065942
 30
0.0
 10
103.431168
 20
125.076836
 30
0.0
 10
103.241368
 20
125.087729
 30
0.0
 10
103.051568
 20
125.098623
 30
0.0
 10
102.861770
 20
125.109517
 30
0.0
 10
102.671970
 20
125.120411
 30
0.0
 10
102.482170
 20
125.131304
 30
0.0
 10
102.292370
 20
125.142198
 30
0.0
 10
102.102573
 20
125.153092
 30
0.0
 10
101.912773
 20
125.163986
 30
0.0
 10
101.722973
 20
125.174880
 30
0.0
 10
101.519541
 20
125.187184
 30
0.0
 10
101.316113
 20
125.199489
 30
0.0
 10
101.112681
 20
125.211794
 30
0.0
 10
100.909250
 20
125.224099
 30
0.0
 10
100.705818
 20
125.236404
 30
0.0
 10
100.502390
 20
125.248709
 30
0.0
 10
100.298958
 20
125.261014
 30
0.0
 10
100.095527
 20
125.273319
 30
0.0
 10
99.892098
 20
125.285624
 30
0.0
 10
99.688667
 20
125.297928
 30
0.0
 10
99.485236
 20
125.310233
 30
0.0
 10
99.281804
 20
125.322538
 30
0.0
 10
99.078375
 20
125.334843
 30
0.0
 10
98.874944
 20
125.347148
 30
0.0
 10
98.671513
 20
125.359453
 30
0.0
 10
98.468084
 20
125.371758
 30
0.0
 10
98.264653
 20
125.384063
 30
0.0
 10
98.061221
 20
125.396368
 30
0.0
 10
97.857790
 20
125.408672
 30
0.0
 10
97.654361
 20
125.420977
 30
0.0
 10
97.450930
 20
125.433282
 30
0.0
 10
97.247498
 20
125.445587
 30
0.0
 10
97.044067
 20
125.457892
 30
0.0
 10
96.840638
 20
125.470197
 30
0.0
 10
96.637207
 20
125.482502
 30
0.0
 10
96.433775
 20
125.494807
 30
0.0
 10
96.230347
 20
125.507112
 30
0.0
 10
96.026915
 20
125.519416
 30
0.0
 10
95.823484
 20
125.531721
 30
0.0
 10
95.620053
 20
125.544026
 30
0.0
 10
95.416624
 20
125.556331
 30
0.0
 10
95.213193
 20
125.568636
 30
0.0
 10
94.991606
 20
125.582352
 30
0.0
 10
94.770019
 20
125.596068
 30
0.0
 10
94.548435
 20
125.609784
 30
0.0
 10
94.326848
 20
125.623500
 30
0.0
 10
94.105262
 20
125.637216
 30
0.0
 10
93.883675
 20
125.650932
 30
0.0
 10
93.662091
 20
125.664648
 30
0.0
 10
93.440504
 20
125.678364
 30
0.0
 10
93.218917
 20
125.692080
 30
0.0
 10
92.997330
 20
125.705796
 30
0.0
 10
92.775744
 20
125.719512
 30
0.0
 10
92.554160
 20
125.733228
 30
0.0
 10
92.332573
 20
125.746944
 30
0.0
 10
92.110986
 20
125.760660
 30
0.0
 10
91.889399
 20
125.774376
 30
0.0
 10
91.667815
 20
125.788092
 30
0.0
 10
91.446229
 20
125.801808
 30
0.0
 10
91.224642
 20
125.815524
 30
0.0
 10
91.003055
 20
125.829240
 30
0.0
 10
90.781468
 20
125.842956
 30
0.0
 10
90.559884
 20
125.856672
 30
0.0
 10
90.338298
 20
125.870388
 30
0.0
 10
90.116711
 20
125.884104
 30
0.0
 10
89.895124
 20
125.897820
 30
0.0
 10
89.673537
 20
125.911536
 30
0.0
 10
89.451953
 20
125.925252
 30
0.0
 10
89.230367
 20
125.938968
 30
0.0
 10
89.008780
 20
125.952684
 30
0.0
 10
88.787193
 20
125.966400
 30
0.0
 10
88.565609
 20
125.980116
 30
0.0
 10
88.344022
 20
125.993832
 30
0.0
 10
88.122435
 20
126.007548
 30
0.0
 10
87.878169
 20
126.022647
 30
0.0
 10
87.633900
 20
126.037746
 30
0.0
 10
87.389634
 20
126.052845
 30
0.0
 10
87.145365
 20
126.067944
 30
0.0
 10
86.901099
 20
126.083042
 30
0.0
 10
86.656830
 20
126.098141
 30
0.0
 10
86.412564
 20
126.113240
 30
0.0
 10
86.168298
 20
126.128339
 30
0.0
 10
85.924029
 20
126.143438
 30
0.0
 10
85.679763
 20
126.158537
 30
0.0
 10
85.435494
 20
126.173636
 30
0.0
 10
85.191227
 20
126.188735
 30
0.0
 10
84.946958
 20
126.203834
 30
0.0
 10
84.702692
 20
126.218932
 30
0.0
 10
84.458423
 20
126.234031
 30
0.0
 10
84.214157
 20
126.249130
 30
0.0
 10
83.969891
 20
126.264229
 30
0.0
 10
83.725622
 20
126.279328
 30
0.0
 10
83.481356
 20
126.294427
 30
0.0
 10
83.237087
 20
126.309526
 30
0.0
 10
82.992821
 20
126.324625
 30
0.0
 10
82.748552
 20
126.339724
 30
0.0
 10
82.504286
 20
126.354822
 30
0.0
 10
82.260019
 20
126.369921
 30
0.0
 10
82.015751
 20
126.385020
 30
0.0
 10
81.771484
 20
126.400119
 30
0.0
 10
81.527215
 20
126.415218
 30
0.0
 10
81.282949
 20
126.430317
 30
0.0
 10
81.038680
 20
126.445416
 30
0.0
 10
80.794414
 20
126.460515
 30
0.0
 10
80.550145
 20
126.475614
 30
0.0
 10
80.305879
 20
126.490712
 30
0.0
 10
79.972913
 20
126.511653
 30
0.0
 10
79.639930
 20
126.532256
 30
0.0
 10
79.306928
 20
126.552576
 30
0.0
 10
78.973911
 20
126.572642
 30
0.0
 10
78.640884
 20
126.592482
 30
0.0
 10
78.307847
 20
126.612153
 30
0.0
 10
77.974802
 20
126.631682
 30
0.0
 10
77.641752
 20
126.651099
 30
0.0
 10
77.308704
 20
126.670488
 30
0.0
 10
76.975654
 20
126.689848
 30
0.0
 10
76.642612
 20
126.709237
 30
0.0
 10
76.309573
 20
126.728682
 30
0.0
 10
75.976545
 20
126.748240
 30
0.0
 10
75.643528
 20
126.767939
 30
0.0
 10
75.310529
 20
126.787836
 30
0.0
 10
74.977543
 20
126.807958
 30
0.0
 10
74.644580
 20
126.828335
 30
0.0
 10
74.311637
 20
126.849022
 30
0.0
 10
73.978722
 20
126.870076
 30
0.0
 10
73.645832
 20
126.891496
 30
0.0
 10
73.312977
 20
126.913368
 30
0.0
 10
72.980152
 20
126.935692
 30
0.0
 10
72.647364
 20
126.958524
 30
0.0
 10
72.314616
 20
126.981920
 30
0.0
 10
71.981909
 20
127.005909
 30
0.0
 10
71.649246
 20
127.030547
 30
0.0
 10
71.316627
 20
127.055834
 30
0.0
 10
70.984059
 20
127.081855
 30
0.0
 10
70.651545
 20
127.108638
 30
0.0
 10
70.319084
 20
127.136211
 30
0.0
 10
69.986680
 20
127.164611
 30
0.0
 10
69.654338
 20
127.193886
 30
0.0
 10
69.584260
 20
127.203510
 30
0.0
 10
69.514181
 20
127.213134
 30
0.0
 10
69.444102
 20
127.222757
 30
0.0
 10
69.374024
 20
127.232381
 30
0.0
 10
69.303945
 20
127.242005
 30
0.0
 10
69.233867
 20
127.251629
 30
0.0
 10
69.163788
 20
127.261252
 30
0.0
 10
69.093709
 20
127.270876
 30
0.0
 10
69.023631
 20
127.280500
 30
0.0
 10
68.953552
 20
127.290124
 30
0.0
 10
68.883474
 20
127.299748
 30
0.0
 10
68.813395
 20
127.309371
 30
0.0
 10
68.743316
 20
127.318995
 30
0.0
 10
68.673238
 20
127.328619
 30
0.0
 10
68.603159
 20
127.338243
 30
0.0
 10
68.533081
 20
127.347866
 30
0.0
 10
68.462999
 20
127.357490
 30
0.0
 10
68.392921
 20
127.367114
 30
0.0
 10
68.322842
 20
127.376738
 30
0.0
 10
68.252763
 20
127.386362
 30
0.0
 10
68.182685
 20
127.395985
 30
0.0
 10
68.112606
 20
127.405609
 30
0.0
 10
68.042528
 20
127.415233
 30
0.0
 10
67.972449
 20
127.424857
 30
0.0
 10
67.902370
 20
127.434480
 30
0.0
 10
67.832292
 20
127.444104
 30
0.0
 10
67.762213
 20
127.453728
 30
0.0
 10
67.692135
 20
127.463352
 30
0.0
 10
67.622056
 20
127.472976
 30
0.0
 10
67.551977
 20
127.482599
 30
0.0
 10
67.481899
 20
127.492223
 30
0.0
 10
67.411820
 20
127.501847
 30
0.0
 10
67.334788
 20
127.515478
 30
0.0
 10
67.257755
 20
127.529110
 30
0.0
 10
67.180720
 20
127.542741
 30
0.0
 10
67.103687
 20
127.556372
 30
0.0
 10
67.026655
 20
127.570004
 30
0.0
 10
66.949622
 20
127.583635
 30
0.0
 10
66.872589
 20
127.597266
 30
0.0
 10
66.795557
 20
127.610898
 30
0.0
 10
66.718521
 20
127.624529
 30
0.0
 10
66.641489
 20
127.638160
 30
0.0
 10
66.564456
 20
127.651792
 30
0.0
 10
66.487424
 20
127.665423
 30
0.0
 10
66.410391
 20
127.679054
 30
0.0
 10
66.333356
 20
127.692686
 30
0.0
 10
66.256323
 20
127.706317
 30
0.0
 10
66.179291
 20
127.719948
 30
0.0
 10
66.102258
 20
127.733580
 30
0.0
 10
66.025226
 20
127.747211
 30
0.0
 10
65.948190
 20
127.760842
 30
0.0
 10
65.871158
 20
127.774474
 30
0.0
 10
65.794125
 20
127.788105
 30
0.0
 10
65.717093
 20
127.801736
 30
0.0
 10
65.640060
 20
127.815368
 30
0.0
 10
65.563028
 20
127.828999
 30
0.0
 10
65.485992
 20
127.842630
 30
0.0
 10
65.408960
 20
127.856262
 30
0.0
 10
65.331927
 20
127.869893
 30
0.0
 10
65.254894
 20
127.883524
 30
0.0
 10
65.177862
 20
127.897156
 30
0.0
 10
65.100827
 20
127.910787
 30
0.0
 10
65.023794
 20
127.924418
 30
0.0
 10
64.946761
 20
127.938050
 30
0.0
 10
64.864511
 20
127.955576
 30
0.0
 10
64.782263
 20
127.973102
 30
0.0
 10
64.700012
 20
127.990628
 30
0.0
 10
64.617764
 20
128.008154
 30
0.0
 10
64.535513
 20
128.025680
 30
0.0
 10
64.453265
 20
128.043206
 30
0.0
 10
64.371014
 20
128.060732
 30
0.0
 10
64.288766
 20
128.078258
 30
0.0
 10
64.206515
 20
128.095784
 30
0.0
 10
64.124264
 20
128.113310
 30
0.0
 10
64.042016
 20
128.130836
 30
0.0
 10
63.959765
 20
128.148362
 30
0.0
 10
63.877517
 20
128.165888
 30
0.0
 10
63.795267
 20
128.183414
 30
0.0
 10
63.713019
 20
128.200940
 30
0.0
 10
63.630768
 20
128.218466
 30
0.0
 10
63.548517
 20
128.235992
 30
0.0
 10
63.466269
 20
128.253518
 30
0.0
 10
63.384018
 20
128.271044
 30
0.0
 10
63.301770
 20
128.288570
 30
0.0
 10
63.219519
 20
128.306096
 30
0.0
 10
63.137271
 20
128.323622
 30
0.0
 10
63.055020
 20
128.341148
 30
0.0
 10
62.972772
 20
128.358674
 30
0.0
 10
62.890521
 20
128.376200
 30
0.0
 10
62.808271
 20
128.393726
 30
0.0
 10
62.726022
 20
128.411252
 30
0.0
 10
62.643772
 20
128.428778
 30
0.0
 10
62.561524
 20
128.446304
 30
0.0
 10
62.479273
 20
128.463830
 30
0.0
 10
62.397025
 20
128.481356
 30
0.0
 10
62.314774
 20
128.498882
 30
0.0
 10
62.229043
 20
128.520161
 30
0.0
 10
62.143313
 20
128.541441
 30
0.0
 10
62.057582
 20
128.562720
 30
0.0
 10
61.971851
 20
128.584000
 30
0.0
 10
61.886121
 20
128.605279
 30
0.0
 10
61.800390
 20
128.626559
 30
0.0
 10
61.714659
 20
128.647838
 30
0.0
 10
61.628929
 20
128.669118
 30
0.0
 10
61.543198
 20
128.690398
 30
0.0
 10
61.457467
 20
128.711677
 30
0.0
 10
61.371737
 20
128.732957
 30
0.0
 10
61.286006
 20
128.754236
 30
0.0
 10
61.200276
 20
128.775516
 30
0.0
 10
61.114545
 20
128.796795
 30
0.0
 10
61.028814
 20
128.818075
 30
0.0
 10
60.943084
 20
128.839354
 30
0.0
 10
60.857353
 20
128.860634
 30
0.0
 10
60.771622
 20
128.881914
 30
0.0
 10
60.685892
 20
128.903193
 30
0.0
 10
60.600161
 20
128.924473
 30
0.0
 10
60.514430
 20
128.945752
 30
0.0
 10
60.428700
 20
128.967032
 30
0.0
 10
60.342969
 20
128.988311
 30
0.0
 10
60.257238
 20
129.009591
 30
0.0
 10
60.171508
 20
129.030870
 30
0.0
 10
60.085777
 20
129.052150
 30
0.0
 10
60.000047
 20
129.073430
 30
0.0
 10
59.914316
 20
129.094709
 30
0.0
 10
59.828585
 20
129.115989
 30
0.0
 10
59.742855
 20
129.137268
 30
0.0
 10
59.657124
 20
129.158548
 30
0.0
 10
59.571393
 20
129.179827
 30
0.0
 10
59.483919
 20
129.204748
 30
0.0
 10
59.396447
 20
129.229668
 30
0.0
 10
59.308972
 20
129.254588
 30
0.0
 10
59.221497
 20
129.279508
 30
0.0
 10
59.134025
 20
129.304428
 30
0.0
 10
59.046550
 20
129.329349
 30
0.0
 10
58.959075
 20
129.354269
 30
0.0
 10
58.871604
 20
129.379189
 30
0.0
 10
58.784129
 20
129.404109
 30
0.0
 10
58.696654
 20
129.429030
 30
0.0
 10
58.609182
 20
129.453950
 30
0.0
 10
58.521707
 20
129.478870
 30
0.0
 10
58.434232
 20
129.503790
 30
0.0
 10
58.346761
 20
129.528710
 30
0.0
 10
58.259286
 20
129.553631
 30
0.0
 10
58.171814
 20
129.578551
 30
0.0
 10
58.084339
 20
129.603471
 30
0.0
 10
57.996864
 20
129.628391
 30
0.0
 10
57.909392
 20
129.653312
 30
0.0
 10
57.821917
 20
129.678232
 30
0.0
 10
57.734443
 20
129.703152
 30
0.0
 10
57.646971
 20
129.728072
 30
0.0
 10
57.559496
 20
129.752992
 30
0.0
 10
57.472021
 20
129.777913
 30
0.0
 10
57.384549
 20
129.802833
 30
0.0
 10
57.297074
 20
129.827753
 30
0.0
 10
57.209600
 20
129.852673
 30
0.0
 10
57.122128
 20
129.877594
 30
0.0
 10
57.034653
 20
129.902514
 30
0.0
 10
56.947178
 20
129.927434
 30
0.0
 10
56.859706
 20
129.952354
 30
0.0
 10
56.772231
 20
129.977274
 30
0.0
 10
56.684751
 20
130.005689
 30
0.0
 10
56.597268
 20
130.034106
 30
0.0
 10
56.509787
 20
130.062520
 30
0.0
 10
56.422307
 20
130.090937
 30
0.0
 10
56.334824
 20
130.119351
 30
0.0
 10
56.247343
 20
130.147768
 30
0.0
 10
56.159863
 20
130.176182
 30
0.0
 10
56.072382
 20
130.204599
 30
0.0
 10
55.984899
 20
130.233013
 30
0.0
 10
55.897419
 20
130.261430
 30
0.0
 10
55.809938
 20
130.289844
 30
0.0
 10
55.722455
 20
130.318261
 30
0.0
 10
55.634975
 20
130.346675
 30
0.0
 10
55.547494
 20
130.375092
 30
0.0
 10
55.460011
 20
130.403506
 30
0.0
 10
55.372531
 20
130.431923
 30
0.0
 10
55.285050
 20
130.460337
 30
0.0
 10
55.197567
 20
130.488751
 30
0.0
 10
55.110086
 20
130.517168
 30
0.0
 10
55.022606
 20
130.545583
 30
0.0
 10
54.935123
 20
130.573999
 30
0.0
 10
54.847642
 20
130.602414
 30
0.0
 10
54.760162
 20
130.630831
 30
0.0
 10
54.672682
 20
130.659245
 30
0.0
 10
54.585198
 20
130.687662
 30
0.0
 10
54.497718
 20
130.716076
 30
0.0
 10
54.410237
 20
130.744493
 30
0.0
 10
54.322754
 20
130.772907
 30
0.0
 10
54.235274
 20
130.801324
 30
0.0
 10
54.147793
 20
130.829738
 30
0.0
 10
54.060310
 20
130.858155
 30
0.0
 10
53.972830
 20
130.886569
 30
0.0
 10
53.887079
 20
130.918364
 30
0.0
 10
53.801326
 20
130.950159
 30
0.0
 10
53.715576
 20
130.981957
 30
0.0
 10
53.629822
 20
131.013753
 30
0.0
 10
53.544072
 20
131.045548
 30
0.0
 10
53.458319
 20
131.077343
 30
0.0
 10
53.372568
 20
131.109141
 30
0.0
 10
53.286815
 20
131.140936
 30
0.0
 10
53.201065
 20
131.172731
 30
0.0
 10
53.115312
 20
131.204526
 30
0.0
 10
53.029561
 20
131.236321
 30
0.0
 10
52.943808
 20
131.268119
 30
0.0
 10
52.858058
 20
131.299915
 30
0.0
 10
52.772304
 20
131.331710
 30
0.0
 10
52.686554
 20
131.363505
 30
0.0
 10
52.600804
 20
131.395303
 30
0.0
 10
52.515050
 20
131.427098
 30
0.0
 10
52.429300
 20
131.458893
 30
0.0
 10
52.343547
 20
131.490688
 30
0.0
 10
52.257796
 20
131.522483
 30
0.0
 10
52.172043
 20
131.554281
 30
0.0
 10
52.086293
 20
131.586077
 30
0.0
 10
52.000539
 20
131.617872
 30
0.0
 10
51.914789
 20
131.649667
 30
0.0
 10
51.829036
 20
131.681462
 30
0.0
 10
51.743285
 20
131.713260
 30
0.0
 10
51.657532
 20
131.745055
 30
0.0
 10
51.571782
 20
131.776850
 30
0.0
 10
51.486029
 20
131.808646
 30
0.0
 10
51.400278
 20
131.840443
 30
0.0
 10
51.314525
 20
131.872239
 30
0.0
 10
51.228775
 20
131.904034
 30
0.0
 10
51.830763
 20
133.469938
 30
0.0
 10
52.384373
 20
134.937491
 30
0.0
 10
52.890270
 20
136.312181
 30
0.0
 10
53.349133
 20
137.599507
 30
0.0
 10
53.761634
 20
138.804954
 30
0.0
 10
54.128441
 20
139.934018
 30
0.0
 10
54.450231
 20
140.992193
 30
0.0
 10
54.727675
 20
141.984966
 30
0.0
 10
54.961449
 20
142.917832
 30
0.0
 10
55.152222
 20
143.796283
 30
0.0
 10
55.300666
 20
144.625813
 30
0.0
 10
55.407458
 20
145.411909
 30
0.0
 10
55.473267
 20
146.160069
 30
0.0
 10
55.498780
 20
146.875782
 30
0.0
 10
55.484641
 20
147.564539
 30
0.0
 10
55.431540
 20
148.231834
 30
0.0
 10
55.340151
 20
148.883161
 30
0.0
 10
55.211145
 20
149.524008
 30
0.0
 10
55.045195
 20
150.159869
 30
0.0
 10
54.842972
 20
150.796235
 30
0.0
 10
54.605149
 20
151.438601
 30
0.0
 10
54.332398
 20
152.092459
 30
0.0
 10
54.025394
 20
152.763296
 30
0.0
 10
53.684811
 20
153.456608
 30
0.0
 10
53.311315
 20
154.177889
 30
0.0
 10
52.905587
 20
154.932628
 30
0.0
 10
52.468295
 20
155.726318
 30
0.0
 10
52.000113
 20
156.564451
 30
0.0
 10
51.501715
 20
157.452519
 30
0.0
 10
50.973770
 20
158.396016
 30
0.0
 10
50.416954
 20
159.400431
 30
0.0
 10
49.831938
 20
160.471259
 30
0.0
 10
49.953393
 20
160.541698
 30
0.0
 10
50.074847
 20
160.612138
 30
0.0
 10
50.196301
 20
160.682578
 30
0.0
 10
50.317756
 20
160.753018
 30
0.0
 10
50.439210
 20
160.823458
 30
0.0
 10
50.560664
 20
160.893898
 30
0.0
 10
50.682119
 20
160.964337
 30
0.0
 10
50.803573
 20
161.034777
 30
0.0
 10
50.925027
 20
161.105217
 30
0.0
 10
51.046482
 20
161.175657
 30
0.0
 10
51.167936
 20
161.246097
 30
0.0
 10
51.289390
 20
161.316537
 30
0.0
 10
51.410845
 20
161.386977
 30
0.0
 10
51.532299
 20
161.457416
 30
0.0
 10
51.653753
 20
161.527856
 30
0.0
 10
51.775208
 20
161.598296
 30
0.0
 10
51.896659
 20
161.668736
 30
0.0
 10
52.018113
 20
161.739176
 30
0.0
 10
52.139568
 20
161.809616
 30
0.0
 10
52.261022
 20
161.880055
 30
0.0
 10
52.382476
 20
161.950495
 30
0.0
 10
52.503931
 20
162.020935
 30
0.0
 10
52.625385
 20
162.091375
 30
0.0
 10
52.746839
 20
162.161815
 30
0.0
 10
52.868294
 20
162.232255
 30
0.0
 10
52.989748
 20
162.302695
 30
0.0
 10
53.111202
 20
162.373134
 30
0.0
 10
53.232657
 20
162.443574
 30
0.0
 10
53.354111
 20
162.514014
 30
0.0
 10
53.475565
 20
162.584454
 30
0.0
 10
53.597020
 20
162.654894
 30
0.0
 10
53.718474
 20
162.725334
 30
0.0
 10
53.852044
 20
162.790784
 30
0.0
 10
53.985617
 20
162.856231
 30
0.0
 10
54.119187
 20
162.921681
 30
0.0
 10
54.252760
 20
162.987131
 30
0.0
 10
54.386330
 20
163.052579
 30
0.0
 10
54.519901
 20
163.118029
 30
0.0
 10
54.653474
 20
163.183479
 30
0.0
 10
54.787044
 20
163.248926
 30
0.0
 10
54.920614
 20
163.314377
 30
0.0
 10
55.054187
 20
163.379827
 30
0.0
 10
55.187757
 20
163.445274
 30
0.0
 10
55.321330
 20
163.510724
 30
0.0
 10
55.454900
 20
163.576174
 30
0.0
 10
55.588470
 20
163.641622
 30
0.0
 10
55.722043
 20
163.707072
 30
0.0
 10
55.855613
 20
163.772522
 30
0.0
 10
55.989183
 20
163.837969
 30
0.0
 10
56.122756
 20
163.903419
 30
0.0
 10
56.256326
 20
163.968867
 30
0.0
 10
56.389899
 20
164.034317
 30
0.0
 10
56.523469
 20
164.099767
 30
0.0
 10
56.657040
 20
164.165214
 30
0.0
 10
56.790613
 20
164.230665
 30
0.0
 10
56.924183
 20
164.296115
 30
0.0
 10
57.057753
 20
164.361562
 30
0.0
 10
57.191326
 20
164.427012
 30
0.0
 10
57.324896
 20
164.492462
 30
0.0
 10
57.458469
 20
164.557910
 30
0.0
 10
57.592039
 20
164.623360
 30
0.0
 10
57.725609
 20
164.688810
 30
0.0
 10
57.859182
 20
164.754257
 30
0.0
 10
57.992752
 20
164.819708
 30
0.0
 10
58.136607
 20
164.880244
 30
0.0
 10
58.280461
 20
164.940781
 30
0.0
 10
58.424318
 20
165.001315
 30
0.0
 10
58.568172
 20
165.061851
 30
0.0
 10
58.712027
 20
165.122388
 30
0.0
 10
58.855881
 20
165.182925
 30
0.0
 10
58.999735
 20
165.243461
 30
0.0
 10
59.143592
 20
165.303998
 30
0.0
 10
59.287447
 20
165.364532
 30
0.0
 10
59.431301
 20
165.425069
 30
0.0
 10
59.575155
 20
165.485605
 30
0.0
 10
59.719010
 20
165.546142
 30
0.0
 10
59.862864
 20
165.606679
 30
0.0
 10
60.006721
 20
165.667212
 30
0.0
 10
60.150575
 20
165.727749
 30
0.0
 10
60.294430
 20
165.788286
 30
0.0
 10
60.438284
 20
165.848822
 30
0.0
 10
60.582138
 20
165.909359
 30
0.0
 10
60.725995
 20
165.969893
 30
0.0
 10
60.869850
 20
166.030430
 30
0.0
 10
61.013704
 20
166.090966
 30
0.0
 10
61.157558
 20
166.151503
 30
0.0
 10
61.301413
 20
166.212040
 30
0.0
 10
61.445270
 20
166.272573
 30
0.0
 10
61.589124
 20
166.333110
 30
0.0
 10
61.732978
 20
166.393647
 30
0.0
 10
61.876833
 20
166.454183
 30
0.0
 10
62.020687
 20
166.514720
 30
0.0
 10
62.164541
 20
166.575257
 30
0.0
 10
62.308399
 20
166.635791
 30
0.0
 10
62.452253
 20
166.696327
 30
0.0
 10
62.596107
 20
166.756864
 30
0.0
 10
62.748414
 20
166.812563
 30
0.0
 10
62.900718
 20
166.868266
 30
0.0
 10
63.053025
 20
166.923965
 30
0.0
 10
63.205332
 20
166.979667
 30
0.0
 10
63.357636
 20
167.035366
 30
0.0
 10
63.509943
 20
167.091066
 30
0.0
 10
63.662250
 20
167.146768
 30
0.0
 10
63.814556
 20
167.202467
 30
0.0
 10
63.966860
 20
167.258170
 30
0.0
 10
64.119167
 20
167.313869
 30
0.0
 10
64.271474
 20
167.369568
 30
0.0
 10
64.423778
 20
167.425271
 30
0.0
 10
64.576085
 20
167.480970
 30
0.0
 10
64.728392
 20
167.536672
 30
0.0
 10
64.880696
 20
167.592372
 30
0.0
 10
65.033003
 20
167.648074
 30
0.0
 10
65.185310
 20
167.703773
 30
0.0
 10
65.337614
 20
167.759472
 30
0.0
 10
65.489921
 20
167.815175
 30
0.0
 10
65.642228
 20
167.870874
 30
0.0
 10
65.794532
 20
167.926576
 30
0.0
 10
65.946838
 20
167.982276
 30
0.0
 10
66.099145
 20
168.037975
 30
0.0
 10
66.251452
 20
168.093677
 30
0.0
 10
66.403756
 20
168.149377
 30
0.0
 10
66.556063
 20
168.205079
 30
0.0
 10
66.708370
 20
168.260778
 30
0.0
 10
66.860674
 20
168.316478
 30
0.0
 10
67.012981
 20
168.372180
 30
0.0
 10
67.165288
 20
168.427879
 30
0.0
 10
67.317592
 20
168.483581
 30
0.0
 10
67.469899
 20
168.539281
 30
0.0
 10
67.789036
 20
168.648266
 30
0.0
 10
68.108511
 20
168.756092
 30
0.0
 10
68.428314
 20
168.862795
 30
0.0
 10
68.748436
 20
168.968419
 30
0.0
 10
69.068860
 20
169.073002
 30
0.0
 10
69.389577
 20
169.176586
 30
0.0
 10
69.710579
 20
169.279208
 30
0.0
 10
70.031850
 20
169.380910
 30
0.0
 10
70.353383
 20
169.481731
 30
0.0
 10
70.675161
 20
169.581711
 30
0.0
 10
70.997177
 20
169.680892
 30
0.0
 10
71.319421
 20
169.779314
 30
0.0
 10
71.641877
 20
169.877014
 30
0.0
 10
71.964536
 20
169.974036
 30
0.0
 10
72.287390
 20
170.070415
 30
0.0
 10
72.610421
 20
170.166196
 30
0.0
 10
72.933622
 20
170.261418
 30
0.0
 10
73.256984
 20
170.356117
 30
0.0
 10
73.580490
 20
170.450340
 30
0.0
 10
73.904131
 20
170.544120
 30
0.0
 10
74.227896
 20
170.637501
 30
0.0
 10
74.551774
 20
170.730522
 30
0.0
 10
74.875754
 20
170.823226
 30
0.0
 10
75.199821
 20
170.915648
 30
0.0
 10
75.523971
 20
171.007831
 30
0.0
 10
75.848187
 20
171.099815
 30
0.0
 10
76.172458
 20
171.191639
 30
0.0
 10
76.496774
 20
171.283341
 30
0.0
 10
76.821123
 20
171.374968
 30
0.0
 10
77.145495
 20
171.466555
 30
0.0
 10
77.469879
 20
171.558141
 30
0.0
 10
77.794262
 20
171.649768
 30
0.0
 10
77.960928
 20
171.691424
 30
0.0
 10
78.127595
 20
171.733082
 30
0.0
 10
78.294261
 20
171.774738
 30
0.0
 10
78.460927
 20
171.816394
 30
0.0
 10
78.627594
 20
171.858050
 30
0.0
 10
78.794257
 20
171.899709
 30
0.0
 10
78.960924
 20
171.941365
 30
0.0
 10
79.127590
 20
171.983021
 30
0.0
 10
79.294256
 20
172.024677
 30
0.0
 10
79.460923
 20
172.066336
 30
0.0
 10
79.627589
 20
172.107992
 30
0.0
 10
79.794255
 20
172.149648
 30
0.0
 10
79.960922
 20
172.191304
 30
0.0
 10
80.127588
 20
172.232963
 30
0.0
 10
80.294254
 20
172.274619
 30
0.0
 10
80.460921
 20
172.316275
 30
0.0
 10
80.627584
 20
172.357931
 30
0.0
 10
80.794250
 20
172.399590
 30
0.0
 10
80.960917
 20
172.441246
 30
0.0
 10
81.127583
 20
172.482902
 30
0.0
 10
81.294249
 20
172.524558
 30
0.0
 10
81.460916
 20
172.566214
 30
0.0
 10
81.627582
 20
172.607872
 30
0.0
 10
81.794248
 20
172.649528
 30
0.0
 10
81.960915
 20
172.691184
 30
0.0
 10
82.127581
 20
172.732840
 30
0.0
 10
82.294245
 20
172.774499
 30
0.0
 10
82.460911
 20
172.816155
 30
0.0
 10
82.627577
 20
172.857811
 30
0.0
 10
82.794244
 20
172.899467
 30
0.0
 10
82.960910
 20
172.941126
 30
0.0
 10
83.127576
 20
172.982782
 30
0.0
 10
83.295363
 20
173.019911
 30
0.0
 10
83.463150
 20
173.057043
 30
0.0
 10
83.630937
 20
173.094172
 30
0.0
 10
83.798726
 20
173.131302
 30
0.0
 10
83.966513
 20
173.168434
 30
0.0
 10
84.134300
 20
173.205563
 30
0.0
 10
84.302086
 20
173.242695
 30
0.0
 10
84.469873
 20
173.279824
 30
0.0
 10
84.637660
 20
173.316953
 30
0.0
 10
84.805447
 20
173.354085
 30
0.0
 10
84.973233
 20
173.391214
 30
0.0
 10
85.141023
 20
173.428343
 30
0.0
 10
85.308810
 20
173.465475
 30
0.0
 10
85.476596
 20
173.502604
 30
0.0
 10
85.644383
 20
173.539736
 30
0.0
 10
85.812170
 20
173.576866
 30
0.0
 10
85.979957
 20
173.613995
 30
0.0
 10
86.147743
 20
173.651127
 30
0.0
 10
86.315530
 20
173.688256
 30
0.0
 10
86.483320
 20
173.725385
 30
0.0
 10
86.651107
 20
173.762517
 30
0.0
 10
86.818893
 20
173.799646
 30
0.0
 10
86.986680
 20
173.836778
 30
0.0
 10
87.154467
 20
173.873907
 30
0.0
 10
87.322254
 20
173.911036
 30
0.0
 10
87.490040
 20
173.948168
 30
0.0
 10
87.657827
 20
173.985298
 30
0.0
 10
87.825617
 20
174.022427
 30
0.0
 10
87.993403
 20
174.059559
 30
0.0
 10
88.161190
 20
174.096688
 30
0.0
 10
88.328977
 20
174.133820
 30
0.0
 10
88.496764
 20
174.170949
 30
0.0
 10
88.663842
 20
174.203630
 30
0.0
 10
88.830918
 20
174.236309
 30
0.0
 10
88.997996
 20
174.268990
 30
0.0
 10
89.165074
 20
174.301671
 30
0.0
 10
89.332150
 20
174.334353
 30
0.0
 10
89.499228
 20
174.367031
 30
0.0
 10
89.666304
 20
174.399713
 30
0.0
 10
89.833382
 20
174.432394
 30
0.0
 10
90.000461
 20
174.465072
 30
0.0
 10
90.167536
 20
174.497754
 30
0.0
 10
90.334615
 20
174.530435
 30
0.0
 10
90.501693
 20
174.563116
 30
0.0
 10
90.668769
 20
174.595795
 30
0.0
 10
90.835847
 20
174.628476
 30
0.0
 10
91.002922
 20
174.661158
 30
0.0
 10
91.170001
 20
174.693836
 30
0.0
 10
91.337079
 20
174.726518
 30
0.0
 10
91.504155
 20
174.759199
 30
0.0
 10
91.671233
 20
174.791880
 30
0.0
 10
91.838312
 20
174.824559
 30
0.0
 10
92.005387
 20
174.857240
 30
0.0
 10
92.172465
 20
174.889921
 30
0.0
 10
92.339541
 20
174.922603
 30
0.0
 10
92.506619
 20
174.955281
 30
0.0
 10
92.673698
 20
174.987963
 30
0.0
 10
92.840773
 20
175.020644
 30
0.0
 10
93.007852
 20
175.053322
 30
0.0
 10
93.174930
 20
175.086004
 30
0.0
 10
93.342006
 20
175.118685
 30
0.0
 10
93.509084
 20
175.151366
 30
0.0
 10
93.676160
 20
175.184045
 30
0.0
 10
93.843238
 20
175.216726
 30
0.0
 10
94.007773
 20
175.245036
 30
0.0
 10
94.172306
 20
175.273343
 30
0.0
 10
94.336842
 20
175.301653
 30
0.0
 10
94.501375
 20
175.329959
 30
0.0
 10
94.665910
 20
175.358269
 30
0.0
 10
94.830443
 20
175.386579
 30
0.0
 10
94.994978
 20
175.414886
 30
0.0
 10
95.159511
 20
175.443195
 30
0.0
 10
95.324047
 20
175.471502
 30
0.0
 10
95.488579
 20
175.499812
 30
0.0
 10
95.653115
 20
175.528122
 30
0.0
 10
95.817648
 20
175.556429
 30
0.0
 10
95.982183
 20
175.584738
 30
0.0
 10
96.146716
 20
175.613045
 30
0.0
 10
96.311252
 20
175.641355
 30
0.0
 10
96.475787
 20
175.669665
 30
0.0
 10
96.640320
 20
175.697972
 30
0.0
 10
96.804855
 20
175.726281
 30
0.0
 10
96.969388
 20
175.754588
 30
0.0
 10
97.133924
 20
175.782898
 30
0.0
 10
97.298456
 20
175.811205
 30
0.0
 10
97.462992
 20
175.839514
 30
0.0
 10
97.627525
 20
175.867824
 30
0.0
 10
97.792060
 20
175.896131
 30
0.0
 10
97.956593
 20
175.924441
 30
0.0
 10
98.121129
 20
175.952748
 30
0.0
 10
98.285661
 20
175.981057
 30
0.0
 10
98.450197
 20
176.009367
 30
0.0
 10
98.614730
 20
176.037674
 30
0.0
 10
98.779265
 20
176.065984
 30
0.0
 10
98.943798
 20
176.094291
 30
0.0
 10
99.108333
 20
176.122600
 30
0.0
 10
99.219123
 20
176.138405
 30
0.0
 10
99.329909
 20
176.154209
 30
0.0
 10
99.440698
 20
176.170014
 30
0.0
 10
99.551487
 20
176.185818
 30
0.0
 10
99.662274
 20
176.201623
 30
0.0
 10
99.773063
 20
176.217427
 30
0.0
 10
99.883852
 20
176.233231
 30
0.0
 10
99.994638
 20
176.249036
 30
0.0
 10
100.105427
 20
176.264840
 30
0.0
 10
100.216216
 20
176.280645
 30
0.0
 10
100.327003
 20
176.296449
 30
0.0
 10
100.437792
 20
176.312254
 30
0.0
 10
100.548581
 20
176.328058
 30
0.0
 10
100.659367
 20
176.343863
 30
0.0
 10
100.770157
 20
176.359667
 30
0.0
 10
100.880946
 20
176.375471
 30
0.0
 10
100.991732
 20
176.391276
 30
0.0
 10
101.102521
 20
176.407080
 30
0.0
 10
101.213308
 20
176.422885
 30
0.0
 10
101.324097
 20
176.438689
 30
0.0
 10
101.434886
 20
176.454494
 30
0.0
 10
101.545672
 20
176.470298
 30
0.0
 10
101.656461
 20
176.486103
 30
0.0
 10
101.767251
 20
176.501907
 30
0.0
 10
101.878037
 20
176.517711
 30
0.0
 10
101.988826
 20
176.533516
 30
0.0
 10
102.099615
 20
176.549320
 30
0.0
 10
102.210402
 20
176.565125
 30
0.0
 10
102.321191
 20
176.580929
 30
0.0
 10
102.431980
 20
176.596734
 30
0.0
 10
102.542766
 20
176.612538
 30
0.0
 10
102.653555
 20
176.628343
 30
0.0
 10
102.781382
 20
176.643131
 30
0.0
 10
102.909209
 20
176.657919
 30
0.0
 10
103.037036
 20
176.672708
 30
0.0
 10
103.164863
 20
176.687496
 30
0.0
 10
103.292687
 20
176.702285
 30
0.0
 10
103.420514
 20
176.717073
 30
0.0
 10
103.548341
 20
176.731862
 30
0.0
 10
103.676168
 20
176.746650
 30
0.0
 10
103.803995
 20
176.761439
 30
0.0
 10
103.931822
 20
176.776227
 30
0.0
 10
104.059649
 20
176.791015
 30
0.0
 10
104.187475
 20
176.805804
 30
0.0
 10
104.315300
 20
176.820592
 30
0.0
 10
104.443126
 20
176.835381
 30
0.0
 10
104.570953
 20
176.850169
 30
0.0
 10
104.698780
 20
176.864958
 30
0.0
 10
104.826607
 20
176.879746
 30
0.0
 10
104.954434
 20
176.894535
 30
0.0
 10
105.082261
 20
176.909323
 30
0.0
 10
105.210088
 20
176.924111
 30
0.0
 10
105.337912
 20
176.938900
 30
0.0
 10
105.465739
 20
176.953688
 30
0.0
 10
105.593566
 20
176.968477
 30
0.0
 10
105.721393
 20
176.983265
 30
0.0
 10
105.849220
 20
176.998054
 30
0.0
 10
105.977047
 20
177.012842
 30
0.0
 10
106.104873
 20
177.027631
 30
0.0
 10
106.232700
 20
177.042419
 30
0.0
 10
106.360524
 20
177.057207
 30
0.0
 10
106.488351
 20
177.071996
 30
0.0
 10
106.616178
 20
177.086784
 30
0.0
 10
106.744005
 20
177.101573
 30
0.0
 10
106.886158
 20
177.115261
 30
0.0
 10
107.028310
 20
177.128977
 30
0.0
 10
107.170463
 20
177.142693
 30
0.0
 10
107.312615
 20
177.156409
 30
0.0
 10
107.454768
 20
177.170125
 30
0.0
 10
107.596917
 20
177.183841
 30
0.0
 10
107.739070
 20
177.197528
 30
0.0
 10
107.881222
 20
177.211244
 30
0.0
 10
108.023375
 20
177.224932
 30
0.0
 10
108.165527
 20
177.238648
 30
0.0
 10
108.307680
 20
177.252364
 30
0.0
 10
108.449832
 20
177.266080
 30
0.0
 10
108.591985
 20
177.279796
 30
0.0
 10
108.734138
 20
177.293512
 30
0.0
 10
108.876290
 20
177.307200
 30
0.0
 10
109.018443
 20
177.320888
 30
0.0
 10
109.160592
 20
177.334604
 30
0.0
 10
109.302745
 20
177.348320
 30
0.0
 10
109.444897
 20
177.362036
 30
0.0
 10
109.587050
 20
177.375723
 30
0.0
 10
109.729202
 20
177.389439
 30
0.0
 10
109.871355
 20
177.403127
 30
0.0
 10
110.013507
 20
177.416843
 30
0.0
 10
110.155660
 20
177.430531
 30
0.0
 10
110.297812
 20
177.444247
 30
0.0
 10
110.439965
 20
177.457963
 30
0.0
 10
110.582115
 20
177.471679
 30
0.0
 10
110.724267
 20
177.485395
 30
0.0
 10
110.866420
 20
177.499111
 30
0.0
 10
111.008572
 20
177.512799
 30
0.0
 10
111.150725
 20
177.526515
 30
0.0
 10
111.292877
 20
177.540203
 30
0.0
 10
111.446646
 20
177.552761
 30
0.0
 10
111.600415
 20
177.565320
 30
0.0
 10
111.754183
 20
177.577879
 30
0.0
 10
111.907949
 20
177.590438
 30
0.0
 10
112.061718
 20
177.602997
 30
0.0
 10
112.215487
 20
177.615556
 30
0.0
 10
112.369256
 20
177.628115
 30
0.0
 10
112.523024
 20
177.640674
 30
0.0
 10
112.676793
 20
177.653233
 30
0.0
 10
112.830559
 20
177.665791
 30
0.0
 10
112.984328
 20
177.678350
 30
0.0
 10
113.138097
 20
177.690909
 30
0.0
 10
113.291866
 20
177.703468
 30
0.0
 10
113.445634
 20
177.716027
 30
0.0
 10
113.599403
 20
177.728586
 30
0.0
 10
113.753172
 20
177.741145
 30
0.0
 10
113.906938
 20
177.753704
 30
0.0
 10
114.060707
 20
177.766263
 30
0.0
 10
114.214475
 20
177.778821
 30
0.0
 10
114.368244
 20
177.791380
 30
0.0
 10
114.522013
 20
177.803939
 30
0.0
 10
114.675782
 20
177.816498
 30
0.0
 10
114.829548
 20
177.829057
 30
0.0
 10
114.983316
 20
177.841616
 30
0.0
 10
115.137085
 20
177.854175
 30
0.0
 10
115.290854
 20
177.866734
 30
0.0
 10
115.444623
 20
177.879293
 30
0.0
 10
115.598392
 20
177.891851
 30
0.0
 10
115.752158
 20
177.904410
 30
0.0
 10
115.905926
 20
177.916969
 30
0.0
 10
116.059695
 20
177.929528
 30
0.0
 10
116.213464
 20
177.942087
 30
0.0
 10
116.376137
 20
177.953461
 30
0.0
 10
116.538810
 20
177.964834
 30
0.0
 10
116.701483
 20
177.976208
 30
0.0
 10
116.864155
 20
177.987581
 30
0.0
 10
117.026825
 20
177.998955
 30
0.0
 10
117.189498
 20
178.010328
 30
0.0
 10
117.352171
 20
178.021702
 30
0.0
 10
117.514844
 20
178.033075
 30
0.0
 10
117.677517
 20
178.044449
 30
0.0
 10
117.840190
 20
178.055823
 30
0.0
 10
118.002863
 20
178.067196
 30
0.0
 10
118.165536
 20
178.078570
 30
0.0
 10
118.328206
 20
178.089943
 30
0.0
 10
118.490879
 20
178.101317
 30
0.0
 10
118.653552
 20
178.112690
 30
0.0
 10
118.816224
 20
178.124064
 30
0.0
 10
118.978897
 20
178.135437
 30
0.0
 10
119.141570
 20
178.146811
 30
0.0
 10
119.304243
 20
178.158185
 30
0.0
 10
119.466916
 20
178.169558
 30
0.0
 10
119.629586
 20
178.180932
 30
0.0
 10
119.792259
 20
178.192305
 30
0.0
 10
119.954932
 20
178.203679
 30
0.0
 10
120.117605
 20
178.215052
 30
0.0
 10
120.280278
 20
178.226426
 30
0.0
 10
120.442950
 20
178.237799
 30
0.0
 10
120.605623
 20
178.249173
 30
0.0
 10
120.768296
 20
178.260547
 30
0.0
 10
120.930966
 20
178.271920
 30
0.0
 10
121.093639
 20
178.283294
 30
0.0
 10
121.256312
 20
178.294667
 30
0.0
 10
121.418985
 20
178.306041
 30
0.0
 10
121.587850
 20
178.316173
 30
0.0
 10
121.756718
 20
178.326304
 30
0.0
 10
121.925582
 20
178.336436
 30
0.0
 10
122.094447
 20
178.346568
 30
0.0
 10
122.263312
 20
178.356700
 30
0.0
 10
122.432180
 20
178.366831
 30
0.0
 10
122.601045
 20
178.376963
 30
0.0
 10
122.769909
 20
178.387095
 30
0.0
 10
122.938777
 20
178.397227
 30
0.0
 10
123.107642
 20
178.407359
 30
0.0
 10
123.276507
 20
178.417490
 30
0.0
 10
123.445372
 20
178.427622
 30
0.0
 10
123.614239
 20
178.437754
 30
0.0
 10
123.783104
 20
178.447886
 30
0.0
 10
123.951969
 20
178.458017
 30
0.0
 10
124.120837
 20
178.468149
 30
0.0
 10
124.289701
 20
178.478281
 30
0.0
 10
124.458566
 20
178.488413
 30
0.0
 10
124.627431
 20
178.498545
 30
0.0
 10
124.796299
 20
178.508676
 30
0.0
 10
124.965164
 20
178.518808
 30
0.0
 10
125.134029
 20
178.528940
 30
0.0
 10
125.302893
 20
178.539072
 30
0.0
 10
125.471761
 20
178.549203
 30
0.0
 10
125.640626
 20
178.559335
 30
0.0
 10
125.809491
 20
178.569467
 30
0.0
 10
125.978358
 20
178.579599
 30
0.0
 10
126.147223
 20
178.589731
 30
0.0
 10
126.316088
 20
178.599862
 30
0.0
 10
126.484953
 20
178.609994
 30
0.0
 10
126.653821
 20
178.620126
 30
0.0
 10
126.822685
 20
178.630258
 30
0.0
 10
126.995033
 20
178.639091
 30
0.0
 10
127.167383
 20
178.647925
 30
0.0
 10
127.339731
 20
178.656758
 30
0.0
 10
127.512078
 20
178.665592
 30
0.0
 10
127.684428
 20
178.674425
 30
0.0
 10
127.856776
 20
178.683259
 30
0.0
 10
128.029123
 20
178.692093
 30
0.0
 10
128.201474
 20
178.700926
 30
0.0
 10
128.373821
 20
178.709760
 30
0.0
 10
128.546169
 20
178.718593
 30
0.0
 10
128.718516
 20
178.727427
 30
0.0
 10
128.890866
 20
178.736260
 30
0.0
 10
129.063214
 20
178.745094
 30
0.0
 10
129.235561
 20
178.753927
 30
0.0
 10
129.407912
 20
178.762761
 30
0.0
 10
129.580259
 20
178.771595
 30
0.0
 10
129.752606
 20
178.780428
 30
0.0
 10
129.924957
 20
178.789262
 30
0.0
 10
130.097304
 20
178.798095
 30
0.0
 10
130.269652
 20
178.806929
 30
0.0
 10
130.442002
 20
178.815762
 30
0.0
 10
130.614349
 20
178.824596
 30
0.0
 10
130.786697
 20
178.833429
 30
0.0
 10
130.959047
 20
178.842263
 30
0.0
 10
131.131395
 20
178.851097
 30
0.0
 10
131.303742
 20
178.859930
 30
0.0
 10
131.476090
 20
178.868764
 30
0.0
 10
131.648440
 20
178.877597
 30
0.0
 10
131.820787
 20
178.886431
 30
0.0
 10
131.993135
 20
178.895264
 30
0.0
 10
132.165485
 20
178.904098
 30
0.0
 10
132.337833
 20
178.912931
 30
0.0
 10
132.510951
 20
178.920410
 30
0.0
 10
132.684071
 20
178.927889
 30
0.0
 10
132.857189
 20
178.935368
 30
0.0
 10
133.030310
 20
178.942847
 30
0.0
 10
133.203428
 20
178.950326
 30
0.0
 10
133.376549
 20
178.957805
 30
0.0
 10
133.549667
 20
178.965284
 30
0.0
 10
133.722787
 20
178.972763
 30
0.0
 10
133.895905
 20
178.980241
 30
0.0
 10
134.069026
 20
178.987720
 30
0.0
 10
134.242144
 20
178.995199
 30
0.0
 10
134.415265
 20
179.002678
 30
0.0
 10
134.588383
 20
179.010157
 30
0.0
 10
134.761503
 20
179.017636
 30
0.0
 10
134.934621
 20
179.025115
 30
0.0
 10
135.107742
 20
179.032594
 30
0.0
 10
135.280860
 20
179.040073
 30
0.0
 10
135.453978
 20
179.047551
 30
0.0
 10
135.627099
 20
179.055030
 30
0.0
 10
135.800217
 20
179.062509
 30
0.0
 10
135.973337
 20
179.069988
 30
0.0
 10
136.146455
 20
179.077467
 30
0.0
 10
136.319576
 20
179.084946
 30
0.0
 10
136.492694
 20
179.092425
 30
0.0
 10
136.665815
 20
179.099904
 30
0.0
 10
136.838933
 20
179.107383
 30
0.0
 10
137.012053
 20
179.114861
 30
0.0
 10
137.185171
 20
179.122340
 30
0.0
 10
137.358292
 20
179.129819
 30
0.0
 10
137.531410
 20
179.137298
 30
0.0
 10
137.704531
 20
179.144777
 30
0.0
 10
137.877649
 20
179.152256
 30
0.0
 10
138.052675
 20
179.157985
 30
0.0
 10
138.227700
 20
179.163714
 30
0.0
 10
138.402726
 20
179.169443
 30
0.0
 10
138.577752
 20
179.175172
 30
0.0
 10
138.752778
 20
179.180901
 30
0.0
 10
138.927803
 20
179.186631
 30
0.0
 10
139.102829
 20
179.192360
 30
0.0
 10
139.277855
 20
179.198089
 30
0.0
 10
139.452881
 20
179.203818
 30
0.0
 10
139.627906
 20
179.209547
 30
0.0
 10
139.802932
 20
179.215276
 30
0.0
 10
139.977958
 20
179.221005
 30
0.0
 10
140.152984
 20
179.226734
 30
0.0
 10
140.328009
 20
179.232463
 30
0.0
 10
140.503035
 20
179.238193
 30
0.0
 10
140.678064
 20
179.243922
 30
0.0
 10
140.853089
 20
179.249651
 30
0.0
 10
141.028115
 20
179.255380
 30
0.0
 10
141.203141
 20
179.261109
 30
0.0
 10
141.378167
 20
179.266838
 30
0.0
 10
141.553192
 20
179.272567
 30
0.0
 10
141.728218
 20
179.278296
 30
0.0
 10
141.903244
 20
179.284025
 30
0.0
 10
142.078270
 20
179.289755
 30
0.0
 10
142.253295
 20
179.295484
 30
0.0
 10
142.428321
 20
179.301213
 30
0.0
 10
142.603347
 20
179.306942
 30
0.0
 10
142.778373
 20
179.312671
 30
0.0
 10
142.953399
 20
179.318400
 30
0.0
 10
143.128424
 20
179.324129
 30
0.0
 10
143.303450
 20
179.329858
 30
0.0
 10
143.478476
 20
179.335587
 30
0.0
 10
143.654345
 20
179.339341
 30
0.0
 10
143.830215
 20
179.343095
 30
0.0
 10
144.006085
 20
179.346848
 30
0.0
 10
144.181951
 20
179.350602
 30
0.0
 10
144.357821
 20
179.354355
 30
0.0
 10
144.533691
 20
179.358109
 30
0.0
 10
144.709560
 20
179.361862
 30
0.0
 10
144.885430
 20
179.365616
 30
0.0
 10
145.061299
 20
179.369369
 30
0.0
 10
145.237166
 20
179.373123
 30
0.0
 10
145.413036
 20
179.376877
 30
0.0
 10
145.588905
 20
179.380630
 30
0.0
 10
145.764775
 20
179.384384
 30
0.0
 10
145.940645
 20
179.388137
 30
0.0
 10
146.116514
 20
179.391891
 30
0.0
 10
146.292384
 20
179.395644
 30
0.0
 10
146.468251
 20
179.399398
 30
0.0
 10
146.644120
 20
179.403151
 30
0.0
 10
146.819990
 20
179.406905
 30
0.0
 10
146.995859
 20
179.410659
 30
0.0
 10
147.171729
 20
179.414412
 30
0.0
 10
147.347599
 20
179.418166
 30
0.0
 10
147.523465
 20
179.421919
 30
0.0
 10
147.699335
 20
179.425673
 30
0.0
 10
147.875204
 20
179.429426
 30
0.0
 10
148.051074
 20
179.433180
 30
0.0
 10
148.226944
 20
179.436933
 30
0.0
 10
148.402813
 20
179.440687
 30
0.0
 10
148.578680
 20
179.444441
 30
0.0
 10
148.754550
 20
179.448194
 30
0.0
 10
148.930419
 20
179.451948
 30
0.0
 10
149.106289
 20
179.455701
 30
0.0
 10
149.276994
 20
179.457677
 30
0.0
 10
149.447699
 20
179.459652
 30
0.0
 10
149.618404
 20
179.461628
 30
0.0
 10
149.789109
 20
179.463603
 30
0.0
 10
149.959814
 20
179.465579
 30
0.0
 10
150.130518
 20
179.467555
 30
0.0
 10
150.301223
 20
179.469530
 30
0.0
 10
150.471928
 20
179.471506
 30
0.0
 10
150.642633
 20
179.473481
 30
0.0
 10
150.813338
 20
179.475457
 30
0.0
 10
150.984043
 20
179.477432
 30
0.0
 10
151.154748
 20
179.479408
 30
0.0
 10
151.325453
 20
179.481383
 30
0.0
 10
151.496158
 20
179.483359
 30
0.0
 10
151.666863
 20
179.485335
 30
0.0
 10
151.837571
 20
179.487310
 30
0.0
 10
152.008276
 20
179.489286
 30
0.0
 10
152.178980
 20
179.491261
 30
0.0
 10
152.349685
 20
179.493237
 30
0.0
 10
152.520390
 20
179.495212
 30
0.0
 10
152.691095
 20
179.497188
 30
0.0
 10
152.861800
 20
179.499163
 30
0.0
 10
153.032505
 20
179.501139
 30
0.0
 10
153.203210
 20
179.503115
 30
0.0
 10
153.373915
 20
179.505090
 30
0.0
 10
153.544620
 20
179.507066
 30
0.0
 10
153.715325
 20
179.509041
 30
0.0
 10
153.886030
 20
179.511017
 30
0.0
 10
154.056735
 20
179.512992
 30
0.0
 10
154.227440
 20
179.514968
 30
0.0
 10
154.398145
 20
179.516943
 30
0.0
 10
154.568850
 20
179.518919
 30
0.0
 10
154.728384
 20
179.519483
 30
0.0
 10
154.887916
 20
179.520048
 30
0.0
 10
155.047450
 20
179.520612
 30
0.0
 10
155.206982
 20
179.521177
 30
0.0
 10
155.366517
 20
179.521741
 30
0.0
 10
155.526049
 20
179.522306
 30
0.0
 10
155.685583
 20
179.522870
 30
0.0
 10
155.845115
 20
179.523435
 30
0.0
 10
156.004649
 20
179.523999
 30
0.0
 10
156.164181
 20
179.524563
 30
0.0
 10
156.323716
 20
179.525128
 30
0.0
 10
156.483248
 20
179.525692
 30
0.0
 10
156.642782
 20
179.526257
 30
0.0
 10
156.802314
 20
179.526821
 30
0.0
 10
156.961848
 20
179.527386
 30
0.0
 10
157.121380
 20
179.527950
 30
0.0
 10
157.280915
 20
179.528515
 30
0.0
 10
157.440447
 20
179.529079
 30
0.0
 10
157.599981
 20
179.529643
 30
0.0
 10
157.759513
 20
179.530208
 30
0.0
 10
157.919047
 20
179.530772
 30
0.0
 10
158.078579
 20
179.531337
 30
0.0
 10
158.238114
 20
179.531901
 30
0.0
 10
158.397646
 20
179.532466
 30
0.0
 10
158.557180
 20
179.533030
 30
0.0
 10
158.716712
 20
179.533595
 30
0.0
 10
158.876246
 20
179.534159
 30
0.0
 10
159.035778
 20
179.534723
 30
0.0
 10
159.195313
 20
179.535288
 30
0.0
 10
159.354845
 20
179.535852
 30
0.0
 10
159.514379
 20
179.536417
 30
0.0
 10
159.673911
 20
179.536981
 30
0.0
 10
159.819560
 20
179.536135
 30
0.0
 10
159.965212
 20
179.535288
 30
0.0
 10
160.110861
 20
179.534441
 30
0.0
 10
160.256511
 20
179.533595
 30
0.0
 10
160.402163
 20
179.532748
 30
0.0
 10
160.547812
 20
179.531901
 30
0.0
 10
160.693461
 20
179.531055
 30
0.0
 10
160.839113
 20
179.530208
 30
0.0
 10
160.984763
 20
179.529361
 30
0.0
 10
161.130412
 20
179.528515
 30
0.0
 10
161.276061
 20
179.527668
 30
0.0
 10
161.421713
 20
179.526821
 30
0.0
 10
161.567362
 20
179.525975
 30
0.0
 10
161.713012
 20
179.525128
 30
0.0
 10
161.858664
 20
179.524281
 30
0.0
 10
162.004313
 20
179.523435
 30
0.0
 10
162.149962
 20
179.522588
 30
0.0
 10
162.295614
 20
179.521741
 30
0.0
 10
162.441263
 20
179.520895
 30
0.0
 10
162.586913
 20
179.520048
 30
0.0
 10
162.732565
 20
179.519201
 30
0.0
 10
162.878214
 20
179.518355
 30
0.0
 10
163.023863
 20
179.517508
 30
0.0
 10
163.169515
 20
179.516661
 30
0.0
 10
163.315165
 20
179.515815
 30
0.0
 10
163.460814
 20
179.514968
 30
0.0
 10
163.606463
 20
179.514121
 30
0.0
 10
163.752115
 20
179.513275
 30
0.0
 10
163.897764
 20
179.512428
 30
0.0
 10
164.043414
 20
179.511581
 30
0.0
 10
164.189066
 20
179.510735
 30
0.0
 10
164.334715
 20
179.509888
 30
0.0
 10
164.459375
 20
179.507630
 30
0.0
 10
164.584036
 20
179.505372
 30
0.0
 10
164.708696
 20
179.503115
 30
0.0
 10
164.833356
 20
179.500857
 30
0.0
 10
164.958017
 20
179.498599
 30
0.0
 10
165.082677
 20
179.496341
 30
0.0
 10
165.207338
 20
179.494083
 30
0.0
 10
165.332001
 20
179.491826
 30
0.0
 10
165.456661
 20
179.489568
 30
0.0
 10
165.581322
 20
179.487310
 30
0.0
 10
165.705982
 20
179.485052
 30
0.0
 10
165.830642
 20
179.482795
 30
0.0
 10
165.955303
 20
179.480537
 30
0.0
 10
166.079963
 20
179.478279
 30
0.0
 10
166.204623
 20
179.476021
 30
0.0
 10
166.329284
 20
179.473763
 30
0.0
 10
166.453944
 20
179.471506
 30
0.0
 10
166.578605
 20
179.469248
 30
0.0
 10
166.703265
 20
179.466990
 30
0.0
 10
166.827925
 20
179.464732
 30
0.0
 10
166.952586
 20
179.462475
 30
0.0
 10
167.077246
 20
179.460217
 30
0.0
 10
167.201906
 20
179.457959
 30
0.0
 10
167.326570
 20
179.455701
 30
0.0
 10
167.451230
 20
179.453443
 30
0.0
 10
167.575890
 20
179.451186
 30
0.0
 10
167.700551
 20
179.448928
 30
0.0
 10
167.825211
 20
179.446670
 30
0.0
 10
167.949872
 20
179.444412
 30
0.0
 10
168.074532
 20
179.442155
 30
0.0
 10
168.199192
 20
179.439897
 30
0.0
 10
168.323853
 20
179.437639
 30
0.0
 10
168.417121
 20
179.434817
 30
0.0
 10
168.510387
 20
179.431995
 30
0.0
 10
168.603656
 20
179.429172
 30
0.0
 10
168.696925
 20
179.426350
 30
0.0
 10
168.790191
 20
179.423528
 30
0.0
 10
168.883460
 20
179.420706
 30
0.0
 10
168.976729
 20
179.417883
 30
0.0
 10
169.069995
 20
179.415061
 30
0.0
 10
169.163263
 20
179.412239
 30
0.0
 10
169.256532
 20
179.409417
 30
0.0
 10
169.349798
 20
179.406595
 30
0.0
 10
169.443067
 20
179.403772
 30
0.0
 10
169.536336
 20
179.400950
 30
0.0
 10
169.629602
 20
179.398128
 30
0.0
 10
169.722871
 20
179.395306
 30
0.0
 10
169.816139
 20
179.392483
 30
0.0
 10
169.909405
 20
179.389661
 30
0.0
 10
170.002674
 20
179.386839
 30
0.0
 10
170.095940
 20
179.384017
 30
0.0
 10
170.189209
 20
179.381195
 30
0.0
 10
170.282478
 20
179.378372
 30
0.0
 10
170.375744
 20
179.375550
 30
0.0
 10
170.469012
 20
179.372728
 30
0.0
 10
170.562281
 20
179.369906
 30
0.0
 10
170.655547
 20
179.367083
 30
0.0
 10
170.748816
 20
179.364261
 30
0.0
 10
170.842085
 20
179.361439
 30
0.0
 10
170.935351
 20
179.358617
 30
0.0
 10
171.028620
 20
179.355795
 30
0.0
 10
171.121888
 20
179.352972
 30
0.0
 10
171.215154
 20
179.350150
 30
0.0
 10
171.308423
 20
179.347328
 30
0.0
 10
171.351104
 20
179.345352
 30
0.0
 10
171.393784
 20
179.343377
 30
0.0
 10
171.436465
 20
179.341401
 30
0.0
 10
171.479145
 20
179.339426
 30
0.0
 10
171.521826
 20
179.337450
 30
0.0
 10
171.564506
 20
179.335475
 30
0.0
 10
171.607186
 20
179.333499
 30
0.0
 10
171.649867
 20
179.331523
 30
0.0
 10
171.692547
 20
179.329548
 30
0.0
 10
171.735228
 20
179.327572
 30
0.0
 10
171.777908
 20
179.325597
 30
0.0
 10
171.820589
 20
179.323621
 30
0.0
 10
171.863269
 20
179.321646
 30
0.0
 10
171.905950
 20
179.319670
 30
0.0
 10
171.948630
 20
179.317695
 30
0.0
 10
171.991314
 20
179.315719
 30
0.0
 10
172.033994
 20
179.313743
 30
0.0
 10
172.076674
 20
179.311768
 30
0.0
 10
172.119355
 20
179.309792
 30
0.0
 10
172.162035
 20
179.307817
 30
0.0
 10
172.204716
 20
179.305841
 30
0.0
 10
172.247396
 20
179.303866
 30
0.0
 10
172.290077
 20
179.301890
 30
0.0
 10
172.332757
 20
179.299915
 30
0.0
 10
172.375438
 20
179.297939
 30
0.0
 10
172.418118
 20
179.295963
 30
0.0
 10
172.460799
 20
179.293988
 30
0.0
 10
172.503479
 20
179.292012
 30
0.0
 10
172.546160
 20
179.290037
 30
0.0
 10
172.588840
 20
179.288061
 30
0.0
 10
172.631521
 20
179.286086
 30
0.0
 10
172.674224
 20
179.305703
 30
0.0
  0
ENDSEC
  0
SECTION
  2
OBJECTS
  0
DICTIONARY
  5
C
330
0
100
AcDbDictionary
  3
ACAD_GROUP
350
D
  3
ACAD_MLINESTYLE
350
17
  0
DICTIONARY
  5
D
330
C
100
AcDbDictionary
  0
DICTIONARY
  5
1A
330
C
100
AcDbDictionary
  0
DICTIONARY
  5
17
330
C
100
AcDbDictionary
  3
STANDARD
350
18
  0
DICTIONARY
  5
19
330
C
100
AcDbDictionary
  0
ENDSEC
  0
EOF
