solid OpenSCAD_Model
  facet normal 0 -1 0
    outer loop
      vertex -0.175304 -34.8083 -5
      vertex -3.6585 -34.8083 -5
      vertex -3.6585 -34.8083 -8
    endloop
  endfacet
  facet normal 0 -1 0
    outer loop
      vertex -0.175304 -34.8083 -8
      vertex -0.175304 -34.8083 -5
      vertex -3.6585 -34.8083 -8
    endloop
  endfacet
  facet normal -0.207912 -0.978148 -9.23313e-17
    outer loop
      vertex -3.6585 -34.8083 -8
      vertex -3.6585 -34.8083 -5
      vertex -10.8156 -33.287 -5
    endloop
  endfacet
  facet normal -0.207912 -0.978148 -1.23108e-16
    outer loop
      vertex -10.8156 -33.287 -8
      vertex -3.6585 -34.8083 -8
      vertex -10.8156 -33.287 -5
    endloop
  endfacet
  facet normal -1.21839e-32 1.16767e-15 1
    outer loop
      vertex -10.8156 -33.287 -5
      vertex -3.6585 -34.8083 -5
      vertex -0.175304 -34.8083 -5
    endloop
  endfacet
  facet normal -1.98391e-16 -9.55402e-17 1
    outer loop
      vertex -2 -33 -5
      vertex -10.8156 -33.287 -5
      vertex -1.24698 -34.5637 -5
    endloop
  endfacet
  facet normal -4.46872e-16 -1.95787e-15 1
    outer loop
      vertex -1.24698 -34.5637 -5
      vertex -10.8156 -33.287 -5
      vertex -0.175304 -34.8083 -5
    endloop
  endfacet
  facet normal -2.04711e-16 9.85835e-17 1
    outer loop
      vertex -1.24698 -31.4363 -5
      vertex -10.8156 -33.287 -5
      vertex -2 -33 -5
    endloop
  endfacet
  facet normal 1.698e-15 -9.73925e-15 1
    outer loop
      vertex 0.445042 -31.0501 -5
      vertex -10.8156 -33.287 -5
      vertex -1.24698 -31.4363 -5
    endloop
  endfacet
  facet normal -5.28043e-16 1.46706e-15 1
    outer loop
      vertex 12.753 -28.4363 -5
      vertex -10.8156 -33.287 -5
      vertex 0.445042 -31.0501 -5
    endloop
  endfacet
  facet normal -2.34792e-16 -2.9442e-16 1
    outer loop
      vertex 10.8156 -33.287 -5
      vertex 0.445042 -31.0501 -5
      vertex 1.80194 -32.1322 -5
    endloop
  endfacet
  facet normal 0 0 1
    outer loop
      vertex 3.6585 -34.8083 -5
      vertex 1.80194 -32.1322 -5
      vertex 1.80194 -33.8678 -5
    endloop
  endfacet
  facet normal -0 0 1
    outer loop
      vertex 3.6585 -34.8083 -5
      vertex 1.80194 -33.8678 -5
      vertex 0.62259 -34.8083 -5
    endloop
  endfacet
  facet normal -2.16298e-16 -1.50062e-16 1
    outer loop
      vertex 10.8156 -33.287 -5
      vertex 1.80194 -32.1322 -5
      vertex 3.6585 -34.8083 -5
    endloop
  endfacet
  facet normal -2.05533e-16 -1.58768e-16 1
    outer loop
      vertex 14.0311 -31.8554 -5
      vertex 0.445042 -31.0501 -5
      vertex 10.8156 -33.287 -5
    endloop
  endfacet
  facet normal -2.64914e-16 -1.16067e-15 1
    outer loop
      vertex 12.753 -31.5637 -5
      vertex 0.445042 -31.0501 -5
      vertex 14.0311 -31.8554 -5
    endloop
  endfacet
  facet normal -2.20927e-16 -1.06393e-16 1
    outer loop
      vertex 12 -30 -5
      vertex 0.445042 -31.0501 -5
      vertex 12.753 -31.5637 -5
    endloop
  endfacet
  facet normal -2.41151e-16 1.16132e-16 1
    outer loop
      vertex 12.753 -28.4363 -5
      vertex 0.445042 -31.0501 -5
      vertex 12 -30 -5
    endloop
  endfacet
  facet normal -2.30041e-15 1.00788e-14 1
    outer loop
      vertex 14.445 -28.0501 -5
      vertex -10.8156 -33.287 -5
      vertex 12.753 -28.4363 -5
    endloop
  endfacet
  facet normal -3.45987e-16 6.51308e-16 1
    outer loop
      vertex 23.4196 -26.0101 -5
      vertex -10.8156 -33.287 -5
      vertex 14.445 -28.0501 -5
    endloop
  endfacet
  facet normal -4.0358e-15 -5.06073e-15 1
    outer loop
      vertex 17.5 -30.3109 -5
      vertex 14.445 -28.0501 -5
      vertex 15.8019 -29.1322 -5
    endloop
  endfacet
  facet normal -5.23054e-16 0 1
    outer loop
      vertex 17.5 -30.3109 -5
      vertex 15.8019 -29.1322 -5
      vertex 15.8019 -30.8678 -5
    endloop
  endfacet
  facet normal -8.88392e-16 1.11401e-15 1
    outer loop
      vertex 17.5 -30.3109 -5
      vertex 15.8019 -30.8678 -5
      vertex 15.2366 -31.3186 -5
    endloop
  endfacet
  facet normal -2.19741e-16 9.59331e-17 1
    outer loop
      vertex 23.4196 -26.0101 -5
      vertex 14.445 -28.0501 -5
      vertex 17.5 -30.3109 -5
    endloop
  endfacet
  facet normal -1.97958e-16 -4.51165e-17 1
    outer loop
      vertex 27 -22.0336 -5
      vertex -10.8156 -33.287 -5
      vertex 23.4196 -26.0101 -5
    endloop
  endfacet
  facet normal -2.21205e-16 3.30025e-17 1
    outer loop
      vertex 2.56095 -24.3658 -5
      vertex -10.8156 -33.287 -5
      vertex 27 -22.0336 -5
    endloop
  endfacet
  facet normal -5.24118e-16 8.13546e-17 1
    outer loop
      vertex 7.57092 23.3009 -5
      vertex 12 30 -5
      vertex 10.8156 33.287 -5
    endloop
  endfacet
  facet normal -6.13947e-17 -5.63097e-17 1
    outer loop
      vertex -7.57092 23.3009 -5
      vertex -2 33 -5
      vertex -3.6585 34.8083 -5
    endloop
  endfacet
  facet normal -8.88392e-16 -1.11401e-15 1
    outer loop
      vertex 15.2366 31.3186 -5
      vertex 15.8019 30.8678 -5
      vertex 17.5 30.3109 -5
    endloop
  endfacet
  facet normal -5.23054e-16 0 1
    outer loop
      vertex 15.8019 30.8678 -5
      vertex 15.8019 29.1322 -5
      vertex 17.5 30.3109 -5
    endloop
  endfacet
  facet normal -6.42459e-16 0 1
    outer loop
      vertex -12.1981 29.1322 -5
      vertex -10.8156 33.287 -5
      vertex -12.1981 30.8678 -5
    endloop
  endfacet
  facet normal -6.55384e-16 4.30082e-18 1
    outer loop
      vertex -12.25 21.2176 -5
      vertex -10.8156 33.287 -5
      vertex -12.1981 29.1322 -5
    endloop
  endfacet
  facet normal -3.66254e-16 -3.00615e-17 1
    outer loop
      vertex -12.25 21.2176 -5
      vertex -7.57092 23.3009 -5
      vertex -10.8156 33.287 -5
    endloop
  endfacet
  facet normal -3.20951e-16 1.54562e-16 1
    outer loop
      vertex 10.8156 33.287 -5
      vertex 12 30 -5
      vertex 12.753 31.5637 -5
    endloop
  endfacet
  facet normal -9.36131e-17 4.10146e-16 1
    outer loop
      vertex 10.8156 33.287 -5
      vertex 12.753 31.5637 -5
      vertex 14.0311 31.8554 -5
    endloop
  endfacet
  facet normal 8.66294e-16 -6.01011e-16 1
    outer loop
      vertex -2.56095 24.3658 -5
      vertex 3.6585 34.8083 -5
      vertex 1.80194 32.1322 -5
    endloop
  endfacet
  facet normal 0 0 1
    outer loop
      vertex 0.62259 34.8083 -5
      vertex 1.80194 33.8678 -5
      vertex 3.6585 34.8083 -5
    endloop
  endfacet
  facet normal 0 -0 1
    outer loop
      vertex 1.80194 33.8678 -5
      vertex 1.80194 32.1322 -5
      vertex 3.6585 34.8083 -5
    endloop
  endfacet
  facet normal -6.55384e-16 -4.30082e-18 1
    outer loop
      vertex -12.25 -21.2176 -5
      vertex -12.1981 -29.1322 -5
      vertex -10.8156 -33.287 -5
    endloop
  endfacet
  facet normal 0 0 1
    outer loop
      vertex -3.6585 34.8083 -5
      vertex -2 33 -5
      vertex -1.24698 34.5637 -5
    endloop
  endfacet
  facet normal 0 0 1
    outer loop
      vertex -3.6585 34.8083 -5
      vertex -1.24698 34.5637 -5
      vertex -0.175304 34.8083 -5
    endloop
  endfacet
  facet normal 0 0 1
    outer loop
      vertex -17.5 -16.9784 -5
      vertex -17.5 16.9784 -5
      vertex -18.753 16.4363 -5
    endloop
  endfacet
  facet normal 2.84768e-16 -1.24765e-15 1
    outer loop
      vertex -14.0964 31.8263 -5
      vertex -13.555 31.9499 -5
      vertex -10.8156 33.287 -5
    endloop
  endfacet
  facet normal -2.01125e-16 -2.52202e-16 1
    outer loop
      vertex -13.555 31.9499 -5
      vertex -12.1981 30.8678 -5
      vertex -10.8156 33.287 -5
    endloop
  endfacet
  facet normal -1.88225e-16 3.59496e-17 1
    outer loop
      vertex -12.25 -21.2176 -5
      vertex -16.3937 -18.207 -5
      vertex -13.555 -28.0501 -5
    endloop
  endfacet
  facet normal 0 -0 1
    outer loop
      vertex -12.25 -21.2176 -5
      vertex -13.555 -28.0501 -5
      vertex -12.1981 -29.1322 -5
    endloop
  endfacet
  facet normal -5.74857e-16 0 1
    outer loop
      vertex 18.9 15.4235 -5
      vertex 18.9 -15.4235 -5
      vertex 20.445 16.0501 -5
    endloop
  endfacet
  facet normal 0 0 1
    outer loop
      vertex -21.8019 17.1322 -5
      vertex -21.8019 18.8678 -5
      vertex -23 24 -5
    endloop
  endfacet
  facet normal -5.38383e-16 2.59271e-16 1
    outer loop
      vertex -17.5 30.3109 -5
      vertex -16 30 -5
      vertex -15.4 31.2459 -5
    endloop
  endfacet
  facet normal 0 0 1
    outer loop
      vertex -23 24 -5
      vertex -21.8019 18.8678 -5
      vertex -23.4196 26.0101 -5
    endloop
  endfacet
  facet normal 1.10144e-16 9.91743e-17 1
    outer loop
      vertex -16.3937 -18.207 -5
      vertex -17.5 -16.9784 -5
      vertex -15.247 -28.4363 -5
    endloop
  endfacet
  facet normal -4.56223e-16 -9.52295e-17 1
    outer loop
      vertex -25 24.2548 -5
      vertex -23 24 -5
      vertex -23.4196 26.0101 -5
    endloop
  endfacet
  facet normal -6.42459e-16 0 1
    outer loop
      vertex -12.1981 -29.1322 -5
      vertex -12.1981 -30.8678 -5
      vertex -10.8156 -33.287 -5
    endloop
  endfacet
  facet normal -2.01125e-16 2.52202e-16 1
    outer loop
      vertex -12.1981 -30.8678 -5
      vertex -13.555 -31.9499 -5
      vertex -10.8156 -33.287 -5
    endloop
  endfacet
  facet normal -2.96059e-16 0 1
    outer loop
      vertex -16 -30 -5
      vertex -25 -24 -5
      vertex -25 -24.2548 -5
    endloop
  endfacet
  facet normal -8.5487e-16 -9.70114e-16 1
    outer loop
      vertex -17.5 -30.3109 -5
      vertex -15.4 -31.2459 -5
      vertex -23.4196 -26.0101 -5
    endloop
  endfacet
  facet normal 6.33926e-17 5.63093e-16 1
    outer loop
      vertex -23.4196 -26.0101 -5
      vertex -16 -30 -5
      vertex -25 -24.2548 -5
    endloop
  endfacet
  facet normal -2.00997e-16 1.83713e-17 1
    outer loop
      vertex 12.25 21.2176 -5
      vertex 16.3937 18.207 -5
      vertex 17.5 30.3109 -5
    endloop
  endfacet
  facet normal -1.58461e-16 -1.31569e-17 1
    outer loop
      vertex 21.8019 17.1322 -5
      vertex 18.9 -15.4235 -5
      vertex 27 22.0336 -5
    endloop
  endfacet
  facet normal -7.5971e-16 3.40944e-16 1
    outer loop
      vertex 12.25 21.2176 -5
      vertex 17.5 30.3109 -5
      vertex 15.8019 29.1322 -5
    endloop
  endfacet
  facet normal -4.44089e-16 -2.22045e-16 1
    outer loop
      vertex -16 -30 -5
      vertex -23 -24 -5
      vertex -25 -24 -5
    endloop
  endfacet
  facet normal 2.84768e-16 1.24765e-15 1
    outer loop
      vertex -14.0964 -31.8263 -5
      vertex -10.8156 -33.287 -5
      vertex -13.555 -31.9499 -5
    endloop
  endfacet
  facet normal -2.51275e-16 3.4811e-16 1
    outer loop
      vertex 7.57092 -23.3009 -5
      vertex 2.56095 -24.3658 -5
      vertex 27 -22.0336 -5
    endloop
  endfacet
  facet normal -1.73408e-16 -3.86645e-17 1
    outer loop
      vertex -2.56095 -24.3658 -5
      vertex -10.8156 -33.287 -5
      vertex 2.56095 -24.3658 -5
    endloop
  endfacet
  facet normal -3.66254e-16 3.00615e-17 1
    outer loop
      vertex -7.57092 -23.3009 -5
      vertex -12.25 -21.2176 -5
      vertex -10.8156 -33.287 -5
    endloop
  endfacet
  facet normal 0 0 1
    outer loop
      vertex 16.3937 18.207 -5
      vertex 18.9 15.4235 -5
      vertex 18.753 16.4363 -5
    endloop
  endfacet
  facet normal -1.73408e-16 1.82259e-17 1
    outer loop
      vertex -2.56095 24.3658 -5
      vertex 2.56095 24.3658 -5
      vertex 3.6585 34.8083 -5
    endloop
  endfacet
  facet normal -5.20467e-16 -1.9517e-17 1
    outer loop
      vertex -17.5 -16.9784 -5
      vertex -18.753 16.4363 -5
      vertex -20.445 16.0501 -5
    endloop
  endfacet
  facet normal 2.34214e-17 -2.93695e-17 1
    outer loop
      vertex 20.445 16.0501 -5
      vertex 18.9 -15.4235 -5
      vertex 21.8019 17.1322 -5
    endloop
  endfacet
  facet normal -1.93233e-17 8.46608e-17 1
    outer loop
      vertex -15.247 -28.4363 -5
      vertex -13.555 -28.0501 -5
      vertex -16.3937 -18.207 -5
    endloop
  endfacet
  facet normal -1.13776e-16 5.51441e-17 1
    outer loop
      vertex -18.753 -19.5637 -5
      vertex -15.247 -28.4363 -5
      vertex -17.5 -16.9784 -5
    endloop
  endfacet
  facet normal 0 0 1
    outer loop
      vertex -18.753 19.5637 -5
      vertex -17.5 16.9784 -5
      vertex -17.5 30.3109 -5
    endloop
  endfacet
  facet normal 0 0 1
    outer loop
      vertex -17.5 16.9784 -5
      vertex -16.3937 18.207 -5
      vertex -17.5 30.3109 -5
    endloop
  endfacet
  facet normal -4.44089e-16 0 1
    outer loop
      vertex -25 24 -5
      vertex -23 24 -5
      vertex -25 24.2548 -5
    endloop
  endfacet
  facet normal -1.88225e-16 -3.59496e-17 1
    outer loop
      vertex -16.3937 18.207 -5
      vertex -12.25 21.2176 -5
      vertex -13.555 28.0501 -5
    endloop
  endfacet
  facet normal -2.49845e-16 7.76198e-18 1
    outer loop
      vertex -10.8156 33.287 -5
      vertex -7.57092 23.3009 -5
      vertex -3.6585 34.8083 -5
    endloop
  endfacet
  facet normal 0 -0 1
    outer loop
      vertex -2 33 -5
      vertex -2.56095 24.3658 -5
      vertex -1.24698 31.4363 -5
    endloop
  endfacet
  facet normal -2.42771e-16 2.55163e-17 1
    outer loop
      vertex 3.6585 34.8083 -5
      vertex 2.56095 24.3658 -5
      vertex 10.8156 33.287 -5
    endloop
  endfacet
  facet normal -1.83513e-16 -2.93145e-17 1
    outer loop
      vertex 2.56095 24.3658 -5
      vertex 7.57092 23.3009 -5
      vertex 10.8156 33.287 -5
    endloop
  endfacet
  facet normal 0 0 1
    outer loop
      vertex -12.1981 29.1322 -5
      vertex -13.555 28.0501 -5
      vertex -12.25 21.2176 -5
    endloop
  endfacet
  facet normal -1.40698e-16 1.28599e-17 1
    outer loop
      vertex 17.5 30.3109 -5
      vertex 16.3937 18.207 -5
      vertex 23.4196 26.0101 -5
    endloop
  endfacet
  facet normal -1.70867e-16 0 1
    outer loop
      vertex 21.8019 18.8678 -5
      vertex 21.8019 17.1322 -5
      vertex 27 22.0336 -5
    endloop
  endfacet
  facet normal -3.32131e-16 1.06702e-16 1
    outer loop
      vertex 7.57092 23.3009 -5
      vertex 12.25 21.2176 -5
      vertex 14.445 28.0501 -5
    endloop
  endfacet
  facet normal 0 0 1
    outer loop
      vertex 18.753 -19.5637 -5
      vertex 18 -18 -5
      vertex 16.3937 -18.207 -5
    endloop
  endfacet
  facet normal -1.90159e-16 -1.71953e-16 1
    outer loop
      vertex 20.445 -19.9499 -5
      vertex 12.25 -21.2176 -5
      vertex 27 -22.0336 -5
    endloop
  endfacet
  facet normal -2.02639e-16 -3.97546e-16 1
    outer loop
      vertex 12.25 -21.2176 -5
      vertex 7.57092 -23.3009 -5
      vertex 27 -22.0336 -5
    endloop
  endfacet
  facet normal 0 -0 1
    outer loop
      vertex -18 -18 -5
      vertex -18.753 -19.5637 -5
      vertex -17.5 -16.9784 -5
    endloop
  endfacet
  facet normal -2.22045e-16 1.23617e-17 1
    outer loop
      vertex -23 -24 -5
      vertex -15.247 -28.4363 -5
      vertex -18.753 -19.5637 -5
    endloop
  endfacet
  facet normal -3.23084e-16 -1.55589e-16 1
    outer loop
      vertex -15.4 -31.2459 -5
      vertex -16 -30 -5
      vertex -23.4196 -26.0101 -5
    endloop
  endfacet
  facet normal 0 0 1
    outer loop
      vertex 16.3937 18.207 -5
      vertex 18.753 16.4363 -5
      vertex 18 18 -5
    endloop
  endfacet
  facet normal 0 0 1
    outer loop
      vertex -23 -24 -5
      vertex -20.445 -19.9499 -5
      vertex -21.8019 -18.8678 -5
    endloop
  endfacet
  facet normal -1.79621e-16 8.65011e-17 1
    outer loop
      vertex -16 -30 -5
      vertex -15.247 -28.4363 -5
      vertex -23 -24 -5
    endloop
  endfacet
  facet normal -9.68793e-17 1.21483e-16 1
    outer loop
      vertex 21.8019 -18.8678 -5
      vertex 20.445 -19.9499 -5
      vertex 27 -22.0336 -5
    endloop
  endfacet
  facet normal 0 0 1
    outer loop
      vertex -21.8019 -17.1322 -5
      vertex -20.445 -16.0501 -5
      vertex -23 24 -5
    endloop
  endfacet
  facet normal 0 0 1
    outer loop
      vertex -18.753 -16.4363 -5
      vertex -18 -18 -5
      vertex -17.5 -16.9784 -5
    endloop
  endfacet
  facet normal -3.41249e-16 8.04719e-16 1
    outer loop
      vertex 18.753 -19.5637 -5
      vertex 12.25 -21.2176 -5
      vertex 20.445 -19.9499 -5
    endloop
  endfacet
  facet normal -5.42904e-16 7.87862e-17 1
    outer loop
      vertex 18.753 -16.4363 -5
      vertex 20.445 -16.0501 -5
      vertex 18.9 -15.4235 -5
    endloop
  endfacet
  facet normal -9.4694e-17 -1.64685e-16 1
    outer loop
      vertex 16.3937 -18.207 -5
      vertex 12.25 -21.2176 -5
      vertex 18.753 -19.5637 -5
    endloop
  endfacet
  facet normal -1.70867e-16 0 1
    outer loop
      vertex 21.8019 -17.1322 -5
      vertex 21.8019 -18.8678 -5
      vertex 27 -22.0336 -5
    endloop
  endfacet
  facet normal 0 0 1
    outer loop
      vertex 18.9 -15.4235 -5
      vertex 16.3937 -18.207 -5
      vertex 18 -18 -5
    endloop
  endfacet
  facet normal 0 0 1
    outer loop
      vertex 18.9 -15.4235 -5
      vertex 18 -18 -5
      vertex 18.753 -16.4363 -5
    endloop
  endfacet
  facet normal 0 -0 1
    outer loop
      vertex -18 18 -5
      vertex -18.753 16.4363 -5
      vertex -17.5 16.9784 -5
    endloop
  endfacet
  facet normal -5.46188e-16 7.0688e-17 1
    outer loop
      vertex 27 22.0336 -5
      vertex 18.9 -15.4235 -5
      vertex 20.445 -16.0501 -5
    endloop
  endfacet
  facet normal -1.70867e-16 0 1
    outer loop
      vertex 27 22.0336 -5
      vertex 21.8019 -17.1322 -5
      vertex 27 -22.0336 -5
    endloop
  endfacet
  facet normal -1.63537e-17 -2.05069e-17 1
    outer loop
      vertex 27 22.0336 -5
      vertex 20.445 -16.0501 -5
      vertex 21.8019 -17.1322 -5
    endloop
  endfacet
  facet normal -6.03552e-16 -5.51652e-17 1
    outer loop
      vertex -16.3937 18.207 -5
      vertex -16 30 -5
      vertex -17.5 30.3109 -5
    endloop
  endfacet
  facet normal -5.91147e-16 -2.90152e-16 1
    outer loop
      vertex -20.445 19.9499 -5
      vertex -18.753 19.5637 -5
      vertex -23.4196 26.0101 -5
    endloop
  endfacet
  facet normal -1.46253e-16 -7.04318e-17 1
    outer loop
      vertex -16.3937 18.207 -5
      vertex -15.247 28.4363 -5
      vertex -16 30 -5
    endloop
  endfacet
  facet normal 5.38761e-16 9.39852e-17 1
    outer loop
      vertex -17.5 -16.9784 -5
      vertex -21.8019 17.1322 -5
      vertex -23 24 -5
    endloop
  endfacet
  facet normal -1.93233e-17 -8.46608e-17 1
    outer loop
      vertex -16.3937 18.207 -5
      vertex -13.555 28.0501 -5
      vertex -15.247 28.4363 -5
    endloop
  endfacet
  facet normal 2.30867e-17 2.89498e-17 1
    outer loop
      vertex -20.445 16.0501 -5
      vertex -21.8019 17.1322 -5
      vertex -17.5 -16.9784 -5
    endloop
  endfacet
  facet normal -1.63927e-16 1.91122e-17 1
    outer loop
      vertex -23.4196 26.0101 -5
      vertex -18.753 19.5637 -5
      vertex -17.5 30.3109 -5
    endloop
  endfacet
  facet normal 0 0 1
    outer loop
      vertex -18 18 -5
      vertex -17.5 16.9784 -5
      vertex -18.753 19.5637 -5
    endloop
  endfacet
  facet normal 0 0 1
    outer loop
      vertex -21.8019 18.8678 -5
      vertex -20.445 19.9499 -5
      vertex -23.4196 26.0101 -5
    endloop
  endfacet
  facet normal -6.41701e-17 -2.81148e-16 1
    outer loop
      vertex 7.57092 23.3009 -5
      vertex 14.445 28.0501 -5
      vertex 12.753 28.4363 -5
    endloop
  endfacet
  facet normal -5.03562e-16 9.35803e-17 1
    outer loop
      vertex -2.56095 24.3658 -5
      vertex 0.445042 31.0501 -5
      vertex -1.24698 31.4363 -5
    endloop
  endfacet
  facet normal 0 0 1
    outer loop
      vertex 20.445 19.9499 -5
      vertex 21.8019 18.8678 -5
      vertex 23.4196 26.0101 -5
    endloop
  endfacet
  facet normal 1.65214e-16 -2.07172e-16 1
    outer loop
      vertex -2.56095 24.3658 -5
      vertex 1.80194 32.1322 -5
      vertex 0.445042 31.0501 -5
    endloop
  endfacet
  facet normal 1.35713e-16 -2.36021e-16 1
    outer loop
      vertex 16.3937 18.207 -5
      vertex 18.753 19.5637 -5
      vertex 23.4196 26.0101 -5
    endloop
  endfacet
  facet normal 0 0 1
    outer loop
      vertex 16.3937 18.207 -5
      vertex 18 18 -5
      vertex 18.753 19.5637 -5
    endloop
  endfacet
  facet normal -1.98208e-16 4.48914e-17 1
    outer loop
      vertex 23.4196 26.0101 -5
      vertex 21.8019 18.8678 -5
      vertex 27 22.0336 -5
    endloop
  endfacet
  facet normal -5.91147e-16 2.90152e-16 1
    outer loop
      vertex 18.753 19.5637 -5
      vertex 20.445 19.9499 -5
      vertex 23.4196 26.0101 -5
    endloop
  endfacet
  facet normal -2.32046e-16 -1.11747e-16 1
    outer loop
      vertex 7.57092 23.3009 -5
      vertex 12.753 28.4363 -5
      vertex 12 30 -5
    endloop
  endfacet
  facet normal -1.79765e-16 1.16789e-17 1
    outer loop
      vertex -7.57092 23.3009 -5
      vertex -2.56095 24.3658 -5
      vertex -2 33 -5
    endloop
  endfacet
  facet normal 0 0 1
    outer loop
      vertex 15.8019 29.1322 -5
      vertex 14.445 28.0501 -5
      vertex 12.25 21.2176 -5
    endloop
  endfacet
  facet normal 9.95397e-18 2.30103e-17 1
    outer loop
      vertex -23 24 -5
      vertex -18.753 -16.4363 -5
      vertex -17.5 -16.9784 -5
    endloop
  endfacet
  facet normal -5.32677e-16 -3.39816e-17 1
    outer loop
      vertex -23 24 -5
      vertex -20.445 -16.0501 -5
      vertex -18.753 -16.4363 -5
    endloop
  endfacet
  facet normal 0 0 1
    outer loop
      vertex -23 24 -5
      vertex -21.8019 -18.8678 -5
      vertex -21.8019 -17.1322 -5
    endloop
  endfacet
  facet normal 0 -0 1
    outer loop
      vertex -23 24 -5
      vertex -23 -24 -5
      vertex -21.8019 -18.8678 -5
    endloop
  endfacet
  facet normal -5.42904e-16 -7.87862e-17 1
    outer loop
      vertex 20.445 16.0501 -5
      vertex 18.753 16.4363 -5
      vertex 18.9 15.4235 -5
    endloop
  endfacet
  facet normal -6.13214e-16 3.86835e-16 1
    outer loop
      vertex -18.753 -19.5637 -5
      vertex -20.445 -19.9499 -5
      vertex -23 -24 -5
    endloop
  endfacet
  facet normal -1.83513e-16 -2.93145e-17 1
    outer loop
      vertex -2.56095 -24.3658 -5
      vertex -7.57092 -23.3009 -5
      vertex -10.8156 -33.287 -5
    endloop
  endfacet
  facet normal 0.222521 0.974928 9.88192e-17
    outer loop
      vertex -1.24698 -34.5637 -8
      vertex -1.24698 -34.5637 -5
      vertex -0.175304 -34.8083 -8
    endloop
  endfacet
  facet normal 0.222521 0.974928 8.85255e-17
    outer loop
      vertex -0.175304 -34.8083 -8
      vertex -1.24698 -34.5637 -5
      vertex -0.175304 -34.8083 -5
    endloop
  endfacet
  facet normal -0 -1.16767e-15 -1
    outer loop
      vertex -3.6585 -34.8083 -8
      vertex -10.8156 -33.287 -8
      vertex -0.175304 -34.8083 -8
    endloop
  endfacet
  facet normal 0 0 -1
    outer loop
      vertex -13.555 -31.9499 -8
      vertex -10.8156 -33.287 -8
      vertex -14.0964 -31.8263 -8
    endloop
  endfacet
  facet normal 2.36104e-16 4.83706e-16 -1
    outer loop
      vertex -0.175304 -34.8083 -8
      vertex -10.8156 -33.287 -8
      vertex -13.555 -31.9499 -8
    endloop
  endfacet
  facet normal 1.31554e-15 6.33532e-16 -1
    outer loop
      vertex -15.247 28.4363 -8
      vertex -17.5 30.3109 -8
      vertex -16 30 -8
    endloop
  endfacet
  facet normal 1.70867e-16 0 -1
    outer loop
      vertex 21.8019 -17.1322 -8
      vertex 27 -22.0336 -8
      vertex 21.8019 -18.8678 -8
    endloop
  endfacet
  facet normal 4.04073e-16 0 -1
    outer loop
      vertex 18 18 -8
      vertex 15.8019 29.1322 -8
      vertex 15.8019 30.8678 -8
    endloop
  endfacet
  facet normal 1.07677e-15 5.18542e-16 -1
    outer loop
      vertex -16 -30 -8
      vertex -15.4 -31.2459 -8
      vertex -17.5 -30.3109 -8
    endloop
  endfacet
  facet normal 1.31554e-15 -6.33532e-16 -1
    outer loop
      vertex -16 -30 -8
      vertex -17.5 -30.3109 -8
      vertex -15.247 -28.4363 -8
    endloop
  endfacet
  facet normal 3.67538e-16 5.05873e-16 -1
    outer loop
      vertex -15.247 -28.4363 -8
      vertex -17.5 -30.3109 -8
      vertex -23.4196 -26.0101 -8
    endloop
  endfacet
  facet normal 9.44732e-17 -4.13914e-16 -1
    outer loop
      vertex -15.247 -28.4363 -8
      vertex -23.4196 -26.0101 -8
      vertex -13.555 -28.0501 -8
    endloop
  endfacet
  facet normal -3.59077e-17 -1.04436e-15 -1
    outer loop
      vertex -13.555 -28.0501 -8
      vertex -23.4196 -26.0101 -8
      vertex -25 -24.2548 -8
    endloop
  endfacet
  facet normal 3.10415e-16 0 -1
    outer loop
      vertex -13.555 -28.0501 -8
      vertex -25 -24.2548 -8
      vertex -25 -24 -8
    endloop
  endfacet
  facet normal 8.88178e-16 1.63266e-15 -1
    outer loop
      vertex -13.555 -28.0501 -8
      vertex -25 -24 -8
      vertex -23 -24 -8
    endloop
  endfacet
  facet normal 2.22045e-16 7.92228e-17 -1
    outer loop
      vertex -13.555 -28.0501 -8
      vertex -23 -24 -8
      vertex -15 -24 -8
    endloop
  endfacet
  facet normal 1.36643e-16 0 -1
    outer loop
      vertex -2 -33 -8
      vertex -15 -24 -8
      vertex -15 -19.2196 -8
    endloop
  endfacet
  facet normal 4.29042e-16 5.38001e-16 -1
    outer loop
      vertex -1.24698 -34.5637 -8
      vertex -12.1981 -29.1322 -8
      vertex -13.555 -28.0501 -8
    endloop
  endfacet
  facet normal 1.7792e-16 6.34796e-17 -1
    outer loop
      vertex -1.24698 -34.5637 -8
      vertex -13.555 -28.0501 -8
      vertex -15 -24 -8
    endloop
  endfacet
  facet normal -2.97694e-16 -4.09741e-16 -1
    outer loop
      vertex -2 -33 -8
      vertex -15 -19.2196 -8
      vertex -12.25 -21.2176 -8
    endloop
  endfacet
  facet normal 5.03562e-16 9.35803e-17 -1
    outer loop
      vertex -1.24698 -31.4363 -8
      vertex -2.56095 -24.3658 -8
      vertex 0.445042 -31.0501 -8
    endloop
  endfacet
  facet normal 1.90071e-16 -6.01661e-17 -1
    outer loop
      vertex 0.445042 -31.0501 -8
      vertex 2.56095 -24.3658 -8
      vertex 7.57092 -23.3009 -8
    endloop
  endfacet
  facet normal 5.27324e-17 6.61243e-17 -1
    outer loop
      vertex 0.445042 -31.0501 -8
      vertex 7.57092 -23.3009 -8
      vertex 1.80194 -32.1322 -8
    endloop
  endfacet
  facet normal 3.19663e-16 -1.53942e-16 -1
    outer loop
      vertex 12 -30 -8
      vertex 1.80194 -33.8678 -8
      vertex 12.753 -28.4363 -8
    endloop
  endfacet
  facet normal 1.65733e-16 -7.79714e-16 -1
    outer loop
      vertex -7.57092 23.3009 -8
      vertex -15 24 -8
      vertex -2.56095 24.3658 -8
    endloop
  endfacet
  facet normal 0 0 -1
    outer loop
      vertex -12.25 21.2176 -8
      vertex -15 19.2196 -8
      vertex -15 24 -8
    endloop
  endfacet
  facet normal 2.63629e-16 2.60561e-16 -1
    outer loop
      vertex -12.25 21.2176 -8
      vertex -15 24 -8
      vertex -7.57092 23.3009 -8
    endloop
  endfacet
  facet normal 2.22045e-16 -2.69466e-15 -1
    outer loop
      vertex -15 24 -8
      vertex -23 24 -8
      vertex -2.56095 24.3658 -8
    endloop
  endfacet
  facet normal 8.88178e-16 -3.99162e-14 -1
    outer loop
      vertex -23 24 -8
      vertex -25 24 -8
      vertex -2.56095 24.3658 -8
    endloop
  endfacet
  facet normal 2.37491e-16 0 -1
    outer loop
      vertex -2.56095 24.3658 -8
      vertex -25 24 -8
      vertex -25 24.2548 -8
    endloop
  endfacet
  facet normal 2.33526e-16 8.0176e-16 -1
    outer loop
      vertex -2.56095 24.3658 -8
      vertex -25 24.2548 -8
      vertex -23.4196 26.0101 -8
    endloop
  endfacet
  facet normal 1.73408e-16 3.9131e-17 -1
    outer loop
      vertex -2.56095 24.3658 -8
      vertex -23.4196 26.0101 -8
      vertex 2.56095 24.3658 -8
    endloop
  endfacet
  facet normal 3.67538e-16 -5.05873e-16 -1
    outer loop
      vertex -15.247 28.4363 -8
      vertex -23.4196 26.0101 -8
      vertex -17.5 30.3109 -8
    endloop
  endfacet
  facet normal 1.07677e-15 -5.18542e-16 -1
    outer loop
      vertex -16 30 -8
      vertex -17.5 30.3109 -8
      vertex -15.4 31.2459 -8
    endloop
  endfacet
  facet normal 1.79089e-16 1.28895e-16 -1
    outer loop
      vertex 2.56095 24.3658 -8
      vertex -23.4196 26.0101 -8
      vertex -15.247 28.4363 -8
    endloop
  endfacet
  facet normal 1.71017e-16 -2.94757e-17 -1
    outer loop
      vertex -12.1981 29.1322 -8
      vertex 7.57092 23.3009 -8
      vertex 2.56095 24.3658 -8
    endloop
  endfacet
  facet normal -1.01235e-13 -4.43541e-13 -1
    outer loop
      vertex 2.56095 24.3658 -8
      vertex -15.247 28.4363 -8
      vertex -13.555 28.0501 -8
    endloop
  endfacet
  facet normal 1.28498e-16 -1.61132e-16 -1
    outer loop
      vertex -12.1981 29.1322 -8
      vertex 2.56095 24.3658 -8
      vertex -13.555 28.0501 -8
    endloop
  endfacet
  facet normal 1.79712e-16 0 -1
    outer loop
      vertex -12.1981 30.8678 -8
      vertex 7.57092 23.3009 -8
      vertex -12.1981 29.1322 -8
    endloop
  endfacet
  facet normal 0 -0 -1
    outer loop
      vertex -2 33 -8
      vertex -3.6585 34.8083 -8
      vertex -1.24698 34.5637 -8
    endloop
  endfacet
  facet normal 3.45581e-16 4.33344e-16 -1
    outer loop
      vertex 7.57092 23.3009 -8
      vertex -12.1981 30.8678 -8
      vertex -13.555 31.9499 -8
    endloop
  endfacet
  facet normal 1.22748e-15 1.90428e-15 -1
    outer loop
      vertex 7.57092 23.3009 -8
      vertex -10.8156 33.287 -8
      vertex 12.25 21.2176 -8
    endloop
  endfacet
  facet normal 0 -0 -1
    outer loop
      vertex -13.555 31.9499 -8
      vertex -14.0964 31.8263 -8
      vertex -10.8156 33.287 -8
    endloop
  endfacet
  facet normal 9.14586e-17 -1.87371e-16 -1
    outer loop
      vertex -13.555 31.9499 -8
      vertex -10.8156 33.287 -8
      vertex 7.57092 23.3009 -8
    endloop
  endfacet
  facet normal 2.07703e-16 1.905e-16 -1
    outer loop
      vertex -2 33 -8
      vertex -10.8156 33.287 -8
      vertex -3.6585 34.8083 -8
    endloop
  endfacet
  facet normal 0 -0 -1
    outer loop
      vertex -1.24698 34.5637 -8
      vertex -3.6585 34.8083 -8
      vertex -0.175304 34.8083 -8
    endloop
  endfacet
  facet normal 2.14397e-16 -2.68845e-16 -1
    outer loop
      vertex 1.80194 -33.8678 -8
      vertex 10.8156 -33.287 -8
      vertex 0.62259 -34.8083 -8
    endloop
  endfacet
  facet normal 2.04711e-16 9.85835e-17 -1
    outer loop
      vertex -1.24698 31.4363 -8
      vertex -10.8156 33.287 -8
      vertex -2 33 -8
    endloop
  endfacet
  facet normal 6.37863e-16 4.94828e-16 -1
    outer loop
      vertex 0.445042 31.0501 -8
      vertex 12.25 21.2176 -8
      vertex -1.24698 31.4363 -8
    endloop
  endfacet
  facet normal 1.59027e-16 -1.37623e-16 -1
    outer loop
      vertex 12.25 21.2176 -8
      vertex -10.8156 33.287 -8
      vertex -1.24698 31.4363 -8
    endloop
  endfacet
  facet normal 1.10403e-16 -1.38441e-16 -1
    outer loop
      vertex 1.80194 32.1322 -8
      vertex 12.25 21.2176 -8
      vertex 0.445042 31.0501 -8
    endloop
  endfacet
  facet normal 1.21429e-16 -1.27887e-16 -1
    outer loop
      vertex 1.80194 32.1322 -8
      vertex 16.3937 18.207 -8
      vertex 12.25 21.2176 -8
    endloop
  endfacet
  facet normal 2.43474e-16 0 -1
    outer loop
      vertex 1.80194 33.8678 -8
      vertex 16.3937 18.207 -8
      vertex 1.80194 32.1322 -8
    endloop
  endfacet
  facet normal 5.49703e-17 -6.89305e-17 -1
    outer loop
      vertex 15.8019 29.1322 -8
      vertex 18 18 -8
      vertex 14.445 28.0501 -8
    endloop
  endfacet
  facet normal 3.20951e-16 -1.54562e-16 -1
    outer loop
      vertex 12 30 -8
      vertex 10.8156 33.287 -8
      vertex 12.753 31.5637 -8
    endloop
  endfacet
  facet normal -1.60567e-15 -1.44575e-15 -1
    outer loop
      vertex 16.3937 18.207 -8
      vertex 3.6585 34.8083 -8
      vertex 18.9 15.4235 -8
    endloop
  endfacet
  facet normal 0 -0 -1
    outer loop
      vertex 1.80194 33.8678 -8
      vertex 0.62259 34.8083 -8
      vertex 3.6585 34.8083 -8
    endloop
  endfacet
  facet normal 7.80709e-17 -1.54113e-16 -1
    outer loop
      vertex 1.80194 33.8678 -8
      vertex 3.6585 34.8083 -8
      vertex 16.3937 18.207 -8
    endloop
  endfacet
  facet normal 2.06582e-16 -1.95773e-16 -1
    outer loop
      vertex 12 30 -8
      vertex 3.6585 34.8083 -8
      vertex 10.8156 33.287 -8
    endloop
  endfacet
  facet normal 9.36131e-17 -4.10146e-16 -1
    outer loop
      vertex 12.753 31.5637 -8
      vertex 10.8156 33.287 -8
      vertex 14.0311 31.8554 -8
    endloop
  endfacet
  facet normal 3.90995e-16 1.24151e-16 -1
    outer loop
      vertex 18.9 15.4235 -8
      vertex 3.6585 34.8083 -8
      vertex 12 30 -8
    endloop
  endfacet
  facet normal -1.74612e-17 -7.65024e-17 -1
    outer loop
      vertex 14.445 28.0501 -8
      vertex 18.9 15.4235 -8
      vertex 12.753 28.4363 -8
    endloop
  endfacet
  facet normal -7.42259e-15 -3.57453e-15 -1
    outer loop
      vertex 18.9 15.4235 -8
      vertex 12 30 -8
      vertex 12.753 28.4363 -8
    endloop
  endfacet
  facet normal 5.23054e-16 0 -1
    outer loop
      vertex 15.8019 -29.1322 -8
      vertex 17.5 -30.3109 -8
      vertex 15.8019 -30.8678 -8
    endloop
  endfacet
  facet normal 8.88392e-16 1.11401e-15 -1
    outer loop
      vertex 15.8019 30.8678 -8
      vertex 15.2366 31.3186 -8
      vertex 17.5 30.3109 -8
    endloop
  endfacet
  facet normal 1.106e-16 -5.42858e-17 -1
    outer loop
      vertex 20.445 19.9499 -8
      vertex 17.5 30.3109 -8
      vertex 23.4196 26.0101 -8
    endloop
  endfacet
  facet normal -2.93123e-16 5.341e-17 -1
    outer loop
      vertex 21.8019 17.1322 -8
      vertex 23.4196 26.0101 -8
      vertex 18.9 -15.4235 -8
    endloop
  endfacet
  facet normal 2.42495e-16 -5.01513e-18 -1
    outer loop
      vertex 18.9 -15.4235 -8
      vertex 23.4196 26.0101 -8
      vertex 27 22.0336 -8
    endloop
  endfacet
  facet normal 1.70867e-16 0 -1
    outer loop
      vertex 21.8019 -17.1322 -8
      vertex 27 22.0336 -8
      vertex 27 -22.0336 -8
    endloop
  endfacet
  facet normal 1.85032e-16 5.67553e-17 -1
    outer loop
      vertex 14.445 -28.0501 -8
      vertex 27 -22.0336 -8
      vertex 23.4196 -26.0101 -8
    endloop
  endfacet
  facet normal 3.40804e-16 -2.62563e-16 -1
    outer loop
      vertex 15.8019 -29.1322 -8
      vertex 23.4196 -26.0101 -8
      vertex 17.5 -30.3109 -8
    endloop
  endfacet
  facet normal 8.88392e-16 -1.11401e-15 -1
    outer loop
      vertex 15.8019 -30.8678 -8
      vertex 17.5 -30.3109 -8
      vertex 15.2366 -31.3186 -8
    endloop
  endfacet
  facet normal 1.26605e-16 5.54694e-16 -1
    outer loop
      vertex 1.80194 -33.8678 -8
      vertex 12.753 -31.5637 -8
      vertex 14.0311 -31.8554 -8
    endloop
  endfacet
  facet normal 1.54028e-16 1.93145e-16 -1
    outer loop
      vertex 14.445 -28.0501 -8
      vertex 23.4196 -26.0101 -8
      vertex 15.8019 -29.1322 -8
    endloop
  endfacet
  facet normal -1.93009e-16 8.45627e-16 -1
    outer loop
      vertex 12.753 -28.4363 -8
      vertex 27 -22.0336 -8
      vertex 14.445 -28.0501 -8
    endloop
  endfacet
  facet normal 2.04049e-16 -3.78823e-17 -1
    outer loop
      vertex 18.753 -19.5637 -8
      vertex 27 -22.0336 -8
      vertex 12.753 -28.4363 -8
    endloop
  endfacet
  facet normal 2.43224e-16 2.61705e-19 -1
    outer loop
      vertex 1.80194 -32.1322 -8
      vertex 16.3937 -18.207 -8
      vertex 12.753 -28.4363 -8
    endloop
  endfacet
  facet normal 1.83681e-16 2.07849e-16 -1
    outer loop
      vertex 1.80194 -33.8678 -8
      vertex 14.0311 -31.8554 -8
      vertex 10.8156 -33.287 -8
    endloop
  endfacet
  facet normal 2.20927e-16 1.06393e-16 -1
    outer loop
      vertex 1.80194 -33.8678 -8
      vertex 12 -30 -8
      vertex 12.753 -31.5637 -8
    endloop
  endfacet
  facet normal 0 1.16767e-15 -1
    outer loop
      vertex 0.62259 -34.8083 -8
      vertex 10.8156 -33.287 -8
      vertex 3.6585 -34.8083 -8
    endloop
  endfacet
  facet normal 1.21429e-16 1.27887e-16 -1
    outer loop
      vertex 1.80194 -32.1322 -8
      vertex 12.25 -21.2176 -8
      vertex 16.3937 -18.207 -8
    endloop
  endfacet
  facet normal 4.72194e-16 -2.07884e-16 -1
    outer loop
      vertex 7.57092 -23.3009 -8
      vertex 12.25 -21.2176 -8
      vertex 1.80194 -32.1322 -8
    endloop
  endfacet
  facet normal 0 -0 -1
    outer loop
      vertex -2 -33 -8
      vertex -7.57092 -23.3009 -8
      vertex -1.24698 -31.4363 -8
    endloop
  endfacet
  facet normal 1.73408e-16 -5.48916e-17 -1
    outer loop
      vertex -2.56095 -24.3658 -8
      vertex 2.56095 -24.3658 -8
      vertex 0.445042 -31.0501 -8
    endloop
  endfacet
  facet normal 5.10079e-16 2.92976e-16 -1
    outer loop
      vertex -2 -33 -8
      vertex -12.25 -21.2176 -8
      vertex -7.57092 -23.3009 -8
    endloop
  endfacet
  facet normal 0 0 -1
    outer loop
      vertex -7.57092 -23.3009 -8
      vertex -2.56095 -24.3658 -8
      vertex -1.24698 -31.4363 -8
    endloop
  endfacet
  facet normal 2.04984e-16 9.8715e-17 -1
    outer loop
      vertex -1.24698 -34.5637 -8
      vertex -15 -24 -8
      vertex -2 -33 -8
    endloop
  endfacet
  facet normal 0 -0 -1
    outer loop
      vertex 18 18 -8
      vertex 17.5 30.3109 -8
      vertex 18.753 19.5637 -8
    endloop
  endfacet
  facet normal 1.62208e-16 0 -1
    outer loop
      vertex -1.24698 -34.5637 -8
      vertex -12.1981 -30.8678 -8
      vertex -12.1981 -29.1322 -8
    endloop
  endfacet
  facet normal 0 0 -1
    outer loop
      vertex 18.753 -19.5637 -8
      vertex 16.3937 -18.207 -8
      vertex 18 -18 -8
    endloop
  endfacet
  facet normal 1.51643e-15 4.34408e-15 -1
    outer loop
      vertex 20.445 -19.9499 -8
      vertex 27 -22.0336 -8
      vertex 18.753 -19.5637 -8
    endloop
  endfacet
  facet normal 4.14443e-17 7.20767e-17 -1
    outer loop
      vertex 16.3937 -18.207 -8
      vertex 18.753 -19.5637 -8
      vertex 12.753 -28.4363 -8
    endloop
  endfacet
  facet normal 9.68793e-17 -1.21483e-16 -1
    outer loop
      vertex 21.8019 -18.8678 -8
      vertex 27 -22.0336 -8
      vertex 20.445 -19.9499 -8
    endloop
  endfacet
  facet normal 5.30115e-16 2.15303e-17 -1
    outer loop
      vertex 18 18 -8
      vertex 15.8019 30.8678 -8
      vertex 17.5 30.3109 -8
    endloop
  endfacet
  facet normal 1.63537e-17 2.05069e-17 -1
    outer loop
      vertex 20.445 -16.0501 -8
      vertex 27 22.0336 -8
      vertex 21.8019 -17.1322 -8
    endloop
  endfacet
  facet normal 5.42904e-16 -7.87862e-17 -1
    outer loop
      vertex 18.753 -16.4363 -8
      vertex 18.9 -15.4235 -8
      vertex 20.445 -16.0501 -8
    endloop
  endfacet
  facet normal 5.46188e-16 -7.0688e-17 -1
    outer loop
      vertex 18.9 -15.4235 -8
      vertex 27 22.0336 -8
      vertex 20.445 -16.0501 -8
    endloop
  endfacet
  facet normal 0 0 -1
    outer loop
      vertex 18.753 16.4363 -8
      vertex 18.9 15.4235 -8
      vertex 18 18 -8
    endloop
  endfacet
  facet normal 0 0 -1
    outer loop
      vertex 18.9 -15.4235 -8
      vertex 18.753 -16.4363 -8
      vertex 16.3937 -18.207 -8
    endloop
  endfacet
  facet normal 0 0 -1
    outer loop
      vertex 18.753 -16.4363 -8
      vertex 18 -18 -8
      vertex 16.3937 -18.207 -8
    endloop
  endfacet
  facet normal 5.42904e-16 7.87862e-17 -1
    outer loop
      vertex 20.445 16.0501 -8
      vertex 18.9 15.4235 -8
      vertex 18.753 16.4363 -8
    endloop
  endfacet
  facet normal -0 0 -1
    outer loop
      vertex 20.445 19.9499 -8
      vertex 23.4196 26.0101 -8
      vertex 21.8019 18.8678 -8
    endloop
  endfacet
  facet normal 5.74857e-16 0 -1
    outer loop
      vertex 18.9 15.4235 -8
      vertex 20.445 16.0501 -8
      vertex 18.9 -15.4235 -8
    endloop
  endfacet
  facet normal -0 0 -1
    outer loop
      vertex 21.8019 18.8678 -8
      vertex 23.4196 26.0101 -8
      vertex 21.8019 17.1322 -8
    endloop
  endfacet
  facet normal -2.34214e-17 2.93695e-17 -1
    outer loop
      vertex 20.445 16.0501 -8
      vertex 21.8019 17.1322 -8
      vertex 18.9 -15.4235 -8
    endloop
  endfacet
  facet normal 5.11315e-16 5.96142e-17 -1
    outer loop
      vertex 18.753 19.5637 -8
      vertex 17.5 30.3109 -8
      vertex 20.445 19.9499 -8
    endloop
  endfacet
  facet normal 2.00474e-14 7.00283e-15 -1
    outer loop
      vertex 18.9 15.4235 -8
      vertex 14.445 28.0501 -8
      vertex 18 18 -8
    endloop
  endfacet
  facet normal 2.43313e-16 0 -1
    outer loop
      vertex 1.80194 -32.1322 -8
      vertex 12.753 -28.4363 -8
      vertex 1.80194 -33.8678 -8
    endloop
  endfacet
  facet normal 2.07484e-15 9.09046e-15 -1
    outer loop
      vertex -1.24698 -34.5637 -8
      vertex -0.175304 -34.8083 -8
      vertex -13.555 -31.9499 -8
    endloop
  endfacet
  facet normal 1.13974e-16 -1.42919e-16 -1
    outer loop
      vertex -12.1981 -30.8678 -8
      vertex -1.24698 -34.5637 -8
      vertex -13.555 -31.9499 -8
    endloop
  endfacet
  facet normal -0.406737 -0.913545 -2.40836e-16
    outer loop
      vertex -10.8156 -33.287 -8
      vertex -10.8156 -33.287 -5
      vertex -14.0964 -31.8263 -5
    endloop
  endfacet
  facet normal -0.406737 -0.913545 -0
    outer loop
      vertex -14.0964 -31.8263 -8
      vertex -10.8156 -33.287 -8
      vertex -14.0964 -31.8263 -5
    endloop
  endfacet
  facet normal 0.222521 0.974928 0
    outer loop
      vertex -14.0964 -31.8263 -8
      vertex -14.0964 -31.8263 -5
      vertex -13.555 -31.9499 -8
    endloop
  endfacet
  facet normal 0.222521 0.974928 1.31759e-16
    outer loop
      vertex -13.555 -31.9499 -8
      vertex -14.0964 -31.8263 -5
      vertex -13.555 -31.9499 -5
    endloop
  endfacet
  facet normal -0.62349 0.781831 0
    outer loop
      vertex -12.1981 -30.8678 -8
      vertex -13.555 -31.9499 -8
      vertex -12.1981 -30.8678 -5
    endloop
  endfacet
  facet normal -0.62349 0.781831 -3.80728e-16
    outer loop
      vertex -12.1981 -30.8678 -5
      vertex -13.555 -31.9499 -8
      vertex -13.555 -31.9499 -5
    endloop
  endfacet
  facet normal -1 0 0
    outer loop
      vertex -12.1981 -29.1322 -8
      vertex -12.1981 -30.8678 -8
      vertex -12.1981 -29.1322 -5
    endloop
  endfacet
  facet normal -1 0 0
    outer loop
      vertex -12.1981 -29.1322 -5
      vertex -12.1981 -30.8678 -8
      vertex -12.1981 -30.8678 -5
    endloop
  endfacet
  facet normal -0.62349 -0.781831 -3.6918e-16
    outer loop
      vertex -13.555 -28.0501 -5
      vertex -13.555 -28.0501 -8
      vertex -12.1981 -29.1322 -8
    endloop
  endfacet
  facet normal -0.62349 -0.781831 0
    outer loop
      vertex -12.1981 -29.1322 -5
      vertex -13.555 -28.0501 -5
      vertex -12.1981 -29.1322 -8
    endloop
  endfacet
  facet normal 0.222521 -0.974928 1.23516e-16
    outer loop
      vertex -15.247 -28.4363 -8
      vertex -13.555 -28.0501 -8
      vertex -13.555 -28.0501 -5
    endloop
  endfacet
  facet normal 0.222521 -0.974928 1.31759e-16
    outer loop
      vertex -15.247 -28.4363 -5
      vertex -15.247 -28.4363 -8
      vertex -13.555 -28.0501 -5
    endloop
  endfacet
  facet normal 0.900969 -0.433884 5.00133e-16
    outer loop
      vertex -16 -30 -8
      vertex -15.247 -28.4363 -8
      vertex -15.247 -28.4363 -5
    endloop
  endfacet
  facet normal 0.900969 -0.433884 0
    outer loop
      vertex -16 -30 -5
      vertex -16 -30 -8
      vertex -15.247 -28.4363 -5
    endloop
  endfacet
  facet normal 0.900969 0.433884 0
    outer loop
      vertex -15.4 -31.2459 -8
      vertex -16 -30 -8
      vertex -16 -30 -5
    endloop
  endfacet
  facet normal 0.900969 0.433884 5.33481e-16
    outer loop
      vertex -15.4 -31.2459 -5
      vertex -15.4 -31.2459 -8
      vertex -16 -30 -5
    endloop
  endfacet
  facet normal -0.406737 -0.913545 -2.40836e-16
    outer loop
      vertex -15.4 -31.2459 -8
      vertex -15.4 -31.2459 -5
      vertex -17.5 -30.3109 -5
    endloop
  endfacet
  facet normal -0.406737 -0.913545 -0
    outer loop
      vertex -17.5 -30.3109 -8
      vertex -15.4 -31.2459 -8
      vertex -17.5 -30.3109 -5
    endloop
  endfacet
  facet normal -0.587785 -0.809017 -0
    outer loop
      vertex -17.5 -30.3109 -8
      vertex -17.5 -30.3109 -5
      vertex -23.4196 -26.0101 -5
    endloop
  endfacet
  facet normal -0.587785 -0.809017 -0
    outer loop
      vertex -23.4196 -26.0101 -8
      vertex -17.5 -30.3109 -8
      vertex -23.4196 -26.0101 -5
    endloop
  endfacet
  facet normal -0.743145 -0.669131 0
    outer loop
      vertex -23.4196 -26.0101 -5
      vertex -25 -24.2548 -5
      vertex -23.4196 -26.0101 -8
    endloop
  endfacet
  facet normal -0.743145 -0.669131 -8.17175e-16
    outer loop
      vertex -23.4196 -26.0101 -8
      vertex -25 -24.2548 -5
      vertex -25 -24.2548 -8
    endloop
  endfacet
  facet normal -1 0 0
    outer loop
      vertex -25 -24 -8
      vertex -25 -24.2548 -8
      vertex -25 -24 -5
    endloop
  endfacet
  facet normal -1 0 0
    outer loop
      vertex -25 -24 -5
      vertex -25 -24.2548 -8
      vertex -25 -24.2548 -5
    endloop
  endfacet
  facet normal -0 1 0
    outer loop
      vertex -23 -24 -8
      vertex -25 -24 -8
      vertex -23 -24 -5
    endloop
  endfacet
  facet normal 0 1 0
    outer loop
      vertex -23 -24 -5
      vertex -25 -24 -8
      vertex -25 -24 -5
    endloop
  endfacet
  facet normal -1 0 0
    outer loop
      vertex -23 24 -8
      vertex -23 14 -8
      vertex -23 24 -5
    endloop
  endfacet
  facet normal -1 0 0
    outer loop
      vertex -23 24 -5
      vertex -23 14 -8
      vertex -23 -14 -8
    endloop
  endfacet
  facet normal -1 0 0
    outer loop
      vertex -23 24 -5
      vertex -23 -14 -8
      vertex -23 -24 -8
    endloop
  endfacet
  facet normal -1 0 0
    outer loop
      vertex -23 24 -5
      vertex -23 -24 -8
      vertex -23 -24 -5
    endloop
  endfacet
  facet normal 0 -1 0
    outer loop
      vertex -25 24 -8
      vertex -23 24 -8
      vertex -23 24 -5
    endloop
  endfacet
  facet normal -0 -1 0
    outer loop
      vertex -25 24 -5
      vertex -25 24 -8
      vertex -23 24 -5
    endloop
  endfacet
  facet normal -1 0 -0
    outer loop
      vertex -25 24.2548 -8
      vertex -25 24 -8
      vertex -25 24.2548 -5
    endloop
  endfacet
  facet normal -1 0 0
    outer loop
      vertex -25 24.2548 -5
      vertex -25 24 -8
      vertex -25 24 -5
    endloop
  endfacet
  facet normal -0.743145 0.669131 -7.9241e-16
    outer loop
      vertex -25 24.2548 -5
      vertex -23.4196 26.0101 -5
      vertex -25 24.2548 -8
    endloop
  endfacet
  facet normal -0.743145 0.669131 0
    outer loop
      vertex -25 24.2548 -8
      vertex -23.4196 26.0101 -5
      vertex -23.4196 26.0101 -8
    endloop
  endfacet
  facet normal -0.587785 0.809017 0
    outer loop
      vertex -23.4196 26.0101 -5
      vertex -17.5 30.3109 -5
      vertex -23.4196 26.0101 -8
    endloop
  endfacet
  facet normal -0.587785 0.809017 0
    outer loop
      vertex -23.4196 26.0101 -8
      vertex -17.5 30.3109 -5
      vertex -17.5 30.3109 -8
    endloop
  endfacet
  facet normal -0.406737 0.913545 0
    outer loop
      vertex -17.5 30.3109 -5
      vertex -15.4 31.2459 -5
      vertex -17.5 30.3109 -8
    endloop
  endfacet
  facet normal -0.406737 0.913545 -2.7095e-16
    outer loop
      vertex -17.5 30.3109 -8
      vertex -15.4 31.2459 -5
      vertex -15.4 31.2459 -8
    endloop
  endfacet
  facet normal 0.900969 -0.433884 5.50163e-16
    outer loop
      vertex -16 30 -8
      vertex -15.4 31.2459 -8
      vertex -15.4 31.2459 -5
    endloop
  endfacet
  facet normal 0.900969 -0.433884 0
    outer loop
      vertex -16 30 -5
      vertex -16 30 -8
      vertex -15.4 31.2459 -5
    endloop
  endfacet
  facet normal 0.900969 0.433884 0
    outer loop
      vertex -15.247 28.4363 -8
      vertex -16 30 -8
      vertex -16 30 -5
    endloop
  endfacet
  facet normal 0.900969 0.433884 5.33481e-16
    outer loop
      vertex -15.247 28.4363 -5
      vertex -15.247 28.4363 -8
      vertex -16 30 -5
    endloop
  endfacet
  facet normal 0.222521 0.974928 1.31759e-16
    outer loop
      vertex -15.247 28.4363 -8
      vertex -15.247 28.4363 -5
      vertex -13.555 28.0501 -8
    endloop
  endfacet
  facet normal 0.222521 0.974928 1.31759e-16
    outer loop
      vertex -13.555 28.0501 -8
      vertex -15.247 28.4363 -5
      vertex -13.555 28.0501 -5
    endloop
  endfacet
  facet normal -0.62349 0.781831 0
    outer loop
      vertex -12.1981 29.1322 -8
      vertex -13.555 28.0501 -8
      vertex -12.1981 29.1322 -5
    endloop
  endfacet
  facet normal -0.62349 0.781831 -3.80728e-16
    outer loop
      vertex -12.1981 29.1322 -5
      vertex -13.555 28.0501 -8
      vertex -13.555 28.0501 -5
    endloop
  endfacet
  facet normal -1 0 0
    outer loop
      vertex -12.1981 30.8678 -8
      vertex -12.1981 29.1322 -8
      vertex -12.1981 30.8678 -5
    endloop
  endfacet
  facet normal -1 0 0
    outer loop
      vertex -12.1981 30.8678 -5
      vertex -12.1981 29.1322 -8
      vertex -12.1981 29.1322 -5
    endloop
  endfacet
  facet normal -0.62349 -0.781831 -3.6918e-16
    outer loop
      vertex -13.555 31.9499 -5
      vertex -13.555 31.9499 -8
      vertex -12.1981 30.8678 -8
    endloop
  endfacet
  facet normal -0.62349 -0.781831 0
    outer loop
      vertex -12.1981 30.8678 -5
      vertex -13.555 31.9499 -5
      vertex -12.1981 30.8678 -8
    endloop
  endfacet
  facet normal 0.222521 -0.974928 1.35877e-16
    outer loop
      vertex -14.0964 31.8263 -8
      vertex -13.555 31.9499 -8
      vertex -13.555 31.9499 -5
    endloop
  endfacet
  facet normal 0.222521 -0.974928 0
    outer loop
      vertex -14.0964 31.8263 -5
      vertex -14.0964 31.8263 -8
      vertex -13.555 31.9499 -5
    endloop
  endfacet
  facet normal -0.406737 0.913545 0
    outer loop
      vertex -14.0964 31.8263 -5
      vertex -10.8156 33.287 -5
      vertex -14.0964 31.8263 -8
    endloop
  endfacet
  facet normal -0.406737 0.913545 -2.46908e-16
    outer loop
      vertex -14.0964 31.8263 -8
      vertex -10.8156 33.287 -5
      vertex -10.8156 33.287 -8
    endloop
  endfacet
  facet normal -0.207912 0.978148 -1.23108e-16
    outer loop
      vertex -10.8156 33.287 -5
      vertex -3.6585 34.8083 -5
      vertex -10.8156 33.287 -8
    endloop
  endfacet
  facet normal -0.207912 0.978148 -5.50604e-17
    outer loop
      vertex -10.8156 33.287 -8
      vertex -3.6585 34.8083 -5
      vertex -3.6585 34.8083 -8
    endloop
  endfacet
  facet normal 0 1 0
    outer loop
      vertex -3.6585 34.8083 -5
      vertex -0.175304 34.8083 -5
      vertex -3.6585 34.8083 -8
    endloop
  endfacet
  facet normal 0 1 0
    outer loop
      vertex -3.6585 34.8083 -8
      vertex -0.175304 34.8083 -5
      vertex -0.175304 34.8083 -8
    endloop
  endfacet
  facet normal 0.222521 -0.974928 8.64667e-17
    outer loop
      vertex -1.24698 34.5637 -8
      vertex -0.175304 34.8083 -8
      vertex -0.175304 34.8083 -5
    endloop
  endfacet
  facet normal 0.222521 -0.974928 9.88192e-17
    outer loop
      vertex -1.24698 34.5637 -5
      vertex -1.24698 34.5637 -8
      vertex -0.175304 34.8083 -5
    endloop
  endfacet
  facet normal 0.900969 -0.433884 4.00125e-16
    outer loop
      vertex -2 33 -8
      vertex -1.24698 34.5637 -8
      vertex -1.24698 34.5637 -5
    endloop
  endfacet
  facet normal 0.900969 -0.433884 4.00111e-16
    outer loop
      vertex -2 33 -5
      vertex -2 33 -8
      vertex -1.24698 34.5637 -5
    endloop
  endfacet
  facet normal 0.900969 0.433884 4.00125e-16
    outer loop
      vertex -1.24698 31.4363 -8
      vertex -2 33 -8
      vertex -2 33 -5
    endloop
  endfacet
  facet normal 0.900969 0.433884 4.00111e-16
    outer loop
      vertex -1.24698 31.4363 -5
      vertex -1.24698 31.4363 -8
      vertex -2 33 -5
    endloop
  endfacet
  facet normal 0.222521 0.974928 9.88192e-17
    outer loop
      vertex -1.24698 31.4363 -8
      vertex -1.24698 31.4363 -5
      vertex 0.445042 31.0501 -8
    endloop
  endfacet
  facet normal 0.222521 0.974928 9.05842e-17
    outer loop
      vertex 0.445042 31.0501 -8
      vertex -1.24698 31.4363 -5
      vertex 0.445042 31.0501 -5
    endloop
  endfacet
  facet normal -0.62349 0.781831 -2.76885e-16
    outer loop
      vertex 1.80194 32.1322 -8
      vertex 0.445042 31.0501 -8
      vertex 1.80194 32.1322 -5
    endloop
  endfacet
  facet normal -0.62349 0.781831 -2.76878e-16
    outer loop
      vertex 1.80194 32.1322 -5
      vertex 0.445042 31.0501 -8
      vertex 0.445042 31.0501 -5
    endloop
  endfacet
  facet normal -1 0 -4.44089e-16
    outer loop
      vertex 1.80194 33.8678 -8
      vertex 1.80194 32.1322 -8
      vertex 1.80194 33.8678 -5
    endloop
  endfacet
  facet normal -1 0 -4.44089e-16
    outer loop
      vertex 1.80194 33.8678 -5
      vertex 1.80194 32.1322 -8
      vertex 1.80194 32.1322 -5
    endloop
  endfacet
  facet normal -0.62349 -0.781831 -2.30738e-16
    outer loop
      vertex 0.62259 34.8083 -5
      vertex 0.62259 34.8083 -8
      vertex 1.80194 33.8678 -8
    endloop
  endfacet
  facet normal -0.62349 -0.781831 -2.76885e-16
    outer loop
      vertex 1.80194 33.8678 -5
      vertex 0.62259 34.8083 -5
      vertex 1.80194 33.8678 -8
    endloop
  endfacet
  facet normal 0 1 0
    outer loop
      vertex 0.62259 34.8083 -5
      vertex 3.6585 34.8083 -5
      vertex 0.62259 34.8083 -8
    endloop
  endfacet
  facet normal 0 1 0
    outer loop
      vertex 0.62259 34.8083 -8
      vertex 3.6585 34.8083 -5
      vertex 3.6585 34.8083 -8
    endloop
  endfacet
  facet normal 0.207912 0.978148 1.23108e-16
    outer loop
      vertex 10.8156 33.287 -5
      vertex 10.8156 33.287 -8
      vertex 3.6585 34.8083 -5
    endloop
  endfacet
  facet normal 0.207912 0.978148 9.23313e-17
    outer loop
      vertex 3.6585 34.8083 -5
      vertex 10.8156 33.287 -8
      vertex 3.6585 34.8083 -8
    endloop
  endfacet
  facet normal 0.406737 0.913545 2.40836e-16
    outer loop
      vertex 14.0311 31.8554 -5
      vertex 14.0311 31.8554 -8
      vertex 10.8156 33.287 -5
    endloop
  endfacet
  facet normal 0.406737 0.913545 2.40836e-16
    outer loop
      vertex 10.8156 33.287 -5
      vertex 14.0311 31.8554 -8
      vertex 10.8156 33.287 -8
    endloop
  endfacet
  facet normal 0.222521 -0.974928 1.35877e-16
    outer loop
      vertex 12.753 31.5637 -8
      vertex 14.0311 31.8554 -8
      vertex 14.0311 31.8554 -5
    endloop
  endfacet
  facet normal 0.222521 -0.974928 1.31759e-16
    outer loop
      vertex 12.753 31.5637 -5
      vertex 12.753 31.5637 -8
      vertex 14.0311 31.8554 -5
    endloop
  endfacet
  facet normal 0.900969 -0.433884 5.50149e-16
    outer loop
      vertex 12 30 -8
      vertex 12.753 31.5637 -8
      vertex 12.753 31.5637 -5
    endloop
  endfacet
  facet normal 0.900969 -0.433884 0
    outer loop
      vertex 12 30 -5
      vertex 12 30 -8
      vertex 12.753 31.5637 -5
    endloop
  endfacet
  facet normal 0.900969 0.433884 0
    outer loop
      vertex 12.753 28.4363 -8
      vertex 12 30 -8
      vertex 12 30 -5
    endloop
  endfacet
  facet normal 0.900969 0.433884 5.33481e-16
    outer loop
      vertex 12.753 28.4363 -5
      vertex 12.753 28.4363 -8
      vertex 12 30 -5
    endloop
  endfacet
  facet normal 0.222521 0.974928 1.31759e-16
    outer loop
      vertex 12.753 28.4363 -8
      vertex 12.753 28.4363 -5
      vertex 14.445 28.0501 -8
    endloop
  endfacet
  facet normal 0.222521 0.974928 1.31759e-16
    outer loop
      vertex 14.445 28.0501 -8
      vertex 12.753 28.4363 -5
      vertex 14.445 28.0501 -5
    endloop
  endfacet
  facet normal -0.62349 0.781831 0
    outer loop
      vertex 15.8019 29.1322 -8
      vertex 14.445 28.0501 -8
      vertex 15.8019 29.1322 -5
    endloop
  endfacet
  facet normal -0.62349 0.781831 -3.46104e-16
    outer loop
      vertex 15.8019 29.1322 -5
      vertex 14.445 28.0501 -8
      vertex 14.445 28.0501 -5
    endloop
  endfacet
  facet normal -1 0 0
    outer loop
      vertex 15.8019 30.8678 -8
      vertex 15.8019 29.1322 -8
      vertex 15.8019 30.8678 -5
    endloop
  endfacet
  facet normal -1 0 0
    outer loop
      vertex 15.8019 30.8678 -5
      vertex 15.8019 29.1322 -8
      vertex 15.8019 29.1322 -5
    endloop
  endfacet
  facet normal -0.62349 -0.781831 -3.6918e-16
    outer loop
      vertex 15.2366 31.3186 -5
      vertex 15.2366 31.3186 -8
      vertex 15.8019 30.8678 -8
    endloop
  endfacet
  facet normal -0.62349 -0.781831 0
    outer loop
      vertex 15.8019 30.8678 -5
      vertex 15.2366 31.3186 -5
      vertex 15.8019 30.8678 -8
    endloop
  endfacet
  facet normal 0.406737 0.913545 -0
    outer loop
      vertex 17.5 30.3109 -5
      vertex 17.5 30.3109 -8
      vertex 15.2366 31.3186 -5
    endloop
  endfacet
  facet normal 0.406737 0.913545 2.40836e-16
    outer loop
      vertex 15.2366 31.3186 -5
      vertex 17.5 30.3109 -8
      vertex 15.2366 31.3186 -8
    endloop
  endfacet
  facet normal 0.587785 0.809017 -0
    outer loop
      vertex 23.4196 26.0101 -5
      vertex 23.4196 26.0101 -8
      vertex 17.5 30.3109 -5
    endloop
  endfacet
  facet normal 0.587785 0.809017 -0
    outer loop
      vertex 17.5 30.3109 -5
      vertex 23.4196 26.0101 -8
      vertex 17.5 30.3109 -8
    endloop
  endfacet
  facet normal 0.743145 0.669131 0
    outer loop
      vertex 23.4196 26.0101 -5
      vertex 27 22.0336 -5
      vertex 27 22.0336 -8
    endloop
  endfacet
  facet normal 0.743145 0.669131 0
    outer loop
      vertex 23.4196 26.0101 -8
      vertex 23.4196 26.0101 -5
      vertex 27 22.0336 -8
    endloop
  endfacet
  facet normal 1 0 0
    outer loop
      vertex 27 -22.0336 -8
      vertex 27 22.0336 -8
      vertex 27 22.0336 -5
    endloop
  endfacet
  facet normal 1 0 -0
    outer loop
      vertex 27 -22.0336 -5
      vertex 27 -22.0336 -8
      vertex 27 22.0336 -5
    endloop
  endfacet
  facet normal 0.743145 -0.669131 0
    outer loop
      vertex 27 -22.0336 -5
      vertex 23.4196 -26.0101 -5
      vertex 23.4196 -26.0101 -8
    endloop
  endfacet
  facet normal 0.743145 -0.669131 0
    outer loop
      vertex 27 -22.0336 -8
      vertex 27 -22.0336 -5
      vertex 23.4196 -26.0101 -8
    endloop
  endfacet
  facet normal 0.587785 -0.809017 0
    outer loop
      vertex 23.4196 -26.0101 -5
      vertex 17.5 -30.3109 -5
      vertex 17.5 -30.3109 -8
    endloop
  endfacet
  facet normal 0.587785 -0.809017 0
    outer loop
      vertex 23.4196 -26.0101 -8
      vertex 23.4196 -26.0101 -5
      vertex 17.5 -30.3109 -8
    endloop
  endfacet
  facet normal 0.406737 -0.913545 2.25767e-16
    outer loop
      vertex 17.5 -30.3109 -5
      vertex 15.2366 -31.3186 -5
      vertex 15.2366 -31.3186 -8
    endloop
  endfacet
  facet normal 0.406737 -0.913545 0
    outer loop
      vertex 17.5 -30.3109 -8
      vertex 17.5 -30.3109 -5
      vertex 15.2366 -31.3186 -8
    endloop
  endfacet
  facet normal -0.62349 0.781831 0
    outer loop
      vertex 15.8019 -30.8678 -8
      vertex 15.2366 -31.3186 -8
      vertex 15.8019 -30.8678 -5
    endloop
  endfacet
  facet normal -0.62349 0.781831 -3.63413e-16
    outer loop
      vertex 15.8019 -30.8678 -5
      vertex 15.2366 -31.3186 -8
      vertex 15.2366 -31.3186 -5
    endloop
  endfacet
  facet normal -1 0 0
    outer loop
      vertex 15.8019 -29.1322 -8
      vertex 15.8019 -30.8678 -8
      vertex 15.8019 -29.1322 -5
    endloop
  endfacet
  facet normal -1 0 0
    outer loop
      vertex 15.8019 -29.1322 -5
      vertex 15.8019 -30.8678 -8
      vertex 15.8019 -30.8678 -5
    endloop
  endfacet
  facet normal -0.62349 -0.781831 -3.6918e-16
    outer loop
      vertex 14.445 -28.0501 -5
      vertex 14.445 -28.0501 -8
      vertex 15.8019 -29.1322 -8
    endloop
  endfacet
  facet normal -0.62349 -0.781831 0
    outer loop
      vertex 15.8019 -29.1322 -5
      vertex 14.445 -28.0501 -5
      vertex 15.8019 -29.1322 -8
    endloop
  endfacet
  facet normal 0.222521 -0.974928 1.23528e-16
    outer loop
      vertex 12.753 -28.4363 -8
      vertex 14.445 -28.0501 -8
      vertex 14.445 -28.0501 -5
    endloop
  endfacet
  facet normal 0.222521 -0.974928 1.31759e-16
    outer loop
      vertex 12.753 -28.4363 -5
      vertex 12.753 -28.4363 -8
      vertex 14.445 -28.0501 -5
    endloop
  endfacet
  facet normal 0.900969 -0.433884 5.50149e-16
    outer loop
      vertex 12 -30 -8
      vertex 12.753 -28.4363 -8
      vertex 12.753 -28.4363 -5
    endloop
  endfacet
  facet normal 0.900969 -0.433884 0
    outer loop
      vertex 12 -30 -5
      vertex 12 -30 -8
      vertex 12.753 -28.4363 -5
    endloop
  endfacet
  facet normal 0.900969 0.433884 0
    outer loop
      vertex 12.753 -31.5637 -8
      vertex 12 -30 -8
      vertex 12 -30 -5
    endloop
  endfacet
  facet normal 0.900969 0.433884 5.33481e-16
    outer loop
      vertex 12.753 -31.5637 -5
      vertex 12.753 -31.5637 -8
      vertex 12 -30 -5
    endloop
  endfacet
  facet normal 0.222521 0.974928 1.31759e-16
    outer loop
      vertex 12.753 -31.5637 -8
      vertex 12.753 -31.5637 -5
      vertex 14.0311 -31.8554 -8
    endloop
  endfacet
  facet normal 0.222521 0.974928 1.31759e-16
    outer loop
      vertex 14.0311 -31.8554 -8
      vertex 12.753 -31.5637 -5
      vertex 14.0311 -31.8554 -5
    endloop
  endfacet
  facet normal 0.406737 -0.913545 2.41992e-16
    outer loop
      vertex 14.0311 -31.8554 -5
      vertex 10.8156 -33.287 -5
      vertex 10.8156 -33.287 -8
    endloop
  endfacet
  facet normal 0.406737 -0.913545 2.40836e-16
    outer loop
      vertex 14.0311 -31.8554 -8
      vertex 14.0311 -31.8554 -5
      vertex 10.8156 -33.287 -8
    endloop
  endfacet
  facet normal 0.207912 -0.978148 1.10152e-16
    outer loop
      vertex 10.8156 -33.287 -5
      vertex 3.6585 -34.8083 -5
      vertex 3.6585 -34.8083 -8
    endloop
  endfacet
  facet normal 0.207912 -0.978148 1.23108e-16
    outer loop
      vertex 10.8156 -33.287 -8
      vertex 10.8156 -33.287 -5
      vertex 3.6585 -34.8083 -8
    endloop
  endfacet
  facet normal 0 -1 0
    outer loop
      vertex 3.6585 -34.8083 -5
      vertex 0.62259 -34.8083 -5
      vertex 0.62259 -34.8083 -8
    endloop
  endfacet
  facet normal 0 -1 0
    outer loop
      vertex 3.6585 -34.8083 -8
      vertex 3.6585 -34.8083 -5
      vertex 0.62259 -34.8083 -8
    endloop
  endfacet
  facet normal -0.62349 0.781831 -2.76885e-16
    outer loop
      vertex 1.80194 -33.8678 -8
      vertex 0.62259 -34.8083 -8
      vertex 1.80194 -33.8678 -5
    endloop
  endfacet
  facet normal -0.62349 0.781831 -2.07662e-16
    outer loop
      vertex 1.80194 -33.8678 -5
      vertex 0.62259 -34.8083 -8
      vertex 0.62259 -34.8083 -5
    endloop
  endfacet
  facet normal -1 0 -4.44089e-16
    outer loop
      vertex 1.80194 -32.1322 -8
      vertex 1.80194 -33.8678 -8
      vertex 1.80194 -32.1322 -5
    endloop
  endfacet
  facet normal -1 0 -4.44089e-16
    outer loop
      vertex 1.80194 -32.1322 -5
      vertex 1.80194 -33.8678 -8
      vertex 1.80194 -33.8678 -5
    endloop
  endfacet
  facet normal -0.62349 -0.781831 -2.53811e-16
    outer loop
      vertex 0.445042 -31.0501 -5
      vertex 0.445042 -31.0501 -8
      vertex 1.80194 -32.1322 -8
    endloop
  endfacet
  facet normal -0.62349 -0.781831 -2.76885e-16
    outer loop
      vertex 1.80194 -32.1322 -5
      vertex 0.445042 -31.0501 -5
      vertex 1.80194 -32.1322 -8
    endloop
  endfacet
  facet normal 0.222521 -0.974928 9.88131e-17
    outer loop
      vertex -1.24698 -31.4363 -8
      vertex 0.445042 -31.0501 -8
      vertex 0.445042 -31.0501 -5
    endloop
  endfacet
  facet normal 0.222521 -0.974928 9.88192e-17
    outer loop
      vertex -1.24698 -31.4363 -5
      vertex -1.24698 -31.4363 -8
      vertex 0.445042 -31.0501 -5
    endloop
  endfacet
  facet normal 0.900969 -0.433884 4.00102e-16
    outer loop
      vertex -2 -33 -8
      vertex -1.24698 -31.4363 -8
      vertex -1.24698 -31.4363 -5
    endloop
  endfacet
  facet normal 0.900969 -0.433884 4.00111e-16
    outer loop
      vertex -2 -33 -5
      vertex -2 -33 -8
      vertex -1.24698 -31.4363 -5
    endloop
  endfacet
  facet normal 0.900969 0.433884 4.00102e-16
    outer loop
      vertex -1.24698 -34.5637 -8
      vertex -2 -33 -8
      vertex -2 -33 -5
    endloop
  endfacet
  facet normal 0.900969 0.433884 4.00111e-16
    outer loop
      vertex -1.24698 -34.5637 -5
      vertex -1.24698 -34.5637 -8
      vertex -2 -33 -5
    endloop
  endfacet
  facet normal -0 1 0
    outer loop
      vertex 2.56095 -24.3658 -8
      vertex -2.56095 -24.3658 -8
      vertex 2.56095 -24.3658 -5
    endloop
  endfacet
  facet normal 0 1 0
    outer loop
      vertex 2.56095 -24.3658 -5
      vertex -2.56095 -24.3658 -8
      vertex -2.56095 -24.3658 -5
    endloop
  endfacet
  facet normal -0.207912 0.978148 -6.15542e-17
    outer loop
      vertex 7.57092 -23.3009 -8
      vertex 2.56095 -24.3658 -8
      vertex 7.57092 -23.3009 -5
    endloop
  endfacet
  facet normal -0.207912 0.978148 -7.71067e-17
    outer loop
      vertex 7.57092 -23.3009 -5
      vertex 2.56095 -24.3658 -8
      vertex 2.56095 -24.3658 -5
    endloop
  endfacet
  facet normal -0.406737 0.913545 0
    outer loop
      vertex 12.25 -21.2176 -8
      vertex 7.57092 -23.3009 -8
      vertex 12.25 -21.2176 -5
    endloop
  endfacet
  facet normal -0.406737 0.913545 -1.4085e-16
    outer loop
      vertex 12.25 -21.2176 -5
      vertex 7.57092 -23.3009 -8
      vertex 7.57092 -23.3009 -5
    endloop
  endfacet
  facet normal -0.587785 0.809017 -6.96078e-16
    outer loop
      vertex 16.3937 -18.207 -8
      vertex 12.25 -21.2176 -8
      vertex 16.3937 -18.207 -5
    endloop
  endfacet
  facet normal -0.587785 0.809017 0
    outer loop
      vertex 16.3937 -18.207 -5
      vertex 12.25 -21.2176 -8
      vertex 12.25 -21.2176 -5
    endloop
  endfacet
  facet normal -0.743145 0.669131 0
    outer loop
      vertex 18.9 -15.4235 -8
      vertex 16.3937 -18.207 -8
      vertex 18.9 -15.4235 -5
    endloop
  endfacet
  facet normal -0.743145 0.669131 -8.25047e-16
    outer loop
      vertex 18.9 -15.4235 -5
      vertex 16.3937 -18.207 -8
      vertex 16.3937 -18.207 -5
    endloop
  endfacet
  facet normal -1 0 0
    outer loop
      vertex 18.9 -15.4235 -5
      vertex 18.9 15.4235 -5
      vertex 18.9 -15.4235 -8
    endloop
  endfacet
  facet normal -1 -0 0
    outer loop
      vertex 18.9 -15.4235 -8
      vertex 18.9 15.4235 -5
      vertex 18.9 15.4235 -8
    endloop
  endfacet
  facet normal -0.743145 -0.669131 -8.8006e-16
    outer loop
      vertex 16.3937 18.207 -8
      vertex 18.9 15.4235 -8
      vertex 16.3937 18.207 -5
    endloop
  endfacet
  facet normal -0.743145 -0.669131 0
    outer loop
      vertex 16.3937 18.207 -5
      vertex 18.9 15.4235 -8
      vertex 18.9 15.4235 -5
    endloop
  endfacet
  facet normal -0.587785 -0.809017 0
    outer loop
      vertex 12.25 21.2176 -5
      vertex 12.25 21.2176 -8
      vertex 16.3937 18.207 -8
    endloop
  endfacet
  facet normal -0.587785 -0.809017 -6.96078e-16
    outer loop
      vertex 16.3937 18.207 -5
      vertex 12.25 21.2176 -5
      vertex 16.3937 18.207 -8
    endloop
  endfacet
  facet normal -0.406737 -0.913545 -1.20418e-16
    outer loop
      vertex 7.57092 23.3009 -5
      vertex 7.57092 23.3009 -8
      vertex 12.25 21.2176 -8
    endloop
  endfacet
  facet normal -0.406737 -0.913545 0
    outer loop
      vertex 12.25 21.2176 -5
      vertex 7.57092 23.3009 -5
      vertex 12.25 21.2176 -8
    endloop
  endfacet
  facet normal -0.207912 -0.978148 -6.15542e-17
    outer loop
      vertex 2.56095 24.3658 -5
      vertex 2.56095 24.3658 -8
      vertex 7.57092 23.3009 -8
    endloop
  endfacet
  facet normal -0.207912 -0.978148 -6.15542e-17
    outer loop
      vertex 7.57092 23.3009 -5
      vertex 2.56095 24.3658 -5
      vertex 7.57092 23.3009 -8
    endloop
  endfacet
  facet normal 0 -1 0
    outer loop
      vertex -2.56095 24.3658 -8
      vertex 2.56095 24.3658 -8
      vertex 2.56095 24.3658 -5
    endloop
  endfacet
  facet normal -0 -1 0
    outer loop
      vertex -2.56095 24.3658 -5
      vertex -2.56095 24.3658 -8
      vertex 2.56095 24.3658 -5
    endloop
  endfacet
  facet normal 0.207912 -0.978148 7.71067e-17
    outer loop
      vertex -7.57092 23.3009 -8
      vertex -2.56095 24.3658 -8
      vertex -2.56095 24.3658 -5
    endloop
  endfacet
  facet normal 0.207912 -0.978148 6.15542e-17
    outer loop
      vertex -7.57092 23.3009 -5
      vertex -7.57092 23.3009 -8
      vertex -2.56095 24.3658 -5
    endloop
  endfacet
  facet normal 0.406737 -0.913545 1.4085e-16
    outer loop
      vertex -12.25 21.2176 -8
      vertex -7.57092 23.3009 -8
      vertex -7.57092 23.3009 -5
    endloop
  endfacet
  facet normal 0.406737 -0.913545 0
    outer loop
      vertex -12.25 21.2176 -5
      vertex -12.25 21.2176 -8
      vertex -7.57092 23.3009 -5
    endloop
  endfacet
  facet normal 0.587785 -0.809017 0
    outer loop
      vertex -15 19.2196 -8
      vertex -12.25 21.2176 -8
      vertex -12.25 21.2176 -5
    endloop
  endfacet
  facet normal 0.587785 -0.809017 2.76235e-16
    outer loop
      vertex -16.3937 18.207 -8
      vertex -15 19.2196 -8
      vertex -12.25 21.2176 -5
    endloop
  endfacet
  facet normal 0.587785 -0.809017 6.96078e-16
    outer loop
      vertex -16.3937 18.207 -5
      vertex -16.3937 18.207 -8
      vertex -12.25 21.2176 -5
    endloop
  endfacet
  facet normal 0.743145 -0.669131 8.66298e-16
    outer loop
      vertex -17.5 16.9784 -8
      vertex -16.3937 18.207 -8
      vertex -16.3937 18.207 -5
    endloop
  endfacet
  facet normal 0.743145 -0.669131 7.9241e-16
    outer loop
      vertex -17.5 16.9784 -5
      vertex -17.5 16.9784 -8
      vertex -16.3937 18.207 -5
    endloop
  endfacet
  facet normal 1 0 0
    outer loop
      vertex -17.5 16.9784 -5
      vertex -17.5 -16.9784 -5
      vertex -17.5 -16.9784 -8
    endloop
  endfacet
  facet normal 1 -0 0
    outer loop
      vertex -17.5 14 -8
      vertex -17.5 16.9784 -5
      vertex -17.5 -14 -8
    endloop
  endfacet
  facet normal 1 -0 0
    outer loop
      vertex -17.5 -14 -8
      vertex -17.5 16.9784 -5
      vertex -17.5 -16.9784 -8
    endloop
  endfacet
  facet normal 1 -0 0
    outer loop
      vertex -17.5 16.9784 -8
      vertex -17.5 16.9784 -5
      vertex -17.5 14 -8
    endloop
  endfacet
  facet normal 0.743145 0.669131 7.80032e-16
    outer loop
      vertex -16.3937 -18.207 -8
      vertex -17.5 -16.9784 -8
      vertex -17.5 -16.9784 -5
    endloop
  endfacet
  facet normal 0.743145 0.669131 8.8006e-16
    outer loop
      vertex -16.3937 -18.207 -5
      vertex -16.3937 -18.207 -8
      vertex -17.5 -16.9784 -5
    endloop
  endfacet
  facet normal 0.587785 0.809017 6.96078e-16
    outer loop
      vertex -16.3937 -18.207 -8
      vertex -16.3937 -18.207 -5
      vertex -15 -19.2196 -8
    endloop
  endfacet
  facet normal 0.587785 0.809017 7.66698e-16
    outer loop
      vertex -15 -19.2196 -8
      vertex -16.3937 -18.207 -5
      vertex -12.25 -21.2176 -8
    endloop
  endfacet
  facet normal 0.587785 0.809017 0
    outer loop
      vertex -12.25 -21.2176 -8
      vertex -16.3937 -18.207 -5
      vertex -12.25 -21.2176 -5
    endloop
  endfacet
  facet normal 0.406737 0.913545 0
    outer loop
      vertex -12.25 -21.2176 -8
      vertex -12.25 -21.2176 -5
      vertex -7.57092 -23.3009 -8
    endloop
  endfacet
  facet normal 0.406737 0.913545 1.20418e-16
    outer loop
      vertex -7.57092 -23.3009 -8
      vertex -12.25 -21.2176 -5
      vertex -7.57092 -23.3009 -5
    endloop
  endfacet
  facet normal 0.207912 0.978148 6.15542e-17
    outer loop
      vertex -7.57092 -23.3009 -8
      vertex -7.57092 -23.3009 -5
      vertex -2.56095 -24.3658 -8
    endloop
  endfacet
  facet normal 0.207912 0.978148 6.15542e-17
    outer loop
      vertex -2.56095 -24.3658 -8
      vertex -7.57092 -23.3009 -5
      vertex -2.56095 -24.3658 -5
    endloop
  endfacet
  facet normal -0.222521 0.974928 0
    outer loop
      vertex -18.753 -19.5637 -8
      vertex -20.445 -19.9499 -8
      vertex -18.753 -19.5637 -5
    endloop
  endfacet
  facet normal -0.222521 0.974928 0
    outer loop
      vertex -18.753 -19.5637 -5
      vertex -20.445 -19.9499 -8
      vertex -20.445 -19.9499 -5
    endloop
  endfacet
  facet normal -0.900969 0.433884 0
    outer loop
      vertex -18 -18 -8
      vertex -18.753 -19.5637 -8
      vertex -18 -18 -5
    endloop
  endfacet
  facet normal -0.900969 0.433884 0
    outer loop
      vertex -18 -18 -5
      vertex -18.753 -19.5637 -8
      vertex -18.753 -19.5637 -5
    endloop
  endfacet
  facet normal -0.900969 -0.433884 -0
    outer loop
      vertex -18.753 -16.4363 -8
      vertex -18 -18 -8
      vertex -18.753 -16.4363 -5
    endloop
  endfacet
  facet normal -0.900969 -0.433884 0
    outer loop
      vertex -18.753 -16.4363 -5
      vertex -18 -18 -8
      vertex -18 -18 -5
    endloop
  endfacet
  facet normal -0.222521 -0.974928 0
    outer loop
      vertex -20.445 -16.0501 -5
      vertex -20.445 -16.0501 -8
      vertex -18.753 -16.4363 -8
    endloop
  endfacet
  facet normal -0.222521 -0.974928 0
    outer loop
      vertex -18.753 -16.4363 -5
      vertex -20.445 -16.0501 -5
      vertex -18.753 -16.4363 -8
    endloop
  endfacet
  facet normal 0.62349 -0.781831 0
    outer loop
      vertex -21.8019 -17.1322 -8
      vertex -20.445 -16.0501 -8
      vertex -20.445 -16.0501 -5
    endloop
  endfacet
  facet normal 0.62349 -0.781831 0
    outer loop
      vertex -21.8019 -17.1322 -5
      vertex -21.8019 -17.1322 -8
      vertex -20.445 -16.0501 -5
    endloop
  endfacet
  facet normal 1 0 0
    outer loop
      vertex -21.8019 -18.8678 -8
      vertex -21.8019 -17.1322 -8
      vertex -21.8019 -17.1322 -5
    endloop
  endfacet
  facet normal 1 0 -0
    outer loop
      vertex -21.8019 -18.8678 -5
      vertex -21.8019 -18.8678 -8
      vertex -21.8019 -17.1322 -5
    endloop
  endfacet
  facet normal 0.62349 0.781831 0
    outer loop
      vertex -21.8019 -18.8678 -8
      vertex -21.8019 -18.8678 -5
      vertex -20.445 -19.9499 -8
    endloop
  endfacet
  facet normal 0.62349 0.781831 0
    outer loop
      vertex -20.445 -19.9499 -8
      vertex -21.8019 -18.8678 -5
      vertex -20.445 -19.9499 -5
    endloop
  endfacet
  facet normal 0.222521 0.974928 2.63518e-16
    outer loop
      vertex 20.445 -19.9499 -5
      vertex 20.445 -19.9499 -8
      vertex 18.753 -19.5637 -5
    endloop
  endfacet
  facet normal 0.222521 0.974928 -0
    outer loop
      vertex 18.753 -19.5637 -5
      vertex 20.445 -19.9499 -8
      vertex 18.753 -19.5637 -8
    endloop
  endfacet
  facet normal -0.62349 0.781831 -7.3836e-16
    outer loop
      vertex 20.445 -19.9499 -5
      vertex 21.8019 -18.8678 -5
      vertex 20.445 -19.9499 -8
    endloop
  endfacet
  facet normal -0.62349 0.781831 0
    outer loop
      vertex 20.445 -19.9499 -8
      vertex 21.8019 -18.8678 -5
      vertex 21.8019 -18.8678 -8
    endloop
  endfacet
  facet normal -1 0 0
    outer loop
      vertex 21.8019 -18.8678 -5
      vertex 21.8019 -17.1322 -5
      vertex 21.8019 -18.8678 -8
    endloop
  endfacet
  facet normal -1 -0 0
    outer loop
      vertex 21.8019 -18.8678 -8
      vertex 21.8019 -17.1322 -5
      vertex 21.8019 -17.1322 -8
    endloop
  endfacet
  facet normal -0.62349 -0.781831 -0
    outer loop
      vertex 21.8019 -17.1322 -8
      vertex 21.8019 -17.1322 -5
      vertex 20.445 -16.0501 -5
    endloop
  endfacet
  facet normal -0.62349 -0.781831 -7.3836e-16
    outer loop
      vertex 20.445 -16.0501 -8
      vertex 21.8019 -17.1322 -8
      vertex 20.445 -16.0501 -5
    endloop
  endfacet
  facet normal 0.222521 -0.974928 0
    outer loop
      vertex 20.445 -16.0501 -5
      vertex 18.753 -16.4363 -5
      vertex 18.753 -16.4363 -8
    endloop
  endfacet
  facet normal 0.222521 -0.974928 2.63518e-16
    outer loop
      vertex 20.445 -16.0501 -8
      vertex 20.445 -16.0501 -5
      vertex 18.753 -16.4363 -8
    endloop
  endfacet
  facet normal 0.900969 -0.433884 0
    outer loop
      vertex 18.753 -16.4363 -5
      vertex 18 -18 -5
      vertex 18 -18 -8
    endloop
  endfacet
  facet normal 0.900969 -0.433884 0
    outer loop
      vertex 18.753 -16.4363 -8
      vertex 18.753 -16.4363 -5
      vertex 18 -18 -8
    endloop
  endfacet
  facet normal 0.900969 0.433884 0
    outer loop
      vertex 18 -18 -5
      vertex 18.753 -19.5637 -5
      vertex 18.753 -19.5637 -8
    endloop
  endfacet
  facet normal 0.900969 0.433884 0
    outer loop
      vertex 18 -18 -8
      vertex 18 -18 -5
      vertex 18.753 -19.5637 -8
    endloop
  endfacet
  facet normal -0.900969 0.433884 0
    outer loop
      vertex -18.753 16.4363 -5
      vertex -18 18 -5
      vertex -18.753 16.4363 -8
    endloop
  endfacet
  facet normal -0.900969 0.433884 0
    outer loop
      vertex -18.753 16.4363 -8
      vertex -18 18 -5
      vertex -18 18 -8
    endloop
  endfacet
  facet normal -0.222521 0.974928 0
    outer loop
      vertex -20.445 16.0501 -5
      vertex -18.753 16.4363 -5
      vertex -20.445 16.0501 -8
    endloop
  endfacet
  facet normal -0.222521 0.974928 0
    outer loop
      vertex -20.445 16.0501 -8
      vertex -18.753 16.4363 -5
      vertex -18.753 16.4363 -8
    endloop
  endfacet
  facet normal -0.900969 -0.433884 0
    outer loop
      vertex -18 18 -5
      vertex -18.753 19.5637 -5
      vertex -18 18 -8
    endloop
  endfacet
  facet normal -0.900969 -0.433884 0
    outer loop
      vertex -18 18 -8
      vertex -18.753 19.5637 -5
      vertex -18.753 19.5637 -8
    endloop
  endfacet
  facet normal -0.222521 -0.974928 -0
    outer loop
      vertex -18.753 19.5637 -8
      vertex -18.753 19.5637 -5
      vertex -20.445 19.9499 -5
    endloop
  endfacet
  facet normal -0.222521 -0.974928 -0
    outer loop
      vertex -20.445 19.9499 -8
      vertex -18.753 19.5637 -8
      vertex -20.445 19.9499 -5
    endloop
  endfacet
  facet normal 0.62349 -0.781831 0
    outer loop
      vertex -20.445 19.9499 -5
      vertex -21.8019 18.8678 -5
      vertex -21.8019 18.8678 -8
    endloop
  endfacet
  facet normal 0.62349 -0.781831 0
    outer loop
      vertex -20.445 19.9499 -8
      vertex -20.445 19.9499 -5
      vertex -21.8019 18.8678 -8
    endloop
  endfacet
  facet normal 1 0 0
    outer loop
      vertex -21.8019 18.8678 -5
      vertex -21.8019 17.1322 -5
      vertex -21.8019 17.1322 -8
    endloop
  endfacet
  facet normal 1 -0 0
    outer loop
      vertex -21.8019 18.8678 -8
      vertex -21.8019 18.8678 -5
      vertex -21.8019 17.1322 -8
    endloop
  endfacet
  facet normal 0.62349 0.781831 -0
    outer loop
      vertex -20.445 16.0501 -5
      vertex -20.445 16.0501 -8
      vertex -21.8019 17.1322 -5
    endloop
  endfacet
  facet normal 0.62349 0.781831 -0
    outer loop
      vertex -21.8019 17.1322 -5
      vertex -20.445 16.0501 -8
      vertex -21.8019 17.1322 -8
    endloop
  endfacet
  facet normal 0.222521 0.974928 0
    outer loop
      vertex 18.753 16.4363 -8
      vertex 18.753 16.4363 -5
      vertex 20.445 16.0501 -8
    endloop
  endfacet
  facet normal 0.222521 0.974928 2.63518e-16
    outer loop
      vertex 20.445 16.0501 -8
      vertex 18.753 16.4363 -5
      vertex 20.445 16.0501 -5
    endloop
  endfacet
  facet normal -0.62349 0.781831 0
    outer loop
      vertex 21.8019 17.1322 -8
      vertex 20.445 16.0501 -8
      vertex 21.8019 17.1322 -5
    endloop
  endfacet
  facet normal -0.62349 0.781831 -7.26832e-16
    outer loop
      vertex 21.8019 17.1322 -5
      vertex 20.445 16.0501 -8
      vertex 20.445 16.0501 -5
    endloop
  endfacet
  facet normal -1 0 0
    outer loop
      vertex 21.8019 18.8678 -8
      vertex 21.8019 17.1322 -8
      vertex 21.8019 18.8678 -5
    endloop
  endfacet
  facet normal -1 0 0
    outer loop
      vertex 21.8019 18.8678 -5
      vertex 21.8019 17.1322 -8
      vertex 21.8019 17.1322 -5
    endloop
  endfacet
  facet normal -0.62349 -0.781831 -7.3836e-16
    outer loop
      vertex 20.445 19.9499 -5
      vertex 20.445 19.9499 -8
      vertex 21.8019 18.8678 -8
    endloop
  endfacet
  facet normal -0.62349 -0.781831 0
    outer loop
      vertex 21.8019 18.8678 -5
      vertex 20.445 19.9499 -5
      vertex 21.8019 18.8678 -8
    endloop
  endfacet
  facet normal 0.222521 -0.974928 2.71748e-16
    outer loop
      vertex 18.753 19.5637 -8
      vertex 20.445 19.9499 -8
      vertex 20.445 19.9499 -5
    endloop
  endfacet
  facet normal 0.222521 -0.974928 0
    outer loop
      vertex 18.753 19.5637 -5
      vertex 18.753 19.5637 -8
      vertex 20.445 19.9499 -5
    endloop
  endfacet
  facet normal 0.900969 -0.433884 0
    outer loop
      vertex 18 18 -8
      vertex 18.753 19.5637 -8
      vertex 18.753 19.5637 -5
    endloop
  endfacet
  facet normal 0.900969 -0.433884 0
    outer loop
      vertex 18 18 -5
      vertex 18 18 -8
      vertex 18.753 19.5637 -5
    endloop
  endfacet
  facet normal 0.900969 0.433884 0
    outer loop
      vertex 18.753 16.4363 -8
      vertex 18 18 -8
      vertex 18 18 -5
    endloop
  endfacet
  facet normal 0.900969 0.433884 -0
    outer loop
      vertex 18.753 16.4363 -5
      vertex 18.753 16.4363 -8
      vertex 18 18 -5
    endloop
  endfacet
  facet normal 0 -0 -1
    outer loop
      vertex -21.8019 18.8678 -8
      vertex -23 24 -8
      vertex -20.445 19.9499 -8
    endloop
  endfacet
  facet normal 2.22045e-16 2.12567e-16 -1
    outer loop
      vertex -18.753 19.5637 -8
      vertex -23 24 -8
      vertex -15 24 -8
    endloop
  endfacet
  facet normal 1.27456e-15 0 -1
    outer loop
      vertex -16.3937 18.207 -8
      vertex -15 24 -8
      vertex -15 19.2196 -8
    endloop
  endfacet
  facet normal 0 0 -1
    outer loop
      vertex -18.753 16.4363 -8
      vertex -17.5 14 -8
      vertex -20.445 16.0501 -8
    endloop
  endfacet
  facet normal -0 0 -1
    outer loop
      vertex -23 14 -8
      vertex -20.445 16.0501 -8
      vertex -17.5 14 -8
    endloop
  endfacet
  facet normal 0 0 -1
    outer loop
      vertex -18 18 -8
      vertex -17.5 16.9784 -8
      vertex -18.753 16.4363 -8
    endloop
  endfacet
  facet normal 0 0 -1
    outer loop
      vertex -17.5 14 -8
      vertex -18.753 16.4363 -8
      vertex -17.5 16.9784 -8
    endloop
  endfacet
  facet normal -0 -0 -1
    outer loop
      vertex -20.445 19.9499 -8
      vertex -23 24 -8
      vertex -18.753 19.5637 -8
    endloop
  endfacet
  facet normal 2.99226e-16 1.46446e-16 -1
    outer loop
      vertex -17.5 16.9784 -8
      vertex -18 18 -8
      vertex -15 24 -8
    endloop
  endfacet
  facet normal 3.01617e-16 1.45251e-16 -1
    outer loop
      vertex -18 18 -8
      vertex -18.753 19.5637 -8
      vertex -15 24 -8
    endloop
  endfacet
  facet normal 0 -0 -1
    outer loop
      vertex -23 14 -8
      vertex -23 24 -8
      vertex -21.8019 18.8678 -8
    endloop
  endfacet
  facet normal 0 0 -1
    outer loop
      vertex -23 14 -8
      vertex -21.8019 18.8678 -8
      vertex -21.8019 17.1322 -8
    endloop
  endfacet
  facet normal 0 0 -1
    outer loop
      vertex -23 14 -8
      vertex -21.8019 17.1322 -8
      vertex -20.445 16.0501 -8
    endloop
  endfacet
  facet normal -4.64735e-16 4.1845e-16 -1
    outer loop
      vertex -17.5 16.9784 -8
      vertex -15 24 -8
      vertex -16.3937 18.207 -8
    endloop
  endfacet
  facet normal 0 0 -1
    outer loop
      vertex -17.5 -16.9784 -8
      vertex -23 -14 -8
      vertex -17.5 -14 -8
    endloop
  endfacet
  facet normal -0 -0 -1
    outer loop
      vertex -18.753 -16.4363 -8
      vertex -23 -14 -8
      vertex -17.5 -16.9784 -8
    endloop
  endfacet
  facet normal 3.01617e-16 -1.45251e-16 -1
    outer loop
      vertex -18 -18 -8
      vertex -15 -24 -8
      vertex -18.753 -19.5637 -8
    endloop
  endfacet
  facet normal 1.27456e-15 0 -1
    outer loop
      vertex -15 -24 -8
      vertex -16.3937 -18.207 -8
      vertex -15 -19.2196 -8
    endloop
  endfacet
  facet normal 2.22045e-16 -1.40073e-16 -1
    outer loop
      vertex -23 -24 -8
      vertex -20.445 -19.9499 -8
      vertex -15 -24 -8
    endloop
  endfacet
  facet normal 7.66005e-17 -3.35609e-16 -1
    outer loop
      vertex -20.445 -19.9499 -8
      vertex -18.753 -19.5637 -8
      vertex -15 -24 -8
    endloop
  endfacet
  facet normal 0 -0 -1
    outer loop
      vertex -21.8019 -17.1322 -8
      vertex -23 -14 -8
      vertex -20.445 -16.0501 -8
    endloop
  endfacet
  facet normal 2.99226e-16 -1.46446e-16 -1
    outer loop
      vertex -15 -24 -8
      vertex -18 -18 -8
      vertex -17.5 -16.9784 -8
    endloop
  endfacet
  facet normal 0 -0 -1
    outer loop
      vertex -18 -18 -8
      vertex -18.753 -16.4363 -8
      vertex -17.5 -16.9784 -8
    endloop
  endfacet
  facet normal -0 -0 -1
    outer loop
      vertex -20.445 -16.0501 -8
      vertex -23 -14 -8
      vertex -18.753 -16.4363 -8
    endloop
  endfacet
  facet normal 0 -0 -1
    outer loop
      vertex -23 -24 -8
      vertex -23 -14 -8
      vertex -21.8019 -17.1322 -8
    endloop
  endfacet
  facet normal 0 0 -1
    outer loop
      vertex -23 -24 -8
      vertex -21.8019 -17.1322 -8
      vertex -21.8019 -18.8678 -8
    endloop
  endfacet
  facet normal 0 0 -1
    outer loop
      vertex -23 -24 -8
      vertex -21.8019 -18.8678 -8
      vertex -20.445 -19.9499 -8
    endloop
  endfacet
  facet normal -4.64735e-16 -4.1845e-16 -1
    outer loop
      vertex -16.3937 -18.207 -8
      vertex -15 -24 -8
      vertex -17.5 -16.9784 -8
    endloop
  endfacet
  facet normal -0 -0 -1
    outer loop
      vertex -23 -14 -8
      vertex -23 14 -8
      vertex -17.5 -14 -8
    endloop
  endfacet
  facet normal 0 0 -1
    outer loop
      vertex -17.5 -14 -8
      vertex -23 14 -8
      vertex -17.5 14 -8
    endloop
  endfacet
endsolid OpenSCAD_Model
