solid OpenSCAD_Model
  facet normal 0 -1 0
    outer loop
      vertex -0.175304 -34.8083 -152
      vertex -3.6585 -34.8083 -152
      vertex -3.6585 -34.8083 -155
    endloop
  endfacet
  facet normal 0 -1 0
    outer loop
      vertex -0.175304 -34.8083 -155
      vertex -0.175304 -34.8083 -152
      vertex -3.6585 -34.8083 -155
    endloop
  endfacet
  facet normal -0.207912 -0.978148 -6.15542e-17
    outer loop
      vertex -3.6585 -34.8083 -155
      vertex -3.6585 -34.8083 -152
      vertex -10.8156 -33.287 -152
    endloop
  endfacet
  facet normal -0.207912 -0.978148 -0
    outer loop
      vertex -10.8156 -33.287 -155
      vertex -3.6585 -34.8083 -155
      vertex -10.8156 -33.287 -152
    endloop
  endfacet
  facet normal 0 0 1
    outer loop
      vertex -15.4 -31.2459 -152
      vertex -16 -30 -152
      vertex -17.5 -30.3109 -152
    endloop
  endfacet
  facet normal -5.12444e-14 1.50922e-13 1
    outer loop
      vertex 0.445042 -31.0501 -152
      vertex 27 -22.0336 -152
      vertex -1.24698 -31.4363 -152
    endloop
  endfacet
  facet normal 0 0 1
    outer loop
      vertex 18 18 -152
      vertex 18.753 19.5637 -152
      vertex 17.5 30.3109 -152
    endloop
  endfacet
  facet normal 0 0 1
    outer loop
      vertex -0.175304 -34.8083 -152
      vertex -1.24698 -34.5637 -152
      vertex -13.555 -31.9499 -152
    endloop
  endfacet
  facet normal 0 0 1
    outer loop
      vertex 1.80194 -32.1322 -152
      vertex 10.8156 -33.287 -152
      vertex 0.445042 -31.0501 -152
    endloop
  endfacet
  facet normal 0 0 1
    outer loop
      vertex 1.80194 -33.8678 -152
      vertex 3.6585 -34.8083 -152
      vertex 1.80194 -32.1322 -152
    endloop
  endfacet
  facet normal 0 0 1
    outer loop
      vertex 12.753 -31.5637 -152
      vertex 12 -30 -152
      vertex 0.445042 -31.0501 -152
    endloop
  endfacet
  facet normal 0 0 1
    outer loop
      vertex 0.62259 -34.8083 -152
      vertex 3.6585 -34.8083 -152
      vertex 1.80194 -33.8678 -152
    endloop
  endfacet
  facet normal 0 0 1
    outer loop
      vertex 3.6585 -34.8083 -152
      vertex 10.8156 -33.287 -152
      vertex 1.80194 -32.1322 -152
    endloop
  endfacet
  facet normal 0 0 1
    outer loop
      vertex 10.8156 -33.287 -152
      vertex 14.0311 -31.8554 -152
      vertex 0.445042 -31.0501 -152
    endloop
  endfacet
  facet normal 0 0 1
    outer loop
      vertex 14.0311 -31.8554 -152
      vertex 12.753 -31.5637 -152
      vertex 0.445042 -31.0501 -152
    endloop
  endfacet
  facet normal -0 0 1
    outer loop
      vertex 12 -30 -152
      vertex 12.753 -28.4363 -152
      vertex 0.445042 -31.0501 -152
    endloop
  endfacet
  facet normal -0 0 1
    outer loop
      vertex 12.753 -28.4363 -152
      vertex 14.445 -28.0501 -152
      vertex 0.445042 -31.0501 -152
    endloop
  endfacet
  facet normal -0 0 1
    outer loop
      vertex 14.445 -28.0501 -152
      vertex 23.4196 -26.0101 -152
      vertex 0.445042 -31.0501 -152
    endloop
  endfacet
  facet normal 0 0 1
    outer loop
      vertex 15.8019 -29.1322 -152
      vertex 17.5 -30.3109 -152
      vertex 14.445 -28.0501 -152
    endloop
  endfacet
  facet normal 0 0 1
    outer loop
      vertex 15.8019 -30.8678 -152
      vertex 17.5 -30.3109 -152
      vertex 15.8019 -29.1322 -152
    endloop
  endfacet
  facet normal -6.41007e-16 -3.08692e-16 1
    outer loop
      vertex 12.753 28.4363 -152
      vertex 12 30 -152
      vertex -2 -33 -152
    endloop
  endfacet
  facet normal 0 0 1
    outer loop
      vertex 15.2366 -31.3186 -152
      vertex 17.5 -30.3109 -152
      vertex 15.8019 -30.8678 -152
    endloop
  endfacet
  facet normal 0 0 1
    outer loop
      vertex 17.5 -30.3109 -152
      vertex 23.4196 -26.0101 -152
      vertex 14.445 -28.0501 -152
    endloop
  endfacet
  facet normal -0 0 1
    outer loop
      vertex 23.4196 -26.0101 -152
      vertex 27 -22.0336 -152
      vertex 0.445042 -31.0501 -152
    endloop
  endfacet
  facet normal -1.75158e-15 3.93774e-16 1
    outer loop
      vertex 18 -18 -152
      vertex 27 22.0336 -152
      vertex -1.24698 -31.4363 -152
    endloop
  endfacet
  facet normal 0 0 1
    outer loop
      vertex 20.445 19.9499 -152
      vertex 21.8019 18.8678 -152
      vertex 23.4196 26.0101 -152
    endloop
  endfacet
  facet normal -1.28772e-15 -5.23001e-17 1
    outer loop
      vertex 18 18 -152
      vertex 17.5 30.3109 -152
      vertex -2 -33 -152
    endloop
  endfacet
  facet normal -1.00104e-16 -4.38582e-16 1
    outer loop
      vertex 14.445 28.0501 -152
      vertex 12.753 28.4363 -152
      vertex -2 -33 -152
    endloop
  endfacet
  facet normal 0 0 1
    outer loop
      vertex 17.5 30.3109 -152
      vertex 15.2366 31.3186 -152
      vertex 15.8019 30.8678 -152
    endloop
  endfacet
  facet normal 3.9634e-16 -5.70997e-16 1
    outer loop
      vertex 17.5 30.3109 -152
      vertex 15.8019 29.1322 -152
      vertex -2 -33 -152
    endloop
  endfacet
  facet normal -0 0 1
    outer loop
      vertex 17.5 30.3109 -152
      vertex 15.8019 30.8678 -152
      vertex 15.8019 29.1322 -152
    endloop
  endfacet
  facet normal -7.74414e-16 -2.79046e-16 1
    outer loop
      vertex 12 30 -152
      vertex 10.8156 33.287 -152
      vertex -2 -33 -152
    endloop
  endfacet
  facet normal -0 0 1
    outer loop
      vertex 12.753 31.5637 -152
      vertex 10.8156 33.287 -152
      vertex 12 30 -152
    endloop
  endfacet
  facet normal -1.67528e-14 1.95778e-16 1
    outer loop
      vertex 0.445042 31.0501 -152
      vertex -1.24698 31.4363 -152
      vertex -2 -33 -152
    endloop
  endfacet
  facet normal -0 0 1
    outer loop
      vertex 14.0311 31.8554 -152
      vertex 10.8156 33.287 -152
      vertex 12.753 31.5637 -152
    endloop
  endfacet
  facet normal -8.75399e-17 -4.11843e-16 1
    outer loop
      vertex 10.8156 33.287 -152
      vertex 3.6585 34.8083 -152
      vertex -2 -33 -152
    endloop
  endfacet
  facet normal 0 0 1
    outer loop
      vertex 3.6585 34.8083 -152
      vertex 0.62259 34.8083 -152
      vertex 1.80194 33.8678 -152
    endloop
  endfacet
  facet normal 6.86763e-16 -4.76458e-16 1
    outer loop
      vertex 3.6585 34.8083 -152
      vertex 1.80194 32.1322 -152
      vertex -2 -33 -152
    endloop
  endfacet
  facet normal 0 0 1
    outer loop
      vertex 3.6585 34.8083 -152
      vertex 1.80194 33.8678 -152
      vertex 1.80194 32.1322 -152
    endloop
  endfacet
  facet normal -0 0 1
    outer loop
      vertex -1.24698 31.4363 -152
      vertex -2 33 -152
      vertex -2 -33 -152
    endloop
  endfacet
  facet normal -0 0 1
    outer loop
      vertex -2 33 -152
      vertex -3.6585 34.8083 -152
      vertex -2 -33 -152
    endloop
  endfacet
  facet normal -0 0 1
    outer loop
      vertex -1.24698 34.5637 -152
      vertex -3.6585 34.8083 -152
      vertex -2 33 -152
    endloop
  endfacet
  facet normal 0 0 1
    outer loop
      vertex -0.175304 34.8083 -152
      vertex -3.6585 34.8083 -152
      vertex -1.24698 34.5637 -152
    endloop
  endfacet
  facet normal -0 -0 1
    outer loop
      vertex -2 -33 -152
      vertex -23 -10 -152
      vertex -1.24698 -34.5637 -152
    endloop
  endfacet
  facet normal 0 0 1
    outer loop
      vertex -23 24 -152
      vertex -21.8019 17.1322 -152
      vertex -21.8019 18.8678 -152
    endloop
  endfacet
  facet normal 0 0 1
    outer loop
      vertex -10.8156 33.287 -152
      vertex -14.0964 31.8263 -152
      vertex -13.555 31.9499 -152
    endloop
  endfacet
  facet normal 0 -0 1
    outer loop
      vertex -4 -10 -152
      vertex -23 -10 -152
      vertex -2 -33 -152
    endloop
  endfacet
  facet normal 0 0 1
    outer loop
      vertex -10.8156 33.287 -152
      vertex -13.555 31.9499 -152
      vertex -12.1981 30.8678 -152
    endloop
  endfacet
  facet normal 0 0 1
    outer loop
      vertex -16 -30 -152
      vertex -15.247 -28.4363 -152
      vertex -25 -24.2548 -152
    endloop
  endfacet
  facet normal 0 -0 1
    outer loop
      vertex -12.1981 -30.8678 -152
      vertex -13.555 -31.9499 -152
      vertex -1.24698 -34.5637 -152
    endloop
  endfacet
  facet normal 0 0 1
    outer loop
      vertex -15.4 31.2459 -152
      vertex -17.5 30.3109 -152
      vertex -16 30 -152
    endloop
  endfacet
  facet normal 2.4163e-14 -1.16363e-14 1
    outer loop
      vertex 20.445 16.0501 -152
      vertex -2 -33 -152
      vertex -1.24698 -31.4363 -152
    endloop
  endfacet
  facet normal 7.50822e-16 -9.41501e-16 1
    outer loop
      vertex 21.8019 17.1322 -152
      vertex 20.445 16.0501 -152
      vertex -1.24698 -31.4363 -152
    endloop
  endfacet
  facet normal 0 -0 1
    outer loop
      vertex -23.4196 26.0101 -152
      vertex -25 24.2548 -152
      vertex -23 24 -152
    endloop
  endfacet
  facet normal 0 0 1
    outer loop
      vertex -16 -30 -152
      vertex -25 -24.2548 -152
      vertex -23.4196 -26.0101 -152
    endloop
  endfacet
  facet normal 0 0 1
    outer loop
      vertex -13.555 -31.9499 -152
      vertex -10.8156 -33.287 -152
      vertex -0.175304 -34.8083 -152
    endloop
  endfacet
  facet normal 0 -0 1
    outer loop
      vertex -3.6585 34.8083 -152
      vertex -4 10 -152
      vertex -2 -33 -152
    endloop
  endfacet
  facet normal 0 0 1
    outer loop
      vertex -3.6585 34.8083 -152
      vertex -10.8156 33.287 -152
      vertex -4 10 -152
    endloop
  endfacet
  facet normal 0 -0 1
    outer loop
      vertex -4 10 -152
      vertex -4 -10 -152
      vertex -2 -33 -152
    endloop
  endfacet
  facet normal 0 0 1
    outer loop
      vertex -21.8019 -17.1322 -152
      vertex -20.445 -16.0501 -152
      vertex -23 -10 -152
    endloop
  endfacet
  facet normal 0 -0 1
    outer loop
      vertex -12.1981 -29.1322 -152
      vertex -12.1981 -30.8678 -152
      vertex -1.24698 -34.5637 -152
    endloop
  endfacet
  facet normal 0 -0 1
    outer loop
      vertex -18 -18 -152
      vertex -18.753 -19.5637 -152
      vertex -13.555 -28.0501 -152
    endloop
  endfacet
  facet normal 0 0 1
    outer loop
      vertex -23.4196 -26.0101 -152
      vertex -17.5 -30.3109 -152
      vertex -16 -30 -152
    endloop
  endfacet
  facet normal 0 -0 1
    outer loop
      vertex -25 -24 -152
      vertex -25 -24.2548 -152
      vertex -15.247 -28.4363 -152
    endloop
  endfacet
  facet normal 0 0 1
    outer loop
      vertex -18 -18 -152
      vertex -13.555 -28.0501 -152
      vertex -1.24698 -34.5637 -152
    endloop
  endfacet
  facet normal 0 -0 1
    outer loop
      vertex -20.445 -19.9499 -152
      vertex -23 -24 -152
      vertex -13.555 -28.0501 -152
    endloop
  endfacet
  facet normal 0 0 1
    outer loop
      vertex -13.555 -28.0501 -152
      vertex -12.1981 -29.1322 -152
      vertex -1.24698 -34.5637 -152
    endloop
  endfacet
  facet normal 0 0 1
    outer loop
      vertex -15.247 -28.4363 -152
      vertex -23 -24 -152
      vertex -25 -24 -152
    endloop
  endfacet
  facet normal 0 0 1
    outer loop
      vertex -15.247 -28.4363 -152
      vertex -13.555 -28.0501 -152
      vertex -23 -24 -152
    endloop
  endfacet
  facet normal 0 0 1
    outer loop
      vertex -14.0964 -31.8263 -152
      vertex -10.8156 -33.287 -152
      vertex -13.555 -31.9499 -152
    endloop
  endfacet
  facet normal 0 0 1
    outer loop
      vertex -10.8156 -33.287 -152
      vertex -3.6585 -34.8083 -152
      vertex -0.175304 -34.8083 -152
    endloop
  endfacet
  facet normal 0 -0 1
    outer loop
      vertex -18.753 -19.5637 -152
      vertex -20.445 -19.9499 -152
      vertex -13.555 -28.0501 -152
    endloop
  endfacet
  facet normal 0 -0 1
    outer loop
      vertex -21.8019 -18.8678 -152
      vertex -23 -24 -152
      vertex -20.445 -19.9499 -152
    endloop
  endfacet
  facet normal 0 -0 1
    outer loop
      vertex -23 -10 -152
      vertex -23 -24 -152
      vertex -21.8019 -18.8678 -152
    endloop
  endfacet
  facet normal 0 0 1
    outer loop
      vertex -20.445 -16.0501 -152
      vertex -18.753 -16.4363 -152
      vertex -23 -10 -152
    endloop
  endfacet
  facet normal 0 0 1
    outer loop
      vertex -23 -10 -152
      vertex -21.8019 -18.8678 -152
      vertex -21.8019 -17.1322 -152
    endloop
  endfacet
  facet normal 0 0 1
    outer loop
      vertex 18.753 -16.4363 -152
      vertex 20.445 -16.0501 -152
      vertex 27 22.0336 -152
    endloop
  endfacet
  facet normal 0 0 1
    outer loop
      vertex -23 -10 -152
      vertex -18.753 -16.4363 -152
      vertex -1.24698 -34.5637 -152
    endloop
  endfacet
  facet normal 0 0 1
    outer loop
      vertex -18.753 -16.4363 -152
      vertex -18 -18 -152
      vertex -1.24698 -34.5637 -152
    endloop
  endfacet
  facet normal 0 0 1
    outer loop
      vertex -21.8019 18.8678 -152
      vertex -20.445 19.9499 -152
      vertex -23.4196 26.0101 -152
    endloop
  endfacet
  facet normal -4.76537e-16 -1.59113e-15 1
    outer loop
      vertex 27 -22.0336 -152
      vertex 18.753 -19.5637 -152
      vertex -1.24698 -31.4363 -152
    endloop
  endfacet
  facet normal -1.10515e-15 -5.32211e-16 1
    outer loop
      vertex 18.753 -19.5637 -152
      vertex 18 -18 -152
      vertex -1.24698 -31.4363 -152
    endloop
  endfacet
  facet normal -0 0 1
    outer loop
      vertex 18.753 -16.4363 -152
      vertex 27 22.0336 -152
      vertex 18 -18 -152
    endloop
  endfacet
  facet normal 0 -0 1
    outer loop
      vertex 21.8019 -17.1322 -152
      vertex 21.8019 -18.8678 -152
      vertex 27 -22.0336 -152
    endloop
  endfacet
  facet normal 0 0 1
    outer loop
      vertex 21.8019 -17.1322 -152
      vertex 27 22.0336 -152
      vertex 20.445 -16.0501 -152
    endloop
  endfacet
  facet normal 0 0 1
    outer loop
      vertex -21.8019 18.8678 -152
      vertex -23.4196 26.0101 -152
      vertex -23 24 -152
    endloop
  endfacet
  facet normal 0 0 1
    outer loop
      vertex 27 -22.0336 -152
      vertex 27 22.0336 -152
      vertex 21.8019 -17.1322 -152
    endloop
  endfacet
  facet normal 0 0 1
    outer loop
      vertex 27 -22.0336 -152
      vertex 20.445 -19.9499 -152
      vertex 18.753 -19.5637 -152
    endloop
  endfacet
  facet normal 0 0 1
    outer loop
      vertex 27 -22.0336 -152
      vertex 21.8019 -18.8678 -152
      vertex 20.445 -19.9499 -152
    endloop
  endfacet
  facet normal 0 -0 1
    outer loop
      vertex -23 24 -152
      vertex -23 10 -152
      vertex -21.8019 17.1322 -152
    endloop
  endfacet
  facet normal -1.19747e-16 -5.24646e-16 1
    outer loop
      vertex 20.445 16.0501 -152
      vertex 18.753 16.4363 -152
      vertex -2 -33 -152
    endloop
  endfacet
  facet normal 0 0 1
    outer loop
      vertex -17.5 30.3109 -152
      vertex -23.4196 26.0101 -152
      vertex -20.445 19.9499 -152
    endloop
  endfacet
  facet normal 0 0 1
    outer loop
      vertex -17.5 30.3109 -152
      vertex -20.445 19.9499 -152
      vertex -18.753 19.5637 -152
    endloop
  endfacet
  facet normal 0 0 1
    outer loop
      vertex -17.5 30.3109 -152
      vertex -18.753 19.5637 -152
      vertex -18 18 -152
    endloop
  endfacet
  facet normal -6.37826e-16 -3.07161e-16 1
    outer loop
      vertex 18.753 16.4363 -152
      vertex 18 18 -152
      vertex -2 -33 -152
    endloop
  endfacet
  facet normal -0 0 1
    outer loop
      vertex 23.4196 26.0101 -152
      vertex 17.5 30.3109 -152
      vertex 18.753 19.5637 -152
    endloop
  endfacet
  facet normal 0 0 1
    outer loop
      vertex 23.4196 26.0101 -152
      vertex 18.753 19.5637 -152
      vertex 20.445 19.9499 -152
    endloop
  endfacet
  facet normal -0 0 1
    outer loop
      vertex 27 22.0336 -152
      vertex 23.4196 26.0101 -152
      vertex 21.8019 18.8678 -152
    endloop
  endfacet
  facet normal 9.98667e-16 -1.05912e-15 1
    outer loop
      vertex 27 22.0336 -152
      vertex 21.8019 17.1322 -152
      vertex -1.24698 -31.4363 -152
    endloop
  endfacet
  facet normal 0 0 1
    outer loop
      vertex 27 22.0336 -152
      vertex 21.8019 18.8678 -152
      vertex 21.8019 17.1322 -152
    endloop
  endfacet
  facet normal 4.72833e-16 -5.92914e-16 1
    outer loop
      vertex 15.8019 29.1322 -152
      vertex 14.445 28.0501 -152
      vertex -2 -33 -152
    endloop
  endfacet
  facet normal 3.64983e-16 -4.57674e-16 1
    outer loop
      vertex 1.80194 32.1322 -152
      vertex 0.445042 31.0501 -152
      vertex -2 -33 -152
    endloop
  endfacet
  facet normal 0 0 1
    outer loop
      vertex -23 10 -152
      vertex -20.445 16.0501 -152
      vertex -21.8019 17.1322 -152
    endloop
  endfacet
  facet normal 0 0 1
    outer loop
      vertex -25 24 -152
      vertex -23 24 -152
      vertex -25 24.2548 -152
    endloop
  endfacet
  facet normal 0 0 1
    outer loop
      vertex -23 10 -152
      vertex -18.753 16.4363 -152
      vertex -20.445 16.0501 -152
    endloop
  endfacet
  facet normal 0 0 1
    outer loop
      vertex -18 18 -152
      vertex -16 30 -152
      vertex -17.5 30.3109 -152
    endloop
  endfacet
  facet normal 0 0 1
    outer loop
      vertex -18 18 -152
      vertex -15.247 28.4363 -152
      vertex -16 30 -152
    endloop
  endfacet
  facet normal 0 0 1
    outer loop
      vertex -18 18 -152
      vertex -13.555 28.0501 -152
      vertex -15.247 28.4363 -152
    endloop
  endfacet
  facet normal 0 0 1
    outer loop
      vertex -18 18 -152
      vertex -12.1981 29.1322 -152
      vertex -13.555 28.0501 -152
    endloop
  endfacet
  facet normal 0 0 1
    outer loop
      vertex -18.753 16.4363 -152
      vertex -12.1981 29.1322 -152
      vertex -18 18 -152
    endloop
  endfacet
  facet normal 0 0 1
    outer loop
      vertex -12.1981 29.1322 -152
      vertex -10.8156 33.287 -152
      vertex -12.1981 30.8678 -152
    endloop
  endfacet
  facet normal 0 0 1
    outer loop
      vertex -12.1981 29.1322 -152
      vertex -4 10 -152
      vertex -10.8156 33.287 -152
    endloop
  endfacet
  facet normal 0 0 1
    outer loop
      vertex -18.753 16.4363 -152
      vertex -4 10 -152
      vertex -12.1981 29.1322 -152
    endloop
  endfacet
  facet normal 0 0 1
    outer loop
      vertex -23 10 -152
      vertex -4 10 -152
      vertex -18.753 16.4363 -152
    endloop
  endfacet
  facet normal 0.222521 0.974928 8.23493e-17
    outer loop
      vertex -1.24698 -34.5637 -155
      vertex -1.24698 -34.5637 -152
      vertex -0.175304 -34.8083 -155
    endloop
  endfacet
  facet normal 0.222521 0.974928 8.85255e-17
    outer loop
      vertex -0.175304 -34.8083 -155
      vertex -1.24698 -34.5637 -152
      vertex -0.175304 -34.8083 -152
    endloop
  endfacet
  facet normal -0 -0 -1
    outer loop
      vertex -3.6585 -34.8083 -155
      vertex -10.8156 -33.287 -155
      vertex -0.175304 -34.8083 -155
    endloop
  endfacet
  facet normal 0 0 -1
    outer loop
      vertex -14 -31.8483 -155
      vertex -10.8156 -33.287 -155
      vertex -14.0964 -31.8263 -155
    endloop
  endfacet
  facet normal 0 0 -1
    outer loop
      vertex -0.175304 -34.8083 -155
      vertex -10.8156 -33.287 -155
      vertex -14 -31.8483 -155
    endloop
  endfacet
  facet normal 0 0 -1
    outer loop
      vertex -16 -30 -155
      vertex -15.4 -31.2459 -155
      vertex -17.5 -30.3109 -155
    endloop
  endfacet
  facet normal 0 -0 -1
    outer loop
      vertex -16 -30 -155
      vertex -17.5 -30.3109 -155
      vertex -15.247 -28.4363 -155
    endloop
  endfacet
  facet normal 0 0 -1
    outer loop
      vertex -15.247 -28.4363 -155
      vertex -17.5 -30.3109 -155
      vertex -23.4196 -26.0101 -155
    endloop
  endfacet
  facet normal 0 -0 -1
    outer loop
      vertex -15.247 -28.4363 -155
      vertex -23.4196 -26.0101 -155
      vertex -14 -28.1517 -155
    endloop
  endfacet
  facet normal 0 0 -1
    outer loop
      vertex -14 -28.1517 -155
      vertex -23.4196 -26.0101 -155
      vertex -25 -24.2548 -155
    endloop
  endfacet
  facet normal 0 0 -1
    outer loop
      vertex -14 -28.1517 -155
      vertex -25 -24.2548 -155
      vertex -25 -24 -155
    endloop
  endfacet
  facet normal 0 0 -1
    outer loop
      vertex -14 -28.1517 -155
      vertex -25 -24 -155
      vertex -23 -24 -155
    endloop
  endfacet
  facet normal 0 0 -1
    outer loop
      vertex -21.8019 -17.1322 -155
      vertex -23 -24 -155
      vertex -23 24 -155
    endloop
  endfacet
  facet normal 0 0 -1
    outer loop
      vertex -1.24698 -34.5637 -155
      vertex -14 -28.1517 -155
      vertex -2 -33 -155
    endloop
  endfacet
  facet normal 0 0 -1
    outer loop
      vertex -23 24 -155
      vertex -25 24 -155
      vertex -25 24.2548 -155
    endloop
  endfacet
  facet normal 0 0 -1
    outer loop
      vertex -23 24 -155
      vertex -25 24.2548 -155
      vertex -23.4196 26.0101 -155
    endloop
  endfacet
  facet normal 0 -0 -1
    outer loop
      vertex -18.753 19.5637 -155
      vertex -23.4196 26.0101 -155
      vertex -17.5 30.3109 -155
    endloop
  endfacet
  facet normal 0 -0 -1
    outer loop
      vertex -16 30 -155
      vertex -17.5 30.3109 -155
      vertex -15.4 31.2459 -155
    endloop
  endfacet
  facet normal 0 0 -1
    outer loop
      vertex -10.15 3.20429 -155
      vertex -17.5 30.3109 -155
      vertex -16 30 -155
    endloop
  endfacet
  facet normal 0 -0 -1
    outer loop
      vertex -14 31.8483 -155
      vertex -14.0964 31.8263 -155
      vertex -10.8156 33.287 -155
    endloop
  endfacet
  facet normal 0 -0 -1
    outer loop
      vertex -1.24698 34.5637 -155
      vertex -3.6585 34.8083 -155
      vertex -0.175304 34.8083 -155
    endloop
  endfacet
  facet normal 0 -0 -1
    outer loop
      vertex -2 33 -155
      vertex -3.6585 34.8083 -155
      vertex -1.24698 34.5637 -155
    endloop
  endfacet
  facet normal 0 0 -1
    outer loop
      vertex 6.19017e-14 -31.1517 -155
      vertex 10.8156 33.287 -155
      vertex 12 30 -155
    endloop
  endfacet
  facet normal 0 0 -1
    outer loop
      vertex 6.19017e-14 -31.1517 -155
      vertex 12 30 -155
      vertex 12.753 28.4363 -155
    endloop
  endfacet
  facet normal 0 0 -1
    outer loop
      vertex 6.19017e-14 -31.1517 -155
      vertex 3.6585 34.8083 -155
      vertex 10.8156 33.287 -155
    endloop
  endfacet
  facet normal 0 -0 -1
    outer loop
      vertex 6.19017e-14 31.1517 -155
      vertex 6.19017e-14 34.8083 -155
      vertex 3.6585 34.8083 -155
    endloop
  endfacet
  facet normal 0 0 -1
    outer loop
      vertex -8.3 0 -155
      vertex -1.24698 -31.4363 -155
      vertex -8.79571 -1.85 -155
    endloop
  endfacet
  facet normal -0 -0 -1
    outer loop
      vertex 14 31.8483 -155
      vertex 10.8156 33.287 -155
      vertex 17.5 30.3109 -155
    endloop
  endfacet
  facet normal 0 -0 -1
    outer loop
      vertex 20.445 19.9499 -155
      vertex 17.5 30.3109 -155
      vertex 23.4196 26.0101 -155
    endloop
  endfacet
  facet normal 0 0 -1
    outer loop
      vertex 21.8019 18.8678 -155
      vertex 23.4196 26.0101 -155
      vertex 27 22.0336 -155
    endloop
  endfacet
  facet normal -0 0 -1
    outer loop
      vertex 21.8019 -18.8678 -155
      vertex 27 22.0336 -155
      vertex 27 -22.0336 -155
    endloop
  endfacet
  facet normal 0 0 -1
    outer loop
      vertex 14 -28.1517 -155
      vertex 27 -22.0336 -155
      vertex 23.4196 -26.0101 -155
    endloop
  endfacet
  facet normal -0 0 -1
    outer loop
      vertex 14 -31.8483 -155
      vertex 17.5 -30.3109 -155
      vertex 10.8156 -33.287 -155
    endloop
  endfacet
  facet normal -0 0 -1
    outer loop
      vertex 6.19017e-14 -34.8083 -155
      vertex 10.8156 -33.287 -155
      vertex 3.6585 -34.8083 -155
    endloop
  endfacet
  facet normal -0 0 -1
    outer loop
      vertex 6.19017e-14 31.1517 -155
      vertex 3.6585 34.8083 -155
      vertex 6.19017e-14 -31.1517 -155
    endloop
  endfacet
  facet normal 0 -0 -1
    outer loop
      vertex -15.7 0 -155
      vertex -20.445 16.0501 -155
      vertex -15.2043 1.85 -155
    endloop
  endfacet
  facet normal 0 0 -1
    outer loop
      vertex -14 28.1517 -155
      vertex -8.3 0 -155
      vertex -15.247 28.4363 -155
    endloop
  endfacet
  facet normal 0 0 -1
    outer loop
      vertex 12.753 -31.5637 -155
      vertex 6.19017e-14 -31.1517 -155
      vertex 12 -30 -155
    endloop
  endfacet
  facet normal 0 0 -1
    outer loop
      vertex 12.753 -31.5637 -155
      vertex 14 -31.8483 -155
      vertex 10.8156 -33.287 -155
    endloop
  endfacet
  facet normal -0 -0 -1
    outer loop
      vertex -20.445 -16.0501 -155
      vertex -23 24 -155
      vertex -18.753 -16.4363 -155
    endloop
  endfacet
  facet normal 2.27924e-14 7.94307e-32 -1
    outer loop
      vertex -1.24698 -31.4363 -155
      vertex 6.19017e-14 31.1517 -155
      vertex 6.19017e-14 -31.1517 -155
    endloop
  endfacet
  facet normal 0 0 -1
    outer loop
      vertex -14 -28.1517 -155
      vertex -23 -24 -155
      vertex -20.445 -19.9499 -155
    endloop
  endfacet
  facet normal 0 0 -1
    outer loop
      vertex -14 -28.1517 -155
      vertex -20.445 -19.9499 -155
      vertex -18.753 -19.5637 -155
    endloop
  endfacet
  facet normal 0 0 -1
    outer loop
      vertex -14 -28.1517 -155
      vertex -18.753 -19.5637 -155
      vertex -18 -18 -155
    endloop
  endfacet
  facet normal 0 0 -1
    outer loop
      vertex -14 -28.1517 -155
      vertex -18 -18 -155
      vertex -23 24 -155
    endloop
  endfacet
  facet normal 0 0 -1
    outer loop
      vertex -18 -18 -155
      vertex -18.753 -16.4363 -155
      vertex -23 24 -155
    endloop
  endfacet
  facet normal 0 -0 -1
    outer loop
      vertex -21.8019 -17.1322 -155
      vertex -23 24 -155
      vertex -20.445 -16.0501 -155
    endloop
  endfacet
  facet normal 0 0 -1
    outer loop
      vertex -21.8019 -18.8678 -155
      vertex -23 -24 -155
      vertex -21.8019 -17.1322 -155
    endloop
  endfacet
  facet normal -0 0 -1
    outer loop
      vertex 20.445 -16.0501 -155
      vertex 27 22.0336 -155
      vertex 21.8019 -17.1322 -155
    endloop
  endfacet
  facet normal 0 0 -1
    outer loop
      vertex -20.445 -19.9499 -155
      vertex -23 -24 -155
      vertex -21.8019 -18.8678 -155
    endloop
  endfacet
  facet normal 0 0 -1
    outer loop
      vertex -12 -3.7 -155
      vertex -2 -33 -155
      vertex -13.85 -3.20429 -155
    endloop
  endfacet
  facet normal 0 0 -1
    outer loop
      vertex 12.753 -28.4363 -155
      vertex 18.753 -19.5637 -155
      vertex 27 -22.0336 -155
    endloop
  endfacet
  facet normal 0 0 -1
    outer loop
      vertex 18.753 -16.4363 -155
      vertex 27 22.0336 -155
      vertex 20.445 -16.0501 -155
    endloop
  endfacet
  facet normal 0 0 -1
    outer loop
      vertex 18.753 -19.5637 -155
      vertex 20.445 -19.9499 -155
      vertex 27 -22.0336 -155
    endloop
  endfacet
  facet normal -0 0 -1
    outer loop
      vertex 21.8019 -17.1322 -155
      vertex 27 22.0336 -155
      vertex 21.8019 -18.8678 -155
    endloop
  endfacet
  facet normal -0 0 -1
    outer loop
      vertex 20.445 -19.9499 -155
      vertex 21.8019 -18.8678 -155
      vertex 27 -22.0336 -155
    endloop
  endfacet
  facet normal 0 0 -1
    outer loop
      vertex 12.753 -28.4363 -155
      vertex 27 22.0336 -155
      vertex 18.753 -16.4363 -155
    endloop
  endfacet
  facet normal 0 0 -1
    outer loop
      vertex 12.753 -28.4363 -155
      vertex 18.753 -16.4363 -155
      vertex 18 -18 -155
    endloop
  endfacet
  facet normal 0 0 -1
    outer loop
      vertex 12.753 -28.4363 -155
      vertex 18 -18 -155
      vertex 18.753 -19.5637 -155
    endloop
  endfacet
  facet normal 0 0 -1
    outer loop
      vertex -20.445 16.0501 -155
      vertex -14 -28.1517 -155
      vertex -21.8019 17.1322 -155
    endloop
  endfacet
  facet normal -0 0 -1
    outer loop
      vertex -14 -28.1517 -155
      vertex -13.85 -3.20429 -155
      vertex -2 -33 -155
    endloop
  endfacet
  facet normal 0 0 -1
    outer loop
      vertex -21.8019 18.8678 -155
      vertex -23 24 -155
      vertex -23.4196 26.0101 -155
    endloop
  endfacet
  facet normal 0 0 -1
    outer loop
      vertex -10.15 -3.20429 -155
      vertex -1.24698 -31.4363 -155
      vertex -12 -3.7 -155
    endloop
  endfacet
  facet normal 0 -0 -1
    outer loop
      vertex -2 -33 -155
      vertex -12 -3.7 -155
      vertex -1.24698 -31.4363 -155
    endloop
  endfacet
  facet normal -0 -0 -1
    outer loop
      vertex -8.79571 1.85 -155
      vertex -15.247 28.4363 -155
      vertex -8.3 0 -155
    endloop
  endfacet
  facet normal -0 -0 -1
    outer loop
      vertex -12 3.7 -155
      vertex -17.5 30.3109 -155
      vertex -10.15 3.20429 -155
    endloop
  endfacet
  facet normal 0 0 -1
    outer loop
      vertex -18 18 -155
      vertex -12 3.7 -155
      vertex -18.753 16.4363 -155
    endloop
  endfacet
  facet normal 0 -0 -1
    outer loop
      vertex -13.85 3.20429 -155
      vertex -18.753 16.4363 -155
      vertex -12 3.7 -155
    endloop
  endfacet
  facet normal 0 0 -1
    outer loop
      vertex -8.79571 -1.85 -155
      vertex -1.24698 -31.4363 -155
      vertex -10.15 -3.20429 -155
    endloop
  endfacet
  facet normal 0 0 -1
    outer loop
      vertex 20.445 16.0501 -155
      vertex 6.19017e-14 -31.1517 -155
      vertex 18.753 16.4363 -155
    endloop
  endfacet
  facet normal 0 0 -1
    outer loop
      vertex -18.753 16.4363 -155
      vertex -15.2043 1.85 -155
      vertex -20.445 16.0501 -155
    endloop
  endfacet
  facet normal 0 0 -1
    outer loop
      vertex -14 -28.1517 -155
      vertex -15.7 0 -155
      vertex -15.2043 -1.85 -155
    endloop
  endfacet
  facet normal 0 -0 -1
    outer loop
      vertex -14 -28.1517 -155
      vertex -15.2043 -1.85 -155
      vertex -13.85 -3.20429 -155
    endloop
  endfacet
  facet normal 0 0 -1
    outer loop
      vertex -18.753 16.4363 -155
      vertex -13.85 3.20429 -155
      vertex -15.2043 1.85 -155
    endloop
  endfacet
  facet normal 0 0 -1
    outer loop
      vertex -20.445 16.0501 -155
      vertex -15.7 0 -155
      vertex -14 -28.1517 -155
    endloop
  endfacet
  facet normal -0 -0 -1
    outer loop
      vertex -20.445 19.9499 -155
      vertex -23.4196 26.0101 -155
      vertex -18.753 19.5637 -155
    endloop
  endfacet
  facet normal 0 0 -1
    outer loop
      vertex -12 3.7 -155
      vertex -18 18 -155
      vertex -17.5 30.3109 -155
    endloop
  endfacet
  facet normal 0 -0 -1
    outer loop
      vertex -21.8019 18.8678 -155
      vertex -23.4196 26.0101 -155
      vertex -20.445 19.9499 -155
    endloop
  endfacet
  facet normal 0 -0 -1
    outer loop
      vertex -18 18 -155
      vertex -18.753 19.5637 -155
      vertex -17.5 30.3109 -155
    endloop
  endfacet
  facet normal 0 0 -1
    outer loop
      vertex -21.8019 17.1322 -155
      vertex -23 24 -155
      vertex -21.8019 18.8678 -155
    endloop
  endfacet
  facet normal 0 0 -1
    outer loop
      vertex -14 -28.1517 -155
      vertex -23 24 -155
      vertex -21.8019 17.1322 -155
    endloop
  endfacet
  facet normal 0 0 -1
    outer loop
      vertex 14 31.8483 -155
      vertex 17.5 30.3109 -155
      vertex 14 28.1517 -155
    endloop
  endfacet
  facet normal 0 0 -1
    outer loop
      vertex -1.24698 -31.4363 -155
      vertex -10.8156 33.287 -155
      vertex -3.6585 34.8083 -155
    endloop
  endfacet
  facet normal 0 0 -1
    outer loop
      vertex -1.24698 -31.4363 -155
      vertex -3.6585 34.8083 -155
      vertex -2 33 -155
    endloop
  endfacet
  facet normal 0 0 -1
    outer loop
      vertex -1.24698 -31.4363 -155
      vertex -2 33 -155
      vertex -1.24698 31.4363 -155
    endloop
  endfacet
  facet normal 2.27924e-14 0 -1
    outer loop
      vertex -1.24698 -31.4363 -155
      vertex -1.24698 31.4363 -155
      vertex 6.19017e-14 31.1517 -155
    endloop
  endfacet
  facet normal -0 0 -1
    outer loop
      vertex 20.445 19.9499 -155
      vertex 23.4196 26.0101 -155
      vertex 21.8019 18.8678 -155
    endloop
  endfacet
  facet normal 0 -0 -1
    outer loop
      vertex 18.753 19.5637 -155
      vertex 17.5 30.3109 -155
      vertex 20.445 19.9499 -155
    endloop
  endfacet
  facet normal 0 -0 -1
    outer loop
      vertex 18 18 -155
      vertex 17.5 30.3109 -155
      vertex 18.753 19.5637 -155
    endloop
  endfacet
  facet normal 0 0 -1
    outer loop
      vertex -1.24698 -31.4363 -155
      vertex -14 28.1517 -155
      vertex -14 31.8483 -155
    endloop
  endfacet
  facet normal 0 0 -1
    outer loop
      vertex -1.24698 -31.4363 -155
      vertex -14 31.8483 -155
      vertex -10.8156 33.287 -155
    endloop
  endfacet
  facet normal 0 0 -1
    outer loop
      vertex -10.15 3.20429 -155
      vertex -16 30 -155
      vertex -15.247 28.4363 -155
    endloop
  endfacet
  facet normal 0 0 -1
    outer loop
      vertex -1.24698 -31.4363 -155
      vertex -8.3 0 -155
      vertex -14 28.1517 -155
    endloop
  endfacet
  facet normal 0 -0 -1
    outer loop
      vertex 12.753 31.5637 -155
      vertex 10.8156 33.287 -155
      vertex 14 31.8483 -155
    endloop
  endfacet
  facet normal 0 -0 -1
    outer loop
      vertex 12 30 -155
      vertex 10.8156 33.287 -155
      vertex 12.753 31.5637 -155
    endloop
  endfacet
  facet normal -0 -0 -1
    outer loop
      vertex -10.15 3.20429 -155
      vertex -15.247 28.4363 -155
      vertex -8.79571 1.85 -155
    endloop
  endfacet
  facet normal 0 0 -1
    outer loop
      vertex -1.24698 -34.5637 -155
      vertex -0.175304 -34.8083 -155
      vertex -14 -31.8483 -155
    endloop
  endfacet
  facet normal 0 0 -1
    outer loop
      vertex -14 -28.1517 -155
      vertex -1.24698 -34.5637 -155
      vertex -14 -31.8483 -155
    endloop
  endfacet
  facet normal 0 0 -1
    outer loop
      vertex 6.19017e-14 -31.1517 -155
      vertex 12.753 28.4363 -155
      vertex 14 28.1517 -155
    endloop
  endfacet
  facet normal 0 0 -1
    outer loop
      vertex 6.19017e-14 -31.1517 -155
      vertex 14 28.1517 -155
      vertex 17.5 30.3109 -155
    endloop
  endfacet
  facet normal 0 0 -1
    outer loop
      vertex 6.19017e-14 -31.1517 -155
      vertex 17.5 30.3109 -155
      vertex 18 18 -155
    endloop
  endfacet
  facet normal 0 0 -1
    outer loop
      vertex 6.19017e-14 -31.1517 -155
      vertex 18 18 -155
      vertex 18.753 16.4363 -155
    endloop
  endfacet
  facet normal -0 0 -1
    outer loop
      vertex 21.8019 18.8678 -155
      vertex 27 22.0336 -155
      vertex 21.8019 17.1322 -155
    endloop
  endfacet
  facet normal 0 0 -1
    outer loop
      vertex 6.19017e-14 -31.1517 -155
      vertex 20.445 16.0501 -155
      vertex 21.8019 17.1322 -155
    endloop
  endfacet
  facet normal 0 0 -1
    outer loop
      vertex 6.19017e-14 -31.1517 -155
      vertex 21.8019 17.1322 -155
      vertex 27 22.0336 -155
    endloop
  endfacet
  facet normal 0 0 -1
    outer loop
      vertex 6.19017e-14 -31.1517 -155
      vertex 27 22.0336 -155
      vertex 12.753 -28.4363 -155
    endloop
  endfacet
  facet normal 0 0 -1
    outer loop
      vertex 12.753 -28.4363 -155
      vertex 27 -22.0336 -155
      vertex 14 -28.1517 -155
    endloop
  endfacet
  facet normal 0 0 -1
    outer loop
      vertex 6.19017e-14 -31.1517 -155
      vertex 12.753 -28.4363 -155
      vertex 12 -30 -155
    endloop
  endfacet
  facet normal 0 0 -1
    outer loop
      vertex 14 -28.1517 -155
      vertex 17.5 -30.3109 -155
      vertex 14 -31.8483 -155
    endloop
  endfacet
  facet normal -0 0 -1
    outer loop
      vertex 14 -28.1517 -155
      vertex 23.4196 -26.0101 -155
      vertex 17.5 -30.3109 -155
    endloop
  endfacet
  facet normal 0 0 -1
    outer loop
      vertex 6.19017e-14 -31.1517 -155
      vertex 12.753 -31.5637 -155
      vertex 10.8156 -33.287 -155
    endloop
  endfacet
  facet normal 0 0 -1
    outer loop
      vertex 6.19017e-14 -31.1517 -155
      vertex 10.8156 -33.287 -155
      vertex 6.19017e-14 -34.8083 -155
    endloop
  endfacet
  facet normal -0.406737 -0.913545 -0
    outer loop
      vertex -10.8156 -33.287 -155
      vertex -10.8156 -33.287 -152
      vertex -14.0964 -31.8263 -152
    endloop
  endfacet
  facet normal -0.406737 -0.913545 -2.40836e-16
    outer loop
      vertex -14.0964 -31.8263 -155
      vertex -10.8156 -33.287 -155
      vertex -14.0964 -31.8263 -152
    endloop
  endfacet
  facet normal -0 -0 4.91482e-17
    outer loop
      vertex -14 -31.8483 -155
      vertex -14.0964 -31.8263 -155
      vertex -13.555 -31.9499 -155
    endloop
  endfacet
  facet normal 0.222521 0.974928 1.297e-16
    outer loop
      vertex -13.555 -31.9499 -155
      vertex -14.0964 -31.8263 -155
      vertex -14.0964 -31.8263 -152
    endloop
  endfacet
  facet normal 0.222521 0.974928 1.31759e-16
    outer loop
      vertex -13.555 -31.9499 -155
      vertex -14.0964 -31.8263 -152
      vertex -13.555 -31.9499 -152
    endloop
  endfacet
  facet normal -0.62349 0.781831 0
    outer loop
      vertex -12.1981 -30.8678 -155
      vertex -13.555 -31.9499 -155
      vertex -12.1981 -30.8678 -152
    endloop
  endfacet
  facet normal -0.62349 0.781831 -3.46104e-16
    outer loop
      vertex -12.1981 -30.8678 -152
      vertex -13.555 -31.9499 -155
      vertex -13.555 -31.9499 -152
    endloop
  endfacet
  facet normal -1 0 0
    outer loop
      vertex -12.1981 -29.1322 -155
      vertex -12.1981 -30.8678 -155
      vertex -12.1981 -29.1322 -152
    endloop
  endfacet
  facet normal -1 0 0
    outer loop
      vertex -12.1981 -29.1322 -152
      vertex -12.1981 -30.8678 -155
      vertex -12.1981 -30.8678 -152
    endloop
  endfacet
  facet normal -0.62349 -0.781831 -3.6918e-16
    outer loop
      vertex -13.555 -28.0501 -152
      vertex -13.555 -28.0501 -155
      vertex -12.1981 -29.1322 -155
    endloop
  endfacet
  facet normal -0.62349 -0.781831 0
    outer loop
      vertex -12.1981 -29.1322 -152
      vertex -13.555 -28.0501 -152
      vertex -12.1981 -29.1322 -155
    endloop
  endfacet
  facet normal 0 0 -5.27668e-16
    outer loop
      vertex -15.247 -28.4363 -155
      vertex -14 -28.1517 -155
      vertex -13.555 -28.0501 -155
    endloop
  endfacet
  facet normal 0.222521 -0.974928 1.31759e-16
    outer loop
      vertex -15.247 -28.4363 -152
      vertex -15.247 -28.4363 -155
      vertex -13.555 -28.0501 -152
    endloop
  endfacet
  facet normal 0.222521 -0.974928 1.31759e-16
    outer loop
      vertex -13.555 -28.0501 -152
      vertex -15.247 -28.4363 -155
      vertex -13.555 -28.0501 -155
    endloop
  endfacet
  facet normal 0.900969 -0.433884 5.50149e-16
    outer loop
      vertex -16 -30 -155
      vertex -15.247 -28.4363 -155
      vertex -15.247 -28.4363 -152
    endloop
  endfacet
  facet normal 0.900969 -0.433884 0
    outer loop
      vertex -16 -30 -152
      vertex -16 -30 -155
      vertex -15.247 -28.4363 -152
    endloop
  endfacet
  facet normal 0.900969 0.433884 0
    outer loop
      vertex -15.4 -31.2459 -155
      vertex -16 -30 -155
      vertex -16 -30 -152
    endloop
  endfacet
  facet normal 0.900969 0.433884 5.33481e-16
    outer loop
      vertex -15.4 -31.2459 -152
      vertex -15.4 -31.2459 -155
      vertex -16 -30 -152
    endloop
  endfacet
  facet normal -0.406737 -0.913545 -2.40836e-16
    outer loop
      vertex -15.4 -31.2459 -155
      vertex -15.4 -31.2459 -152
      vertex -17.5 -30.3109 -152
    endloop
  endfacet
  facet normal -0.406737 -0.913545 -0
    outer loop
      vertex -17.5 -30.3109 -155
      vertex -15.4 -31.2459 -155
      vertex -17.5 -30.3109 -152
    endloop
  endfacet
  facet normal -0.587785 -0.809017 -0
    outer loop
      vertex -17.5 -30.3109 -155
      vertex -17.5 -30.3109 -152
      vertex -23.4196 -26.0101 -152
    endloop
  endfacet
  facet normal -0.587785 -0.809017 -0
    outer loop
      vertex -23.4196 -26.0101 -155
      vertex -17.5 -30.3109 -155
      vertex -23.4196 -26.0101 -152
    endloop
  endfacet
  facet normal -0.743145 -0.669131 0
    outer loop
      vertex -23.4196 -26.0101 -152
      vertex -25 -24.2548 -152
      vertex -23.4196 -26.0101 -155
    endloop
  endfacet
  facet normal -0.743145 -0.669131 -8.17175e-16
    outer loop
      vertex -23.4196 -26.0101 -155
      vertex -25 -24.2548 -152
      vertex -25 -24.2548 -155
    endloop
  endfacet
  facet normal -1 0 0
    outer loop
      vertex -25 -24.2548 -152
      vertex -25 -24 -152
      vertex -25 -24.2548 -155
    endloop
  endfacet
  facet normal -1 -0 0
    outer loop
      vertex -25 -24.2548 -155
      vertex -25 -24 -152
      vertex -25 -24 -155
    endloop
  endfacet
  facet normal -0 1 0
    outer loop
      vertex -23 -24 -155
      vertex -25 -24 -155
      vertex -23 -24 -152
    endloop
  endfacet
  facet normal 0 1 0
    outer loop
      vertex -23 -24 -152
      vertex -25 -24 -155
      vertex -25 -24 -152
    endloop
  endfacet
  facet normal -1 0 0
    outer loop
      vertex -23 24 -152
      vertex -23 24 -155
      vertex -23 10 -152
    endloop
  endfacet
  facet normal -1 0 0
    outer loop
      vertex -23 10 -152
      vertex -23 24 -155
      vertex -23 -10 -152
    endloop
  endfacet
  facet normal -1 0 0
    outer loop
      vertex -23 -10 -152
      vertex -23 24 -155
      vertex -23 -24 -155
    endloop
  endfacet
  facet normal -1 0 0
    outer loop
      vertex -23 -10 -152
      vertex -23 -24 -155
      vertex -23 -24 -152
    endloop
  endfacet
  facet normal 0 0 1
    outer loop
      vertex -13.85 3.20429 -152
      vertex -4 10 -152
      vertex -23 10 -152
    endloop
  endfacet
  facet normal 0 0 1
    outer loop
      vertex -13.85 3.20429 -152
      vertex -12 3.7 -152
      vertex -4 10 -152
    endloop
  endfacet
  facet normal 0 0 1
    outer loop
      vertex -15.7 0 -152
      vertex -15.2043 1.85 -152
      vertex -23 10 -152
    endloop
  endfacet
  facet normal 0 0 1
    outer loop
      vertex -23 -10 -152
      vertex -4 -10 -152
      vertex -13.85 -3.20429 -152
    endloop
  endfacet
  facet normal 0 0 1
    outer loop
      vertex -23 -10 -152
      vertex -15.2043 -1.85 -152
      vertex -23 10 -152
    endloop
  endfacet
  facet normal 0 0 1
    outer loop
      vertex -23 -10 -152
      vertex -13.85 -3.20429 -152
      vertex -15.2043 -1.85 -152
    endloop
  endfacet
  facet normal 0 0 1
    outer loop
      vertex -15.2043 1.85 -152
      vertex -13.85 3.20429 -152
      vertex -23 10 -152
    endloop
  endfacet
  facet normal 0 0 1
    outer loop
      vertex -10.15 3.20429 -152
      vertex -4 10 -152
      vertex -12 3.7 -152
    endloop
  endfacet
  facet normal 0 0 1
    outer loop
      vertex -8.79571 1.85 -152
      vertex -4 10 -152
      vertex -10.15 3.20429 -152
    endloop
  endfacet
  facet normal 0 0 1
    outer loop
      vertex -4 -10 -152
      vertex -4 10 -152
      vertex -8.79571 1.85 -152
    endloop
  endfacet
  facet normal 0 -0 1
    outer loop
      vertex -10.15 -3.20429 -152
      vertex -12 -3.7 -152
      vertex -4 -10 -152
    endloop
  endfacet
  facet normal 0 0 1
    outer loop
      vertex -4 -10 -152
      vertex -8.79571 1.85 -152
      vertex -8.3 0 -152
    endloop
  endfacet
  facet normal 0 0 1
    outer loop
      vertex -4 -10 -152
      vertex -8.79571 -1.85 -152
      vertex -10.15 -3.20429 -152
    endloop
  endfacet
  facet normal 0 0 1
    outer loop
      vertex -13.85 -3.20429 -152
      vertex -4 -10 -152
      vertex -12 -3.7 -152
    endloop
  endfacet
  facet normal 0 0 1
    outer loop
      vertex -15.2043 -1.85 -152
      vertex -15.7 0 -152
      vertex -23 10 -152
    endloop
  endfacet
  facet normal 0 -0 1
    outer loop
      vertex -8.3 0 -152
      vertex -8.79571 -1.85 -152
      vertex -4 -10 -152
    endloop
  endfacet
  facet normal -0 -1 0
    outer loop
      vertex -25 24 -155
      vertex -23 24 -155
      vertex -23 24 -152
    endloop
  endfacet
  facet normal 0 -1 0
    outer loop
      vertex -25 24 -152
      vertex -25 24 -155
      vertex -23 24 -152
    endloop
  endfacet
  facet normal -1 0 0
    outer loop
      vertex -25 24 -152
      vertex -25 24.2548 -152
      vertex -25 24 -155
    endloop
  endfacet
  facet normal -1 -0 0
    outer loop
      vertex -25 24 -155
      vertex -25 24.2548 -152
      vertex -25 24.2548 -155
    endloop
  endfacet
  facet normal -0.743145 0.669131 -7.9241e-16
    outer loop
      vertex -25 24.2548 -152
      vertex -23.4196 26.0101 -152
      vertex -25 24.2548 -155
    endloop
  endfacet
  facet normal -0.743145 0.669131 0
    outer loop
      vertex -25 24.2548 -155
      vertex -23.4196 26.0101 -152
      vertex -23.4196 26.0101 -155
    endloop
  endfacet
  facet normal -0.587785 0.809017 0
    outer loop
      vertex -23.4196 26.0101 -152
      vertex -17.5 30.3109 -152
      vertex -23.4196 26.0101 -155
    endloop
  endfacet
  facet normal -0.587785 0.809017 0
    outer loop
      vertex -23.4196 26.0101 -155
      vertex -17.5 30.3109 -152
      vertex -17.5 30.3109 -155
    endloop
  endfacet
  facet normal -0.406737 0.913545 0
    outer loop
      vertex -17.5 30.3109 -152
      vertex -15.4 31.2459 -152
      vertex -17.5 30.3109 -155
    endloop
  endfacet
  facet normal -0.406737 0.913545 -2.70932e-16
    outer loop
      vertex -17.5 30.3109 -155
      vertex -15.4 31.2459 -152
      vertex -15.4 31.2459 -155
    endloop
  endfacet
  facet normal 0.900969 -0.433884 5.25142e-16
    outer loop
      vertex -16 30 -155
      vertex -15.4 31.2459 -155
      vertex -15.4 31.2459 -152
    endloop
  endfacet
  facet normal 0.900969 -0.433884 0
    outer loop
      vertex -16 30 -152
      vertex -16 30 -155
      vertex -15.4 31.2459 -152
    endloop
  endfacet
  facet normal 0.900969 0.433884 0
    outer loop
      vertex -15.247 28.4363 -155
      vertex -16 30 -155
      vertex -16 30 -152
    endloop
  endfacet
  facet normal 0.900969 0.433884 5.33481e-16
    outer loop
      vertex -15.247 28.4363 -152
      vertex -15.247 28.4363 -155
      vertex -16 30 -152
    endloop
  endfacet
  facet normal -0 -0 -9.80966e-16
    outer loop
      vertex -14 28.1517 -155
      vertex -15.247 28.4363 -155
      vertex -13.555 28.0501 -155
    endloop
  endfacet
  facet normal 0.222521 0.974928 1.48231e-16
    outer loop
      vertex -13.555 28.0501 -155
      vertex -15.247 28.4363 -155
      vertex -15.247 28.4363 -152
    endloop
  endfacet
  facet normal 0.222521 0.974928 1.31759e-16
    outer loop
      vertex -13.555 28.0501 -155
      vertex -15.247 28.4363 -152
      vertex -13.555 28.0501 -152
    endloop
  endfacet
  facet normal -0.62349 0.781831 0
    outer loop
      vertex -12.1981 29.1322 -155
      vertex -13.555 28.0501 -155
      vertex -12.1981 29.1322 -152
    endloop
  endfacet
  facet normal -0.62349 0.781831 -3.46104e-16
    outer loop
      vertex -12.1981 29.1322 -152
      vertex -13.555 28.0501 -155
      vertex -13.555 28.0501 -152
    endloop
  endfacet
  facet normal -1 0 0
    outer loop
      vertex -12.1981 30.8678 -155
      vertex -12.1981 29.1322 -155
      vertex -12.1981 30.8678 -152
    endloop
  endfacet
  facet normal -1 0 0
    outer loop
      vertex -12.1981 30.8678 -152
      vertex -12.1981 29.1322 -155
      vertex -12.1981 29.1322 -152
    endloop
  endfacet
  facet normal -0.62349 -0.781831 -3.6918e-16
    outer loop
      vertex -13.555 31.9499 -152
      vertex -13.555 31.9499 -155
      vertex -12.1981 30.8678 -155
    endloop
  endfacet
  facet normal -0.62349 -0.781831 0
    outer loop
      vertex -12.1981 30.8678 -152
      vertex -13.555 31.9499 -152
      vertex -12.1981 30.8678 -155
    endloop
  endfacet
  facet normal 0 0 3.59413e-17
    outer loop
      vertex -14.0964 31.8263 -155
      vertex -14 31.8483 -155
      vertex -13.555 31.9499 -155
    endloop
  endfacet
  facet normal 0.222521 -0.974928 1.31759e-16
    outer loop
      vertex -14.0964 31.8263 -152
      vertex -14.0964 31.8263 -155
      vertex -13.555 31.9499 -152
    endloop
  endfacet
  facet normal 0.222521 -0.974928 1.31759e-16
    outer loop
      vertex -13.555 31.9499 -152
      vertex -14.0964 31.8263 -155
      vertex -13.555 31.9499 -155
    endloop
  endfacet
  facet normal -0.406737 0.913545 -2.40836e-16
    outer loop
      vertex -14.0964 31.8263 -152
      vertex -10.8156 33.287 -152
      vertex -14.0964 31.8263 -155
    endloop
  endfacet
  facet normal -0.406737 0.913545 0
    outer loop
      vertex -14.0964 31.8263 -155
      vertex -10.8156 33.287 -152
      vertex -10.8156 33.287 -155
    endloop
  endfacet
  facet normal -0.207912 0.978148 0
    outer loop
      vertex -10.8156 33.287 -152
      vertex -3.6585 34.8083 -152
      vertex -10.8156 33.287 -155
    endloop
  endfacet
  facet normal -0.207912 0.978148 -1.10152e-16
    outer loop
      vertex -10.8156 33.287 -155
      vertex -3.6585 34.8083 -152
      vertex -3.6585 34.8083 -155
    endloop
  endfacet
  facet normal 0 1 0
    outer loop
      vertex -3.6585 34.8083 -152
      vertex -0.175304 34.8083 -152
      vertex -3.6585 34.8083 -155
    endloop
  endfacet
  facet normal 0 1 0
    outer loop
      vertex -3.6585 34.8083 -155
      vertex -0.175304 34.8083 -152
      vertex -0.175304 34.8083 -155
    endloop
  endfacet
  facet normal 0.222521 -0.974928 9.88157e-17
    outer loop
      vertex -1.24698 34.5637 -155
      vertex -0.175304 34.8083 -155
      vertex -0.175304 34.8083 -152
    endloop
  endfacet
  facet normal 0.222521 -0.974928 8.23493e-17
    outer loop
      vertex -1.24698 34.5637 -152
      vertex -1.24698 34.5637 -155
      vertex -0.175304 34.8083 -152
    endloop
  endfacet
  facet normal 0.900969 -0.433884 3.00094e-16
    outer loop
      vertex -2 33 -155
      vertex -1.24698 34.5637 -155
      vertex -1.24698 34.5637 -152
    endloop
  endfacet
  facet normal 0.900969 -0.433884 3.33425e-16
    outer loop
      vertex -2 33 -152
      vertex -2 33 -155
      vertex -1.24698 34.5637 -152
    endloop
  endfacet
  facet normal 0.900969 0.433884 3.5011e-16
    outer loop
      vertex -1.24698 31.4363 -155
      vertex -2 33 -155
      vertex -2 33 -152
    endloop
  endfacet
  facet normal 0.900969 0.433884 3.33425e-16
    outer loop
      vertex -1.24698 31.4363 -152
      vertex -1.24698 31.4363 -155
      vertex -2 33 -152
    endloop
  endfacet
  facet normal -1.85665e-15 -8.13453e-15 -7.65623e-16
    outer loop
      vertex 6.19017e-14 31.1517 -155
      vertex -1.24698 31.4363 -155
      vertex 0.445042 31.0501 -155
    endloop
  endfacet
  facet normal 0.222521 0.974928 7.41098e-17
    outer loop
      vertex 0.445042 31.0501 -155
      vertex -1.24698 31.4363 -155
      vertex -1.24698 31.4363 -152
    endloop
  endfacet
  facet normal 0.222521 0.974928 9.05842e-17
    outer loop
      vertex 0.445042 31.0501 -155
      vertex -1.24698 31.4363 -152
      vertex 0.445042 31.0501 -152
    endloop
  endfacet
  facet normal -0.62349 0.781831 -2.30738e-16
    outer loop
      vertex 1.80194 32.1322 -155
      vertex 0.445042 31.0501 -155
      vertex 1.80194 32.1322 -152
    endloop
  endfacet
  facet normal -0.62349 0.781831 -2.76878e-16
    outer loop
      vertex 1.80194 32.1322 -152
      vertex 0.445042 31.0501 -155
      vertex 0.445042 31.0501 -152
    endloop
  endfacet
  facet normal -1 0 -3.70074e-16
    outer loop
      vertex 1.80194 33.8678 -155
      vertex 1.80194 32.1322 -155
      vertex 1.80194 33.8678 -152
    endloop
  endfacet
  facet normal -1 0 -3.70074e-16
    outer loop
      vertex 1.80194 33.8678 -152
      vertex 1.80194 32.1322 -155
      vertex 1.80194 32.1322 -152
    endloop
  endfacet
  facet normal -0.62349 -0.781831 -2.53811e-16
    outer loop
      vertex 0.62259 34.8083 -152
      vertex 0.62259 34.8083 -155
      vertex 1.80194 33.8678 -155
    endloop
  endfacet
  facet normal -0.62349 -0.781831 -2.30738e-16
    outer loop
      vertex 1.80194 33.8678 -152
      vertex 0.62259 34.8083 -152
      vertex 1.80194 33.8678 -155
    endloop
  endfacet
  facet normal 0 1 0
    outer loop
      vertex 0.62259 34.8083 -152
      vertex 3.6585 34.8083 -152
      vertex 0.62259 34.8083 -155
    endloop
  endfacet
  facet normal 0 1 0
    outer loop
      vertex 0.62259 34.8083 -155
      vertex 3.6585 34.8083 -152
      vertex 3.6585 34.8083 -155
    endloop
  endfacet
  facet normal 0 0 -0
    outer loop
      vertex 0.62259 34.8083 -155
      vertex 3.6585 34.8083 -155
      vertex 6.19017e-14 34.8083 -155
    endloop
  endfacet
  facet normal 0.207912 0.978148 -0
    outer loop
      vertex 10.8156 33.287 -152
      vertex 10.8156 33.287 -155
      vertex 3.6585 34.8083 -152
    endloop
  endfacet
  facet normal 0.207912 0.978148 6.15542e-17
    outer loop
      vertex 3.6585 34.8083 -152
      vertex 10.8156 33.287 -155
      vertex 3.6585 34.8083 -155
    endloop
  endfacet
  facet normal 0.406737 0.913545 -0
    outer loop
      vertex 17.5 30.3109 -152
      vertex 17.5 30.3109 -155
      vertex 15.2366 31.3186 -152
    endloop
  endfacet
  facet normal 0 0 -1.77945e-16
    outer loop
      vertex 14.0311 31.8554 -155
      vertex 17.5 30.3109 -155
      vertex 10.8156 33.287 -155
    endloop
  endfacet
  facet normal 0.406737 0.913545 0
    outer loop
      vertex 14.0311 31.8554 -152
      vertex 10.8156 33.287 -155
      vertex 10.8156 33.287 -152
    endloop
  endfacet
  facet normal 0 0 1.75138e-15
    outer loop
      vertex 15.2366 31.3186 -155
      vertex 17.5 30.3109 -155
      vertex 14.0311 31.8554 -155
    endloop
  endfacet
  facet normal 0.406737 0.913545 -0
    outer loop
      vertex 15.2366 31.3186 -152
      vertex 17.5 30.3109 -155
      vertex 15.2366 31.3186 -155
    endloop
  endfacet
  facet normal 0.406737 0.913545 2.40836e-16
    outer loop
      vertex 14.0311 31.8554 -155
      vertex 10.8156 33.287 -155
      vertex 14.0311 31.8554 -152
    endloop
  endfacet
  facet normal 0 0 9.25461e-16
    outer loop
      vertex 12.753 31.5637 -155
      vertex 14 31.8483 -155
      vertex 14.0311 31.8554 -155
    endloop
  endfacet
  facet normal 0.222521 -0.974928 1.31759e-16
    outer loop
      vertex 12.753 31.5637 -152
      vertex 12.753 31.5637 -155
      vertex 14.0311 31.8554 -152
    endloop
  endfacet
  facet normal 0.222521 -0.974928 1.31759e-16
    outer loop
      vertex 14.0311 31.8554 -152
      vertex 12.753 31.5637 -155
      vertex 14.0311 31.8554 -155
    endloop
  endfacet
  facet normal 0.900969 -0.433884 5.50149e-16
    outer loop
      vertex 12 30 -155
      vertex 12.753 31.5637 -155
      vertex 12.753 31.5637 -152
    endloop
  endfacet
  facet normal 0.900969 -0.433884 0
    outer loop
      vertex 12 30 -152
      vertex 12 30 -155
      vertex 12.753 31.5637 -152
    endloop
  endfacet
  facet normal 0.900969 0.433884 0
    outer loop
      vertex 12.753 28.4363 -155
      vertex 12 30 -155
      vertex 12 30 -152
    endloop
  endfacet
  facet normal 0.900969 0.433884 5.33481e-16
    outer loop
      vertex 12.753 28.4363 -152
      vertex 12.753 28.4363 -155
      vertex 12 30 -152
    endloop
  endfacet
  facet normal -0 -0 -9.80966e-16
    outer loop
      vertex 14 28.1517 -155
      vertex 12.753 28.4363 -155
      vertex 14.445 28.0501 -155
    endloop
  endfacet
  facet normal 0.222521 0.974928 1.48231e-16
    outer loop
      vertex 14.445 28.0501 -155
      vertex 12.753 28.4363 -155
      vertex 12.753 28.4363 -152
    endloop
  endfacet
  facet normal 0.222521 0.974928 1.31759e-16
    outer loop
      vertex 14.445 28.0501 -155
      vertex 12.753 28.4363 -152
      vertex 14.445 28.0501 -152
    endloop
  endfacet
  facet normal -0.62349 0.781831 0
    outer loop
      vertex 15.8019 29.1322 -155
      vertex 14.445 28.0501 -155
      vertex 15.8019 29.1322 -152
    endloop
  endfacet
  facet normal -0.62349 0.781831 -3.46104e-16
    outer loop
      vertex 15.8019 29.1322 -152
      vertex 14.445 28.0501 -155
      vertex 14.445 28.0501 -152
    endloop
  endfacet
  facet normal -1 0 0
    outer loop
      vertex 15.8019 30.8678 -155
      vertex 15.8019 29.1322 -155
      vertex 15.8019 30.8678 -152
    endloop
  endfacet
  facet normal -1 0 0
    outer loop
      vertex 15.8019 30.8678 -152
      vertex 15.8019 29.1322 -155
      vertex 15.8019 29.1322 -152
    endloop
  endfacet
  facet normal -0.62349 -0.781831 0
    outer loop
      vertex 15.2366 31.3186 -152
      vertex 15.2366 31.3186 -155
      vertex 15.8019 30.8678 -155
    endloop
  endfacet
  facet normal -0.62349 -0.781831 0
    outer loop
      vertex 15.8019 30.8678 -152
      vertex 15.2366 31.3186 -152
      vertex 15.8019 30.8678 -155
    endloop
  endfacet
  facet normal 0.587785 0.809017 -0
    outer loop
      vertex 23.4196 26.0101 -152
      vertex 23.4196 26.0101 -155
      vertex 17.5 30.3109 -152
    endloop
  endfacet
  facet normal 0.587785 0.809017 -0
    outer loop
      vertex 17.5 30.3109 -152
      vertex 23.4196 26.0101 -155
      vertex 17.5 30.3109 -155
    endloop
  endfacet
  facet normal 0.743145 0.669131 0
    outer loop
      vertex 23.4196 26.0101 -152
      vertex 27 22.0336 -152
      vertex 27 22.0336 -155
    endloop
  endfacet
  facet normal 0.743145 0.669131 0
    outer loop
      vertex 23.4196 26.0101 -155
      vertex 23.4196 26.0101 -152
      vertex 27 22.0336 -155
    endloop
  endfacet
  facet normal 1 0 0
    outer loop
      vertex 27 -22.0336 -155
      vertex 27 22.0336 -155
      vertex 27 22.0336 -152
    endloop
  endfacet
  facet normal 1 0 -0
    outer loop
      vertex 27 -22.0336 -152
      vertex 27 -22.0336 -155
      vertex 27 22.0336 -152
    endloop
  endfacet
  facet normal 0.743145 -0.669131 0
    outer loop
      vertex 27 -22.0336 -152
      vertex 23.4196 -26.0101 -152
      vertex 23.4196 -26.0101 -155
    endloop
  endfacet
  facet normal 0.743145 -0.669131 0
    outer loop
      vertex 27 -22.0336 -155
      vertex 27 -22.0336 -152
      vertex 23.4196 -26.0101 -155
    endloop
  endfacet
  facet normal 0.587785 -0.809017 0
    outer loop
      vertex 23.4196 -26.0101 -152
      vertex 17.5 -30.3109 -152
      vertex 17.5 -30.3109 -155
    endloop
  endfacet
  facet normal 0.587785 -0.809017 0
    outer loop
      vertex 23.4196 -26.0101 -155
      vertex 23.4196 -26.0101 -152
      vertex 17.5 -30.3109 -155
    endloop
  endfacet
  facet normal 0.406737 -0.913545 0
    outer loop
      vertex 14.0311 -31.8554 -152
      vertex 10.8156 -33.287 -152
      vertex 10.8156 -33.287 -155
    endloop
  endfacet
  facet normal 0.406737 -0.913545 0
    outer loop
      vertex 17.5 -30.3109 -152
      vertex 15.2366 -31.3186 -152
      vertex 17.5 -30.3109 -155
    endloop
  endfacet
  facet normal 0.406737 -0.913545 0
    outer loop
      vertex 15.2366 -31.3186 -152
      vertex 15.2366 -31.3186 -155
      vertex 17.5 -30.3109 -155
    endloop
  endfacet
  facet normal 0 0 -2.83383e-17
    outer loop
      vertex 17.5 -30.3109 -155
      vertex 14.0311 -31.8554 -155
      vertex 10.8156 -33.287 -155
    endloop
  endfacet
  facet normal 0 0 7.66206e-16
    outer loop
      vertex 17.5 -30.3109 -155
      vertex 15.2366 -31.3186 -155
      vertex 14.0311 -31.8554 -155
    endloop
  endfacet
  facet normal 0.406737 -0.913545 2.40836e-16
    outer loop
      vertex 14.0311 -31.8554 -155
      vertex 14.0311 -31.8554 -152
      vertex 10.8156 -33.287 -155
    endloop
  endfacet
  facet normal -0.62349 0.781831 0
    outer loop
      vertex 15.8019 -30.8678 -155
      vertex 15.2366 -31.3186 -155
      vertex 15.8019 -30.8678 -152
    endloop
  endfacet
  facet normal -0.62349 0.781831 0
    outer loop
      vertex 15.8019 -30.8678 -152
      vertex 15.2366 -31.3186 -155
      vertex 15.2366 -31.3186 -152
    endloop
  endfacet
  facet normal -1 0 0
    outer loop
      vertex 15.8019 -29.1322 -155
      vertex 15.8019 -30.8678 -155
      vertex 15.8019 -29.1322 -152
    endloop
  endfacet
  facet normal -1 0 0
    outer loop
      vertex 15.8019 -29.1322 -152
      vertex 15.8019 -30.8678 -155
      vertex 15.8019 -30.8678 -152
    endloop
  endfacet
  facet normal -0.62349 -0.781831 -3.6918e-16
    outer loop
      vertex 14.445 -28.0501 -152
      vertex 14.445 -28.0501 -155
      vertex 15.8019 -29.1322 -155
    endloop
  endfacet
  facet normal -0.62349 -0.781831 0
    outer loop
      vertex 15.8019 -29.1322 -152
      vertex 14.445 -28.0501 -152
      vertex 15.8019 -29.1322 -155
    endloop
  endfacet
  facet normal 0 0 -5.27668e-16
    outer loop
      vertex 12.753 -28.4363 -155
      vertex 14 -28.1517 -155
      vertex 14.445 -28.0501 -155
    endloop
  endfacet
  facet normal 0.222521 -0.974928 1.31759e-16
    outer loop
      vertex 12.753 -28.4363 -152
      vertex 12.753 -28.4363 -155
      vertex 14.445 -28.0501 -152
    endloop
  endfacet
  facet normal 0.222521 -0.974928 1.31759e-16
    outer loop
      vertex 14.445 -28.0501 -152
      vertex 12.753 -28.4363 -155
      vertex 14.445 -28.0501 -155
    endloop
  endfacet
  facet normal 0.900969 -0.433884 5.50149e-16
    outer loop
      vertex 12 -30 -155
      vertex 12.753 -28.4363 -155
      vertex 12.753 -28.4363 -152
    endloop
  endfacet
  facet normal 0.900969 -0.433884 0
    outer loop
      vertex 12 -30 -152
      vertex 12 -30 -155
      vertex 12.753 -28.4363 -152
    endloop
  endfacet
  facet normal 0.900969 0.433884 0
    outer loop
      vertex 12.753 -31.5637 -155
      vertex 12 -30 -155
      vertex 12 -30 -152
    endloop
  endfacet
  facet normal 0.900969 0.433884 5.33481e-16
    outer loop
      vertex 12.753 -31.5637 -152
      vertex 12.753 -31.5637 -155
      vertex 12 -30 -152
    endloop
  endfacet
  facet normal -0 -0 9.97258e-16
    outer loop
      vertex 14 -31.8483 -155
      vertex 12.753 -31.5637 -155
      vertex 14.0311 -31.8554 -155
    endloop
  endfacet
  facet normal 0.222521 0.974928 1.23518e-16
    outer loop
      vertex 14.0311 -31.8554 -155
      vertex 12.753 -31.5637 -155
      vertex 12.753 -31.5637 -152
    endloop
  endfacet
  facet normal 0.222521 0.974928 1.31759e-16
    outer loop
      vertex 14.0311 -31.8554 -155
      vertex 12.753 -31.5637 -152
      vertex 14.0311 -31.8554 -152
    endloop
  endfacet
  facet normal 0.207912 -0.978148 5.50604e-17
    outer loop
      vertex 10.8156 -33.287 -152
      vertex 3.6585 -34.8083 -152
      vertex 3.6585 -34.8083 -155
    endloop
  endfacet
  facet normal 0.207912 -0.978148 0
    outer loop
      vertex 10.8156 -33.287 -155
      vertex 10.8156 -33.287 -152
      vertex 3.6585 -34.8083 -155
    endloop
  endfacet
  facet normal 0 -1 0
    outer loop
      vertex 3.6585 -34.8083 -152
      vertex 0.62259 -34.8083 -152
      vertex 0.62259 -34.8083 -155
    endloop
  endfacet
  facet normal 0 -1 0
    outer loop
      vertex 3.6585 -34.8083 -155
      vertex 3.6585 -34.8083 -152
      vertex 0.62259 -34.8083 -155
    endloop
  endfacet
  facet normal 0 0 0
    outer loop
      vertex 6.19017e-14 -34.8083 -155
      vertex 3.6585 -34.8083 -155
      vertex 0.62259 -34.8083 -155
    endloop
  endfacet
  facet normal -0.62349 0.781831 -2.30738e-16
    outer loop
      vertex 1.80194 -33.8678 -155
      vertex 0.62259 -34.8083 -155
      vertex 1.80194 -33.8678 -152
    endloop
  endfacet
  facet normal -0.62349 0.781831 -2.76892e-16
    outer loop
      vertex 1.80194 -33.8678 -152
      vertex 0.62259 -34.8083 -155
      vertex 0.62259 -34.8083 -152
    endloop
  endfacet
  facet normal -1 0 -3.70074e-16
    outer loop
      vertex 1.80194 -32.1322 -155
      vertex 1.80194 -33.8678 -155
      vertex 1.80194 -32.1322 -152
    endloop
  endfacet
  facet normal -1 0 -3.70074e-16
    outer loop
      vertex 1.80194 -32.1322 -152
      vertex 1.80194 -33.8678 -155
      vertex 1.80194 -33.8678 -152
    endloop
  endfacet
  facet normal -0.62349 -0.781831 -2.53811e-16
    outer loop
      vertex 0.445042 -31.0501 -152
      vertex 0.445042 -31.0501 -155
      vertex 1.80194 -32.1322 -155
    endloop
  endfacet
  facet normal -0.62349 -0.781831 -2.30738e-16
    outer loop
      vertex 1.80194 -32.1322 -152
      vertex 0.445042 -31.0501 -152
      vertex 1.80194 -32.1322 -155
    endloop
  endfacet
  facet normal -1.00841e-15 4.41814e-15 -4.21416e-16
    outer loop
      vertex -1.24698 -31.4363 -155
      vertex 6.19017e-14 -31.1517 -155
      vertex 0.445042 -31.0501 -155
    endloop
  endfacet
  facet normal 0.222521 -0.974928 8.23493e-17
    outer loop
      vertex -1.24698 -31.4363 -152
      vertex -1.24698 -31.4363 -155
      vertex 0.445042 -31.0501 -152
    endloop
  endfacet
  facet normal 0.222521 -0.974928 9.05842e-17
    outer loop
      vertex 0.445042 -31.0501 -152
      vertex -1.24698 -31.4363 -155
      vertex 0.445042 -31.0501 -155
    endloop
  endfacet
  facet normal 0.900969 -0.433884 3.00071e-16
    outer loop
      vertex -2 -33 -155
      vertex -1.24698 -31.4363 -155
      vertex -1.24698 -31.4363 -152
    endloop
  endfacet
  facet normal 0.900969 -0.433884 3.33425e-16
    outer loop
      vertex -2 -33 -152
      vertex -2 -33 -155
      vertex -1.24698 -31.4363 -152
    endloop
  endfacet
  facet normal 0.900969 0.433884 3.50086e-16
    outer loop
      vertex -1.24698 -34.5637 -155
      vertex -2 -33 -155
      vertex -2 -33 -152
    endloop
  endfacet
  facet normal 0.900969 0.433884 3.33425e-16
    outer loop
      vertex -1.24698 -34.5637 -152
      vertex -1.24698 -34.5637 -155
      vertex -2 -33 -152
    endloop
  endfacet
  facet normal -0.222521 0.974928 0
    outer loop
      vertex -18.753 -19.5637 -155
      vertex -20.445 -19.9499 -155
      vertex -18.753 -19.5637 -152
    endloop
  endfacet
  facet normal -0.222521 0.974928 0
    outer loop
      vertex -18.753 -19.5637 -152
      vertex -20.445 -19.9499 -155
      vertex -20.445 -19.9499 -152
    endloop
  endfacet
  facet normal 0.62349 0.781831 0
    outer loop
      vertex -21.8019 -18.8678 -155
      vertex -21.8019 -18.8678 -152
      vertex -20.445 -19.9499 -155
    endloop
  endfacet
  facet normal 0.62349 0.781831 0
    outer loop
      vertex -20.445 -19.9499 -155
      vertex -21.8019 -18.8678 -152
      vertex -20.445 -19.9499 -152
    endloop
  endfacet
  facet normal -0.900969 0.433884 0
    outer loop
      vertex -18 -18 -155
      vertex -18.753 -19.5637 -155
      vertex -18 -18 -152
    endloop
  endfacet
  facet normal -0.900969 0.433884 0
    outer loop
      vertex -18 -18 -152
      vertex -18.753 -19.5637 -155
      vertex -18.753 -19.5637 -152
    endloop
  endfacet
  facet normal -0.900969 -0.433884 -0
    outer loop
      vertex -18.753 -16.4363 -155
      vertex -18 -18 -155
      vertex -18.753 -16.4363 -152
    endloop
  endfacet
  facet normal -0.900969 -0.433884 0
    outer loop
      vertex -18.753 -16.4363 -152
      vertex -18 -18 -155
      vertex -18 -18 -152
    endloop
  endfacet
  facet normal -0.222521 -0.974928 0
    outer loop
      vertex -20.445 -16.0501 -152
      vertex -20.445 -16.0501 -155
      vertex -18.753 -16.4363 -155
    endloop
  endfacet
  facet normal -0.222521 -0.974928 0
    outer loop
      vertex -18.753 -16.4363 -152
      vertex -20.445 -16.0501 -152
      vertex -18.753 -16.4363 -155
    endloop
  endfacet
  facet normal 0.62349 -0.781831 0
    outer loop
      vertex -21.8019 -17.1322 -155
      vertex -20.445 -16.0501 -155
      vertex -20.445 -16.0501 -152
    endloop
  endfacet
  facet normal 0.62349 -0.781831 0
    outer loop
      vertex -21.8019 -17.1322 -152
      vertex -21.8019 -17.1322 -155
      vertex -20.445 -16.0501 -152
    endloop
  endfacet
  facet normal 1 0 0
    outer loop
      vertex -21.8019 -18.8678 -155
      vertex -21.8019 -17.1322 -155
      vertex -21.8019 -17.1322 -152
    endloop
  endfacet
  facet normal 1 0 -0
    outer loop
      vertex -21.8019 -18.8678 -152
      vertex -21.8019 -18.8678 -155
      vertex -21.8019 -17.1322 -152
    endloop
  endfacet
  facet normal 0.222521 0.974928 -0
    outer loop
      vertex 20.445 -19.9499 -152
      vertex 20.445 -19.9499 -155
      vertex 18.753 -19.5637 -152
    endloop
  endfacet
  facet normal 0.222521 0.974928 2.63518e-16
    outer loop
      vertex 18.753 -19.5637 -152
      vertex 20.445 -19.9499 -155
      vertex 18.753 -19.5637 -155
    endloop
  endfacet
  facet normal 0.900969 0.433884 1.1003e-15
    outer loop
      vertex 18 -18 -152
      vertex 18.753 -19.5637 -152
      vertex 18.753 -19.5637 -155
    endloop
  endfacet
  facet normal 0.900969 0.433884 0
    outer loop
      vertex 18 -18 -155
      vertex 18 -18 -152
      vertex 18.753 -19.5637 -155
    endloop
  endfacet
  facet normal -0.62349 0.781831 0
    outer loop
      vertex 20.445 -19.9499 -152
      vertex 21.8019 -18.8678 -152
      vertex 20.445 -19.9499 -155
    endloop
  endfacet
  facet normal -0.62349 0.781831 0
    outer loop
      vertex 20.445 -19.9499 -155
      vertex 21.8019 -18.8678 -152
      vertex 21.8019 -18.8678 -155
    endloop
  endfacet
  facet normal -1 0 0
    outer loop
      vertex 21.8019 -18.8678 -152
      vertex 21.8019 -17.1322 -152
      vertex 21.8019 -18.8678 -155
    endloop
  endfacet
  facet normal -1 -0 0
    outer loop
      vertex 21.8019 -18.8678 -155
      vertex 21.8019 -17.1322 -152
      vertex 21.8019 -17.1322 -155
    endloop
  endfacet
  facet normal -0.62349 -0.781831 -0
    outer loop
      vertex 21.8019 -17.1322 -155
      vertex 21.8019 -17.1322 -152
      vertex 20.445 -16.0501 -152
    endloop
  endfacet
  facet normal -0.62349 -0.781831 -0
    outer loop
      vertex 20.445 -16.0501 -155
      vertex 21.8019 -17.1322 -155
      vertex 20.445 -16.0501 -152
    endloop
  endfacet
  facet normal 0.222521 -0.974928 2.7176e-16
    outer loop
      vertex 20.445 -16.0501 -152
      vertex 18.753 -16.4363 -152
      vertex 18.753 -16.4363 -155
    endloop
  endfacet
  facet normal 0.222521 -0.974928 0
    outer loop
      vertex 20.445 -16.0501 -155
      vertex 20.445 -16.0501 -152
      vertex 18.753 -16.4363 -155
    endloop
  endfacet
  facet normal 0.900969 -0.433884 0
    outer loop
      vertex 18.753 -16.4363 -152
      vertex 18 -18 -152
      vertex 18 -18 -155
    endloop
  endfacet
  facet normal 0.900969 -0.433884 1.06696e-15
    outer loop
      vertex 18.753 -16.4363 -155
      vertex 18.753 -16.4363 -152
      vertex 18 -18 -155
    endloop
  endfacet
  facet normal 0.62349 0.781831 -0
    outer loop
      vertex -20.445 16.0501 -152
      vertex -20.445 16.0501 -155
      vertex -21.8019 17.1322 -152
    endloop
  endfacet
  facet normal 0.62349 0.781831 -0
    outer loop
      vertex -21.8019 17.1322 -152
      vertex -20.445 16.0501 -155
      vertex -21.8019 17.1322 -155
    endloop
  endfacet
  facet normal -0.222521 0.974928 0
    outer loop
      vertex -20.445 16.0501 -152
      vertex -18.753 16.4363 -152
      vertex -20.445 16.0501 -155
    endloop
  endfacet
  facet normal -0.222521 0.974928 0
    outer loop
      vertex -20.445 16.0501 -155
      vertex -18.753 16.4363 -152
      vertex -18.753 16.4363 -155
    endloop
  endfacet
  facet normal -0.900969 0.433884 0
    outer loop
      vertex -18.753 16.4363 -152
      vertex -18 18 -152
      vertex -18.753 16.4363 -155
    endloop
  endfacet
  facet normal -0.900969 0.433884 0
    outer loop
      vertex -18.753 16.4363 -155
      vertex -18 18 -152
      vertex -18 18 -155
    endloop
  endfacet
  facet normal -0.900969 -0.433884 0
    outer loop
      vertex -18 18 -152
      vertex -18.753 19.5637 -152
      vertex -18 18 -155
    endloop
  endfacet
  facet normal -0.900969 -0.433884 0
    outer loop
      vertex -18 18 -155
      vertex -18.753 19.5637 -152
      vertex -18.753 19.5637 -155
    endloop
  endfacet
  facet normal -0.222521 -0.974928 -0
    outer loop
      vertex -18.753 19.5637 -155
      vertex -18.753 19.5637 -152
      vertex -20.445 19.9499 -152
    endloop
  endfacet
  facet normal -0.222521 -0.974928 -0
    outer loop
      vertex -20.445 19.9499 -155
      vertex -18.753 19.5637 -155
      vertex -20.445 19.9499 -152
    endloop
  endfacet
  facet normal 0.62349 -0.781831 0
    outer loop
      vertex -20.445 19.9499 -152
      vertex -21.8019 18.8678 -152
      vertex -21.8019 18.8678 -155
    endloop
  endfacet
  facet normal 0.62349 -0.781831 0
    outer loop
      vertex -20.445 19.9499 -155
      vertex -20.445 19.9499 -152
      vertex -21.8019 18.8678 -155
    endloop
  endfacet
  facet normal 1 0 0
    outer loop
      vertex -21.8019 18.8678 -152
      vertex -21.8019 17.1322 -152
      vertex -21.8019 17.1322 -155
    endloop
  endfacet
  facet normal 1 -0 0
    outer loop
      vertex -21.8019 18.8678 -155
      vertex -21.8019 18.8678 -152
      vertex -21.8019 17.1322 -155
    endloop
  endfacet
  facet normal 0.222521 0.974928 2.63518e-16
    outer loop
      vertex 18.753 16.4363 -155
      vertex 18.753 16.4363 -152
      vertex 20.445 16.0501 -155
    endloop
  endfacet
  facet normal 0.222521 0.974928 0
    outer loop
      vertex 20.445 16.0501 -155
      vertex 18.753 16.4363 -152
      vertex 20.445 16.0501 -152
    endloop
  endfacet
  facet normal 0.900969 0.433884 0
    outer loop
      vertex 18.753 16.4363 -155
      vertex 18 18 -155
      vertex 18 18 -152
    endloop
  endfacet
  facet normal 0.900969 0.433884 1.06696e-15
    outer loop
      vertex 18.753 16.4363 -152
      vertex 18.753 16.4363 -155
      vertex 18 18 -152
    endloop
  endfacet
  facet normal -0.62349 0.781831 0
    outer loop
      vertex 21.8019 17.1322 -155
      vertex 20.445 16.0501 -155
      vertex 21.8019 17.1322 -152
    endloop
  endfacet
  facet normal -0.62349 0.781831 0
    outer loop
      vertex 21.8019 17.1322 -152
      vertex 20.445 16.0501 -155
      vertex 20.445 16.0501 -152
    endloop
  endfacet
  facet normal -1 0 0
    outer loop
      vertex 21.8019 18.8678 -155
      vertex 21.8019 17.1322 -155
      vertex 21.8019 18.8678 -152
    endloop
  endfacet
  facet normal -1 0 0
    outer loop
      vertex 21.8019 18.8678 -152
      vertex 21.8019 17.1322 -155
      vertex 21.8019 17.1322 -152
    endloop
  endfacet
  facet normal -0.62349 -0.781831 0
    outer loop
      vertex 20.445 19.9499 -152
      vertex 20.445 19.9499 -155
      vertex 21.8019 18.8678 -155
    endloop
  endfacet
  facet normal -0.62349 -0.781831 0
    outer loop
      vertex 21.8019 18.8678 -152
      vertex 20.445 19.9499 -152
      vertex 21.8019 18.8678 -155
    endloop
  endfacet
  facet normal 0.222521 -0.974928 0
    outer loop
      vertex 18.753 19.5637 -155
      vertex 20.445 19.9499 -155
      vertex 20.445 19.9499 -152
    endloop
  endfacet
  facet normal 0.222521 -0.974928 2.63518e-16
    outer loop
      vertex 18.753 19.5637 -152
      vertex 18.753 19.5637 -155
      vertex 20.445 19.9499 -152
    endloop
  endfacet
  facet normal 0.900969 -0.433884 1.1003e-15
    outer loop
      vertex 18 18 -155
      vertex 18.753 19.5637 -155
      vertex 18.753 19.5637 -152
    endloop
  endfacet
  facet normal 0.900969 -0.433884 0
    outer loop
      vertex 18 18 -152
      vertex 18 18 -155
      vertex 18.753 19.5637 -152
    endloop
  endfacet
  facet normal 0 0 1
    outer loop
      vertex 1.80194 -32.1322 -155
      vertex 0.445042 -31.0501 -155
      vertex 6.19017e-14 -31.1517 -155
    endloop
  endfacet
  facet normal -0 0 1
    outer loop
      vertex 0.62259 -34.8083 -155
      vertex 1.80194 -32.1322 -155
      vertex 6.19017e-14 -34.8083 -155
    endloop
  endfacet
  facet normal 0 0 1
    outer loop
      vertex 6.19017e-14 -34.8083 -155
      vertex 1.80194 -32.1322 -155
      vertex 6.19017e-14 -31.1517 -155
    endloop
  endfacet
  facet normal -0 0 1
    outer loop
      vertex 1.80194 -33.8678 -155
      vertex 1.80194 -32.1322 -155
      vertex 0.62259 -34.8083 -155
    endloop
  endfacet
  facet normal 0 0 1
    outer loop
      vertex 1.80194 33.8678 -155
      vertex 0.62259 34.8083 -155
      vertex 6.19017e-14 34.8083 -155
    endloop
  endfacet
  facet normal 0 0 1
    outer loop
      vertex 0.445042 31.0501 -155
      vertex 1.80194 33.8678 -155
      vertex 6.19017e-14 31.1517 -155
    endloop
  endfacet
  facet normal 0 0 1
    outer loop
      vertex 6.19017e-14 31.1517 -155
      vertex 1.80194 33.8678 -155
      vertex 6.19017e-14 34.8083 -155
    endloop
  endfacet
  facet normal -0 0 1
    outer loop
      vertex 1.80194 32.1322 -155
      vertex 1.80194 33.8678 -155
      vertex 0.445042 31.0501 -155
    endloop
  endfacet
  facet normal 0 0 1
    outer loop
      vertex -12.1981 30.8678 -155
      vertex -13.555 31.9499 -155
      vertex -14 31.8483 -155
    endloop
  endfacet
  facet normal 0 0 1
    outer loop
      vertex -13.555 28.0501 -155
      vertex -12.1981 30.8678 -155
      vertex -14 28.1517 -155
    endloop
  endfacet
  facet normal 0 0 1
    outer loop
      vertex -14 28.1517 -155
      vertex -12.1981 30.8678 -155
      vertex -14 31.8483 -155
    endloop
  endfacet
  facet normal -0 0 1
    outer loop
      vertex -12.1981 29.1322 -155
      vertex -12.1981 30.8678 -155
      vertex -13.555 28.0501 -155
    endloop
  endfacet
  facet normal 0 0 1
    outer loop
      vertex -12.1981 -29.1322 -155
      vertex -13.555 -28.0501 -155
      vertex -14 -28.1517 -155
    endloop
  endfacet
  facet normal 0 0 1
    outer loop
      vertex -13.555 -31.9499 -155
      vertex -12.1981 -29.1322 -155
      vertex -14 -31.8483 -155
    endloop
  endfacet
  facet normal 0 0 1
    outer loop
      vertex -14 -31.8483 -155
      vertex -12.1981 -29.1322 -155
      vertex -14 -28.1517 -155
    endloop
  endfacet
  facet normal -0 0 1
    outer loop
      vertex -12.1981 -30.8678 -155
      vertex -12.1981 -29.1322 -155
      vertex -13.555 -31.9499 -155
    endloop
  endfacet
  facet normal 0 0 1
    outer loop
      vertex 15.8019 -29.1322 -155
      vertex 14.445 -28.0501 -155
      vertex 14 -28.1517 -155
    endloop
  endfacet
  facet normal 0 0 1
    outer loop
      vertex 14.0311 -31.8554 -155
      vertex 15.8019 -29.1322 -155
      vertex 14 -31.8483 -155
    endloop
  endfacet
  facet normal 0 0 1
    outer loop
      vertex 14 -31.8483 -155
      vertex 15.8019 -29.1322 -155
      vertex 14 -28.1517 -155
    endloop
  endfacet
  facet normal -0 0 1
    outer loop
      vertex 15.2366 -31.3186 -155
      vertex 15.8019 -29.1322 -155
      vertex 14.0311 -31.8554 -155
    endloop
  endfacet
  facet normal -0 0 1
    outer loop
      vertex 15.8019 -30.8678 -155
      vertex 15.8019 -29.1322 -155
      vertex 15.2366 -31.3186 -155
    endloop
  endfacet
  facet normal 0.258819 0.965926 0
    outer loop
      vertex -13.85 -3.20429 -155
      vertex -13.85 -3.20429 -152
      vertex -12 -3.7 -155
    endloop
  endfacet
  facet normal 0.258819 0.965926 1.53252e-16
    outer loop
      vertex -12 -3.7 -155
      vertex -13.85 -3.20429 -152
      vertex -12 -3.7 -152
    endloop
  endfacet
  facet normal 0.707107 0.707107 4.18691e-16
    outer loop
      vertex -15.2043 -1.85 -155
      vertex -15.2043 -1.85 -152
      vertex -13.85 -3.20429 -155
    endloop
  endfacet
  facet normal 0.707107 0.707107 0
    outer loop
      vertex -13.85 -3.20429 -155
      vertex -15.2043 -1.85 -152
      vertex -13.85 -3.20429 -152
    endloop
  endfacet
  facet normal 0.965926 0.258819 0
    outer loop
      vertex -15.2043 -1.85 -155
      vertex -15.7 0 -155
      vertex -15.7 0 -152
    endloop
  endfacet
  facet normal 0.965926 0.258819 5.71943e-16
    outer loop
      vertex -15.2043 -1.85 -152
      vertex -15.2043 -1.85 -155
      vertex -15.7 0 -152
    endloop
  endfacet
  facet normal 0.965926 -0.258819 5.63004e-16
    outer loop
      vertex -15.7 0 -155
      vertex -15.2043 1.85 -155
      vertex -15.2043 1.85 -152
    endloop
  endfacet
  facet normal 0.965926 -0.258819 0
    outer loop
      vertex -15.7 0 -152
      vertex -15.7 0 -155
      vertex -15.2043 1.85 -152
    endloop
  endfacet
  facet normal 0.707107 -0.707107 0
    outer loop
      vertex -15.2043 1.85 -155
      vertex -13.85 3.20429 -155
      vertex -13.85 3.20429 -152
    endloop
  endfacet
  facet normal 0.707107 -0.707107 4.18691e-16
    outer loop
      vertex -15.2043 1.85 -152
      vertex -15.2043 1.85 -155
      vertex -13.85 3.20429 -152
    endloop
  endfacet
  facet normal 0.258819 -0.965926 1.43673e-16
    outer loop
      vertex -13.85 3.20429 -155
      vertex -12 3.7 -155
      vertex -12 3.7 -152
    endloop
  endfacet
  facet normal 0.258819 -0.965926 0
    outer loop
      vertex -13.85 3.20429 -152
      vertex -13.85 3.20429 -155
      vertex -12 3.7 -152
    endloop
  endfacet
  facet normal -0.258819 -0.965926 -1.53252e-16
    outer loop
      vertex -12 3.7 -152
      vertex -12 3.7 -155
      vertex -10.15 3.20429 -155
    endloop
  endfacet
  facet normal -0.258819 -0.965926 -1.53252e-16
    outer loop
      vertex -10.15 3.20429 -152
      vertex -12 3.7 -152
      vertex -10.15 3.20429 -155
    endloop
  endfacet
  facet normal -0.707107 -0.707107 -4.18691e-16
    outer loop
      vertex -10.15 3.20429 -152
      vertex -10.15 3.20429 -155
      vertex -8.79571 1.85 -155
    endloop
  endfacet
  facet normal -0.707107 -0.707107 -4.18691e-16
    outer loop
      vertex -8.79571 1.85 -152
      vertex -10.15 3.20429 -152
      vertex -8.79571 1.85 -155
    endloop
  endfacet
  facet normal -0.965926 -0.258819 -5.71943e-16
    outer loop
      vertex -8.79571 1.85 -155
      vertex -8.3 0 -155
      vertex -8.79571 1.85 -152
    endloop
  endfacet
  facet normal -0.965926 -0.258819 -5.63015e-16
    outer loop
      vertex -8.79571 1.85 -152
      vertex -8.3 0 -155
      vertex -8.3 0 -152
    endloop
  endfacet
  facet normal -0.965926 0.258819 -5.71943e-16
    outer loop
      vertex -8.3 0 -155
      vertex -8.79571 -1.85 -155
      vertex -8.3 0 -152
    endloop
  endfacet
  facet normal -0.965926 0.258819 -5.63004e-16
    outer loop
      vertex -8.3 0 -152
      vertex -8.79571 -1.85 -155
      vertex -8.79571 -1.85 -152
    endloop
  endfacet
  facet normal -0.707107 0.707107 -4.18691e-16
    outer loop
      vertex -8.79571 -1.85 -155
      vertex -10.15 -3.20429 -155
      vertex -8.79571 -1.85 -152
    endloop
  endfacet
  facet normal -0.707107 0.707107 -3.92531e-16
    outer loop
      vertex -8.79571 -1.85 -152
      vertex -10.15 -3.20429 -155
      vertex -10.15 -3.20429 -152
    endloop
  endfacet
  facet normal -0.258819 0.965926 -1.53252e-16
    outer loop
      vertex -10.15 -3.20429 -155
      vertex -12 -3.7 -155
      vertex -10.15 -3.20429 -152
    endloop
  endfacet
  facet normal -0.258819 0.965926 -1.72405e-16
    outer loop
      vertex -10.15 -3.20429 -152
      vertex -12 -3.7 -155
      vertex -12 -3.7 -152
    endloop
  endfacet
  facet normal 0 0 1
    outer loop
      vertex 15.8019 30.8678 -155
      vertex 15.2366 31.3186 -155
      vertex 14.0311 31.8554 -155
    endloop
  endfacet
  facet normal 0 0 1
    outer loop
      vertex 14 28.1517 -155
      vertex 15.8019 30.8678 -155
      vertex 14 31.8483 -155
    endloop
  endfacet
  facet normal 0 0 1
    outer loop
      vertex 14 31.8483 -155
      vertex 15.8019 30.8678 -155
      vertex 14.0311 31.8554 -155
    endloop
  endfacet
  facet normal 0 0 1
    outer loop
      vertex 14.445 28.0501 -155
      vertex 15.8019 30.8678 -155
      vertex 14 28.1517 -155
    endloop
  endfacet
  facet normal -0 0 1
    outer loop
      vertex 15.8019 29.1322 -155
      vertex 15.8019 30.8678 -155
      vertex 14.445 28.0501 -155
    endloop
  endfacet
endsolid OpenSCAD_Model
