solid OpenSCAD_Model
  facet normal -1.000000 0.000000 0.000000
    outer loop
      vertex 117.000000 10.000000 12.000000
      vertex 117.000000 10.000000 4.000000
      vertex 117.000000 3.700000 12.000000
    endloop
  endfacet
  facet normal -1.000000 0.000000 0.000000
    outer loop
      vertex 117.000000 -1.143363 8.481091
      vertex 117.000000 10.000000 4.000000
      vertex 117.000000 -10.000000 4.000000
    endloop
  endfacet
  facet normal -1.000000 0.000000 0.000000
    outer loop
      vertex 117.000000 -3.700000 12.000000
      vertex 117.000000 -10.000000 4.000000
      vertex 117.000000 -10.000000 12.000000
    endloop
  endfacet
  facet normal -1.000000 0.000000 0.000000
    outer loop
      vertex 117.000000 -3.518909 10.856637
      vertex 117.000000 -10.000000 4.000000
      vertex 117.000000 -3.700000 12.000000
    endloop
  endfacet
  facet normal -1.000000 0.000000 0.000000
    outer loop
      vertex 117.000000 -2.993363 9.825195
      vertex 117.000000 -10.000000 4.000000
      vertex 117.000000 -3.518909 10.856637
    endloop
  endfacet
  facet normal -1.000000 0.000000 0.000000
    outer loop
      vertex 117.000000 -2.174805 9.006637
      vertex 117.000000 -10.000000 4.000000
      vertex 117.000000 -2.993363 9.825195
    endloop
  endfacet
  facet normal -1.000000 0.000000 0.000000
    outer loop
      vertex 117.000000 0.000000 8.300000
      vertex 117.000000 10.000000 4.000000
      vertex 117.000000 -1.143363 8.481091
    endloop
  endfacet
  facet normal -1.000000 0.000000 0.000000
    outer loop
      vertex 117.000000 1.143363 8.481091
      vertex 117.000000 10.000000 4.000000
      vertex 117.000000 0.000000 8.300000
    endloop
  endfacet
  facet normal -1.000000 0.000000 0.000000
    outer loop
      vertex 117.000000 2.174805 9.006637
      vertex 117.000000 10.000000 4.000000
      vertex 117.000000 1.143363 8.481091
    endloop
  endfacet
  facet normal -1.000000 0.000000 0.000000
    outer loop
      vertex 117.000000 2.993363 9.825195
      vertex 117.000000 10.000000 4.000000
      vertex 117.000000 2.174805 9.006637
    endloop
  endfacet
  facet normal -1.000000 0.000000 0.000000
    outer loop
      vertex 117.000000 3.518909 10.856637
      vertex 117.000000 10.000000 4.000000
      vertex 117.000000 2.993363 9.825195
    endloop
  endfacet
  facet normal -1.000000 0.000000 0.000000
    outer loop
      vertex 117.000000 3.700000 12.000000
      vertex 117.000000 10.000000 4.000000
      vertex 117.000000 3.518909 10.856637
    endloop
  endfacet
  facet normal -1.000000 0.000000 0.000000
    outer loop
      vertex 117.000000 -1.143363 8.481091
      vertex 117.000000 -10.000000 4.000000
      vertex 117.000000 -2.174805 9.006637
    endloop
  endfacet
  facet normal 0.000000 1.000000 -0.000000
    outer loop
      vertex 117.000000 10.000000 12.000000
      vertex 133.000000 10.000000 12.000000
      vertex 117.000000 10.000000 4.000000
    endloop
  endfacet
  facet normal 0.000000 1.000000 0.000000
    outer loop
      vertex 117.000000 10.000000 4.000000
      vertex 133.000000 10.000000 12.000000
      vertex 133.000000 10.000000 4.000000
    endloop
  endfacet
  facet normal -0.000000 0.000000 1.000000
    outer loop
      vertex 120.000000 7.000000 12.000000
      vertex 117.000000 10.000000 12.000000
      vertex 117.000000 3.700000 12.000000
    endloop
  endfacet
  facet normal -0.000000 0.000000 1.000000
    outer loop
      vertex 120.097887 6.381966 12.000000
      vertex 120.000000 7.000000 12.000000
      vertex 117.000000 3.700000 12.000000
    endloop
  endfacet
  facet normal -0.000000 0.000000 1.000000
    outer loop
      vertex 120.097887 7.618034 12.000000
      vertex 117.000000 10.000000 12.000000
      vertex 120.000000 7.000000 12.000000
    endloop
  endfacet
  facet normal -0.000000 0.000000 1.000000
    outer loop
      vertex 120.381966 8.175571 12.000000
      vertex 117.000000 10.000000 12.000000
      vertex 120.097887 7.618034 12.000000
    endloop
  endfacet
  facet normal 0.000000 0.000000 1.000000
    outer loop
      vertex 123.618034 8.175571 12.000000
      vertex 128.381966 8.902113 12.000000
      vertex 133.000000 10.000000 12.000000
    endloop
  endfacet
  facet normal -0.000000 0.000000 1.000000
    outer loop
      vertex 120.824429 8.618034 12.000000
      vertex 117.000000 10.000000 12.000000
      vertex 120.381966 8.175571 12.000000
    endloop
  endfacet
  facet normal -0.000000 0.000000 1.000000
    outer loop
      vertex 121.381966 8.902113 12.000000
      vertex 117.000000 10.000000 12.000000
      vertex 120.824429 8.618034 12.000000
    endloop
  endfacet
  facet normal -0.000000 0.000000 1.000000
    outer loop
      vertex 122.000000 9.000000 12.000000
      vertex 117.000000 10.000000 12.000000
      vertex 121.381966 8.902113 12.000000
    endloop
  endfacet
  facet normal 0.000000 0.000000 1.000000
    outer loop
      vertex 122.618034 8.902113 12.000000
      vertex 123.175571 8.618034 12.000000
      vertex 133.000000 10.000000 12.000000
    endloop
  endfacet
  facet normal 0.000000 0.000000 1.000000
    outer loop
      vertex 133.000000 10.000000 12.000000
      vertex 117.000000 10.000000 12.000000
      vertex 122.000000 9.000000 12.000000
    endloop
  endfacet
  facet normal 0.000000 0.000000 1.000000
    outer loop
      vertex 123.618034 8.175571 12.000000
      vertex 123.902113 7.618034 12.000000
      vertex 128.381966 8.902113 12.000000
    endloop
  endfacet
  facet normal 0.000000 0.000000 1.000000
    outer loop
      vertex 127.097887 7.618034 12.000000
      vertex 124.000000 7.000000 12.000000
      vertex 123.902113 6.381966 12.000000
    endloop
  endfacet
  facet normal -0.000000 0.000000 1.000000
    outer loop
      vertex 127.097887 7.618034 12.000000
      vertex 127.381966 8.175571 12.000000
      vertex 124.000000 7.000000 12.000000
    endloop
  endfacet
  facet normal 0.000000 0.000000 1.000000
    outer loop
      vertex 127.381966 8.175571 12.000000
      vertex 123.902113 7.618034 12.000000
      vertex 124.000000 7.000000 12.000000
    endloop
  endfacet
  facet normal -0.000000 0.000000 1.000000
    outer loop
      vertex 127.824429 8.618034 12.000000
      vertex 128.381966 8.902113 12.000000
      vertex 123.902113 7.618034 12.000000
    endloop
  endfacet
  facet normal -0.000000 0.000000 1.000000
    outer loop
      vertex 120.824429 5.381966 12.000000
      vertex 120.381966 5.824429 12.000000
      vertex 117.000000 3.700000 12.000000
    endloop
  endfacet
  facet normal 0.000000 0.000000 1.000000
    outer loop
      vertex 133.000000 3.700000 12.000000
      vertex 123.902113 6.381966 12.000000
      vertex 123.618034 5.824429 12.000000
    endloop
  endfacet
  facet normal 0.000000 0.000000 1.000000
    outer loop
      vertex 133.000000 3.700000 12.000000
      vertex 123.618034 5.824429 12.000000
      vertex 123.175571 5.381966 12.000000
    endloop
  endfacet
  facet normal 0.000000 0.000000 1.000000
    outer loop
      vertex 133.000000 3.700000 12.000000
      vertex 122.618034 5.097887 12.000000
      vertex 117.000000 3.700000 12.000000
    endloop
  endfacet
  facet normal 0.000000 0.000000 1.000000
    outer loop
      vertex 133.000000 3.700000 12.000000
      vertex 123.175571 5.381966 12.000000
      vertex 122.618034 5.097887 12.000000
    endloop
  endfacet
  facet normal 0.000000 0.000000 1.000000
    outer loop
      vertex 122.618034 5.097887 12.000000
      vertex 122.000000 5.000000 12.000000
      vertex 117.000000 3.700000 12.000000
    endloop
  endfacet
  facet normal -0.000000 0.000000 1.000000
    outer loop
      vertex 122.000000 5.000000 12.000000
      vertex 121.381966 5.097887 12.000000
      vertex 117.000000 3.700000 12.000000
    endloop
  endfacet
  facet normal -0.000000 0.000000 1.000000
    outer loop
      vertex 121.381966 5.097887 12.000000
      vertex 120.824429 5.381966 12.000000
      vertex 117.000000 3.700000 12.000000
    endloop
  endfacet
  facet normal 0.000000 0.000000 1.000000
    outer loop
      vertex 130.175571 8.618034 12.000000
      vertex 130.618034 8.175571 12.000000
      vertex 133.000000 10.000000 12.000000
    endloop
  endfacet
  facet normal -0.000000 0.000000 1.000000
    outer loop
      vertex 120.381966 5.824429 12.000000
      vertex 120.097887 6.381966 12.000000
      vertex 117.000000 3.700000 12.000000
    endloop
  endfacet
  facet normal -0.000000 0.000000 1.000000
    outer loop
      vertex 127.097887 6.381966 12.000000
      vertex 127.000000 7.000000 12.000000
      vertex 123.902113 6.381966 12.000000
    endloop
  endfacet
  facet normal -0.000000 0.000000 1.000000
    outer loop
      vertex 127.000000 7.000000 12.000000
      vertex 127.097887 7.618034 12.000000
      vertex 123.902113 6.381966 12.000000
    endloop
  endfacet
  facet normal 0.000000 0.000000 1.000000
    outer loop
      vertex 127.824429 8.618034 12.000000
      vertex 123.902113 7.618034 12.000000
      vertex 127.381966 8.175571 12.000000
    endloop
  endfacet
  facet normal 0.000000 0.000000 1.000000
    outer loop
      vertex 129.618034 8.902113 12.000000
      vertex 130.175571 8.618034 12.000000
      vertex 133.000000 10.000000 12.000000
    endloop
  endfacet
  facet normal 0.000000 0.000000 1.000000
    outer loop
      vertex 129.000000 9.000000 12.000000
      vertex 129.618034 8.902113 12.000000
      vertex 133.000000 10.000000 12.000000
    endloop
  endfacet
  facet normal 0.000000 0.000000 1.000000
    outer loop
      vertex 133.000000 10.000000 12.000000
      vertex 128.381966 8.902113 12.000000
      vertex 129.000000 9.000000 12.000000
    endloop
  endfacet
  facet normal 0.000000 -0.000000 1.000000
    outer loop
      vertex 130.175571 5.381966 12.000000
      vertex 129.618034 5.097887 12.000000
      vertex 133.000000 3.700000 12.000000
    endloop
  endfacet
  facet normal 0.000000 0.000000 1.000000
    outer loop
      vertex 133.000000 3.700000 12.000000
      vertex 133.000000 10.000000 12.000000
      vertex 130.618034 8.175571 12.000000
    endloop
  endfacet
  facet normal 0.000000 0.000000 1.000000
    outer loop
      vertex 133.000000 3.700000 12.000000
      vertex 130.618034 8.175571 12.000000
      vertex 130.902113 7.618034 12.000000
    endloop
  endfacet
  facet normal 0.000000 0.000000 1.000000
    outer loop
      vertex 133.000000 3.700000 12.000000
      vertex 130.902113 7.618034 12.000000
      vertex 131.000000 7.000000 12.000000
    endloop
  endfacet
  facet normal 0.000000 0.000000 1.000000
    outer loop
      vertex 133.000000 3.700000 12.000000
      vertex 131.000000 7.000000 12.000000
      vertex 130.902113 6.381966 12.000000
    endloop
  endfacet
  facet normal 0.000000 0.000000 1.000000
    outer loop
      vertex 133.000000 3.700000 12.000000
      vertex 130.902113 6.381966 12.000000
      vertex 130.618034 5.824429 12.000000
    endloop
  endfacet
  facet normal 0.000000 0.000000 1.000000
    outer loop
      vertex 128.381966 5.097887 12.000000
      vertex 127.824429 5.381966 12.000000
      vertex 123.902113 6.381966 12.000000
    endloop
  endfacet
  facet normal 0.000000 0.000000 1.000000
    outer loop
      vertex 133.000000 3.700000 12.000000
      vertex 130.618034 5.824429 12.000000
      vertex 130.175571 5.381966 12.000000
    endloop
  endfacet
  facet normal 0.000000 0.000000 1.000000
    outer loop
      vertex 127.824429 5.381966 12.000000
      vertex 127.381966 5.824429 12.000000
      vertex 123.902113 6.381966 12.000000
    endloop
  endfacet
  facet normal 0.000000 0.000000 1.000000
    outer loop
      vertex 133.000000 3.700000 12.000000
      vertex 129.618034 5.097887 12.000000
      vertex 129.000000 5.000000 12.000000
    endloop
  endfacet
  facet normal 0.000000 0.000000 1.000000
    outer loop
      vertex 133.000000 3.700000 12.000000
      vertex 128.381966 5.097887 12.000000
      vertex 123.902113 6.381966 12.000000
    endloop
  endfacet
  facet normal 0.000000 0.000000 1.000000
    outer loop
      vertex 133.000000 3.700000 12.000000
      vertex 129.000000 5.000000 12.000000
      vertex 128.381966 5.097887 12.000000
    endloop
  endfacet
  facet normal 0.000000 0.000000 1.000000
    outer loop
      vertex 127.381966 5.824429 12.000000
      vertex 127.097887 6.381966 12.000000
      vertex 123.902113 6.381966 12.000000
    endloop
  endfacet
  facet normal 0.000000 0.000000 1.000000
    outer loop
      vertex 122.000000 9.000000 12.000000
      vertex 122.618034 8.902113 12.000000
      vertex 133.000000 10.000000 12.000000
    endloop
  endfacet
  facet normal 0.000000 0.000000 1.000000
    outer loop
      vertex 123.175571 8.618034 12.000000
      vertex 123.618034 8.175571 12.000000
      vertex 133.000000 10.000000 12.000000
    endloop
  endfacet
  facet normal 0.000000 -0.987688 0.156435
    outer loop
      vertex 117.000000 3.518909 10.856637
      vertex 133.000000 3.518909 10.856637
      vertex 133.000000 3.700000 12.000000
    endloop
  endfacet
  facet normal 0.000000 -0.987688 0.156435
    outer loop
      vertex 117.000000 3.700000 12.000000
      vertex 117.000000 3.518909 10.856637
      vertex 133.000000 3.700000 12.000000
    endloop
  endfacet
  facet normal 0.000000 -0.891007 0.453991
    outer loop
      vertex 117.000000 2.993363 9.825195
      vertex 133.000000 2.993363 9.825195
      vertex 133.000000 3.518909 10.856637
    endloop
  endfacet
  facet normal 0.000000 -0.891007 0.453991
    outer loop
      vertex 117.000000 3.518909 10.856637
      vertex 117.000000 2.993363 9.825195
      vertex 133.000000 3.518909 10.856637
    endloop
  endfacet
  facet normal 0.000000 -0.707107 0.707107
    outer loop
      vertex 117.000000 2.174805 9.006637
      vertex 133.000000 2.174805 9.006637
      vertex 133.000000 2.993363 9.825195
    endloop
  endfacet
  facet normal 0.000000 -0.707107 0.707107
    outer loop
      vertex 117.000000 2.993363 9.825195
      vertex 117.000000 2.174805 9.006637
      vertex 133.000000 2.993363 9.825195
    endloop
  endfacet
  facet normal 0.000000 -0.453991 0.891007
    outer loop
      vertex 117.000000 1.143363 8.481091
      vertex 133.000000 1.143363 8.481091
      vertex 133.000000 2.174805 9.006637
    endloop
  endfacet
  facet normal 0.000000 -0.453991 0.891007
    outer loop
      vertex 117.000000 2.174805 9.006637
      vertex 117.000000 1.143363 8.481091
      vertex 133.000000 2.174805 9.006637
    endloop
  endfacet
  facet normal 0.000000 -0.156435 0.987688
    outer loop
      vertex 117.000000 0.000000 8.300000
      vertex 133.000000 0.000000 8.300000
      vertex 133.000000 1.143363 8.481091
    endloop
  endfacet
  facet normal 0.000000 -0.156435 0.987688
    outer loop
      vertex 117.000000 1.143363 8.481091
      vertex 117.000000 0.000000 8.300000
      vertex 133.000000 1.143363 8.481091
    endloop
  endfacet
  facet normal 0.000000 0.156435 0.987688
    outer loop
      vertex 117.000000 -1.143363 8.481091
      vertex 133.000000 -1.143363 8.481091
      vertex 133.000000 0.000000 8.300000
    endloop
  endfacet
  facet normal 0.000000 0.156435 0.987688
    outer loop
      vertex 117.000000 0.000000 8.300000
      vertex 117.000000 -1.143363 8.481091
      vertex 133.000000 0.000000 8.300000
    endloop
  endfacet
  facet normal 0.000000 0.453991 0.891007
    outer loop
      vertex 117.000000 -2.174805 9.006637
      vertex 133.000000 -2.174805 9.006637
      vertex 133.000000 -1.143363 8.481091
    endloop
  endfacet
  facet normal 0.000000 0.453991 0.891007
    outer loop
      vertex 117.000000 -1.143363 8.481091
      vertex 117.000000 -2.174805 9.006637
      vertex 133.000000 -1.143363 8.481091
    endloop
  endfacet
  facet normal 0.000000 0.707107 0.707107
    outer loop
      vertex 133.000000 -2.993363 9.825195
      vertex 133.000000 -2.174805 9.006637
      vertex 117.000000 -2.993363 9.825195
    endloop
  endfacet
  facet normal 0.000000 0.707107 0.707107
    outer loop
      vertex 117.000000 -2.993363 9.825195
      vertex 133.000000 -2.174805 9.006637
      vertex 117.000000 -2.174805 9.006637
    endloop
  endfacet
  facet normal 0.000000 0.891007 0.453991
    outer loop
      vertex 133.000000 -3.518909 10.856637
      vertex 133.000000 -2.993363 9.825195
      vertex 117.000000 -3.518909 10.856637
    endloop
  endfacet
  facet normal 0.000000 0.891007 0.453991
    outer loop
      vertex 117.000000 -3.518909 10.856637
      vertex 133.000000 -2.993363 9.825195
      vertex 117.000000 -2.993363 9.825195
    endloop
  endfacet
  facet normal 0.000000 0.987688 0.156435
    outer loop
      vertex 133.000000 -3.700000 12.000000
      vertex 133.000000 -3.518909 10.856637
      vertex 117.000000 -3.700000 12.000000
    endloop
  endfacet
  facet normal 0.000000 0.987688 0.156435
    outer loop
      vertex 117.000000 -3.700000 12.000000
      vertex 133.000000 -3.518909 10.856637
      vertex 117.000000 -3.518909 10.856637
    endloop
  endfacet
  facet normal -0.000000 0.000000 1.000000
    outer loop
      vertex 120.000000 -7.000000 12.000000
      vertex 117.000000 -3.700000 12.000000
      vertex 117.000000 -10.000000 12.000000
    endloop
  endfacet
  facet normal -0.000000 0.000000 1.000000
    outer loop
      vertex 121.381966 -8.902113 12.000000
      vertex 120.824429 -8.618034 12.000000
      vertex 117.000000 -10.000000 12.000000
    endloop
  endfacet
  facet normal -0.000000 0.000000 1.000000
    outer loop
      vertex 120.097887 -7.618034 12.000000
      vertex 120.000000 -7.000000 12.000000
      vertex 117.000000 -10.000000 12.000000
    endloop
  endfacet
  facet normal -0.000000 0.000000 1.000000
    outer loop
      vertex 120.097887 -6.381966 12.000000
      vertex 117.000000 -3.700000 12.000000
      vertex 120.000000 -7.000000 12.000000
    endloop
  endfacet
  facet normal -0.000000 0.000000 1.000000
    outer loop
      vertex 120.381966 -5.824429 12.000000
      vertex 117.000000 -3.700000 12.000000
      vertex 120.097887 -6.381966 12.000000
    endloop
  endfacet
  facet normal -0.000000 0.000000 1.000000
    outer loop
      vertex 120.824429 -5.381966 12.000000
      vertex 117.000000 -3.700000 12.000000
      vertex 120.381966 -5.824429 12.000000
    endloop
  endfacet
  facet normal 0.000000 0.000000 1.000000
    outer loop
      vertex 123.175571 -5.381966 12.000000
      vertex 123.618034 -5.824429 12.000000
      vertex 133.000000 -3.700000 12.000000
    endloop
  endfacet
  facet normal -0.000000 0.000000 1.000000
    outer loop
      vertex 121.381966 -5.097887 12.000000
      vertex 117.000000 -3.700000 12.000000
      vertex 120.824429 -5.381966 12.000000
    endloop
  endfacet
  facet normal -0.000000 0.000000 1.000000
    outer loop
      vertex 122.000000 -5.000000 12.000000
      vertex 117.000000 -3.700000 12.000000
      vertex 121.381966 -5.097887 12.000000
    endloop
  endfacet
  facet normal 0.000000 0.000000 1.000000
    outer loop
      vertex 133.000000 -3.700000 12.000000
      vertex 117.000000 -3.700000 12.000000
      vertex 122.000000 -5.000000 12.000000
    endloop
  endfacet
  facet normal 0.000000 0.000000 1.000000
    outer loop
      vertex 123.618034 -5.824429 12.000000
      vertex 123.902113 -6.381966 12.000000
      vertex 133.000000 -3.700000 12.000000
    endloop
  endfacet
  facet normal 0.000000 0.000000 1.000000
    outer loop
      vertex 127.097887 -6.381966 12.000000
      vertex 124.000000 -7.000000 12.000000
      vertex 123.902113 -7.618034 12.000000
    endloop
  endfacet
  facet normal 0.000000 0.000000 1.000000
    outer loop
      vertex 127.824429 -5.381966 12.000000
      vertex 123.902113 -6.381966 12.000000
      vertex 124.000000 -7.000000 12.000000
    endloop
  endfacet
  facet normal -0.000000 0.000000 1.000000
    outer loop
      vertex 120.824429 -8.618034 12.000000
      vertex 120.381966 -8.175571 12.000000
      vertex 117.000000 -10.000000 12.000000
    endloop
  endfacet
  facet normal 0.000000 0.000000 1.000000
    outer loop
      vertex 128.381966 -8.902113 12.000000
      vertex 123.902113 -7.618034 12.000000
      vertex 123.618034 -8.175571 12.000000
    endloop
  endfacet
  facet normal 0.000000 0.000000 1.000000
    outer loop
      vertex 133.000000 -10.000000 12.000000
      vertex 123.618034 -8.175571 12.000000
      vertex 123.175571 -8.618034 12.000000
    endloop
  endfacet
  facet normal -0.000000 0.000000 1.000000
    outer loop
      vertex 133.000000 -10.000000 12.000000
      vertex 122.618034 -8.902113 12.000000
      vertex 117.000000 -10.000000 12.000000
    endloop
  endfacet
  facet normal 0.000000 0.000000 1.000000
    outer loop
      vertex 133.000000 -10.000000 12.000000
      vertex 123.175571 -8.618034 12.000000
      vertex 122.618034 -8.902113 12.000000
    endloop
  endfacet
  facet normal 0.000000 0.000000 1.000000
    outer loop
      vertex 122.618034 -8.902113 12.000000
      vertex 122.000000 -9.000000 12.000000
      vertex 117.000000 -10.000000 12.000000
    endloop
  endfacet
  facet normal -0.000000 0.000000 1.000000
    outer loop
      vertex 122.000000 -9.000000 12.000000
      vertex 121.381966 -8.902113 12.000000
      vertex 117.000000 -10.000000 12.000000
    endloop
  endfacet
  facet normal 0.000000 -0.000000 1.000000
    outer loop
      vertex 129.618034 -8.902113 12.000000
      vertex 129.000000 -9.000000 12.000000
      vertex 133.000000 -10.000000 12.000000
    endloop
  endfacet
  facet normal -0.000000 0.000000 1.000000
    outer loop
      vertex 120.381966 -8.175571 12.000000
      vertex 120.097887 -7.618034 12.000000
      vertex 117.000000 -10.000000 12.000000
    endloop
  endfacet
  facet normal -0.000000 0.000000 1.000000
    outer loop
      vertex 127.097887 -7.618034 12.000000
      vertex 127.000000 -7.000000 12.000000
      vertex 123.902113 -7.618034 12.000000
    endloop
  endfacet
  facet normal -0.000000 0.000000 1.000000
    outer loop
      vertex 127.000000 -7.000000 12.000000
      vertex 127.097887 -6.381966 12.000000
      vertex 123.902113 -7.618034 12.000000
    endloop
  endfacet
  facet normal 0.000000 0.000000 1.000000
    outer loop
      vertex 130.902113 -6.381966 12.000000
      vertex 131.000000 -7.000000 12.000000
      vertex 133.000000 -10.000000 12.000000
    endloop
  endfacet
  facet normal -0.000000 0.000000 1.000000
    outer loop
      vertex 127.097887 -6.381966 12.000000
      vertex 127.381966 -5.824429 12.000000
      vertex 124.000000 -7.000000 12.000000
    endloop
  endfacet
  facet normal 0.000000 0.000000 1.000000
    outer loop
      vertex 129.618034 -5.097887 12.000000
      vertex 130.175571 -5.381966 12.000000
      vertex 133.000000 -3.700000 12.000000
    endloop
  endfacet
  facet normal 0.000000 0.000000 1.000000
    outer loop
      vertex 128.381966 -5.097887 12.000000
      vertex 123.902113 -6.381966 12.000000
      vertex 127.824429 -5.381966 12.000000
    endloop
  endfacet
  facet normal 0.000000 0.000000 1.000000
    outer loop
      vertex 129.000000 -5.000000 12.000000
      vertex 129.618034 -5.097887 12.000000
      vertex 133.000000 -3.700000 12.000000
    endloop
  endfacet
  facet normal 0.000000 0.000000 1.000000
    outer loop
      vertex 133.000000 -3.700000 12.000000
      vertex 123.902113 -6.381966 12.000000
      vertex 128.381966 -5.097887 12.000000
    endloop
  endfacet
  facet normal 0.000000 0.000000 1.000000
    outer loop
      vertex 128.381966 -5.097887 12.000000
      vertex 129.000000 -5.000000 12.000000
      vertex 133.000000 -3.700000 12.000000
    endloop
  endfacet
  facet normal -0.000000 0.000000 1.000000
    outer loop
      vertex 127.381966 -5.824429 12.000000
      vertex 127.824429 -5.381966 12.000000
      vertex 124.000000 -7.000000 12.000000
    endloop
  endfacet
  facet normal 0.000000 0.000000 1.000000
    outer loop
      vertex 130.618034 -5.824429 12.000000
      vertex 133.000000 -3.700000 12.000000
      vertex 130.175571 -5.381966 12.000000
    endloop
  endfacet
  facet normal 0.000000 0.000000 1.000000
    outer loop
      vertex 133.000000 -10.000000 12.000000
      vertex 133.000000 -3.700000 12.000000
      vertex 130.618034 -5.824429 12.000000
    endloop
  endfacet
  facet normal 0.000000 -0.000000 1.000000
    outer loop
      vertex 130.618034 -8.175571 12.000000
      vertex 130.175571 -8.618034 12.000000
      vertex 133.000000 -10.000000 12.000000
    endloop
  endfacet
  facet normal 0.000000 0.000000 1.000000
    outer loop
      vertex 133.000000 -10.000000 12.000000
      vertex 130.618034 -5.824429 12.000000
      vertex 130.902113 -6.381966 12.000000
    endloop
  endfacet
  facet normal 0.000000 0.000000 1.000000
    outer loop
      vertex 133.000000 -10.000000 12.000000
      vertex 131.000000 -7.000000 12.000000
      vertex 130.902113 -7.618034 12.000000
    endloop
  endfacet
  facet normal 0.000000 0.000000 1.000000
    outer loop
      vertex 133.000000 -10.000000 12.000000
      vertex 130.902113 -7.618034 12.000000
      vertex 130.618034 -8.175571 12.000000
    endloop
  endfacet
  facet normal 0.000000 0.000000 1.000000
    outer loop
      vertex 127.381966 -8.175571 12.000000
      vertex 127.097887 -7.618034 12.000000
      vertex 123.902113 -7.618034 12.000000
    endloop
  endfacet
  facet normal 0.000000 0.000000 1.000000
    outer loop
      vertex 133.000000 -10.000000 12.000000
      vertex 130.175571 -8.618034 12.000000
      vertex 129.618034 -8.902113 12.000000
    endloop
  endfacet
  facet normal 0.000000 0.000000 1.000000
    outer loop
      vertex 133.000000 -10.000000 12.000000
      vertex 129.000000 -9.000000 12.000000
      vertex 123.618034 -8.175571 12.000000
    endloop
  endfacet
  facet normal 0.000000 0.000000 1.000000
    outer loop
      vertex 129.000000 -9.000000 12.000000
      vertex 128.381966 -8.902113 12.000000
      vertex 123.618034 -8.175571 12.000000
    endloop
  endfacet
  facet normal 0.000000 0.000000 1.000000
    outer loop
      vertex 127.824429 -8.618034 12.000000
      vertex 127.381966 -8.175571 12.000000
      vertex 123.902113 -7.618034 12.000000
    endloop
  endfacet
  facet normal 0.000000 0.000000 1.000000
    outer loop
      vertex 128.381966 -8.902113 12.000000
      vertex 127.824429 -8.618034 12.000000
      vertex 123.902113 -7.618034 12.000000
    endloop
  endfacet
  facet normal 0.000000 0.000000 1.000000
    outer loop
      vertex 122.000000 -5.000000 12.000000
      vertex 122.618034 -5.097887 12.000000
      vertex 133.000000 -3.700000 12.000000
    endloop
  endfacet
  facet normal 0.000000 0.000000 1.000000
    outer loop
      vertex 122.618034 -5.097887 12.000000
      vertex 123.175571 -5.381966 12.000000
      vertex 133.000000 -3.700000 12.000000
    endloop
  endfacet
  facet normal 0.000000 -1.000000 0.000000
    outer loop
      vertex 133.000000 -10.000000 12.000000
      vertex 117.000000 -10.000000 12.000000
      vertex 117.000000 -10.000000 4.000000
    endloop
  endfacet
  facet normal 0.000000 -1.000000 0.000000
    outer loop
      vertex 133.000000 -10.000000 4.000000
      vertex 133.000000 -10.000000 12.000000
      vertex 117.000000 -10.000000 4.000000
    endloop
  endfacet
  facet normal -0.000000 -0.000000 -1.000000
    outer loop
      vertex 128.381966 5.097887 4.000000
      vertex 129.000000 5.000000 4.000000
      vertex 117.000000 -10.000000 4.000000
    endloop
  endfacet
  facet normal 0.000000 -0.000000 -1.000000
    outer loop
      vertex 131.000000 -7.000000 4.000000
      vertex 133.000000 10.000000 4.000000
      vertex 133.000000 -10.000000 4.000000
    endloop
  endfacet
  facet normal 0.000000 -0.000000 -1.000000
    outer loop
      vertex 121.381966 8.902113 4.000000
      vertex 117.000000 10.000000 4.000000
      vertex 122.000000 9.000000 4.000000
    endloop
  endfacet
  facet normal -0.000000 -0.000000 -1.000000
    outer loop
      vertex 117.000000 10.000000 4.000000
      vertex 120.097887 7.618034 4.000000
      vertex 117.000000 -10.000000 4.000000
    endloop
  endfacet
  facet normal -0.000000 0.000000 -1.000000
    outer loop
      vertex 123.175571 8.618034 4.000000
      vertex 133.000000 10.000000 4.000000
      vertex 123.618034 8.175571 4.000000
    endloop
  endfacet
  facet normal 0.000000 -0.000000 -1.000000
    outer loop
      vertex 120.097887 7.618034 4.000000
      vertex 120.000000 7.000000 4.000000
      vertex 117.000000 -10.000000 4.000000
    endloop
  endfacet
  facet normal -0.000000 -0.000000 -1.000000
    outer loop
      vertex 120.000000 7.000000 4.000000
      vertex 120.097887 6.381966 4.000000
      vertex 117.000000 -10.000000 4.000000
    endloop
  endfacet
  facet normal -0.000000 -0.000000 -1.000000
    outer loop
      vertex 120.097887 6.381966 4.000000
      vertex 120.381966 5.824429 4.000000
      vertex 117.000000 -10.000000 4.000000
    endloop
  endfacet
  facet normal -0.000000 -0.000000 -1.000000
    outer loop
      vertex 120.381966 5.824429 4.000000
      vertex 120.824429 5.381966 4.000000
      vertex 117.000000 -10.000000 4.000000
    endloop
  endfacet
  facet normal -0.000000 -0.000000 -1.000000
    outer loop
      vertex 120.824429 5.381966 4.000000
      vertex 121.381966 5.097887 4.000000
      vertex 117.000000 -10.000000 4.000000
    endloop
  endfacet
  facet normal -0.000000 -0.000000 -1.000000
    outer loop
      vertex 121.381966 5.097887 4.000000
      vertex 122.000000 5.000000 4.000000
      vertex 117.000000 -10.000000 4.000000
    endloop
  endfacet
  facet normal 0.000000 -0.000000 -1.000000
    outer loop
      vertex 129.618034 5.097887 4.000000
      vertex 120.824429 -5.381966 4.000000
      vertex 120.381966 -5.824429 4.000000
    endloop
  endfacet
  facet normal 0.000000 -0.000000 -1.000000
    outer loop
      vertex 122.000000 5.000000 4.000000
      vertex 122.618034 5.097887 4.000000
      vertex 117.000000 -10.000000 4.000000
    endloop
  endfacet
  facet normal -0.000000 0.000000 -1.000000
    outer loop
      vertex 123.902113 6.381966 4.000000
      vertex 127.097887 7.618034 4.000000
      vertex 123.618034 5.824429 4.000000
    endloop
  endfacet
  facet normal 0.000000 0.000000 -1.000000
    outer loop
      vertex 127.381966 -8.175571 4.000000
      vertex 124.000000 -7.000000 4.000000
      vertex 127.097887 -7.618034 4.000000
    endloop
  endfacet
  facet normal 0.000000 -0.000000 -1.000000
    outer loop
      vertex 127.824429 8.618034 4.000000
      vertex 123.902113 7.618034 4.000000
      vertex 128.381966 8.902113 4.000000
    endloop
  endfacet
  facet normal -0.000000 0.000000 -1.000000
    outer loop
      vertex 122.618034 8.902113 4.000000
      vertex 133.000000 10.000000 4.000000
      vertex 123.175571 8.618034 4.000000
    endloop
  endfacet
  facet normal 0.000000 0.000000 -1.000000
    outer loop
      vertex 117.000000 10.000000 4.000000
      vertex 133.000000 10.000000 4.000000
      vertex 122.618034 8.902113 4.000000
    endloop
  endfacet
  facet normal 0.000000 0.000000 -1.000000
    outer loop
      vertex 117.000000 10.000000 4.000000
      vertex 122.618034 8.902113 4.000000
      vertex 122.000000 9.000000 4.000000
    endloop
  endfacet
  facet normal -0.000000 0.000000 -1.000000
    outer loop
      vertex 120.097887 -6.381966 4.000000
      vertex 117.000000 -10.000000 4.000000
      vertex 120.381966 -5.824429 4.000000
    endloop
  endfacet
  facet normal 0.000000 0.000000 -1.000000
    outer loop
      vertex 117.000000 10.000000 4.000000
      vertex 121.381966 8.902113 4.000000
      vertex 120.824429 8.618034 4.000000
    endloop
  endfacet
  facet normal 0.000000 0.000000 -1.000000
    outer loop
      vertex 117.000000 10.000000 4.000000
      vertex 120.824429 8.618034 4.000000
      vertex 120.381966 8.175571 4.000000
    endloop
  endfacet
  facet normal 0.000000 0.000000 -1.000000
    outer loop
      vertex 117.000000 10.000000 4.000000
      vertex 120.381966 8.175571 4.000000
      vertex 120.097887 7.618034 4.000000
    endloop
  endfacet
  facet normal -0.000000 0.000000 -1.000000
    outer loop
      vertex 127.097887 7.618034 4.000000
      vertex 123.902113 6.381966 4.000000
      vertex 124.000000 7.000000 4.000000
    endloop
  endfacet
  facet normal -0.000000 0.000000 -1.000000
    outer loop
      vertex 117.000000 -10.000000 4.000000
      vertex 120.097887 -6.381966 4.000000
      vertex 120.000000 -7.000000 4.000000
    endloop
  endfacet
  facet normal 0.000000 0.000000 -1.000000
    outer loop
      vertex 124.000000 -7.000000 4.000000
      vertex 127.381966 -8.175571 4.000000
      vertex 127.824429 -8.618034 4.000000
    endloop
  endfacet
  facet normal 0.000000 -0.000000 -1.000000
    outer loop
      vertex 117.000000 -10.000000 4.000000
      vertex 120.000000 -7.000000 4.000000
      vertex 120.097887 -7.618034 4.000000
    endloop
  endfacet
  facet normal 0.000000 0.000000 -1.000000
    outer loop
      vertex 123.902113 -7.618034 4.000000
      vertex 128.381966 -8.902113 4.000000
      vertex 123.618034 -8.175571 4.000000
    endloop
  endfacet
  facet normal 0.000000 0.000000 -1.000000
    outer loop
      vertex 117.000000 -10.000000 4.000000
      vertex 120.097887 -7.618034 4.000000
      vertex 120.381966 -8.175571 4.000000
    endloop
  endfacet
  facet normal 0.000000 0.000000 -1.000000
    outer loop
      vertex 117.000000 -10.000000 4.000000
      vertex 120.381966 -8.175571 4.000000
      vertex 120.824429 -8.618034 4.000000
    endloop
  endfacet
  facet normal 0.000000 0.000000 -1.000000
    outer loop
      vertex 117.000000 -10.000000 4.000000
      vertex 120.824429 -8.618034 4.000000
      vertex 121.381966 -8.902113 4.000000
    endloop
  endfacet
  facet normal 0.000000 0.000000 -1.000000
    outer loop
      vertex 117.000000 -10.000000 4.000000
      vertex 121.381966 -8.902113 4.000000
      vertex 122.000000 -9.000000 4.000000
    endloop
  endfacet
  facet normal -0.000000 0.000000 -1.000000
    outer loop
      vertex 117.000000 -10.000000 4.000000
      vertex 122.000000 -9.000000 4.000000
      vertex 133.000000 -10.000000 4.000000
    endloop
  endfacet
  facet normal 0.000000 0.000000 -1.000000
    outer loop
      vertex 123.175571 -8.618034 4.000000
      vertex 133.000000 -10.000000 4.000000
      vertex 122.618034 -8.902113 4.000000
    endloop
  endfacet
  facet normal 0.000000 0.000000 -1.000000
    outer loop
      vertex 123.618034 -8.175571 4.000000
      vertex 133.000000 -10.000000 4.000000
      vertex 123.175571 -8.618034 4.000000
    endloop
  endfacet
  facet normal 0.000000 0.000000 -1.000000
    outer loop
      vertex 128.381966 -8.902113 4.000000
      vertex 133.000000 -10.000000 4.000000
      vertex 123.618034 -8.175571 4.000000
    endloop
  endfacet
  facet normal -0.000000 -0.000000 -1.000000
    outer loop
      vertex 123.902113 -6.381966 4.000000
      vertex 133.000000 10.000000 4.000000
      vertex 124.000000 -7.000000 4.000000
    endloop
  endfacet
  facet normal 0.000000 0.000000 -1.000000
    outer loop
      vertex 128.381966 -8.902113 4.000000
      vertex 123.902113 -7.618034 4.000000
      vertex 127.824429 -8.618034 4.000000
    endloop
  endfacet
  facet normal -0.000000 0.000000 -1.000000
    outer loop
      vertex 130.618034 5.824429 4.000000
      vertex 133.000000 10.000000 4.000000
      vertex 123.902113 -6.381966 4.000000
    endloop
  endfacet
  facet normal 0.000000 -0.000000 -1.000000
    outer loop
      vertex 130.175571 5.381966 4.000000
      vertex 122.618034 -5.097887 4.000000
      vertex 129.618034 5.097887 4.000000
    endloop
  endfacet
  facet normal -0.000000 0.000000 -1.000000
    outer loop
      vertex 127.097887 7.618034 4.000000
      vertex 124.000000 7.000000 4.000000
      vertex 127.381966 8.175571 4.000000
    endloop
  endfacet
  facet normal 0.000000 -0.000000 -1.000000
    outer loop
      vertex 130.902113 7.618034 4.000000
      vertex 133.000000 10.000000 4.000000
      vertex 131.000000 7.000000 4.000000
    endloop
  endfacet
  facet normal 0.000000 0.000000 -1.000000
    outer loop
      vertex 122.618034 -8.902113 4.000000
      vertex 133.000000 -10.000000 4.000000
      vertex 122.000000 -9.000000 4.000000
    endloop
  endfacet
  facet normal 0.000000 0.000000 -1.000000
    outer loop
      vertex 127.000000 7.000000 4.000000
      vertex 122.618034 5.097887 4.000000
      vertex 123.175571 5.381966 4.000000
    endloop
  endfacet
  facet normal 0.000000 0.000000 -1.000000
    outer loop
      vertex 127.000000 7.000000 4.000000
      vertex 123.175571 5.381966 4.000000
      vertex 123.618034 5.824429 4.000000
    endloop
  endfacet
  facet normal -0.000000 0.000000 -1.000000
    outer loop
      vertex 129.618034 8.902113 4.000000
      vertex 133.000000 10.000000 4.000000
      vertex 130.175571 8.618034 4.000000
    endloop
  endfacet
  facet normal 0.000000 -0.000000 -1.000000
    outer loop
      vertex 122.618034 5.097887 4.000000
      vertex 127.000000 7.000000 4.000000
      vertex 117.000000 -10.000000 4.000000
    endloop
  endfacet
  facet normal -0.000000 -0.000000 -1.000000
    outer loop
      vertex 127.000000 7.000000 4.000000
      vertex 127.097887 6.381966 4.000000
      vertex 117.000000 -10.000000 4.000000
    endloop
  endfacet
  facet normal -0.000000 -0.000000 -1.000000
    outer loop
      vertex 127.097887 6.381966 4.000000
      vertex 127.381966 5.824429 4.000000
      vertex 117.000000 -10.000000 4.000000
    endloop
  endfacet
  facet normal -0.000000 0.000000 -1.000000
    outer loop
      vertex 130.175571 8.618034 4.000000
      vertex 133.000000 10.000000 4.000000
      vertex 130.618034 8.175571 4.000000
    endloop
  endfacet
  facet normal -0.000000 -0.000000 -1.000000
    outer loop
      vertex 127.381966 5.824429 4.000000
      vertex 127.824429 5.381966 4.000000
      vertex 117.000000 -10.000000 4.000000
    endloop
  endfacet
  facet normal -0.000000 -0.000000 -1.000000
    outer loop
      vertex 127.824429 5.381966 4.000000
      vertex 128.381966 5.097887 4.000000
      vertex 117.000000 -10.000000 4.000000
    endloop
  endfacet
  facet normal -0.000000 0.000000 -1.000000
    outer loop
      vertex 130.618034 8.175571 4.000000
      vertex 133.000000 10.000000 4.000000
      vertex 130.902113 7.618034 4.000000
    endloop
  endfacet
  facet normal -0.000000 0.000000 -1.000000
    outer loop
      vertex 117.000000 -10.000000 4.000000
      vertex 129.000000 5.000000 4.000000
      vertex 120.381966 -5.824429 4.000000
    endloop
  endfacet
  facet normal -0.000000 -0.000000 -1.000000
    outer loop
      vertex 130.175571 5.381966 4.000000
      vertex 123.175571 -5.381966 4.000000
      vertex 122.618034 -5.097887 4.000000
    endloop
  endfacet
  facet normal -0.000000 -0.000000 -1.000000
    outer loop
      vertex 122.000000 -5.000000 4.000000
      vertex 129.618034 5.097887 4.000000
      vertex 122.618034 -5.097887 4.000000
    endloop
  endfacet
  facet normal 0.000000 -0.000000 -1.000000
    outer loop
      vertex 130.618034 5.824429 4.000000
      vertex 123.618034 -5.824429 4.000000
      vertex 130.175571 5.381966 4.000000
    endloop
  endfacet
  facet normal -0.000000 -0.000000 -1.000000
    outer loop
      vertex 123.175571 -5.381966 4.000000
      vertex 130.175571 5.381966 4.000000
      vertex 123.618034 -5.824429 4.000000
    endloop
  endfacet
  facet normal -0.000000 0.000000 -1.000000
    outer loop
      vertex 130.902113 6.381966 4.000000
      vertex 133.000000 10.000000 4.000000
      vertex 130.618034 5.824429 4.000000
    endloop
  endfacet
  facet normal -0.000000 -0.000000 -1.000000
    outer loop
      vertex 123.618034 -5.824429 4.000000
      vertex 130.618034 5.824429 4.000000
      vertex 123.902113 -6.381966 4.000000
    endloop
  endfacet
  facet normal -0.000000 0.000000 -1.000000
    outer loop
      vertex 131.000000 7.000000 4.000000
      vertex 133.000000 10.000000 4.000000
      vertex 130.902113 6.381966 4.000000
    endloop
  endfacet
  facet normal 0.000000 -0.000000 -1.000000
    outer loop
      vertex 129.618034 5.097887 4.000000
      vertex 121.381966 -5.097887 4.000000
      vertex 120.824429 -5.381966 4.000000
    endloop
  endfacet
  facet normal 0.000000 -0.000000 -1.000000
    outer loop
      vertex 129.618034 5.097887 4.000000
      vertex 122.000000 -5.000000 4.000000
      vertex 121.381966 -5.097887 4.000000
    endloop
  endfacet
  facet normal -0.000000 0.000000 -1.000000
    outer loop
      vertex 123.618034 8.175571 4.000000
      vertex 128.381966 8.902113 4.000000
      vertex 123.902113 7.618034 4.000000
    endloop
  endfacet
  facet normal 0.000000 0.000000 -1.000000
    outer loop
      vertex 128.381966 8.902113 4.000000
      vertex 133.000000 10.000000 4.000000
      vertex 129.000000 9.000000 4.000000
    endloop
  endfacet
  facet normal -0.000000 -0.000000 -1.000000
    outer loop
      vertex 124.000000 -7.000000 4.000000
      vertex 127.824429 -8.618034 4.000000
      vertex 123.902113 -7.618034 4.000000
    endloop
  endfacet
  facet normal 0.000000 0.000000 -1.000000
    outer loop
      vertex 123.618034 8.175571 4.000000
      vertex 133.000000 10.000000 4.000000
      vertex 128.381966 8.902113 4.000000
    endloop
  endfacet
  facet normal 0.000000 -0.000000 -1.000000
    outer loop
      vertex 124.000000 -7.000000 4.000000
      vertex 133.000000 10.000000 4.000000
      vertex 127.097887 -6.381966 4.000000
    endloop
  endfacet
  facet normal -0.000000 0.000000 -1.000000
    outer loop
      vertex 124.000000 -7.000000 4.000000
      vertex 127.097887 -6.381966 4.000000
      vertex 127.000000 -7.000000 4.000000
    endloop
  endfacet
  facet normal -0.000000 -0.000000 -1.000000
    outer loop
      vertex 124.000000 -7.000000 4.000000
      vertex 127.000000 -7.000000 4.000000
      vertex 127.097887 -7.618034 4.000000
    endloop
  endfacet
  facet normal 0.000000 0.000000 -1.000000
    outer loop
      vertex 130.175571 -8.618034 4.000000
      vertex 133.000000 -10.000000 4.000000
      vertex 129.618034 -8.902113 4.000000
    endloop
  endfacet
  facet normal 0.000000 0.000000 -1.000000
    outer loop
      vertex 129.618034 -8.902113 4.000000
      vertex 133.000000 -10.000000 4.000000
      vertex 129.000000 -9.000000 4.000000
    endloop
  endfacet
  facet normal 0.000000 0.000000 -1.000000
    outer loop
      vertex 128.381966 -8.902113 4.000000
      vertex 129.000000 -9.000000 4.000000
      vertex 133.000000 -10.000000 4.000000
    endloop
  endfacet
  facet normal 0.000000 -0.000000 -1.000000
    outer loop
      vertex 127.381966 8.175571 4.000000
      vertex 123.902113 7.618034 4.000000
      vertex 127.824429 8.618034 4.000000
    endloop
  endfacet
  facet normal 0.000000 0.000000 -1.000000
    outer loop
      vertex 130.618034 -8.175571 4.000000
      vertex 133.000000 -10.000000 4.000000
      vertex 130.175571 -8.618034 4.000000
    endloop
  endfacet
  facet normal -0.000000 -0.000000 -1.000000
    outer loop
      vertex 130.902113 -6.381966 4.000000
      vertex 133.000000 10.000000 4.000000
      vertex 131.000000 -7.000000 4.000000
    endloop
  endfacet
  facet normal -0.000000 -0.000000 -1.000000
    outer loop
      vertex 130.618034 -5.824429 4.000000
      vertex 133.000000 10.000000 4.000000
      vertex 130.902113 -6.381966 4.000000
    endloop
  endfacet
  facet normal -0.000000 0.000000 -1.000000
    outer loop
      vertex 130.618034 -8.175571 4.000000
      vertex 130.902113 -7.618034 4.000000
      vertex 133.000000 -10.000000 4.000000
    endloop
  endfacet
  facet normal -0.000000 -0.000000 -1.000000
    outer loop
      vertex 130.902113 -7.618034 4.000000
      vertex 131.000000 -7.000000 4.000000
      vertex 133.000000 -10.000000 4.000000
    endloop
  endfacet
  facet normal -0.000000 -0.000000 -1.000000
    outer loop
      vertex 130.175571 -5.381966 4.000000
      vertex 133.000000 10.000000 4.000000
      vertex 130.618034 -5.824429 4.000000
    endloop
  endfacet
  facet normal -0.000000 -0.000000 -1.000000
    outer loop
      vertex 129.618034 -5.097887 4.000000
      vertex 133.000000 10.000000 4.000000
      vertex 130.175571 -5.381966 4.000000
    endloop
  endfacet
  facet normal -0.000000 -0.000000 -1.000000
    outer loop
      vertex 129.000000 -5.000000 4.000000
      vertex 133.000000 10.000000 4.000000
      vertex 129.618034 -5.097887 4.000000
    endloop
  endfacet
  facet normal 0.000000 -0.000000 -1.000000
    outer loop
      vertex 128.381966 -5.097887 4.000000
      vertex 133.000000 10.000000 4.000000
      vertex 129.000000 -5.000000 4.000000
    endloop
  endfacet
  facet normal 0.000000 -0.000000 -1.000000
    outer loop
      vertex 127.824429 -5.381966 4.000000
      vertex 133.000000 10.000000 4.000000
      vertex 128.381966 -5.097887 4.000000
    endloop
  endfacet
  facet normal 0.000000 -0.000000 -1.000000
    outer loop
      vertex 127.381966 -5.824429 4.000000
      vertex 133.000000 10.000000 4.000000
      vertex 127.824429 -5.381966 4.000000
    endloop
  endfacet
  facet normal 0.000000 -0.000000 -1.000000
    outer loop
      vertex 127.097887 -6.381966 4.000000
      vertex 133.000000 10.000000 4.000000
      vertex 127.381966 -5.824429 4.000000
    endloop
  endfacet
  facet normal 0.000000 -0.000000 -1.000000
    outer loop
      vertex 129.618034 5.097887 4.000000
      vertex 120.381966 -5.824429 4.000000
      vertex 129.000000 5.000000 4.000000
    endloop
  endfacet
  facet normal -0.000000 0.000000 -1.000000
    outer loop
      vertex 129.000000 9.000000 4.000000
      vertex 133.000000 10.000000 4.000000
      vertex 129.618034 8.902113 4.000000
    endloop
  endfacet
  facet normal 0.000000 -0.000000 -1.000000
    outer loop
      vertex 127.000000 7.000000 4.000000
      vertex 123.618034 5.824429 4.000000
      vertex 127.097887 7.618034 4.000000
    endloop
  endfacet
  facet normal 0.000000 -0.000000 -1.000000
    outer loop
      vertex 123.902113 7.618034 4.000000
      vertex 127.381966 8.175571 4.000000
      vertex 124.000000 7.000000 4.000000
    endloop
  endfacet
  facet normal 1.000000 0.000000 0.000000
    outer loop
      vertex 133.000000 10.000000 4.000000
      vertex 133.000000 10.000000 12.000000
      vertex 133.000000 3.700000 12.000000
    endloop
  endfacet
  facet normal 1.000000 0.000000 0.000000
    outer loop
      vertex 133.000000 3.518909 10.856637
      vertex 133.000000 10.000000 4.000000
      vertex 133.000000 3.700000 12.000000
    endloop
  endfacet
  facet normal 1.000000 0.000000 0.000000
    outer loop
      vertex 133.000000 2.993363 9.825195
      vertex 133.000000 10.000000 4.000000
      vertex 133.000000 3.518909 10.856637
    endloop
  endfacet
  facet normal 1.000000 0.000000 0.000000
    outer loop
      vertex 133.000000 2.174805 9.006637
      vertex 133.000000 10.000000 4.000000
      vertex 133.000000 2.993363 9.825195
    endloop
  endfacet
  facet normal 1.000000 0.000000 0.000000
    outer loop
      vertex 133.000000 1.143363 8.481091
      vertex 133.000000 10.000000 4.000000
      vertex 133.000000 2.174805 9.006637
    endloop
  endfacet
  facet normal 1.000000 0.000000 0.000000
    outer loop
      vertex 133.000000 0.000000 8.300000
      vertex 133.000000 10.000000 4.000000
      vertex 133.000000 1.143363 8.481091
    endloop
  endfacet
  facet normal 1.000000 0.000000 0.000000
    outer loop
      vertex 133.000000 -1.143363 8.481091
      vertex 133.000000 10.000000 4.000000
      vertex 133.000000 0.000000 8.300000
    endloop
  endfacet
  facet normal 1.000000 0.000000 0.000000
    outer loop
      vertex 133.000000 -10.000000 12.000000
      vertex 133.000000 10.000000 4.000000
      vertex 133.000000 -1.143363 8.481091
    endloop
  endfacet
  facet normal 1.000000 0.000000 0.000000
    outer loop
      vertex 133.000000 -10.000000 12.000000
      vertex 133.000000 -1.143363 8.481091
      vertex 133.000000 -2.174805 9.006637
    endloop
  endfacet
  facet normal 1.000000 0.000000 0.000000
    outer loop
      vertex 133.000000 -10.000000 12.000000
      vertex 133.000000 -2.174805 9.006637
      vertex 133.000000 -2.993363 9.825195
    endloop
  endfacet
  facet normal 1.000000 0.000000 0.000000
    outer loop
      vertex 133.000000 -10.000000 12.000000
      vertex 133.000000 -2.993363 9.825195
      vertex 133.000000 -3.518909 10.856637
    endloop
  endfacet
  facet normal 1.000000 0.000000 0.000000
    outer loop
      vertex 133.000000 -10.000000 12.000000
      vertex 133.000000 -3.518909 10.856637
      vertex 133.000000 -3.700000 12.000000
    endloop
  endfacet
  facet normal 1.000000 0.000000 0.000000
    outer loop
      vertex 133.000000 -10.000000 4.000000
      vertex 133.000000 10.000000 4.000000
      vertex 133.000000 -10.000000 12.000000
    endloop
  endfacet
  facet normal 0.987688 -0.156435 0.000000
    outer loop
      vertex 120.000000 7.000000 4.000000
      vertex 120.097887 7.618034 4.000000
      vertex 120.097887 7.618034 12.000000
    endloop
  endfacet
  facet normal 0.987688 -0.156435 0.000000
    outer loop
      vertex 120.000000 7.000000 12.000000
      vertex 120.000000 7.000000 4.000000
      vertex 120.097887 7.618034 12.000000
    endloop
  endfacet
  facet normal 0.987688 0.156435 -0.000000
    outer loop
      vertex 120.097887 6.381966 12.000000
      vertex 120.097887 6.381966 4.000000
      vertex 120.000000 7.000000 4.000000
    endloop
  endfacet
  facet normal 0.987688 0.156435 -0.000000
    outer loop
      vertex 120.000000 7.000000 12.000000
      vertex 120.097887 6.381966 12.000000
      vertex 120.000000 7.000000 4.000000
    endloop
  endfacet
  facet normal 0.891007 0.453990 -0.000000
    outer loop
      vertex 120.381966 5.824429 12.000000
      vertex 120.381966 5.824429 4.000000
      vertex 120.097887 6.381966 4.000000
    endloop
  endfacet
  facet normal 0.891007 0.453990 -0.000000
    outer loop
      vertex 120.097887 6.381966 12.000000
      vertex 120.381966 5.824429 12.000000
      vertex 120.097887 6.381966 4.000000
    endloop
  endfacet
  facet normal 0.707107 0.707107 -0.000000
    outer loop
      vertex 120.824429 5.381966 12.000000
      vertex 120.824429 5.381966 4.000000
      vertex 120.381966 5.824429 4.000000
    endloop
  endfacet
  facet normal 0.707107 0.707107 -0.000000
    outer loop
      vertex 120.381966 5.824429 12.000000
      vertex 120.824429 5.381966 12.000000
      vertex 120.381966 5.824429 4.000000
    endloop
  endfacet
  facet normal 0.453990 0.891007 -0.000000
    outer loop
      vertex 121.381966 5.097887 4.000000
      vertex 120.824429 5.381966 4.000000
      vertex 121.381966 5.097887 12.000000
    endloop
  endfacet
  facet normal 0.453990 0.891007 -0.000000
    outer loop
      vertex 121.381966 5.097887 12.000000
      vertex 120.824429 5.381966 4.000000
      vertex 120.824429 5.381966 12.000000
    endloop
  endfacet
  facet normal 0.156435 0.987688 -0.000000
    outer loop
      vertex 122.000000 5.000000 4.000000
      vertex 121.381966 5.097887 4.000000
      vertex 122.000000 5.000000 12.000000
    endloop
  endfacet
  facet normal 0.156435 0.987688 -0.000000
    outer loop
      vertex 122.000000 5.000000 12.000000
      vertex 121.381966 5.097887 4.000000
      vertex 121.381966 5.097887 12.000000
    endloop
  endfacet
  facet normal -0.156435 0.987688 -0.000000
    outer loop
      vertex 122.618034 5.097887 4.000000
      vertex 122.000000 5.000000 4.000000
      vertex 122.618034 5.097887 12.000000
    endloop
  endfacet
  facet normal -0.156435 0.987688 -0.000000
    outer loop
      vertex 122.618034 5.097887 12.000000
      vertex 122.000000 5.000000 4.000000
      vertex 122.000000 5.000000 12.000000
    endloop
  endfacet
  facet normal -0.453990 0.891007 -0.000000
    outer loop
      vertex 123.175571 5.381966 4.000000
      vertex 122.618034 5.097887 4.000000
      vertex 123.175571 5.381966 12.000000
    endloop
  endfacet
  facet normal -0.453990 0.891007 -0.000000
    outer loop
      vertex 123.175571 5.381966 12.000000
      vertex 122.618034 5.097887 4.000000
      vertex 122.618034 5.097887 12.000000
    endloop
  endfacet
  facet normal -0.707107 0.707107 -0.000000
    outer loop
      vertex 123.618034 5.824429 4.000000
      vertex 123.175571 5.381966 4.000000
      vertex 123.618034 5.824429 12.000000
    endloop
  endfacet
  facet normal -0.707107 0.707107 -0.000000
    outer loop
      vertex 123.618034 5.824429 12.000000
      vertex 123.175571 5.381966 4.000000
      vertex 123.175571 5.381966 12.000000
    endloop
  endfacet
  facet normal -0.891007 0.453990 -0.000000
    outer loop
      vertex 123.902113 6.381966 4.000000
      vertex 123.618034 5.824429 4.000000
      vertex 123.902113 6.381966 12.000000
    endloop
  endfacet
  facet normal -0.891007 0.453990 -0.000000
    outer loop
      vertex 123.902113 6.381966 12.000000
      vertex 123.618034 5.824429 4.000000
      vertex 123.618034 5.824429 12.000000
    endloop
  endfacet
  facet normal -0.987688 0.156435 -0.000000
    outer loop
      vertex 124.000000 7.000000 4.000000
      vertex 123.902113 6.381966 4.000000
      vertex 124.000000 7.000000 12.000000
    endloop
  endfacet
  facet normal -0.987688 0.156435 -0.000000
    outer loop
      vertex 124.000000 7.000000 12.000000
      vertex 123.902113 6.381966 4.000000
      vertex 123.902113 6.381966 12.000000
    endloop
  endfacet
  facet normal -0.987688 -0.156435 0.000000
    outer loop
      vertex 124.000000 7.000000 4.000000
      vertex 124.000000 7.000000 12.000000
      vertex 123.902113 7.618034 4.000000
    endloop
  endfacet
  facet normal -0.987688 -0.156435 0.000000
    outer loop
      vertex 123.902113 7.618034 4.000000
      vertex 124.000000 7.000000 12.000000
      vertex 123.902113 7.618034 12.000000
    endloop
  endfacet
  facet normal -0.891007 -0.453990 0.000000
    outer loop
      vertex 123.902113 7.618034 4.000000
      vertex 123.902113 7.618034 12.000000
      vertex 123.618034 8.175571 4.000000
    endloop
  endfacet
  facet normal -0.891007 -0.453990 -0.000000
    outer loop
      vertex 123.618034 8.175571 4.000000
      vertex 123.902113 7.618034 12.000000
      vertex 123.618034 8.175571 12.000000
    endloop
  endfacet
  facet normal -0.707107 -0.707107 -0.000000
    outer loop
      vertex 123.618034 8.175571 4.000000
      vertex 123.618034 8.175571 12.000000
      vertex 123.175571 8.618034 4.000000
    endloop
  endfacet
  facet normal -0.707107 -0.707107 -0.000000
    outer loop
      vertex 123.175571 8.618034 4.000000
      vertex 123.618034 8.175571 12.000000
      vertex 123.175571 8.618034 12.000000
    endloop
  endfacet
  facet normal -0.453990 -0.891007 0.000000
    outer loop
      vertex 122.618034 8.902113 4.000000
      vertex 123.175571 8.618034 4.000000
      vertex 123.175571 8.618034 12.000000
    endloop
  endfacet
  facet normal -0.453990 -0.891007 0.000000
    outer loop
      vertex 122.618034 8.902113 12.000000
      vertex 122.618034 8.902113 4.000000
      vertex 123.175571 8.618034 12.000000
    endloop
  endfacet
  facet normal -0.156435 -0.987688 0.000000
    outer loop
      vertex 122.000000 9.000000 4.000000
      vertex 122.618034 8.902113 4.000000
      vertex 122.618034 8.902113 12.000000
    endloop
  endfacet
  facet normal -0.156435 -0.987688 0.000000
    outer loop
      vertex 122.000000 9.000000 12.000000
      vertex 122.000000 9.000000 4.000000
      vertex 122.618034 8.902113 12.000000
    endloop
  endfacet
  facet normal 0.156435 -0.987688 0.000000
    outer loop
      vertex 121.381966 8.902113 4.000000
      vertex 122.000000 9.000000 4.000000
      vertex 122.000000 9.000000 12.000000
    endloop
  endfacet
  facet normal 0.156435 -0.987688 0.000000
    outer loop
      vertex 121.381966 8.902113 12.000000
      vertex 121.381966 8.902113 4.000000
      vertex 122.000000 9.000000 12.000000
    endloop
  endfacet
  facet normal 0.453990 -0.891007 0.000000
    outer loop
      vertex 120.824429 8.618034 4.000000
      vertex 121.381966 8.902113 4.000000
      vertex 121.381966 8.902113 12.000000
    endloop
  endfacet
  facet normal 0.453990 -0.891007 0.000000
    outer loop
      vertex 120.824429 8.618034 12.000000
      vertex 120.824429 8.618034 4.000000
      vertex 121.381966 8.902113 12.000000
    endloop
  endfacet
  facet normal 0.707107 -0.707107 0.000000
    outer loop
      vertex 120.381966 8.175571 4.000000
      vertex 120.824429 8.618034 4.000000
      vertex 120.824429 8.618034 12.000000
    endloop
  endfacet
  facet normal 0.707107 -0.707107 0.000000
    outer loop
      vertex 120.381966 8.175571 12.000000
      vertex 120.381966 8.175571 4.000000
      vertex 120.824429 8.618034 12.000000
    endloop
  endfacet
  facet normal 0.891007 -0.453990 0.000000
    outer loop
      vertex 120.097887 7.618034 4.000000
      vertex 120.381966 8.175571 4.000000
      vertex 120.381966 8.175571 12.000000
    endloop
  endfacet
  facet normal 0.891007 -0.453990 0.000000
    outer loop
      vertex 120.097887 7.618034 12.000000
      vertex 120.097887 7.618034 4.000000
      vertex 120.381966 8.175571 12.000000
    endloop
  endfacet
  facet normal 0.987688 0.156435 -0.000000
    outer loop
      vertex 127.097887 6.381966 12.000000
      vertex 127.097887 6.381966 4.000000
      vertex 127.000000 7.000000 4.000000
    endloop
  endfacet
  facet normal 0.987688 0.156435 -0.000000
    outer loop
      vertex 127.000000 7.000000 12.000000
      vertex 127.097887 6.381966 12.000000
      vertex 127.000000 7.000000 4.000000
    endloop
  endfacet
  facet normal 0.987688 -0.156435 0.000000
    outer loop
      vertex 127.000000 7.000000 4.000000
      vertex 127.097887 7.618034 4.000000
      vertex 127.097887 7.618034 12.000000
    endloop
  endfacet
  facet normal 0.987688 -0.156435 0.000000
    outer loop
      vertex 127.000000 7.000000 12.000000
      vertex 127.000000 7.000000 4.000000
      vertex 127.097887 7.618034 12.000000
    endloop
  endfacet
  facet normal 0.891007 0.453990 -0.000000
    outer loop
      vertex 127.381966 5.824429 12.000000
      vertex 127.381966 5.824429 4.000000
      vertex 127.097887 6.381966 4.000000
    endloop
  endfacet
  facet normal 0.891007 0.453990 -0.000000
    outer loop
      vertex 127.097887 6.381966 12.000000
      vertex 127.381966 5.824429 12.000000
      vertex 127.097887 6.381966 4.000000
    endloop
  endfacet
  facet normal 0.707107 0.707107 -0.000000
    outer loop
      vertex 127.824429 5.381966 12.000000
      vertex 127.824429 5.381966 4.000000
      vertex 127.381966 5.824429 4.000000
    endloop
  endfacet
  facet normal 0.707107 0.707107 -0.000000
    outer loop
      vertex 127.381966 5.824429 12.000000
      vertex 127.824429 5.381966 12.000000
      vertex 127.381966 5.824429 4.000000
    endloop
  endfacet
  facet normal 0.453990 0.891007 -0.000000
    outer loop
      vertex 128.381966 5.097887 4.000000
      vertex 127.824429 5.381966 4.000000
      vertex 128.381966 5.097887 12.000000
    endloop
  endfacet
  facet normal 0.453990 0.891007 -0.000000
    outer loop
      vertex 128.381966 5.097887 12.000000
      vertex 127.824429 5.381966 4.000000
      vertex 127.824429 5.381966 12.000000
    endloop
  endfacet
  facet normal 0.156435 0.987688 -0.000000
    outer loop
      vertex 129.000000 5.000000 4.000000
      vertex 128.381966 5.097887 4.000000
      vertex 129.000000 5.000000 12.000000
    endloop
  endfacet
  facet normal 0.156435 0.987688 -0.000000
    outer loop
      vertex 129.000000 5.000000 12.000000
      vertex 128.381966 5.097887 4.000000
      vertex 128.381966 5.097887 12.000000
    endloop
  endfacet
  facet normal -0.156435 0.987688 -0.000000
    outer loop
      vertex 129.618034 5.097887 4.000000
      vertex 129.000000 5.000000 4.000000
      vertex 129.618034 5.097887 12.000000
    endloop
  endfacet
  facet normal -0.156435 0.987688 -0.000000
    outer loop
      vertex 129.618034 5.097887 12.000000
      vertex 129.000000 5.000000 4.000000
      vertex 129.000000 5.000000 12.000000
    endloop
  endfacet
  facet normal -0.453990 0.891007 -0.000000
    outer loop
      vertex 130.175571 5.381966 4.000000
      vertex 129.618034 5.097887 4.000000
      vertex 130.175571 5.381966 12.000000
    endloop
  endfacet
  facet normal -0.453990 0.891007 -0.000000
    outer loop
      vertex 130.175571 5.381966 12.000000
      vertex 129.618034 5.097887 4.000000
      vertex 129.618034 5.097887 12.000000
    endloop
  endfacet
  facet normal -0.707107 0.707107 -0.000000
    outer loop
      vertex 130.618034 5.824429 4.000000
      vertex 130.175571 5.381966 4.000000
      vertex 130.618034 5.824429 12.000000
    endloop
  endfacet
  facet normal -0.707107 0.707107 -0.000000
    outer loop
      vertex 130.618034 5.824429 12.000000
      vertex 130.175571 5.381966 4.000000
      vertex 130.175571 5.381966 12.000000
    endloop
  endfacet
  facet normal -0.891007 0.453990 -0.000000
    outer loop
      vertex 130.902113 6.381966 4.000000
      vertex 130.618034 5.824429 4.000000
      vertex 130.902113 6.381966 12.000000
    endloop
  endfacet
  facet normal -0.891007 0.453990 -0.000000
    outer loop
      vertex 130.902113 6.381966 12.000000
      vertex 130.618034 5.824429 4.000000
      vertex 130.618034 5.824429 12.000000
    endloop
  endfacet
  facet normal -0.987688 0.156435 -0.000000
    outer loop
      vertex 131.000000 7.000000 4.000000
      vertex 130.902113 6.381966 4.000000
      vertex 131.000000 7.000000 12.000000
    endloop
  endfacet
  facet normal -0.987688 0.156435 -0.000000
    outer loop
      vertex 131.000000 7.000000 12.000000
      vertex 130.902113 6.381966 4.000000
      vertex 130.902113 6.381966 12.000000
    endloop
  endfacet
  facet normal -0.987688 -0.156435 0.000000
    outer loop
      vertex 131.000000 7.000000 4.000000
      vertex 131.000000 7.000000 12.000000
      vertex 130.902113 7.618034 4.000000
    endloop
  endfacet
  facet normal -0.987688 -0.156435 0.000000
    outer loop
      vertex 130.902113 7.618034 4.000000
      vertex 131.000000 7.000000 12.000000
      vertex 130.902113 7.618034 12.000000
    endloop
  endfacet
  facet normal -0.891007 -0.453990 0.000000
    outer loop
      vertex 130.902113 7.618034 4.000000
      vertex 130.902113 7.618034 12.000000
      vertex 130.618034 8.175571 4.000000
    endloop
  endfacet
  facet normal -0.891007 -0.453990 -0.000000
    outer loop
      vertex 130.618034 8.175571 4.000000
      vertex 130.902113 7.618034 12.000000
      vertex 130.618034 8.175571 12.000000
    endloop
  endfacet
  facet normal -0.707107 -0.707107 -0.000000
    outer loop
      vertex 130.618034 8.175571 4.000000
      vertex 130.618034 8.175571 12.000000
      vertex 130.175571 8.618034 4.000000
    endloop
  endfacet
  facet normal -0.707107 -0.707107 -0.000000
    outer loop
      vertex 130.175571 8.618034 4.000000
      vertex 130.618034 8.175571 12.000000
      vertex 130.175571 8.618034 12.000000
    endloop
  endfacet
  facet normal -0.453990 -0.891007 0.000000
    outer loop
      vertex 129.618034 8.902113 4.000000
      vertex 130.175571 8.618034 4.000000
      vertex 130.175571 8.618034 12.000000
    endloop
  endfacet
  facet normal -0.453990 -0.891007 0.000000
    outer loop
      vertex 129.618034 8.902113 12.000000
      vertex 129.618034 8.902113 4.000000
      vertex 130.175571 8.618034 12.000000
    endloop
  endfacet
  facet normal -0.156435 -0.987688 0.000000
    outer loop
      vertex 129.000000 9.000000 4.000000
      vertex 129.618034 8.902113 4.000000
      vertex 129.618034 8.902113 12.000000
    endloop
  endfacet
  facet normal -0.156435 -0.987688 0.000000
    outer loop
      vertex 129.000000 9.000000 12.000000
      vertex 129.000000 9.000000 4.000000
      vertex 129.618034 8.902113 12.000000
    endloop
  endfacet
  facet normal 0.156435 -0.987688 0.000000
    outer loop
      vertex 128.381966 8.902113 4.000000
      vertex 129.000000 9.000000 4.000000
      vertex 129.000000 9.000000 12.000000
    endloop
  endfacet
  facet normal 0.156435 -0.987688 0.000000
    outer loop
      vertex 128.381966 8.902113 12.000000
      vertex 128.381966 8.902113 4.000000
      vertex 129.000000 9.000000 12.000000
    endloop
  endfacet
  facet normal 0.453990 -0.891007 0.000000
    outer loop
      vertex 127.824429 8.618034 4.000000
      vertex 128.381966 8.902113 4.000000
      vertex 128.381966 8.902113 12.000000
    endloop
  endfacet
  facet normal 0.453990 -0.891007 0.000000
    outer loop
      vertex 127.824429 8.618034 12.000000
      vertex 127.824429 8.618034 4.000000
      vertex 128.381966 8.902113 12.000000
    endloop
  endfacet
  facet normal 0.707107 -0.707107 0.000000
    outer loop
      vertex 127.381966 8.175571 4.000000
      vertex 127.824429 8.618034 4.000000
      vertex 127.824429 8.618034 12.000000
    endloop
  endfacet
  facet normal 0.707107 -0.707107 0.000000
    outer loop
      vertex 127.381966 8.175571 12.000000
      vertex 127.381966 8.175571 4.000000
      vertex 127.824429 8.618034 12.000000
    endloop
  endfacet
  facet normal 0.891007 -0.453990 0.000000
    outer loop
      vertex 127.097887 7.618034 4.000000
      vertex 127.381966 8.175571 4.000000
      vertex 127.381966 8.175571 12.000000
    endloop
  endfacet
  facet normal 0.891007 -0.453990 0.000000
    outer loop
      vertex 127.097887 7.618034 12.000000
      vertex 127.097887 7.618034 4.000000
      vertex 127.381966 8.175571 12.000000
    endloop
  endfacet
  facet normal 0.987688 -0.156435 0.000000
    outer loop
      vertex 120.097887 -6.381966 12.000000
      vertex 120.000000 -7.000000 12.000000
      vertex 120.000000 -7.000000 4.000000
    endloop
  endfacet
  facet normal 0.987688 -0.156435 0.000000
    outer loop
      vertex 120.097887 -6.381966 4.000000
      vertex 120.097887 -6.381966 12.000000
      vertex 120.000000 -7.000000 4.000000
    endloop
  endfacet
  facet normal 0.987688 0.156435 -0.000000
    outer loop
      vertex 120.000000 -7.000000 4.000000
      vertex 120.000000 -7.000000 12.000000
      vertex 120.097887 -7.618034 12.000000
    endloop
  endfacet
  facet normal 0.987688 0.156435 -0.000000
    outer loop
      vertex 120.097887 -7.618034 4.000000
      vertex 120.000000 -7.000000 4.000000
      vertex 120.097887 -7.618034 12.000000
    endloop
  endfacet
  facet normal 0.891007 0.453990 -0.000000
    outer loop
      vertex 120.097887 -7.618034 4.000000
      vertex 120.097887 -7.618034 12.000000
      vertex 120.381966 -8.175571 12.000000
    endloop
  endfacet
  facet normal 0.891007 0.453990 0.000000
    outer loop
      vertex 120.381966 -8.175571 4.000000
      vertex 120.097887 -7.618034 4.000000
      vertex 120.381966 -8.175571 12.000000
    endloop
  endfacet
  facet normal 0.707107 0.707107 0.000000
    outer loop
      vertex 120.381966 -8.175571 4.000000
      vertex 120.381966 -8.175571 12.000000
      vertex 120.824429 -8.618034 12.000000
    endloop
  endfacet
  facet normal 0.707107 0.707107 0.000000
    outer loop
      vertex 120.824429 -8.618034 4.000000
      vertex 120.381966 -8.175571 4.000000
      vertex 120.824429 -8.618034 12.000000
    endloop
  endfacet
  facet normal 0.453990 0.891007 -0.000000
    outer loop
      vertex 120.824429 -8.618034 12.000000
      vertex 121.381966 -8.902113 12.000000
      vertex 120.824429 -8.618034 4.000000
    endloop
  endfacet
  facet normal 0.453990 0.891007 0.000000
    outer loop
      vertex 120.824429 -8.618034 4.000000
      vertex 121.381966 -8.902113 12.000000
      vertex 121.381966 -8.902113 4.000000
    endloop
  endfacet
  facet normal 0.156435 0.987688 -0.000000
    outer loop
      vertex 121.381966 -8.902113 12.000000
      vertex 122.000000 -9.000000 12.000000
      vertex 121.381966 -8.902113 4.000000
    endloop
  endfacet
  facet normal 0.156435 0.987688 0.000000
    outer loop
      vertex 121.381966 -8.902113 4.000000
      vertex 122.000000 -9.000000 12.000000
      vertex 122.000000 -9.000000 4.000000
    endloop
  endfacet
  facet normal -0.156435 0.987688 0.000000
    outer loop
      vertex 122.000000 -9.000000 12.000000
      vertex 122.618034 -8.902113 12.000000
      vertex 122.000000 -9.000000 4.000000
    endloop
  endfacet
  facet normal -0.156435 0.987688 0.000000
    outer loop
      vertex 122.000000 -9.000000 4.000000
      vertex 122.618034 -8.902113 12.000000
      vertex 122.618034 -8.902113 4.000000
    endloop
  endfacet
  facet normal -0.453990 0.891007 0.000000
    outer loop
      vertex 122.618034 -8.902113 12.000000
      vertex 123.175571 -8.618034 12.000000
      vertex 122.618034 -8.902113 4.000000
    endloop
  endfacet
  facet normal -0.453990 0.891007 0.000000
    outer loop
      vertex 122.618034 -8.902113 4.000000
      vertex 123.175571 -8.618034 12.000000
      vertex 123.175571 -8.618034 4.000000
    endloop
  endfacet
  facet normal -0.707107 0.707107 0.000000
    outer loop
      vertex 123.175571 -8.618034 12.000000
      vertex 123.618034 -8.175571 12.000000
      vertex 123.175571 -8.618034 4.000000
    endloop
  endfacet
  facet normal -0.707107 0.707107 0.000000
    outer loop
      vertex 123.175571 -8.618034 4.000000
      vertex 123.618034 -8.175571 12.000000
      vertex 123.618034 -8.175571 4.000000
    endloop
  endfacet
  facet normal -0.891007 0.453990 0.000000
    outer loop
      vertex 123.618034 -8.175571 12.000000
      vertex 123.902113 -7.618034 12.000000
      vertex 123.618034 -8.175571 4.000000
    endloop
  endfacet
  facet normal -0.891007 0.453990 -0.000000
    outer loop
      vertex 123.618034 -8.175571 4.000000
      vertex 123.902113 -7.618034 12.000000
      vertex 123.902113 -7.618034 4.000000
    endloop
  endfacet
  facet normal -0.987688 0.156435 -0.000000
    outer loop
      vertex 123.902113 -7.618034 12.000000
      vertex 124.000000 -7.000000 12.000000
      vertex 123.902113 -7.618034 4.000000
    endloop
  endfacet
  facet normal -0.987688 0.156435 -0.000000
    outer loop
      vertex 123.902113 -7.618034 4.000000
      vertex 124.000000 -7.000000 12.000000
      vertex 124.000000 -7.000000 4.000000
    endloop
  endfacet
  facet normal -0.987688 -0.156435 0.000000
    outer loop
      vertex 123.902113 -6.381966 12.000000
      vertex 123.902113 -6.381966 4.000000
      vertex 124.000000 -7.000000 12.000000
    endloop
  endfacet
  facet normal -0.987688 -0.156435 0.000000
    outer loop
      vertex 124.000000 -7.000000 12.000000
      vertex 123.902113 -6.381966 4.000000
      vertex 124.000000 -7.000000 4.000000
    endloop
  endfacet
  facet normal -0.891007 -0.453990 0.000000
    outer loop
      vertex 123.618034 -5.824429 12.000000
      vertex 123.618034 -5.824429 4.000000
      vertex 123.902113 -6.381966 12.000000
    endloop
  endfacet
  facet normal -0.891007 -0.453990 0.000000
    outer loop
      vertex 123.902113 -6.381966 12.000000
      vertex 123.618034 -5.824429 4.000000
      vertex 123.902113 -6.381966 4.000000
    endloop
  endfacet
  facet normal -0.707107 -0.707107 0.000000
    outer loop
      vertex 123.175571 -5.381966 12.000000
      vertex 123.175571 -5.381966 4.000000
      vertex 123.618034 -5.824429 12.000000
    endloop
  endfacet
  facet normal -0.707107 -0.707107 0.000000
    outer loop
      vertex 123.618034 -5.824429 12.000000
      vertex 123.175571 -5.381966 4.000000
      vertex 123.618034 -5.824429 4.000000
    endloop
  endfacet
  facet normal -0.453990 -0.891007 0.000000
    outer loop
      vertex 123.175571 -5.381966 12.000000
      vertex 122.618034 -5.097887 12.000000
      vertex 122.618034 -5.097887 4.000000
    endloop
  endfacet
  facet normal -0.453990 -0.891007 0.000000
    outer loop
      vertex 123.175571 -5.381966 4.000000
      vertex 123.175571 -5.381966 12.000000
      vertex 122.618034 -5.097887 4.000000
    endloop
  endfacet
  facet normal -0.156435 -0.987688 0.000000
    outer loop
      vertex 122.618034 -5.097887 12.000000
      vertex 122.000000 -5.000000 12.000000
      vertex 122.000000 -5.000000 4.000000
    endloop
  endfacet
  facet normal -0.156435 -0.987688 0.000000
    outer loop
      vertex 122.618034 -5.097887 4.000000
      vertex 122.618034 -5.097887 12.000000
      vertex 122.000000 -5.000000 4.000000
    endloop
  endfacet
  facet normal 0.156435 -0.987688 0.000000
    outer loop
      vertex 122.000000 -5.000000 12.000000
      vertex 121.381966 -5.097887 12.000000
      vertex 121.381966 -5.097887 4.000000
    endloop
  endfacet
  facet normal 0.156435 -0.987688 0.000000
    outer loop
      vertex 122.000000 -5.000000 4.000000
      vertex 122.000000 -5.000000 12.000000
      vertex 121.381966 -5.097887 4.000000
    endloop
  endfacet
  facet normal 0.453990 -0.891007 0.000000
    outer loop
      vertex 121.381966 -5.097887 12.000000
      vertex 120.824429 -5.381966 12.000000
      vertex 120.824429 -5.381966 4.000000
    endloop
  endfacet
  facet normal 0.453990 -0.891007 0.000000
    outer loop
      vertex 121.381966 -5.097887 4.000000
      vertex 121.381966 -5.097887 12.000000
      vertex 120.824429 -5.381966 4.000000
    endloop
  endfacet
  facet normal 0.707107 -0.707107 0.000000
    outer loop
      vertex 120.824429 -5.381966 12.000000
      vertex 120.381966 -5.824429 12.000000
      vertex 120.381966 -5.824429 4.000000
    endloop
  endfacet
  facet normal 0.707107 -0.707107 0.000000
    outer loop
      vertex 120.824429 -5.381966 4.000000
      vertex 120.824429 -5.381966 12.000000
      vertex 120.381966 -5.824429 4.000000
    endloop
  endfacet
  facet normal 0.891007 -0.453990 0.000000
    outer loop
      vertex 120.381966 -5.824429 12.000000
      vertex 120.097887 -6.381966 12.000000
      vertex 120.097887 -6.381966 4.000000
    endloop
  endfacet
  facet normal 0.891007 -0.453990 0.000000
    outer loop
      vertex 120.381966 -5.824429 4.000000
      vertex 120.381966 -5.824429 12.000000
      vertex 120.097887 -6.381966 4.000000
    endloop
  endfacet
  facet normal 0.987688 -0.156435 0.000000
    outer loop
      vertex 127.097887 -6.381966 12.000000
      vertex 127.000000 -7.000000 12.000000
      vertex 127.000000 -7.000000 4.000000
    endloop
  endfacet
  facet normal 0.987688 -0.156435 0.000000
    outer loop
      vertex 127.097887 -6.381966 4.000000
      vertex 127.097887 -6.381966 12.000000
      vertex 127.000000 -7.000000 4.000000
    endloop
  endfacet
  facet normal 0.987688 0.156435 -0.000000
    outer loop
      vertex 127.000000 -7.000000 4.000000
      vertex 127.000000 -7.000000 12.000000
      vertex 127.097887 -7.618034 12.000000
    endloop
  endfacet
  facet normal 0.987688 0.156435 -0.000000
    outer loop
      vertex 127.097887 -7.618034 4.000000
      vertex 127.000000 -7.000000 4.000000
      vertex 127.097887 -7.618034 12.000000
    endloop
  endfacet
  facet normal 0.891007 0.453990 -0.000000
    outer loop
      vertex 127.097887 -7.618034 4.000000
      vertex 127.097887 -7.618034 12.000000
      vertex 127.381966 -8.175571 12.000000
    endloop
  endfacet
  facet normal 0.891007 0.453990 0.000000
    outer loop
      vertex 127.381966 -8.175571 4.000000
      vertex 127.097887 -7.618034 4.000000
      vertex 127.381966 -8.175571 12.000000
    endloop
  endfacet
  facet normal 0.707107 0.707107 0.000000
    outer loop
      vertex 127.381966 -8.175571 4.000000
      vertex 127.381966 -8.175571 12.000000
      vertex 127.824429 -8.618034 12.000000
    endloop
  endfacet
  facet normal 0.707107 0.707107 0.000000
    outer loop
      vertex 127.824429 -8.618034 4.000000
      vertex 127.381966 -8.175571 4.000000
      vertex 127.824429 -8.618034 12.000000
    endloop
  endfacet
  facet normal 0.453990 0.891007 -0.000000
    outer loop
      vertex 127.824429 -8.618034 12.000000
      vertex 128.381966 -8.902113 12.000000
      vertex 127.824429 -8.618034 4.000000
    endloop
  endfacet
  facet normal 0.453990 0.891007 0.000000
    outer loop
      vertex 127.824429 -8.618034 4.000000
      vertex 128.381966 -8.902113 12.000000
      vertex 128.381966 -8.902113 4.000000
    endloop
  endfacet
  facet normal 0.156435 0.987688 -0.000000
    outer loop
      vertex 128.381966 -8.902113 12.000000
      vertex 129.000000 -9.000000 12.000000
      vertex 128.381966 -8.902113 4.000000
    endloop
  endfacet
  facet normal 0.156435 0.987688 0.000000
    outer loop
      vertex 128.381966 -8.902113 4.000000
      vertex 129.000000 -9.000000 12.000000
      vertex 129.000000 -9.000000 4.000000
    endloop
  endfacet
  facet normal -0.156435 0.987688 0.000000
    outer loop
      vertex 129.000000 -9.000000 12.000000
      vertex 129.618034 -8.902113 12.000000
      vertex 129.000000 -9.000000 4.000000
    endloop
  endfacet
  facet normal -0.156435 0.987688 0.000000
    outer loop
      vertex 129.000000 -9.000000 4.000000
      vertex 129.618034 -8.902113 12.000000
      vertex 129.618034 -8.902113 4.000000
    endloop
  endfacet
  facet normal -0.453990 0.891007 0.000000
    outer loop
      vertex 129.618034 -8.902113 12.000000
      vertex 130.175571 -8.618034 12.000000
      vertex 129.618034 -8.902113 4.000000
    endloop
  endfacet
  facet normal -0.453990 0.891007 0.000000
    outer loop
      vertex 129.618034 -8.902113 4.000000
      vertex 130.175571 -8.618034 12.000000
      vertex 130.175571 -8.618034 4.000000
    endloop
  endfacet
  facet normal -0.707107 0.707107 0.000000
    outer loop
      vertex 130.175571 -8.618034 12.000000
      vertex 130.618034 -8.175571 12.000000
      vertex 130.175571 -8.618034 4.000000
    endloop
  endfacet
  facet normal -0.707107 0.707107 0.000000
    outer loop
      vertex 130.175571 -8.618034 4.000000
      vertex 130.618034 -8.175571 12.000000
      vertex 130.618034 -8.175571 4.000000
    endloop
  endfacet
  facet normal -0.891007 0.453990 0.000000
    outer loop
      vertex 130.618034 -8.175571 12.000000
      vertex 130.902113 -7.618034 12.000000
      vertex 130.618034 -8.175571 4.000000
    endloop
  endfacet
  facet normal -0.891007 0.453990 -0.000000
    outer loop
      vertex 130.618034 -8.175571 4.000000
      vertex 130.902113 -7.618034 12.000000
      vertex 130.902113 -7.618034 4.000000
    endloop
  endfacet
  facet normal -0.987688 0.156435 -0.000000
    outer loop
      vertex 130.902113 -7.618034 12.000000
      vertex 131.000000 -7.000000 12.000000
      vertex 130.902113 -7.618034 4.000000
    endloop
  endfacet
  facet normal -0.987688 0.156435 -0.000000
    outer loop
      vertex 130.902113 -7.618034 4.000000
      vertex 131.000000 -7.000000 12.000000
      vertex 131.000000 -7.000000 4.000000
    endloop
  endfacet
  facet normal -0.987688 -0.156435 0.000000
    outer loop
      vertex 130.902113 -6.381966 12.000000
      vertex 130.902113 -6.381966 4.000000
      vertex 131.000000 -7.000000 12.000000
    endloop
  endfacet
  facet normal -0.987688 -0.156435 0.000000
    outer loop
      vertex 131.000000 -7.000000 12.000000
      vertex 130.902113 -6.381966 4.000000
      vertex 131.000000 -7.000000 4.000000
    endloop
  endfacet
  facet normal -0.891007 -0.453990 0.000000
    outer loop
      vertex 130.618034 -5.824429 12.000000
      vertex 130.618034 -5.824429 4.000000
      vertex 130.902113 -6.381966 12.000000
    endloop
  endfacet
  facet normal -0.891007 -0.453990 0.000000
    outer loop
      vertex 130.902113 -6.381966 12.000000
      vertex 130.618034 -5.824429 4.000000
      vertex 130.902113 -6.381966 4.000000
    endloop
  endfacet
  facet normal -0.707107 -0.707107 0.000000
    outer loop
      vertex 130.175571 -5.381966 12.000000
      vertex 130.175571 -5.381966 4.000000
      vertex 130.618034 -5.824429 12.000000
    endloop
  endfacet
  facet normal -0.707107 -0.707107 0.000000
    outer loop
      vertex 130.618034 -5.824429 12.000000
      vertex 130.175571 -5.381966 4.000000
      vertex 130.618034 -5.824429 4.000000
    endloop
  endfacet
  facet normal -0.453990 -0.891007 0.000000
    outer loop
      vertex 130.175571 -5.381966 12.000000
      vertex 129.618034 -5.097887 12.000000
      vertex 129.618034 -5.097887 4.000000
    endloop
  endfacet
  facet normal -0.453990 -0.891007 0.000000
    outer loop
      vertex 130.175571 -5.381966 4.000000
      vertex 130.175571 -5.381966 12.000000
      vertex 129.618034 -5.097887 4.000000
    endloop
  endfacet
  facet normal -0.156435 -0.987688 0.000000
    outer loop
      vertex 129.618034 -5.097887 12.000000
      vertex 129.000000 -5.000000 12.000000
      vertex 129.000000 -5.000000 4.000000
    endloop
  endfacet
  facet normal -0.156435 -0.987688 0.000000
    outer loop
      vertex 129.618034 -5.097887 4.000000
      vertex 129.618034 -5.097887 12.000000
      vertex 129.000000 -5.000000 4.000000
    endloop
  endfacet
  facet normal 0.156435 -0.987688 0.000000
    outer loop
      vertex 129.000000 -5.000000 12.000000
      vertex 128.381966 -5.097887 12.000000
      vertex 128.381966 -5.097887 4.000000
    endloop
  endfacet
  facet normal 0.156435 -0.987688 0.000000
    outer loop
      vertex 129.000000 -5.000000 4.000000
      vertex 129.000000 -5.000000 12.000000
      vertex 128.381966 -5.097887 4.000000
    endloop
  endfacet
  facet normal 0.453990 -0.891007 0.000000
    outer loop
      vertex 128.381966 -5.097887 12.000000
      vertex 127.824429 -5.381966 12.000000
      vertex 127.824429 -5.381966 4.000000
    endloop
  endfacet
  facet normal 0.453990 -0.891007 0.000000
    outer loop
      vertex 128.381966 -5.097887 4.000000
      vertex 128.381966 -5.097887 12.000000
      vertex 127.824429 -5.381966 4.000000
    endloop
  endfacet
  facet normal 0.707107 -0.707107 0.000000
    outer loop
      vertex 127.824429 -5.381966 12.000000
      vertex 127.381966 -5.824429 12.000000
      vertex 127.381966 -5.824429 4.000000
    endloop
  endfacet
  facet normal 0.707107 -0.707107 0.000000
    outer loop
      vertex 127.824429 -5.381966 4.000000
      vertex 127.824429 -5.381966 12.000000
      vertex 127.381966 -5.824429 4.000000
    endloop
  endfacet
  facet normal 0.891007 -0.453990 0.000000
    outer loop
      vertex 127.381966 -5.824429 12.000000
      vertex 127.097887 -6.381966 12.000000
      vertex 127.097887 -6.381966 4.000000
    endloop
  endfacet
  facet normal 0.891007 -0.453990 0.000000
    outer loop
      vertex 127.381966 -5.824429 4.000000
      vertex 127.381966 -5.824429 12.000000
      vertex 127.097887 -6.381966 4.000000
    endloop
  endfacet
endsolid OpenSCAD_Model
