solid OpenSCAD_Model
  facet normal -0.999652 0.026397 -0.000000
    outer loop
      vertex 393.446912 -0.097472 3.200000
      vertex 393.453133 0.138112 3.200000
      vertex 393.446912 -0.097472 -12.800000
    endloop
  endfacet
  facet normal -0.999652 0.026397 -0.000000
    outer loop
      vertex 393.446912 -0.097472 -12.800000
      vertex 393.453133 0.138112 3.200000
      vertex 393.453133 0.138112 -12.800000
    endloop
  endfacet
  facet normal 0.000000 0.000000 1.000000
    outer loop
      vertex 393.453133 -0.333056 3.200000
      vertex 393.497600 -0.474368 3.200000
      vertex 393.618330 -0.578048 3.200000
    endloop
  endfacet
  facet normal 0.000000 0.000000 1.000000
    outer loop
      vertex 394.240640 -0.898304 3.200000
      vertex 393.453133 -0.333056 3.200000
      vertex 393.853338 -0.700352 3.200000
    endloop
  endfacet
  facet normal 0.000000 0.000000 1.000000
    outer loop
      vertex 393.853338 -0.700352 3.200000
      vertex 393.453133 -0.333056 3.200000
      vertex 393.618330 -0.578048 3.200000
    endloop
  endfacet
  facet normal 0.000000 0.000000 1.000000
    outer loop
      vertex 394.818483 -1.227968 3.200000
      vertex 393.453133 -0.333056 3.200000
      vertex 394.240640 -0.898304 3.200000
    endloop
  endfacet
  facet normal 0.000000 0.000000 1.000000
    outer loop
      vertex 395.624883 -1.746368 3.200000
      vertex 393.453133 -0.333056 3.200000
      vertex 394.818483 -1.227968 3.200000
    endloop
  endfacet
  facet normal -0.000000 -0.000000 1.000000
    outer loop
      vertex 398.921111 -2.456115 3.200000
      vertex 393.453133 -0.333056 3.200000
      vertex 395.624883 -1.746368 3.200000
    endloop
  endfacet
  facet normal -0.000000 0.000000 1.000000
    outer loop
      vertex 398.921111 -2.456115 3.200000
      vertex 395.624883 -1.746368 3.200000
      vertex 396.698086 -2.509760 3.200000
    endloop
  endfacet
  facet normal -0.000000 0.000000 1.000000
    outer loop
      vertex 398.921111 2.248662 3.200000
      vertex 393.453133 -0.333056 3.200000
      vertex 398.921111 -2.456115 3.200000
    endloop
  endfacet
  facet normal 0.000000 0.000000 1.000000
    outer loop
      vertex 396.698086 2.314624 3.200000
      vertex 393.453133 -0.333056 3.200000
      vertex 398.921111 2.248662 3.200000
    endloop
  endfacet
  facet normal -0.000000 0.000000 1.000000
    outer loop
      vertex 395.624653 1.551424 3.200000
      vertex 393.453133 -0.333056 3.200000
      vertex 396.698086 2.314624 3.200000
    endloop
  endfacet
  facet normal 0.000000 -0.000000 1.000000
    outer loop
      vertex 394.818253 1.033216 3.200000
      vertex 393.453133 -0.333056 3.200000
      vertex 395.624653 1.551424 3.200000
    endloop
  endfacet
  facet normal 0.000000 -0.000000 1.000000
    outer loop
      vertex 394.240179 0.703360 3.200000
      vertex 393.453133 -0.333056 3.200000
      vertex 394.818253 1.033216 3.200000
    endloop
  endfacet
  facet normal 0.000000 -0.000000 1.000000
    outer loop
      vertex 393.852877 0.505600 3.200000
      vertex 393.453133 -0.333056 3.200000
      vertex 394.240179 0.703360 3.200000
    endloop
  endfacet
  facet normal 0.000000 -0.000000 1.000000
    outer loop
      vertex 393.618099 0.383104 3.200000
      vertex 393.453133 -0.333056 3.200000
      vertex 393.852877 0.505600 3.200000
    endloop
  endfacet
  facet normal 0.000000 -0.000000 1.000000
    outer loop
      vertex 393.497600 0.279424 3.200000
      vertex 393.453133 -0.333056 3.200000
      vertex 393.618099 0.383104 3.200000
    endloop
  endfacet
  facet normal 0.000000 -0.000000 1.000000
    outer loop
      vertex 393.453133 0.138112 3.200000
      vertex 393.453133 -0.333056 3.200000
      vertex 393.497600 0.279424 3.200000
    endloop
  endfacet
  facet normal 0.000000 0.000000 1.000000
    outer loop
      vertex 393.446912 -0.097472 3.200000
      vertex 393.453133 -0.333056 3.200000
      vertex 393.453133 0.138112 3.200000
    endloop
  endfacet
  facet normal -0.999652 -0.026397 0.000000
    outer loop
      vertex 393.446912 -0.097472 3.200000
      vertex 393.446912 -0.097472 -12.800000
      vertex 393.453133 -0.333056 3.200000
    endloop
  endfacet
  facet normal -0.999652 -0.026397 0.000000
    outer loop
      vertex 393.453133 -0.333056 3.200000
      vertex 393.446912 -0.097472 -12.800000
      vertex 393.453133 -0.333056 -12.800000
    endloop
  endfacet
  facet normal -0.000000 0.000000 -1.000000
    outer loop
      vertex 393.497600 0.279424 -12.800000
      vertex 393.618099 0.383104 -12.800000
      vertex 393.453133 0.138112 -12.800000
    endloop
  endfacet
  facet normal 0.000000 0.000000 -1.000000
    outer loop
      vertex 393.453133 0.138112 -12.800000
      vertex 393.618099 0.383104 -12.800000
      vertex 393.852877 0.505600 -12.800000
    endloop
  endfacet
  facet normal 0.000000 0.000000 -1.000000
    outer loop
      vertex 393.453133 0.138112 -12.800000
      vertex 393.852877 0.505600 -12.800000
      vertex 394.240179 0.703360 -12.800000
    endloop
  endfacet
  facet normal 0.000000 0.000000 -1.000000
    outer loop
      vertex 393.453133 0.138112 -12.800000
      vertex 394.240179 0.703360 -12.800000
      vertex 394.818253 1.033216 -12.800000
    endloop
  endfacet
  facet normal -0.000000 0.000000 -1.000000
    outer loop
      vertex 394.818253 1.033216 -12.800000
      vertex 395.624653 1.551424 -12.800000
      vertex 393.453133 0.138112 -12.800000
    endloop
  endfacet
  facet normal 0.000000 0.000000 -1.000000
    outer loop
      vertex 395.624653 1.551424 -12.800000
      vertex 396.698086 2.314624 -12.800000
      vertex 404.480000 2.083719 -12.800000
    endloop
  endfacet
  facet normal -0.000000 0.000000 -1.000000
    outer loop
      vertex 395.624653 1.551424 -12.800000
      vertex 404.480000 2.083719 -12.800000
      vertex 393.453133 0.138112 -12.800000
    endloop
  endfacet
  facet normal -0.000000 0.000000 -1.000000
    outer loop
      vertex 393.453133 0.138112 -12.800000
      vertex 404.480000 2.083719 -12.800000
      vertex 404.480000 -2.321970 -12.800000
    endloop
  endfacet
  facet normal 0.000000 0.000000 -1.000000
    outer loop
      vertex 393.453133 0.138112 -12.800000
      vertex 404.480000 -2.321970 -12.800000
      vertex 396.698086 -2.509760 -12.800000
    endloop
  endfacet
  facet normal 0.000000 0.000000 -1.000000
    outer loop
      vertex 393.453133 0.138112 -12.800000
      vertex 396.698086 -2.509760 -12.800000
      vertex 395.624883 -1.746368 -12.800000
    endloop
  endfacet
  facet normal 0.000000 0.000000 -1.000000
    outer loop
      vertex 393.453133 0.138112 -12.800000
      vertex 395.624883 -1.746368 -12.800000
      vertex 394.818483 -1.227968 -12.800000
    endloop
  endfacet
  facet normal 0.000000 0.000000 -1.000000
    outer loop
      vertex 394.818483 -1.227968 -12.800000
      vertex 394.240640 -0.898304 -12.800000
      vertex 393.453133 0.138112 -12.800000
    endloop
  endfacet
  facet normal 0.000000 0.000000 -1.000000
    outer loop
      vertex 394.240640 -0.898304 -12.800000
      vertex 393.853338 -0.700352 -12.800000
      vertex 393.453133 0.138112 -12.800000
    endloop
  endfacet
  facet normal 0.000000 0.000000 -1.000000
    outer loop
      vertex 393.453133 0.138112 -12.800000
      vertex 393.853338 -0.700352 -12.800000
      vertex 393.618330 -0.578048 -12.800000
    endloop
  endfacet
  facet normal 0.000000 0.000000 -1.000000
    outer loop
      vertex 393.453133 0.138112 -12.800000
      vertex 393.618330 -0.578048 -12.800000
      vertex 393.497600 -0.474368 -12.800000
    endloop
  endfacet
  facet normal 0.000000 0.000000 -1.000000
    outer loop
      vertex 393.453133 0.138112 -12.800000
      vertex 393.497600 -0.474368 -12.800000
      vertex 393.453133 -0.333056 -12.800000
    endloop
  endfacet
  facet normal 0.000000 0.000000 -1.000000
    outer loop
      vertex 393.453133 0.138112 -12.800000
      vertex 393.453133 -0.333056 -12.800000
      vertex 393.446912 -0.097472 -12.800000
    endloop
  endfacet
  facet normal -0.953888 0.300164 -0.000000
    outer loop
      vertex 393.453133 0.138112 3.200000
      vertex 393.497600 0.279424 3.200000
      vertex 393.453133 0.138112 -12.800000
    endloop
  endfacet
  facet normal -0.953888 0.300164 -0.000000
    outer loop
      vertex 393.453133 0.138112 -12.800000
      vertex 393.497600 0.279424 3.200000
      vertex 393.497600 0.279424 -12.800000
    endloop
  endfacet
  facet normal -0.953888 -0.300164 0.000000
    outer loop
      vertex 393.453133 -0.333056 3.200000
      vertex 393.453133 -0.333056 -12.800000
      vertex 393.497600 -0.474368 3.200000
    endloop
  endfacet
  facet normal -0.953888 -0.300164 0.000000
    outer loop
      vertex 393.497600 -0.474368 3.200000
      vertex 393.453133 -0.333056 -12.800000
      vertex 393.497600 -0.474368 -12.800000
    endloop
  endfacet
  facet normal -0.652223 0.758028 -0.000000
    outer loop
      vertex 393.497600 0.279424 3.200000
      vertex 393.618099 0.383104 3.200000
      vertex 393.497600 0.279424 -12.800000
    endloop
  endfacet
  facet normal -0.652223 0.758028 -0.000000
    outer loop
      vertex 393.497600 0.279424 -12.800000
      vertex 393.618099 0.383104 3.200000
      vertex 393.618099 0.383104 -12.800000
    endloop
  endfacet
  facet normal -0.462576 0.886580 -0.000000
    outer loop
      vertex 393.618099 0.383104 3.200000
      vertex 393.852877 0.505600 3.200000
      vertex 393.618099 0.383104 -12.800000
    endloop
  endfacet
  facet normal -0.462576 0.886580 -0.000000
    outer loop
      vertex 393.618099 0.383104 -12.800000
      vertex 393.852877 0.505600 3.200000
      vertex 393.852877 0.505600 -12.800000
    endloop
  endfacet
  facet normal -0.454756 0.890616 -0.000000
    outer loop
      vertex 393.852877 0.505600 3.200000
      vertex 394.240179 0.703360 3.200000
      vertex 393.852877 0.505600 -12.800000
    endloop
  endfacet
  facet normal -0.454756 0.890616 -0.000000
    outer loop
      vertex 393.852877 0.505600 -12.800000
      vertex 394.240179 0.703360 3.200000
      vertex 394.240179 0.703360 -12.800000
    endloop
  endfacet
  facet normal -0.495604 0.868548 -0.000000
    outer loop
      vertex 394.240179 0.703360 3.200000
      vertex 394.818253 1.033216 3.200000
      vertex 394.240179 0.703360 -12.800000
    endloop
  endfacet
  facet normal -0.495604 0.868548 -0.000000
    outer loop
      vertex 394.240179 0.703360 -12.800000
      vertex 394.818253 1.033216 3.200000
      vertex 394.818253 1.033216 -12.800000
    endloop
  endfacet
  facet normal -0.540616 0.841270 -0.000000
    outer loop
      vertex 394.818253 1.033216 3.200000
      vertex 395.624653 1.551424 3.200000
      vertex 394.818253 1.033216 -12.800000
    endloop
  endfacet
  facet normal -0.540616 0.841270 -0.000000
    outer loop
      vertex 394.818253 1.033216 -12.800000
      vertex 395.624653 1.551424 3.200000
      vertex 395.624653 1.551424 -12.800000
    endloop
  endfacet
  facet normal -0.579458 0.815002 -0.000000
    outer loop
      vertex 395.624653 1.551424 3.200000
      vertex 396.698086 2.314624 3.200000
      vertex 395.624653 1.551424 -12.800000
    endloop
  endfacet
  facet normal -0.579458 0.815002 -0.000000
    outer loop
      vertex 395.624653 1.551424 -12.800000
      vertex 396.698086 2.314624 3.200000
      vertex 396.698086 2.314624 -12.800000
    endloop
  endfacet
  facet normal 0.029659 0.999560 -0.000000
    outer loop
      vertex 396.698086 2.314624 3.200000
      vertex 398.921111 2.248662 3.200000
      vertex 396.698086 2.314624 -12.800000
    endloop
  endfacet
  facet normal 0.029659 0.999560 -0.000000
    outer loop
      vertex 396.698086 2.314624 -12.800000
      vertex 398.921111 2.248662 3.200000
      vertex 405.847731 2.043136 -0.961933
    endloop
  endfacet
  facet normal 0.029659 0.999560 -0.000000
    outer loop
      vertex 404.480000 2.083719 -56.960000
      vertex 405.847731 2.043136 -0.961933
      vertex 405.847731 2.043136 -68.480000
    endloop
  endfacet
  facet normal 0.029659 0.999560 -0.000000
    outer loop
      vertex 396.698086 2.314624 -56.960000
      vertex 405.847731 2.043136 -68.480000
      vertex 396.698086 2.314624 -68.480000
    endloop
  endfacet
  facet normal 0.029659 0.999560 -0.000000
    outer loop
      vertex 404.480000 2.083719 -12.800000
      vertex 405.847731 2.043136 -0.961933
      vertex 404.480000 2.083719 -56.960000
    endloop
  endfacet
  facet normal 0.029659 0.999560 -0.000000
    outer loop
      vertex 396.698086 2.314624 -12.800000
      vertex 405.847731 2.043136 -0.961933
      vertex 404.480000 2.083719 -12.800000
    endloop
  endfacet
  facet normal 0.029659 0.999560 -0.000000
    outer loop
      vertex 404.480000 2.083719 -56.960000
      vertex 405.847731 2.043136 -68.480000
      vertex 396.698086 2.314624 -56.960000
    endloop
  endfacet
  facet normal 0.515038 -0.000000 0.857167
    outer loop
      vertex 398.921111 -2.456115 3.200000
      vertex 405.776307 -2.290688 -0.919017
      vertex 413.653453 -2.045696 -5.652084
    endloop
  endfacet
  facet normal 0.515038 -0.000000 0.857167
    outer loop
      vertex 425.797146 -1.490432 -12.948751
      vertex 398.921111 -2.456115 3.200000
      vertex 420.327910 -1.777856 -9.662503
    endloop
  endfacet
  facet normal 0.515038 0.000000 0.857167
    outer loop
      vertex 420.327910 -1.777856 -9.662503
      vertex 398.921111 -2.456115 3.200000
      vertex 413.653453 -2.045696 -5.652084
    endloop
  endfacet
  facet normal 0.515038 0.000000 0.857167
    outer loop
      vertex 430.059546 -1.186688 -15.509859
      vertex 398.921111 -2.456115 3.200000
      vertex 425.797146 -1.490432 -12.948751
    endloop
  endfacet
  facet normal 0.515038 -0.000000 0.857167
    outer loop
      vertex 433.112806 -0.869696 -17.344443
      vertex 398.921111 -2.456115 3.200000
      vertex 430.059546 -1.186688 -15.509859
    endloop
  endfacet
  facet normal 0.515038 0.000000 0.857167
    outer loop
      vertex 434.955085 -0.542912 -18.451396
      vertex 398.921111 -2.456115 3.200000
      vertex 433.112806 -0.869696 -17.344443
    endloop
  endfacet
  facet normal 0.515038 0.000000 0.857167
    outer loop
      vertex 435.584077 -0.209408 -18.829332
      vertex 398.921111 -2.456115 3.200000
      vertex 434.955085 -0.542912 -18.451396
    endloop
  endfacet
  facet normal 0.515038 -0.000000 0.857167
    outer loop
      vertex 434.997939 0.127552 -18.477145
      vertex 398.921111 -2.456115 3.200000
      vertex 435.584077 -0.209408 -18.829332
    endloop
  endfacet
  facet normal 0.515038 0.000000 0.857167
    outer loop
      vertex 433.194598 0.464896 -17.393589
      vertex 398.921111 -2.456115 3.200000
      vertex 434.997939 0.127552 -18.477145
    endloop
  endfacet
  facet normal 0.515038 -0.000000 0.857167
    outer loop
      vertex 430.171981 0.799360 -15.577417
      vertex 398.921111 -2.456115 3.200000
      vertex 433.194598 0.464896 -17.393589
    endloop
  endfacet
  facet normal 0.515038 0.000000 0.857167
    outer loop
      vertex 425.928013 1.127488 -13.027384
      vertex 398.921111 -2.456115 3.200000
      vertex 430.171981 0.799360 -15.577417
    endloop
  endfacet
  facet normal 0.515038 0.000000 0.857167
    outer loop
      vertex 420.460621 1.446400 -9.742243
      vertex 398.921111 -2.456115 3.200000
      vertex 425.928013 1.127488 -13.027384
    endloop
  endfacet
  facet normal 0.515038 -0.000000 0.857167
    outer loop
      vertex 413.767962 1.752640 -5.720888
      vertex 398.921111 -2.456115 3.200000
      vertex 420.460621 1.446400 -9.742243
    endloop
  endfacet
  facet normal 0.515038 0.000000 0.857167
    outer loop
      vertex 405.847731 2.043136 -0.961933
      vertex 398.921111 -2.456115 3.200000
      vertex 413.767962 1.752640 -5.720888
    endloop
  endfacet
  facet normal 0.515038 0.000000 0.857167
    outer loop
      vertex 398.921111 2.248662 3.200000
      vertex 398.921111 -2.456115 3.200000
      vertex 405.847731 2.043136 -0.961933
    endloop
  endfacet
  facet normal 0.024125 -0.999709 0.000000
    outer loop
      vertex 398.921111 -2.456115 3.200000
      vertex 396.698086 -2.509760 3.200000
      vertex 396.698086 -2.509760 -12.800000
    endloop
  endfacet
  facet normal 0.024125 -0.999709 0.000000
    outer loop
      vertex 405.776307 -2.290688 -0.919017
      vertex 398.921111 -2.456115 3.200000
      vertex 404.480000 -2.321970 -12.800000
    endloop
  endfacet
  facet normal 0.024125 -0.999709 0.000000
    outer loop
      vertex 404.480000 -2.321970 -12.800000
      vertex 398.921111 -2.456115 3.200000
      vertex 396.698086 -2.509760 -12.800000
    endloop
  endfacet
  facet normal 0.024125 -0.999709 0.000000
    outer loop
      vertex 405.776307 -2.290688 -68.480000
      vertex 404.480000 -2.321970 -12.800000
      vertex 404.480000 -2.321970 -56.960000
    endloop
  endfacet
  facet normal 0.024125 -0.999709 0.000000
    outer loop
      vertex 396.698086 -2.509760 -68.480000
      vertex 404.480000 -2.321970 -56.960000
      vertex 396.698086 -2.509760 -56.960000
    endloop
  endfacet
  facet normal 0.024125 -0.999709 0.000000
    outer loop
      vertex 405.776307 -2.290688 -68.480000
      vertex 404.480000 -2.321970 -56.960000
      vertex 396.698086 -2.509760 -68.480000
    endloop
  endfacet
  facet normal 0.024125 -0.999709 0.000000
    outer loop
      vertex 405.776307 -2.290688 -0.919017
      vertex 404.480000 -2.321970 -12.800000
      vertex 405.776307 -2.290688 -68.480000
    endloop
  endfacet
  facet normal -0.579637 -0.814875 0.000000
    outer loop
      vertex 396.698086 -2.509760 3.200000
      vertex 395.624883 -1.746368 3.200000
      vertex 395.624883 -1.746368 -12.800000
    endloop
  endfacet
  facet normal -0.579637 -0.814875 0.000000
    outer loop
      vertex 396.698086 -2.509760 -12.800000
      vertex 396.698086 -2.509760 3.200000
      vertex 395.624883 -1.746368 -12.800000
    endloop
  endfacet
  facet normal -0.540758 -0.841178 0.000000
    outer loop
      vertex 395.624883 -1.746368 3.200000
      vertex 394.818483 -1.227968 3.200000
      vertex 394.818483 -1.227968 -12.800000
    endloop
  endfacet
  facet normal -0.540758 -0.841178 0.000000
    outer loop
      vertex 395.624883 -1.746368 -12.800000
      vertex 395.624883 -1.746368 3.200000
      vertex 394.818483 -1.227968 -12.800000
    endloop
  endfacet
  facet normal -0.495536 -0.868587 0.000000
    outer loop
      vertex 394.818483 -1.227968 3.200000
      vertex 394.240640 -0.898304 3.200000
      vertex 394.240640 -0.898304 -12.800000
    endloop
  endfacet
  facet normal -0.495536 -0.868587 0.000000
    outer loop
      vertex 394.818483 -1.227968 -12.800000
      vertex 394.818483 -1.227968 3.200000
      vertex 394.240640 -0.898304 -12.800000
    endloop
  endfacet
  facet normal -0.455106 -0.890437 0.000000
    outer loop
      vertex 394.240640 -0.898304 3.200000
      vertex 393.853338 -0.700352 3.200000
      vertex 393.853338 -0.700352 -12.800000
    endloop
  endfacet
  facet normal -0.455106 -0.890437 0.000000
    outer loop
      vertex 394.240640 -0.898304 -12.800000
      vertex 394.240640 -0.898304 3.200000
      vertex 393.853338 -0.700352 -12.800000
    endloop
  endfacet
  facet normal -0.461649 -0.887062 0.000000
    outer loop
      vertex 393.853338 -0.700352 3.200000
      vertex 393.618330 -0.578048 3.200000
      vertex 393.618330 -0.578048 -12.800000
    endloop
  endfacet
  facet normal -0.461649 -0.887062 0.000000
    outer loop
      vertex 393.853338 -0.700352 -12.800000
      vertex 393.853338 -0.700352 3.200000
      vertex 393.618330 -0.578048 -12.800000
    endloop
  endfacet
  facet normal -0.651506 -0.758643 0.000000
    outer loop
      vertex 393.618330 -0.578048 3.200000
      vertex 393.497600 -0.474368 3.200000
      vertex 393.497600 -0.474368 -12.800000
    endloop
  endfacet
  facet normal -0.651506 -0.758643 0.000000
    outer loop
      vertex 393.618330 -0.578048 -12.800000
      vertex 393.618330 -0.578048 3.200000
      vertex 393.497600 -0.474368 -12.800000
    endloop
  endfacet
  facet normal -1.000000 -0.000000 0.000000
    outer loop
      vertex 404.480000 -2.321970 -56.960000
      vertex 404.480000 -2.321970 -12.800000
      vertex 404.480000 2.083719 -56.960000
    endloop
  endfacet
  facet normal -1.000000 0.000000 -0.000000
    outer loop
      vertex 404.480000 2.083719 -56.960000
      vertex 404.480000 -2.321970 -12.800000
      vertex 404.480000 2.083719 -12.800000
    endloop
  endfacet
  facet normal 0.000000 0.000000 1.000000
    outer loop
      vertex 393.453133 -0.333056 -56.960000
      vertex 393.497600 -0.474368 -56.960000
      vertex 393.618330 -0.578048 -56.960000
    endloop
  endfacet
  facet normal 0.000000 0.000000 1.000000
    outer loop
      vertex 394.240640 -0.898304 -56.960000
      vertex 393.453133 -0.333056 -56.960000
      vertex 393.853338 -0.700352 -56.960000
    endloop
  endfacet
  facet normal 0.000000 0.000000 1.000000
    outer loop
      vertex 393.853338 -0.700352 -56.960000
      vertex 393.453133 -0.333056 -56.960000
      vertex 393.618330 -0.578048 -56.960000
    endloop
  endfacet
  facet normal 0.000000 0.000000 1.000000
    outer loop
      vertex 394.818483 -1.227968 -56.960000
      vertex 393.453133 -0.333056 -56.960000
      vertex 394.240640 -0.898304 -56.960000
    endloop
  endfacet
  facet normal 0.000000 0.000000 1.000000
    outer loop
      vertex 395.624883 -1.746368 -56.960000
      vertex 393.453133 -0.333056 -56.960000
      vertex 394.818483 -1.227968 -56.960000
    endloop
  endfacet
  facet normal 0.000000 0.000000 1.000000
    outer loop
      vertex 404.480000 -2.321970 -56.960000
      vertex 393.453133 -0.333056 -56.960000
      vertex 395.624883 -1.746368 -56.960000
    endloop
  endfacet
  facet normal -0.000000 0.000000 1.000000
    outer loop
      vertex 404.480000 -2.321970 -56.960000
      vertex 395.624883 -1.746368 -56.960000
      vertex 396.698086 -2.509760 -56.960000
    endloop
  endfacet
  facet normal 0.000000 0.000000 1.000000
    outer loop
      vertex 404.480000 2.083719 -56.960000
      vertex 393.453133 -0.333056 -56.960000
      vertex 404.480000 -2.321970 -56.960000
    endloop
  endfacet
  facet normal 0.000000 -0.000000 1.000000
    outer loop
      vertex 396.698086 2.314624 -56.960000
      vertex 393.453133 -0.333056 -56.960000
      vertex 404.480000 2.083719 -56.960000
    endloop
  endfacet
  facet normal 0.000000 -0.000000 1.000000
    outer loop
      vertex 395.624653 1.551424 -56.960000
      vertex 393.453133 -0.333056 -56.960000
      vertex 396.698086 2.314624 -56.960000
    endloop
  endfacet
  facet normal 0.000000 -0.000000 1.000000
    outer loop
      vertex 394.818253 1.033216 -56.960000
      vertex 393.453133 -0.333056 -56.960000
      vertex 395.624653 1.551424 -56.960000
    endloop
  endfacet
  facet normal 0.000000 -0.000000 1.000000
    outer loop
      vertex 394.240179 0.703360 -56.960000
      vertex 393.453133 -0.333056 -56.960000
      vertex 394.818253 1.033216 -56.960000
    endloop
  endfacet
  facet normal 0.000000 -0.000000 1.000000
    outer loop
      vertex 393.852877 0.505600 -56.960000
      vertex 393.453133 -0.333056 -56.960000
      vertex 394.240179 0.703360 -56.960000
    endloop
  endfacet
  facet normal 0.000000 -0.000000 1.000000
    outer loop
      vertex 393.618099 0.383104 -56.960000
      vertex 393.453133 -0.333056 -56.960000
      vertex 393.852877 0.505600 -56.960000
    endloop
  endfacet
  facet normal 0.000000 -0.000000 1.000000
    outer loop
      vertex 393.497600 0.279424 -56.960000
      vertex 393.453133 -0.333056 -56.960000
      vertex 393.618099 0.383104 -56.960000
    endloop
  endfacet
  facet normal 0.000000 -0.000000 1.000000
    outer loop
      vertex 393.453133 0.138112 -56.960000
      vertex 393.453133 -0.333056 -56.960000
      vertex 393.497600 0.279424 -56.960000
    endloop
  endfacet
  facet normal 0.000000 0.000000 1.000000
    outer loop
      vertex 393.446912 -0.097472 -56.960000
      vertex 393.453133 -0.333056 -56.960000
      vertex 393.453133 0.138112 -56.960000
    endloop
  endfacet
  facet normal -0.579458 0.815002 -0.000000
    outer loop
      vertex 395.624653 1.551424 -56.960000
      vertex 396.698086 2.314624 -56.960000
      vertex 395.624653 1.551424 -68.480000
    endloop
  endfacet
  facet normal -0.579458 0.815002 -0.000000
    outer loop
      vertex 395.624653 1.551424 -68.480000
      vertex 396.698086 2.314624 -56.960000
      vertex 396.698086 2.314624 -68.480000
    endloop
  endfacet
  facet normal -0.000000 0.000000 -1.000000
    outer loop
      vertex 393.446912 -0.097472 -68.480000
      vertex 393.453133 0.138112 -68.480000
      vertex 393.453133 -0.333056 -68.480000
    endloop
  endfacet
  facet normal 0.000000 -0.000000 -1.000000
    outer loop
      vertex 393.453133 -0.333056 -68.480000
      vertex 393.453133 0.138112 -68.480000
      vertex 393.497600 0.279424 -68.480000
    endloop
  endfacet
  facet normal 0.000000 0.000000 -1.000000
    outer loop
      vertex 393.453133 -0.333056 -68.480000
      vertex 393.497600 0.279424 -68.480000
      vertex 393.618099 0.383104 -68.480000
    endloop
  endfacet
  facet normal 0.000000 0.000000 -1.000000
    outer loop
      vertex 393.453133 -0.333056 -68.480000
      vertex 393.618099 0.383104 -68.480000
      vertex 393.852877 0.505600 -68.480000
    endloop
  endfacet
  facet normal 0.000000 0.000000 -1.000000
    outer loop
      vertex 393.453133 -0.333056 -68.480000
      vertex 393.852877 0.505600 -68.480000
      vertex 394.240179 0.703360 -68.480000
    endloop
  endfacet
  facet normal 0.000000 0.000000 -1.000000
    outer loop
      vertex 393.453133 -0.333056 -68.480000
      vertex 394.240179 0.703360 -68.480000
      vertex 394.818253 1.033216 -68.480000
    endloop
  endfacet
  facet normal -0.000000 0.000000 -1.000000
    outer loop
      vertex 394.818253 1.033216 -68.480000
      vertex 395.624653 1.551424 -68.480000
      vertex 393.453133 -0.333056 -68.480000
    endloop
  endfacet
  facet normal -0.000000 0.000000 -1.000000
    outer loop
      vertex 395.624653 1.551424 -68.480000
      vertex 396.698086 2.314624 -68.480000
      vertex 393.453133 -0.333056 -68.480000
    endloop
  endfacet
  facet normal 0.000000 0.000000 -1.000000
    outer loop
      vertex 393.453133 -0.333056 -68.480000
      vertex 396.698086 2.314624 -68.480000
      vertex 405.847731 2.043136 -68.480000
    endloop
  endfacet
  facet normal 0.000000 0.000000 -1.000000
    outer loop
      vertex 393.453133 -0.333056 -68.480000
      vertex 405.847731 2.043136 -68.480000
      vertex 413.767962 1.752640 -68.480000
    endloop
  endfacet
  facet normal 0.000000 0.000000 -1.000000
    outer loop
      vertex 393.453133 -0.333056 -68.480000
      vertex 413.767962 1.752640 -68.480000
      vertex 420.460621 1.446400 -68.480000
    endloop
  endfacet
  facet normal 0.000000 0.000000 -1.000000
    outer loop
      vertex 393.453133 -0.333056 -68.480000
      vertex 420.460621 1.446400 -68.480000
      vertex 425.928013 1.127488 -68.480000
    endloop
  endfacet
  facet normal 0.000000 0.000000 -1.000000
    outer loop
      vertex 393.453133 -0.333056 -68.480000
      vertex 425.928013 1.127488 -68.480000
      vertex 430.171981 0.799360 -68.480000
    endloop
  endfacet
  facet normal 0.000000 0.000000 -1.000000
    outer loop
      vertex 393.453133 -0.333056 -68.480000
      vertex 430.171981 0.799360 -68.480000
      vertex 433.194598 0.464896 -68.480000
    endloop
  endfacet
  facet normal 0.000000 0.000000 -1.000000
    outer loop
      vertex 393.453133 -0.333056 -68.480000
      vertex 433.194598 0.464896 -68.480000
      vertex 434.997939 0.127552 -68.480000
    endloop
  endfacet
  facet normal 0.000000 0.000000 -1.000000
    outer loop
      vertex 393.453133 -0.333056 -68.480000
      vertex 434.997939 0.127552 -68.480000
      vertex 435.584077 -0.209408 -68.480000
    endloop
  endfacet
  facet normal -0.000000 0.000000 -1.000000
    outer loop
      vertex 393.453133 -0.333056 -68.480000
      vertex 435.584077 -0.209408 -68.480000
      vertex 434.955085 -0.542912 -68.480000
    endloop
  endfacet
  facet normal 0.000000 0.000000 -1.000000
    outer loop
      vertex 393.453133 -0.333056 -68.480000
      vertex 434.955085 -0.542912 -68.480000
      vertex 433.112806 -0.869696 -68.480000
    endloop
  endfacet
  facet normal 0.000000 0.000000 -1.000000
    outer loop
      vertex 393.453133 -0.333056 -68.480000
      vertex 433.112806 -0.869696 -68.480000
      vertex 430.059546 -1.186688 -68.480000
    endloop
  endfacet
  facet normal 0.000000 0.000000 -1.000000
    outer loop
      vertex 393.453133 -0.333056 -68.480000
      vertex 430.059546 -1.186688 -68.480000
      vertex 425.797146 -1.490432 -68.480000
    endloop
  endfacet
  facet normal 0.000000 0.000000 -1.000000
    outer loop
      vertex 393.453133 -0.333056 -68.480000
      vertex 425.797146 -1.490432 -68.480000
      vertex 420.327910 -1.777856 -68.480000
    endloop
  endfacet
  facet normal 0.000000 0.000000 -1.000000
    outer loop
      vertex 393.453133 -0.333056 -68.480000
      vertex 420.327910 -1.777856 -68.480000
      vertex 413.653453 -2.045696 -68.480000
    endloop
  endfacet
  facet normal 0.000000 0.000000 -1.000000
    outer loop
      vertex 393.453133 -0.333056 -68.480000
      vertex 413.653453 -2.045696 -68.480000
      vertex 405.776307 -2.290688 -68.480000
    endloop
  endfacet
  facet normal 0.000000 0.000000 -1.000000
    outer loop
      vertex 395.624883 -1.746368 -68.480000
      vertex 405.776307 -2.290688 -68.480000
      vertex 396.698086 -2.509760 -68.480000
    endloop
  endfacet
  facet normal 0.000000 0.000000 -1.000000
    outer loop
      vertex 393.453133 -0.333056 -68.480000
      vertex 405.776307 -2.290688 -68.480000
      vertex 395.624883 -1.746368 -68.480000
    endloop
  endfacet
  facet normal 0.000000 0.000000 -1.000000
    outer loop
      vertex 393.453133 -0.333056 -68.480000
      vertex 395.624883 -1.746368 -68.480000
      vertex 394.818483 -1.227968 -68.480000
    endloop
  endfacet
  facet normal 0.000000 0.000000 -1.000000
    outer loop
      vertex 393.453133 -0.333056 -68.480000
      vertex 394.240640 -0.898304 -68.480000
      vertex 393.853338 -0.700352 -68.480000
    endloop
  endfacet
  facet normal 0.000000 0.000000 -1.000000
    outer loop
      vertex 393.453133 -0.333056 -68.480000
      vertex 393.853338 -0.700352 -68.480000
      vertex 393.618330 -0.578048 -68.480000
    endloop
  endfacet
  facet normal 0.000000 0.000000 -1.000000
    outer loop
      vertex 393.453133 -0.333056 -68.480000
      vertex 393.618330 -0.578048 -68.480000
      vertex 393.497600 -0.474368 -68.480000
    endloop
  endfacet
  facet normal -0.000000 -0.000000 -1.000000
    outer loop
      vertex 394.240640 -0.898304 -68.480000
      vertex 393.453133 -0.333056 -68.480000
      vertex 394.818483 -1.227968 -68.480000
    endloop
  endfacet
  facet normal 0.036653 0.999328 -0.000000
    outer loop
      vertex 405.847731 2.043136 -0.961933
      vertex 413.767962 1.752640 -5.720888
      vertex 405.847731 2.043136 -68.480000
    endloop
  endfacet
  facet normal 0.036653 0.999328 -0.000000
    outer loop
      vertex 405.847731 2.043136 -68.480000
      vertex 413.767962 1.752640 -5.720888
      vertex 413.767962 1.752640 -68.480000
    endloop
  endfacet
  facet normal 0.045710 0.998955 -0.000000
    outer loop
      vertex 413.767962 1.752640 -5.720888
      vertex 420.460621 1.446400 -9.742243
      vertex 413.767962 1.752640 -68.480000
    endloop
  endfacet
  facet normal 0.045710 0.998955 -0.000000
    outer loop
      vertex 413.767962 1.752640 -68.480000
      vertex 420.460621 1.446400 -9.742243
      vertex 420.460621 1.446400 -68.480000
    endloop
  endfacet
  facet normal 0.058231 0.998303 -0.000000
    outer loop
      vertex 420.460621 1.446400 -9.742243
      vertex 425.928013 1.127488 -13.027384
      vertex 420.460621 1.446400 -68.480000
    endloop
  endfacet
  facet normal 0.058231 0.998303 -0.000000
    outer loop
      vertex 420.460621 1.446400 -68.480000
      vertex 425.928013 1.127488 -13.027384
      vertex 425.928013 1.127488 -68.480000
    endloop
  endfacet
  facet normal 0.077086 0.997024 -0.000000
    outer loop
      vertex 425.928013 1.127488 -13.027384
      vertex 430.171981 0.799360 -15.577417
      vertex 425.928013 1.127488 -68.480000
    endloop
  endfacet
  facet normal 0.077086 0.997024 -0.000000
    outer loop
      vertex 425.928013 1.127488 -68.480000
      vertex 430.171981 0.799360 -15.577417
      vertex 430.171981 0.799360 -68.480000
    endloop
  endfacet
  facet normal 0.109982 0.993934 -0.000000
    outer loop
      vertex 430.171981 0.799360 -15.577417
      vertex 433.194598 0.464896 -17.393589
      vertex 430.171981 0.799360 -68.480000
    endloop
  endfacet
  facet normal 0.109982 0.993934 -0.000000
    outer loop
      vertex 430.171981 0.799360 -68.480000
      vertex 433.194598 0.464896 -17.393589
      vertex 433.194598 0.464896 -68.480000
    endloop
  endfacet
  facet normal 0.183877 0.982949 -0.000000
    outer loop
      vertex 433.194598 0.464896 -17.393589
      vertex 434.997939 0.127552 -18.477145
      vertex 433.194598 0.464896 -68.480000
    endloop
  endfacet
  facet normal 0.183877 0.982949 -0.000000
    outer loop
      vertex 433.194598 0.464896 -68.480000
      vertex 434.997939 0.127552 -18.477145
      vertex 434.997939 0.127552 -68.480000
    endloop
  endfacet
  facet normal 0.498394 0.866950 -0.000000
    outer loop
      vertex 434.997939 0.127552 -18.477145
      vertex 435.584077 -0.209408 -18.829332
      vertex 434.997939 0.127552 -68.480000
    endloop
  endfacet
  facet normal 0.498394 0.866950 -0.000000
    outer loop
      vertex 434.997939 0.127552 -68.480000
      vertex 435.584077 -0.209408 -18.829332
      vertex 435.584077 -0.209408 -68.480000
    endloop
  endfacet
  facet normal 0.468445 -0.883493 0.000000
    outer loop
      vertex 435.584077 -0.209408 -18.829332
      vertex 434.955085 -0.542912 -18.451396
      vertex 434.955085 -0.542912 -68.480000
    endloop
  endfacet
  facet normal 0.468445 -0.883493 0.000000
    outer loop
      vertex 435.584077 -0.209408 -68.480000
      vertex 435.584077 -0.209408 -18.829332
      vertex 434.955085 -0.542912 -68.480000
    endloop
  endfacet
  facet normal 0.174654 -0.984630 0.000000
    outer loop
      vertex 434.955085 -0.542912 -18.451396
      vertex 433.112806 -0.869696 -17.344443
      vertex 433.112806 -0.869696 -68.480000
    endloop
  endfacet
  facet normal 0.174654 -0.984630 0.000000
    outer loop
      vertex 434.955085 -0.542912 -68.480000
      vertex 434.955085 -0.542912 -18.451396
      vertex 433.112806 -0.869696 -68.480000
    endloop
  endfacet
  facet normal 0.103266 -0.994654 0.000000
    outer loop
      vertex 433.112806 -0.869696 -17.344443
      vertex 430.059546 -1.186688 -15.509859
      vertex 430.059546 -1.186688 -68.480000
    endloop
  endfacet
  facet normal 0.103266 -0.994654 0.000000
    outer loop
      vertex 433.112806 -0.869696 -68.480000
      vertex 433.112806 -0.869696 -17.344443
      vertex 430.059546 -1.186688 -68.480000
    endloop
  endfacet
  facet normal 0.071081 -0.997471 0.000000
    outer loop
      vertex 430.059546 -1.186688 -15.509859
      vertex 425.797146 -1.490432 -12.948751
      vertex 425.797146 -1.490432 -68.480000
    endloop
  endfacet
  facet normal 0.071081 -0.997471 0.000000
    outer loop
      vertex 430.059546 -1.186688 -68.480000
      vertex 430.059546 -1.186688 -15.509859
      vertex 425.797146 -1.490432 -68.480000
    endloop
  endfacet
  facet normal 0.052480 -0.998622 0.000000
    outer loop
      vertex 425.797146 -1.490432 -12.948751
      vertex 420.327910 -1.777856 -9.662503
      vertex 420.327910 -1.777856 -68.480000
    endloop
  endfacet
  facet normal 0.052480 -0.998622 0.000000
    outer loop
      vertex 425.797146 -1.490432 -68.480000
      vertex 425.797146 -1.490432 -12.948751
      vertex 420.327910 -1.777856 -68.480000
    endloop
  endfacet
  facet normal 0.040097 -0.999196 0.000000
    outer loop
      vertex 420.327910 -1.777856 -9.662503
      vertex 413.653453 -2.045696 -5.652084
      vertex 413.653453 -2.045696 -68.480000
    endloop
  endfacet
  facet normal 0.040097 -0.999196 0.000000
    outer loop
      vertex 420.327910 -1.777856 -68.480000
      vertex 420.327910 -1.777856 -9.662503
      vertex 413.653453 -2.045696 -68.480000
    endloop
  endfacet
  facet normal 0.031087 -0.999517 0.000000
    outer loop
      vertex 413.653453 -2.045696 -5.652084
      vertex 405.776307 -2.290688 -0.919017
      vertex 405.776307 -2.290688 -68.480000
    endloop
  endfacet
  facet normal 0.031087 -0.999517 0.000000
    outer loop
      vertex 413.653453 -2.045696 -68.480000
      vertex 413.653453 -2.045696 -5.652084
      vertex 405.776307 -2.290688 -68.480000
    endloop
  endfacet
  facet normal -0.579637 -0.814875 0.000000
    outer loop
      vertex 396.698086 -2.509760 -56.960000
      vertex 395.624883 -1.746368 -56.960000
      vertex 395.624883 -1.746368 -68.480000
    endloop
  endfacet
  facet normal -0.579637 -0.814875 0.000000
    outer loop
      vertex 396.698086 -2.509760 -68.480000
      vertex 396.698086 -2.509760 -56.960000
      vertex 395.624883 -1.746368 -68.480000
    endloop
  endfacet
  facet normal -0.999652 -0.026397 0.000000
    outer loop
      vertex 393.446912 -0.097472 -56.960000
      vertex 393.446912 -0.097472 -68.480000
      vertex 393.453133 -0.333056 -56.960000
    endloop
  endfacet
  facet normal -0.999652 -0.026397 0.000000
    outer loop
      vertex 393.453133 -0.333056 -56.960000
      vertex 393.446912 -0.097472 -68.480000
      vertex 393.453133 -0.333056 -68.480000
    endloop
  endfacet
  facet normal -0.953888 -0.300164 0.000000
    outer loop
      vertex 393.453133 -0.333056 -56.960000
      vertex 393.453133 -0.333056 -68.480000
      vertex 393.497600 -0.474368 -56.960000
    endloop
  endfacet
  facet normal -0.953888 -0.300164 0.000000
    outer loop
      vertex 393.497600 -0.474368 -56.960000
      vertex 393.453133 -0.333056 -68.480000
      vertex 393.497600 -0.474368 -68.480000
    endloop
  endfacet
  facet normal -0.999652 0.026397 -0.000000
    outer loop
      vertex 393.446912 -0.097472 -56.960000
      vertex 393.453133 0.138112 -56.960000
      vertex 393.446912 -0.097472 -68.480000
    endloop
  endfacet
  facet normal -0.999652 0.026397 -0.000000
    outer loop
      vertex 393.446912 -0.097472 -68.480000
      vertex 393.453133 0.138112 -56.960000
      vertex 393.453133 0.138112 -68.480000
    endloop
  endfacet
  facet normal -0.953888 0.300164 -0.000000
    outer loop
      vertex 393.453133 0.138112 -56.960000
      vertex 393.497600 0.279424 -56.960000
      vertex 393.453133 0.138112 -68.480000
    endloop
  endfacet
  facet normal -0.953888 0.300164 -0.000000
    outer loop
      vertex 393.453133 0.138112 -68.480000
      vertex 393.497600 0.279424 -56.960000
      vertex 393.497600 0.279424 -68.480000
    endloop
  endfacet
  facet normal -0.652223 0.758028 -0.000000
    outer loop
      vertex 393.497600 0.279424 -56.960000
      vertex 393.618099 0.383104 -56.960000
      vertex 393.497600 0.279424 -68.480000
    endloop
  endfacet
  facet normal -0.652223 0.758028 -0.000000
    outer loop
      vertex 393.497600 0.279424 -68.480000
      vertex 393.618099 0.383104 -56.960000
      vertex 393.618099 0.383104 -68.480000
    endloop
  endfacet
  facet normal -0.462576 0.886580 -0.000000
    outer loop
      vertex 393.618099 0.383104 -56.960000
      vertex 393.852877 0.505600 -56.960000
      vertex 393.618099 0.383104 -68.480000
    endloop
  endfacet
  facet normal -0.462576 0.886580 -0.000000
    outer loop
      vertex 393.618099 0.383104 -68.480000
      vertex 393.852877 0.505600 -56.960000
      vertex 393.852877 0.505600 -68.480000
    endloop
  endfacet
  facet normal -0.454756 0.890616 -0.000000
    outer loop
      vertex 393.852877 0.505600 -56.960000
      vertex 394.240179 0.703360 -56.960000
      vertex 393.852877 0.505600 -68.480000
    endloop
  endfacet
  facet normal -0.454756 0.890616 -0.000000
    outer loop
      vertex 393.852877 0.505600 -68.480000
      vertex 394.240179 0.703360 -56.960000
      vertex 394.240179 0.703360 -68.480000
    endloop
  endfacet
  facet normal -0.495604 0.868548 -0.000000
    outer loop
      vertex 394.240179 0.703360 -56.960000
      vertex 394.818253 1.033216 -56.960000
      vertex 394.240179 0.703360 -68.480000
    endloop
  endfacet
  facet normal -0.495604 0.868548 -0.000000
    outer loop
      vertex 394.240179 0.703360 -68.480000
      vertex 394.818253 1.033216 -56.960000
      vertex 394.818253 1.033216 -68.480000
    endloop
  endfacet
  facet normal -0.540616 0.841270 -0.000000
    outer loop
      vertex 394.818253 1.033216 -56.960000
      vertex 395.624653 1.551424 -56.960000
      vertex 394.818253 1.033216 -68.480000
    endloop
  endfacet
  facet normal -0.540616 0.841270 -0.000000
    outer loop
      vertex 394.818253 1.033216 -68.480000
      vertex 395.624653 1.551424 -56.960000
      vertex 395.624653 1.551424 -68.480000
    endloop
  endfacet
  facet normal -0.540758 -0.841178 0.000000
    outer loop
      vertex 395.624883 -1.746368 -56.960000
      vertex 394.818483 -1.227968 -56.960000
      vertex 394.818483 -1.227968 -68.480000
    endloop
  endfacet
  facet normal -0.540758 -0.841178 0.000000
    outer loop
      vertex 395.624883 -1.746368 -68.480000
      vertex 395.624883 -1.746368 -56.960000
      vertex 394.818483 -1.227968 -68.480000
    endloop
  endfacet
  facet normal -0.495536 -0.868587 0.000000
    outer loop
      vertex 394.818483 -1.227968 -56.960000
      vertex 394.240640 -0.898304 -56.960000
      vertex 394.240640 -0.898304 -68.480000
    endloop
  endfacet
  facet normal -0.495536 -0.868587 0.000000
    outer loop
      vertex 394.818483 -1.227968 -68.480000
      vertex 394.818483 -1.227968 -56.960000
      vertex 394.240640 -0.898304 -68.480000
    endloop
  endfacet
  facet normal -0.455106 -0.890437 0.000000
    outer loop
      vertex 394.240640 -0.898304 -56.960000
      vertex 393.853338 -0.700352 -56.960000
      vertex 393.853338 -0.700352 -68.480000
    endloop
  endfacet
  facet normal -0.455106 -0.890437 0.000000
    outer loop
      vertex 394.240640 -0.898304 -68.480000
      vertex 394.240640 -0.898304 -56.960000
      vertex 393.853338 -0.700352 -68.480000
    endloop
  endfacet
  facet normal -0.461649 -0.887062 0.000000
    outer loop
      vertex 393.853338 -0.700352 -56.960000
      vertex 393.618330 -0.578048 -56.960000
      vertex 393.618330 -0.578048 -68.480000
    endloop
  endfacet
  facet normal -0.461649 -0.887062 0.000000
    outer loop
      vertex 393.853338 -0.700352 -68.480000
      vertex 393.853338 -0.700352 -56.960000
      vertex 393.618330 -0.578048 -68.480000
    endloop
  endfacet
  facet normal -0.651506 -0.758643 0.000000
    outer loop
      vertex 393.618330 -0.578048 -56.960000
      vertex 393.497600 -0.474368 -56.960000
      vertex 393.497600 -0.474368 -68.480000
    endloop
  endfacet
  facet normal -0.651506 -0.758643 0.000000
    outer loop
      vertex 393.618330 -0.578048 -68.480000
      vertex 393.618330 -0.578048 -56.960000
      vertex 393.497600 -0.474368 -68.480000
    endloop
  endfacet
  facet normal 0.000000 0.000000 1.000000
    outer loop
      vertex 93.847214 -51.239154 -24.000000
      vertex 92.952786 -51.529772 -24.000000
      vertex 92.952786 -52.470228 -24.000000
    endloop
  endfacet
  facet normal -0.000000 0.000000 1.000000
    outer loop
      vertex 94.400000 -52.000000 -24.000000
      vertex 93.847214 -51.239154 -24.000000
      vertex 93.847214 -52.760846 -24.000000
    endloop
  endfacet
  facet normal 0.000000 0.000000 1.000000
    outer loop
      vertex 93.847214 -52.760846 -24.000000
      vertex 93.847214 -51.239154 -24.000000
      vertex 92.952786 -52.470228 -24.000000
    endloop
  endfacet
  facet normal -1.000000 0.000000 0.000000
    outer loop
      vertex 92.952786 -51.529772 -24.000000
      vertex 92.952786 -51.529772 -92.000000
      vertex 92.952786 -52.470228 -24.000000
    endloop
  endfacet
  facet normal -1.000000 0.000000 0.000000
    outer loop
      vertex 92.952786 -52.470228 -24.000000
      vertex 92.952786 -51.529772 -92.000000
      vertex 92.952786 -52.470228 -92.000000
    endloop
  endfacet
  facet normal -0.309018 0.951056 -0.000000
    outer loop
      vertex 92.952786 -51.529772 -24.000000
      vertex 93.847214 -51.239154 -24.000000
      vertex 92.952786 -51.529772 -92.000000
    endloop
  endfacet
  facet normal -0.309018 0.951056 -0.000000
    outer loop
      vertex 92.952786 -51.529772 -92.000000
      vertex 93.847214 -51.239154 -24.000000
      vertex 93.847214 -51.239154 -92.000000
    endloop
  endfacet
  facet normal 0.809017 0.587785 -0.000000
    outer loop
      vertex 93.847214 -51.239154 -92.000000
      vertex 93.847214 -51.239154 -24.000000
      vertex 94.400000 -52.000000 -24.000000
    endloop
  endfacet
  facet normal 0.809017 0.587785 -0.000000
    outer loop
      vertex 94.400000 -52.000000 -92.000000
      vertex 93.847214 -51.239154 -92.000000
      vertex 94.400000 -52.000000 -24.000000
    endloop
  endfacet
  facet normal 0.809017 -0.587785 0.000000
    outer loop
      vertex 94.400000 -52.000000 -24.000000
      vertex 93.847214 -52.760846 -24.000000
      vertex 93.847214 -52.760846 -92.000000
    endloop
  endfacet
  facet normal 0.809017 -0.587785 0.000000
    outer loop
      vertex 94.400000 -52.000000 -92.000000
      vertex 94.400000 -52.000000 -24.000000
      vertex 93.847214 -52.760846 -92.000000
    endloop
  endfacet
  facet normal -0.309018 -0.951056 0.000000
    outer loop
      vertex 93.847214 -52.760846 -24.000000
      vertex 92.952786 -52.470228 -24.000000
      vertex 92.952786 -52.470228 -92.000000
    endloop
  endfacet
  facet normal -0.309018 -0.951056 0.000000
    outer loop
      vertex 93.847214 -52.760846 -92.000000
      vertex 93.847214 -52.760846 -24.000000
      vertex 92.952786 -52.470228 -92.000000
    endloop
  endfacet
  facet normal -0.000000 0.000000 -1.000000
    outer loop
      vertex 92.952786 -51.529772 -92.000000
      vertex 93.847214 -51.239154 -92.000000
      vertex 92.952786 -52.470228 -92.000000
    endloop
  endfacet
  facet normal 0.000000 0.000000 -1.000000
    outer loop
      vertex 92.952786 -52.470228 -92.000000
      vertex 93.847214 -51.239154 -92.000000
      vertex 94.400000 -52.000000 -92.000000
    endloop
  endfacet
  facet normal -0.000000 0.000000 -1.000000
    outer loop
      vertex 92.952786 -52.470228 -92.000000
      vertex 94.400000 -52.000000 -92.000000
      vertex 93.847214 -52.760846 -92.000000
    endloop
  endfacet
endsolid OpenSCAD_Model
