solid OpenSCAD_Model
  facet normal -0.999622 0.000000 0.027496
    outer loop
      vertex 491.634000 -59.000000 -13.718160
      vertex 491.642100 -59.000000 -13.423680
      vertex 491.634000 56.000000 -13.718160
    endloop
  endfacet
  facet normal -0.999622 0.000000 0.027496
    outer loop
      vertex 491.634000 56.000000 -13.718160
      vertex 491.642100 -59.000000 -13.423680
      vertex 491.642100 56.000000 -13.423680
    endloop
  endfacet
  facet normal 0.000000 -1.000000 0.000000
    outer loop
      vertex 491.642100 -59.000000 -14.012640
      vertex 491.700000 -59.000000 -14.189280
      vertex 491.856900 -59.000000 -14.318880
    endloop
  endfacet
  facet normal 0.000000 -1.000000 0.000000
    outer loop
      vertex 492.219721 -59.000000 -14.500000
      vertex 491.642100 -59.000000 -14.012640
      vertex 492.162600 -59.000000 -14.472000
    endloop
  endfacet
  facet normal 0.000000 -1.000000 0.000000
    outer loop
      vertex 492.162600 -59.000000 -14.472000
      vertex 491.642100 -59.000000 -14.012640
      vertex 491.856900 -59.000000 -14.318880
    endloop
  endfacet
  facet normal 0.000000 -1.000000 0.000000
    outer loop
      vertex 506.000000 -59.000000 -14.500000
      vertex 491.642100 -59.000000 -14.012640
      vertex 492.219721 -59.000000 -14.500000
    endloop
  endfacet
  facet normal 0.000000 -1.000000 0.000000
    outer loop
      vertex 497.309017 -59.000000 -13.451057
      vertex 491.642100 -59.000000 -14.012640
      vertex 506.000000 -59.000000 -14.500000
    endloop
  endfacet
  facet normal -0.000000 -1.000000 0.000000
    outer loop
      vertex 497.309017 -59.000000 -11.548943
      vertex 498.000000 -59.000000 -12.500000
      vertex 506.000000 -59.000000 -10.937538
    endloop
  endfacet
  facet normal -0.000000 -1.000000 0.000000
    outer loop
      vertex 494.469900 -59.000000 -11.657040
      vertex 491.642100 -59.000000 -14.012640
      vertex 495.867300 -59.000000 -10.702800
    endloop
  endfacet
  facet normal -0.000000 -1.000000 0.000000
    outer loop
      vertex 493.419900 -59.000000 -12.305040
      vertex 491.642100 -59.000000 -14.012640
      vertex 494.469900 -59.000000 -11.657040
    endloop
  endfacet
  facet normal -0.000000 -1.000000 0.000000
    outer loop
      vertex 492.667500 -59.000000 -12.717120
      vertex 491.642100 -59.000000 -14.012640
      vertex 493.419900 -59.000000 -12.305040
    endloop
  endfacet
  facet normal -0.000000 -1.000000 0.000000
    outer loop
      vertex 492.163200 -59.000000 -12.964560
      vertex 491.642100 -59.000000 -14.012640
      vertex 492.667500 -59.000000 -12.717120
    endloop
  endfacet
  facet normal -0.000000 -1.000000 0.000000
    outer loop
      vertex 491.857200 -59.000000 -13.117440
      vertex 491.642100 -59.000000 -14.012640
      vertex 492.163200 -59.000000 -12.964560
    endloop
  endfacet
  facet normal -0.000000 -1.000000 0.000000
    outer loop
      vertex 491.700000 -59.000000 -13.247040
      vertex 491.642100 -59.000000 -14.012640
      vertex 491.857200 -59.000000 -13.117440
    endloop
  endfacet
  facet normal -0.000000 -1.000000 0.000000
    outer loop
      vertex 491.642100 -59.000000 -13.423680
      vertex 491.642100 -59.000000 -14.012640
      vertex 491.700000 -59.000000 -13.247040
    endloop
  endfacet
  facet normal -0.000000 -1.000000 0.000000
    outer loop
      vertex 491.634000 -59.000000 -13.718160
      vertex 491.642100 -59.000000 -14.012640
      vertex 491.642100 -59.000000 -13.423680
    endloop
  endfacet
  facet normal -0.000000 -1.000000 0.000000
    outer loop
      vertex 498.000000 -59.000000 -12.500000
      vertex 497.309017 -59.000000 -13.451057
      vertex 506.000000 -59.000000 -10.937538
    endloop
  endfacet
  facet normal 0.000000 -1.000000 0.000000
    outer loop
      vertex 495.867300 -59.000000 -10.702800
      vertex 491.642100 -59.000000 -14.012640
      vertex 496.190983 -59.000000 -11.912215
    endloop
  endfacet
  facet normal 0.000000 -1.000000 0.000000
    outer loop
      vertex 495.867300 -59.000000 -10.702800
      vertex 497.309017 -59.000000 -11.548943
      vertex 506.000000 -59.000000 -10.937538
    endloop
  endfacet
  facet normal 0.000000 -1.000000 0.000000
    outer loop
      vertex 495.867300 -59.000000 -10.702800
      vertex 496.190983 -59.000000 -11.912215
      vertex 497.309017 -59.000000 -11.548943
    endloop
  endfacet
  facet normal 0.000000 -1.000000 0.000000
    outer loop
      vertex 506.000000 -59.000000 -10.937538
      vertex 497.309017 -59.000000 -13.451057
      vertex 506.000000 -59.000000 -14.500000
    endloop
  endfacet
  facet normal 0.000000 -1.000000 0.000000
    outer loop
      vertex 496.190983 -59.000000 -13.087785
      vertex 491.642100 -59.000000 -14.012640
      vertex 497.309017 -59.000000 -13.451057
    endloop
  endfacet
  facet normal 0.000000 -1.000000 0.000000
    outer loop
      vertex 496.190983 -59.000000 -13.087785
      vertex 496.190983 -59.000000 -11.912215
      vertex 491.642100 -59.000000 -14.012640
    endloop
  endfacet
  facet normal -0.999622 -0.000000 -0.027496
    outer loop
      vertex 491.634000 -59.000000 -13.718160
      vertex 491.634000 56.000000 -13.718160
      vertex 491.642100 -59.000000 -14.012640
    endloop
  endfacet
  facet normal -0.999622 -0.000000 -0.027496
    outer loop
      vertex 491.642100 -59.000000 -14.012640
      vertex 491.634000 56.000000 -13.718160
      vertex 491.642100 56.000000 -14.012640
    endloop
  endfacet
  facet normal 0.000000 1.000000 -0.000000
    outer loop
      vertex 491.700000 56.000000 -13.247040
      vertex 491.857200 56.000000 -13.117440
      vertex 491.642100 56.000000 -13.423680
    endloop
  endfacet
  facet normal 0.000000 1.000000 0.000000
    outer loop
      vertex 491.642100 56.000000 -13.423680
      vertex 491.857200 56.000000 -13.117440
      vertex 492.163200 56.000000 -12.964560
    endloop
  endfacet
  facet normal 0.000000 1.000000 0.000000
    outer loop
      vertex 491.642100 56.000000 -13.423680
      vertex 492.163200 56.000000 -12.964560
      vertex 492.667500 56.000000 -12.717120
    endloop
  endfacet
  facet normal 0.000000 1.000000 0.000000
    outer loop
      vertex 491.642100 56.000000 -13.423680
      vertex 492.667500 56.000000 -12.717120
      vertex 493.419900 56.000000 -12.305040
    endloop
  endfacet
  facet normal 0.000000 1.000000 -0.000000
    outer loop
      vertex 493.419900 56.000000 -12.305040
      vertex 494.469900 56.000000 -11.657040
      vertex 491.642100 56.000000 -13.423680
    endloop
  endfacet
  facet normal 0.000000 1.000000 0.000000
    outer loop
      vertex 494.469900 56.000000 -11.657040
      vertex 495.867300 56.000000 -10.702800
      vertex 506.000000 56.000000 -10.937538
    endloop
  endfacet
  facet normal 0.000000 1.000000 0.000000
    outer loop
      vertex 491.642100 56.000000 -13.423680
      vertex 506.000000 56.000000 -14.500000
      vertex 492.219721 56.000000 -14.500000
    endloop
  endfacet
  facet normal 0.000000 1.000000 0.000000
    outer loop
      vertex 491.642100 56.000000 -13.423680
      vertex 492.219721 56.000000 -14.500000
      vertex 492.162600 56.000000 -14.472000
    endloop
  endfacet
  facet normal 0.000000 1.000000 0.000000
    outer loop
      vertex 491.642100 56.000000 -13.423680
      vertex 492.162600 56.000000 -14.472000
      vertex 491.856900 56.000000 -14.318880
    endloop
  endfacet
  facet normal 0.000000 1.000000 0.000000
    outer loop
      vertex 491.642100 56.000000 -13.423680
      vertex 491.856900 56.000000 -14.318880
      vertex 491.700000 56.000000 -14.189280
    endloop
  endfacet
  facet normal 0.000000 1.000000 -0.000000
    outer loop
      vertex 491.642100 56.000000 -13.423680
      vertex 491.700000 56.000000 -14.189280
      vertex 491.642100 56.000000 -14.012640
    endloop
  endfacet
  facet normal 0.000000 1.000000 0.000000
    outer loop
      vertex 491.642100 56.000000 -13.423680
      vertex 491.642100 56.000000 -14.012640
      vertex 491.634000 56.000000 -13.718160
    endloop
  endfacet
  facet normal 0.000000 1.000000 0.000000
    outer loop
      vertex 497.309017 56.000000 -11.548943
      vertex 506.000000 56.000000 -10.937538
      vertex 498.000000 56.000000 -12.500000
    endloop
  endfacet
  facet normal 0.000000 1.000000 0.000000
    outer loop
      vertex 491.642100 56.000000 -13.423680
      vertex 496.190983 56.000000 -13.087785
      vertex 497.309017 56.000000 -13.451057
    endloop
  endfacet
  facet normal 0.000000 1.000000 0.000000
    outer loop
      vertex 491.642100 56.000000 -13.423680
      vertex 497.309017 56.000000 -13.451057
      vertex 506.000000 56.000000 -14.500000
    endloop
  endfacet
  facet normal 0.000000 1.000000 -0.000000
    outer loop
      vertex 498.000000 56.000000 -12.500000
      vertex 506.000000 56.000000 -14.500000
      vertex 497.309017 56.000000 -13.451057
    endloop
  endfacet
  facet normal 0.000000 1.000000 0.000000
    outer loop
      vertex 498.000000 56.000000 -12.500000
      vertex 506.000000 56.000000 -10.937538
      vertex 506.000000 56.000000 -14.500000
    endloop
  endfacet
  facet normal 0.000000 1.000000 0.000000
    outer loop
      vertex 494.469900 56.000000 -11.657040
      vertex 506.000000 56.000000 -10.937538
      vertex 497.309017 56.000000 -11.548943
    endloop
  endfacet
  facet normal 0.000000 1.000000 0.000000
    outer loop
      vertex 494.469900 56.000000 -11.657040
      vertex 497.309017 56.000000 -11.548943
      vertex 496.190983 56.000000 -11.912215
    endloop
  endfacet
  facet normal 0.000000 1.000000 -0.000000
    outer loop
      vertex 494.469900 56.000000 -11.657040
      vertex 496.190983 56.000000 -11.912215
      vertex 491.642100 56.000000 -13.423680
    endloop
  endfacet
  facet normal -0.000000 1.000000 0.000000
    outer loop
      vertex 496.190983 56.000000 -13.087785
      vertex 491.642100 56.000000 -13.423680
      vertex 496.190983 56.000000 -11.912215
    endloop
  endfacet
  facet normal -0.950253 0.000000 0.311479
    outer loop
      vertex 491.642100 -59.000000 -13.423680
      vertex 491.700000 -59.000000 -13.247040
      vertex 491.642100 56.000000 -13.423680
    endloop
  endfacet
  facet normal -0.950253 0.000000 0.311479
    outer loop
      vertex 491.642100 56.000000 -13.423680
      vertex 491.700000 -59.000000 -13.247040
      vertex 491.700000 56.000000 -13.247040
    endloop
  endfacet
  facet normal -0.950253 -0.000000 -0.311479
    outer loop
      vertex 491.642100 -59.000000 -14.012640
      vertex 491.642100 56.000000 -14.012640
      vertex 491.700000 -59.000000 -14.189280
    endloop
  endfacet
  facet normal -0.950253 -0.000000 -0.311479
    outer loop
      vertex 491.700000 -59.000000 -14.189280
      vertex 491.642100 56.000000 -14.012640
      vertex 491.700000 56.000000 -14.189280
    endloop
  endfacet
  facet normal -0.636120 0.000000 0.771590
    outer loop
      vertex 491.700000 56.000000 -13.247040
      vertex 491.700000 -59.000000 -13.247040
      vertex 491.857200 -59.000000 -13.117440
    endloop
  endfacet
  facet normal -0.636120 0.000000 0.771590
    outer loop
      vertex 491.857200 56.000000 -13.117440
      vertex 491.700000 56.000000 -13.247040
      vertex 491.857200 -59.000000 -13.117440
    endloop
  endfacet
  facet normal -0.446933 0.000000 0.894567
    outer loop
      vertex 491.857200 56.000000 -13.117440
      vertex 491.857200 -59.000000 -13.117440
      vertex 492.163200 -59.000000 -12.964560
    endloop
  endfacet
  facet normal -0.446933 0.000000 0.894567
    outer loop
      vertex 492.163200 56.000000 -12.964560
      vertex 491.857200 56.000000 -13.117440
      vertex 492.163200 -59.000000 -12.964560
    endloop
  endfacet
  facet normal -0.440493 0.000000 0.897756
    outer loop
      vertex 492.163200 56.000000 -12.964560
      vertex 492.163200 -59.000000 -12.964560
      vertex 492.667500 -59.000000 -12.717120
    endloop
  endfacet
  facet normal -0.440493 0.000000 0.897756
    outer loop
      vertex 492.667500 56.000000 -12.717120
      vertex 492.163200 56.000000 -12.964560
      vertex 492.667500 -59.000000 -12.717120
    endloop
  endfacet
  facet normal -0.480361 0.000000 0.877071
    outer loop
      vertex 492.667500 56.000000 -12.717120
      vertex 492.667500 -59.000000 -12.717120
      vertex 493.419900 -59.000000 -12.305040
    endloop
  endfacet
  facet normal -0.480361 0.000000 0.877071
    outer loop
      vertex 493.419900 56.000000 -12.305040
      vertex 492.667500 56.000000 -12.717120
      vertex 493.419900 -59.000000 -12.305040
    endloop
  endfacet
  facet normal -0.525182 0.000000 0.850990
    outer loop
      vertex 493.419900 56.000000 -12.305040
      vertex 493.419900 -59.000000 -12.305040
      vertex 494.469900 -59.000000 -11.657040
    endloop
  endfacet
  facet normal -0.525182 0.000000 0.850990
    outer loop
      vertex 494.469900 56.000000 -11.657040
      vertex 493.419900 56.000000 -12.305040
      vertex 494.469900 -59.000000 -11.657040
    endloop
  endfacet
  facet normal -0.563929 0.000000 0.825824
    outer loop
      vertex 494.469900 56.000000 -11.657040
      vertex 494.469900 -59.000000 -11.657040
      vertex 495.867300 -59.000000 -10.702800
    endloop
  endfacet
  facet normal -0.563929 0.000000 0.825824
    outer loop
      vertex 495.867300 56.000000 -10.702800
      vertex 494.469900 56.000000 -11.657040
      vertex 495.867300 -59.000000 -10.702800
    endloop
  endfacet
  facet normal 0.023160 0.000000 0.999732
    outer loop
      vertex 495.867300 56.000000 -10.702800
      vertex 495.867300 -59.000000 -10.702800
      vertex 506.000000 -59.000000 -10.937538
    endloop
  endfacet
  facet normal 0.023160 0.000000 0.999732
    outer loop
      vertex 507.687900 -71.428571 -10.976640
      vertex 495.867300 56.000000 -10.702800
      vertex 506.000000 -59.000000 -10.937538
    endloop
  endfacet
  facet normal 0.023160 0.000000 0.999732
    outer loop
      vertex 506.000000 -71.428571 -10.937538
      vertex 507.687900 -71.428571 -10.976640
      vertex 506.000000 -59.000000 -10.937538
    endloop
  endfacet
  facet normal 0.023160 0.000000 0.999732
    outer loop
      vertex 507.687900 -71.428571 -10.976640
      vertex 506.000000 56.000000 -10.937538
      vertex 495.867300 56.000000 -10.702800
    endloop
  endfacet
  facet normal 0.023160 0.000000 0.999732
    outer loop
      vertex 507.687900 -71.428571 -10.976640
      vertex 507.687900 68.571429 -10.976640
      vertex 506.000000 56.000000 -10.937538
    endloop
  endfacet
  facet normal 0.023160 -0.000000 0.999732
    outer loop
      vertex 506.000000 68.571429 -10.937538
      vertex 506.000000 56.000000 -10.937538
      vertex 507.687900 68.571429 -10.976640
    endloop
  endfacet
  facet normal -1.000000 0.000000 0.000000
    outer loop
      vertex 506.000000 -59.000000 -10.937538
      vertex 506.000000 -59.000000 -14.500000
      vertex 506.000000 -71.428571 -10.937538
    endloop
  endfacet
  facet normal -1.000000 0.000000 0.000000
    outer loop
      vertex 506.000000 -71.428571 -10.937538
      vertex 506.000000 -59.000000 -14.500000
      vertex 506.000000 -71.428571 -14.500000
    endloop
  endfacet
  facet normal 0.000000 0.000000 -1.000000
    outer loop
      vertex 506.000000 68.571429 -14.500000
      vertex 542.646244 68.571429 -14.500000
      vertex 506.000000 56.000000 -14.500000
    endloop
  endfacet
  facet normal -0.000000 0.000000 -1.000000
    outer loop
      vertex 506.000000 56.000000 -14.500000
      vertex 542.646244 68.571429 -14.500000
      vertex 542.646244 -71.428571 -14.500000
    endloop
  endfacet
  facet normal 0.000000 0.000000 -1.000000
    outer loop
      vertex 506.000000 -59.000000 -14.500000
      vertex 542.646244 -71.428571 -14.500000
      vertex 506.000000 -71.428571 -14.500000
    endloop
  endfacet
  facet normal 0.000000 0.000000 -1.000000
    outer loop
      vertex 506.000000 56.000000 -14.500000
      vertex 542.646244 -71.428571 -14.500000
      vertex 506.000000 -59.000000 -14.500000
    endloop
  endfacet
  facet normal 0.000000 0.000000 -1.000000
    outer loop
      vertex 506.000000 -59.000000 -14.500000
      vertex 492.219721 -59.000000 -14.500000
      vertex 506.000000 56.000000 -14.500000
    endloop
  endfacet
  facet normal 0.000000 0.000000 -1.000000
    outer loop
      vertex 506.000000 56.000000 -14.500000
      vertex 492.219721 -59.000000 -14.500000
      vertex 492.219721 56.000000 -14.500000
    endloop
  endfacet
  facet normal -0.440149 -0.000000 -0.897925
    outer loop
      vertex 492.162600 -59.000000 -14.472000
      vertex 492.162600 56.000000 -14.472000
      vertex 492.219721 -59.000000 -14.500000
    endloop
  endfacet
  facet normal -0.440149 -0.000000 -0.897925
    outer loop
      vertex 492.219721 -59.000000 -14.500000
      vertex 492.162600 56.000000 -14.472000
      vertex 492.219721 56.000000 -14.500000
    endloop
  endfacet
  facet normal -0.447845 -0.000000 -0.894111
    outer loop
      vertex 491.856900 -59.000000 -14.318880
      vertex 491.856900 56.000000 -14.318880
      vertex 492.162600 -59.000000 -14.472000
    endloop
  endfacet
  facet normal -0.447845 -0.000000 -0.894111
    outer loop
      vertex 492.162600 -59.000000 -14.472000
      vertex 491.856900 56.000000 -14.318880
      vertex 492.162600 56.000000 -14.472000
    endloop
  endfacet
  facet normal -0.636843 -0.000000 -0.770993
    outer loop
      vertex 491.700000 -59.000000 -14.189280
      vertex 491.700000 56.000000 -14.189280
      vertex 491.856900 -59.000000 -14.318880
    endloop
  endfacet
  facet normal -0.636843 -0.000000 -0.770993
    outer loop
      vertex 491.856900 -59.000000 -14.318880
      vertex 491.700000 56.000000 -14.189280
      vertex 491.856900 56.000000 -14.318880
    endloop
  endfacet
  facet normal 1.000000 0.000000 0.000000
    outer loop
      vertex 496.190983 56.000000 -13.087785
      vertex 496.190983 56.000000 -11.912215
      vertex 496.190983 -59.000000 -11.912215
    endloop
  endfacet
  facet normal 1.000000 0.000000 0.000000
    outer loop
      vertex 496.190983 -59.000000 -13.087785
      vertex 496.190983 56.000000 -13.087785
      vertex 496.190983 -59.000000 -11.912215
    endloop
  endfacet
  facet normal 0.309018 -0.000000 -0.951056
    outer loop
      vertex 497.309017 56.000000 -11.548943
      vertex 497.309017 -59.000000 -11.548943
      vertex 496.190983 56.000000 -11.912215
    endloop
  endfacet
  facet normal 0.309018 -0.000000 -0.951056
    outer loop
      vertex 496.190983 56.000000 -11.912215
      vertex 497.309017 -59.000000 -11.548943
      vertex 496.190983 -59.000000 -11.912215
    endloop
  endfacet
  facet normal 0.309018 0.000000 0.951056
    outer loop
      vertex 497.309017 -59.000000 -13.451057
      vertex 497.309017 56.000000 -13.451057
      vertex 496.190983 56.000000 -13.087785
    endloop
  endfacet
  facet normal 0.309018 0.000000 0.951056
    outer loop
      vertex 496.190983 -59.000000 -13.087785
      vertex 497.309017 -59.000000 -13.451057
      vertex 496.190983 56.000000 -13.087785
    endloop
  endfacet
  facet normal -0.809017 0.000000 0.587785
    outer loop
      vertex 498.000000 56.000000 -12.500000
      vertex 497.309017 56.000000 -13.451057
      vertex 498.000000 -59.000000 -12.500000
    endloop
  endfacet
  facet normal -0.809017 0.000000 0.587785
    outer loop
      vertex 498.000000 -59.000000 -12.500000
      vertex 497.309017 56.000000 -13.451057
      vertex 497.309017 -59.000000 -13.451057
    endloop
  endfacet
  facet normal -0.809017 -0.000000 -0.587785
    outer loop
      vertex 498.000000 56.000000 -12.500000
      vertex 498.000000 -59.000000 -12.500000
      vertex 497.309017 56.000000 -11.548943
    endloop
  endfacet
  facet normal -0.809017 -0.000000 -0.587785
    outer loop
      vertex 497.309017 56.000000 -11.548943
      vertex 498.000000 -59.000000 -12.500000
      vertex 497.309017 -59.000000 -11.548943
    endloop
  endfacet
  facet normal -1.000000 0.000000 0.000000
    outer loop
      vertex 506.000000 68.571429 -10.937538
      vertex 506.000000 68.571429 -14.500000
      vertex 506.000000 56.000000 -10.937538
    endloop
  endfacet
  facet normal -1.000000 0.000000 0.000000
    outer loop
      vertex 506.000000 56.000000 -10.937538
      vertex 506.000000 68.571429 -14.500000
      vertex 506.000000 56.000000 -14.500000
    endloop
  endfacet
  facet normal 0.000000 1.000000 0.000000
    outer loop
      vertex 506.000000 68.571429 -14.500000
      vertex 506.000000 68.571429 -10.937538
      vertex 542.646244 68.571429 -14.500000
    endloop
  endfacet
  facet normal 0.000000 1.000000 0.000000
    outer loop
      vertex 542.646244 68.571429 -14.500000
      vertex 506.000000 68.571429 -10.937538
      vertex 507.687900 68.571429 -10.976640
    endloop
  endfacet
  facet normal 0.000000 1.000000 0.000000
    outer loop
      vertex 542.646244 68.571429 -14.500000
      vertex 507.687900 68.571429 -10.976640
      vertex 517.944600 68.571429 -11.282880
    endloop
  endfacet
  facet normal 0.000000 1.000000 0.000000
    outer loop
      vertex 542.646244 68.571429 -14.500000
      vertex 517.944600 68.571429 -11.282880
      vertex 526.635300 68.571429 -11.617680
    endloop
  endfacet
  facet normal 0.000000 1.000000 0.000000
    outer loop
      vertex 542.646244 68.571429 -14.500000
      vertex 526.635300 68.571429 -11.617680
      vertex 533.756700 68.571429 -11.976960
    endloop
  endfacet
  facet normal 0.000000 1.000000 0.000000
    outer loop
      vertex 542.646244 68.571429 -14.500000
      vertex 533.756700 68.571429 -11.976960
      vertex 539.306700 68.571429 -12.356640
    endloop
  endfacet
  facet normal 0.000000 1.000000 0.000000
    outer loop
      vertex 542.646244 68.571429 -14.500000
      vertex 539.306700 68.571429 -12.356640
      vertex 543.282300 68.571429 -12.752880
    endloop
  endfacet
  facet normal 0.000000 1.000000 0.000000
    outer loop
      vertex 542.646244 68.571429 -14.500000
      vertex 543.282300 68.571429 -12.752880
      vertex 545.681100 68.571429 -13.161360
    endloop
  endfacet
  facet normal 0.000000 1.000000 0.000000
    outer loop
      vertex 542.646244 68.571429 -14.500000
      vertex 545.681100 68.571429 -13.161360
      vertex 546.500100 68.571429 -13.578240
    endloop
  endfacet
  facet normal 0.000000 1.000000 0.000000
    outer loop
      vertex 542.646244 68.571429 -14.500000
      vertex 546.500100 68.571429 -13.578240
      vertex 545.736900 68.571429 -13.999440
    endloop
  endfacet
  facet normal 0.000000 1.000000 0.000000
    outer loop
      vertex 542.646244 68.571429 -14.500000
      vertex 545.736900 68.571429 -13.999440
      vertex 543.388800 68.571429 -14.421120
    endloop
  endfacet
  facet normal 0.029844 0.000000 0.999555
    outer loop
      vertex 507.687900 68.571429 -10.976640
      vertex 507.687900 -71.428571 -10.976640
      vertex 517.944600 -71.428571 -11.282880
    endloop
  endfacet
  facet normal 0.029844 0.000000 0.999555
    outer loop
      vertex 517.944600 68.571429 -11.282880
      vertex 507.687900 68.571429 -10.976640
      vertex 517.944600 -71.428571 -11.282880
    endloop
  endfacet
  facet normal 0.000000 -1.000000 0.000000
    outer loop
      vertex 506.000000 -71.428571 -10.937538
      vertex 506.000000 -71.428571 -14.500000
      vertex 542.646244 -71.428571 -14.500000
    endloop
  endfacet
  facet normal 0.000000 -1.000000 0.000000
    outer loop
      vertex 545.736900 -71.428571 -13.999440
      vertex 506.000000 -71.428571 -10.937538
      vertex 543.388800 -71.428571 -14.421120
    endloop
  endfacet
  facet normal 0.000000 -1.000000 0.000000
    outer loop
      vertex 543.388800 -71.428571 -14.421120
      vertex 506.000000 -71.428571 -10.937538
      vertex 542.646244 -71.428571 -14.500000
    endloop
  endfacet
  facet normal 0.000000 -1.000000 0.000000
    outer loop
      vertex 546.500100 -71.428571 -13.578240
      vertex 506.000000 -71.428571 -10.937538
      vertex 545.736900 -71.428571 -13.999440
    endloop
  endfacet
  facet normal 0.000000 -1.000000 0.000000
    outer loop
      vertex 545.681100 -71.428571 -13.161360
      vertex 506.000000 -71.428571 -10.937538
      vertex 546.500100 -71.428571 -13.578240
    endloop
  endfacet
  facet normal 0.000000 -1.000000 0.000000
    outer loop
      vertex 543.282300 -71.428571 -12.752880
      vertex 506.000000 -71.428571 -10.937538
      vertex 545.681100 -71.428571 -13.161360
    endloop
  endfacet
  facet normal 0.000000 -1.000000 0.000000
    outer loop
      vertex 539.306700 -71.428571 -12.356640
      vertex 506.000000 -71.428571 -10.937538
      vertex 543.282300 -71.428571 -12.752880
    endloop
  endfacet
  facet normal 0.000000 -1.000000 0.000000
    outer loop
      vertex 533.756700 -71.428571 -11.976960
      vertex 506.000000 -71.428571 -10.937538
      vertex 539.306700 -71.428571 -12.356640
    endloop
  endfacet
  facet normal 0.000000 -1.000000 0.000000
    outer loop
      vertex 526.635300 -71.428571 -11.617680
      vertex 506.000000 -71.428571 -10.937538
      vertex 533.756700 -71.428571 -11.976960
    endloop
  endfacet
  facet normal 0.000000 -1.000000 0.000000
    outer loop
      vertex 517.944600 -71.428571 -11.282880
      vertex 506.000000 -71.428571 -10.937538
      vertex 526.635300 -71.428571 -11.617680
    endloop
  endfacet
  facet normal 0.000000 -1.000000 0.000000
    outer loop
      vertex 507.687900 -71.428571 -10.976640
      vertex 506.000000 -71.428571 -10.937538
      vertex 517.944600 -71.428571 -11.282880
    endloop
  endfacet
  facet normal 0.105633 -0.000000 -0.994405
    outer loop
      vertex 542.646244 -71.428571 -14.500000
      vertex 542.646244 68.571429 -14.500000
      vertex 543.388800 -71.428571 -14.421120
    endloop
  endfacet
  facet normal 0.105633 -0.000000 -0.994405
    outer loop
      vertex 543.388800 -71.428571 -14.421120
      vertex 542.646244 68.571429 -14.500000
      vertex 543.388800 68.571429 -14.421120
    endloop
  endfacet
  facet normal 0.176756 -0.000000 -0.984255
    outer loop
      vertex 543.388800 -71.428571 -14.421120
      vertex 543.388800 68.571429 -14.421120
      vertex 545.736900 -71.428571 -13.999440
    endloop
  endfacet
  facet normal 0.176756 -0.000000 -0.984255
    outer loop
      vertex 545.736900 -71.428571 -13.999440
      vertex 543.388800 68.571429 -14.421120
      vertex 545.736900 68.571429 -13.999440
    endloop
  endfacet
  facet normal 0.483187 -0.000000 -0.875517
    outer loop
      vertex 545.736900 -71.428571 -13.999440
      vertex 545.736900 68.571429 -13.999440
      vertex 546.500100 -71.428571 -13.578240
    endloop
  endfacet
  facet normal 0.483187 -0.000000 -0.875517
    outer loop
      vertex 546.500100 -71.428571 -13.578240
      vertex 545.736900 68.571429 -13.999440
      vertex 546.500100 68.571429 -13.578240
    endloop
  endfacet
  facet normal 0.453626 0.000000 0.891192
    outer loop
      vertex 545.681100 68.571429 -13.161360
      vertex 545.681100 -71.428571 -13.161360
      vertex 546.500100 -71.428571 -13.578240
    endloop
  endfacet
  facet normal 0.453626 0.000000 0.891192
    outer loop
      vertex 546.500100 68.571429 -13.578240
      vertex 545.681100 68.571429 -13.161360
      vertex 546.500100 -71.428571 -13.578240
    endloop
  endfacet
  facet normal 0.167869 0.000000 0.985809
    outer loop
      vertex 543.282300 68.571429 -12.752880
      vertex 543.282300 -71.428571 -12.752880
      vertex 545.681100 -71.428571 -13.161360
    endloop
  endfacet
  facet normal 0.167869 0.000000 0.985809
    outer loop
      vertex 545.681100 68.571429 -13.161360
      vertex 543.282300 68.571429 -12.752880
      vertex 545.681100 -71.428571 -13.161360
    endloop
  endfacet
  facet normal 0.099177 0.000000 0.995070
    outer loop
      vertex 539.306700 68.571429 -12.356640
      vertex 539.306700 -71.428571 -12.356640
      vertex 543.282300 -71.428571 -12.752880
    endloop
  endfacet
  facet normal 0.099177 0.000000 0.995070
    outer loop
      vertex 543.282300 68.571429 -12.752880
      vertex 539.306700 68.571429 -12.356640
      vertex 543.282300 -71.428571 -12.752880
    endloop
  endfacet
  facet normal 0.068251 0.000000 0.997668
    outer loop
      vertex 533.756700 68.571429 -11.976960
      vertex 533.756700 -71.428571 -11.976960
      vertex 539.306700 -71.428571 -12.356640
    endloop
  endfacet
  facet normal 0.068251 0.000000 0.997668
    outer loop
      vertex 539.306700 68.571429 -12.356640
      vertex 533.756700 68.571429 -11.976960
      vertex 539.306700 -71.428571 -12.356640
    endloop
  endfacet
  facet normal 0.050387 0.000000 0.998730
    outer loop
      vertex 526.635300 68.571429 -11.617680
      vertex 526.635300 -71.428571 -11.617680
      vertex 533.756700 -71.428571 -11.976960
    endloop
  endfacet
  facet normal 0.050387 0.000000 0.998730
    outer loop
      vertex 533.756700 68.571429 -11.976960
      vertex 526.635300 68.571429 -11.617680
      vertex 533.756700 -71.428571 -11.976960
    endloop
  endfacet
  facet normal 0.038495 0.000000 0.999259
    outer loop
      vertex 517.944600 68.571429 -11.282880
      vertex 517.944600 -71.428571 -11.282880
      vertex 526.635300 -71.428571 -11.617680
    endloop
  endfacet
  facet normal 0.038495 0.000000 0.999259
    outer loop
      vertex 526.635300 68.571429 -11.617680
      vertex 517.944600 68.571429 -11.282880
      vertex 526.635300 -71.428571 -11.617680
    endloop
  endfacet
endsolid OpenSCAD_Model
