solid OpenSCAD_Model
  facet normal -1.000000 0.000000 0.000000
    outer loop
      vertex 415.000000 10.000000 20.500000
      vertex 415.000000 10.000000 17.500000
      vertex 415.000000 -10.000000 20.500000
    endloop
  endfacet
  facet normal -1.000000 0.000000 0.000000
    outer loop
      vertex 415.000000 -10.000000 20.500000
      vertex 415.000000 10.000000 17.500000
      vertex 415.000000 -10.000000 17.500000
    endloop
  endfacet
  facet normal 0.000000 1.000000 -0.000000
    outer loop
      vertex 415.000000 10.000000 20.500000
      vertex 485.000000 10.000000 20.500000
      vertex 415.000000 10.000000 17.500000
    endloop
  endfacet
  facet normal 0.000000 1.000000 0.000000
    outer loop
      vertex 415.000000 10.000000 17.500000
      vertex 485.000000 10.000000 20.500000
      vertex 485.000000 10.000000 17.500000
    endloop
  endfacet
  facet normal 0.000000 0.000000 1.000000
    outer loop
      vertex 423.198062 5.132233 20.500000
      vertex 415.000000 10.000000 20.500000
      vertex 415.000000 -10.000000 20.500000
    endloop
  endfacet
  facet normal -0.000000 0.000000 1.000000
    outer loop
      vertex 473.198062 7.132233 20.500000
      vertex 473.198062 8.867767 20.500000
      vertex 451.246980 5.436337 20.500000
    endloop
  endfacet
  facet normal 0.000000 0.000000 1.000000
    outer loop
      vertex 424.554958 4.050144 20.500000
      vertex 423.198062 5.132233 20.500000
      vertex 415.000000 -10.000000 20.500000
    endloop
  endfacet
  facet normal -0.000000 0.000000 1.000000
    outer loop
      vertex 423.198062 6.867767 20.500000
      vertex 415.000000 10.000000 20.500000
      vertex 423.198062 5.132233 20.500000
    endloop
  endfacet
  facet normal -0.000000 0.000000 1.000000
    outer loop
      vertex 424.554958 7.949856 20.500000
      vertex 415.000000 10.000000 20.500000
      vertex 423.198062 6.867767 20.500000
    endloop
  endfacet
  facet normal -0.000000 0.000000 1.000000
    outer loop
      vertex 449.554958 8.949856 20.500000
      vertex 415.000000 10.000000 20.500000
      vertex 424.554958 7.949856 20.500000
    endloop
  endfacet
  facet normal -0.000000 0.000000 1.000000
    outer loop
      vertex 424.554958 -7.949856 20.500000
      vertex 423.198062 -6.867767 20.500000
      vertex 415.000000 -10.000000 20.500000
    endloop
  endfacet
  facet normal 0.000000 0.000000 1.000000
    outer loop
      vertex 474.554958 -9.949856 20.500000
      vertex 452.000000 -7.000000 20.500000
      vertex 451.246980 -8.563663 20.500000
    endloop
  endfacet
  facet normal -0.000000 0.000000 1.000000
    outer loop
      vertex 423.198062 -5.132233 20.500000
      vertex 426.246980 4.436337 20.500000
      vertex 415.000000 -10.000000 20.500000
    endloop
  endfacet
  facet normal -0.000000 0.000000 1.000000
    outer loop
      vertex 473.198062 8.867767 20.500000
      vertex 449.554958 8.949856 20.500000
      vertex 451.246980 8.563663 20.500000
    endloop
  endfacet
  facet normal -0.000000 0.000000 1.000000
    outer loop
      vertex 426.246980 4.436337 20.500000
      vertex 424.554958 4.050144 20.500000
      vertex 415.000000 -10.000000 20.500000
    endloop
  endfacet
  facet normal -0.000000 0.000000 1.000000
    outer loop
      vertex 423.198062 -6.867767 20.500000
      vertex 423.198062 -5.132233 20.500000
      vertex 415.000000 -10.000000 20.500000
    endloop
  endfacet
  facet normal 0.000000 0.000000 1.000000
    outer loop
      vertex 473.198062 8.867767 20.500000
      vertex 451.246980 8.563663 20.500000
      vertex 452.000000 7.000000 20.500000
    endloop
  endfacet
  facet normal -0.000000 0.000000 1.000000
    outer loop
      vertex 448.198062 6.132233 20.500000
      vertex 426.246980 4.436337 20.500000
      vertex 424.554958 -4.050144 20.500000
    endloop
  endfacet
  facet normal 0.000000 0.000000 1.000000
    outer loop
      vertex 449.554958 -8.949856 20.500000
      vertex 426.246980 -7.563663 20.500000
      vertex 424.554958 -7.949856 20.500000
    endloop
  endfacet
  facet normal 0.000000 0.000000 1.000000
    outer loop
      vertex 473.198062 7.132233 20.500000
      vertex 424.554958 -4.050144 20.500000
      vertex 426.246980 -4.436337 20.500000
    endloop
  endfacet
  facet normal -0.000000 0.000000 1.000000
    outer loop
      vertex 423.198062 -5.132233 20.500000
      vertex 424.554958 -4.050144 20.500000
      vertex 426.246980 4.436337 20.500000
    endloop
  endfacet
  facet normal 0.000000 0.000000 1.000000
    outer loop
      vertex 448.198062 6.132233 20.500000
      vertex 427.000000 6.000000 20.500000
      vertex 426.246980 4.436337 20.500000
    endloop
  endfacet
  facet normal 0.000000 0.000000 1.000000
    outer loop
      vertex 476.246980 6.436337 20.500000
      vertex 480.000000 3.000000 20.500000
      vertex 485.000000 10.000000 20.500000
    endloop
  endfacet
  facet normal -0.000000 0.000000 1.000000
    outer loop
      vertex 449.554958 -8.949856 20.500000
      vertex 424.554958 -7.949856 20.500000
      vertex 415.000000 -10.000000 20.500000
    endloop
  endfacet
  facet normal 0.000000 0.000000 1.000000
    outer loop
      vertex 473.198062 -7.132233 20.500000
      vertex 474.554958 -6.050144 20.500000
      vertex 460.784271 -3.000000 20.500000
    endloop
  endfacet
  facet normal 0.000000 0.000000 1.000000
    outer loop
      vertex 449.554958 5.050144 20.500000
      vertex 448.198062 6.132233 20.500000
      vertex 424.554958 -4.050144 20.500000
    endloop
  endfacet
  facet normal 0.000000 0.000000 1.000000
    outer loop
      vertex 460.784271 -3.000000 20.500000
      vertex 449.554958 -5.050144 20.500000
      vertex 451.246980 -5.436337 20.500000
    endloop
  endfacet
  facet normal -0.000000 0.000000 1.000000
    outer loop
      vertex 474.554958 9.949856 20.500000
      vertex 415.000000 10.000000 20.500000
      vertex 449.554958 8.949856 20.500000
    endloop
  endfacet
  facet normal 0.000000 0.000000 1.000000
    outer loop
      vertex 474.554958 -9.949856 20.500000
      vertex 451.246980 -8.563663 20.500000
      vertex 449.554958 -8.949856 20.500000
    endloop
  endfacet
  facet normal 0.000000 0.000000 1.000000
    outer loop
      vertex 448.198062 7.867767 20.500000
      vertex 449.554958 8.949856 20.500000
      vertex 424.554958 7.949856 20.500000
    endloop
  endfacet
  facet normal 0.000000 -0.000000 1.000000
    outer loop
      vertex 427.000000 -6.000000 20.500000
      vertex 426.246980 -7.563663 20.500000
      vertex 460.784271 3.000000 20.500000
    endloop
  endfacet
  facet normal -0.000000 0.000000 1.000000
    outer loop
      vertex 451.246980 5.436337 20.500000
      vertex 449.554958 5.050144 20.500000
      vertex 424.554958 -4.050144 20.500000
    endloop
  endfacet
  facet normal 0.000000 0.000000 1.000000
    outer loop
      vertex 448.198062 -7.867767 20.500000
      vertex 448.198062 -6.132233 20.500000
      vertex 426.246980 -7.563663 20.500000
    endloop
  endfacet
  facet normal -0.000000 0.000000 1.000000
    outer loop
      vertex 448.198062 -6.132233 20.500000
      vertex 449.554958 -5.050144 20.500000
      vertex 426.246980 -7.563663 20.500000
    endloop
  endfacet
  facet normal 0.000000 0.000000 1.000000
    outer loop
      vertex 474.554958 6.050144 20.500000
      vertex 473.198062 7.132233 20.500000
      vertex 426.246980 -4.436337 20.500000
    endloop
  endfacet
  facet normal 0.000000 0.000000 1.000000
    outer loop
      vertex 473.198062 8.867767 20.500000
      vertex 474.554958 9.949856 20.500000
      vertex 449.554958 8.949856 20.500000
    endloop
  endfacet
  facet normal -0.000000 0.000000 1.000000
    outer loop
      vertex 474.554958 -9.949856 20.500000
      vertex 449.554958 -8.949856 20.500000
      vertex 415.000000 -10.000000 20.500000
    endloop
  endfacet
  facet normal 0.000000 0.000000 1.000000
    outer loop
      vertex 460.784271 3.000000 20.500000
      vertex 426.246980 -4.436337 20.500000
      vertex 427.000000 -6.000000 20.500000
    endloop
  endfacet
  facet normal 0.000000 0.000000 1.000000
    outer loop
      vertex 473.198062 -8.867767 20.500000
      vertex 460.784271 -3.000000 20.500000
      vertex 452.000000 -7.000000 20.500000
    endloop
  endfacet
  facet normal -0.000000 0.000000 1.000000
    outer loop
      vertex 485.000000 -10.000000 20.500000
      vertex 485.000000 10.000000 20.500000
      vertex 480.000000 3.000000 20.500000
    endloop
  endfacet
  facet normal 0.000000 0.000000 1.000000
    outer loop
      vertex 474.554958 -6.050144 20.500000
      vertex 480.000000 -3.000000 20.500000
      vertex 460.784271 -3.000000 20.500000
    endloop
  endfacet
  facet normal 0.000000 0.000000 1.000000
    outer loop
      vertex 485.000000 -10.000000 20.500000
      vertex 480.000000 3.000000 20.500000
      vertex 480.000000 -3.000000 20.500000
    endloop
  endfacet
  facet normal 0.000000 -0.000000 1.000000
    outer loop
      vertex 477.000000 8.000000 20.500000
      vertex 476.246980 6.436337 20.500000
      vertex 485.000000 10.000000 20.500000
    endloop
  endfacet
  facet normal 0.000000 0.000000 1.000000
    outer loop
      vertex 460.784271 -3.000000 20.500000
      vertex 451.246980 -5.436337 20.500000
      vertex 452.000000 -7.000000 20.500000
    endloop
  endfacet
  facet normal 0.000000 0.000000 1.000000
    outer loop
      vertex 485.000000 10.000000 20.500000
      vertex 415.000000 10.000000 20.500000
      vertex 474.554958 9.949856 20.500000
    endloop
  endfacet
  facet normal -0.000000 0.000000 1.000000
    outer loop
      vertex 448.198062 7.867767 20.500000
      vertex 424.554958 7.949856 20.500000
      vertex 426.246980 7.563663 20.500000
    endloop
  endfacet
  facet normal 0.000000 0.000000 1.000000
    outer loop
      vertex 476.246980 9.563663 20.500000
      vertex 477.000000 8.000000 20.500000
      vertex 485.000000 10.000000 20.500000
    endloop
  endfacet
  facet normal 0.000000 0.000000 1.000000
    outer loop
      vertex 474.554958 -9.949856 20.500000
      vertex 473.198062 -8.867767 20.500000
      vertex 452.000000 -7.000000 20.500000
    endloop
  endfacet
  facet normal -0.000000 0.000000 1.000000
    outer loop
      vertex 473.198062 7.132233 20.500000
      vertex 451.246980 5.436337 20.500000
      vertex 424.554958 -4.050144 20.500000
    endloop
  endfacet
  facet normal 0.000000 0.000000 1.000000
    outer loop
      vertex 460.784271 3.000000 20.500000
      vertex 480.000000 3.000000 20.500000
      vertex 474.554958 6.050144 20.500000
    endloop
  endfacet
  facet normal 0.000000 -0.000000 1.000000
    outer loop
      vertex 474.554958 6.050144 20.500000
      vertex 426.246980 -4.436337 20.500000
      vertex 460.784271 3.000000 20.500000
    endloop
  endfacet
  facet normal 0.000000 0.000000 1.000000
    outer loop
      vertex 474.554958 6.050144 20.500000
      vertex 480.000000 3.000000 20.500000
      vertex 476.246980 6.436337 20.500000
    endloop
  endfacet
  facet normal -0.000000 0.000000 1.000000
    outer loop
      vertex 473.198062 -7.132233 20.500000
      vertex 460.784271 -3.000000 20.500000
      vertex 473.198062 -8.867767 20.500000
    endloop
  endfacet
  facet normal 0.000000 -0.000000 1.000000
    outer loop
      vertex 477.000000 -8.000000 20.500000
      vertex 476.246980 -9.563663 20.500000
      vertex 485.000000 -10.000000 20.500000
    endloop
  endfacet
  facet normal 0.000000 0.000000 1.000000
    outer loop
      vertex 476.246980 -6.436337 20.500000
      vertex 480.000000 -3.000000 20.500000
      vertex 474.554958 -6.050144 20.500000
    endloop
  endfacet
  facet normal 0.000000 0.000000 1.000000
    outer loop
      vertex 485.000000 -10.000000 20.500000
      vertex 480.000000 -3.000000 20.500000
      vertex 476.246980 -6.436337 20.500000
    endloop
  endfacet
  facet normal 0.000000 0.000000 1.000000
    outer loop
      vertex 476.246980 -6.436337 20.500000
      vertex 477.000000 -8.000000 20.500000
      vertex 485.000000 -10.000000 20.500000
    endloop
  endfacet
  facet normal 0.000000 -0.000000 1.000000
    outer loop
      vertex 476.246980 -9.563663 20.500000
      vertex 474.554958 -9.949856 20.500000
      vertex 485.000000 -10.000000 20.500000
    endloop
  endfacet
  facet normal -0.000000 0.000000 1.000000
    outer loop
      vertex 485.000000 -10.000000 20.500000
      vertex 474.554958 -9.949856 20.500000
      vertex 415.000000 -10.000000 20.500000
    endloop
  endfacet
  facet normal 0.000000 0.000000 1.000000
    outer loop
      vertex 474.554958 9.949856 20.500000
      vertex 476.246980 9.563663 20.500000
      vertex 485.000000 10.000000 20.500000
    endloop
  endfacet
  facet normal 0.000000 -0.000000 1.000000
    outer loop
      vertex 452.000000 7.000000 20.500000
      vertex 451.246980 5.436337 20.500000
      vertex 473.198062 8.867767 20.500000
    endloop
  endfacet
  facet normal 0.000000 0.000000 1.000000
    outer loop
      vertex 449.554958 -8.949856 20.500000
      vertex 448.198062 -7.867767 20.500000
      vertex 426.246980 -7.563663 20.500000
    endloop
  endfacet
  facet normal 0.000000 0.000000 1.000000
    outer loop
      vertex 426.246980 7.563663 20.500000
      vertex 427.000000 6.000000 20.500000
      vertex 448.198062 7.867767 20.500000
    endloop
  endfacet
  facet normal -0.000000 0.000000 1.000000
    outer loop
      vertex 448.198062 6.132233 20.500000
      vertex 448.198062 7.867767 20.500000
      vertex 427.000000 6.000000 20.500000
    endloop
  endfacet
  facet normal 0.000000 0.000000 1.000000
    outer loop
      vertex 460.784271 -3.000000 20.500000
      vertex 426.246980 -7.563663 20.500000
      vertex 449.554958 -5.050144 20.500000
    endloop
  endfacet
  facet normal -0.000000 0.000000 1.000000
    outer loop
      vertex 460.784271 -3.000000 20.500000
      vertex 460.784271 3.000000 20.500000
      vertex 426.246980 -7.563663 20.500000
    endloop
  endfacet
  facet normal 0.000000 -1.000000 0.000000
    outer loop
      vertex 485.000000 -10.000000 20.500000
      vertex 415.000000 -10.000000 20.500000
      vertex 415.000000 -10.000000 17.500000
    endloop
  endfacet
  facet normal 0.000000 -1.000000 0.000000
    outer loop
      vertex 485.000000 -10.000000 17.500000
      vertex 485.000000 -10.000000 20.500000
      vertex 415.000000 -10.000000 17.500000
    endloop
  endfacet
  facet normal -0.000000 -0.000000 -1.000000
    outer loop
      vertex 477.000000 -8.000000 17.500000
      vertex 485.000000 10.000000 17.500000
      vertex 485.000000 -10.000000 17.500000
    endloop
  endfacet
  facet normal -0.000000 -0.000000 -1.000000
    outer loop
      vertex 415.000000 10.000000 17.500000
      vertex 423.198062 6.867767 17.500000
      vertex 415.000000 -10.000000 17.500000
    endloop
  endfacet
  facet normal 0.000000 0.000000 -1.000000
    outer loop
      vertex 449.554958 -8.949856 17.500000
      vertex 426.246980 -7.563663 17.500000
      vertex 448.198062 -7.867767 17.500000
    endloop
  endfacet
  facet normal -0.000000 0.000000 -1.000000
    outer loop
      vertex 423.198062 6.867767 17.500000
      vertex 423.198062 5.132233 17.500000
      vertex 415.000000 -10.000000 17.500000
    endloop
  endfacet
  facet normal -0.000000 0.000000 -1.000000
    outer loop
      vertex 452.000000 7.000000 17.500000
      vertex 473.198062 8.867767 17.500000
      vertex 451.246980 5.436337 17.500000
    endloop
  endfacet
  facet normal -0.000000 -0.000000 -1.000000
    outer loop
      vertex 423.198062 5.132233 17.500000
      vertex 424.554958 4.050144 17.500000
      vertex 415.000000 -10.000000 17.500000
    endloop
  endfacet
  facet normal 0.000000 0.000000 -1.000000
    outer loop
      vertex 473.198062 -8.867767 17.500000
      vertex 451.246980 -5.436337 17.500000
      vertex 473.198062 -7.132233 17.500000
    endloop
  endfacet
  facet normal 0.000000 0.000000 -1.000000
    outer loop
      vertex 448.198062 6.132233 17.500000
      vertex 427.000000 6.000000 17.500000
      vertex 448.198062 7.867767 17.500000
    endloop
  endfacet
  facet normal 0.000000 -0.000000 -1.000000
    outer loop
      vertex 448.198062 7.867767 17.500000
      vertex 424.554958 7.949856 17.500000
      vertex 449.554958 8.949856 17.500000
    endloop
  endfacet
  facet normal 0.000000 -0.000000 -1.000000
    outer loop
      vertex 424.554958 4.050144 17.500000
      vertex 423.198062 -5.132233 17.500000
      vertex 415.000000 -10.000000 17.500000
    endloop
  endfacet
  facet normal -0.000000 -0.000000 -1.000000
    outer loop
      vertex 424.554958 -4.050144 17.500000
      vertex 473.198062 7.132233 17.500000
      vertex 426.246980 -4.436337 17.500000
    endloop
  endfacet
  facet normal 0.000000 0.000000 -1.000000
    outer loop
      vertex 423.198062 -5.132233 17.500000
      vertex 423.198062 -6.867767 17.500000
      vertex 415.000000 -10.000000 17.500000
    endloop
  endfacet
  facet normal -0.000000 0.000000 -1.000000
    outer loop
      vertex 476.246980 9.563663 17.500000
      vertex 485.000000 10.000000 17.500000
      vertex 477.000000 8.000000 17.500000
    endloop
  endfacet
  facet normal -0.000000 -0.000000 -1.000000
    outer loop
      vertex 474.554958 6.050144 17.500000
      vertex 427.000000 -6.000000 17.500000
      vertex 426.246980 -4.436337 17.500000
    endloop
  endfacet
  facet normal 0.000000 -0.000000 -1.000000
    outer loop
      vertex 424.554958 4.050144 17.500000
      vertex 424.554958 -4.050144 17.500000
      vertex 423.198062 -5.132233 17.500000
    endloop
  endfacet
  facet normal 0.000000 -0.000000 -1.000000
    outer loop
      vertex 473.198062 7.132233 17.500000
      vertex 424.554958 -4.050144 17.500000
      vertex 449.554958 5.050144 17.500000
    endloop
  endfacet
  facet normal 0.000000 0.000000 -1.000000
    outer loop
      vertex 474.554958 -9.949856 17.500000
      vertex 452.000000 -7.000000 17.500000
      vertex 473.198062 -8.867767 17.500000
    endloop
  endfacet
  facet normal 0.000000 -0.000000 -1.000000
    outer loop
      vertex 424.554958 4.050144 17.500000
      vertex 448.198062 6.132233 17.500000
      vertex 424.554958 -4.050144 17.500000
    endloop
  endfacet
  facet normal -0.000000 -0.000000 -1.000000
    outer loop
      vertex 474.554958 6.050144 17.500000
      vertex 426.246980 -4.436337 17.500000
      vertex 473.198062 7.132233 17.500000
    endloop
  endfacet
  facet normal -0.000000 -0.000000 -1.000000
    outer loop
      vertex 448.198062 6.132233 17.500000
      vertex 449.554958 5.050144 17.500000
      vertex 424.554958 -4.050144 17.500000
    endloop
  endfacet
  facet normal 0.000000 0.000000 -1.000000
    outer loop
      vertex 449.554958 -8.949856 17.500000
      vertex 424.554958 -7.949856 17.500000
      vertex 426.246980 -7.563663 17.500000
    endloop
  endfacet
  facet normal 0.000000 0.000000 -1.000000
    outer loop
      vertex 448.198062 6.132233 17.500000
      vertex 424.554958 4.050144 17.500000
      vertex 426.246980 4.436337 17.500000
    endloop
  endfacet
  facet normal 0.000000 0.000000 -1.000000
    outer loop
      vertex 448.198062 6.132233 17.500000
      vertex 426.246980 4.436337 17.500000
      vertex 427.000000 6.000000 17.500000
    endloop
  endfacet
  facet normal 0.000000 0.000000 -1.000000
    outer loop
      vertex 424.554958 -7.949856 17.500000
      vertex 415.000000 -10.000000 17.500000
      vertex 423.198062 -6.867767 17.500000
    endloop
  endfacet
  facet normal 0.000000 0.000000 -1.000000
    outer loop
      vertex 415.000000 10.000000 17.500000
      vertex 449.554958 8.949856 17.500000
      vertex 424.554958 7.949856 17.500000
    endloop
  endfacet
  facet normal 0.000000 0.000000 -1.000000
    outer loop
      vertex 473.198062 8.867767 17.500000
      vertex 452.000000 7.000000 17.500000
      vertex 451.246980 8.563663 17.500000
    endloop
  endfacet
  facet normal -0.000000 0.000000 -1.000000
    outer loop
      vertex 426.246980 -7.563663 17.500000
      vertex 448.198062 -6.132233 17.500000
      vertex 448.198062 -7.867767 17.500000
    endloop
  endfacet
  facet normal 0.000000 0.000000 -1.000000
    outer loop
      vertex 451.246980 -5.436337 17.500000
      vertex 473.198062 -8.867767 17.500000
      vertex 452.000000 -7.000000 17.500000
    endloop
  endfacet
  facet normal 0.000000 0.000000 -1.000000
    outer loop
      vertex 415.000000 -10.000000 17.500000
      vertex 424.554958 -7.949856 17.500000
      vertex 449.554958 -8.949856 17.500000
    endloop
  endfacet
  facet normal 0.000000 0.000000 -1.000000
    outer loop
      vertex 477.000000 -8.000000 17.500000
      vertex 485.000000 -10.000000 17.500000
      vertex 476.246980 -9.563663 17.500000
    endloop
  endfacet
  facet normal -0.000000 0.000000 -1.000000
    outer loop
      vertex 474.554958 9.949856 17.500000
      vertex 485.000000 10.000000 17.500000
      vertex 476.246980 9.563663 17.500000
    endloop
  endfacet
  facet normal 0.000000 0.000000 -1.000000
    outer loop
      vertex 474.554958 -9.949856 17.500000
      vertex 449.554958 -8.949856 17.500000
      vertex 451.246980 -8.563663 17.500000
    endloop
  endfacet
  facet normal 0.000000 0.000000 -1.000000
    outer loop
      vertex 473.198062 8.867767 17.500000
      vertex 451.246980 8.563663 17.500000
      vertex 449.554958 8.949856 17.500000
    endloop
  endfacet
  facet normal -0.000000 -0.000000 -1.000000
    outer loop
      vertex 449.554958 -5.050144 17.500000
      vertex 485.000000 10.000000 17.500000
      vertex 451.246980 -5.436337 17.500000
    endloop
  endfacet
  facet normal 0.000000 -0.000000 -1.000000
    outer loop
      vertex 476.246980 6.436337 17.500000
      vertex 485.000000 10.000000 17.500000
      vertex 449.554958 -5.050144 17.500000
    endloop
  endfacet
  facet normal 0.000000 0.000000 -1.000000
    outer loop
      vertex 426.246980 -7.563663 17.500000
      vertex 449.554958 -5.050144 17.500000
      vertex 448.198062 -6.132233 17.500000
    endloop
  endfacet
  facet normal -0.000000 0.000000 -1.000000
    outer loop
      vertex 474.554958 6.050144 17.500000
      vertex 426.246980 -7.563663 17.500000
      vertex 427.000000 -6.000000 17.500000
    endloop
  endfacet
  facet normal 0.000000 0.000000 -1.000000
    outer loop
      vertex 448.198062 7.867767 17.500000
      vertex 426.246980 7.563663 17.500000
      vertex 424.554958 7.949856 17.500000
    endloop
  endfacet
  facet normal -0.000000 0.000000 -1.000000
    outer loop
      vertex 477.000000 8.000000 17.500000
      vertex 485.000000 10.000000 17.500000
      vertex 476.246980 6.436337 17.500000
    endloop
  endfacet
  facet normal 0.000000 -0.000000 -1.000000
    outer loop
      vertex 426.246980 -7.563663 17.500000
      vertex 474.554958 6.050144 17.500000
      vertex 449.554958 -5.050144 17.500000
    endloop
  endfacet
  facet normal 0.000000 -0.000000 -1.000000
    outer loop
      vertex 474.554958 6.050144 17.500000
      vertex 476.246980 6.436337 17.500000
      vertex 449.554958 -5.050144 17.500000
    endloop
  endfacet
  facet normal 0.000000 0.000000 -1.000000
    outer loop
      vertex 476.246980 -9.563663 17.500000
      vertex 485.000000 -10.000000 17.500000
      vertex 474.554958 -9.949856 17.500000
    endloop
  endfacet
  facet normal 0.000000 0.000000 -1.000000
    outer loop
      vertex 415.000000 10.000000 17.500000
      vertex 485.000000 10.000000 17.500000
      vertex 474.554958 9.949856 17.500000
    endloop
  endfacet
  facet normal 0.000000 0.000000 -1.000000
    outer loop
      vertex 415.000000 10.000000 17.500000
      vertex 474.554958 9.949856 17.500000
      vertex 449.554958 8.949856 17.500000
    endloop
  endfacet
  facet normal -0.000000 -0.000000 -1.000000
    outer loop
      vertex 451.246980 -5.436337 17.500000
      vertex 485.000000 10.000000 17.500000
      vertex 473.198062 -7.132233 17.500000
    endloop
  endfacet
  facet normal 0.000000 0.000000 -1.000000
    outer loop
      vertex 474.554958 -9.949856 17.500000
      vertex 451.246980 -8.563663 17.500000
      vertex 452.000000 -7.000000 17.500000
    endloop
  endfacet
  facet normal 0.000000 -0.000000 -1.000000
    outer loop
      vertex 473.198062 8.867767 17.500000
      vertex 449.554958 8.949856 17.500000
      vertex 474.554958 9.949856 17.500000
    endloop
  endfacet
  facet normal 0.000000 0.000000 -1.000000
    outer loop
      vertex 415.000000 -10.000000 17.500000
      vertex 449.554958 -8.949856 17.500000
      vertex 474.554958 -9.949856 17.500000
    endloop
  endfacet
  facet normal -0.000000 0.000000 -1.000000
    outer loop
      vertex 415.000000 -10.000000 17.500000
      vertex 474.554958 -9.949856 17.500000
      vertex 485.000000 -10.000000 17.500000
    endloop
  endfacet
  facet normal -0.000000 -0.000000 -1.000000
    outer loop
      vertex 476.246980 -6.436337 17.500000
      vertex 485.000000 10.000000 17.500000
      vertex 477.000000 -8.000000 17.500000
    endloop
  endfacet
  facet normal -0.000000 -0.000000 -1.000000
    outer loop
      vertex 474.554958 -6.050144 17.500000
      vertex 485.000000 10.000000 17.500000
      vertex 476.246980 -6.436337 17.500000
    endloop
  endfacet
  facet normal 0.000000 -0.000000 -1.000000
    outer loop
      vertex 473.198062 -7.132233 17.500000
      vertex 485.000000 10.000000 17.500000
      vertex 474.554958 -6.050144 17.500000
    endloop
  endfacet
  facet normal 0.000000 -0.000000 -1.000000
    outer loop
      vertex 423.198062 6.867767 17.500000
      vertex 415.000000 10.000000 17.500000
      vertex 424.554958 7.949856 17.500000
    endloop
  endfacet
  facet normal -0.000000 0.000000 -1.000000
    outer loop
      vertex 426.246980 7.563663 17.500000
      vertex 448.198062 7.867767 17.500000
      vertex 427.000000 6.000000 17.500000
    endloop
  endfacet
  facet normal 0.000000 0.000000 -1.000000
    outer loop
      vertex 473.198062 7.132233 17.500000
      vertex 451.246980 5.436337 17.500000
      vertex 473.198062 8.867767 17.500000
    endloop
  endfacet
  facet normal 0.000000 0.000000 -1.000000
    outer loop
      vertex 473.198062 7.132233 17.500000
      vertex 449.554958 5.050144 17.500000
      vertex 451.246980 5.436337 17.500000
    endloop
  endfacet
  facet normal 1.000000 0.000000 0.000000
    outer loop
      vertex 485.000000 10.000000 17.500000
      vertex 485.000000 10.000000 20.500000
      vertex 485.000000 -10.000000 20.500000
    endloop
  endfacet
  facet normal 1.000000 0.000000 0.000000
    outer loop
      vertex 485.000000 -10.000000 17.500000
      vertex 485.000000 10.000000 17.500000
      vertex 485.000000 -10.000000 20.500000
    endloop
  endfacet
  facet normal 1.000000 0.000000 -0.000000
    outer loop
      vertex 423.198062 5.132233 20.500000
      vertex 423.198062 5.132233 17.500000
      vertex 423.198062 6.867767 17.500000
    endloop
  endfacet
  facet normal 1.000000 0.000000 0.000000
    outer loop
      vertex 423.198062 6.867767 20.500000
      vertex 423.198062 5.132233 20.500000
      vertex 423.198062 6.867767 17.500000
    endloop
  endfacet
  facet normal 0.623490 0.781831 0.000000
    outer loop
      vertex 424.554958 4.050144 17.500000
      vertex 423.198062 5.132233 17.500000
      vertex 424.554958 4.050144 20.500000
    endloop
  endfacet
  facet normal 0.623490 0.781831 0.000000
    outer loop
      vertex 424.554958 4.050144 20.500000
      vertex 423.198062 5.132233 17.500000
      vertex 423.198062 5.132233 20.500000
    endloop
  endfacet
  facet normal -0.222521 0.974928 0.000000
    outer loop
      vertex 426.246980 4.436337 17.500000
      vertex 424.554958 4.050144 17.500000
      vertex 426.246980 4.436337 20.500000
    endloop
  endfacet
  facet normal -0.222521 0.974928 0.000000
    outer loop
      vertex 426.246980 4.436337 20.500000
      vertex 424.554958 4.050144 17.500000
      vertex 424.554958 4.050144 20.500000
    endloop
  endfacet
  facet normal -0.900969 0.433884 0.000000
    outer loop
      vertex 427.000000 6.000000 17.500000
      vertex 426.246980 4.436337 17.500000
      vertex 427.000000 6.000000 20.500000
    endloop
  endfacet
  facet normal -0.900969 0.433884 0.000000
    outer loop
      vertex 427.000000 6.000000 20.500000
      vertex 426.246980 4.436337 17.500000
      vertex 426.246980 4.436337 20.500000
    endloop
  endfacet
  facet normal -0.900969 -0.433884 -0.000000
    outer loop
      vertex 427.000000 6.000000 17.500000
      vertex 427.000000 6.000000 20.500000
      vertex 426.246980 7.563663 17.500000
    endloop
  endfacet
  facet normal -0.900969 -0.433884 -0.000000
    outer loop
      vertex 426.246980 7.563663 17.500000
      vertex 427.000000 6.000000 20.500000
      vertex 426.246980 7.563663 20.500000
    endloop
  endfacet
  facet normal -0.222521 -0.974928 0.000000
    outer loop
      vertex 424.554958 7.949856 17.500000
      vertex 426.246980 7.563663 17.500000
      vertex 426.246980 7.563663 20.500000
    endloop
  endfacet
  facet normal -0.222521 -0.974928 0.000000
    outer loop
      vertex 424.554958 7.949856 20.500000
      vertex 424.554958 7.949856 17.500000
      vertex 426.246980 7.563663 20.500000
    endloop
  endfacet
  facet normal 0.623490 -0.781831 0.000000
    outer loop
      vertex 423.198062 6.867767 17.500000
      vertex 424.554958 7.949856 17.500000
      vertex 424.554958 7.949856 20.500000
    endloop
  endfacet
  facet normal 0.623490 -0.781831 0.000000
    outer loop
      vertex 423.198062 6.867767 20.500000
      vertex 423.198062 6.867767 17.500000
      vertex 424.554958 7.949856 20.500000
    endloop
  endfacet
  facet normal 1.000000 0.000000 -0.000000
    outer loop
      vertex 423.198062 -6.867767 20.500000
      vertex 423.198062 -6.867767 17.500000
      vertex 423.198062 -5.132233 17.500000
    endloop
  endfacet
  facet normal 1.000000 0.000000 0.000000
    outer loop
      vertex 423.198062 -5.132233 20.500000
      vertex 423.198062 -6.867767 20.500000
      vertex 423.198062 -5.132233 17.500000
    endloop
  endfacet
  facet normal 0.623490 0.781831 0.000000
    outer loop
      vertex 424.554958 -7.949856 17.500000
      vertex 423.198062 -6.867767 17.500000
      vertex 424.554958 -7.949856 20.500000
    endloop
  endfacet
  facet normal 0.623490 0.781831 0.000000
    outer loop
      vertex 424.554958 -7.949856 20.500000
      vertex 423.198062 -6.867767 17.500000
      vertex 423.198062 -6.867767 20.500000
    endloop
  endfacet
  facet normal -0.222521 0.974928 0.000000
    outer loop
      vertex 426.246980 -7.563663 17.500000
      vertex 424.554958 -7.949856 17.500000
      vertex 426.246980 -7.563663 20.500000
    endloop
  endfacet
  facet normal -0.222521 0.974928 0.000000
    outer loop
      vertex 426.246980 -7.563663 20.500000
      vertex 424.554958 -7.949856 17.500000
      vertex 424.554958 -7.949856 20.500000
    endloop
  endfacet
  facet normal -0.900969 0.433884 0.000000
    outer loop
      vertex 427.000000 -6.000000 17.500000
      vertex 426.246980 -7.563663 17.500000
      vertex 427.000000 -6.000000 20.500000
    endloop
  endfacet
  facet normal -0.900969 0.433884 0.000000
    outer loop
      vertex 427.000000 -6.000000 20.500000
      vertex 426.246980 -7.563663 17.500000
      vertex 426.246980 -7.563663 20.500000
    endloop
  endfacet
  facet normal -0.900969 -0.433884 -0.000000
    outer loop
      vertex 427.000000 -6.000000 17.500000
      vertex 427.000000 -6.000000 20.500000
      vertex 426.246980 -4.436337 17.500000
    endloop
  endfacet
  facet normal -0.900969 -0.433884 -0.000000
    outer loop
      vertex 426.246980 -4.436337 17.500000
      vertex 427.000000 -6.000000 20.500000
      vertex 426.246980 -4.436337 20.500000
    endloop
  endfacet
  facet normal -0.222521 -0.974928 0.000000
    outer loop
      vertex 424.554958 -4.050144 17.500000
      vertex 426.246980 -4.436337 17.500000
      vertex 426.246980 -4.436337 20.500000
    endloop
  endfacet
  facet normal -0.222521 -0.974928 0.000000
    outer loop
      vertex 424.554958 -4.050144 20.500000
      vertex 424.554958 -4.050144 17.500000
      vertex 426.246980 -4.436337 20.500000
    endloop
  endfacet
  facet normal 0.623490 -0.781831 0.000000
    outer loop
      vertex 423.198062 -5.132233 17.500000
      vertex 424.554958 -4.050144 17.500000
      vertex 424.554958 -4.050144 20.500000
    endloop
  endfacet
  facet normal 0.623490 -0.781831 0.000000
    outer loop
      vertex 423.198062 -5.132233 20.500000
      vertex 423.198062 -5.132233 17.500000
      vertex 424.554958 -4.050144 20.500000
    endloop
  endfacet
  facet normal 1.000000 0.000000 -0.000000
    outer loop
      vertex 448.198062 6.132233 20.500000
      vertex 448.198062 6.132233 17.500000
      vertex 448.198062 7.867767 17.500000
    endloop
  endfacet
  facet normal 1.000000 0.000000 0.000000
    outer loop
      vertex 448.198062 7.867767 20.500000
      vertex 448.198062 6.132233 20.500000
      vertex 448.198062 7.867767 17.500000
    endloop
  endfacet
  facet normal 0.623490 0.781831 0.000000
    outer loop
      vertex 449.554958 5.050144 17.500000
      vertex 448.198062 6.132233 17.500000
      vertex 449.554958 5.050144 20.500000
    endloop
  endfacet
  facet normal 0.623490 0.781831 0.000000
    outer loop
      vertex 449.554958 5.050144 20.500000
      vertex 448.198062 6.132233 17.500000
      vertex 448.198062 6.132233 20.500000
    endloop
  endfacet
  facet normal -0.222521 0.974928 0.000000
    outer loop
      vertex 451.246980 5.436337 17.500000
      vertex 449.554958 5.050144 17.500000
      vertex 451.246980 5.436337 20.500000
    endloop
  endfacet
  facet normal -0.222521 0.974928 0.000000
    outer loop
      vertex 451.246980 5.436337 20.500000
      vertex 449.554958 5.050144 17.500000
      vertex 449.554958 5.050144 20.500000
    endloop
  endfacet
  facet normal -0.900969 0.433884 0.000000
    outer loop
      vertex 452.000000 7.000000 17.500000
      vertex 451.246980 5.436337 17.500000
      vertex 452.000000 7.000000 20.500000
    endloop
  endfacet
  facet normal -0.900969 0.433884 0.000000
    outer loop
      vertex 452.000000 7.000000 20.500000
      vertex 451.246980 5.436337 17.500000
      vertex 451.246980 5.436337 20.500000
    endloop
  endfacet
  facet normal -0.900969 -0.433884 -0.000000
    outer loop
      vertex 452.000000 7.000000 17.500000
      vertex 452.000000 7.000000 20.500000
      vertex 451.246980 8.563663 17.500000
    endloop
  endfacet
  facet normal -0.900969 -0.433884 -0.000000
    outer loop
      vertex 451.246980 8.563663 17.500000
      vertex 452.000000 7.000000 20.500000
      vertex 451.246980 8.563663 20.500000
    endloop
  endfacet
  facet normal -0.222521 -0.974928 0.000000
    outer loop
      vertex 449.554958 8.949856 17.500000
      vertex 451.246980 8.563663 17.500000
      vertex 451.246980 8.563663 20.500000
    endloop
  endfacet
  facet normal -0.222521 -0.974928 0.000000
    outer loop
      vertex 449.554958 8.949856 20.500000
      vertex 449.554958 8.949856 17.500000
      vertex 451.246980 8.563663 20.500000
    endloop
  endfacet
  facet normal 0.623490 -0.781831 0.000000
    outer loop
      vertex 448.198062 7.867767 17.500000
      vertex 449.554958 8.949856 17.500000
      vertex 449.554958 8.949856 20.500000
    endloop
  endfacet
  facet normal 0.623490 -0.781831 0.000000
    outer loop
      vertex 448.198062 7.867767 20.500000
      vertex 448.198062 7.867767 17.500000
      vertex 449.554958 8.949856 20.500000
    endloop
  endfacet
  facet normal 0.623490 0.781831 0.000000
    outer loop
      vertex 449.554958 -8.949856 17.500000
      vertex 448.198062 -7.867767 17.500000
      vertex 449.554958 -8.949856 20.500000
    endloop
  endfacet
  facet normal 0.623490 0.781831 0.000000
    outer loop
      vertex 449.554958 -8.949856 20.500000
      vertex 448.198062 -7.867767 17.500000
      vertex 448.198062 -7.867767 20.500000
    endloop
  endfacet
  facet normal 1.000000 0.000000 -0.000000
    outer loop
      vertex 448.198062 -7.867767 20.500000
      vertex 448.198062 -7.867767 17.500000
      vertex 448.198062 -6.132233 17.500000
    endloop
  endfacet
  facet normal 1.000000 0.000000 0.000000
    outer loop
      vertex 448.198062 -6.132233 20.500000
      vertex 448.198062 -7.867767 20.500000
      vertex 448.198062 -6.132233 17.500000
    endloop
  endfacet
  facet normal -0.222521 0.974928 0.000000
    outer loop
      vertex 451.246980 -8.563663 17.500000
      vertex 449.554958 -8.949856 17.500000
      vertex 451.246980 -8.563663 20.500000
    endloop
  endfacet
  facet normal -0.222521 0.974928 0.000000
    outer loop
      vertex 451.246980 -8.563663 20.500000
      vertex 449.554958 -8.949856 17.500000
      vertex 449.554958 -8.949856 20.500000
    endloop
  endfacet
  facet normal -0.900969 0.433884 0.000000
    outer loop
      vertex 452.000000 -7.000000 17.500000
      vertex 451.246980 -8.563663 17.500000
      vertex 452.000000 -7.000000 20.500000
    endloop
  endfacet
  facet normal -0.900969 0.433884 0.000000
    outer loop
      vertex 452.000000 -7.000000 20.500000
      vertex 451.246980 -8.563663 17.500000
      vertex 451.246980 -8.563663 20.500000
    endloop
  endfacet
  facet normal -0.900969 -0.433884 -0.000000
    outer loop
      vertex 452.000000 -7.000000 17.500000
      vertex 452.000000 -7.000000 20.500000
      vertex 451.246980 -5.436337 17.500000
    endloop
  endfacet
  facet normal -0.900969 -0.433884 -0.000000
    outer loop
      vertex 451.246980 -5.436337 17.500000
      vertex 452.000000 -7.000000 20.500000
      vertex 451.246980 -5.436337 20.500000
    endloop
  endfacet
  facet normal -0.222521 -0.974928 0.000000
    outer loop
      vertex 449.554958 -5.050144 17.500000
      vertex 451.246980 -5.436337 17.500000
      vertex 451.246980 -5.436337 20.500000
    endloop
  endfacet
  facet normal -0.222521 -0.974928 0.000000
    outer loop
      vertex 449.554958 -5.050144 20.500000
      vertex 449.554958 -5.050144 17.500000
      vertex 451.246980 -5.436337 20.500000
    endloop
  endfacet
  facet normal 0.623490 -0.781831 0.000000
    outer loop
      vertex 448.198062 -6.132233 17.500000
      vertex 449.554958 -5.050144 17.500000
      vertex 449.554958 -5.050144 20.500000
    endloop
  endfacet
  facet normal 0.623490 -0.781831 0.000000
    outer loop
      vertex 448.198062 -6.132233 20.500000
      vertex 448.198062 -6.132233 17.500000
      vertex 449.554958 -5.050144 20.500000
    endloop
  endfacet
  facet normal -0.707107 0.000000 0.707107
    outer loop
      vertex 460.784271 -3.000000 20.500000
      vertex 478.284271 -3.000000 38.000000
      vertex 478.284271 3.000000 38.000000
    endloop
  endfacet
  facet normal -0.707107 0.000000 0.707107
    outer loop
      vertex 460.784271 3.000000 20.500000
      vertex 460.784271 -3.000000 20.500000
      vertex 478.284271 3.000000 38.000000
    endloop
  endfacet
  facet normal 0.000000 -1.000000 0.000000
    outer loop
      vertex 478.284271 -3.000000 38.000000
      vertex 460.784271 -3.000000 20.500000
      vertex 480.000000 -3.000000 20.500000
    endloop
  endfacet
  facet normal 0.000000 -1.000000 0.000000
    outer loop
      vertex 480.000000 -3.000000 38.000000
      vertex 478.284271 -3.000000 38.000000
      vertex 480.000000 -3.000000 20.500000
    endloop
  endfacet
  facet normal 1.000000 0.000000 0.000000
    outer loop
      vertex 480.000000 3.000000 20.500000
      vertex 480.000000 3.000000 38.000000
      vertex 480.000000 -3.000000 38.000000
    endloop
  endfacet
  facet normal 1.000000 0.000000 0.000000
    outer loop
      vertex 480.000000 -3.000000 20.500000
      vertex 480.000000 3.000000 20.500000
      vertex 480.000000 -3.000000 38.000000
    endloop
  endfacet
  facet normal 0.000000 1.000000 -0.000000
    outer loop
      vertex 460.784271 3.000000 20.500000
      vertex 478.284271 3.000000 38.000000
      vertex 480.000000 3.000000 20.500000
    endloop
  endfacet
  facet normal 0.000000 1.000000 -0.000000
    outer loop
      vertex 480.000000 3.000000 20.500000
      vertex 478.284271 3.000000 38.000000
      vertex 480.000000 3.000000 38.000000
    endloop
  endfacet
  facet normal 0.623490 0.781831 0.000000
    outer loop
      vertex 474.554958 6.050144 17.500000
      vertex 473.198062 7.132233 17.500000
      vertex 474.554958 6.050144 20.500000
    endloop
  endfacet
  facet normal 0.623490 0.781831 0.000000
    outer loop
      vertex 474.554958 6.050144 20.500000
      vertex 473.198062 7.132233 17.500000
      vertex 473.198062 7.132233 20.500000
    endloop
  endfacet
  facet normal 1.000000 0.000000 -0.000000
    outer loop
      vertex 473.198062 7.132233 20.500000
      vertex 473.198062 7.132233 17.500000
      vertex 473.198062 8.867767 17.500000
    endloop
  endfacet
  facet normal 1.000000 0.000000 0.000000
    outer loop
      vertex 473.198062 8.867767 20.500000
      vertex 473.198062 7.132233 20.500000
      vertex 473.198062 8.867767 17.500000
    endloop
  endfacet
  facet normal -0.222521 0.974928 0.000000
    outer loop
      vertex 476.246980 6.436337 17.500000
      vertex 474.554958 6.050144 17.500000
      vertex 476.246980 6.436337 20.500000
    endloop
  endfacet
  facet normal -0.222521 0.974928 0.000000
    outer loop
      vertex 476.246980 6.436337 20.500000
      vertex 474.554958 6.050144 17.500000
      vertex 474.554958 6.050144 20.500000
    endloop
  endfacet
  facet normal -0.900969 0.433884 0.000000
    outer loop
      vertex 477.000000 8.000000 17.500000
      vertex 476.246980 6.436337 17.500000
      vertex 477.000000 8.000000 20.500000
    endloop
  endfacet
  facet normal -0.900969 0.433884 0.000000
    outer loop
      vertex 477.000000 8.000000 20.500000
      vertex 476.246980 6.436337 17.500000
      vertex 476.246980 6.436337 20.500000
    endloop
  endfacet
  facet normal -0.900969 -0.433884 -0.000000
    outer loop
      vertex 477.000000 8.000000 17.500000
      vertex 477.000000 8.000000 20.500000
      vertex 476.246980 9.563663 17.500000
    endloop
  endfacet
  facet normal -0.900969 -0.433884 -0.000000
    outer loop
      vertex 476.246980 9.563663 17.500000
      vertex 477.000000 8.000000 20.500000
      vertex 476.246980 9.563663 20.500000
    endloop
  endfacet
  facet normal -0.222521 -0.974928 0.000000
    outer loop
      vertex 474.554958 9.949856 17.500000
      vertex 476.246980 9.563663 17.500000
      vertex 476.246980 9.563663 20.500000
    endloop
  endfacet
  facet normal -0.222521 -0.974928 0.000000
    outer loop
      vertex 474.554958 9.949856 20.500000
      vertex 474.554958 9.949856 17.500000
      vertex 476.246980 9.563663 20.500000
    endloop
  endfacet
  facet normal 0.623490 -0.781831 0.000000
    outer loop
      vertex 473.198062 8.867767 17.500000
      vertex 474.554958 9.949856 17.500000
      vertex 474.554958 9.949856 20.500000
    endloop
  endfacet
  facet normal 0.623490 -0.781831 0.000000
    outer loop
      vertex 473.198062 8.867767 20.500000
      vertex 473.198062 8.867767 17.500000
      vertex 474.554958 9.949856 20.500000
    endloop
  endfacet
  facet normal 0.623490 0.781831 0.000000
    outer loop
      vertex 474.554958 -9.949856 17.500000
      vertex 473.198062 -8.867767 17.500000
      vertex 474.554958 -9.949856 20.500000
    endloop
  endfacet
  facet normal 0.623490 0.781831 0.000000
    outer loop
      vertex 474.554958 -9.949856 20.500000
      vertex 473.198062 -8.867767 17.500000
      vertex 473.198062 -8.867767 20.500000
    endloop
  endfacet
  facet normal 1.000000 0.000000 -0.000000
    outer loop
      vertex 473.198062 -8.867767 20.500000
      vertex 473.198062 -8.867767 17.500000
      vertex 473.198062 -7.132233 17.500000
    endloop
  endfacet
  facet normal 1.000000 0.000000 0.000000
    outer loop
      vertex 473.198062 -7.132233 20.500000
      vertex 473.198062 -8.867767 20.500000
      vertex 473.198062 -7.132233 17.500000
    endloop
  endfacet
  facet normal -0.222521 0.974928 0.000000
    outer loop
      vertex 476.246980 -9.563663 17.500000
      vertex 474.554958 -9.949856 17.500000
      vertex 476.246980 -9.563663 20.500000
    endloop
  endfacet
  facet normal -0.222521 0.974928 0.000000
    outer loop
      vertex 476.246980 -9.563663 20.500000
      vertex 474.554958 -9.949856 17.500000
      vertex 474.554958 -9.949856 20.500000
    endloop
  endfacet
  facet normal -0.900969 0.433884 0.000000
    outer loop
      vertex 477.000000 -8.000000 17.500000
      vertex 476.246980 -9.563663 17.500000
      vertex 477.000000 -8.000000 20.500000
    endloop
  endfacet
  facet normal -0.900969 0.433884 0.000000
    outer loop
      vertex 477.000000 -8.000000 20.500000
      vertex 476.246980 -9.563663 17.500000
      vertex 476.246980 -9.563663 20.500000
    endloop
  endfacet
  facet normal -0.900969 -0.433884 -0.000000
    outer loop
      vertex 477.000000 -8.000000 17.500000
      vertex 477.000000 -8.000000 20.500000
      vertex 476.246980 -6.436337 17.500000
    endloop
  endfacet
  facet normal -0.900969 -0.433884 -0.000000
    outer loop
      vertex 476.246980 -6.436337 17.500000
      vertex 477.000000 -8.000000 20.500000
      vertex 476.246980 -6.436337 20.500000
    endloop
  endfacet
  facet normal -0.222521 -0.974928 0.000000
    outer loop
      vertex 474.554958 -6.050144 17.500000
      vertex 476.246980 -6.436337 17.500000
      vertex 476.246980 -6.436337 20.500000
    endloop
  endfacet
  facet normal -0.222521 -0.974928 0.000000
    outer loop
      vertex 474.554958 -6.050144 20.500000
      vertex 474.554958 -6.050144 17.500000
      vertex 476.246980 -6.436337 20.500000
    endloop
  endfacet
  facet normal 0.623490 -0.781831 0.000000
    outer loop
      vertex 473.198062 -7.132233 17.500000
      vertex 474.554958 -6.050144 17.500000
      vertex 474.554958 -6.050144 20.500000
    endloop
  endfacet
  facet normal 0.623490 -0.781831 0.000000
    outer loop
      vertex 473.198062 -7.132233 20.500000
      vertex 473.198062 -7.132233 17.500000
      vertex 474.554958 -6.050144 20.500000
    endloop
  endfacet
  facet normal -0.000000 0.000000 1.000000
    outer loop
      vertex 480.000000 3.000000 38.000000
      vertex 478.284271 3.000000 38.000000
      vertex 478.284271 -3.000000 38.000000
    endloop
  endfacet
  facet normal -0.000000 0.000000 1.000000
    outer loop
      vertex 480.000000 -3.000000 38.000000
      vertex 480.000000 3.000000 38.000000
      vertex 478.284271 -3.000000 38.000000
    endloop
  endfacet
endsolid OpenSCAD_Model
