  0
SECTION
  2
HEADER
  9
$ACADVER
  1
AC1014
  9
$HANDSEED
  5
FFFF
  9
$MEASUREMENT
 70
     1
  0
ENDSEC
  0
SECTION
  2
TABLES
  0
TABLE
  2
VPORT
  5
8
330
0
100
AcDbSymbolTable
 70
     4
  0
VPORT
  5
2E
330
8
100
AcDbSymbolTableRecord
100
AcDbViewportTableRecord
  2
*ACTIVE
 70
     0
 10
0.0
 20
0.0
 11
1.0
 21
1.0
 12
210.0
 22
148.5
 13
0.0
 23
0.0
 14
10.0
 24
10.0
 15
10.0
 25
10.0
 16
0.0
 26
0.0
 36
1.0
 17
0.0
 27
0.0
 37
0.0
 40
341.0
 41
1.24
 42
50.0
 43
0.0
 44
0.0
 50
0.0
 51
0.0
 71
     0
 72
   100
 73
     1
 74
     3
 75
     0
 76
     0
 77
     0
 78
     0
  0
ENDTAB
  0
TABLE
  2
LTYPE
  5
5
330
0
100
AcDbSymbolTable
 70
     1
  0
LTYPE
  5
14
330
5
100
AcDbSymbolTableRecord
100
AcDbLinetypeTableRecord
  2
BYBLOCK
 70
     0
  3

 72
    65
 73
     0
 40
0.0
  0
LTYPE
  5
15
330
5
100
AcDbSymbolTableRecord
100
AcDbLinetypeTableRecord
  2
BYLAYER
 70
     0
  3

 72
    65
 73
     0
 40
0.0
  0
LTYPE
  5
16
330
5
100
AcDbSymbolTableRecord
100
AcDbLinetypeTableRecord
  2
CONTINUOUS
 70
     0
  3
Solid line
 72
    65
 73
     0
 40
0.0
  0
ENDTAB
  0
TABLE
  2
LAYER
  5
2
100
AcDbSymbolTable
 70
4
  0
LAYER
  5
50
100
AcDbSymbolTableRecord
100
AcDbLayerTableRecord
  2
0
 70
0
  6
CONTINUOUS
  0
LAYER
  5
51
100
AcDbSymbolTableRecord
100
AcDbLayerTableRecord
  2
PNG
 70
0
  6
CONTINUOUS
  0
LAYER
  5
52
100
AcDbSymbolTableRecord
100
AcDbLayerTableRecord
  2
Milimeterpapier
 70
0
  6
CONTINUOUS
  0
LAYER
  5
53
100
AcDbSymbolTableRecord
100
AcDbLayerTableRecord
  2
profile
 70
0
  6
CONTINUOUS
  0
ENDTAB
  0
TABLE
  2
STYLE
  5
3
330
0
100
AcDbSymbolTable
 70
     1
  0
STYLE
  5
11
330
3
100
AcDbSymbolTableRecord
100
AcDbTextStyleTableRecord
  2
STANDARD
 70
     0
 40
0.0
 41
1.0
 50
0.0
 71
     0
 42
2.5
  3
txt
  4

  0
ENDTAB
  0
TABLE
  2
VIEW
  5
6
330
0
100
AcDbSymbolTable
 70
     0
  0
ENDTAB
  0
TABLE
  2
UCS
  5
7
330
0
100
AcDbSymbolTable
 70
     0
  0
ENDTAB
  0
TABLE
  2
APPID
  5
9
330
0
100
AcDbSymbolTable
 70
     2
  0
APPID
  5
12
330
9
100
AcDbSymbolTableRecord
100
AcDbRegAppTableRecord
  2
ACAD
 70
     0
  0
ENDTAB
  0
TABLE
  2
DIMSTYLE
  5
A
330
0
100
AcDbSymbolTable
 70
     1
  0
DIMSTYLE
105
27
330
A
100
AcDbSymbolTableRecord
100
AcDbDimStyleTableRecord
  2
ISO-25
 70
     0
  3

  4

  5

  6

  7

 40
1.0
 41
2.5
 42
0.625
 43
3.75
 44
1.25
 45
0.0
 46
0.0
 47
0.0
 48
0.0
140
2.5
141
2.5
142
0.0
143
0.03937007874016
144
1.0
145
0.0
146
1.0
147
0.625
 71
     0
 72
     0
 73
     0
 74
     0
 75
     0
 76
     0
 77
     1
 78
     8
170
     0
171
     3
172
     1
173
     0
174
     0
175
     0
176
     0
177
     0
178
     0
270
     2
271
     2
272
     2
273
     2
274
     3
340
11
275
     0
280
     0
281
     0
282
     0
283
     0
284
     8
285
     0
286
     0
287
     3
288
     0
  0
ENDTAB
  0
TABLE
  2
BLOCK_RECORD
  5
1
330
0
100
AcDbSymbolTable
 70
     1
  0
BLOCK_RECORD
  5
1F
330
1
100
AcDbSymbolTableRecord
100
AcDbBlockTableRecord
  2
*MODEL_SPACE
  0
BLOCK_RECORD
  5
1B
330
1
100
AcDbSymbolTableRecord
100
AcDbBlockTableRecord
  2
*PAPER_SPACE
  0
ENDTAB
  0
ENDSEC
  0
SECTION
  2
BLOCKS
  0
BLOCK
  5
20
330
1F
100
AcDbEntity
  8
0
100
AcDbBlockBegin
  2
*MODEL_SPACE
 70
     0
 10
0.0
 20
0.0
 30
0.0
  3
*MODEL_SPACE
  1

  0
ENDBLK
  5
21
330
1F
100
AcDbEntity
  8
0
100
AcDbBlockEnd
  0
BLOCK
  5
1C
330
1B
100
AcDbEntity
 67
     1
  8
0
100
AcDbBlockBegin
  2
*PAPER_SPACE
  1

  0
ENDBLK
  5
1D
330
1B
100
AcDbEntity
 67
     1
  8
0
100
AcDbBlockEnd
  0
ENDSEC
  0
SECTION
  2
ENTITIES
  0
LWPOLYLINE
  5
100
100
AcDbEntity
  8
profile
 62
7
100
AcDbPolyline
 90
129
 70
0
 10
149.094488
 20
105.726194
 30
0.0
 10
151.370661
 20
105.517598
 30
0.0
 10
155.844608
 20
105.101185
 30
0.0
 10
161.328782
 20
104.581170
 30
0.0
 10
167.260777
 20
104.005815
 30
0.0
 10
173.312614
 20
103.402387
 30
0.0
 10
179.468886
 20
102.770184
 30
0.0
 10
185.479756
 20
102.129480
 30
0.0
 10
191.095394
 20
101.500557
 30
0.0
 10
196.417609
 20
100.872203
 30
0.0
 10
201.704486
 20
100.219248
 30
0.0
 10
206.940626
 20
99.540969
 30
0.0
 10
212.110623
 20
98.836667
 30
0.0
 10
217.199070
 20
98.105629
 30
0.0
 10
222.190563
 20
97.347154
 30
0.0
 10
227.069694
 20
96.560530
 30
0.0
 10
231.821054
 20
95.745049
 30
0.0
 10
238.111164
 20
94.606765
 30
0.0
 10
245.351801
 20
93.240144
 30
0.0
 10
253.489693
 20
91.634212
 30
0.0
 10
262.471582
 20
89.778002
 30
0.0
 10
272.244198
 20
87.660531
 30
0.0
 10
282.754283
 20
85.270823
 30
0.0
 10
293.948571
 20
82.597905
 30
0.0
 10
305.773795
 20
79.630804
 30
0.0
 10
318.176672
 20
76.358536
 30
0.0
 10
331.103973
 20
72.770140
 30
0.0
 10
344.502389
 20
68.854631
 30
0.0
 10
358.318690
 20
64.601034
 30
0.0
 10
372.499595
 20
59.998376
 30
0.0
 10
386.991847
 20
55.035682
 30
0.0
 10
401.742192
 20
49.701975
 30
0.0
 10
416.697317
 20
43.986284
 30
0.0
 10
405.897096
 20
44.019005
 30
0.0
 10
395.743925
 20
44.033624
 30
0.0
 10
386.183986
 20
44.033060
 30
0.0
 10
377.163458
 20
44.020331
 30
0.0
 10
368.628579
 20
43.998431
 30
0.0
 10
360.525442
 20
43.970192
 30
0.0
 10
352.800315
 20
43.938625
 30
0.0
 10
345.399319
 20
43.906692
 30
0.0
 10
337.895877
 20
43.881969
 30
0.0
 10
330.076430
 20
43.869410
 30
0.0
 10
322.206692
 20
43.867999
 30
0.0
 10
314.552346
 20
43.876720
 30
0.0
 10
307.059543
 20
43.898536
 30
0.0
 10
300.100508
 20
43.931155
 30
0.0
 10
294.366994
 20
43.968315
 30
0.0
 10
291.402729
 20
43.993207
 30
0.0
 10
289.160474
 20
44.016406
 30
0.0
 10
284.149928
 20
44.064762
 30
0.0
 10
277.347814
 20
44.126227
 30
0.0
 10
269.304825
 20
44.194008
 30
0.0
 10
260.411898
 20
44.263291
 30
0.0
 10
250.846984
 20
44.331893
 30
0.0
 10
240.947763
 20
44.395659
 30
0.0
 10
231.051926
 20
44.450432
 30
0.0
 10
221.257530
 20
44.495021
 30
0.0
 10
211.556124
 20
44.529539
 30
0.0
 10
202.125635
 20
44.551807
 30
0.0
 10
193.144009
 20
44.559652
 30
0.0
 10
184.789161
 20
44.550875
 30
0.0
 10
177.239040
 20
44.523302
 30
0.0
 10
170.671568
 20
44.474777
 30
0.0
 10
165.264684
 20
44.403098
 30
0.0
 10
153.229486
 20
44.206629
 30
0.0
 10
142.479312
 20
44.065495
 30
0.0
 10
132.853268
 20
43.979234
 30
0.0
 10
124.190485
 20
43.947397
 30
0.0
 10
116.330074
 20
43.969523
 30
0.0
 10
109.111160
 20
44.045181
 30
0.0
 10
102.372850
 20
44.173917
 30
0.0
 10
95.954307
 20
44.355256
 30
0.0
 10
89.694598
 20
44.588766
 30
0.0
 10
83.432869
 20
44.873991
 30
0.0
 10
77.008221
 20
45.210485
 30
0.0
 10
70.259794
 20
45.597781
 30
0.0
 10
63.026706
 20
46.035438
 30
0.0
 10
55.148086
 20
46.522996
 30
0.0
 10
46.463025
 20
47.060011
 30
0.0
 10
36.810655
 20
47.646032
 30
0.0
 10
34.627979
 20
47.841290
 30
0.0
 10
32.136296
 20
48.183575
 30
0.0
 10
29.397341
 20
48.668416
 30
0.0
 10
26.472908
 20
49.291331
 30
0.0
 10
23.424707
 20
50.047856
 30
0.0
 10
20.314529
 20
50.933514
 30
0.0
 10
17.204083
 20
51.943842
 30
0.0
 10
14.155132
 20
53.074359
 30
0.0
 10
11.229470
 20
54.320587
 30
0.0
 10
8.488778
 20
55.678071
 30
0.0
 10
5.994848
 20
57.142327
 30
0.0
 10
3.809445
 20
58.708883
 30
0.0
 10
1.994276
 20
60.373269
 30
0.0
 10
0.611136
 20
62.131014
 30
0.0
 10
-0.278241
 20
63.977639
 30
0.0
 10
-0.612117
 20
65.908683
 30
0.0
 10
-0.246672
 20
69.535489
 30
0.0
 10
0.940480
 20
72.968384
 30
0.0
 10
2.884182
 20
76.210104
 30
0.0
 10
5.519279
 20
79.263404
 30
0.0
 10
8.780613
 20
82.131033
 30
0.0
 10
12.603085
 20
84.815723
 30
0.0
 10
16.921457
 20
87.320250
 30
0.0
 10
21.670655
 20
89.647331
 30
0.0
 10
26.785494
 20
91.799727
 30
0.0
 10
32.200820
 20
93.780190
 30
0.0
 10
37.851477
 20
95.591461
 30
0.0
 10
43.672332
 20
97.236286
 30
0.0
 10
49.598237
 20
98.717414
 30
0.0
 10
55.564000
 20
100.037599
 30
0.0
 10
61.504527
 20
101.199575
 30
0.0
 10
67.354632
 20
102.206101
 30
0.0
 10
71.293768
 20
102.767997
 30
0.0
 10
75.838712
 20
103.293534
 30
0.0
 10
80.893015
 20
103.780757
 30
0.0
 10
86.360334
 20
104.227667
 30
0.0
 10
92.144247
 20
104.632292
 30
0.0
 10
98.148359
 20
104.992653
 30
0.0
 10
104.276301
 20
105.306769
 30
0.0
 10
110.431655
 20
105.572665
 30
0.0
 10
116.654790
 20
105.776113
 30
0.0
 10
122.907917
 20
105.909892
 30
0.0
 10
128.977428
 20
105.982514
 30
0.0
 10
134.649719
 20
106.002495
 30
0.0
 10
139.828393
 20
105.967855
 30
0.0
 10
144.260769
 20
105.890600
 30
0.0
 10
147.576956
 20
105.793236
 30
0.0
 10
149.094488
 20
105.726197
 30
0.0
  0
LWPOLYLINE
  5
101
100
AcDbEntity
  8
profile
 62
7
100
AcDbPolyline
 90
99
 70
0
 10
154.989299
 20
102.647100
 30
0.0
 10
157.037855
 20
102.459363
 30
0.0
 10
161.064407
 20
102.084591
 30
0.0
 10
166.000163
 20
101.616579
 30
0.0
 10
171.338959
 20
101.098759
 30
0.0
 10
176.785613
 20
100.555674
 30
0.0
 10
182.326257
 20
99.986691
 30
0.0
 10
187.736041
 20
99.410058
 30
0.0
 10
192.790115
 20
98.844026
 30
0.0
 10
197.580108
 20
98.278508
 30
0.0
 10
202.338297
 20
97.690849
 30
0.0
 10
207.050823
 20
97.080398
 30
0.0
 10
211.703821
 20
96.446525
 30
0.0
 10
216.283423
 20
95.788592
 30
0.0
 10
220.775766
 20
95.105964
 30
0.0
 10
225.166984
 20
94.398003
 30
0.0
 10
229.443209
 20
93.664070
 30
0.0
 10
235.104308
 20
92.639614
 30
0.0
 10
241.620881
 20
91.409655
 30
0.0
 10
248.944984
 20
89.964316
 30
0.0
 10
257.028683
 20
88.293727
 30
0.0
 10
265.824038
 20
86.388003
 30
0.0
 10
275.283115
 20
84.237266
 30
0.0
 10
285.357974
 20
81.831640
 30
0.0
 10
296.000676
 20
79.161249
 30
0.0
 10
307.163264
 20
76.216208
 30
0.0
 10
318.797836
 20
72.986651
 30
0.0
 10
330.856410
 20
69.462693
 30
0.0
 10
343.291081
 20
65.634456
 30
0.0
 10
356.053896
 20
61.492064
 30
0.0
 10
369.096923
 20
57.025639
 30
0.0
 10
382.465755
 20
52.027590
 30
0.0
 10
357.893008
 20
55.897648
 30
0.0
 10
357.884372
 20
55.906462
 30
0.0
 10
357.875736
 20
55.906462
 30
0.0
 10
339.866450
 20
58.746321
 30
0.0
 10
339.857814
 20
58.746321
 30
0.0
 10
339.849178
 20
58.746321
 30
0.0
 10
312.508898
 20
62.741531
 30
0.0
 10
312.491372
 20
62.741531
 30
0.0
 10
312.473846
 20
62.741531
 30
0.0
 10
287.876409
 20
65.837156
 30
0.0
 10
263.428920
 20
68.879862
 30
0.0
 10
263.402476
 20
68.888676
 30
0.0
 10
263.384848
 20
68.888676
 30
0.0
 10
235.294917
 20
71.534510
 30
0.0
 10
235.277289
 20
71.534510
 30
0.0
 10
235.268475
 20
71.534510
 30
0.0
 10
207.875282
 20
73.730551
 30
0.0
 10
207.866468
 20
73.730551
 30
0.0
 10
207.857654
 20
73.730551
 30
0.0
 10
183.110294
 20
75.379788
 30
0.0
 10
183.092667
 20
75.379788
 30
0.0
 10
183.075039
 20
75.379788
 30
0.0
 10
155.734761
 20
76.623329
 30
0.0
 10
155.699483
 20
76.632143
 30
0.0
 10
155.664207
 20
76.632143
 30
0.0
 10
128.923651
 20
76.729156
 30
0.0
 10
128.914838
 20
76.729156
 30
0.0
 10
128.906024
 20
76.729156
 30
0.0
 10
128.905516
 20
76.729199
 30
0.0
 10
95.224059
 20
76.429337
 30
0.0
 10
95.206406
 20
76.429337
 30
0.0
 10
95.197592
 20
76.429337
 30
0.0
 10
57.679674
 20
75.379824
 30
0.0
 10
57.626758
 20
75.379824
 30
0.0
 10
57.582661
 20
75.371010
 30
0.0
 10
21.487548
 20
72.346228
 30
0.0
 10
21.650692
 20
73.165071
 30
0.0
 10
23.400023
 20
76.082619
 30
0.0
 10
25.771611
 20
78.830589
 30
0.0
 10
28.706812
 20
81.411455
 30
0.0
 10
32.147037
 20
83.827676
 30
0.0
 10
36.033572
 20
86.081751
 30
0.0
 10
40.307850
 20
88.176123
 30
0.0
 10
44.911204
 20
90.113279
 30
0.0
 10
49.784998
 20
91.895696
 30
0.0
 10
54.870589
 20
93.525840
 30
0.0
 10
60.109359
 20
95.006183
 30
0.0
 10
65.442673
 20
96.339198
 30
0.0
 10
70.811860
 20
97.527364
 30
0.0
 10
76.158334
 20
98.573143
 30
0.0
 10
81.423429
 20
99.479016
 30
0.0
 10
84.968652
 20
99.984723
 30
0.0
 10
89.059101
 20
100.457706
 30
0.0
 10
93.607974
 20
100.896207
 30
0.0
 10
98.528561
 20
101.298426
 30
0.0
 10
103.734083
 20
101.662588
 30
0.0
 10
109.137783
 20
101.986913
 30
0.0
 10
114.652931
 20
102.269618
 30
0.0
 10
120.192749
 20
102.508924
 30
0.0
 10
125.793571
 20
102.692027
 30
0.0
 10
131.421386
 20
102.812428
 30
0.0
 10
136.883945
 20
102.877788
 30
0.0
 10
141.989007
 20
102.895771
 30
0.0
 10
146.649813
 20
102.864595
 30
0.0
 10
150.638952
 20
102.795065
 30
0.0
 10
153.623521
 20
102.707437
 30
0.0
 10
154.989299
 20
102.647102
 30
0.0
  0
LWPOLYLINE
  5
102
100
AcDbEntity
  8
profile
 62
7
100
AcDbPolyline
 90
89
 70
0
 10
386.111646
 20
47.110620
 30
0.0
 10
376.973793
 20
47.123777
 30
0.0
 10
368.369848
 20
47.123269
 30
0.0
 10
360.251373
 20
47.111813
 30
0.0
 10
352.569981
 20
47.092103
 30
0.0
 10
345.277158
 20
47.066688
 30
0.0
 10
338.324543
 20
47.038278
 30
0.0
 10
331.663647
 20
47.009538
 30
0.0
 10
324.910549
 20
46.987287
 30
0.0
 10
317.873047
 20
46.975984
 30
0.0
 10
310.790283
 20
46.974714
 30
0.0
 10
303.901371
 20
46.982563
 30
0.0
 10
297.157849
 20
47.002197
 30
0.0
 10
290.894717
 20
47.031554
 30
0.0
 10
285.734554
 20
47.064999
 30
0.0
 10
283.066716
 20
47.087401
 30
0.0
 10
281.048686
 20
47.108280
 30
0.0
 10
276.539196
 20
47.151801
 30
0.0
 10
270.417293
 20
47.207119
 30
0.0
 10
263.178603
 20
47.268122
 30
0.0
 10
255.174969
 20
47.330477
 30
0.0
 10
246.566545
 20
47.392219
 30
0.0
 10
237.657246
 20
47.449608
 30
0.0
 10
228.750993
 20
47.498904
 30
0.0
 10
219.936037
 20
47.539034
 30
0.0
 10
211.204772
 20
47.570100
 30
0.0
 10
202.717332
 20
47.590141
 30
0.0
 10
194.633868
 20
47.597202
 30
0.0
 10
187.114505
 20
47.589303
 30
0.0
 10
180.319396
 20
47.564487
 30
0.0
 10
174.408671
 20
47.520814
 30
0.0
 10
169.542475
 20
47.456303
 30
0.0
 10
158.710798
 20
47.279481
 30
0.0
 10
149.035641
 20
47.152461
 30
0.0
 10
140.372201
 20
47.074826
 30
0.0
 10
132.575696
 20
47.046172
 30
0.0
 10
125.501326
 20
47.066086
 30
0.0
 10
119.004304
 20
47.134178
 30
0.0
 10
112.939825
 20
47.250040
 30
0.0
 10
107.163136
 20
47.413245
 30
0.0
 10
101.529398
 20
47.623405
 30
0.0
 10
95.893842
 20
47.880107
 30
0.0
 10
90.111659
 20
48.182952
 30
0.0
 10
84.038074
 20
48.531518
 30
0.0
 10
77.528296
 20
48.925409
 30
0.0
 10
70.437538
 20
49.364212
 30
0.0
 10
62.620982
 20
49.847525
 30
0.0
 10
53.933850
 20
50.374944
 30
0.0
 10
51.969442
 20
50.550676
 30
0.0
 10
49.726926
 20
50.858732
 30
0.0
 10
47.261866
 20
51.295089
 30
0.0
 10
44.629878
 20
51.855713
 30
0.0
 10
41.886497
 20
52.536585
 30
0.0
 10
39.087336
 20
53.333678
 30
0.0
 10
36.287934
 20
54.242973
 30
0.0
 10
33.543879
 20
55.260438
 30
0.0
 10
30.910783
 20
56.382044
 30
0.0
 10
28.444161
 20
57.603779
 30
0.0
 10
26.199624
 20
58.921609
 30
0.0
 10
24.232761
 20
60.331510
 30
0.0
 10
22.599109
 20
61.829457
 30
0.0
 10
21.354282
 20
63.411428
 30
0.0
 10
20.553843
 20
65.073390
 30
0.0
 10
20.253355
 20
66.811329
 30
0.0
 10
20.538677
 20
68.709477
 30
0.0
 10
57.767375
 20
71.993130
 30
0.0
 10
95.258834
 20
73.042643
 30
0.0
 10
95.285278
 20
73.042643
 30
0.0
 10
128.913819
 20
73.342505
 30
0.0
 10
128.931447
 20
73.342505
 30
0.0
 10
155.583806
 20
73.245492
 30
0.0
 10
155.654362
 20
73.245492
 30
0.0
 10
182.924084
 20
71.993130
 30
0.0
 10
182.924084
 20
72.001944
 30
0.0
 10
207.609709
 20
70.352707
 30
0.0
 10
207.627337
 20
70.352707
 30
0.0
 10
234.976434
 20
68.156666
 30
0.0
 10
234.994061
 20
68.156666
 30
0.0
 10
263.013436
 20
65.528472
 30
0.0
 10
263.013436
 20
65.519658
 30
0.0
 10
287.452102
 20
62.476949
 30
0.0
 10
287.460992
 20
62.476949
 30
0.0
 10
312.049589
 20
59.381324
 30
0.0
 10
339.354589
 20
55.394936
 30
0.0
 10
339.354589
 20
55.403750
 30
0.0
 10
357.346273
 20
52.555069
 30
0.0
 10
357.346273
 20
52.563883
 30
0.0
 10
388.614232
 20
47.235067
 30
0.0
 10
386.111646
 20
47.110620
 30
0.0
  0
ENDSEC
  0
SECTION
  2
OBJECTS
  0
DICTIONARY
  5
C
330
0
100
AcDbDictionary
  3
ACAD_GROUP
350
D
  3
ACAD_MLINESTYLE
350
17
  0
DICTIONARY
  5
D
330
C
100
AcDbDictionary
  0
DICTIONARY
  5
1A
330
C
100
AcDbDictionary
  0
DICTIONARY
  5
17
330
C
100
AcDbDictionary
  3
STANDARD
350
18
  0
DICTIONARY
  5
19
330
C
100
AcDbDictionary
  0
ENDSEC
  0
EOF
