  0
SECTION
  2
HEADER
  9
$ACADVER
  1
AC1014
  9
$HANDSEED
  5
FFFF
  9
$MEASUREMENT
 70
     1
  0
ENDSEC
  0
SECTION
  2
TABLES
  0
TABLE
  2
VPORT
  5
8
330
0
100
AcDbSymbolTable
 70
     4
  0
VPORT
  5
2E
330
8
100
AcDbSymbolTableRecord
100
AcDbViewportTableRecord
  2
*ACTIVE
 70
     0
 10
0.0
 20
0.0
 11
1.0
 21
1.0
 12
210.0
 22
148.5
 13
0.0
 23
0.0
 14
10.0
 24
10.0
 15
10.0
 25
10.0
 16
0.0
 26
0.0
 36
1.0
 17
0.0
 27
0.0
 37
0.0
 40
341.0
 41
1.24
 42
50.0
 43
0.0
 44
0.0
 50
0.0
 51
0.0
 71
     0
 72
   100
 73
     1
 74
     3
 75
     0
 76
     0
 77
     0
 78
     0
  0
ENDTAB
  0
TABLE
  2
LTYPE
  5
5
330
0
100
AcDbSymbolTable
 70
     1
  0
LTYPE
  5
14
330
5
100
AcDbSymbolTableRecord
100
AcDbLinetypeTableRecord
  2
BYBLOCK
 70
     0
  3

 72
    65
 73
     0
 40
0.0
  0
LTYPE
  5
15
330
5
100
AcDbSymbolTableRecord
100
AcDbLinetypeTableRecord
  2
BYLAYER
 70
     0
  3

 72
    65
 73
     0
 40
0.0
  0
LTYPE
  5
16
330
5
100
AcDbSymbolTableRecord
100
AcDbLinetypeTableRecord
  2
CONTINUOUS
 70
     0
  3
Solid line
 72
    65
 73
     0
 40
0.0
  0
ENDTAB
  0
TABLE
  2
LAYER
  5
2
100
AcDbSymbolTable
 70
4
  0
LAYER
  5
50
100
AcDbSymbolTableRecord
100
AcDbLayerTableRecord
  2
0
 70
0
  6
CONTINUOUS
  0
LAYER
  5
51
100
AcDbSymbolTableRecord
100
AcDbLayerTableRecord
  2
PNG
 70
0
  6
CONTINUOUS
  0
LAYER
  5
52
100
AcDbSymbolTableRecord
100
AcDbLayerTableRecord
  2
Milimeterpapier
 70
0
  6
CONTINUOUS
  0
LAYER
  5
53
100
AcDbSymbolTableRecord
100
AcDbLayerTableRecord
  2
profile
 70
0
  6
CONTINUOUS
  0
ENDTAB
  0
TABLE
  2
STYLE
  5
3
330
0
100
AcDbSymbolTable
 70
     1
  0
STYLE
  5
11
330
3
100
AcDbSymbolTableRecord
100
AcDbTextStyleTableRecord
  2
STANDARD
 70
     0
 40
0.0
 41
1.0
 50
0.0
 71
     0
 42
2.5
  3
txt
  4

  0
ENDTAB
  0
TABLE
  2
VIEW
  5
6
330
0
100
AcDbSymbolTable
 70
     0
  0
ENDTAB
  0
TABLE
  2
UCS
  5
7
330
0
100
AcDbSymbolTable
 70
     0
  0
ENDTAB
  0
TABLE
  2
APPID
  5
9
330
0
100
AcDbSymbolTable
 70
     2
  0
APPID
  5
12
330
9
100
AcDbSymbolTableRecord
100
AcDbRegAppTableRecord
  2
ACAD
 70
     0
  0
ENDTAB
  0
TABLE
  2
DIMSTYLE
  5
A
330
0
100
AcDbSymbolTable
 70
     1
  0
DIMSTYLE
105
27
330
A
100
AcDbSymbolTableRecord
100
AcDbDimStyleTableRecord
  2
ISO-25
 70
     0
  3

  4

  5

  6

  7

 40
1.0
 41
2.5
 42
0.625
 43
3.75
 44
1.25
 45
0.0
 46
0.0
 47
0.0
 48
0.0
140
2.5
141
2.5
142
0.0
143
0.03937007874016
144
1.0
145
0.0
146
1.0
147
0.625
 71
     0
 72
     0
 73
     0
 74
     0
 75
     0
 76
     0
 77
     1
 78
     8
170
     0
171
     3
172
     1
173
     0
174
     0
175
     0
176
     0
177
     0
178
     0
270
     2
271
     2
272
     2
273
     2
274
     3
340
11
275
     0
280
     0
281
     0
282
     0
283
     0
284
     8
285
     0
286
     0
287
     3
288
     0
  0
ENDTAB
  0
TABLE
  2
BLOCK_RECORD
  5
1
330
0
100
AcDbSymbolTable
 70
     1
  0
BLOCK_RECORD
  5
1F
330
1
100
AcDbSymbolTableRecord
100
AcDbBlockTableRecord
  2
*MODEL_SPACE
  0
BLOCK_RECORD
  5
1B
330
1
100
AcDbSymbolTableRecord
100
AcDbBlockTableRecord
  2
*PAPER_SPACE
  0
ENDTAB
  0
ENDSEC
  0
SECTION
  2
BLOCKS
  0
BLOCK
  5
20
330
1F
100
AcDbEntity
  8
0
100
AcDbBlockBegin
  2
*MODEL_SPACE
 70
     0
 10
0.0
 20
0.0
 30
0.0
  3
*MODEL_SPACE
  1

  0
ENDBLK
  5
21
330
1F
100
AcDbEntity
  8
0
100
AcDbBlockEnd
  0
BLOCK
  5
1C
330
1B
100
AcDbEntity
 67
     1
  8
0
100
AcDbBlockBegin
  2
*PAPER_SPACE
  1

  0
ENDBLK
  5
1D
330
1B
100
AcDbEntity
 67
     1
  8
0
100
AcDbBlockEnd
  0
ENDSEC
  0
SECTION
  2
ENTITIES
  0
LWPOLYLINE
  5
100
100
AcDbEntity
  8
profile
 62
7
100
AcDbPolyline
 90
129
 70
0
 10
149.094488
 20
62.263972
 30
0.0
 10
151.370661
 20
62.055376
 30
0.0
 10
155.844608
 20
61.638962
 30
0.0
 10
161.328782
 20
61.118948
 30
0.0
 10
167.260777
 20
60.543593
 30
0.0
 10
173.312614
 20
59.940165
 30
0.0
 10
179.468886
 20
59.307962
 30
0.0
 10
185.479756
 20
58.667258
 30
0.0
 10
191.095394
 20
58.038335
 30
0.0
 10
196.417609
 20
57.409981
 30
0.0
 10
201.704486
 20
56.757026
 30
0.0
 10
206.940626
 20
56.078747
 30
0.0
 10
212.110623
 20
55.374445
 30
0.0
 10
217.199070
 20
54.643407
 30
0.0
 10
222.190563
 20
53.884932
 30
0.0
 10
227.069694
 20
53.098308
 30
0.0
 10
231.821054
 20
52.282827
 30
0.0
 10
238.111164
 20
51.144543
 30
0.0
 10
245.351801
 20
49.777921
 30
0.0
 10
253.489693
 20
48.171990
 30
0.0
 10
262.471582
 20
46.315780
 30
0.0
 10
272.244198
 20
44.198309
 30
0.0
 10
282.754283
 20
41.808601
 30
0.0
 10
293.948571
 20
39.135683
 30
0.0
 10
305.773795
 20
36.168582
 30
0.0
 10
318.176672
 20
32.896314
 30
0.0
 10
331.103973
 20
29.307918
 30
0.0
 10
344.502389
 20
25.392409
 30
0.0
 10
358.318690
 20
21.138812
 30
0.0
 10
372.499595
 20
16.536154
 30
0.0
 10
386.991847
 20
11.573460
 30
0.0
 10
401.742192
 20
6.239753
 30
0.0
 10
416.697317
 20
0.524062
 30
0.0
 10
405.897096
 20
0.556783
 30
0.0
 10
395.743925
 20
0.571402
 30
0.0
 10
386.183986
 20
0.570837
 30
0.0
 10
377.163458
 20
0.558109
 30
0.0
 10
368.628579
 20
0.536209
 30
0.0
 10
360.525442
 20
0.507970
 30
0.0
 10
352.800315
 20
0.476403
 30
0.0
 10
345.399319
 20
0.444470
 30
0.0
 10
337.895877
 20
0.419747
 30
0.0
 10
330.076430
 20
0.407188
 30
0.0
 10
322.206692
 20
0.405777
 30
0.0
 10
314.552346
 20
0.414498
 30
0.0
 10
307.059543
 20
0.436313
 30
0.0
 10
300.100508
 20
0.468933
 30
0.0
 10
294.366994
 20
0.506093
 30
0.0
 10
291.402729
 20
0.530985
 30
0.0
 10
289.160474
 20
0.554183
 30
0.0
 10
284.149928
 20
0.602539
 30
0.0
 10
277.347814
 20
0.664005
 30
0.0
 10
269.304825
 20
0.731786
 30
0.0
 10
260.411898
 20
0.801069
 30
0.0
 10
250.846984
 20
0.869671
 30
0.0
 10
240.947763
 20
0.933436
 30
0.0
 10
231.051926
 20
0.988210
 30
0.0
 10
221.257530
 20
1.032798
 30
0.0
 10
211.556124
 20
1.067317
 30
0.0
 10
202.125635
 20
1.089584
 30
0.0
 10
193.144009
 20
1.097430
 30
0.0
 10
184.789161
 20
1.088653
 30
0.0
 10
177.239040
 20
1.061080
 30
0.0
 10
170.671568
 20
1.012555
 30
0.0
 10
165.264684
 20
0.940876
 30
0.0
 10
153.229486
 20
0.744407
 30
0.0
 10
142.479312
 20
0.603273
 30
0.0
 10
132.853268
 20
0.517012
 30
0.0
 10
124.190485
 20
0.485174
 30
0.0
 10
116.330074
 20
0.507301
 30
0.0
 10
109.111160
 20
0.582959
 30
0.0
 10
102.372850
 20
0.711694
 30
0.0
 10
95.954307
 20
0.893034
 30
0.0
 10
89.694598
 20
1.126544
 30
0.0
 10
83.432869
 20
1.411769
 30
0.0
 10
77.008221
 20
1.748263
 30
0.0
 10
70.259794
 20
2.135559
 30
0.0
 10
63.026706
 20
2.573215
 30
0.0
 10
55.148086
 20
3.060774
 30
0.0
 10
46.463025
 20
3.597789
 30
0.0
 10
36.810655
 20
4.183810
 30
0.0
 10
34.627979
 20
4.379068
 30
0.0
 10
32.136296
 20
4.721353
 30
0.0
 10
29.397341
 20
5.206193
 30
0.0
 10
26.472908
 20
5.829109
 30
0.0
 10
23.424707
 20
6.585634
 30
0.0
 10
20.314529
 20
7.471292
 30
0.0
 10
17.204083
 20
8.481619
 30
0.0
 10
14.155132
 20
9.612137
 30
0.0
 10
11.229470
 20
10.858365
 30
0.0
 10
8.488778
 20
12.215848
 30
0.0
 10
5.994848
 20
13.680105
 30
0.0
 10
3.809445
 20
15.246661
 30
0.0
 10
1.994276
 20
16.911047
 30
0.0
 10
0.611136
 20
18.668792
 30
0.0
 10
-0.278241
 20
20.515417
 30
0.0
 10
-0.612117
 20
22.446460
 30
0.0
 10
-0.246672
 20
26.073267
 30
0.0
 10
0.940480
 20
29.506162
 30
0.0
 10
2.884182
 20
32.747882
 30
0.0
 10
5.519279
 20
35.801182
 30
0.0
 10
8.780613
 20
38.668811
 30
0.0
 10
12.603085
 20
41.353501
 30
0.0
 10
16.921457
 20
43.858028
 30
0.0
 10
21.670655
 20
46.185108
 30
0.0
 10
26.785494
 20
48.337504
 30
0.0
 10
32.200820
 20
50.317968
 30
0.0
 10
37.851477
 20
52.129239
 30
0.0
 10
43.672332
 20
53.774064
 30
0.0
 10
49.598237
 20
55.255192
 30
0.0
 10
55.564000
 20
56.575376
 30
0.0
 10
61.504527
 20
57.737353
 30
0.0
 10
67.354632
 20
58.743879
 30
0.0
 10
71.293768
 20
59.305775
 30
0.0
 10
75.838712
 20
59.831312
 30
0.0
 10
80.893015
 20
60.318535
 30
0.0
 10
86.360334
 20
60.765445
 30
0.0
 10
92.144247
 20
61.170070
 30
0.0
 10
98.148359
 20
61.530431
 30
0.0
 10
104.276301
 20
61.844547
 30
0.0
 10
110.431655
 20
62.110443
 30
0.0
 10
116.654790
 20
62.313891
 30
0.0
 10
122.907917
 20
62.447670
 30
0.0
 10
128.977428
 20
62.520292
 30
0.0
 10
134.649719
 20
62.540273
 30
0.0
 10
139.828393
 20
62.505633
 30
0.0
 10
144.260769
 20
62.428377
 30
0.0
 10
147.576956
 20
62.331014
 30
0.0
 10
149.094488
 20
62.263974
 30
0.0
  0
LWPOLYLINE
  5
101
100
AcDbEntity
  8
profile
 62
7
100
AcDbPolyline
 90
33
 70
0
 10
100.578862
 20
30.375456
 30
0.0
 10
100.092337
 20
25.549230
 30
0.0
 10
98.696963
 20
21.054060
 30
0.0
 10
96.489032
 20
16.986270
 30
0.0
 10
93.564845
 20
13.442132
 30
0.0
 10
90.020704
 20
10.517957
 30
0.0
 10
85.952902
 20
8.310037
 30
0.0
 10
81.457739
 20
6.914662
 30
0.0
 10
76.631513
 20
6.428125
 30
0.0
 10
71.805284
 20
6.914662
 30
0.0
 10
67.310122
 20
8.310037
 30
0.0
 10
63.242322
 20
10.517957
 30
0.0
 10
59.698179
 20
13.442132
 30
0.0
 10
56.773991
 20
16.986270
 30
0.0
 10
54.566061
 20
21.054060
 30
0.0
 10
53.170686
 20
25.549230
 30
0.0
 10
52.684162
 20
30.375456
 30
0.0
 10
53.170686
 20
35.201682
 30
0.0
 10
54.566061
 20
39.696847
 30
0.0
 10
56.773991
 20
43.764650
 30
0.0
 10
59.698179
 20
47.308793
 30
0.0
 10
63.242322
 20
50.232975
 30
0.0
 10
67.310122
 20
52.440906
 30
0.0
 10
71.805284
 20
53.836283
 30
0.0
 10
76.631513
 20
54.322810
 30
0.0
 10
81.457739
 20
53.836283
 30
0.0
 10
85.952902
 20
52.440906
 30
0.0
 10
90.020704
 20
50.232975
 30
0.0
 10
93.564845
 20
47.308793
 30
0.0
 10
96.489032
 20
43.764650
 30
0.0
 10
98.696963
 20
39.696847
 30
0.0
 10
100.092337
 20
35.201682
 30
0.0
 10
100.578862
 20
30.375456
 30
0.0
  0
LWPOLYLINE
  5
102
100
AcDbEntity
  8
profile
 62
7
100
AcDbPolyline
 90
33
 70
0
 10
162.043732
 20
31.971948
 30
0.0
 10
161.484229
 20
26.421786
 30
0.0
 10
159.879548
 20
21.252350
 30
0.0
 10
157.340427
 20
16.574384
 30
0.0
 10
153.977614
 20
12.498624
 30
0.0
 10
149.901849
 20
9.135816
 30
0.0
 10
145.223878
 20
6.596705
 30
0.0
 10
140.054439
 20
4.992035
 30
0.0
 10
134.504280
 20
4.432524
 30
0.0
 10
128.954119
 20
4.992035
 30
0.0
 10
123.784683
 20
6.596705
 30
0.0
 10
119.106711
 20
9.135816
 30
0.0
 10
115.030946
 20
12.498624
 30
0.0
 10
111.668131
 20
16.574384
 30
0.0
 10
109.129012
 20
21.252350
 30
0.0
 10
107.524332
 20
26.421786
 30
0.0
 10
106.964826
 20
31.971948
 30
0.0
 10
107.524332
 20
37.522107
 30
0.0
 10
109.129012
 20
42.691545
 30
0.0
 10
111.668131
 20
47.369519
 30
0.0
 10
115.030946
 20
51.445282
 30
0.0
 10
119.106711
 20
54.808095
 30
0.0
 10
123.784683
 20
57.347216
 30
0.0
 10
128.954119
 20
58.951899
 30
0.0
 10
134.504280
 20
59.511402
 30
0.0
 10
140.054439
 20
58.951899
 30
0.0
 10
145.223878
 20
57.347216
 30
0.0
 10
149.901849
 20
54.808095
 30
0.0
 10
153.977614
 20
51.445282
 30
0.0
 10
157.340427
 20
47.369519
 30
0.0
 10
159.879548
 20
42.691545
 30
0.0
 10
161.484229
 20
37.522107
 30
0.0
 10
162.043732
 20
31.971948
 30
0.0
  0
LWPOLYLINE
  5
103
100
AcDbEntity
  8
profile
 62
7
100
AcDbPolyline
 90
33
 70
0
 10
213.268370
 20
29.811012
 30
0.0
 10
212.789953
 20
25.065223
 30
0.0
 10
211.417835
 20
20.644988
 30
0.0
 10
209.246704
 20
16.644996
 30
0.0
 10
206.371254
 20
13.159913
 30
0.0
 10
202.886181
 20
10.284480
 30
0.0
 10
198.886176
 20
8.113339
 30
0.0
 10
194.465931
 20
6.741231
 30
0.0
 10
189.720141
 20
6.262797
 30
0.0
 10
184.974352
 20
6.741231
 30
0.0
 10
180.554109
 20
8.113339
 30
0.0
 10
176.554105
 20
10.284480
 30
0.0
 10
173.069032
 20
13.159913
 30
0.0
 10
170.193581
 20
16.644996
 30
0.0
 10
168.022450
 20
20.644988
 30
0.0
 10
166.650330
 20
25.065223
 30
0.0
 10
166.171913
 20
29.811012
 30
0.0
 10
166.650330
 20
34.556802
 30
0.0
 10
168.022450
 20
38.977044
 30
0.0
 10
170.193581
 20
42.977051
 30
0.0
 10
173.069032
 20
46.462127
 30
0.0
 10
176.554105
 20
49.337575
 30
0.0
 10
180.554109
 20
51.508706
 30
0.0
 10
184.974352
 20
52.880826
 30
0.0
 10
189.720141
 20
53.359243
 30
0.0
 10
194.465931
 20
52.880826
 30
0.0
 10
198.886176
 20
51.508706
 30
0.0
 10
202.886181
 20
49.337575
 30
0.0
 10
206.371254
 20
46.462127
 30
0.0
 10
209.246704
 20
42.977051
 30
0.0
 10
211.417835
 20
38.977044
 30
0.0
 10
212.789953
 20
34.556802
 30
0.0
 10
213.268370
 20
29.811012
 30
0.0
  0
LWPOLYLINE
  5
104
100
AcDbEntity
  8
profile
 62
7
100
AcDbPolyline
 90
33
 70
0
 10
259.566583
 20
25.985109
 30
0.0
 10
259.136820
 20
21.721943
 30
0.0
 10
257.904237
 20
17.751217
 30
0.0
 10
255.953900
 20
14.158006
 30
0.0
 10
253.370868
 20
11.027354
 30
0.0
 10
250.240208
 20
8.444327
 30
0.0
 10
246.646985
 20
6.493988
 30
0.0
 10
242.676256
 20
5.261402
 30
0.0
 10
238.413089
 20
4.831634
 30
0.0
 10
234.149923
 20
5.261402
 30
0.0
 10
230.179197
 20
6.493988
 30
0.0
 10
226.585971
 20
8.444327
 30
0.0
 10
223.455311
 20
11.027354
 30
0.0
 10
220.872281
 20
14.158006
 30
0.0
 10
218.921942
 20
17.751217
 30
0.0
 10
217.689362
 20
21.721943
 30
0.0
 10
217.259596
 20
25.985109
 30
0.0
 10
217.689362
 20
30.248276
 30
0.0
 10
218.921942
 20
34.219002
 30
0.0
 10
220.872281
 20
37.812231
 30
0.0
 10
223.455311
 20
40.942890
 30
0.0
 10
226.585971
 20
43.525918
 30
0.0
 10
230.179197
 20
45.476257
 30
0.0
 10
234.149923
 20
46.708840
 30
0.0
 10
238.413089
 20
47.138605
 30
0.0
 10
242.676256
 20
46.708840
 30
0.0
 10
246.646985
 20
45.476257
 30
0.0
 10
250.240208
 20
43.525918
 30
0.0
 10
253.370868
 20
40.942890
 30
0.0
 10
255.953900
 20
37.812231
 30
0.0
 10
257.904237
 20
34.219002
 30
0.0
 10
259.136820
 20
30.248276
 30
0.0
 10
259.566583
 20
25.985109
 30
0.0
  0
LWPOLYLINE
  5
105
100
AcDbEntity
  8
profile
 62
7
100
AcDbPolyline
 90
33
 70
0
 10
295.983581
 20
21.360963
 30
0.0
 10
295.642993
 20
17.982611
 30
0.0
 10
294.666236
 20
14.836008
 30
0.0
 10
293.120697
 20
11.988541
 30
0.0
 10
291.073761
 20
9.507647
 30
0.0
 10
288.592867
 20
7.460712
 30
0.0
 10
285.745400
 20
5.915172
 30
0.0
 10
282.598797
 20
4.938415
 30
0.0
 10
279.220420
 20
4.597852
 30
0.0
 10
275.842067
 20
4.938415
 30
0.0
 10
272.695454
 20
5.915172
 30
0.0
 10
269.847992
 20
7.460712
 30
0.0
 10
267.367093
 20
9.507647
 30
0.0
 10
265.320163
 20
11.988541
 30
0.0
 10
263.774611
 20
14.836008
 30
0.0
 10
262.797849
 20
17.982611
 30
0.0
 10
262.457281
 20
21.360963
 30
0.0
 10
262.797849
 20
24.739321
 30
0.0
 10
263.774611
 20
27.885936
 30
0.0
 10
265.320163
 20
30.733398
 30
0.0
 10
267.367093
 20
33.214297
 30
0.0
 10
269.847992
 20
35.261227
 30
0.0
 10
272.695454
 20
36.806779
 30
0.0
 10
275.842067
 20
37.783541
 30
0.0
 10
279.220420
 20
38.124110
 30
0.0
 10
282.598797
 20
37.783541
 30
0.0
 10
285.745400
 20
36.806779
 30
0.0
 10
288.592867
 20
35.261227
 30
0.0
 10
291.073761
 20
33.214297
 30
0.0
 10
293.120697
 20
30.733398
 30
0.0
 10
294.666236
 20
27.885936
 30
0.0
 10
295.642993
 20
24.739321
 30
0.0
 10
295.983581
 20
21.360963
 30
0.0
  0
LWPOLYLINE
  5
106
100
AcDbEntity
  8
profile
 62
7
100
AcDbPolyline
 90
33
 70
0
 10
325.983293
 20
16.970624
 30
0.0
 10
325.729902
 20
14.456964
 30
0.0
 10
325.003132
 20
12.115744
 30
0.0
 10
323.853173
 20
9.997105
 30
0.0
 10
322.330163
 20
8.151185
 30
0.0
 10
320.484244
 20
6.628176
 30
0.0
 10
318.365604
 20
5.478216
 30
0.0
 10
316.024385
 20
4.751471
 30
0.0
 10
313.510724
 20
4.498056
 30
0.0
 10
310.997064
 20
4.751471
 30
0.0
 10
308.655819
 20
5.478216
 30
0.0
 10
306.537180
 20
6.628176
 30
0.0
 10
304.691286
 20
8.151185
 30
0.0
 10
303.168251
 20
9.997105
 30
0.0
 10
302.018291
 20
12.115744
 30
0.0
 10
301.291546
 20
14.456964
 30
0.0
 10
301.038131
 20
16.970624
 30
0.0
 10
301.291546
 20
19.484284
 30
0.0
 10
302.018291
 20
21.825506
 30
0.0
 10
303.168251
 20
23.944153
 30
0.0
 10
304.691286
 20
25.790060
 30
0.0
 10
306.537180
 20
27.313075
 30
0.0
 10
308.655819
 20
28.463037
 30
0.0
 10
310.997064
 20
29.189797
 30
0.0
 10
313.510724
 20
29.443195
 30
0.0
 10
316.024385
 20
29.189797
 30
0.0
 10
318.365604
 20
28.463037
 30
0.0
 10
320.484244
 20
27.313075
 30
0.0
 10
322.330163
 20
25.790060
 30
0.0
 10
323.853173
 20
23.944153
 30
0.0
 10
325.003132
 20
21.825506
 30
0.0
 10
325.729902
 20
19.484284
 30
0.0
 10
325.983293
 20
16.970624
 30
0.0
  0
ENDSEC
  0
SECTION
  2
OBJECTS
  0
DICTIONARY
  5
C
330
0
100
AcDbDictionary
  3
ACAD_GROUP
350
D
  3
ACAD_MLINESTYLE
350
17
  0
DICTIONARY
  5
D
330
C
100
AcDbDictionary
  0
DICTIONARY
  5
1A
330
C
100
AcDbDictionary
  0
DICTIONARY
  5
17
330
C
100
AcDbDictionary
  3
STANDARD
350
18
  0
DICTIONARY
  5
19
330
C
100
AcDbDictionary
  0
ENDSEC
  0
EOF
