  0
SECTION
  2
HEADER
  9
$ACADVER
  1
AC1014
  9
$HANDSEED
  5
FFFF
  9
$MEASUREMENT
 70
     1
  0
ENDSEC
  0
SECTION
  2
TABLES
  0
TABLE
  2
VPORT
  5
8
330
0
100
AcDbSymbolTable
 70
     4
  0
VPORT
  5
2E
330
8
100
AcDbSymbolTableRecord
100
AcDbViewportTableRecord
  2
*ACTIVE
 70
     0
 10
0.0
 20
0.0
 11
1.0
 21
1.0
 12
210.0
 22
148.5
 13
0.0
 23
0.0
 14
10.0
 24
10.0
 15
10.0
 25
10.0
 16
0.0
 26
0.0
 36
1.0
 17
0.0
 27
0.0
 37
0.0
 40
341.0
 41
1.24
 42
50.0
 43
0.0
 44
0.0
 50
0.0
 51
0.0
 71
     0
 72
   100
 73
     1
 74
     3
 75
     0
 76
     0
 77
     0
 78
     0
  0
ENDTAB
  0
TABLE
  2
LTYPE
  5
5
330
0
100
AcDbSymbolTable
 70
     1
  0
LTYPE
  5
14
330
5
100
AcDbSymbolTableRecord
100
AcDbLinetypeTableRecord
  2
BYBLOCK
 70
     0
  3

 72
    65
 73
     0
 40
0.0
  0
LTYPE
  5
15
330
5
100
AcDbSymbolTableRecord
100
AcDbLinetypeTableRecord
  2
BYLAYER
 70
     0
  3

 72
    65
 73
     0
 40
0.0
  0
LTYPE
  5
16
330
5
100
AcDbSymbolTableRecord
100
AcDbLinetypeTableRecord
  2
CONTINUOUS
 70
     0
  3
Solid line
 72
    65
 73
     0
 40
0.0
  0
ENDTAB
  0
TABLE
  2
LAYER
  5
2
100
AcDbSymbolTable
 70
4
  0
LAYER
  5
50
100
AcDbSymbolTableRecord
100
AcDbLayerTableRecord
  2
0
 70
0
  6
CONTINUOUS
  0
LAYER
  5
51
100
AcDbSymbolTableRecord
100
AcDbLayerTableRecord
  2
PNG
 70
0
  6
CONTINUOUS
  0
LAYER
  5
52
100
AcDbSymbolTableRecord
100
AcDbLayerTableRecord
  2
Milimeterpapier
 70
0
  6
CONTINUOUS
  0
LAYER
  5
53
100
AcDbSymbolTableRecord
100
AcDbLayerTableRecord
  2
profile
 70
0
  6
CONTINUOUS
  0
ENDTAB
  0
TABLE
  2
STYLE
  5
3
330
0
100
AcDbSymbolTable
 70
     1
  0
STYLE
  5
11
330
3
100
AcDbSymbolTableRecord
100
AcDbTextStyleTableRecord
  2
STANDARD
 70
     0
 40
0.0
 41
1.0
 50
0.0
 71
     0
 42
2.5
  3
txt
  4

  0
ENDTAB
  0
TABLE
  2
VIEW
  5
6
330
0
100
AcDbSymbolTable
 70
     0
  0
ENDTAB
  0
TABLE
  2
UCS
  5
7
330
0
100
AcDbSymbolTable
 70
     0
  0
ENDTAB
  0
TABLE
  2
APPID
  5
9
330
0
100
AcDbSymbolTable
 70
     2
  0
APPID
  5
12
330
9
100
AcDbSymbolTableRecord
100
AcDbRegAppTableRecord
  2
ACAD
 70
     0
  0
ENDTAB
  0
TABLE
  2
DIMSTYLE
  5
A
330
0
100
AcDbSymbolTable
 70
     1
  0
DIMSTYLE
105
27
330
A
100
AcDbSymbolTableRecord
100
AcDbDimStyleTableRecord
  2
ISO-25
 70
     0
  3

  4

  5

  6

  7

 40
1.0
 41
2.5
 42
0.625
 43
3.75
 44
1.25
 45
0.0
 46
0.0
 47
0.0
 48
0.0
140
2.5
141
2.5
142
0.0
143
0.03937007874016
144
1.0
145
0.0
146
1.0
147
0.625
 71
     0
 72
     0
 73
     0
 74
     0
 75
     0
 76
     0
 77
     1
 78
     8
170
     0
171
     3
172
     1
173
     0
174
     0
175
     0
176
     0
177
     0
178
     0
270
     2
271
     2
272
     2
273
     2
274
     3
340
11
275
     0
280
     0
281
     0
282
     0
283
     0
284
     8
285
     0
286
     0
287
     3
288
     0
  0
ENDTAB
  0
TABLE
  2
BLOCK_RECORD
  5
1
330
0
100
AcDbSymbolTable
 70
     1
  0
BLOCK_RECORD
  5
1F
330
1
100
AcDbSymbolTableRecord
100
AcDbBlockTableRecord
  2
*MODEL_SPACE
  0
BLOCK_RECORD
  5
1B
330
1
100
AcDbSymbolTableRecord
100
AcDbBlockTableRecord
  2
*PAPER_SPACE
  0
ENDTAB
  0
ENDSEC
  0
SECTION
  2
BLOCKS
  0
BLOCK
  5
20
330
1F
100
AcDbEntity
  8
0
100
AcDbBlockBegin
  2
*MODEL_SPACE
 70
     0
 10
0.0
 20
0.0
 30
0.0
  3
*MODEL_SPACE
  1

  0
ENDBLK
  5
21
330
1F
100
AcDbEntity
  8
0
100
AcDbBlockEnd
  0
BLOCK
  5
1C
330
1B
100
AcDbEntity
 67
     1
  8
0
100
AcDbBlockBegin
  2
*PAPER_SPACE
  1

  0
ENDBLK
  5
1D
330
1B
100
AcDbEntity
 67
     1
  8
0
100
AcDbBlockEnd
  0
ENDSEC
  0
SECTION
  2
ENTITIES
  0
LWPOLYLINE
  5
100
100
AcDbEntity
  8
profile
 62
7
100
AcDbPolyline
 90
129
 70
0
 10
148.997697
 20
105.860559
 30
0.0
 10
151.273870
 20
105.651962
 30
0.0
 10
155.747820
 20
105.235548
 30
0.0
 10
161.231993
 20
104.715534
 30
0.0
 10
167.163988
 20
104.140178
 30
0.0
 10
173.215826
 20
103.536751
 30
0.0
 10
179.372097
 20
102.904547
 30
0.0
 10
185.382968
 20
102.263843
 30
0.0
 10
190.998606
 20
101.634920
 30
0.0
 10
196.320818
 20
101.006566
 30
0.0
 10
201.607698
 20
100.353611
 30
0.0
 10
206.843837
 20
99.675332
 30
0.0
 10
212.013835
 20
98.971030
 30
0.0
 10
217.102282
 20
98.239993
 30
0.0
 10
222.093774
 20
97.481518
 30
0.0
 10
226.972905
 20
96.694894
 30
0.0
 10
231.724266
 20
95.879413
 30
0.0
 10
238.014373
 20
94.741128
 30
0.0
 10
245.255010
 20
93.374507
 30
0.0
 10
253.392902
 20
91.768575
 30
0.0
 10
262.374793
 20
89.912366
 30
0.0
 10
272.147409
 20
87.794895
 30
0.0
 10
282.657495
 20
85.405186
 30
0.0
 10
293.851774
 20
82.732268
 30
0.0
 10
305.676995
 20
79.765167
 30
0.0
 10
318.079872
 20
76.492899
 30
0.0
 10
331.007174
 20
72.904503
 30
0.0
 10
344.405589
 20
68.988994
 30
0.0
 10
358.221891
 20
64.735397
 30
0.0
 10
372.402795
 20
60.132739
 30
0.0
 10
386.895048
 20
55.170045
 30
0.0
 10
401.645392
 20
49.836339
 30
0.0
 10
416.600517
 20
44.120647
 30
0.0
 10
405.800296
 20
44.153368
 30
0.0
 10
395.647126
 20
44.167987
 30
0.0
 10
386.087187
 20
44.167423
 30
0.0
 10
377.066659
 20
44.154695
 30
0.0
 10
368.531779
 20
44.132794
 30
0.0
 10
360.428643
 20
44.104555
 30
0.0
 10
352.703515
 20
44.072988
 30
0.0
 10
345.302519
 20
44.041055
 30
0.0
 10
337.799077
 20
44.016332
 30
0.0
 10
329.979631
 20
44.003773
 30
0.0
 10
322.109892
 20
44.002362
 30
0.0
 10
314.455546
 20
44.011083
 30
0.0
 10
306.962743
 20
44.032899
 30
0.0
 10
300.003730
 20
44.065518
 30
0.0
 10
294.270208
 20
44.102678
 30
0.0
 10
291.305938
 20
44.127570
 30
0.0
 10
289.063688
 20
44.150769
 30
0.0
 10
284.053143
 20
44.199125
 30
0.0
 10
277.251023
 20
44.260590
 30
0.0
 10
269.208034
 20
44.328371
 30
0.0
 10
260.315110
 20
44.397654
 30
0.0
 10
250.750195
 20
44.466257
 30
0.0
 10
240.850974
 20
44.530022
 30
0.0
 10
230.955137
 20
44.584796
 30
0.0
 10
221.160742
 20
44.629384
 30
0.0
 10
211.459336
 20
44.663902
 30
0.0
 10
202.028847
 20
44.686170
 30
0.0
 10
193.047218
 20
44.694016
 30
0.0
 10
184.692373
 20
44.685238
 30
0.0
 10
177.142251
 20
44.657665
 30
0.0
 10
170.574779
 20
44.609140
 30
0.0
 10
165.167893
 20
44.537461
 30
0.0
 10
153.132698
 20
44.340992
 30
0.0
 10
142.382523
 20
44.199859
 30
0.0
 10
132.756479
 20
44.113597
 30
0.0
 10
124.093696
 20
44.081760
 30
0.0
 10
116.233285
 20
44.103886
 30
0.0
 10
109.014371
 20
44.179544
 30
0.0
 10
102.276062
 20
44.308280
 30
0.0
 10
95.857516
 20
44.489619
 30
0.0
 10
89.597810
 20
44.723130
 30
0.0
 10
83.336078
 20
45.008355
 30
0.0
 10
76.911430
 20
45.344848
 30
0.0
 10
70.163005
 20
45.732145
 30
0.0
 10
62.929918
 20
46.169801
 30
0.0
 10
55.051298
 20
46.657359
 30
0.0
 10
46.366236
 20
47.194375
 30
0.0
 10
36.713866
 20
47.780395
 30
0.0
 10
34.531189
 20
47.975653
 30
0.0
 10
32.039505
 20
48.317938
 30
0.0
 10
29.300552
 20
48.802779
 30
0.0
 10
26.376119
 20
49.425694
 30
0.0
 10
23.327918
 20
50.182219
 30
0.0
 10
20.217739
 20
51.067877
 30
0.0
 10
17.107293
 20
52.078205
 30
0.0
 10
14.058343
 20
53.208722
 30
0.0
 10
11.132681
 20
54.454950
 30
0.0
 10
8.391989
 20
55.812434
 30
0.0
 10
5.898059
 20
57.276690
 30
0.0
 10
3.712656
 20
58.843246
 30
0.0
 10
1.897487
 20
60.507632
 30
0.0
 10
0.514346
 20
62.265377
 30
0.0
 10
-0.375031
 20
64.112002
 30
0.0
 10
-0.708906
 20
66.043046
 30
0.0
 10
-0.343461
 20
69.669852
 30
0.0
 10
0.843691
 20
73.102747
 30
0.0
 10
2.787392
 20
76.344467
 30
0.0
 10
5.422489
 20
79.397767
 30
0.0
 10
8.683824
 20
82.265396
 30
0.0
 10
12.506296
 20
84.950086
 30
0.0
 10
16.824668
 20
87.454614
 30
0.0
 10
21.573866
 20
89.781694
 30
0.0
 10
26.688704
 20
91.934090
 30
0.0
 10
32.104030
 20
93.914553
 30
0.0
 10
37.754686
 20
95.725824
 30
0.0
 10
43.575544
 20
97.370649
 30
0.0
 10
49.501447
 20
98.851777
 30
0.0
 10
55.467212
 20
100.171962
 30
0.0
 10
61.407738
 20
101.333938
 30
0.0
 10
67.257844
 20
102.340464
 30
0.0
 10
71.196980
 20
102.902360
 30
0.0
 10
75.741923
 20
103.427899
 30
0.0
 10
80.796227
 20
103.915122
 30
0.0
 10
86.263546
 20
104.362031
 30
0.0
 10
92.047459
 20
104.766657
 30
0.0
 10
98.051570
 20
105.127017
 30
0.0
 10
104.179512
 20
105.441132
 30
0.0
 10
110.334864
 20
105.707028
 30
0.0
 10
116.558002
 20
105.910478
 30
0.0
 10
122.811129
 20
106.044256
 30
0.0
 10
128.880640
 20
106.116878
 30
0.0
 10
134.552931
 20
106.136857
 30
0.0
 10
139.731602
 20
106.102215
 30
0.0
 10
144.163978
 20
106.024961
 30
0.0
 10
147.480168
 20
105.927598
 30
0.0
 10
148.997697
 20
105.860559
 30
0.0
  0
ENDSEC
  0
SECTION
  2
OBJECTS
  0
DICTIONARY
  5
C
330
0
100
AcDbDictionary
  3
ACAD_GROUP
350
D
  3
ACAD_MLINESTYLE
350
17
  0
DICTIONARY
  5
D
330
C
100
AcDbDictionary
  0
DICTIONARY
  5
1A
330
C
100
AcDbDictionary
  0
DICTIONARY
  5
17
330
C
100
AcDbDictionary
  3
STANDARD
350
18
  0
DICTIONARY
  5
19
330
C
100
AcDbDictionary
  0
ENDSEC
  0
EOF
