  0
SECTION
  2
HEADER
  9
$ACADVER
  1
AC1014
  9
$HANDSEED
  5
FFFF
  9
$MEASUREMENT
 70
     1
  0
ENDSEC
  0
SECTION
  2
TABLES
  0
TABLE
  2
VPORT
  5
8
330
0
100
AcDbSymbolTable
 70
     4
  0
VPORT
  5
2E
330
8
100
AcDbSymbolTableRecord
100
AcDbViewportTableRecord
  2
*ACTIVE
 70
     0
 10
0.0
 20
0.0
 11
1.0
 21
1.0
 12
210.0
 22
148.5
 13
0.0
 23
0.0
 14
10.0
 24
10.0
 15
10.0
 25
10.0
 16
0.0
 26
0.0
 36
1.0
 17
0.0
 27
0.0
 37
0.0
 40
341.0
 41
1.24
 42
50.0
 43
0.0
 44
0.0
 50
0.0
 51
0.0
 71
     0
 72
   100
 73
     1
 74
     3
 75
     0
 76
     0
 77
     0
 78
     0
  0
ENDTAB
  0
TABLE
  2
LTYPE
  5
5
330
0
100
AcDbSymbolTable
 70
     1
  0
LTYPE
  5
14
330
5
100
AcDbSymbolTableRecord
100
AcDbLinetypeTableRecord
  2
BYBLOCK
 70
     0
  3

 72
    65
 73
     0
 40
0.0
  0
LTYPE
  5
15
330
5
100
AcDbSymbolTableRecord
100
AcDbLinetypeTableRecord
  2
BYLAYER
 70
     0
  3

 72
    65
 73
     0
 40
0.0
  0
LTYPE
  5
16
330
5
100
AcDbSymbolTableRecord
100
AcDbLinetypeTableRecord
  2
CONTINUOUS
 70
     0
  3
Solid line
 72
    65
 73
     0
 40
0.0
  0
ENDTAB
  0
TABLE
  2
LAYER
  5
2
100
AcDbSymbolTable
 70
4
  0
LAYER
  5
50
100
AcDbSymbolTableRecord
100
AcDbLayerTableRecord
  2
0
 70
0
  6
CONTINUOUS
  0
LAYER
  5
51
100
AcDbSymbolTableRecord
100
AcDbLayerTableRecord
  2
PNG
 70
0
  6
CONTINUOUS
  0
LAYER
  5
52
100
AcDbSymbolTableRecord
100
AcDbLayerTableRecord
  2
Milimeterpapier
 70
0
  6
CONTINUOUS
  0
LAYER
  5
53
100
AcDbSymbolTableRecord
100
AcDbLayerTableRecord
  2
profile
 70
0
  6
CONTINUOUS
  0
ENDTAB
  0
TABLE
  2
STYLE
  5
3
330
0
100
AcDbSymbolTable
 70
     1
  0
STYLE
  5
11
330
3
100
AcDbSymbolTableRecord
100
AcDbTextStyleTableRecord
  2
STANDARD
 70
     0
 40
0.0
 41
1.0
 50
0.0
 71
     0
 42
2.5
  3
txt
  4

  0
ENDTAB
  0
TABLE
  2
VIEW
  5
6
330
0
100
AcDbSymbolTable
 70
     0
  0
ENDTAB
  0
TABLE
  2
UCS
  5
7
330
0
100
AcDbSymbolTable
 70
     0
  0
ENDTAB
  0
TABLE
  2
APPID
  5
9
330
0
100
AcDbSymbolTable
 70
     2
  0
APPID
  5
12
330
9
100
AcDbSymbolTableRecord
100
AcDbRegAppTableRecord
  2
ACAD
 70
     0
  0
ENDTAB
  0
TABLE
  2
DIMSTYLE
  5
A
330
0
100
AcDbSymbolTable
 70
     1
  0
DIMSTYLE
105
27
330
A
100
AcDbSymbolTableRecord
100
AcDbDimStyleTableRecord
  2
ISO-25
 70
     0
  3

  4

  5

  6

  7

 40
1.0
 41
2.5
 42
0.625
 43
3.75
 44
1.25
 45
0.0
 46
0.0
 47
0.0
 48
0.0
140
2.5
141
2.5
142
0.0
143
0.03937007874016
144
1.0
145
0.0
146
1.0
147
0.625
 71
     0
 72
     0
 73
     0
 74
     0
 75
     0
 76
     0
 77
     1
 78
     8
170
     0
171
     3
172
     1
173
     0
174
     0
175
     0
176
     0
177
     0
178
     0
270
     2
271
     2
272
     2
273
     2
274
     3
340
11
275
     0
280
     0
281
     0
282
     0
283
     0
284
     8
285
     0
286
     0
287
     3
288
     0
  0
ENDTAB
  0
TABLE
  2
BLOCK_RECORD
  5
1
330
0
100
AcDbSymbolTable
 70
     1
  0
BLOCK_RECORD
  5
1F
330
1
100
AcDbSymbolTableRecord
100
AcDbBlockTableRecord
  2
*MODEL_SPACE
  0
BLOCK_RECORD
  5
1B
330
1
100
AcDbSymbolTableRecord
100
AcDbBlockTableRecord
  2
*PAPER_SPACE
  0
ENDTAB
  0
ENDSEC
  0
SECTION
  2
BLOCKS
  0
BLOCK
  5
20
330
1F
100
AcDbEntity
  8
0
100
AcDbBlockBegin
  2
*MODEL_SPACE
 70
     0
 10
0.0
 20
0.0
 30
0.0
  3
*MODEL_SPACE
  1

  0
ENDBLK
  5
21
330
1F
100
AcDbEntity
  8
0
100
AcDbBlockEnd
  0
BLOCK
  5
1C
330
1B
100
AcDbEntity
 67
     1
  8
0
100
AcDbBlockBegin
  2
*PAPER_SPACE
  1

  0
ENDBLK
  5
1D
330
1B
100
AcDbEntity
 67
     1
  8
0
100
AcDbBlockEnd
  0
ENDSEC
  0
SECTION
  2
ENTITIES
  0
LWPOLYLINE
  5
100
100
AcDbEntity
  8
profile
 62
7
100
AcDbPolyline
 90
129
 70
0
 10
148.997697
 20
105.860559
 30
0.0
 10
151.273870
 20
105.651962
 30
0.0
 10
155.747820
 20
105.235548
 30
0.0
 10
161.231993
 20
104.715534
 30
0.0
 10
167.163988
 20
104.140178
 30
0.0
 10
173.215826
 20
103.536751
 30
0.0
 10
179.372097
 20
102.904547
 30
0.0
 10
185.382968
 20
102.263843
 30
0.0
 10
190.998606
 20
101.634920
 30
0.0
 10
196.320818
 20
101.006566
 30
0.0
 10
201.607698
 20
100.353611
 30
0.0
 10
206.843837
 20
99.675332
 30
0.0
 10
212.013835
 20
98.971030
 30
0.0
 10
217.102282
 20
98.239993
 30
0.0
 10
222.093774
 20
97.481518
 30
0.0
 10
226.972905
 20
96.694894
 30
0.0
 10
231.724266
 20
95.879413
 30
0.0
 10
238.014373
 20
94.741128
 30
0.0
 10
245.255010
 20
93.374507
 30
0.0
 10
253.392902
 20
91.768575
 30
0.0
 10
262.374793
 20
89.912366
 30
0.0
 10
272.147409
 20
87.794895
 30
0.0
 10
282.657495
 20
85.405186
 30
0.0
 10
293.851774
 20
82.732268
 30
0.0
 10
305.676995
 20
79.765167
 30
0.0
 10
318.079872
 20
76.492899
 30
0.0
 10
331.007174
 20
72.904503
 30
0.0
 10
344.405589
 20
68.988994
 30
0.0
 10
358.221891
 20
64.735397
 30
0.0
 10
372.402795
 20
60.132739
 30
0.0
 10
386.895048
 20
55.170045
 30
0.0
 10
401.645392
 20
49.836339
 30
0.0
 10
416.600517
 20
44.120647
 30
0.0
 10
405.800296
 20
44.153368
 30
0.0
 10
395.647126
 20
44.167987
 30
0.0
 10
386.087187
 20
44.167423
 30
0.0
 10
377.066659
 20
44.154695
 30
0.0
 10
368.531779
 20
44.132794
 30
0.0
 10
360.428643
 20
44.104555
 30
0.0
 10
352.703515
 20
44.072988
 30
0.0
 10
345.302519
 20
44.041055
 30
0.0
 10
337.799077
 20
44.016332
 30
0.0
 10
329.979631
 20
44.003773
 30
0.0
 10
322.109892
 20
44.002362
 30
0.0
 10
314.455546
 20
44.011083
 30
0.0
 10
306.962743
 20
44.032899
 30
0.0
 10
300.003730
 20
44.065518
 30
0.0
 10
294.270208
 20
44.102678
 30
0.0
 10
291.305938
 20
44.127570
 30
0.0
 10
289.063688
 20
44.150769
 30
0.0
 10
284.053143
 20
44.199125
 30
0.0
 10
277.251023
 20
44.260590
 30
0.0
 10
269.208034
 20
44.328371
 30
0.0
 10
260.315110
 20
44.397654
 30
0.0
 10
250.750195
 20
44.466257
 30
0.0
 10
240.850974
 20
44.530022
 30
0.0
 10
230.955137
 20
44.584796
 30
0.0
 10
221.160742
 20
44.629384
 30
0.0
 10
211.459336
 20
44.663902
 30
0.0
 10
202.028847
 20
44.686170
 30
0.0
 10
193.047218
 20
44.694016
 30
0.0
 10
184.692373
 20
44.685238
 30
0.0
 10
177.142251
 20
44.657665
 30
0.0
 10
170.574779
 20
44.609140
 30
0.0
 10
165.167893
 20
44.537461
 30
0.0
 10
153.132698
 20
44.340992
 30
0.0
 10
142.382523
 20
44.199859
 30
0.0
 10
132.756479
 20
44.113597
 30
0.0
 10
124.093696
 20
44.081760
 30
0.0
 10
116.233285
 20
44.103886
 30
0.0
 10
109.014371
 20
44.179544
 30
0.0
 10
102.276062
 20
44.308280
 30
0.0
 10
95.857516
 20
44.489619
 30
0.0
 10
89.597810
 20
44.723130
 30
0.0
 10
83.336078
 20
45.008355
 30
0.0
 10
76.911430
 20
45.344848
 30
0.0
 10
70.163005
 20
45.732145
 30
0.0
 10
62.929918
 20
46.169801
 30
0.0
 10
55.051298
 20
46.657359
 30
0.0
 10
46.366236
 20
47.194375
 30
0.0
 10
36.713866
 20
47.780395
 30
0.0
 10
34.531189
 20
47.975653
 30
0.0
 10
32.039505
 20
48.317938
 30
0.0
 10
29.300552
 20
48.802779
 30
0.0
 10
26.376119
 20
49.425694
 30
0.0
 10
23.327918
 20
50.182219
 30
0.0
 10
20.217739
 20
51.067877
 30
0.0
 10
17.107293
 20
52.078205
 30
0.0
 10
14.058343
 20
53.208722
 30
0.0
 10
11.132681
 20
54.454950
 30
0.0
 10
8.391989
 20
55.812434
 30
0.0
 10
5.898059
 20
57.276690
 30
0.0
 10
3.712656
 20
58.843246
 30
0.0
 10
1.897487
 20
60.507632
 30
0.0
 10
0.514346
 20
62.265377
 30
0.0
 10
-0.375031
 20
64.112002
 30
0.0
 10
-0.708906
 20
66.043046
 30
0.0
 10
-0.343461
 20
69.669852
 30
0.0
 10
0.843691
 20
73.102747
 30
0.0
 10
2.787392
 20
76.344467
 30
0.0
 10
5.422489
 20
79.397767
 30
0.0
 10
8.683824
 20
82.265396
 30
0.0
 10
12.506296
 20
84.950086
 30
0.0
 10
16.824668
 20
87.454614
 30
0.0
 10
21.573866
 20
89.781694
 30
0.0
 10
26.688704
 20
91.934090
 30
0.0
 10
32.104030
 20
93.914553
 30
0.0
 10
37.754686
 20
95.725824
 30
0.0
 10
43.575544
 20
97.370649
 30
0.0
 10
49.501447
 20
98.851777
 30
0.0
 10
55.467212
 20
100.171962
 30
0.0
 10
61.407738
 20
101.333938
 30
0.0
 10
67.257844
 20
102.340464
 30
0.0
 10
71.196980
 20
102.902360
 30
0.0
 10
75.741923
 20
103.427899
 30
0.0
 10
80.796227
 20
103.915122
 30
0.0
 10
86.263546
 20
104.362031
 30
0.0
 10
92.047459
 20
104.766657
 30
0.0
 10
98.051570
 20
105.127017
 30
0.0
 10
104.179512
 20
105.441132
 30
0.0
 10
110.334864
 20
105.707028
 30
0.0
 10
116.558002
 20
105.910478
 30
0.0
 10
122.811129
 20
106.044256
 30
0.0
 10
128.880640
 20
106.116878
 30
0.0
 10
134.552931
 20
106.136857
 30
0.0
 10
139.731602
 20
106.102215
 30
0.0
 10
144.163978
 20
106.024961
 30
0.0
 10
147.480168
 20
105.927598
 30
0.0
 10
148.997697
 20
105.860559
 30
0.0
  0
LWPOLYLINE
  5
101
100
AcDbEntity
  8
profile
 62
7
100
AcDbPolyline
 90
73
 70
0
 10
35.721252
 20
60.171096
 30
0.0
 10
35.666216
 20
60.590577
 30
0.0
 10
35.611180
 20
61.010058
 30
0.0
 10
35.556143
 20
61.429539
 30
0.0
 10
35.501107
 20
61.849020
 30
0.0
 10
35.446071
 20
62.268504
 30
0.0
 10
35.391034
 20
62.687985
 30
0.0
 10
35.335998
 20
63.107466
 30
0.0
 10
35.280961
 20
63.526947
 30
0.0
 10
35.248683
 20
64.074899
 30
0.0
 10
35.216405
 20
64.622847
 30
0.0
 10
35.184126
 20
65.170798
 30
0.0
 10
35.151848
 20
65.718750
 30
0.0
 10
35.119570
 20
66.266698
 30
0.0
 10
35.087292
 20
66.814650
 30
0.0
 10
35.055013
 20
67.362598
 30
0.0
 10
35.022735
 20
67.910550
 30
0.0
 10
35.011813
 20
68.519190
 30
0.0
 10
35.000891
 20
69.127828
 30
0.0
 10
34.989969
 20
69.736468
 30
0.0
 10
34.979047
 20
70.345109
 30
0.0
 10
34.968125
 20
70.953749
 30
0.0
 10
34.957203
 20
71.562387
 30
0.0
 10
34.946281
 20
72.171027
 30
0.0
 10
34.935359
 20
72.779668
 30
0.0
 10
34.944396
 20
73.381216
 30
0.0
 10
34.953432
 20
73.982764
 30
0.0
 10
34.962466
 20
74.584312
 30
0.0
 10
34.971503
 20
75.185860
 30
0.0
 10
34.980540
 20
75.787411
 30
0.0
 10
34.989577
 20
76.388960
 30
0.0
 10
34.998611
 20
76.990508
 30
0.0
 10
35.007647
 20
77.592056
 30
0.0
 10
35.035237
 20
78.118733
 30
0.0
 10
35.062827
 20
78.645411
 30
0.0
 10
35.090418
 20
79.172088
 30
0.0
 10
35.118008
 20
79.698763
 30
0.0
 10
35.145598
 20
80.225441
 30
0.0
 10
35.173188
 20
80.752118
 30
0.0
 10
35.200778
 20
81.278795
 30
0.0
 10
35.228368
 20
81.805473
 30
0.0
 10
35.273113
 20
82.189498
 30
0.0
 10
35.317858
 20
82.573527
 30
0.0
 10
35.362603
 20
82.957552
 30
0.0
 10
35.407349
 20
83.341577
 30
0.0
 10
35.452094
 20
83.725603
 30
0.0
 10
35.496839
 20
84.109631
 30
0.0
 10
35.541584
 20
84.493657
 30
0.0
 10
35.586330
 20
84.877682
 30
0.0
 10
35.775024
 20
85.323167
 30
0.0
 10
35.963718
 20
85.768652
 30
0.0
 10
36.152412
 20
86.214134
 30
0.0
 10
36.341106
 20
86.659619
 30
0.0
 10
36.529801
 20
87.105104
 30
0.0
 10
36.718495
 20
87.550589
 30
0.0
 10
36.907189
 20
87.996071
 30
0.0
 10
37.095883
 20
88.441556
 30
0.0
 10
50.000189
 20
91.989036
 30
0.0
 10
62.233175
 20
94.882073
 30
0.0
 10
74.013732
 20
97.196236
 30
0.0
 10
85.560761
 20
99.007092
 30
0.0
 10
97.093154
 20
100.390207
 30
0.0
 10
108.829805
 20
101.421154
 30
0.0
 10
120.989615
 20
102.175498
 30
0.0
 10
133.791478
 20
102.728808
 30
0.0
 10
111.953108
 20
95.597966
 30
0.0
 10
93.653966
 20
89.101276
 30
0.0
 10
78.492951
 20
83.180395
 30
0.0
 10
66.068959
 20
77.776976
 30
0.0
 10
55.980895
 20
72.832683
 30
0.0
 10
47.827654
 20
68.289165
 30
0.0
 10
41.208138
 20
64.088084
 30
0.0
 10
35.721252
 20
60.171096
 30
0.0
  0
LWPOLYLINE
  5
102
100
AcDbEntity
  8
profile
 62
7
100
AcDbPolyline
 90
81
 70
0
 10
156.827359
 20
101.724438
 30
0.0
 10
188.091412
 20
97.960404
 30
0.0
 10
218.811343
 20
93.236226
 30
0.0
 10
248.978856
 20
87.628050
 30
0.0
 10
278.585657
 20
81.212022
 30
0.0
 10
307.623454
 20
74.064284
 30
0.0
 10
336.083928
 20
66.260986
 30
0.0
 10
363.958819
 20
57.878272
 30
0.0
 10
391.239831
 20
48.992285
 30
0.0
 10
388.090343
 20
48.991156
 30
0.0
 10
385.074150
 20
49.081216
 30
0.0
 10
382.146800
 20
49.232078
 30
0.0
 10
379.263928
 20
49.413341
 30
0.0
 10
376.381028
 20
49.594604
 30
0.0
 10
373.453678
 20
49.745466
 30
0.0
 10
370.437485
 20
49.835526
 30
0.0
 10
367.287997
 20
49.834397
 30
0.0
 10
363.889760
 20
50.575510
 30
0.0
 10
360.491494
 20
51.316622
 30
0.0
 10
357.093256
 20
52.057738
 30
0.0
 10
353.695018
 20
52.798851
 30
0.0
 10
350.296752
 20
53.539963
 30
0.0
 10
346.898514
 20
54.281079
 30
0.0
 10
343.500248
 20
55.022192
 30
0.0
 10
340.102011
 20
55.763304
 30
0.0
 10
336.753670
 20
56.604200
 30
0.0
 10
333.405301
 20
57.445092
 30
0.0
 10
330.056960
 20
58.285987
 30
0.0
 10
326.708591
 20
59.126880
 30
0.0
 10
323.360250
 20
59.967775
 30
0.0
 10
320.011881
 20
60.808667
 30
0.0
 10
316.663540
 20
61.649563
 30
0.0
 10
313.315171
 20
62.490455
 30
0.0
 10
309.966801
 20
63.331350
 30
0.0
 10
306.618461
 20
64.172243
 30
0.0
 10
303.270097
 20
65.013138
 30
0.0
 10
299.921739
 20
65.854033
 30
0.0
 10
296.573381
 20
66.694925
 30
0.0
 10
293.225024
 20
67.535821
 30
0.0
 10
289.876666
 20
68.376713
 30
0.0
 10
286.528308
 20
69.217608
 30
0.0
 10
283.179950
 20
70.058504
 30
0.0
 10
279.831595
 20
70.899396
 30
0.0
 10
276.483237
 20
71.740291
 30
0.0
 10
273.134882
 20
72.581184
 30
0.0
 10
269.786524
 20
73.422079
 30
0.0
 10
266.438167
 20
74.262971
 30
0.0
 10
263.089812
 20
75.103866
 30
0.0
 10
259.741454
 20
75.944759
 30
0.0
 10
256.393096
 20
76.785654
 30
0.0
 10
253.044741
 20
77.626546
 30
0.0
 10
249.696383
 20
78.467442
 30
0.0
 10
246.348025
 20
79.308337
 30
0.0
 10
242.999668
 20
80.149229
 30
0.0
 10
239.651313
 20
80.990124
 30
0.0
 10
236.302955
 20
81.831017
 30
0.0
 10
232.954597
 20
82.671912
 30
0.0
 10
229.606239
 20
83.512807
 30
0.0
 10
226.257884
 20
84.353700
 30
0.0
 10
222.909526
 20
85.194595
 30
0.0
 10
219.561168
 20
86.035487
 30
0.0
 10
216.212811
 20
86.876383
 30
0.0
 10
212.864456
 20
87.717275
 30
0.0
 10
209.516098
 20
88.558170
 30
0.0
 10
206.167740
 20
89.399063
 30
0.0
 10
202.819382
 20
90.239958
 30
0.0
 10
199.471027
 20
91.080850
 30
0.0
 10
196.122669
 20
91.921745
 30
0.0
 10
192.774311
 20
92.762641
 30
0.0
 10
189.425954
 20
93.603533
 30
0.0
 10
186.077599
 20
94.444428
 30
0.0
 10
182.729241
 20
95.285321
 30
0.0
 10
179.380883
 20
96.126216
 30
0.0
 10
176.561692
 20
96.826000
 30
0.0
 10
173.742504
 20
97.525781
 30
0.0
 10
170.923312
 20
98.225563
 30
0.0
 10
168.104121
 20
98.925347
 30
0.0
 10
165.284930
 20
99.625131
 30
0.0
 10
162.465742
 20
100.324912
 30
0.0
 10
159.646551
 20
101.024693
 30
0.0
 10
156.827359
 20
101.724438
 30
0.0
  0
LWPOLYLINE
  5
103
100
AcDbEntity
  8
profile
 62
7
100
AcDbPolyline
 90
169
 70
0
 10
360.154549
 20
47.245121
 30
0.0
 10
356.909981
 20
47.308452
 30
0.0
 10
353.665385
 20
47.371785
 30
0.0
 10
350.420817
 20
47.435116
 30
0.0
 10
347.176221
 20
47.498446
 30
0.0
 10
343.931653
 20
47.561780
 30
0.0
 10
340.687057
 20
47.625111
 30
0.0
 10
337.442489
 20
47.688444
 30
0.0
 10
334.197893
 20
47.751775
 30
0.0
 10
330.933006
 20
47.788673
 30
0.0
 10
327.668118
 20
47.825567
 30
0.0
 10
324.403230
 20
47.862465
 30
0.0
 10
321.138342
 20
47.899360
 30
0.0
 10
317.873426
 20
47.936258
 30
0.0
 10
314.608539
 20
47.973156
 30
0.0
 10
311.343651
 20
48.010050
 30
0.0
 10
308.078763
 20
48.046948
 30
0.0
 10
304.792745
 20
48.061624
 30
0.0
 10
301.506727
 20
48.076299
 30
0.0
 10
298.220707
 20
48.090947
 30
0.0
 10
294.934689
 20
48.105622
 30
0.0
 10
291.648671
 20
48.120270
 30
0.0
 10
288.362654
 20
48.134945
 30
0.0
 10
285.076633
 20
48.149621
 30
0.0
 10
281.790615
 20
48.164268
 30
0.0
 10
278.482649
 20
48.160881
 30
0.0
 10
275.174686
 20
48.157523
 30
0.0
 10
271.866720
 20
48.154136
 30
0.0
 10
268.558753
 20
48.150750
 30
0.0
 10
265.250787
 20
48.147363
 30
0.0
 10
261.942824
 20
48.143976
 30
0.0
 10
258.634858
 20
48.140618
 30
0.0
 10
255.326891
 20
48.137231
 30
0.0
 10
251.996161
 20
48.120016
 30
0.0
 10
248.665428
 20
48.102800
 30
0.0
 10
245.334698
 20
48.085584
 30
0.0
 10
242.003965
 20
48.068369
 30
0.0
 10
238.673235
 20
48.051153
 30
0.0
 10
235.342502
 20
48.033938
 30
0.0
 10
232.011771
 20
48.016722
 30
0.0
 10
228.681038
 20
47.999507
 30
0.0
 10
225.326720
 20
47.972667
 30
0.0
 10
221.972405
 20
47.945828
 30
0.0
 10
218.618086
 20
47.918989
 30
0.0
 10
215.263771
 20
47.892149
 30
0.0
 10
211.909452
 20
47.865310
 30
0.0
 10
208.555134
 20
47.838471
 30
0.0
 10
205.200818
 20
47.811631
 30
0.0
 10
201.846500
 20
47.784792
 30
0.0
 10
185.032527
 20
47.921181
 30
0.0
 10
172.096623
 20
47.858974
 30
0.0
 10
162.556363
 20
47.895934
 30
0.0
 10
155.929323
 20
48.329825
 30
0.0
 10
151.733076
 20
49.458406
 30
0.0
 10
149.485199
 20
51.579450
 30
0.0
 10
148.703265
 20
54.990713
 30
0.0
 10
148.904848
 20
59.989963
 30
0.0
 10
148.987328
 20
60.785672
 30
0.0
 10
149.069810
 20
61.581381
 30
0.0
 10
149.152289
 20
62.377089
 30
0.0
 10
149.234769
 20
63.172798
 30
0.0
 10
149.317251
 20
63.968506
 30
0.0
 10
149.399731
 20
64.764215
 30
0.0
 10
149.482213
 20
65.559924
 30
0.0
 10
149.564692
 20
66.355632
 30
0.0
 10
149.647172
 20
67.151341
 30
0.0
 10
149.729654
 20
67.947049
 30
0.0
 10
149.812133
 20
68.742758
 30
0.0
 10
149.894613
 20
69.538467
 30
0.0
 10
149.977095
 20
70.334175
 30
0.0
 10
150.059575
 20
71.129884
 30
0.0
 10
150.142057
 20
71.925593
 30
0.0
 10
150.224536
 20
72.721301
 30
0.0
 10
150.307016
 20
73.517010
 30
0.0
 10
150.389498
 20
74.312718
 30
0.0
 10
150.471977
 20
75.108427
 30
0.0
 10
150.554460
 20
75.904136
 30
0.0
 10
150.636939
 20
76.699844
 30
0.0
 10
150.719421
 20
77.495553
 30
0.0
 10
150.801901
 20
78.291262
 30
0.0
 10
150.884383
 20
79.086970
 30
0.0
 10
150.966863
 20
79.882679
 30
0.0
 10
151.049345
 20
80.678387
 30
0.0
 10
151.131824
 20
81.474096
 30
0.0
 10
151.214304
 20
82.269805
 30
0.0
 10
151.296786
 20
83.065513
 30
0.0
 10
151.379265
 20
83.861222
 30
0.0
 10
151.461748
 20
84.656931
 30
0.0
 10
151.544227
 20
85.452639
 30
0.0
 10
151.626707
 20
86.248348
 30
0.0
 10
151.709189
 20
87.044056
 30
0.0
 10
151.791668
 20
87.839765
 30
0.0
 10
151.874148
 20
88.635474
 30
0.0
 10
151.956630
 20
89.431182
 30
0.0
 10
152.039109
 20
90.226891
 30
0.0
 10
152.121592
 20
91.022600
 30
0.0
 10
152.204071
 20
91.818308
 30
0.0
 10
152.286551
 20
92.614017
 30
0.0
 10
152.369033
 20
93.409725
 30
0.0
 10
152.451512
 20
94.205434
 30
0.0
 10
152.533992
 20
95.001143
 30
0.0
 10
152.616474
 20
95.796851
 30
0.0
 10
152.698953
 20
96.592560
 30
0.0
 10
152.781436
 20
97.388269
 30
0.0
 10
152.863915
 20
98.183977
 30
0.0
 10
156.102830
 20
97.388054
 30
0.0
 10
159.341748
 20
96.592134
 30
0.0
 10
162.580663
 20
95.796211
 30
0.0
 10
165.819580
 20
95.000290
 30
0.0
 10
169.058498
 20
94.204367
 30
0.0
 10
172.297413
 20
93.408444
 30
0.0
 10
175.536331
 20
92.612524
 30
0.0
 10
178.775245
 20
91.816601
 30
0.0
 10
182.014160
 20
91.020678
 30
0.0
 10
185.253078
 20
90.224757
 30
0.0
 10
188.491993
 20
89.428834
 30
0.0
 10
191.730911
 20
88.632914
 30
0.0
 10
194.969825
 20
87.836991
 30
0.0
 10
198.208740
 20
87.041068
 30
0.0
 10
201.447658
 20
86.245147
 30
0.0
 10
204.686573
 20
85.449224
 30
0.0
 10
207.925488
 20
84.653301
 30
0.0
 10
211.164405
 20
83.857381
 30
0.0
 10
214.403323
 20
83.061458
 30
0.0
 10
217.642238
 20
82.265537
 30
0.0
 10
220.881153
 20
81.469614
 30
0.0
 10
224.120070
 20
80.673691
 30
0.0
 10
227.358988
 20
79.877771
 30
0.0
 10
230.597903
 20
79.081848
 30
0.0
 10
233.836818
 20
78.285925
 30
0.0
 10
237.075736
 20
77.490004
 30
0.0
 10
240.314653
 20
76.694081
 30
0.0
 10
243.553568
 20
75.898161
 30
0.0
 10
246.792483
 20
75.102238
 30
0.0
 10
250.031401
 20
74.306315
 30
0.0
 10
253.270316
 20
73.510395
 30
0.0
 10
256.509233
 20
72.714471
 30
0.0
 10
259.748148
 20
71.918548
 30
0.0
 10
262.987066
 20
71.122628
 30
0.0
 10
266.225981
 20
70.326705
 30
0.0
 10
269.464896
 20
69.530785
 30
0.0
 10
272.703813
 20
68.734862
 30
0.0
 10
275.942728
 20
67.938938
 30
0.0
 10
279.181646
 20
67.143018
 30
0.0
 10
282.420561
 20
66.347095
 30
0.0
 10
285.659476
 20
65.551172
 30
0.0
 10
288.898393
 20
64.755252
 30
0.0
 10
292.137308
 20
63.959329
 30
0.0
 10
295.376223
 20
63.163408
 30
0.0
 10
298.615141
 20
62.367485
 30
0.0
 10
301.854056
 20
61.571562
 30
0.0
 10
305.092973
 20
60.775642
 30
0.0
 10
308.331888
 20
59.979719
 30
0.0
 10
311.570811
 20
59.183795
 30
0.0
 10
314.809735
 20
58.387875
 30
0.0
 10
318.048630
 20
57.591952
 30
0.0
 10
321.287553
 20
56.796032
 30
0.0
 10
324.526477
 20
56.000109
 30
0.0
 10
327.765372
 20
55.204186
 30
0.0
 10
331.004295
 20
54.408265
 30
0.0
 10
334.243218
 20
53.612342
 30
0.0
 10
337.482142
 20
52.816422
 30
0.0
 10
340.721065
 20
52.020502
 30
0.0
 10
343.959960
 20
51.224581
 30
0.0
 10
347.198883
 20
50.428661
 30
0.0
 10
350.437807
 20
49.632738
 30
0.0
 10
353.676730
 20
48.836818
 30
0.0
 10
356.915625
 20
48.040897
 30
0.0
 10
360.154549
 20
47.245121
 30
0.0
  0
LWPOLYLINE
  5
104
100
AcDbEntity
  8
profile
 62
7
100
AcDbPolyline
 90
65
 70
0
 10
36.590238
 20
53.763546
 30
0.0
 10
37.076939
 20
56.039625
 30
0.0
 10
44.419957
 20
61.048037
 30
0.0
 10
57.090173
 20
67.923619
 30
0.0
 10
73.558475
 20
75.801221
 30
0.0
 10
92.295738
 20
83.815680
 30
0.0
 10
111.772851
 20
91.101848
 30
0.0
 10
130.460695
 20
96.794566
 30
0.0
 10
146.830151
 20
100.028678
 30
0.0
 10
146.727732
 20
99.203076
 30
0.0
 10
146.625314
 20
98.377474
 30
0.0
 10
146.522896
 20
97.551873
 30
0.0
 10
146.420477
 20
96.726274
 30
0.0
 10
146.318061
 20
95.900672
 30
0.0
 10
146.215643
 20
95.075071
 30
0.0
 10
146.113225
 20
94.249469
 30
0.0
 10
146.010806
 20
93.423868
 30
0.0
 10
145.908388
 20
92.598266
 30
0.0
 10
145.805969
 20
91.772664
 30
0.0
 10
145.703551
 20
90.947066
 30
0.0
 10
145.601132
 20
90.121464
 30
0.0
 10
145.498714
 20
89.295862
 30
0.0
 10
145.396295
 20
88.470264
 30
0.0
 10
145.293877
 20
87.644662
 30
0.0
 10
145.191459
 20
86.819060
 30
0.0
 10
145.089040
 20
85.993459
 30
0.0
 10
144.986622
 20
85.167857
 30
0.0
 10
144.884203
 20
84.342258
 30
0.0
 10
144.781785
 20
83.516657
 30
0.0
 10
144.679369
 20
82.691055
 30
0.0
 10
144.576951
 20
81.865456
 30
0.0
 10
144.474532
 20
81.039855
 30
0.0
 10
144.372114
 20
80.214253
 30
0.0
 10
144.269695
 20
79.388652
 30
0.0
 10
144.167277
 20
78.563050
 30
0.0
 10
144.064858
 20
77.737448
 30
0.0
 10
143.962440
 20
76.911847
 30
0.0
 10
143.860024
 20
76.086248
 30
0.0
 10
143.757606
 20
75.260646
 30
0.0
 10
143.655188
 20
74.435045
 30
0.0
 10
143.552769
 20
73.609443
 30
0.0
 10
143.450351
 20
72.783842
 30
0.0
 10
143.347932
 20
71.958240
 30
0.0
 10
143.245514
 20
71.132641
 30
0.0
 10
143.143095
 20
70.307040
 30
0.0
 10
143.040677
 20
69.481438
 30
0.0
 10
142.938258
 20
68.655836
 30
0.0
 10
142.835840
 20
67.830238
 30
0.0
 10
142.733422
 20
67.004636
 30
0.0
 10
142.593586
 20
65.692605
 30
0.0
 10
142.453751
 20
64.380573
 30
0.0
 10
142.313915
 20
63.068542
 30
0.0
 10
142.174077
 20
61.756508
 30
0.0
 10
142.034241
 20
60.444477
 30
0.0
 10
141.894406
 20
59.132445
 30
0.0
 10
141.754570
 20
57.820414
 30
0.0
 10
141.614735
 20
56.508382
 30
0.0
 10
137.875863
 20
51.850299
 30
0.0
 10
128.380443
 20
49.081880
 30
0.0
 10
114.665439
 20
47.874716
 30
0.0
 10
98.267809
 20
47.900399
 30
0.0
 10
80.724514
 20
48.830533
 30
0.0
 10
63.572515
 20
50.336705
 30
0.0
 10
48.348769
 20
52.090510
 30
0.0
 10
36.590238
 20
53.763546
 30
0.0
  0
ENDSEC
  0
SECTION
  2
OBJECTS
  0
DICTIONARY
  5
C
330
0
100
AcDbDictionary
  3
ACAD_GROUP
350
D
  3
ACAD_MLINESTYLE
350
17
  0
DICTIONARY
  5
D
330
C
100
AcDbDictionary
  0
DICTIONARY
  5
1A
330
C
100
AcDbDictionary
  0
DICTIONARY
  5
17
330
C
100
AcDbDictionary
  3
STANDARD
350
18
  0
DICTIONARY
  5
19
330
C
100
AcDbDictionary
  0
ENDSEC
  0
EOF
