  0
SECTION
  2
HEADER
  9
$ACADVER
  1
AC1014
  9
$HANDSEED
  5
FFFF
  9
$MEASUREMENT
 70
     1
  0
ENDSEC
  0
SECTION
  2
TABLES
  0
TABLE
  2
VPORT
  5
8
330
0
100
AcDbSymbolTable
 70
     4
  0
VPORT
  5
2E
330
8
100
AcDbSymbolTableRecord
100
AcDbViewportTableRecord
  2
*ACTIVE
 70
     0
 10
0.0
 20
0.0
 11
1.0
 21
1.0
 12
210.0
 22
148.5
 13
0.0
 23
0.0
 14
10.0
 24
10.0
 15
10.0
 25
10.0
 16
0.0
 26
0.0
 36
1.0
 17
0.0
 27
0.0
 37
0.0
 40
341.0
 41
1.24
 42
50.0
 43
0.0
 44
0.0
 50
0.0
 51
0.0
 71
     0
 72
   100
 73
     1
 74
     3
 75
     0
 76
     0
 77
     0
 78
     0
  0
ENDTAB
  0
TABLE
  2
LTYPE
  5
5
330
0
100
AcDbSymbolTable
 70
     1
  0
LTYPE
  5
14
330
5
100
AcDbSymbolTableRecord
100
AcDbLinetypeTableRecord
  2
BYBLOCK
 70
     0
  3

 72
    65
 73
     0
 40
0.0
  0
LTYPE
  5
15
330
5
100
AcDbSymbolTableRecord
100
AcDbLinetypeTableRecord
  2
BYLAYER
 70
     0
  3

 72
    65
 73
     0
 40
0.0
  0
LTYPE
  5
16
330
5
100
AcDbSymbolTableRecord
100
AcDbLinetypeTableRecord
  2
CONTINUOUS
 70
     0
  3
Solid line
 72
    65
 73
     0
 40
0.0
  0
ENDTAB
  0
TABLE
  2
LAYER
  5
2
100
AcDbSymbolTable
 70
4
  0
LAYER
  5
50
100
AcDbSymbolTableRecord
100
AcDbLayerTableRecord
  2
0
 70
0
  6
CONTINUOUS
  0
LAYER
  5
51
100
AcDbSymbolTableRecord
100
AcDbLayerTableRecord
  2
PNG
 70
0
  6
CONTINUOUS
  0
LAYER
  5
52
100
AcDbSymbolTableRecord
100
AcDbLayerTableRecord
  2
Milimeterpapier
 70
0
  6
CONTINUOUS
  0
LAYER
  5
53
100
AcDbSymbolTableRecord
100
AcDbLayerTableRecord
  2
profile
 70
0
  6
CONTINUOUS
  0
ENDTAB
  0
TABLE
  2
STYLE
  5
3
330
0
100
AcDbSymbolTable
 70
     1
  0
STYLE
  5
11
330
3
100
AcDbSymbolTableRecord
100
AcDbTextStyleTableRecord
  2
STANDARD
 70
     0
 40
0.0
 41
1.0
 50
0.0
 71
     0
 42
2.5
  3
txt
  4

  0
ENDTAB
  0
TABLE
  2
VIEW
  5
6
330
0
100
AcDbSymbolTable
 70
     0
  0
ENDTAB
  0
TABLE
  2
UCS
  5
7
330
0
100
AcDbSymbolTable
 70
     0
  0
ENDTAB
  0
TABLE
  2
APPID
  5
9
330
0
100
AcDbSymbolTable
 70
     2
  0
APPID
  5
12
330
9
100
AcDbSymbolTableRecord
100
AcDbRegAppTableRecord
  2
ACAD
 70
     0
  0
ENDTAB
  0
TABLE
  2
DIMSTYLE
  5
A
330
0
100
AcDbSymbolTable
 70
     1
  0
DIMSTYLE
105
27
330
A
100
AcDbSymbolTableRecord
100
AcDbDimStyleTableRecord
  2
ISO-25
 70
     0
  3

  4

  5

  6

  7

 40
1.0
 41
2.5
 42
0.625
 43
3.75
 44
1.25
 45
0.0
 46
0.0
 47
0.0
 48
0.0
140
2.5
141
2.5
142
0.0
143
0.03937007874016
144
1.0
145
0.0
146
1.0
147
0.625
 71
     0
 72
     0
 73
     0
 74
     0
 75
     0
 76
     0
 77
     1
 78
     8
170
     0
171
     3
172
     1
173
     0
174
     0
175
     0
176
     0
177
     0
178
     0
270
     2
271
     2
272
     2
273
     2
274
     3
340
11
275
     0
280
     0
281
     0
282
     0
283
     0
284
     8
285
     0
286
     0
287
     3
288
     0
  0
ENDTAB
  0
TABLE
  2
BLOCK_RECORD
  5
1
330
0
100
AcDbSymbolTable
 70
     1
  0
BLOCK_RECORD
  5
1F
330
1
100
AcDbSymbolTableRecord
100
AcDbBlockTableRecord
  2
*MODEL_SPACE
  0
BLOCK_RECORD
  5
1B
330
1
100
AcDbSymbolTableRecord
100
AcDbBlockTableRecord
  2
*PAPER_SPACE
  0
ENDTAB
  0
ENDSEC
  0
SECTION
  2
BLOCKS
  0
BLOCK
  5
20
330
1F
100
AcDbEntity
  8
0
100
AcDbBlockBegin
  2
*MODEL_SPACE
 70
     0
 10
0.0
 20
0.0
 30
0.0
  3
*MODEL_SPACE
  1

  0
ENDBLK
  5
21
330
1F
100
AcDbEntity
  8
0
100
AcDbBlockEnd
  0
BLOCK
  5
1C
330
1B
100
AcDbEntity
 67
     1
  8
0
100
AcDbBlockBegin
  2
*PAPER_SPACE
  1

  0
ENDBLK
  5
1D
330
1B
100
AcDbEntity
 67
     1
  8
0
100
AcDbBlockEnd
  0
ENDSEC
  0
SECTION
  2
ENTITIES
  0
LWPOLYLINE
  5
100
100
AcDbEntity
  8
profile
 62
7
100
AcDbPolyline
 90
129
 70
0
 10
63.053927
 20
26.137568
 30
0.0
 10
64.009920
 20
26.049957
 30
0.0
 10
65.888978
 20
25.875064
 30
0.0
 10
68.192330
 20
25.656658
 30
0.0
 10
70.683768
 20
25.415008
 30
0.0
 10
73.225540
 20
25.161569
 30
0.0
 10
75.811174
 20
24.896043
 30
0.0
 10
78.335740
 20
24.626948
 30
0.0
 10
80.694308
 20
24.362800
 30
0.0
 10
82.929638
 20
24.098891
 30
0.0
 10
85.150126
 20
23.824650
 30
0.0
 10
87.349305
 20
23.539773
 30
0.0
 10
89.520704
 20
23.243966
 30
0.0
 10
91.657851
 20
22.936931
 30
0.0
 10
93.754278
 20
22.618371
 30
0.0
 10
95.803513
 20
22.287989
 30
0.0
 10
97.799085
 20
21.945487
 30
0.0
 10
100.440931
 20
21.467408
 30
0.0
 10
103.481998
 20
20.893427
 30
0.0
 10
106.899913
 20
20.218935
 30
0.0
 10
110.672306
 20
19.439327
 30
0.0
 10
114.776805
 20
18.549989
 30
0.0
 10
119.191040
 20
17.546312
 30
0.0
 10
123.892641
 20
16.423686
 30
0.0
 10
128.859235
 20
15.177504
 30
0.0
 10
134.068443
 20
13.803151
 30
0.0
 10
139.497910
 20
12.296025
 30
0.0
 10
145.125244
 20
10.651511
 30
0.0
 10
150.928091
 20
8.865001
 30
0.0
 10
156.884071
 20
6.931884
 30
0.0
 10
162.970817
 20
4.847553
 30
0.0
 10
169.165961
 20
2.607396
 30
0.0
 10
175.447114
 20
0.206806
 30
0.0
 10
170.911021
 20
0.220549
 30
0.0
 10
166.646689
 20
0.226689
 30
0.0
 10
162.631515
 20
0.226451
 30
0.0
 10
158.842893
 20
0.221106
 30
0.0
 10
155.258244
 20
0.211907
 30
0.0
 10
151.854927
 20
0.200047
 30
0.0
 10
148.610373
 20
0.186789
 30
0.0
 10
145.501955
 20
0.173377
 30
0.0
 10
142.350509
 20
0.162993
 30
0.0
 10
139.066342
 20
0.157719
 30
0.0
 10
135.761052
 20
0.157126
 30
0.0
 10
132.546226
 20
0.160789
 30
0.0
 10
129.399249
 20
0.169951
 30
0.0
 10
126.476455
 20
0.183651
 30
0.0
 10
124.068379
 20
0.199259
 30
0.0
 10
122.823388
 20
0.209713
 30
0.0
 10
121.881640
 20
0.219457
 30
0.0
 10
119.777211
 20
0.239766
 30
0.0
 10
116.920323
 20
0.265582
 30
0.0
 10
113.542268
 20
0.294050
 30
0.0
 10
109.807239
 20
0.323149
 30
0.0
 10
105.789975
 20
0.351962
 30
0.0
 10
101.632302
 20
0.378743
 30
0.0
 10
97.476050
 20
0.401748
 30
0.0
 10
93.362405
 20
0.420475
 30
0.0
 10
89.287814
 20
0.434973
 30
0.0
 10
85.327009
 20
0.444325
 30
0.0
 10
81.554726
 20
0.447620
 30
0.0
 10
78.045690
 20
0.443934
 30
0.0
 10
74.874639
 20
0.432353
 30
0.0
 10
72.116301
 20
0.411973
 30
0.0
 10
69.845409
 20
0.381868
 30
0.0
 10
64.790627
 20
0.299351
 30
0.0
 10
60.275553
 20
0.240075
 30
0.0
 10
56.232615
 20
0.203845
 30
0.0
 10
52.594246
 20
0.190473
 30
0.0
 10
49.292873
 20
0.199766
 30
0.0
 10
46.260930
 20
0.231542
 30
0.0
 10
43.430840
 20
0.285611
 30
0.0
 10
40.735051
 20
0.361774
 30
0.0
 10
38.105974
 20
0.459848
 30
0.0
 10
35.476048
 20
0.579643
 30
0.0
 10
32.777696
 20
0.720970
 30
0.0
 10
29.943356
 20
0.883635
 30
0.0
 10
26.905459
 20
1.067450
 30
0.0
 10
23.596439
 20
1.272225
 30
0.0
 10
19.948713
 20
1.497771
 30
0.0
 10
15.894718
 20
1.743900
 30
0.0
 10
14.977994
 20
1.825908
 30
0.0
 10
13.931487
 20
1.969668
 30
0.0
 10
12.781126
 20
2.173301
 30
0.0
 10
11.552865
 20
2.434925
 30
0.0
 10
10.272620
 20
2.752666
 30
0.0
 10
8.966345
 20
3.124642
 30
0.0
 10
7.659958
 20
3.548980
 30
0.0
 10
6.379399
 20
4.023797
 30
0.0
 10
5.150621
 20
4.547213
 30
0.0
 10
3.999530
 20
5.117356
 30
0.0
 10
2.952079
 20
5.732344
 30
0.0
 10
2.034210
 20
6.390297
 30
0.0
 10
1.271839
 20
7.089339
 30
0.0
 10
0.690920
 20
7.827592
 30
0.0
 10
0.317382
 20
8.603175
 30
0.0
 10
0.177154
 20
9.414213
 30
0.0
 10
0.330641
 20
10.937472
 30
0.0
 10
0.829245
 20
12.379288
 30
0.0
 10
1.645599
 20
13.740810
 30
0.0
 10
2.752340
 20
15.023196
 30
0.0
 10
4.122101
 20
16.227600
 30
0.0
 10
5.727539
 20
17.355170
 30
0.0
 10
7.541255
 20
18.407071
 30
0.0
 10
9.535918
 20
19.384445
 30
0.0
 10
11.684150
 20
20.288451
 30
0.0
 10
13.958588
 20
21.120246
 30
0.0
 10
16.331863
 20
21.880980
 30
0.0
 10
18.776623
 20
22.571806
 30
0.0
 10
21.265502
 20
23.193880
 30
0.0
 10
23.771123
 20
23.748358
 30
0.0
 10
26.266144
 20
24.236388
 30
0.0
 10
28.723188
 20
24.659129
 30
0.0
 10
30.377625
 20
24.895125
 30
0.0
 10
32.286502
 20
25.115851
 30
0.0
 10
34.409309
 20
25.320484
 30
0.0
 10
36.705583
 20
25.508186
 30
0.0
 10
39.134827
 20
25.678129
 30
0.0
 10
41.656553
 20
25.829480
 30
0.0
 10
44.230289
 20
25.961409
 30
0.0
 10
46.815538
 20
26.073085
 30
0.0
 10
49.429254
 20
26.158534
 30
0.0
 10
52.055568
 20
26.214721
 30
0.0
 10
54.604762
 20
26.245222
 30
0.0
 10
56.987125
 20
26.253614
 30
0.0
 10
59.162167
 20
26.239065
 30
0.0
 10
61.023765
 20
26.206618
 30
0.0
 10
62.416564
 20
26.165725
 30
0.0
 10
63.053927
 20
26.137569
 30
0.0
  0
LWPOLYLINE
  5
101
100
AcDbEntity
  8
profile
 62
7
100
AcDbPolyline
 90
33
 70
0
 10
42.677366
 20
12.744383
 30
0.0
 10
42.473025
 20
10.717368
 30
0.0
 10
41.886967
 20
8.829399
 30
0.0
 10
40.959637
 20
7.120923
 30
0.0
 10
39.731478
 20
5.632383
 30
0.0
 10
38.242938
 20
4.404225
 30
0.0
 10
36.534462
 20
3.476895
 30
0.0
 10
34.646493
 20
2.890837
 30
0.0
 10
32.619478
 20
2.686496
 30
0.0
 10
30.592463
 20
2.890837
 30
0.0
 10
28.704495
 20
3.476895
 30
0.0
 10
26.996018
 20
4.404225
 30
0.0
 10
25.507478
 20
5.632383
 30
0.0
 10
24.279320
 20
7.120923
 30
0.0
 10
23.351989
 20
8.829399
 30
0.0
 10
22.765932
 20
10.717368
 30
0.0
 10
22.561591
 20
12.744383
 30
0.0
 10
22.765932
 20
14.771398
 30
0.0
 10
23.351989
 20
16.659366
 30
0.0
 10
24.279320
 20
18.367844
 30
0.0
 10
25.507478
 20
19.856384
 30
0.0
 10
26.996018
 20
21.084541
 30
0.0
 10
28.704495
 20
22.011872
 30
0.0
 10
30.592463
 20
22.597930
 30
0.0
 10
32.619478
 20
22.802271
 30
0.0
 10
34.646493
 20
22.597930
 30
0.0
 10
36.534462
 20
22.011872
 30
0.0
 10
38.242938
 20
21.084541
 30
0.0
 10
39.731478
 20
19.856384
 30
0.0
 10
40.959637
 20
18.367844
 30
0.0
 10
41.886967
 20
16.659366
 30
0.0
 10
42.473025
 20
14.771398
 30
0.0
 10
42.677366
 20
12.744383
 30
0.0
  0
LWPOLYLINE
  5
102
100
AcDbEntity
  8
profile
 62
7
100
AcDbPolyline
 90
33
 70
0
 10
90.006959
 20
12.507316
 30
0.0
 10
89.806024
 20
10.514085
 30
0.0
 10
89.229735
 20
8.657582
 30
0.0
 10
88.317859
 20
6.977580
 30
0.0
 10
87.110170
 20
5.513849
 30
0.0
 10
85.646439
 20
4.306160
 30
0.0
 10
83.966437
 20
3.394286
 30
0.0
 10
82.109935
 20
2.817995
 30
0.0
 10
80.116704
 20
2.617060
 30
0.0
 10
78.123472
 20
2.817995
 30
0.0
 10
76.266970
 20
3.394286
 30
0.0
 10
74.586968
 20
4.306160
 30
0.0
 10
73.123237
 20
5.513849
 30
0.0
 10
71.915548
 20
6.977580
 30
0.0
 10
71.003673
 20
8.657582
 30
0.0
 10
70.427383
 20
10.514085
 30
0.0
 10
70.226448
 20
12.507316
 30
0.0
 10
70.427383
 20
14.500548
 30
0.0
 10
71.003673
 20
16.357050
 30
0.0
 10
71.915548
 20
18.037053
 30
0.0
 10
73.123237
 20
19.500784
 30
0.0
 10
74.586968
 20
20.708472
 30
0.0
 10
76.266970
 20
21.620347
 30
0.0
 10
78.123472
 20
22.196638
 30
0.0
 10
80.116704
 20
22.397573
 30
0.0
 10
82.109935
 20
22.196638
 30
0.0
 10
83.966437
 20
21.620347
 30
0.0
 10
85.646439
 20
20.708472
 30
0.0
 10
87.110170
 20
19.500784
 30
0.0
 10
88.317859
 20
18.037053
 30
0.0
 10
89.229735
 20
16.357050
 30
0.0
 10
89.806024
 20
14.500548
 30
0.0
 10
90.006959
 20
12.507316
 30
0.0
  0
LWPOLYLINE
  5
103
100
AcDbEntity
  8
profile
 62
7
100
AcDbPolyline
 90
33
 70
0
 10
109.452204
 20
10.900436
 30
0.0
 10
109.271703
 20
9.109906
 30
0.0
 10
108.754019
 20
7.442200
 30
0.0
 10
107.934877
 20
5.933046
 30
0.0
 10
106.850004
 20
4.618169
 30
0.0
 10
105.535127
 20
3.533296
 30
0.0
 10
104.025973
 20
2.714154
 30
0.0
 10
102.358267
 20
2.196470
 30
0.0
 10
100.567737
 20
2.015968
 30
0.0
 10
98.777207
 20
2.196470
 30
0.0
 10
97.109502
 20
2.714154
 30
0.0
 10
95.600347
 20
3.533296
 30
0.0
 10
94.285470
 20
4.618169
 30
0.0
 10
93.200597
 20
5.933046
 30
0.0
 10
92.381455
 20
7.442200
 30
0.0
 10
91.863771
 20
9.109906
 30
0.0
 10
91.683270
 20
10.900436
 30
0.0
 10
91.863771
 20
12.690966
 30
0.0
 10
92.381455
 20
14.358671
 30
0.0
 10
93.200597
 20
15.867826
 30
0.0
 10
94.285470
 20
17.182703
 30
0.0
 10
95.600347
 20
18.267576
 30
0.0
 10
97.109502
 20
19.086718
 30
0.0
 10
98.777207
 20
19.604403
 30
0.0
 10
100.567737
 20
19.784904
 30
0.0
 10
102.358267
 20
19.604403
 30
0.0
 10
104.025973
 20
19.086718
 30
0.0
 10
105.535127
 20
18.267576
 30
0.0
 10
106.850004
 20
17.182703
 30
0.0
 10
107.934877
 20
15.867826
 30
0.0
 10
108.754019
 20
14.358671
 30
0.0
 10
109.271703
 20
12.690966
 30
0.0
 10
109.452204
 20
10.900436
 30
0.0
  0
LWPOLYLINE
  5
104
100
AcDbEntity
  8
profile
 62
7
100
AcDbPolyline
 90
33
 70
0
 10
124.747339
 20
8.958295
 30
0.0
 10
124.604300
 20
7.539384
 30
0.0
 10
124.194060
 20
6.217806
 30
0.0
 10
123.544929
 20
5.021872
 30
0.0
 10
122.685218
 20
3.979894
 30
0.0
 10
121.643240
 20
3.120184
 30
0.0
 10
120.447306
 20
2.471053
 30
0.0
 10
119.125728
 20
2.060812
 30
0.0
 10
117.706818
 20
1.917773
 30
0.0
 10
116.287907
 20
2.060812
 30
0.0
 10
114.966329
 20
2.471053
 30
0.0
 10
113.770395
 20
3.120184
 30
0.0
 10
112.728417
 20
3.979894
 30
0.0
 10
111.868707
 20
5.021872
 30
0.0
 10
111.219575
 20
6.217806
 30
0.0
 10
110.809335
 20
7.539384
 30
0.0
 10
110.666296
 20
8.958295
 30
0.0
 10
110.809335
 20
10.377205
 30
0.0
 10
111.219575
 20
11.698783
 30
0.0
 10
111.868707
 20
12.894717
 30
0.0
 10
112.728417
 20
13.936695
 30
0.0
 10
113.770395
 20
14.796406
 30
0.0
 10
114.966329
 20
15.445537
 30
0.0
 10
116.287907
 20
15.855778
 30
0.0
 10
117.706818
 20
15.998816
 30
0.0
 10
119.125728
 20
15.855778
 30
0.0
 10
120.447306
 20
15.445537
 30
0.0
 10
121.643240
 20
14.796406
 30
0.0
 10
122.685218
 20
13.936695
 30
0.0
 10
123.544929
 20
12.894717
 30
0.0
 10
124.194060
 20
11.698783
 30
0.0
 10
124.604300
 20
10.377205
 30
0.0
 10
124.747339
 20
8.958295
 30
0.0
  0
LWPOLYLINE
  5
105
100
AcDbEntity
  8
profile
 62
7
100
AcDbPolyline
 90
33
 70
0
 10
137.347225
 20
7.114370
 30
0.0
 10
137.240798
 20
6.058633
 30
0.0
 10
136.935559
 20
5.075316
 30
0.0
 10
136.452574
 20
4.185484
 30
0.0
 10
135.812909
 20
3.410203
 30
0.0
 10
135.037627
 20
2.770537
 30
0.0
 10
134.147796
 20
2.287553
 30
0.0
 10
133.164479
 20
1.982314
 30
0.0
 10
132.108742
 20
1.875886
 30
0.0
 10
131.053005
 20
1.982314
 30
0.0
 10
130.069688
 20
2.287553
 30
0.0
 10
129.179856
 20
2.770537
 30
0.0
 10
128.404575
 20
3.410203
 30
0.0
 10
127.764909
 20
4.185484
 30
0.0
 10
127.281924
 20
5.075316
 30
0.0
 10
126.976686
 20
6.058633
 30
0.0
 10
126.870258
 20
7.114370
 30
0.0
 10
126.976686
 20
8.170107
 30
0.0
 10
127.281924
 20
9.153424
 30
0.0
 10
127.764909
 20
10.043256
 30
0.0
 10
128.404575
 20
10.818537
 30
0.0
 10
129.179856
 20
11.458202
 30
0.0
 10
130.069688
 20
11.941187
 30
0.0
 10
131.053005
 20
12.246426
 30
0.0
 10
132.108742
 20
12.352853
 30
0.0
 10
133.164479
 20
12.246426
 30
0.0
 10
134.147796
 20
11.941187
 30
0.0
 10
135.037627
 20
11.458202
 30
0.0
 10
135.812909
 20
10.818537
 30
0.0
 10
136.452574
 20
10.043256
 30
0.0
 10
136.935559
 20
9.153424
 30
0.0
 10
137.240798
 20
8.170107
 30
0.0
 10
137.347225
 20
7.114370
 30
0.0
  0
ENDSEC
  0
SECTION
  2
OBJECTS
  0
DICTIONARY
  5
C
330
0
100
AcDbDictionary
  3
ACAD_GROUP
350
D
  3
ACAD_MLINESTYLE
350
17
  0
DICTIONARY
  5
D
330
C
100
AcDbDictionary
  0
DICTIONARY
  5
1A
330
C
100
AcDbDictionary
  0
DICTIONARY
  5
17
330
C
100
AcDbDictionary
  3
STANDARD
350
18
  0
DICTIONARY
  5
19
330
C
100
AcDbDictionary
  0
ENDSEC
  0
EOF
