  0
SECTION
  2
HEADER
  9
$ACADVER
  1
AC1014
  9
$HANDSEED
  5
FFFF
  9
$MEASUREMENT
 70
     1
  0
ENDSEC
  0
SECTION
  2
TABLES
  0
TABLE
  2
VPORT
  5
8
330
0
100
AcDbSymbolTable
 70
     4
  0
VPORT
  5
2E
330
8
100
AcDbSymbolTableRecord
100
AcDbViewportTableRecord
  2
*ACTIVE
 70
     0
 10
0.0
 20
0.0
 11
1.0
 21
1.0
 12
210.0
 22
148.5
 13
0.0
 23
0.0
 14
10.0
 24
10.0
 15
10.0
 25
10.0
 16
0.0
 26
0.0
 36
1.0
 17
0.0
 27
0.0
 37
0.0
 40
341.0
 41
1.24
 42
50.0
 43
0.0
 44
0.0
 50
0.0
 51
0.0
 71
     0
 72
   100
 73
     1
 74
     3
 75
     0
 76
     0
 77
     0
 78
     0
  0
ENDTAB
  0
TABLE
  2
LTYPE
  5
5
330
0
100
AcDbSymbolTable
 70
     1
  0
LTYPE
  5
14
330
5
100
AcDbSymbolTableRecord
100
AcDbLinetypeTableRecord
  2
BYBLOCK
 70
     0
  3

 72
    65
 73
     0
 40
0.0
  0
LTYPE
  5
15
330
5
100
AcDbSymbolTableRecord
100
AcDbLinetypeTableRecord
  2
BYLAYER
 70
     0
  3

 72
    65
 73
     0
 40
0.0
  0
LTYPE
  5
16
330
5
100
AcDbSymbolTableRecord
100
AcDbLinetypeTableRecord
  2
CONTINUOUS
 70
     0
  3
Solid line
 72
    65
 73
     0
 40
0.0
  0
ENDTAB
  0
TABLE
  2
LAYER
  5
2
100
AcDbSymbolTable
 70
4
  0
LAYER
  5
50
100
AcDbSymbolTableRecord
100
AcDbLayerTableRecord
  2
0
 70
0
  6
CONTINUOUS
  0
LAYER
  5
51
100
AcDbSymbolTableRecord
100
AcDbLayerTableRecord
  2
PNG
 70
0
  6
CONTINUOUS
  0
LAYER
  5
52
100
AcDbSymbolTableRecord
100
AcDbLayerTableRecord
  2
Milimeterpapier
 70
0
  6
CONTINUOUS
  0
LAYER
  5
53
100
AcDbSymbolTableRecord
100
AcDbLayerTableRecord
  2
profile
 70
0
  6
CONTINUOUS
  0
ENDTAB
  0
TABLE
  2
STYLE
  5
3
330
0
100
AcDbSymbolTable
 70
     1
  0
STYLE
  5
11
330
3
100
AcDbSymbolTableRecord
100
AcDbTextStyleTableRecord
  2
STANDARD
 70
     0
 40
0.0
 41
1.0
 50
0.0
 71
     0
 42
2.5
  3
txt
  4

  0
ENDTAB
  0
TABLE
  2
VIEW
  5
6
330
0
100
AcDbSymbolTable
 70
     0
  0
ENDTAB
  0
TABLE
  2
UCS
  5
7
330
0
100
AcDbSymbolTable
 70
     0
  0
ENDTAB
  0
TABLE
  2
APPID
  5
9
330
0
100
AcDbSymbolTable
 70
     2
  0
APPID
  5
12
330
9
100
AcDbSymbolTableRecord
100
AcDbRegAppTableRecord
  2
ACAD
 70
     0
  0
ENDTAB
  0
TABLE
  2
DIMSTYLE
  5
A
330
0
100
AcDbSymbolTable
 70
     1
  0
DIMSTYLE
105
27
330
A
100
AcDbSymbolTableRecord
100
AcDbDimStyleTableRecord
  2
ISO-25
 70
     0
  3

  4

  5

  6

  7

 40
1.0
 41
2.5
 42
0.625
 43
3.75
 44
1.25
 45
0.0
 46
0.0
 47
0.0
 48
0.0
140
2.5
141
2.5
142
0.0
143
0.03937007874016
144
1.0
145
0.0
146
1.0
147
0.625
 71
     0
 72
     0
 73
     0
 74
     0
 75
     0
 76
     0
 77
     1
 78
     8
170
     0
171
     3
172
     1
173
     0
174
     0
175
     0
176
     0
177
     0
178
     0
270
     2
271
     2
272
     2
273
     2
274
     3
340
11
275
     0
280
     0
281
     0
282
     0
283
     0
284
     8
285
     0
286
     0
287
     3
288
     0
  0
ENDTAB
  0
TABLE
  2
BLOCK_RECORD
  5
1
330
0
100
AcDbSymbolTable
 70
     1
  0
BLOCK_RECORD
  5
1F
330
1
100
AcDbSymbolTableRecord
100
AcDbBlockTableRecord
  2
*MODEL_SPACE
  0
BLOCK_RECORD
  5
1B
330
1
100
AcDbSymbolTableRecord
100
AcDbBlockTableRecord
  2
*PAPER_SPACE
  0
ENDTAB
  0
ENDSEC
  0
SECTION
  2
BLOCKS
  0
BLOCK
  5
20
330
1F
100
AcDbEntity
  8
0
100
AcDbBlockBegin
  2
*MODEL_SPACE
 70
     0
 10
0.0
 20
0.0
 30
0.0
  3
*MODEL_SPACE
  1

  0
ENDBLK
  5
21
330
1F
100
AcDbEntity
  8
0
100
AcDbBlockEnd
  0
BLOCK
  5
1C
330
1B
100
AcDbEntity
 67
     1
  8
0
100
AcDbBlockBegin
  2
*PAPER_SPACE
  1

  0
ENDBLK
  5
1D
330
1B
100
AcDbEntity
 67
     1
  8
0
100
AcDbBlockEnd
  0
ENDSEC
  0
SECTION
  2
ENTITIES
  0
LINE
  5
100
100
AcDbEntity
  8
profile
 62
7
100
AcDbLine
 10
63.053927
 20
26.137568
 30
0.0
 11
64.009920
 21
26.049957
 31
0.0
  0
LINE
  5
101
100
AcDbEntity
  8
profile
 62
7
100
AcDbLine
 10
64.009920
 20
26.049957
 30
0.0
 11
65.888978
 21
25.875064
 31
0.0
  0
LINE
  5
102
100
AcDbEntity
  8
profile
 62
7
100
AcDbLine
 10
65.888978
 20
25.875064
 30
0.0
 11
68.192330
 21
25.656658
 31
0.0
  0
LINE
  5
103
100
AcDbEntity
  8
profile
 62
7
100
AcDbLine
 10
68.192330
 20
25.656658
 30
0.0
 11
70.683768
 21
25.415008
 31
0.0
  0
LINE
  5
104
100
AcDbEntity
  8
profile
 62
7
100
AcDbLine
 10
70.683768
 20
25.415008
 30
0.0
 11
73.225540
 21
25.161569
 31
0.0
  0
LINE
  5
105
100
AcDbEntity
  8
profile
 62
7
100
AcDbLine
 10
73.225540
 20
25.161569
 30
0.0
 11
75.811174
 21
24.896043
 31
0.0
  0
LINE
  5
106
100
AcDbEntity
  8
profile
 62
7
100
AcDbLine
 10
75.811174
 20
24.896043
 30
0.0
 11
78.335740
 21
24.626948
 31
0.0
  0
LINE
  5
107
100
AcDbEntity
  8
profile
 62
7
100
AcDbLine
 10
78.335740
 20
24.626948
 30
0.0
 11
80.694308
 21
24.362800
 31
0.0
  0
LINE
  5
108
100
AcDbEntity
  8
profile
 62
7
100
AcDbLine
 10
80.694308
 20
24.362800
 30
0.0
 11
82.929638
 21
24.098891
 31
0.0
  0
LINE
  5
109
100
AcDbEntity
  8
profile
 62
7
100
AcDbLine
 10
82.929638
 20
24.098891
 30
0.0
 11
85.150126
 21
23.824650
 31
0.0
  0
LINE
  5
10a
100
AcDbEntity
  8
profile
 62
7
100
AcDbLine
 10
85.150126
 20
23.824650
 30
0.0
 11
87.349305
 21
23.539773
 31
0.0
  0
LINE
  5
10b
100
AcDbEntity
  8
profile
 62
7
100
AcDbLine
 10
87.349305
 20
23.539773
 30
0.0
 11
89.520704
 21
23.243966
 31
0.0
  0
LINE
  5
10c
100
AcDbEntity
  8
profile
 62
7
100
AcDbLine
 10
89.520704
 20
23.243966
 30
0.0
 11
91.657851
 21
22.936931
 31
0.0
  0
LINE
  5
10d
100
AcDbEntity
  8
profile
 62
7
100
AcDbLine
 10
91.657851
 20
22.936931
 30
0.0
 11
93.754278
 21
22.618371
 31
0.0
  0
LINE
  5
10e
100
AcDbEntity
  8
profile
 62
7
100
AcDbLine
 10
93.754278
 20
22.618371
 30
0.0
 11
95.803513
 21
22.287989
 31
0.0
  0
LINE
  5
10f
100
AcDbEntity
  8
profile
 62
7
100
AcDbLine
 10
95.803513
 20
22.287989
 30
0.0
 11
97.799085
 21
21.945487
 31
0.0
  0
LINE
  5
110
100
AcDbEntity
  8
profile
 62
7
100
AcDbLine
 10
97.799085
 20
21.945487
 30
0.0
 11
100.440931
 21
21.467408
 31
0.0
  0
LINE
  5
111
100
AcDbEntity
  8
profile
 62
7
100
AcDbLine
 10
100.440931
 20
21.467408
 30
0.0
 11
103.481998
 21
20.893427
 31
0.0
  0
LINE
  5
112
100
AcDbEntity
  8
profile
 62
7
100
AcDbLine
 10
103.481998
 20
20.893427
 30
0.0
 11
106.899913
 21
20.218935
 31
0.0
  0
LINE
  5
113
100
AcDbEntity
  8
profile
 62
7
100
AcDbLine
 10
106.899913
 20
20.218935
 30
0.0
 11
110.672306
 21
19.439327
 31
0.0
  0
LINE
  5
114
100
AcDbEntity
  8
profile
 62
7
100
AcDbLine
 10
110.672306
 20
19.439327
 30
0.0
 11
114.776805
 21
18.549989
 31
0.0
  0
LINE
  5
115
100
AcDbEntity
  8
profile
 62
7
100
AcDbLine
 10
114.776805
 20
18.549989
 30
0.0
 11
119.191040
 21
17.546312
 31
0.0
  0
LINE
  5
116
100
AcDbEntity
  8
profile
 62
7
100
AcDbLine
 10
119.191040
 20
17.546312
 30
0.0
 11
123.892641
 21
16.423686
 31
0.0
  0
LINE
  5
117
100
AcDbEntity
  8
profile
 62
7
100
AcDbLine
 10
123.892641
 20
16.423686
 30
0.0
 11
128.859235
 21
15.177504
 31
0.0
  0
LINE
  5
118
100
AcDbEntity
  8
profile
 62
7
100
AcDbLine
 10
128.859235
 20
15.177504
 30
0.0
 11
134.068443
 21
13.803151
 31
0.0
  0
LINE
  5
119
100
AcDbEntity
  8
profile
 62
7
100
AcDbLine
 10
134.068443
 20
13.803151
 30
0.0
 11
139.497910
 21
12.296025
 31
0.0
  0
LINE
  5
11a
100
AcDbEntity
  8
profile
 62
7
100
AcDbLine
 10
139.497910
 20
12.296025
 30
0.0
 11
145.125244
 21
10.651511
 31
0.0
  0
LINE
  5
11b
100
AcDbEntity
  8
profile
 62
7
100
AcDbLine
 10
145.125244
 20
10.651511
 30
0.0
 11
150.928091
 21
8.865001
 31
0.0
  0
LINE
  5
11c
100
AcDbEntity
  8
profile
 62
7
100
AcDbLine
 10
150.928091
 20
8.865001
 30
0.0
 11
156.884071
 21
6.931884
 31
0.0
  0
LINE
  5
11d
100
AcDbEntity
  8
profile
 62
7
100
AcDbLine
 10
156.884071
 20
6.931884
 30
0.0
 11
162.970817
 21
4.847553
 31
0.0
  0
LINE
  5
11e
100
AcDbEntity
  8
profile
 62
7
100
AcDbLine
 10
162.970817
 20
4.847553
 30
0.0
 11
169.165961
 21
2.607396
 31
0.0
  0
LINE
  5
11f
100
AcDbEntity
  8
profile
 62
7
100
AcDbLine
 10
169.165961
 20
2.607396
 30
0.0
 11
175.447114
 21
0.206806
 31
0.0
  0
LINE
  5
120
100
AcDbEntity
  8
profile
 62
7
100
AcDbLine
 10
175.447114
 20
0.206806
 30
0.0
 11
170.911021
 21
0.220549
 31
0.0
  0
LINE
  5
121
100
AcDbEntity
  8
profile
 62
7
100
AcDbLine
 10
170.911021
 20
0.220549
 30
0.0
 11
166.646689
 21
0.226689
 31
0.0
  0
LINE
  5
122
100
AcDbEntity
  8
profile
 62
7
100
AcDbLine
 10
166.646689
 20
0.226689
 30
0.0
 11
162.631515
 21
0.226451
 31
0.0
  0
LINE
  5
123
100
AcDbEntity
  8
profile
 62
7
100
AcDbLine
 10
162.631515
 20
0.226451
 30
0.0
 11
158.842893
 21
0.221106
 31
0.0
  0
LINE
  5
124
100
AcDbEntity
  8
profile
 62
7
100
AcDbLine
 10
158.842893
 20
0.221106
 30
0.0
 11
155.258244
 21
0.211907
 31
0.0
  0
LINE
  5
125
100
AcDbEntity
  8
profile
 62
7
100
AcDbLine
 10
155.258244
 20
0.211907
 30
0.0
 11
151.854927
 21
0.200047
 31
0.0
  0
LINE
  5
126
100
AcDbEntity
  8
profile
 62
7
100
AcDbLine
 10
151.854927
 20
0.200047
 30
0.0
 11
148.610373
 21
0.186789
 31
0.0
  0
LINE
  5
127
100
AcDbEntity
  8
profile
 62
7
100
AcDbLine
 10
148.610373
 20
0.186789
 30
0.0
 11
145.501955
 21
0.173377
 31
0.0
  0
LINE
  5
128
100
AcDbEntity
  8
profile
 62
7
100
AcDbLine
 10
145.501955
 20
0.173377
 30
0.0
 11
142.350509
 21
0.162993
 31
0.0
  0
LINE
  5
129
100
AcDbEntity
  8
profile
 62
7
100
AcDbLine
 10
142.350509
 20
0.162993
 30
0.0
 11
139.066342
 21
0.157719
 31
0.0
  0
LINE
  5
12a
100
AcDbEntity
  8
profile
 62
7
100
AcDbLine
 10
139.066342
 20
0.157719
 30
0.0
 11
135.761052
 21
0.157126
 31
0.0
  0
LINE
  5
12b
100
AcDbEntity
  8
profile
 62
7
100
AcDbLine
 10
135.761052
 20
0.157126
 30
0.0
 11
132.546226
 21
0.160789
 31
0.0
  0
LINE
  5
12c
100
AcDbEntity
  8
profile
 62
7
100
AcDbLine
 10
132.546226
 20
0.160789
 30
0.0
 11
129.399249
 21
0.169951
 31
0.0
  0
LINE
  5
12d
100
AcDbEntity
  8
profile
 62
7
100
AcDbLine
 10
129.399249
 20
0.169951
 30
0.0
 11
126.476455
 21
0.183651
 31
0.0
  0
LINE
  5
12e
100
AcDbEntity
  8
profile
 62
7
100
AcDbLine
 10
126.476455
 20
0.183651
 30
0.0
 11
124.068379
 21
0.199259
 31
0.0
  0
LINE
  5
12f
100
AcDbEntity
  8
profile
 62
7
100
AcDbLine
 10
124.068379
 20
0.199259
 30
0.0
 11
122.823388
 21
0.209713
 31
0.0
  0
LINE
  5
130
100
AcDbEntity
  8
profile
 62
7
100
AcDbLine
 10
122.823388
 20
0.209713
 30
0.0
 11
121.881640
 21
0.219457
 31
0.0
  0
LINE
  5
131
100
AcDbEntity
  8
profile
 62
7
100
AcDbLine
 10
121.881640
 20
0.219457
 30
0.0
 11
119.777211
 21
0.239766
 31
0.0
  0
LINE
  5
132
100
AcDbEntity
  8
profile
 62
7
100
AcDbLine
 10
119.777211
 20
0.239766
 30
0.0
 11
116.920323
 21
0.265582
 31
0.0
  0
LINE
  5
133
100
AcDbEntity
  8
profile
 62
7
100
AcDbLine
 10
116.920323
 20
0.265582
 30
0.0
 11
113.542268
 21
0.294050
 31
0.0
  0
LINE
  5
134
100
AcDbEntity
  8
profile
 62
7
100
AcDbLine
 10
113.542268
 20
0.294050
 30
0.0
 11
109.807239
 21
0.323149
 31
0.0
  0
LINE
  5
135
100
AcDbEntity
  8
profile
 62
7
100
AcDbLine
 10
109.807239
 20
0.323149
 30
0.0
 11
105.789975
 21
0.351962
 31
0.0
  0
LINE
  5
136
100
AcDbEntity
  8
profile
 62
7
100
AcDbLine
 10
105.789975
 20
0.351962
 30
0.0
 11
101.632302
 21
0.378743
 31
0.0
  0
LINE
  5
137
100
AcDbEntity
  8
profile
 62
7
100
AcDbLine
 10
101.632302
 20
0.378743
 30
0.0
 11
97.476050
 21
0.401748
 31
0.0
  0
LINE
  5
138
100
AcDbEntity
  8
profile
 62
7
100
AcDbLine
 10
97.476050
 20
0.401748
 30
0.0
 11
93.362405
 21
0.420475
 31
0.0
  0
LINE
  5
139
100
AcDbEntity
  8
profile
 62
7
100
AcDbLine
 10
93.362405
 20
0.420475
 30
0.0
 11
89.287814
 21
0.434973
 31
0.0
  0
LINE
  5
13a
100
AcDbEntity
  8
profile
 62
7
100
AcDbLine
 10
89.287814
 20
0.434973
 30
0.0
 11
85.327009
 21
0.444325
 31
0.0
  0
LINE
  5
13b
100
AcDbEntity
  8
profile
 62
7
100
AcDbLine
 10
85.327009
 20
0.444325
 30
0.0
 11
81.554726
 21
0.447620
 31
0.0
  0
LINE
  5
13c
100
AcDbEntity
  8
profile
 62
7
100
AcDbLine
 10
81.554726
 20
0.447620
 30
0.0
 11
78.045690
 21
0.443934
 31
0.0
  0
LINE
  5
13d
100
AcDbEntity
  8
profile
 62
7
100
AcDbLine
 10
78.045690
 20
0.443934
 30
0.0
 11
74.874639
 21
0.432353
 31
0.0
  0
LINE
  5
13e
100
AcDbEntity
  8
profile
 62
7
100
AcDbLine
 10
74.874639
 20
0.432353
 30
0.0
 11
72.116301
 21
0.411973
 31
0.0
  0
LINE
  5
13f
100
AcDbEntity
  8
profile
 62
7
100
AcDbLine
 10
72.116301
 20
0.411973
 30
0.0
 11
69.845409
 21
0.381868
 31
0.0
  0
LINE
  5
140
100
AcDbEntity
  8
profile
 62
7
100
AcDbLine
 10
69.845409
 20
0.381868
 30
0.0
 11
64.790627
 21
0.299351
 31
0.0
  0
LINE
  5
141
100
AcDbEntity
  8
profile
 62
7
100
AcDbLine
 10
64.790627
 20
0.299351
 30
0.0
 11
60.275553
 21
0.240075
 31
0.0
  0
LINE
  5
142
100
AcDbEntity
  8
profile
 62
7
100
AcDbLine
 10
60.275553
 20
0.240075
 30
0.0
 11
56.232615
 21
0.203845
 31
0.0
  0
LINE
  5
143
100
AcDbEntity
  8
profile
 62
7
100
AcDbLine
 10
56.232615
 20
0.203845
 30
0.0
 11
52.594246
 21
0.190473
 31
0.0
  0
LINE
  5
144
100
AcDbEntity
  8
profile
 62
7
100
AcDbLine
 10
52.594246
 20
0.190473
 30
0.0
 11
49.292873
 21
0.199766
 31
0.0
  0
LINE
  5
145
100
AcDbEntity
  8
profile
 62
7
100
AcDbLine
 10
49.292873
 20
0.199766
 30
0.0
 11
46.260930
 21
0.231542
 31
0.0
  0
LINE
  5
146
100
AcDbEntity
  8
profile
 62
7
100
AcDbLine
 10
46.260930
 20
0.231542
 30
0.0
 11
43.430840
 21
0.285611
 31
0.0
  0
LINE
  5
147
100
AcDbEntity
  8
profile
 62
7
100
AcDbLine
 10
43.430840
 20
0.285611
 30
0.0
 11
40.735051
 21
0.361774
 31
0.0
  0
LINE
  5
148
100
AcDbEntity
  8
profile
 62
7
100
AcDbLine
 10
40.735051
 20
0.361774
 30
0.0
 11
38.105974
 21
0.459848
 31
0.0
  0
LINE
  5
149
100
AcDbEntity
  8
profile
 62
7
100
AcDbLine
 10
38.105974
 20
0.459848
 30
0.0
 11
35.476048
 21
0.579643
 31
0.0
  0
LINE
  5
14a
100
AcDbEntity
  8
profile
 62
7
100
AcDbLine
 10
35.476048
 20
0.579643
 30
0.0
 11
32.777696
 21
0.720970
 31
0.0
  0
LINE
  5
14b
100
AcDbEntity
  8
profile
 62
7
100
AcDbLine
 10
32.777696
 20
0.720970
 30
0.0
 11
29.943356
 21
0.883635
 31
0.0
  0
LINE
  5
14c
100
AcDbEntity
  8
profile
 62
7
100
AcDbLine
 10
29.943356
 20
0.883635
 30
0.0
 11
26.905459
 21
1.067450
 31
0.0
  0
LINE
  5
14d
100
AcDbEntity
  8
profile
 62
7
100
AcDbLine
 10
26.905459
 20
1.067450
 30
0.0
 11
23.596439
 21
1.272225
 31
0.0
  0
LINE
  5
14e
100
AcDbEntity
  8
profile
 62
7
100
AcDbLine
 10
23.596439
 20
1.272225
 30
0.0
 11
19.948713
 21
1.497771
 31
0.0
  0
LINE
  5
14f
100
AcDbEntity
  8
profile
 62
7
100
AcDbLine
 10
19.948713
 20
1.497771
 30
0.0
 11
15.894718
 21
1.743900
 31
0.0
  0
LINE
  5
150
100
AcDbEntity
  8
profile
 62
7
100
AcDbLine
 10
15.894718
 20
1.743900
 30
0.0
 11
14.977994
 21
1.825908
 31
0.0
  0
LINE
  5
151
100
AcDbEntity
  8
profile
 62
7
100
AcDbLine
 10
14.977994
 20
1.825908
 30
0.0
 11
13.931487
 21
1.969668
 31
0.0
  0
LINE
  5
152
100
AcDbEntity
  8
profile
 62
7
100
AcDbLine
 10
13.931487
 20
1.969668
 30
0.0
 11
12.781126
 21
2.173301
 31
0.0
  0
LINE
  5
153
100
AcDbEntity
  8
profile
 62
7
100
AcDbLine
 10
12.781126
 20
2.173301
 30
0.0
 11
11.552865
 21
2.434925
 31
0.0
  0
LINE
  5
154
100
AcDbEntity
  8
profile
 62
7
100
AcDbLine
 10
11.552865
 20
2.434925
 30
0.0
 11
10.272620
 21
2.752666
 31
0.0
  0
LINE
  5
155
100
AcDbEntity
  8
profile
 62
7
100
AcDbLine
 10
10.272620
 20
2.752666
 30
0.0
 11
8.966345
 21
3.124642
 31
0.0
  0
LINE
  5
156
100
AcDbEntity
  8
profile
 62
7
100
AcDbLine
 10
8.966345
 20
3.124642
 30
0.0
 11
7.659958
 21
3.548980
 31
0.0
  0
LINE
  5
157
100
AcDbEntity
  8
profile
 62
7
100
AcDbLine
 10
7.659958
 20
3.548980
 30
0.0
 11
6.379399
 21
4.023797
 31
0.0
  0
LINE
  5
158
100
AcDbEntity
  8
profile
 62
7
100
AcDbLine
 10
6.379399
 20
4.023797
 30
0.0
 11
5.150621
 21
4.547213
 31
0.0
  0
LINE
  5
159
100
AcDbEntity
  8
profile
 62
7
100
AcDbLine
 10
5.150621
 20
4.547213
 30
0.0
 11
3.999530
 21
5.117356
 31
0.0
  0
LINE
  5
15a
100
AcDbEntity
  8
profile
 62
7
100
AcDbLine
 10
3.999530
 20
5.117356
 30
0.0
 11
2.952079
 21
5.732344
 31
0.0
  0
LINE
  5
15b
100
AcDbEntity
  8
profile
 62
7
100
AcDbLine
 10
2.952079
 20
5.732344
 30
0.0
 11
2.034210
 21
6.390297
 31
0.0
  0
LINE
  5
15c
100
AcDbEntity
  8
profile
 62
7
100
AcDbLine
 10
2.034210
 20
6.390297
 30
0.0
 11
1.271839
 21
7.089339
 31
0.0
  0
LINE
  5
15d
100
AcDbEntity
  8
profile
 62
7
100
AcDbLine
 10
1.271839
 20
7.089339
 30
0.0
 11
0.690920
 21
7.827592
 31
0.0
  0
LINE
  5
15e
100
AcDbEntity
  8
profile
 62
7
100
AcDbLine
 10
0.690920
 20
7.827592
 30
0.0
 11
0.317382
 21
8.603175
 31
0.0
  0
LINE
  5
15f
100
AcDbEntity
  8
profile
 62
7
100
AcDbLine
 10
0.317382
 20
8.603175
 30
0.0
 11
0.177154
 21
9.414213
 31
0.0
  0
LINE
  5
160
100
AcDbEntity
  8
profile
 62
7
100
AcDbLine
 10
0.177154
 20
9.414213
 30
0.0
 11
0.330641
 21
10.937472
 31
0.0
  0
LINE
  5
161
100
AcDbEntity
  8
profile
 62
7
100
AcDbLine
 10
0.330641
 20
10.937472
 30
0.0
 11
0.829245
 21
12.379288
 31
0.0
  0
LINE
  5
162
100
AcDbEntity
  8
profile
 62
7
100
AcDbLine
 10
0.829245
 20
12.379288
 30
0.0
 11
1.645599
 21
13.740810
 31
0.0
  0
LINE
  5
163
100
AcDbEntity
  8
profile
 62
7
100
AcDbLine
 10
1.645599
 20
13.740810
 30
0.0
 11
2.752340
 21
15.023196
 31
0.0
  0
LINE
  5
164
100
AcDbEntity
  8
profile
 62
7
100
AcDbLine
 10
2.752340
 20
15.023196
 30
0.0
 11
4.122101
 21
16.227600
 31
0.0
  0
LINE
  5
165
100
AcDbEntity
  8
profile
 62
7
100
AcDbLine
 10
4.122101
 20
16.227600
 30
0.0
 11
5.727539
 21
17.355170
 31
0.0
  0
LINE
  5
166
100
AcDbEntity
  8
profile
 62
7
100
AcDbLine
 10
5.727539
 20
17.355170
 30
0.0
 11
7.541255
 21
18.407071
 31
0.0
  0
LINE
  5
167
100
AcDbEntity
  8
profile
 62
7
100
AcDbLine
 10
7.541255
 20
18.407071
 30
0.0
 11
9.535918
 21
19.384445
 31
0.0
  0
LINE
  5
168
100
AcDbEntity
  8
profile
 62
7
100
AcDbLine
 10
9.535918
 20
19.384445
 30
0.0
 11
11.684150
 21
20.288451
 31
0.0
  0
LINE
  5
169
100
AcDbEntity
  8
profile
 62
7
100
AcDbLine
 10
11.684150
 20
20.288451
 30
0.0
 11
13.958588
 21
21.120246
 31
0.0
  0
LINE
  5
16a
100
AcDbEntity
  8
profile
 62
7
100
AcDbLine
 10
13.958588
 20
21.120246
 30
0.0
 11
16.331863
 21
21.880980
 31
0.0
  0
LINE
  5
16b
100
AcDbEntity
  8
profile
 62
7
100
AcDbLine
 10
16.331863
 20
21.880980
 30
0.0
 11
18.776623
 21
22.571806
 31
0.0
  0
LINE
  5
16c
100
AcDbEntity
  8
profile
 62
7
100
AcDbLine
 10
18.776623
 20
22.571806
 30
0.0
 11
21.265502
 21
23.193880
 31
0.0
  0
LINE
  5
16d
100
AcDbEntity
  8
profile
 62
7
100
AcDbLine
 10
21.265502
 20
23.193880
 30
0.0
 11
23.771123
 21
23.748358
 31
0.0
  0
LINE
  5
16e
100
AcDbEntity
  8
profile
 62
7
100
AcDbLine
 10
23.771123
 20
23.748358
 30
0.0
 11
26.266144
 21
24.236388
 31
0.0
  0
LINE
  5
16f
100
AcDbEntity
  8
profile
 62
7
100
AcDbLine
 10
26.266144
 20
24.236388
 30
0.0
 11
28.723188
 21
24.659129
 31
0.0
  0
LINE
  5
170
100
AcDbEntity
  8
profile
 62
7
100
AcDbLine
 10
28.723188
 20
24.659129
 30
0.0
 11
30.377625
 21
24.895125
 31
0.0
  0
LINE
  5
171
100
AcDbEntity
  8
profile
 62
7
100
AcDbLine
 10
30.377625
 20
24.895125
 30
0.0
 11
32.286502
 21
25.115851
 31
0.0
  0
LINE
  5
172
100
AcDbEntity
  8
profile
 62
7
100
AcDbLine
 10
32.286502
 20
25.115851
 30
0.0
 11
34.409309
 21
25.320484
 31
0.0
  0
LINE
  5
173
100
AcDbEntity
  8
profile
 62
7
100
AcDbLine
 10
34.409309
 20
25.320484
 30
0.0
 11
36.705583
 21
25.508186
 31
0.0
  0
LINE
  5
174
100
AcDbEntity
  8
profile
 62
7
100
AcDbLine
 10
36.705583
 20
25.508186
 30
0.0
 11
39.134827
 21
25.678129
 31
0.0
  0
LINE
  5
175
100
AcDbEntity
  8
profile
 62
7
100
AcDbLine
 10
39.134827
 20
25.678129
 30
0.0
 11
41.656553
 21
25.829480
 31
0.0
  0
LINE
  5
176
100
AcDbEntity
  8
profile
 62
7
100
AcDbLine
 10
41.656553
 20
25.829480
 30
0.0
 11
44.230289
 21
25.961409
 31
0.0
  0
LINE
  5
177
100
AcDbEntity
  8
profile
 62
7
100
AcDbLine
 10
44.230289
 20
25.961409
 30
0.0
 11
46.815538
 21
26.073085
 31
0.0
  0
LINE
  5
178
100
AcDbEntity
  8
profile
 62
7
100
AcDbLine
 10
46.815538
 20
26.073085
 30
0.0
 11
49.429254
 21
26.158534
 31
0.0
  0
LINE
  5
179
100
AcDbEntity
  8
profile
 62
7
100
AcDbLine
 10
49.429254
 20
26.158534
 30
0.0
 11
52.055568
 21
26.214721
 31
0.0
  0
LINE
  5
17a
100
AcDbEntity
  8
profile
 62
7
100
AcDbLine
 10
52.055568
 20
26.214721
 30
0.0
 11
54.604762
 21
26.245222
 31
0.0
  0
LINE
  5
17b
100
AcDbEntity
  8
profile
 62
7
100
AcDbLine
 10
54.604762
 20
26.245222
 30
0.0
 11
56.987125
 21
26.253614
 31
0.0
  0
LINE
  5
17c
100
AcDbEntity
  8
profile
 62
7
100
AcDbLine
 10
56.987125
 20
26.253614
 30
0.0
 11
59.162167
 21
26.239065
 31
0.0
  0
LINE
  5
17d
100
AcDbEntity
  8
profile
 62
7
100
AcDbLine
 10
59.162167
 20
26.239065
 30
0.0
 11
61.023765
 21
26.206618
 31
0.0
  0
LINE
  5
17e
100
AcDbEntity
  8
profile
 62
7
100
AcDbLine
 10
61.023765
 20
26.206618
 30
0.0
 11
62.416564
 21
26.165725
 31
0.0
  0
LINE
  5
17f
100
AcDbEntity
  8
profile
 62
7
100
AcDbLine
 10
62.416564
 20
26.165725
 30
0.0
 11
63.053927
 21
26.137569
 31
0.0
  0
LINE
  5
180
100
AcDbEntity
  8
profile
 62
7
100
AcDbLine
 10
41.803055
 20
12.733324
 30
0.0
 11
41.753385
 21
11.919637
 31
0.0
  0
LINE
  5
181
100
AcDbEntity
  8
profile
 62
7
100
AcDbLine
 10
41.753385
 20
11.919637
 30
0.0
 11
41.607596
 21
11.129455
 31
0.0
  0
LINE
  5
182
100
AcDbEntity
  8
profile
 62
7
100
AcDbLine
 10
41.607596
 20
11.129455
 30
0.0
 11
41.370526
 21
10.366778
 31
0.0
  0
LINE
  5
183
100
AcDbEntity
  8
profile
 62
7
100
AcDbLine
 10
41.370526
 20
10.366778
 30
0.0
 11
41.047011
 21
9.635606
 31
0.0
  0
LINE
  5
184
100
AcDbEntity
  8
profile
 62
7
100
AcDbLine
 10
41.047011
 20
9.635606
 30
0.0
 11
40.641885
 21
8.939940
 31
0.0
  0
LINE
  5
185
100
AcDbEntity
  8
profile
 62
7
100
AcDbLine
 10
40.641885
 20
8.939940
 30
0.0
 11
40.159986
 21
8.283780
 31
0.0
  0
LINE
  5
186
100
AcDbEntity
  8
profile
 62
7
100
AcDbLine
 10
40.159986
 20
8.283780
 30
0.0
 11
39.606148
 21
7.671126
 31
0.0
  0
LINE
  5
187
100
AcDbEntity
  8
profile
 62
7
100
AcDbLine
 10
39.606148
 20
7.671126
 30
0.0
 11
38.985208
 21
7.105978
 31
0.0
  0
LINE
  5
188
100
AcDbEntity
  8
profile
 62
7
100
AcDbLine
 10
38.985208
 20
7.105978
 30
0.0
 11
38.302003
 21
6.592336
 31
0.0
  0
LINE
  5
189
100
AcDbEntity
  8
profile
 62
7
100
AcDbLine
 10
38.302003
 20
6.592336
 30
0.0
 11
37.561366
 21
6.134202
 31
0.0
  0
LINE
  5
18a
100
AcDbEntity
  8
profile
 62
7
100
AcDbLine
 10
37.561366
 20
6.134202
 30
0.0
 11
36.768136
 21
5.735575
 31
0.0
  0
LINE
  5
18b
100
AcDbEntity
  8
profile
 62
7
100
AcDbLine
 10
36.768136
 20
5.735575
 30
0.0
 11
35.927146
 21
5.400455
 31
0.0
  0
LINE
  5
18c
100
AcDbEntity
  8
profile
 62
7
100
AcDbLine
 10
35.927146
 20
5.400455
 30
0.0
 11
35.043235
 21
5.132843
 31
0.0
  0
LINE
  5
18d
100
AcDbEntity
  8
profile
 62
7
100
AcDbLine
 10
35.043235
 20
5.132843
 30
0.0
 11
34.121236
 21
4.936739
 31
0.0
  0
LINE
  5
18e
100
AcDbEntity
  8
profile
 62
7
100
AcDbLine
 10
34.121236
 20
4.936739
 30
0.0
 11
33.165987
 21
4.816142
 31
0.0
  0
LINE
  5
18f
100
AcDbEntity
  8
profile
 62
7
100
AcDbLine
 10
33.165987
 20
4.816142
 30
0.0
 11
32.182323
 21
4.775055
 31
0.0
  0
LINE
  5
190
100
AcDbEntity
  8
profile
 62
7
100
AcDbLine
 10
32.182323
 20
4.775055
 30
0.0
 11
31.198659
 21
4.816142
 31
0.0
  0
LINE
  5
191
100
AcDbEntity
  8
profile
 62
7
100
AcDbLine
 10
31.198659
 20
4.816142
 30
0.0
 11
30.243410
 21
4.936739
 31
0.0
  0
LINE
  5
192
100
AcDbEntity
  8
profile
 62
7
100
AcDbLine
 10
30.243410
 20
4.936739
 30
0.0
 11
29.321411
 21
5.132843
 31
0.0
  0
LINE
  5
193
100
AcDbEntity
  8
profile
 62
7
100
AcDbLine
 10
29.321411
 20
5.132843
 30
0.0
 11
28.437500
 21
5.400455
 31
0.0
  0
LINE
  5
194
100
AcDbEntity
  8
profile
 62
7
100
AcDbLine
 10
28.437500
 20
5.400455
 30
0.0
 11
27.596511
 21
5.735575
 31
0.0
  0
LINE
  5
195
100
AcDbEntity
  8
profile
 62
7
100
AcDbLine
 10
27.596511
 20
5.735575
 30
0.0
 11
26.803281
 21
6.134202
 31
0.0
  0
LINE
  5
196
100
AcDbEntity
  8
profile
 62
7
100
AcDbLine
 10
26.803281
 20
6.134202
 30
0.0
 11
26.062644
 21
6.592336
 31
0.0
  0
LINE
  5
197
100
AcDbEntity
  8
profile
 62
7
100
AcDbLine
 10
26.062644
 20
6.592336
 30
0.0
 11
25.379438
 21
7.105978
 31
0.0
  0
LINE
  5
198
100
AcDbEntity
  8
profile
 62
7
100
AcDbLine
 10
25.379438
 20
7.105978
 30
0.0
 11
24.758498
 21
7.671126
 31
0.0
  0
LINE
  5
199
100
AcDbEntity
  8
profile
 62
7
100
AcDbLine
 10
24.758498
 20
7.671126
 30
0.0
 11
24.204661
 21
8.283780
 31
0.0
  0
LINE
  5
19a
100
AcDbEntity
  8
profile
 62
7
100
AcDbLine
 10
24.204661
 20
8.283780
 30
0.0
 11
23.722761
 21
8.939940
 31
0.0
  0
LINE
  5
19b
100
AcDbEntity
  8
profile
 62
7
100
AcDbLine
 10
23.722761
 20
8.939940
 30
0.0
 11
23.317635
 21
9.635606
 31
0.0
  0
LINE
  5
19c
100
AcDbEntity
  8
profile
 62
7
100
AcDbLine
 10
23.317635
 20
9.635606
 30
0.0
 11
22.994120
 21
10.366778
 31
0.0
  0
LINE
  5
19d
100
AcDbEntity
  8
profile
 62
7
100
AcDbLine
 10
22.994120
 20
10.366778
 30
0.0
 11
22.757050
 21
11.129455
 31
0.0
  0
LINE
  5
19e
100
AcDbEntity
  8
profile
 62
7
100
AcDbLine
 10
22.757050
 20
11.129455
 30
0.0
 11
22.611262
 21
11.919637
 31
0.0
  0
LINE
  5
19f
100
AcDbEntity
  8
profile
 62
7
100
AcDbLine
 10
22.611262
 20
11.919637
 30
0.0
 11
22.561591
 21
12.733324
 31
0.0
  0
LINE
  5
1a0
100
AcDbEntity
  8
profile
 62
7
100
AcDbLine
 10
22.561591
 20
12.733324
 30
0.0
 11
22.611262
 21
13.547010
 31
0.0
  0
LINE
  5
1a1
100
AcDbEntity
  8
profile
 62
7
100
AcDbLine
 10
22.611262
 20
13.547010
 30
0.0
 11
22.757050
 21
14.337192
 31
0.0
  0
LINE
  5
1a2
100
AcDbEntity
  8
profile
 62
7
100
AcDbLine
 10
22.757050
 20
14.337192
 30
0.0
 11
22.994120
 21
15.099870
 31
0.0
  0
LINE
  5
1a3
100
AcDbEntity
  8
profile
 62
7
100
AcDbLine
 10
22.994120
 20
15.099870
 30
0.0
 11
23.317635
 21
15.831041
 31
0.0
  0
LINE
  5
1a4
100
AcDbEntity
  8
profile
 62
7
100
AcDbLine
 10
23.317635
 20
15.831041
 30
0.0
 11
23.722761
 21
16.526707
 31
0.0
  0
LINE
  5
1a5
100
AcDbEntity
  8
profile
 62
7
100
AcDbLine
 10
23.722761
 20
16.526707
 30
0.0
 11
24.204661
 21
17.182868
 31
0.0
  0
LINE
  5
1a6
100
AcDbEntity
  8
profile
 62
7
100
AcDbLine
 10
24.204661
 20
17.182868
 30
0.0
 11
24.758498
 21
17.795522
 31
0.0
  0
LINE
  5
1a7
100
AcDbEntity
  8
profile
 62
7
100
AcDbLine
 10
24.758498
 20
17.795522
 30
0.0
 11
25.379438
 21
18.360670
 31
0.0
  0
LINE
  5
1a8
100
AcDbEntity
  8
profile
 62
7
100
AcDbLine
 10
25.379438
 20
18.360670
 30
0.0
 11
26.062644
 21
18.874311
 31
0.0
  0
LINE
  5
1a9
100
AcDbEntity
  8
profile
 62
7
100
AcDbLine
 10
26.062644
 20
18.874311
 30
0.0
 11
26.803281
 21
19.332445
 31
0.0
  0
LINE
  5
1aa
100
AcDbEntity
  8
profile
 62
7
100
AcDbLine
 10
26.803281
 20
19.332445
 30
0.0
 11
27.596511
 21
19.731073
 31
0.0
  0
LINE
  5
1ab
100
AcDbEntity
  8
profile
 62
7
100
AcDbLine
 10
27.596511
 20
19.731073
 30
0.0
 11
28.437500
 21
20.066193
 31
0.0
  0
LINE
  5
1ac
100
AcDbEntity
  8
profile
 62
7
100
AcDbLine
 10
28.437500
 20
20.066193
 30
0.0
 11
29.321411
 21
20.333805
 31
0.0
  0
LINE
  5
1ad
100
AcDbEntity
  8
profile
 62
7
100
AcDbLine
 10
29.321411
 20
20.333805
 30
0.0
 11
30.243410
 21
20.529909
 31
0.0
  0
LINE
  5
1ae
100
AcDbEntity
  8
profile
 62
7
100
AcDbLine
 10
30.243410
 20
20.529909
 30
0.0
 11
31.198659
 21
20.650506
 31
0.0
  0
LINE
  5
1af
100
AcDbEntity
  8
profile
 62
7
100
AcDbLine
 10
31.198659
 20
20.650506
 30
0.0
 11
32.182323
 21
20.691593
 31
0.0
  0
LINE
  5
1b0
100
AcDbEntity
  8
profile
 62
7
100
AcDbLine
 10
32.182323
 20
20.691593
 30
0.0
 11
33.165987
 21
20.650506
 31
0.0
  0
LINE
  5
1b1
100
AcDbEntity
  8
profile
 62
7
100
AcDbLine
 10
33.165987
 20
20.650506
 30
0.0
 11
34.121236
 21
20.529909
 31
0.0
  0
LINE
  5
1b2
100
AcDbEntity
  8
profile
 62
7
100
AcDbLine
 10
34.121236
 20
20.529909
 30
0.0
 11
35.043235
 21
20.333805
 31
0.0
  0
LINE
  5
1b3
100
AcDbEntity
  8
profile
 62
7
100
AcDbLine
 10
35.043235
 20
20.333805
 30
0.0
 11
35.927146
 21
20.066193
 31
0.0
  0
LINE
  5
1b4
100
AcDbEntity
  8
profile
 62
7
100
AcDbLine
 10
35.927146
 20
20.066193
 30
0.0
 11
36.768136
 21
19.731073
 31
0.0
  0
LINE
  5
1b5
100
AcDbEntity
  8
profile
 62
7
100
AcDbLine
 10
36.768136
 20
19.731073
 30
0.0
 11
37.561366
 21
19.332445
 31
0.0
  0
LINE
  5
1b6
100
AcDbEntity
  8
profile
 62
7
100
AcDbLine
 10
37.561366
 20
19.332445
 30
0.0
 11
38.302003
 21
18.874311
 31
0.0
  0
LINE
  5
1b7
100
AcDbEntity
  8
profile
 62
7
100
AcDbLine
 10
38.302003
 20
18.874311
 30
0.0
 11
38.985208
 21
18.360670
 31
0.0
  0
LINE
  5
1b8
100
AcDbEntity
  8
profile
 62
7
100
AcDbLine
 10
38.985208
 20
18.360670
 30
0.0
 11
39.606148
 21
17.795522
 31
0.0
  0
LINE
  5
1b9
100
AcDbEntity
  8
profile
 62
7
100
AcDbLine
 10
39.606148
 20
17.795522
 30
0.0
 11
40.159986
 21
17.182868
 31
0.0
  0
LINE
  5
1ba
100
AcDbEntity
  8
profile
 62
7
100
AcDbLine
 10
40.159986
 20
17.182868
 30
0.0
 11
40.641885
 21
16.526707
 31
0.0
  0
LINE
  5
1bb
100
AcDbEntity
  8
profile
 62
7
100
AcDbLine
 10
40.641885
 20
16.526707
 30
0.0
 11
41.047011
 21
15.831041
 31
0.0
  0
LINE
  5
1bc
100
AcDbEntity
  8
profile
 62
7
100
AcDbLine
 10
41.047011
 20
15.831041
 30
0.0
 11
41.370526
 21
15.099870
 31
0.0
  0
LINE
  5
1bd
100
AcDbEntity
  8
profile
 62
7
100
AcDbLine
 10
41.370526
 20
15.099870
 30
0.0
 11
41.607596
 21
14.337192
 31
0.0
  0
LINE
  5
1be
100
AcDbEntity
  8
profile
 62
7
100
AcDbLine
 10
41.607596
 20
14.337192
 30
0.0
 11
41.753385
 21
13.547010
 31
0.0
  0
LINE
  5
1bf
100
AcDbEntity
  8
profile
 62
7
100
AcDbLine
 10
41.753385
 20
13.547010
 30
0.0
 11
41.803055
 21
12.733324
 31
0.0
  0
LINE
  5
1c0
100
AcDbEntity
  8
profile
 62
7
100
AcDbLine
 10
53.425634
 20
12.809444
 30
0.0
 11
53.402850
 21
12.305406
 31
0.0
  0
LINE
  5
1c1
100
AcDbEntity
  8
profile
 62
7
100
AcDbLine
 10
53.402850
 20
12.305406
 30
0.0
 11
53.335944
 21
11.815897
 31
0.0
  0
LINE
  5
1c2
100
AcDbEntity
  8
profile
 62
7
100
AcDbLine
 10
53.335944
 20
11.815897
 30
0.0
 11
53.227148
 21
11.343432
 31
0.0
  0
LINE
  5
1c3
100
AcDbEntity
  8
profile
 62
7
100
AcDbLine
 10
53.227148
 20
11.343432
 30
0.0
 11
53.078680
 21
10.890499
 31
0.0
  0
LINE
  5
1c4
100
AcDbEntity
  8
profile
 62
7
100
AcDbLine
 10
53.078680
 20
10.890499
 30
0.0
 11
52.892762
 21
10.459588
 31
0.0
  0
LINE
  5
1c5
100
AcDbEntity
  8
profile
 62
7
100
AcDbLine
 10
52.892762
 20
10.459588
 30
0.0
 11
52.671607
 21
10.053112
 31
0.0
  0
LINE
  5
1c6
100
AcDbEntity
  8
profile
 62
7
100
AcDbLine
 10
52.671607
 20
10.053112
 30
0.0
 11
52.417442
 21
9.673585
 31
0.0
  0
LINE
  5
1c7
100
AcDbEntity
  8
profile
 62
7
100
AcDbLine
 10
52.417442
 20
9.673585
 30
0.0
 11
52.132479
 21
9.323497
 31
0.0
  0
LINE
  5
1c8
100
AcDbEntity
  8
profile
 62
7
100
AcDbLine
 10
52.132479
 20
9.323497
 30
0.0
 11
51.818944
 21
9.005311
 31
0.0
  0
LINE
  5
1c9
100
AcDbEntity
  8
profile
 62
7
100
AcDbLine
 10
51.818944
 20
9.005311
 30
0.0
 11
51.479049
 21
8.721491
 31
0.0
  0
LINE
  5
1ca
100
AcDbEntity
  8
profile
 62
7
100
AcDbLine
 10
51.479049
 20
8.721491
 30
0.0
 11
51.115021
 21
8.474578
 31
0.0
  0
LINE
  5
1cb
100
AcDbEntity
  8
profile
 62
7
100
AcDbLine
 10
51.115021
 20
8.474578
 30
0.0
 11
50.729073
 21
8.266984
 31
0.0
  0
LINE
  5
1cc
100
AcDbEntity
  8
profile
 62
7
100
AcDbLine
 10
50.729073
 20
8.266984
 30
0.0
 11
50.323430
 21
8.101198
 31
0.0
  0
LINE
  5
1cd
100
AcDbEntity
  8
profile
 62
7
100
AcDbLine
 10
50.323430
 20
8.101198
 30
0.0
 11
49.900307
 21
7.979735
 31
0.0
  0
LINE
  5
1ce
100
AcDbEntity
  8
profile
 62
7
100
AcDbLine
 10
49.900307
 20
7.979735
 30
0.0
 11
49.461923
 21
7.905008
 31
0.0
  0
LINE
  5
1cf
100
AcDbEntity
  8
profile
 62
7
100
AcDbLine
 10
49.461923
 20
7.905008
 30
0.0
 11
49.010502
 21
7.879583
 31
0.0
  0
LINE
  5
1d0
100
AcDbEntity
  8
profile
 62
7
100
AcDbLine
 10
49.010502
 20
7.879583
 30
0.0
 11
48.559077
 21
7.905008
 31
0.0
  0
LINE
  5
1d1
100
AcDbEntity
  8
profile
 62
7
100
AcDbLine
 10
48.559077
 20
7.905008
 30
0.0
 11
48.120694
 21
7.979735
 31
0.0
  0
LINE
  5
1d2
100
AcDbEntity
  8
profile
 62
7
100
AcDbLine
 10
48.120694
 20
7.979735
 30
0.0
 11
47.697573
 21
8.101198
 31
0.0
  0
LINE
  5
1d3
100
AcDbEntity
  8
profile
 62
7
100
AcDbLine
 10
47.697573
 20
8.101198
 30
0.0
 11
47.291927
 21
8.266984
 31
0.0
  0
LINE
  5
1d4
100
AcDbEntity
  8
profile
 62
7
100
AcDbLine
 10
47.291927
 20
8.266984
 30
0.0
 11
46.905982
 21
8.474578
 31
0.0
  0
LINE
  5
1d5
100
AcDbEntity
  8
profile
 62
7
100
AcDbLine
 10
46.905982
 20
8.474578
 30
0.0
 11
46.541952
 21
8.721491
 31
0.0
  0
LINE
  5
1d6
100
AcDbEntity
  8
profile
 62
7
100
AcDbLine
 10
46.541952
 20
8.721491
 30
0.0
 11
46.202060
 21
9.005311
 31
0.0
  0
LINE
  5
1d7
100
AcDbEntity
  8
profile
 62
7
100
AcDbLine
 10
46.202060
 20
9.005311
 30
0.0
 11
45.888523
 21
9.323497
 31
0.0
  0
LINE
  5
1d8
100
AcDbEntity
  8
profile
 62
7
100
AcDbLine
 10
45.888523
 20
9.323497
 30
0.0
 11
45.603561
 21
9.673585
 31
0.0
  0
LINE
  5
1d9
100
AcDbEntity
  8
profile
 62
7
100
AcDbLine
 10
45.603561
 20
9.673585
 30
0.0
 11
45.349395
 21
10.053112
 31
0.0
  0
LINE
  5
1da
100
AcDbEntity
  8
profile
 62
7
100
AcDbLine
 10
45.349395
 20
10.053112
 30
0.0
 11
45.128241
 21
10.459588
 31
0.0
  0
LINE
  5
1db
100
AcDbEntity
  8
profile
 62
7
100
AcDbLine
 10
45.128241
 20
10.459588
 30
0.0
 11
44.942321
 21
10.890499
 31
0.0
  0
LINE
  5
1dc
100
AcDbEntity
  8
profile
 62
7
100
AcDbLine
 10
44.942321
 20
10.890499
 30
0.0
 11
44.793853
 21
11.343432
 31
0.0
  0
LINE
  5
1dd
100
AcDbEntity
  8
profile
 62
7
100
AcDbLine
 10
44.793853
 20
11.343432
 30
0.0
 11
44.685057
 21
11.815897
 31
0.0
  0
LINE
  5
1de
100
AcDbEntity
  8
profile
 62
7
100
AcDbLine
 10
44.685057
 20
11.815897
 30
0.0
 11
44.618152
 21
12.305406
 31
0.0
  0
LINE
  5
1df
100
AcDbEntity
  8
profile
 62
7
100
AcDbLine
 10
44.618152
 20
12.305406
 30
0.0
 11
44.595358
 21
12.809444
 31
0.0
  0
LINE
  5
1e0
100
AcDbEntity
  8
profile
 62
7
100
AcDbLine
 10
44.595358
 20
12.809444
 30
0.0
 11
44.618152
 21
13.313481
 31
0.0
  0
LINE
  5
1e1
100
AcDbEntity
  8
profile
 62
7
100
AcDbLine
 10
44.618152
 20
13.313481
 30
0.0
 11
44.685057
 21
13.802990
 31
0.0
  0
LINE
  5
1e2
100
AcDbEntity
  8
profile
 62
7
100
AcDbLine
 10
44.685057
 20
13.802990
 30
0.0
 11
44.793853
 21
14.275430
 31
0.0
  0
LINE
  5
1e3
100
AcDbEntity
  8
profile
 62
7
100
AcDbLine
 10
44.793853
 20
14.275430
 30
0.0
 11
44.942321
 21
14.728388
 31
0.0
  0
LINE
  5
1e4
100
AcDbEntity
  8
profile
 62
7
100
AcDbLine
 10
44.942321
 20
14.728388
 30
0.0
 11
45.128241
 21
15.159325
 31
0.0
  0
LINE
  5
1e5
100
AcDbEntity
  8
profile
 62
7
100
AcDbLine
 10
45.128241
 20
15.159325
 30
0.0
 11
45.349395
 21
15.565801
 31
0.0
  0
LINE
  5
1e6
100
AcDbEntity
  8
profile
 62
7
100
AcDbLine
 10
45.349395
 20
15.565801
 30
0.0
 11
45.603561
 21
15.945302
 31
0.0
  0
LINE
  5
1e7
100
AcDbEntity
  8
profile
 62
7
100
AcDbLine
 10
45.603561
 20
15.945302
 30
0.0
 11
45.888523
 21
16.295390
 31
0.0
  0
LINE
  5
1e8
100
AcDbEntity
  8
profile
 62
7
100
AcDbLine
 10
45.888523
 20
16.295390
 30
0.0
 11
46.202060
 21
16.613576
 31
0.0
  0
LINE
  5
1e9
100
AcDbEntity
  8
profile
 62
7
100
AcDbLine
 10
46.202060
 20
16.613576
 30
0.0
 11
46.541952
 21
16.897370
 31
0.0
  0
LINE
  5
1ea
100
AcDbEntity
  8
profile
 62
7
100
AcDbLine
 10
46.541952
 20
16.897370
 30
0.0
 11
46.905982
 21
17.144309
 31
0.0
  0
LINE
  5
1eb
100
AcDbEntity
  8
profile
 62
7
100
AcDbLine
 10
46.905982
 20
17.144309
 30
0.0
 11
47.291927
 21
17.351903
 31
0.0
  0
LINE
  5
1ec
100
AcDbEntity
  8
profile
 62
7
100
AcDbLine
 10
47.291927
 20
17.351903
 30
0.0
 11
47.697573
 21
17.517689
 31
0.0
  0
LINE
  5
1ed
100
AcDbEntity
  8
profile
 62
7
100
AcDbLine
 10
47.697573
 20
17.517689
 30
0.0
 11
48.120694
 21
17.639177
 31
0.0
  0
LINE
  5
1ee
100
AcDbEntity
  8
profile
 62
7
100
AcDbLine
 10
48.120694
 20
17.639177
 30
0.0
 11
48.559077
 21
17.713879
 31
0.0
  0
LINE
  5
1ef
100
AcDbEntity
  8
profile
 62
7
100
AcDbLine
 10
48.559077
 20
17.713879
 30
0.0
 11
49.010502
 21
17.739330
 31
0.0
  0
LINE
  5
1f0
100
AcDbEntity
  8
profile
 62
7
100
AcDbLine
 10
49.010502
 20
17.739330
 30
0.0
 11
49.461923
 21
17.713879
 31
0.0
  0
LINE
  5
1f1
100
AcDbEntity
  8
profile
 62
7
100
AcDbLine
 10
49.461923
 20
17.713879
 30
0.0
 11
49.900307
 21
17.639177
 31
0.0
  0
LINE
  5
1f2
100
AcDbEntity
  8
profile
 62
7
100
AcDbLine
 10
49.900307
 20
17.639177
 30
0.0
 11
50.323430
 21
17.517689
 31
0.0
  0
LINE
  5
1f3
100
AcDbEntity
  8
profile
 62
7
100
AcDbLine
 10
50.323430
 20
17.517689
 30
0.0
 11
50.729073
 21
17.351903
 31
0.0
  0
LINE
  5
1f4
100
AcDbEntity
  8
profile
 62
7
100
AcDbLine
 10
50.729073
 20
17.351903
 30
0.0
 11
51.115021
 21
17.144309
 31
0.0
  0
LINE
  5
1f5
100
AcDbEntity
  8
profile
 62
7
100
AcDbLine
 10
51.115021
 20
17.144309
 30
0.0
 11
51.479049
 21
16.897370
 31
0.0
  0
LINE
  5
1f6
100
AcDbEntity
  8
profile
 62
7
100
AcDbLine
 10
51.479049
 20
16.897370
 30
0.0
 11
51.818944
 21
16.613576
 31
0.0
  0
LINE
  5
1f7
100
AcDbEntity
  8
profile
 62
7
100
AcDbLine
 10
51.818944
 20
16.613576
 30
0.0
 11
52.132479
 21
16.295390
 31
0.0
  0
LINE
  5
1f8
100
AcDbEntity
  8
profile
 62
7
100
AcDbLine
 10
52.132479
 20
16.295390
 30
0.0
 11
52.417442
 21
15.945302
 31
0.0
  0
LINE
  5
1f9
100
AcDbEntity
  8
profile
 62
7
100
AcDbLine
 10
52.417442
 20
15.945302
 30
0.0
 11
52.671607
 21
15.565801
 31
0.0
  0
LINE
  5
1fa
100
AcDbEntity
  8
profile
 62
7
100
AcDbLine
 10
52.671607
 20
15.565801
 30
0.0
 11
52.892762
 21
15.159325
 31
0.0
  0
LINE
  5
1fb
100
AcDbEntity
  8
profile
 62
7
100
AcDbLine
 10
52.892762
 20
15.159325
 30
0.0
 11
53.078680
 21
14.728388
 31
0.0
  0
LINE
  5
1fc
100
AcDbEntity
  8
profile
 62
7
100
AcDbLine
 10
53.078680
 20
14.728388
 30
0.0
 11
53.227148
 21
14.275430
 31
0.0
  0
LINE
  5
1fd
100
AcDbEntity
  8
profile
 62
7
100
AcDbLine
 10
53.227148
 20
14.275430
 30
0.0
 11
53.335944
 21
13.802990
 31
0.0
  0
LINE
  5
1fe
100
AcDbEntity
  8
profile
 62
7
100
AcDbLine
 10
53.335944
 20
13.802990
 30
0.0
 11
53.402850
 21
13.313481
 31
0.0
  0
LINE
  5
1ff
100
AcDbEntity
  8
profile
 62
7
100
AcDbLine
 10
53.402850
 20
13.313481
 30
0.0
 11
53.425634
 21
12.809444
 31
0.0
  0
LINE
  5
200
100
AcDbEntity
  8
profile
 62
7
100
AcDbLine
 10
87.075521
 20
12.545745
 30
0.0
 11
87.026678
 21
11.745620
 31
0.0
  0
LINE
  5
201
100
AcDbEntity
  8
profile
 62
7
100
AcDbLine
 10
87.026678
 20
11.745620
 30
0.0
 11
86.883319
 21
10.968608
 31
0.0
  0
LINE
  5
202
100
AcDbEntity
  8
profile
 62
7
100
AcDbLine
 10
86.883319
 20
10.968608
 30
0.0
 11
86.650201
 21
10.218642
 31
0.0
  0
LINE
  5
203
100
AcDbEntity
  8
profile
 62
7
100
AcDbLine
 10
86.650201
 20
10.218642
 30
0.0
 11
86.332077
 21
9.499656
 31
0.0
  0
LINE
  5
204
100
AcDbEntity
  8
profile
 62
7
100
AcDbLine
 10
86.332077
 20
9.499656
 30
0.0
 11
85.933704
 21
8.815585
 31
0.0
  0
LINE
  5
205
100
AcDbEntity
  8
profile
 62
7
100
AcDbLine
 10
85.933704
 20
8.815585
 30
0.0
 11
85.459836
 21
8.170361
 31
0.0
  0
LINE
  5
206
100
AcDbEntity
  8
profile
 62
7
100
AcDbLine
 10
85.459836
 20
8.170361
 30
0.0
 11
84.915229
 21
7.567917
 31
0.0
  0
LINE
  5
207
100
AcDbEntity
  8
profile
 62
7
100
AcDbLine
 10
84.915229
 20
7.567917
 30
0.0
 11
84.304638
 21
7.012188
 31
0.0
  0
LINE
  5
208
100
AcDbEntity
  8
profile
 62
7
100
AcDbLine
 10
84.304638
 20
7.012188
 30
0.0
 11
83.632819
 21
6.507108
 31
0.0
  0
LINE
  5
209
100
AcDbEntity
  8
profile
 62
7
100
AcDbLine
 10
83.632819
 20
6.507108
 30
0.0
 11
82.904526
 21
6.056609
 31
0.0
  0
LINE
  5
20a
100
AcDbEntity
  8
profile
 62
7
100
AcDbLine
 10
82.904526
 20
6.056609
 30
0.0
 11
82.124517
 21
5.664625
 31
0.0
  0
LINE
  5
20b
100
AcDbEntity
  8
profile
 62
7
100
AcDbLine
 10
82.124517
 20
5.664625
 30
0.0
 11
81.297544
 21
5.335091
 31
0.0
  0
LINE
  5
20c
100
AcDbEntity
  8
profile
 62
7
100
AcDbLine
 10
81.297544
 20
5.335091
 30
0.0
 11
80.428364
 21
5.071939
 31
0.0
  0
LINE
  5
20d
100
AcDbEntity
  8
profile
 62
7
100
AcDbLine
 10
80.428364
 20
5.071939
 30
0.0
 11
79.521732
 21
4.879103
 31
0.0
  0
LINE
  5
20e
100
AcDbEntity
  8
profile
 62
7
100
AcDbLine
 10
79.521732
 20
4.879103
 30
0.0
 11
78.582404
 21
4.760517
 31
0.0
  0
LINE
  5
20f
100
AcDbEntity
  8
profile
 62
7
100
AcDbLine
 10
78.582404
 20
4.760517
 30
0.0
 11
77.615134
 21
4.720114
 31
0.0
  0
LINE
  5
210
100
AcDbEntity
  8
profile
 62
7
100
AcDbLine
 10
77.615134
 20
4.720114
 30
0.0
 11
76.647864
 21
4.760517
 31
0.0
  0
LINE
  5
211
100
AcDbEntity
  8
profile
 62
7
100
AcDbLine
 10
76.647864
 20
4.760517
 30
0.0
 11
75.708536
 21
4.879103
 31
0.0
  0
LINE
  5
212
100
AcDbEntity
  8
profile
 62
7
100
AcDbLine
 10
75.708536
 20
4.879103
 30
0.0
 11
74.801904
 21
5.071939
 31
0.0
  0
LINE
  5
213
100
AcDbEntity
  8
profile
 62
7
100
AcDbLine
 10
74.801904
 20
5.071939
 30
0.0
 11
73.932725
 21
5.335091
 31
0.0
  0
LINE
  5
214
100
AcDbEntity
  8
profile
 62
7
100
AcDbLine
 10
73.932725
 20
5.335091
 30
0.0
 11
73.105752
 21
5.664625
 31
0.0
  0
LINE
  5
215
100
AcDbEntity
  8
profile
 62
7
100
AcDbLine
 10
73.105752
 20
5.664625
 30
0.0
 11
72.325742
 21
6.056609
 31
0.0
  0
LINE
  5
216
100
AcDbEntity
  8
profile
 62
7
100
AcDbLine
 10
72.325742
 20
6.056609
 30
0.0
 11
71.597449
 21
6.507108
 31
0.0
  0
LINE
  5
217
100
AcDbEntity
  8
profile
 62
7
100
AcDbLine
 10
71.597449
 20
6.507108
 30
0.0
 11
70.925631
 21
7.012188
 31
0.0
  0
LINE
  5
218
100
AcDbEntity
  8
profile
 62
7
100
AcDbLine
 10
70.925631
 20
7.012188
 30
0.0
 11
70.315040
 21
7.567917
 31
0.0
  0
LINE
  5
219
100
AcDbEntity
  8
profile
 62
7
100
AcDbLine
 10
70.315040
 20
7.567917
 30
0.0
 11
69.770433
 21
8.170361
 31
0.0
  0
LINE
  5
21a
100
AcDbEntity
  8
profile
 62
7
100
AcDbLine
 10
69.770433
 20
8.170361
 30
0.0
 11
69.296565
 21
8.815585
 31
0.0
  0
LINE
  5
21b
100
AcDbEntity
  8
profile
 62
7
100
AcDbLine
 10
69.296565
 20
8.815585
 30
0.0
 11
68.898191
 21
9.499656
 31
0.0
  0
LINE
  5
21c
100
AcDbEntity
  8
profile
 62
7
100
AcDbLine
 10
68.898191
 20
9.499656
 30
0.0
 11
68.580068
 21
10.218642
 31
0.0
  0
LINE
  5
21d
100
AcDbEntity
  8
profile
 62
7
100
AcDbLine
 10
68.580068
 20
10.218642
 30
0.0
 11
68.346949
 21
10.968608
 31
0.0
  0
LINE
  5
21e
100
AcDbEntity
  8
profile
 62
7
100
AcDbLine
 10
68.346949
 20
10.968608
 30
0.0
 11
68.203590
 21
11.745620
 31
0.0
  0
LINE
  5
21f
100
AcDbEntity
  8
profile
 62
7
100
AcDbLine
 10
68.203590
 20
11.745620
 30
0.0
 11
68.154747
 21
12.545745
 31
0.0
  0
LINE
  5
220
100
AcDbEntity
  8
profile
 62
7
100
AcDbLine
 10
68.154747
 20
12.545745
 30
0.0
 11
68.203590
 21
13.345871
 31
0.0
  0
LINE
  5
221
100
AcDbEntity
  8
profile
 62
7
100
AcDbLine
 10
68.203590
 20
13.345871
 30
0.0
 11
68.346949
 21
14.122883
 31
0.0
  0
LINE
  5
222
100
AcDbEntity
  8
profile
 62
7
100
AcDbLine
 10
68.346949
 20
14.122883
 30
0.0
 11
68.580068
 21
14.872849
 31
0.0
  0
LINE
  5
223
100
AcDbEntity
  8
profile
 62
7
100
AcDbLine
 10
68.580068
 20
14.872849
 30
0.0
 11
68.898191
 21
15.591834
 31
0.0
  0
LINE
  5
224
100
AcDbEntity
  8
profile
 62
7
100
AcDbLine
 10
68.898191
 20
15.591834
 30
0.0
 11
69.296565
 21
16.275906
 31
0.0
  0
LINE
  5
225
100
AcDbEntity
  8
profile
 62
7
100
AcDbLine
 10
69.296565
 20
16.275906
 30
0.0
 11
69.770433
 21
16.921130
 31
0.0
  0
LINE
  5
226
100
AcDbEntity
  8
profile
 62
7
100
AcDbLine
 10
69.770433
 20
16.921130
 30
0.0
 11
70.315040
 21
17.523574
 31
0.0
  0
LINE
  5
227
100
AcDbEntity
  8
profile
 62
7
100
AcDbLine
 10
70.315040
 20
17.523574
 30
0.0
 11
70.925631
 21
18.079303
 31
0.0
  0
LINE
  5
228
100
AcDbEntity
  8
profile
 62
7
100
AcDbLine
 10
70.925631
 20
18.079303
 30
0.0
 11
71.597449
 21
18.584383
 31
0.0
  0
LINE
  5
229
100
AcDbEntity
  8
profile
 62
7
100
AcDbLine
 10
71.597449
 20
18.584383
 30
0.0
 11
72.325742
 21
19.034882
 31
0.0
  0
LINE
  5
22a
100
AcDbEntity
  8
profile
 62
7
100
AcDbLine
 10
72.325742
 20
19.034882
 30
0.0
 11
73.105752
 21
19.426866
 31
0.0
  0
LINE
  5
22b
100
AcDbEntity
  8
profile
 62
7
100
AcDbLine
 10
73.105752
 20
19.426866
 30
0.0
 11
73.932725
 21
19.756400
 31
0.0
  0
LINE
  5
22c
100
AcDbEntity
  8
profile
 62
7
100
AcDbLine
 10
73.932725
 20
19.756400
 30
0.0
 11
74.801904
 21
20.019552
 31
0.0
  0
LINE
  5
22d
100
AcDbEntity
  8
profile
 62
7
100
AcDbLine
 10
74.801904
 20
20.019552
 30
0.0
 11
75.708536
 21
20.212388
 31
0.0
  0
LINE
  5
22e
100
AcDbEntity
  8
profile
 62
7
100
AcDbLine
 10
75.708536
 20
20.212388
 30
0.0
 11
76.647864
 21
20.330974
 31
0.0
  0
LINE
  5
22f
100
AcDbEntity
  8
profile
 62
7
100
AcDbLine
 10
76.647864
 20
20.330974
 30
0.0
 11
77.615134
 21
20.371377
 31
0.0
  0
LINE
  5
230
100
AcDbEntity
  8
profile
 62
7
100
AcDbLine
 10
77.615134
 20
20.371377
 30
0.0
 11
78.582404
 21
20.330974
 31
0.0
  0
LINE
  5
231
100
AcDbEntity
  8
profile
 62
7
100
AcDbLine
 10
78.582404
 20
20.330974
 30
0.0
 11
79.521732
 21
20.212388
 31
0.0
  0
LINE
  5
232
100
AcDbEntity
  8
profile
 62
7
100
AcDbLine
 10
79.521732
 20
20.212388
 30
0.0
 11
80.428364
 21
20.019552
 31
0.0
  0
LINE
  5
233
100
AcDbEntity
  8
profile
 62
7
100
AcDbLine
 10
80.428364
 20
20.019552
 30
0.0
 11
81.297544
 21
19.756400
 31
0.0
  0
LINE
  5
234
100
AcDbEntity
  8
profile
 62
7
100
AcDbLine
 10
81.297544
 20
19.756400
 30
0.0
 11
82.124517
 21
19.426866
 31
0.0
  0
LINE
  5
235
100
AcDbEntity
  8
profile
 62
7
100
AcDbLine
 10
82.124517
 20
19.426866
 30
0.0
 11
82.904526
 21
19.034882
 31
0.0
  0
LINE
  5
236
100
AcDbEntity
  8
profile
 62
7
100
AcDbLine
 10
82.904526
 20
19.034882
 30
0.0
 11
83.632819
 21
18.584383
 31
0.0
  0
LINE
  5
237
100
AcDbEntity
  8
profile
 62
7
100
AcDbLine
 10
83.632819
 20
18.584383
 30
0.0
 11
84.304638
 21
18.079303
 31
0.0
  0
LINE
  5
238
100
AcDbEntity
  8
profile
 62
7
100
AcDbLine
 10
84.304638
 20
18.079303
 30
0.0
 11
84.915229
 21
17.523574
 31
0.0
  0
LINE
  5
239
100
AcDbEntity
  8
profile
 62
7
100
AcDbLine
 10
84.915229
 20
17.523574
 30
0.0
 11
85.459836
 21
16.921130
 31
0.0
  0
LINE
  5
23a
100
AcDbEntity
  8
profile
 62
7
100
AcDbLine
 10
85.459836
 20
16.921130
 30
0.0
 11
85.933704
 21
16.275906
 31
0.0
  0
LINE
  5
23b
100
AcDbEntity
  8
profile
 62
7
100
AcDbLine
 10
85.933704
 20
16.275906
 30
0.0
 11
86.332077
 21
15.591834
 31
0.0
  0
LINE
  5
23c
100
AcDbEntity
  8
profile
 62
7
100
AcDbLine
 10
86.332077
 20
15.591834
 30
0.0
 11
86.650201
 21
14.872849
 31
0.0
  0
LINE
  5
23d
100
AcDbEntity
  8
profile
 62
7
100
AcDbLine
 10
86.650201
 20
14.872849
 30
0.0
 11
86.883319
 21
14.122883
 31
0.0
  0
LINE
  5
23e
100
AcDbEntity
  8
profile
 62
7
100
AcDbLine
 10
86.883319
 20
14.122883
 30
0.0
 11
87.026678
 21
13.345871
 31
0.0
  0
LINE
  5
23f
100
AcDbEntity
  8
profile
 62
7
100
AcDbLine
 10
87.026678
 20
13.345871
 30
0.0
 11
87.075521
 21
12.545745
 31
0.0
  0
LINE
  5
240
100
AcDbEntity
  8
profile
 62
7
100
AcDbLine
 10
105.675598
 20
11.274305
 30
0.0
 11
105.631723
 21
10.555548
 31
0.0
  0
LINE
  5
241
100
AcDbEntity
  8
profile
 62
7
100
AcDbLine
 10
105.631723
 20
10.555548
 30
0.0
 11
105.502943
 21
9.857554
 31
0.0
  0
LINE
  5
242
100
AcDbEntity
  8
profile
 62
7
100
AcDbLine
 10
105.502943
 20
9.857554
 30
0.0
 11
105.293531
 21
9.183857
 31
0.0
  0
LINE
  5
243
100
AcDbEntity
  8
profile
 62
7
100
AcDbLine
 10
105.293531
 20
9.183857
 30
0.0
 11
105.007759
 21
8.537988
 31
0.0
  0
LINE
  5
244
100
AcDbEntity
  8
profile
 62
7
100
AcDbLine
 10
105.007759
 20
8.537988
 30
0.0
 11
104.649898
 21
7.923483
 31
0.0
  0
LINE
  5
245
100
AcDbEntity
  8
profile
 62
7
100
AcDbLine
 10
104.649898
 20
7.923483
 30
0.0
 11
104.224220
 21
7.343875
 31
0.0
  0
LINE
  5
246
100
AcDbEntity
  8
profile
 62
7
100
AcDbLine
 10
104.224220
 20
7.343875
 30
0.0
 11
103.734997
 21
6.802697
 31
0.0
  0
LINE
  5
247
100
AcDbEntity
  8
profile
 62
7
100
AcDbLine
 10
103.734997
 20
6.802697
 30
0.0
 11
103.186500
 21
6.303483
 31
0.0
  0
LINE
  5
248
100
AcDbEntity
  8
profile
 62
7
100
AcDbLine
 10
103.186500
 20
6.303483
 30
0.0
 11
102.583002
 21
5.849766
 31
0.0
  0
LINE
  5
249
100
AcDbEntity
  8
profile
 62
7
100
AcDbLine
 10
102.583002
 20
5.849766
 30
0.0
 11
101.928772
 21
5.445081
 31
0.0
  0
LINE
  5
24a
100
AcDbEntity
  8
profile
 62
7
100
AcDbLine
 10
101.928772
 20
5.445081
 30
0.0
 11
101.228086
 21
5.092960
 31
0.0
  0
LINE
  5
24b
100
AcDbEntity
  8
profile
 62
7
100
AcDbLine
 10
101.228086
 20
5.092960
 30
0.0
 11
100.485212
 21
4.796938
 31
0.0
  0
LINE
  5
24c
100
AcDbEntity
  8
profile
 62
7
100
AcDbLine
 10
100.485212
 20
4.796938
 30
0.0
 11
99.704424
 21
4.560547
 31
0.0
  0
LINE
  5
24d
100
AcDbEntity
  8
profile
 62
7
100
AcDbLine
 10
99.704424
 20
4.560547
 30
0.0
 11
98.889991
 21
4.387321
 31
0.0
  0
LINE
  5
24e
100
AcDbEntity
  8
profile
 62
7
100
AcDbLine
 10
98.889991
 20
4.387321
 30
0.0
 11
98.046188
 21
4.280795
 31
0.0
  0
LINE
  5
24f
100
AcDbEntity
  8
profile
 62
7
100
AcDbLine
 10
98.046188
 20
4.280795
 30
0.0
 11
97.177285
 21
4.244501
 31
0.0
  0
LINE
  5
250
100
AcDbEntity
  8
profile
 62
7
100
AcDbLine
 10
97.177285
 20
4.244501
 30
0.0
 11
96.308381
 21
4.280795
 31
0.0
  0
LINE
  5
251
100
AcDbEntity
  8
profile
 62
7
100
AcDbLine
 10
96.308381
 20
4.280795
 30
0.0
 11
95.464578
 21
4.387321
 31
0.0
  0
LINE
  5
252
100
AcDbEntity
  8
profile
 62
7
100
AcDbLine
 10
95.464578
 20
4.387321
 30
0.0
 11
94.650146
 21
4.560547
 31
0.0
  0
LINE
  5
253
100
AcDbEntity
  8
profile
 62
7
100
AcDbLine
 10
94.650146
 20
4.560547
 30
0.0
 11
93.869358
 21
4.796938
 31
0.0
  0
LINE
  5
254
100
AcDbEntity
  8
profile
 62
7
100
AcDbLine
 10
93.869358
 20
4.796938
 30
0.0
 11
93.126484
 21
5.092960
 31
0.0
  0
LINE
  5
255
100
AcDbEntity
  8
profile
 62
7
100
AcDbLine
 10
93.126484
 20
5.092960
 30
0.0
 11
92.425797
 21
5.445081
 31
0.0
  0
LINE
  5
256
100
AcDbEntity
  8
profile
 62
7
100
AcDbLine
 10
92.425797
 20
5.445081
 30
0.0
 11
91.771568
 21
5.849766
 31
0.0
  0
LINE
  5
257
100
AcDbEntity
  8
profile
 62
7
100
AcDbLine
 10
91.771568
 20
5.849766
 30
0.0
 11
91.168070
 21
6.303483
 31
0.0
  0
LINE
  5
258
100
AcDbEntity
  8
profile
 62
7
100
AcDbLine
 10
91.168070
 20
6.303483
 30
0.0
 11
90.619573
 21
6.802697
 31
0.0
  0
LINE
  5
259
100
AcDbEntity
  8
profile
 62
7
100
AcDbLine
 10
90.619573
 20
6.802697
 30
0.0
 11
90.130349
 21
7.343875
 31
0.0
  0
LINE
  5
25a
100
AcDbEntity
  8
profile
 62
7
100
AcDbLine
 10
90.130349
 20
7.343875
 30
0.0
 11
89.704672
 21
7.923483
 31
0.0
  0
LINE
  5
25b
100
AcDbEntity
  8
profile
 62
7
100
AcDbLine
 10
89.704672
 20
7.923483
 30
0.0
 11
89.346810
 21
8.537988
 31
0.0
  0
LINE
  5
25c
100
AcDbEntity
  8
profile
 62
7
100
AcDbLine
 10
89.346810
 20
8.537988
 30
0.0
 11
89.061038
 21
9.183857
 31
0.0
  0
LINE
  5
25d
100
AcDbEntity
  8
profile
 62
7
100
AcDbLine
 10
89.061038
 20
9.183857
 30
0.0
 11
88.851627
 21
9.857554
 31
0.0
  0
LINE
  5
25e
100
AcDbEntity
  8
profile
 62
7
100
AcDbLine
 10
88.851627
 20
9.857554
 30
0.0
 11
88.722847
 21
10.555548
 31
0.0
  0
LINE
  5
25f
100
AcDbEntity
  8
profile
 62
7
100
AcDbLine
 10
88.722847
 20
10.555548
 30
0.0
 11
88.678971
 21
11.274305
 31
0.0
  0
LINE
  5
260
100
AcDbEntity
  8
profile
 62
7
100
AcDbLine
 10
88.678971
 20
11.274305
 30
0.0
 11
88.722847
 21
11.993062
 31
0.0
  0
LINE
  5
261
100
AcDbEntity
  8
profile
 62
7
100
AcDbLine
 10
88.722847
 20
11.993062
 30
0.0
 11
88.851627
 21
12.691056
 31
0.0
  0
LINE
  5
262
100
AcDbEntity
  8
profile
 62
7
100
AcDbLine
 10
88.851627
 20
12.691056
 30
0.0
 11
89.061038
 21
13.364754
 31
0.0
  0
LINE
  5
263
100
AcDbEntity
  8
profile
 62
7
100
AcDbLine
 10
89.061038
 20
13.364754
 30
0.0
 11
89.346810
 21
14.010622
 31
0.0
  0
LINE
  5
264
100
AcDbEntity
  8
profile
 62
7
100
AcDbLine
 10
89.346810
 20
14.010622
 30
0.0
 11
89.704672
 21
14.625127
 31
0.0
  0
LINE
  5
265
100
AcDbEntity
  8
profile
 62
7
100
AcDbLine
 10
89.704672
 20
14.625127
 30
0.0
 11
90.130349
 21
15.204736
 31
0.0
  0
LINE
  5
266
100
AcDbEntity
  8
profile
 62
7
100
AcDbLine
 10
90.130349
 20
15.204736
 30
0.0
 11
90.619573
 21
15.745914
 31
0.0
  0
LINE
  5
267
100
AcDbEntity
  8
profile
 62
7
100
AcDbLine
 10
90.619573
 20
15.745914
 30
0.0
 11
91.168070
 21
16.245128
 31
0.0
  0
LINE
  5
268
100
AcDbEntity
  8
profile
 62
7
100
AcDbLine
 10
91.168070
 20
16.245128
 30
0.0
 11
91.771568
 21
16.698844
 31
0.0
  0
LINE
  5
269
100
AcDbEntity
  8
profile
 62
7
100
AcDbLine
 10
91.771568
 20
16.698844
 30
0.0
 11
92.425797
 21
17.103529
 31
0.0
  0
LINE
  5
26a
100
AcDbEntity
  8
profile
 62
7
100
AcDbLine
 10
92.425797
 20
17.103529
 30
0.0
 11
93.126484
 21
17.455651
 31
0.0
  0
LINE
  5
26b
100
AcDbEntity
  8
profile
 62
7
100
AcDbLine
 10
93.126484
 20
17.455651
 30
0.0
 11
93.869358
 21
17.751673
 31
0.0
  0
LINE
  5
26c
100
AcDbEntity
  8
profile
 62
7
100
AcDbLine
 10
93.869358
 20
17.751673
 30
0.0
 11
94.650146
 21
17.988064
 31
0.0
  0
LINE
  5
26d
100
AcDbEntity
  8
profile
 62
7
100
AcDbLine
 10
94.650146
 20
17.988064
 30
0.0
 11
95.464578
 21
18.161289
 31
0.0
  0
LINE
  5
26e
100
AcDbEntity
  8
profile
 62
7
100
AcDbLine
 10
95.464578
 20
18.161289
 30
0.0
 11
96.308381
 21
18.267816
 31
0.0
  0
LINE
  5
26f
100
AcDbEntity
  8
profile
 62
7
100
AcDbLine
 10
96.308381
 20
18.267816
 30
0.0
 11
97.177285
 21
18.304110
 31
0.0
  0
LINE
  5
270
100
AcDbEntity
  8
profile
 62
7
100
AcDbLine
 10
97.177285
 20
18.304110
 30
0.0
 11
98.046188
 21
18.267816
 31
0.0
  0
LINE
  5
271
100
AcDbEntity
  8
profile
 62
7
100
AcDbLine
 10
98.046188
 20
18.267816
 30
0.0
 11
98.889991
 21
18.161289
 31
0.0
  0
LINE
  5
272
100
AcDbEntity
  8
profile
 62
7
100
AcDbLine
 10
98.889991
 20
18.161289
 30
0.0
 11
99.704424
 21
17.988064
 31
0.0
  0
LINE
  5
273
100
AcDbEntity
  8
profile
 62
7
100
AcDbLine
 10
99.704424
 20
17.988064
 30
0.0
 11
100.485212
 21
17.751673
 31
0.0
  0
LINE
  5
274
100
AcDbEntity
  8
profile
 62
7
100
AcDbLine
 10
100.485212
 20
17.751673
 30
0.0
 11
101.228086
 21
17.455651
 31
0.0
  0
LINE
  5
275
100
AcDbEntity
  8
profile
 62
7
100
AcDbLine
 10
101.228086
 20
17.455651
 30
0.0
 11
101.928772
 21
17.103529
 31
0.0
  0
LINE
  5
276
100
AcDbEntity
  8
profile
 62
7
100
AcDbLine
 10
101.928772
 20
17.103529
 30
0.0
 11
102.583002
 21
16.698844
 31
0.0
  0
LINE
  5
277
100
AcDbEntity
  8
profile
 62
7
100
AcDbLine
 10
102.583002
 20
16.698844
 30
0.0
 11
103.186500
 21
16.245128
 31
0.0
  0
LINE
  5
278
100
AcDbEntity
  8
profile
 62
7
100
AcDbLine
 10
103.186500
 20
16.245128
 30
0.0
 11
103.734997
 21
15.745914
 31
0.0
  0
LINE
  5
279
100
AcDbEntity
  8
profile
 62
7
100
AcDbLine
 10
103.734997
 20
15.745914
 30
0.0
 11
104.224220
 21
15.204736
 31
0.0
  0
LINE
  5
27a
100
AcDbEntity
  8
profile
 62
7
100
AcDbLine
 10
104.224220
 20
15.204736
 30
0.0
 11
104.649898
 21
14.625127
 31
0.0
  0
LINE
  5
27b
100
AcDbEntity
  8
profile
 62
7
100
AcDbLine
 10
104.649898
 20
14.625127
 30
0.0
 11
105.007759
 21
14.010622
 31
0.0
  0
LINE
  5
27c
100
AcDbEntity
  8
profile
 62
7
100
AcDbLine
 10
105.007759
 20
14.010622
 30
0.0
 11
105.293531
 21
13.364754
 31
0.0
  0
LINE
  5
27d
100
AcDbEntity
  8
profile
 62
7
100
AcDbLine
 10
105.293531
 20
13.364754
 30
0.0
 11
105.502943
 21
12.691056
 31
0.0
  0
LINE
  5
27e
100
AcDbEntity
  8
profile
 62
7
100
AcDbLine
 10
105.502943
 20
12.691056
 30
0.0
 11
105.631723
 21
11.993062
 31
0.0
  0
LINE
  5
27f
100
AcDbEntity
  8
profile
 62
7
100
AcDbLine
 10
105.631723
 20
11.993062
 30
0.0
 11
105.675598
 21
11.274305
 31
0.0
  0
LINE
  5
280
100
AcDbEntity
  8
profile
 62
7
100
AcDbLine
 10
120.305948
 20
9.737566
 30
0.0
 11
120.271179
 21
9.167985
 31
0.0
  0
LINE
  5
281
100
AcDbEntity
  8
profile
 62
7
100
AcDbLine
 10
120.271179
 20
9.167985
 30
0.0
 11
120.169127
 21
8.614858
 31
0.0
  0
LINE
  5
282
100
AcDbEntity
  8
profile
 62
7
100
AcDbLine
 10
120.169127
 20
8.614858
 30
0.0
 11
120.003178
 21
8.080985
 31
0.0
  0
LINE
  5
283
100
AcDbEntity
  8
profile
 62
7
100
AcDbLine
 10
120.003178
 20
8.080985
 30
0.0
 11
119.776717
 21
7.569164
 31
0.0
  0
LINE
  5
284
100
AcDbEntity
  8
profile
 62
7
100
AcDbLine
 10
119.776717
 20
7.569164
 30
0.0
 11
119.493129
 21
7.082198
 31
0.0
  0
LINE
  5
285
100
AcDbEntity
  8
profile
 62
7
100
AcDbLine
 10
119.493129
 20
7.082198
 30
0.0
 11
119.155799
 21
6.622886
 31
0.0
  0
LINE
  5
286
100
AcDbEntity
  8
profile
 62
7
100
AcDbLine
 10
119.155799
 20
6.622886
 30
0.0
 11
118.768113
 21
6.194028
 31
0.0
  0
LINE
  5
287
100
AcDbEntity
  8
profile
 62
7
100
AcDbLine
 10
118.768113
 20
6.194028
 30
0.0
 11
118.333455
 21
5.798424
 31
0.0
  0
LINE
  5
288
100
AcDbEntity
  8
profile
 62
7
100
AcDbLine
 10
118.333455
 20
5.798424
 30
0.0
 11
117.855211
 21
5.438875
 31
0.0
  0
LINE
  5
289
100
AcDbEntity
  8
profile
 62
7
100
AcDbLine
 10
117.855211
 20
5.438875
 30
0.0
 11
117.336765
 21
5.118181
 31
0.0
  0
LINE
  5
28a
100
AcDbEntity
  8
profile
 62
7
100
AcDbLine
 10
117.336765
 20
5.118181
 30
0.0
 11
116.781504
 21
4.839142
 31
0.0
  0
LINE
  5
28b
100
AcDbEntity
  8
profile
 62
7
100
AcDbLine
 10
116.781504
 20
4.839142
 30
0.0
 11
116.192812
 21
4.604558
 31
0.0
  0
LINE
  5
28c
100
AcDbEntity
  8
profile
 62
7
100
AcDbLine
 10
116.192812
 20
4.604558
 30
0.0
 11
115.574074
 21
4.417229
 31
0.0
  0
LINE
  5
28d
100
AcDbEntity
  8
profile
 62
7
100
AcDbLine
 10
115.574074
 20
4.417229
 30
0.0
 11
114.928675
 21
4.279957
 31
0.0
  0
LINE
  5
28e
100
AcDbEntity
  8
profile
 62
7
100
AcDbLine
 10
114.928675
 20
4.279957
 30
0.0
 11
114.260000
 21
4.195539
 31
0.0
  0
LINE
  5
28f
100
AcDbEntity
  8
profile
 62
7
100
AcDbLine
 10
114.260000
 20
4.195539
 30
0.0
 11
113.571436
 21
4.166778
 31
0.0
  0
LINE
  5
290
100
AcDbEntity
  8
profile
 62
7
100
AcDbLine
 10
113.571436
 20
4.166778
 30
0.0
 11
112.882871
 21
4.195539
 31
0.0
  0
LINE
  5
291
100
AcDbEntity
  8
profile
 62
7
100
AcDbLine
 10
112.882871
 20
4.195539
 30
0.0
 11
112.214196
 21
4.279957
 31
0.0
  0
LINE
  5
292
100
AcDbEntity
  8
profile
 62
7
100
AcDbLine
 10
112.214196
 20
4.279957
 30
0.0
 11
111.568797
 21
4.417229
 31
0.0
  0
LINE
  5
293
100
AcDbEntity
  8
profile
 62
7
100
AcDbLine
 10
111.568797
 20
4.417229
 30
0.0
 11
110.950059
 21
4.604558
 31
0.0
  0
LINE
  5
294
100
AcDbEntity
  8
profile
 62
7
100
AcDbLine
 10
110.950059
 20
4.604558
 30
0.0
 11
110.361367
 21
4.839142
 31
0.0
  0
LINE
  5
295
100
AcDbEntity
  8
profile
 62
7
100
AcDbLine
 10
110.361367
 20
4.839142
 30
0.0
 11
109.806106
 21
5.118181
 31
0.0
  0
LINE
  5
296
100
AcDbEntity
  8
profile
 62
7
100
AcDbLine
 10
109.806106
 20
5.118181
 30
0.0
 11
109.287660
 21
5.438875
 31
0.0
  0
LINE
  5
297
100
AcDbEntity
  8
profile
 62
7
100
AcDbLine
 10
109.287660
 20
5.438875
 30
0.0
 11
108.809416
 21
5.798424
 31
0.0
  0
LINE
  5
298
100
AcDbEntity
  8
profile
 62
7
100
AcDbLine
 10
108.809416
 20
5.798424
 30
0.0
 11
108.374758
 21
6.194028
 31
0.0
  0
LINE
  5
299
100
AcDbEntity
  8
profile
 62
7
100
AcDbLine
 10
108.374758
 20
6.194028
 30
0.0
 11
107.987072
 21
6.622886
 31
0.0
  0
LINE
  5
29a
100
AcDbEntity
  8
profile
 62
7
100
AcDbLine
 10
107.987072
 20
6.622886
 30
0.0
 11
107.649742
 21
7.082198
 31
0.0
  0
LINE
  5
29b
100
AcDbEntity
  8
profile
 62
7
100
AcDbLine
 10
107.649742
 20
7.082198
 30
0.0
 11
107.366154
 21
7.569164
 31
0.0
  0
LINE
  5
29c
100
AcDbEntity
  8
profile
 62
7
100
AcDbLine
 10
107.366154
 20
7.569164
 30
0.0
 11
107.139693
 21
8.080985
 31
0.0
  0
LINE
  5
29d
100
AcDbEntity
  8
profile
 62
7
100
AcDbLine
 10
107.139693
 20
8.080985
 30
0.0
 11
106.973744
 21
8.614858
 31
0.0
  0
LINE
  5
29e
100
AcDbEntity
  8
profile
 62
7
100
AcDbLine
 10
106.973744
 20
8.614858
 30
0.0
 11
106.871692
 21
9.167985
 31
0.0
  0
LINE
  5
29f
100
AcDbEntity
  8
profile
 62
7
100
AcDbLine
 10
106.871692
 20
9.167985
 30
0.0
 11
106.836923
 21
9.737566
 31
0.0
  0
LINE
  5
2a0
100
AcDbEntity
  8
profile
 62
7
100
AcDbLine
 10
106.836923
 20
9.737566
 30
0.0
 11
106.871692
 21
10.307147
 31
0.0
  0
LINE
  5
2a1
100
AcDbEntity
  8
profile
 62
7
100
AcDbLine
 10
106.871692
 20
10.307147
 30
0.0
 11
106.973744
 21
10.860274
 31
0.0
  0
LINE
  5
2a2
100
AcDbEntity
  8
profile
 62
7
100
AcDbLine
 10
106.973744
 20
10.860274
 30
0.0
 11
107.139693
 21
11.394149
 31
0.0
  0
LINE
  5
2a3
100
AcDbEntity
  8
profile
 62
7
100
AcDbLine
 10
107.139693
 20
11.394149
 30
0.0
 11
107.366154
 21
11.905968
 31
0.0
  0
LINE
  5
2a4
100
AcDbEntity
  8
profile
 62
7
100
AcDbLine
 10
107.366154
 20
11.905968
 30
0.0
 11
107.649742
 21
12.392935
 31
0.0
  0
LINE
  5
2a5
100
AcDbEntity
  8
profile
 62
7
100
AcDbLine
 10
107.649742
 20
12.392935
 30
0.0
 11
107.987072
 21
12.852247
 31
0.0
  0
LINE
  5
2a6
100
AcDbEntity
  8
profile
 62
7
100
AcDbLine
 10
107.987072
 20
12.852247
 30
0.0
 11
108.374758
 21
13.281105
 31
0.0
  0
LINE
  5
2a7
100
AcDbEntity
  8
profile
 62
7
100
AcDbLine
 10
108.374758
 20
13.281105
 30
0.0
 11
108.809416
 21
13.676709
 31
0.0
  0
LINE
  5
2a8
100
AcDbEntity
  8
profile
 62
7
100
AcDbLine
 10
108.809416
 20
13.676709
 30
0.0
 11
109.287660
 21
14.036258
 31
0.0
  0
LINE
  5
2a9
100
AcDbEntity
  8
profile
 62
7
100
AcDbLine
 10
109.287660
 20
14.036258
 30
0.0
 11
109.806106
 21
14.356952
 31
0.0
  0
LINE
  5
2aa
100
AcDbEntity
  8
profile
 62
7
100
AcDbLine
 10
109.806106
 20
14.356952
 30
0.0
 11
110.361367
 21
14.635991
 31
0.0
  0
LINE
  5
2ab
100
AcDbEntity
  8
profile
 62
7
100
AcDbLine
 10
110.361367
 20
14.635991
 30
0.0
 11
110.950059
 21
14.870575
 31
0.0
  0
LINE
  5
2ac
100
AcDbEntity
  8
profile
 62
7
100
AcDbLine
 10
110.950059
 20
14.870575
 30
0.0
 11
111.568797
 21
15.057904
 31
0.0
  0
LINE
  5
2ad
100
AcDbEntity
  8
profile
 62
7
100
AcDbLine
 10
111.568797
 20
15.057904
 30
0.0
 11
112.214196
 21
15.195176
 31
0.0
  0
LINE
  5
2ae
100
AcDbEntity
  8
profile
 62
7
100
AcDbLine
 10
112.214196
 20
15.195176
 30
0.0
 11
112.882871
 21
15.279594
 31
0.0
  0
LINE
  5
2af
100
AcDbEntity
  8
profile
 62
7
100
AcDbLine
 10
112.882871
 20
15.279594
 30
0.0
 11
113.571436
 21
15.308355
 31
0.0
  0
LINE
  5
2b0
100
AcDbEntity
  8
profile
 62
7
100
AcDbLine
 10
113.571436
 20
15.308355
 30
0.0
 11
114.260000
 21
15.279594
 31
0.0
  0
LINE
  5
2b1
100
AcDbEntity
  8
profile
 62
7
100
AcDbLine
 10
114.260000
 20
15.279594
 30
0.0
 11
114.928675
 21
15.195176
 31
0.0
  0
LINE
  5
2b2
100
AcDbEntity
  8
profile
 62
7
100
AcDbLine
 10
114.928675
 20
15.195176
 30
0.0
 11
115.574074
 21
15.057904
 31
0.0
  0
LINE
  5
2b3
100
AcDbEntity
  8
profile
 62
7
100
AcDbLine
 10
115.574074
 20
15.057904
 30
0.0
 11
116.192812
 21
14.870575
 31
0.0
  0
LINE
  5
2b4
100
AcDbEntity
  8
profile
 62
7
100
AcDbLine
 10
116.192812
 20
14.870575
 30
0.0
 11
116.781504
 21
14.635991
 31
0.0
  0
LINE
  5
2b5
100
AcDbEntity
  8
profile
 62
7
100
AcDbLine
 10
116.781504
 20
14.635991
 30
0.0
 11
117.336765
 21
14.356952
 31
0.0
  0
LINE
  5
2b6
100
AcDbEntity
  8
profile
 62
7
100
AcDbLine
 10
117.336765
 20
14.356952
 30
0.0
 11
117.855211
 21
14.036258
 31
0.0
  0
LINE
  5
2b7
100
AcDbEntity
  8
profile
 62
7
100
AcDbLine
 10
117.855211
 20
14.036258
 30
0.0
 11
118.333455
 21
13.676709
 31
0.0
  0
LINE
  5
2b8
100
AcDbEntity
  8
profile
 62
7
100
AcDbLine
 10
118.333455
 20
13.676709
 30
0.0
 11
118.768113
 21
13.281105
 31
0.0
  0
LINE
  5
2b9
100
AcDbEntity
  8
profile
 62
7
100
AcDbLine
 10
118.768113
 20
13.281105
 30
0.0
 11
119.155799
 21
12.852247
 31
0.0
  0
LINE
  5
2ba
100
AcDbEntity
  8
profile
 62
7
100
AcDbLine
 10
119.155799
 20
12.852247
 30
0.0
 11
119.493129
 21
12.392935
 31
0.0
  0
LINE
  5
2bb
100
AcDbEntity
  8
profile
 62
7
100
AcDbLine
 10
119.493129
 20
12.392935
 30
0.0
 11
119.776717
 21
11.905968
 31
0.0
  0
LINE
  5
2bc
100
AcDbEntity
  8
profile
 62
7
100
AcDbLine
 10
119.776717
 20
11.905968
 30
0.0
 11
120.003178
 21
11.394149
 31
0.0
  0
LINE
  5
2bd
100
AcDbEntity
  8
profile
 62
7
100
AcDbLine
 10
120.003178
 20
11.394149
 30
0.0
 11
120.169127
 21
10.860274
 31
0.0
  0
LINE
  5
2be
100
AcDbEntity
  8
profile
 62
7
100
AcDbLine
 10
120.169127
 20
10.860274
 30
0.0
 11
120.271179
 21
10.307147
 31
0.0
  0
LINE
  5
2bf
100
AcDbEntity
  8
profile
 62
7
100
AcDbLine
 10
120.271179
 20
10.307147
 30
0.0
 11
120.305948
 21
9.737566
 31
0.0
  0
LINE
  5
2c0
100
AcDbEntity
  8
profile
 62
7
100
AcDbLine
 10
132.358194
 20
7.979253
 30
0.0
 11
132.332324
 21
7.555458
 31
0.0
  0
LINE
  5
2c1
100
AcDbEntity
  8
profile
 62
7
100
AcDbLine
 10
132.332324
 20
7.555458
 30
0.0
 11
132.256392
 21
7.143905
 31
0.0
  0
LINE
  5
2c2
100
AcDbEntity
  8
profile
 62
7
100
AcDbLine
 10
132.256392
 20
7.143905
 30
0.0
 11
132.132918
 21
6.746677
 31
0.0
  0
LINE
  5
2c3
100
AcDbEntity
  8
profile
 62
7
100
AcDbLine
 10
132.132918
 20
6.746677
 30
0.0
 11
131.964421
 21
6.365858
 31
0.0
  0
LINE
  5
2c4
100
AcDbEntity
  8
profile
 62
7
100
AcDbLine
 10
131.964421
 20
6.365858
 30
0.0
 11
131.753418
 21
6.003532
 31
0.0
  0
LINE
  5
2c5
100
AcDbEntity
  8
profile
 62
7
100
AcDbLine
 10
131.753418
 20
6.003532
 30
0.0
 11
131.502428
 21
5.661782
 31
0.0
  0
LINE
  5
2c6
100
AcDbEntity
  8
profile
 62
7
100
AcDbLine
 10
131.502428
 20
5.661782
 30
0.0
 11
131.213971
 21
5.342691
 31
0.0
  0
LINE
  5
2c7
100
AcDbEntity
  8
profile
 62
7
100
AcDbLine
 10
131.213971
 20
5.342691
 30
0.0
 11
130.890565
 21
5.048344
 31
0.0
  0
LINE
  5
2c8
100
AcDbEntity
  8
profile
 62
7
100
AcDbLine
 10
130.890565
 20
5.048344
 30
0.0
 11
130.534729
 21
4.780822
 31
0.0
  0
LINE
  5
2c9
100
AcDbEntity
  8
profile
 62
7
100
AcDbLine
 10
130.534729
 20
4.780822
 30
0.0
 11
130.148980
 21
4.542210
 31
0.0
  0
LINE
  5
2ca
100
AcDbEntity
  8
profile
 62
7
100
AcDbLine
 10
130.148980
 20
4.542210
 30
0.0
 11
129.735840
 21
4.334592
 31
0.0
  0
LINE
  5
2cb
100
AcDbEntity
  8
profile
 62
7
100
AcDbLine
 10
129.735840
 20
4.334592
 30
0.0
 11
129.297824
 21
4.160050
 31
0.0
  0
LINE
  5
2cc
100
AcDbEntity
  8
profile
 62
7
100
AcDbLine
 10
129.297824
 20
4.160050
 30
0.0
 11
128.837454
 21
4.020669
 31
0.0
  0
LINE
  5
2cd
100
AcDbEntity
  8
profile
 62
7
100
AcDbLine
 10
128.837454
 20
4.020669
 30
0.0
 11
128.357246
 21
3.918531
 31
0.0
  0
LINE
  5
2ce
100
AcDbEntity
  8
profile
 62
7
100
AcDbLine
 10
128.357246
 20
3.918531
 30
0.0
 11
127.859721
 21
3.855721
 31
0.0
  0
LINE
  5
2cf
100
AcDbEntity
  8
profile
 62
7
100
AcDbLine
 10
127.859721
 20
3.855721
 30
0.0
 11
127.347396
 21
3.834321
 31
0.0
  0
LINE
  5
2d0
100
AcDbEntity
  8
profile
 62
7
100
AcDbLine
 10
127.347396
 20
3.834321
 30
0.0
 11
126.835070
 21
3.855721
 31
0.0
  0
LINE
  5
2d1
100
AcDbEntity
  8
profile
 62
7
100
AcDbLine
 10
126.835070
 20
3.855721
 30
0.0
 11
126.337545
 21
3.918531
 31
0.0
  0
LINE
  5
2d2
100
AcDbEntity
  8
profile
 62
7
100
AcDbLine
 10
126.337545
 20
3.918531
 30
0.0
 11
125.857337
 21
4.020669
 31
0.0
  0
LINE
  5
2d3
100
AcDbEntity
  8
profile
 62
7
100
AcDbLine
 10
125.857337
 20
4.020669
 30
0.0
 11
125.396967
 21
4.160050
 31
0.0
  0
LINE
  5
2d4
100
AcDbEntity
  8
profile
 62
7
100
AcDbLine
 10
125.396967
 20
4.160050
 30
0.0
 11
124.958951
 21
4.334592
 31
0.0
  0
LINE
  5
2d5
100
AcDbEntity
  8
profile
 62
7
100
AcDbLine
 10
124.958951
 20
4.334592
 30
0.0
 11
124.545811
 21
4.542210
 31
0.0
  0
LINE
  5
2d6
100
AcDbEntity
  8
profile
 62
7
100
AcDbLine
 10
124.545811
 20
4.542210
 30
0.0
 11
124.160062
 21
4.780822
 31
0.0
  0
LINE
  5
2d7
100
AcDbEntity
  8
profile
 62
7
100
AcDbLine
 10
124.160062
 20
4.780822
 30
0.0
 11
123.804226
 21
5.048344
 31
0.0
  0
LINE
  5
2d8
100
AcDbEntity
  8
profile
 62
7
100
AcDbLine
 10
123.804226
 20
5.048344
 30
0.0
 11
123.480820
 21
5.342691
 31
0.0
  0
LINE
  5
2d9
100
AcDbEntity
  8
profile
 62
7
100
AcDbLine
 10
123.480820
 20
5.342691
 30
0.0
 11
123.192363
 21
5.661782
 31
0.0
  0
LINE
  5
2da
100
AcDbEntity
  8
profile
 62
7
100
AcDbLine
 10
123.192363
 20
5.661782
 30
0.0
 11
122.941373
 21
6.003532
 31
0.0
  0
LINE
  5
2db
100
AcDbEntity
  8
profile
 62
7
100
AcDbLine
 10
122.941373
 20
6.003532
 30
0.0
 11
122.730370
 21
6.365858
 31
0.0
  0
LINE
  5
2dc
100
AcDbEntity
  8
profile
 62
7
100
AcDbLine
 10
122.730370
 20
6.365858
 30
0.0
 11
122.561873
 21
6.746677
 31
0.0
  0
LINE
  5
2dd
100
AcDbEntity
  8
profile
 62
7
100
AcDbLine
 10
122.561873
 20
6.746677
 30
0.0
 11
122.438399
 21
7.143905
 31
0.0
  0
LINE
  5
2de
100
AcDbEntity
  8
profile
 62
7
100
AcDbLine
 10
122.438399
 20
7.143905
 30
0.0
 11
122.362467
 21
7.555458
 31
0.0
  0
LINE
  5
2df
100
AcDbEntity
  8
profile
 62
7
100
AcDbLine
 10
122.362467
 20
7.555458
 30
0.0
 11
122.336597
 21
7.979253
 31
0.0
  0
LINE
  5
2e0
100
AcDbEntity
  8
profile
 62
7
100
AcDbLine
 10
122.336597
 20
7.979253
 30
0.0
 11
122.362467
 21
8.403048
 31
0.0
  0
LINE
  5
2e1
100
AcDbEntity
  8
profile
 62
7
100
AcDbLine
 10
122.362467
 20
8.403048
 30
0.0
 11
122.438399
 21
8.814602
 31
0.0
  0
LINE
  5
2e2
100
AcDbEntity
  8
profile
 62
7
100
AcDbLine
 10
122.438399
 20
8.814602
 30
0.0
 11
122.561873
 21
9.211829
 31
0.0
  0
LINE
  5
2e3
100
AcDbEntity
  8
profile
 62
7
100
AcDbLine
 10
122.561873
 20
9.211829
 30
0.0
 11
122.730370
 21
9.592648
 31
0.0
  0
LINE
  5
2e4
100
AcDbEntity
  8
profile
 62
7
100
AcDbLine
 10
122.730370
 20
9.592648
 30
0.0
 11
122.941373
 21
9.954974
 31
0.0
  0
LINE
  5
2e5
100
AcDbEntity
  8
profile
 62
7
100
AcDbLine
 10
122.941373
 20
9.954974
 30
0.0
 11
123.192363
 21
10.296724
 31
0.0
  0
LINE
  5
2e6
100
AcDbEntity
  8
profile
 62
7
100
AcDbLine
 10
123.192363
 20
10.296724
 30
0.0
 11
123.480820
 21
10.615815
 31
0.0
  0
LINE
  5
2e7
100
AcDbEntity
  8
profile
 62
7
100
AcDbLine
 10
123.480820
 20
10.615815
 30
0.0
 11
123.804226
 21
10.910163
 31
0.0
  0
LINE
  5
2e8
100
AcDbEntity
  8
profile
 62
7
100
AcDbLine
 10
123.804226
 20
10.910163
 30
0.0
 11
124.160062
 21
11.177685
 31
0.0
  0
LINE
  5
2e9
100
AcDbEntity
  8
profile
 62
7
100
AcDbLine
 10
124.160062
 20
11.177685
 30
0.0
 11
124.545811
 21
11.416296
 31
0.0
  0
LINE
  5
2ea
100
AcDbEntity
  8
profile
 62
7
100
AcDbLine
 10
124.545811
 20
11.416296
 30
0.0
 11
124.958951
 21
11.623915
 31
0.0
  0
LINE
  5
2eb
100
AcDbEntity
  8
profile
 62
7
100
AcDbLine
 10
124.958951
 20
11.623915
 30
0.0
 11
125.396967
 21
11.798456
 31
0.0
  0
LINE
  5
2ec
100
AcDbEntity
  8
profile
 62
7
100
AcDbLine
 10
125.396967
 20
11.798456
 30
0.0
 11
125.857337
 21
11.937838
 31
0.0
  0
LINE
  5
2ed
100
AcDbEntity
  8
profile
 62
7
100
AcDbLine
 10
125.857337
 20
11.937838
 30
0.0
 11
126.337545
 21
12.039975
 31
0.0
  0
LINE
  5
2ee
100
AcDbEntity
  8
profile
 62
7
100
AcDbLine
 10
126.337545
 20
12.039975
 30
0.0
 11
126.835070
 21
12.102786
 31
0.0
  0
LINE
  5
2ef
100
AcDbEntity
  8
profile
 62
7
100
AcDbLine
 10
126.835070
 20
12.102786
 30
0.0
 11
127.347396
 21
12.124186
 31
0.0
  0
LINE
  5
2f0
100
AcDbEntity
  8
profile
 62
7
100
AcDbLine
 10
127.347396
 20
12.124186
 30
0.0
 11
127.859721
 21
12.102786
 31
0.0
  0
LINE
  5
2f1
100
AcDbEntity
  8
profile
 62
7
100
AcDbLine
 10
127.859721
 20
12.102786
 30
0.0
 11
128.357246
 21
12.039975
 31
0.0
  0
LINE
  5
2f2
100
AcDbEntity
  8
profile
 62
7
100
AcDbLine
 10
128.357246
 20
12.039975
 30
0.0
 11
128.837454
 21
11.937838
 31
0.0
  0
LINE
  5
2f3
100
AcDbEntity
  8
profile
 62
7
100
AcDbLine
 10
128.837454
 20
11.937838
 30
0.0
 11
129.297824
 21
11.798456
 31
0.0
  0
LINE
  5
2f4
100
AcDbEntity
  8
profile
 62
7
100
AcDbLine
 10
129.297824
 20
11.798456
 30
0.0
 11
129.735840
 21
11.623915
 31
0.0
  0
LINE
  5
2f5
100
AcDbEntity
  8
profile
 62
7
100
AcDbLine
 10
129.735840
 20
11.623915
 30
0.0
 11
130.148980
 21
11.416296
 31
0.0
  0
LINE
  5
2f6
100
AcDbEntity
  8
profile
 62
7
100
AcDbLine
 10
130.148980
 20
11.416296
 30
0.0
 11
130.534729
 21
11.177685
 31
0.0
  0
LINE
  5
2f7
100
AcDbEntity
  8
profile
 62
7
100
AcDbLine
 10
130.534729
 20
11.177685
 30
0.0
 11
130.890565
 21
10.910163
 31
0.0
  0
LINE
  5
2f8
100
AcDbEntity
  8
profile
 62
7
100
AcDbLine
 10
130.890565
 20
10.910163
 30
0.0
 11
131.213971
 21
10.615815
 31
0.0
  0
LINE
  5
2f9
100
AcDbEntity
  8
profile
 62
7
100
AcDbLine
 10
131.213971
 20
10.615815
 30
0.0
 11
131.502428
 21
10.296724
 31
0.0
  0
LINE
  5
2fa
100
AcDbEntity
  8
profile
 62
7
100
AcDbLine
 10
131.502428
 20
10.296724
 30
0.0
 11
131.753418
 21
9.954974
 31
0.0
  0
LINE
  5
2fb
100
AcDbEntity
  8
profile
 62
7
100
AcDbLine
 10
131.753418
 20
9.954974
 30
0.0
 11
131.964421
 21
9.592648
 31
0.0
  0
LINE
  5
2fc
100
AcDbEntity
  8
profile
 62
7
100
AcDbLine
 10
131.964421
 20
9.592648
 30
0.0
 11
132.132918
 21
9.211829
 31
0.0
  0
LINE
  5
2fd
100
AcDbEntity
  8
profile
 62
7
100
AcDbLine
 10
132.132918
 20
9.211829
 30
0.0
 11
132.256392
 21
8.814602
 31
0.0
  0
LINE
  5
2fe
100
AcDbEntity
  8
profile
 62
7
100
AcDbLine
 10
132.256392
 20
8.814602
 30
0.0
 11
132.332324
 21
8.403048
 31
0.0
  0
LINE
  5
2ff
100
AcDbEntity
  8
profile
 62
7
100
AcDbLine
 10
132.332324
 20
8.403048
 30
0.0
 11
132.358194
 21
7.979253
 31
0.0
  0
LINE
  5
300
100
AcDbEntity
  8
profile
 62
7
100
AcDbLine
 10
66.335849
 20
12.737663
 30
0.0
 11
66.313065
 21
12.437664
 31
0.0
  0
LINE
  5
301
100
AcDbEntity
  8
profile
 62
7
100
AcDbLine
 10
66.313065
 20
12.437664
 30
0.0
 11
66.246159
 21
12.146300
 31
0.0
  0
LINE
  5
302
100
AcDbEntity
  8
profile
 62
7
100
AcDbLine
 10
66.246159
 20
12.146300
 30
0.0
 11
66.137363
 21
11.865097
 31
0.0
  0
LINE
  5
303
100
AcDbEntity
  8
profile
 62
7
100
AcDbLine
 10
66.137363
 20
11.865097
 30
0.0
 11
65.988895
 21
11.595501
 31
0.0
  0
LINE
  5
304
100
AcDbEntity
  8
profile
 62
7
100
AcDbLine
 10
65.988895
 20
11.595501
 30
0.0
 11
65.802977
 21
11.339038
 31
0.0
  0
LINE
  5
305
100
AcDbEntity
  8
profile
 62
7
100
AcDbLine
 10
65.802977
 20
11.339038
 30
0.0
 11
65.581822
 21
11.097103
 31
0.0
  0
LINE
  5
306
100
AcDbEntity
  8
profile
 62
7
100
AcDbLine
 10
65.581822
 20
11.097103
 30
0.0
 11
65.327657
 21
10.871195
 31
0.0
  0
LINE
  5
307
100
AcDbEntity
  8
profile
 62
7
100
AcDbLine
 10
65.327657
 20
10.871195
 30
0.0
 11
65.042695
 21
10.662839
 31
0.0
  0
LINE
  5
308
100
AcDbEntity
  8
profile
 62
7
100
AcDbLine
 10
65.042695
 20
10.662839
 30
0.0
 11
64.729159
 21
10.473456
 31
0.0
  0
LINE
  5
309
100
AcDbEntity
  8
profile
 62
7
100
AcDbLine
 10
64.729159
 20
10.473456
 30
0.0
 11
64.389264
 21
10.304521
 31
0.0
  0
LINE
  5
30a
100
AcDbEntity
  8
profile
 62
7
100
AcDbLine
 10
64.389264
 20
10.304521
 30
0.0
 11
64.025237
 21
10.157557
 31
0.0
  0
LINE
  5
30b
100
AcDbEntity
  8
profile
 62
7
100
AcDbLine
 10
64.025237
 20
10.157557
 30
0.0
 11
63.639289
 21
10.033986
 31
0.0
  0
LINE
  5
30c
100
AcDbEntity
  8
profile
 62
7
100
AcDbLine
 10
63.639289
 20
10.033986
 30
0.0
 11
63.233646
 21
9.935332
 31
0.0
  0
LINE
  5
30d
100
AcDbEntity
  8
profile
 62
7
100
AcDbLine
 10
63.233646
 20
9.935332
 30
0.0
 11
62.810522
 21
9.863018
 31
0.0
  0
LINE
  5
30e
100
AcDbEntity
  8
profile
 62
7
100
AcDbLine
 10
62.810522
 20
9.863018
 30
0.0
 11
62.372139
 21
9.818543
 31
0.0
  0
LINE
  5
30f
100
AcDbEntity
  8
profile
 62
7
100
AcDbLine
 10
62.372139
 20
9.818543
 30
0.0
 11
61.920717
 21
9.803303
 31
0.0
  0
LINE
  5
310
100
AcDbEntity
  8
profile
 62
7
100
AcDbLine
 10
61.920717
 20
9.803303
 30
0.0
 11
61.469293
 21
9.818543
 31
0.0
  0
LINE
  5
311
100
AcDbEntity
  8
profile
 62
7
100
AcDbLine
 10
61.469293
 20
9.818543
 30
0.0
 11
61.030909
 21
9.863018
 31
0.0
  0
LINE
  5
312
100
AcDbEntity
  8
profile
 62
7
100
AcDbLine
 10
61.030909
 20
9.863018
 30
0.0
 11
60.607788
 21
9.935332
 31
0.0
  0
LINE
  5
313
100
AcDbEntity
  8
profile
 62
7
100
AcDbLine
 10
60.607788
 20
9.935332
 30
0.0
 11
60.202143
 21
10.033986
 31
0.0
  0
LINE
  5
314
100
AcDbEntity
  8
profile
 62
7
100
AcDbLine
 10
60.202143
 20
10.033986
 30
0.0
 11
59.816197
 21
10.157557
 31
0.0
  0
LINE
  5
315
100
AcDbEntity
  8
profile
 62
7
100
AcDbLine
 10
59.816197
 20
10.157557
 30
0.0
 11
59.452167
 21
10.304521
 31
0.0
  0
LINE
  5
316
100
AcDbEntity
  8
profile
 62
7
100
AcDbLine
 10
59.452167
 20
10.304521
 30
0.0
 11
59.112275
 21
10.473456
 31
0.0
  0
LINE
  5
317
100
AcDbEntity
  8
profile
 62
7
100
AcDbLine
 10
59.112275
 20
10.473456
 30
0.0
 11
58.798740
 21
10.662839
 31
0.0
  0
LINE
  5
318
100
AcDbEntity
  8
profile
 62
7
100
AcDbLine
 10
58.798740
 20
10.662839
 30
0.0
 11
58.513777
 21
10.871195
 31
0.0
  0
LINE
  5
319
100
AcDbEntity
  8
profile
 62
7
100
AcDbLine
 10
58.513777
 20
10.871195
 30
0.0
 11
58.259609
 21
11.097103
 31
0.0
  0
LINE
  5
31a
100
AcDbEntity
  8
profile
 62
7
100
AcDbLine
 10
58.259609
 20
11.097103
 30
0.0
 11
58.038457
 21
11.339038
 31
0.0
  0
LINE
  5
31b
100
AcDbEntity
  8
profile
 62
7
100
AcDbLine
 10
58.038457
 20
11.339038
 30
0.0
 11
57.852536
 21
11.595501
 31
0.0
  0
LINE
  5
31c
100
AcDbEntity
  8
profile
 62
7
100
AcDbLine
 10
57.852536
 20
11.595501
 30
0.0
 11
57.704068
 21
11.865097
 31
0.0
  0
LINE
  5
31d
100
AcDbEntity
  8
profile
 62
7
100
AcDbLine
 10
57.704068
 20
11.865097
 30
0.0
 11
57.595272
 21
12.146300
 31
0.0
  0
LINE
  5
31e
100
AcDbEntity
  8
profile
 62
7
100
AcDbLine
 10
57.595272
 20
12.146300
 30
0.0
 11
57.528366
 21
12.437664
 31
0.0
  0
LINE
  5
31f
100
AcDbEntity
  8
profile
 62
7
100
AcDbLine
 10
57.528366
 20
12.437664
 30
0.0
 11
57.505582
 21
12.737663
 31
0.0
  0
LINE
  5
320
100
AcDbEntity
  8
profile
 62
7
100
AcDbLine
 10
57.505582
 20
12.737663
 30
0.0
 11
57.528366
 21
13.037663
 31
0.0
  0
LINE
  5
321
100
AcDbEntity
  8
profile
 62
7
100
AcDbLine
 10
57.528366
 20
13.037663
 30
0.0
 11
57.595272
 21
13.329026
 31
0.0
  0
LINE
  5
322
100
AcDbEntity
  8
profile
 62
7
100
AcDbLine
 10
57.595272
 20
13.329026
 30
0.0
 11
57.704068
 21
13.610229
 31
0.0
  0
LINE
  5
323
100
AcDbEntity
  8
profile
 62
7
100
AcDbLine
 10
57.704068
 20
13.610229
 30
0.0
 11
57.852536
 21
13.879825
 31
0.0
  0
LINE
  5
324
100
AcDbEntity
  8
profile
 62
7
100
AcDbLine
 10
57.852536
 20
13.879825
 30
0.0
 11
58.038457
 21
14.136314
 31
0.0
  0
LINE
  5
325
100
AcDbEntity
  8
profile
 62
7
100
AcDbLine
 10
58.038457
 20
14.136314
 30
0.0
 11
58.259609
 21
14.378249
 31
0.0
  0
LINE
  5
326
100
AcDbEntity
  8
profile
 62
7
100
AcDbLine
 10
58.259609
 20
14.378249
 30
0.0
 11
58.513777
 21
14.604131
 31
0.0
  0
LINE
  5
327
100
AcDbEntity
  8
profile
 62
7
100
AcDbLine
 10
58.513777
 20
14.604131
 30
0.0
 11
58.798740
 21
14.812513
 31
0.0
  0
LINE
  5
328
100
AcDbEntity
  8
profile
 62
7
100
AcDbLine
 10
58.798740
 20
14.812513
 30
0.0
 11
59.112275
 21
15.001895
 31
0.0
  0
LINE
  5
329
100
AcDbEntity
  8
profile
 62
7
100
AcDbLine
 10
59.112275
 20
15.001895
 30
0.0
 11
59.452167
 21
15.170805
 31
0.0
  0
LINE
  5
32a
100
AcDbEntity
  8
profile
 62
7
100
AcDbLine
 10
59.452167
 20
15.170805
 30
0.0
 11
59.816197
 21
15.317770
 31
0.0
  0
LINE
  5
32b
100
AcDbEntity
  8
profile
 62
7
100
AcDbLine
 10
59.816197
 20
15.317770
 30
0.0
 11
60.202143
 21
15.441341
 31
0.0
  0
LINE
  5
32c
100
AcDbEntity
  8
profile
 62
7
100
AcDbLine
 10
60.202143
 20
15.441341
 30
0.0
 11
60.607788
 21
15.540020
 31
0.0
  0
LINE
  5
32d
100
AcDbEntity
  8
profile
 62
7
100
AcDbLine
 10
60.607788
 20
15.540020
 30
0.0
 11
61.030909
 21
15.612334
 31
0.0
  0
LINE
  5
32e
100
AcDbEntity
  8
profile
 62
7
100
AcDbLine
 10
61.030909
 20
15.612334
 30
0.0
 11
61.469293
 21
15.656784
 31
0.0
  0
LINE
  5
32f
100
AcDbEntity
  8
profile
 62
7
100
AcDbLine
 10
61.469293
 20
15.656784
 30
0.0
 11
61.920717
 21
15.672024
 31
0.0
  0
LINE
  5
330
100
AcDbEntity
  8
profile
 62
7
100
AcDbLine
 10
61.920717
 20
15.672024
 30
0.0
 11
62.372139
 21
15.656784
 31
0.0
  0
LINE
  5
331
100
AcDbEntity
  8
profile
 62
7
100
AcDbLine
 10
62.372139
 20
15.656784
 30
0.0
 11
62.810522
 21
15.612334
 31
0.0
  0
LINE
  5
332
100
AcDbEntity
  8
profile
 62
7
100
AcDbLine
 10
62.810522
 20
15.612334
 30
0.0
 11
63.233646
 21
15.540020
 31
0.0
  0
LINE
  5
333
100
AcDbEntity
  8
profile
 62
7
100
AcDbLine
 10
63.233646
 20
15.540020
 30
0.0
 11
63.639289
 21
15.441341
 31
0.0
  0
LINE
  5
334
100
AcDbEntity
  8
profile
 62
7
100
AcDbLine
 10
63.639289
 20
15.441341
 30
0.0
 11
64.025237
 21
15.317770
 31
0.0
  0
LINE
  5
335
100
AcDbEntity
  8
profile
 62
7
100
AcDbLine
 10
64.025237
 20
15.317770
 30
0.0
 11
64.389264
 21
15.170805
 31
0.0
  0
LINE
  5
336
100
AcDbEntity
  8
profile
 62
7
100
AcDbLine
 10
64.389264
 20
15.170805
 30
0.0
 11
64.729159
 21
15.001895
 31
0.0
  0
LINE
  5
337
100
AcDbEntity
  8
profile
 62
7
100
AcDbLine
 10
64.729159
 20
15.001895
 30
0.0
 11
65.042695
 21
14.812513
 31
0.0
  0
LINE
  5
338
100
AcDbEntity
  8
profile
 62
7
100
AcDbLine
 10
65.042695
 20
14.812513
 30
0.0
 11
65.327657
 21
14.604131
 31
0.0
  0
LINE
  5
339
100
AcDbEntity
  8
profile
 62
7
100
AcDbLine
 10
65.327657
 20
14.604131
 30
0.0
 11
65.581822
 21
14.378249
 31
0.0
  0
LINE
  5
33a
100
AcDbEntity
  8
profile
 62
7
100
AcDbLine
 10
65.581822
 20
14.378249
 30
0.0
 11
65.802977
 21
14.136314
 31
0.0
  0
LINE
  5
33b
100
AcDbEntity
  8
profile
 62
7
100
AcDbLine
 10
65.802977
 20
14.136314
 30
0.0
 11
65.988895
 21
13.879825
 31
0.0
  0
LINE
  5
33c
100
AcDbEntity
  8
profile
 62
7
100
AcDbLine
 10
65.988895
 20
13.879825
 30
0.0
 11
66.137363
 21
13.610229
 31
0.0
  0
LINE
  5
33d
100
AcDbEntity
  8
profile
 62
7
100
AcDbLine
 10
66.137363
 20
13.610229
 30
0.0
 11
66.246159
 21
13.329026
 31
0.0
  0
LINE
  5
33e
100
AcDbEntity
  8
profile
 62
7
100
AcDbLine
 10
66.246159
 20
13.329026
 30
0.0
 11
66.313065
 21
13.037663
 31
0.0
  0
LINE
  5
33f
100
AcDbEntity
  8
profile
 62
7
100
AcDbLine
 10
66.313065
 20
13.037663
 30
0.0
 11
66.335849
 21
12.737663
 31
0.0
  0
ENDSEC
  0
SECTION
  2
OBJECTS
  0
DICTIONARY
  5
C
330
0
100
AcDbDictionary
  3
ACAD_GROUP
350
D
  3
ACAD_MLINESTYLE
350
17
  0
DICTIONARY
  5
D
330
C
100
AcDbDictionary
  0
DICTIONARY
  5
1A
330
C
100
AcDbDictionary
  0
DICTIONARY
  5
17
330
C
100
AcDbDictionary
  3
STANDARD
350
18
  0
DICTIONARY
  5
19
330
C
100
AcDbDictionary
  0
ENDSEC
  0
EOF
