solid OpenSCAD_Model
  facet normal -0.999652 -0.026397 0.000000
    outer loop
      vertex 91.808640 -52.281840 -6.400000
      vertex 91.808640 -52.281840 -26.400000
      vertex 91.816416 -52.576320 -6.400000
    endloop
  endfacet
  facet normal -0.999652 -0.026397 0.000000
    outer loop
      vertex 91.816416 -52.576320 -6.400000
      vertex 91.808640 -52.281840 -26.400000
      vertex 91.816416 -52.576320 -26.400000
    endloop
  endfacet
  facet normal -0.999652 0.026397 0.000000
    outer loop
      vertex 91.808640 -52.281840 -6.400000
      vertex 91.816416 -51.987360 -6.400000
      vertex 91.808640 -52.281840 -26.400000
    endloop
  endfacet
  facet normal -0.999652 0.026397 0.000000
    outer loop
      vertex 91.808640 -52.281840 -26.400000
      vertex 91.816416 -51.987360 -6.400000
      vertex 91.816416 -51.987360 -26.400000
    endloop
  endfacet
  facet normal 0.000000 0.000000 1.000000
    outer loop
      vertex 91.816416 -52.576320 -6.400000
      vertex 91.872000 -52.752960 -6.400000
      vertex 92.022912 -52.882560 -6.400000
    endloop
  endfacet
  facet normal 0.000000 0.000000 1.000000
    outer loop
      vertex 92.800800 -53.282880 -6.400000
      vertex 91.816416 -52.576320 -6.400000
      vertex 92.316672 -53.035440 -6.400000
    endloop
  endfacet
  facet normal 0.000000 0.000000 1.000000
    outer loop
      vertex 92.316672 -53.035440 -6.400000
      vertex 91.816416 -52.576320 -6.400000
      vertex 92.022912 -52.882560 -6.400000
    endloop
  endfacet
  facet normal 0.000000 0.000000 1.000000
    outer loop
      vertex 93.523104 -53.694960 -6.400000
      vertex 91.816416 -52.576320 -6.400000
      vertex 92.800800 -53.282880 -6.400000
    endloop
  endfacet
  facet normal 0.000000 0.000000 1.000000
    outer loop
      vertex 94.531104 -54.342960 -6.400000
      vertex 91.816416 -52.576320 -6.400000
      vertex 93.523104 -53.694960 -6.400000
    endloop
  endfacet
  facet normal 0.000000 0.000000 1.000000
    outer loop
      vertex 98.651389 -55.230144 -6.400000
      vertex 91.816416 -52.576320 -6.400000
      vertex 94.531104 -54.342960 -6.400000
    endloop
  endfacet
  facet normal -0.000000 0.000000 1.000000
    outer loop
      vertex 98.651389 -55.230144 -6.400000
      vertex 94.531104 -54.342960 -6.400000
      vertex 95.872608 -55.297200 -6.400000
    endloop
  endfacet
  facet normal -0.000000 -0.000000 1.000000
    outer loop
      vertex 95.643966 -53.559885 -6.400000
      vertex 91.816416 -52.576320 -6.400000
      vertex 98.651389 -55.230144 -6.400000
    endloop
  endfacet
  facet normal -0.000000 0.000000 1.000000
    outer loop
      vertex 94.530816 -50.220720 -6.400000
      vertex 91.816416 -52.576320 -6.400000
      vertex 95.872608 -49.266720 -6.400000
    endloop
  endfacet
  facet normal 0.000000 -0.000000 1.000000
    outer loop
      vertex 93.522816 -50.868480 -6.400000
      vertex 91.816416 -52.576320 -6.400000
      vertex 94.530816 -50.220720 -6.400000
    endloop
  endfacet
  facet normal 0.000000 -0.000000 1.000000
    outer loop
      vertex 92.800224 -51.280800 -6.400000
      vertex 91.816416 -52.576320 -6.400000
      vertex 93.522816 -50.868480 -6.400000
    endloop
  endfacet
  facet normal 0.000000 -0.000000 1.000000
    outer loop
      vertex 92.316096 -51.528000 -6.400000
      vertex 91.816416 -52.576320 -6.400000
      vertex 92.800224 -51.280800 -6.400000
    endloop
  endfacet
  facet normal 0.000000 -0.000000 1.000000
    outer loop
      vertex 92.022624 -51.681120 -6.400000
      vertex 91.816416 -52.576320 -6.400000
      vertex 92.316096 -51.528000 -6.400000
    endloop
  endfacet
  facet normal 0.000000 -0.000000 1.000000
    outer loop
      vertex 91.872000 -51.810720 -6.400000
      vertex 91.816416 -52.576320 -6.400000
      vertex 92.022624 -51.681120 -6.400000
    endloop
  endfacet
  facet normal 0.000000 -0.000000 1.000000
    outer loop
      vertex 91.816416 -51.987360 -6.400000
      vertex 91.816416 -52.576320 -6.400000
      vertex 91.872000 -51.810720 -6.400000
    endloop
  endfacet
  facet normal 0.000000 0.000000 1.000000
    outer loop
      vertex 91.808640 -52.281840 -6.400000
      vertex 91.816416 -52.576320 -6.400000
      vertex 91.816416 -51.987360 -6.400000
    endloop
  endfacet
  facet normal 0.000000 0.000000 1.000000
    outer loop
      vertex 95.643966 -50.440115 -6.400000
      vertex 96.997584 -50.749070 -6.400000
      vertex 98.651389 -49.349172 -6.400000
    endloop
  endfacet
  facet normal 0.000000 -0.000000 1.000000
    outer loop
      vertex 95.872608 -49.266720 -6.400000
      vertex 95.643966 -50.440115 -6.400000
      vertex 98.651389 -49.349172 -6.400000
    endloop
  endfacet
  facet normal 0.000000 -0.000000 1.000000
    outer loop
      vertex 95.872608 -49.266720 -6.400000
      vertex 91.816416 -52.576320 -6.400000
      vertex 95.643966 -50.440115 -6.400000
    endloop
  endfacet
  facet normal 0.000000 -0.000000 1.000000
    outer loop
      vertex 96.997584 -53.250930 -6.400000
      vertex 95.643966 -53.559885 -6.400000
      vertex 98.651389 -55.230144 -6.400000
    endloop
  endfacet
  facet normal 0.000000 0.000000 1.000000
    outer loop
      vertex 98.651389 -49.349172 -6.400000
      vertex 97.600000 -52.000000 -6.400000
      vertex 98.651389 -55.230144 -6.400000
    endloop
  endfacet
  facet normal -0.000000 0.000000 1.000000
    outer loop
      vertex 98.651389 -49.349172 -6.400000
      vertex 96.997584 -50.749070 -6.400000
      vertex 97.600000 -52.000000 -6.400000
    endloop
  endfacet
  facet normal -0.000000 -0.000000 1.000000
    outer loop
      vertex 94.558450 -52.694214 -6.400000
      vertex 91.816416 -52.576320 -6.400000
      vertex 95.643966 -53.559885 -6.400000
    endloop
  endfacet
  facet normal 0.000000 0.000000 1.000000
    outer loop
      vertex 94.558450 -51.305786 -6.400000
      vertex 91.816416 -52.576320 -6.400000
      vertex 94.558450 -52.694214 -6.400000
    endloop
  endfacet
  facet normal 0.000000 -0.000000 1.000000
    outer loop
      vertex 97.600000 -52.000000 -6.400000
      vertex 96.997584 -53.250930 -6.400000
      vertex 98.651389 -55.230144 -6.400000
    endloop
  endfacet
  facet normal -0.000000 0.000000 1.000000
    outer loop
      vertex 94.558450 -51.305786 -6.400000
      vertex 95.643966 -50.440115 -6.400000
      vertex 91.816416 -52.576320 -6.400000
    endloop
  endfacet
  facet normal -0.953888 -0.300164 0.000000
    outer loop
      vertex 91.816416 -52.576320 -6.400000
      vertex 91.816416 -52.576320 -26.400000
      vertex 91.872000 -52.752960 -6.400000
    endloop
  endfacet
  facet normal -0.953888 -0.300164 0.000000
    outer loop
      vertex 91.872000 -52.752960 -6.400000
      vertex 91.816416 -52.576320 -26.400000
      vertex 91.872000 -52.752960 -26.400000
    endloop
  endfacet
  facet normal -0.000000 0.000000 -1.000000
    outer loop
      vertex 91.872000 -51.810720 -26.400000
      vertex 92.022624 -51.681120 -26.400000
      vertex 91.816416 -51.987360 -26.400000
    endloop
  endfacet
  facet normal 0.000000 0.000000 -1.000000
    outer loop
      vertex 91.816416 -51.987360 -26.400000
      vertex 92.022624 -51.681120 -26.400000
      vertex 92.316096 -51.528000 -26.400000
    endloop
  endfacet
  facet normal 0.000000 0.000000 -1.000000
    outer loop
      vertex 91.816416 -51.987360 -26.400000
      vertex 92.316096 -51.528000 -26.400000
      vertex 92.800224 -51.280800 -26.400000
    endloop
  endfacet
  facet normal 0.000000 0.000000 -1.000000
    outer loop
      vertex 91.816416 -51.987360 -26.400000
      vertex 92.800224 -51.280800 -26.400000
      vertex 93.522816 -50.868480 -26.400000
    endloop
  endfacet
  facet normal -0.000000 0.000000 -1.000000
    outer loop
      vertex 93.522816 -50.868480 -26.400000
      vertex 94.530816 -50.220720 -26.400000
      vertex 91.816416 -51.987360 -26.400000
    endloop
  endfacet
  facet normal 0.000000 0.000000 -1.000000
    outer loop
      vertex 94.530816 -50.220720 -26.400000
      vertex 95.872608 -49.266720 -26.400000
      vertex 105.600000 -49.555351 -26.400000
    endloop
  endfacet
  facet normal 0.000000 -0.000000 -1.000000
    outer loop
      vertex 97.600000 -52.000000 -26.400000
      vertex 105.600000 -49.555351 -26.400000
      vertex 105.600000 -55.062462 -26.400000
    endloop
  endfacet
  facet normal 0.000000 0.000000 -1.000000
    outer loop
      vertex 95.643966 -53.559885 -26.400000
      vertex 105.600000 -55.062462 -26.400000
      vertex 95.872608 -55.297200 -26.400000
    endloop
  endfacet
  facet normal -0.000000 -0.000000 -1.000000
    outer loop
      vertex 91.816416 -51.987360 -26.400000
      vertex 95.872608 -55.297200 -26.400000
      vertex 94.531104 -54.342960 -26.400000
    endloop
  endfacet
  facet normal -0.000000 -0.000000 -1.000000
    outer loop
      vertex 91.816416 -51.987360 -26.400000
      vertex 94.531104 -54.342960 -26.400000
      vertex 93.523104 -53.694960 -26.400000
    endloop
  endfacet
  facet normal -0.000000 -0.000000 -1.000000
    outer loop
      vertex 93.523104 -53.694960 -26.400000
      vertex 92.800800 -53.282880 -26.400000
      vertex 91.816416 -51.987360 -26.400000
    endloop
  endfacet
  facet normal -0.000000 -0.000000 -1.000000
    outer loop
      vertex 92.800800 -53.282880 -26.400000
      vertex 92.316672 -53.035440 -26.400000
      vertex 91.816416 -51.987360 -26.400000
    endloop
  endfacet
  facet normal -0.000000 -0.000000 -1.000000
    outer loop
      vertex 91.816416 -51.987360 -26.400000
      vertex 92.316672 -53.035440 -26.400000
      vertex 92.022912 -52.882560 -26.400000
    endloop
  endfacet
  facet normal -0.000000 -0.000000 -1.000000
    outer loop
      vertex 91.816416 -51.987360 -26.400000
      vertex 92.022912 -52.882560 -26.400000
      vertex 91.872000 -52.752960 -26.400000
    endloop
  endfacet
  facet normal 0.000000 0.000000 -1.000000
    outer loop
      vertex 91.816416 -51.987360 -26.400000
      vertex 91.872000 -52.752960 -26.400000
      vertex 91.816416 -52.576320 -26.400000
    endloop
  endfacet
  facet normal 0.000000 0.000000 -1.000000
    outer loop
      vertex 91.816416 -51.987360 -26.400000
      vertex 91.816416 -52.576320 -26.400000
      vertex 91.808640 -52.281840 -26.400000
    endloop
  endfacet
  facet normal -0.000000 -0.000000 -1.000000
    outer loop
      vertex 91.816416 -51.987360 -26.400000
      vertex 92.952786 -52.470228 -26.400000
      vertex 95.872608 -55.297200 -26.400000
    endloop
  endfacet
  facet normal 0.000000 0.000000 -1.000000
    outer loop
      vertex 92.952786 -52.470228 -26.400000
      vertex 93.847214 -52.760846 -26.400000
      vertex 95.872608 -55.297200 -26.400000
    endloop
  endfacet
  facet normal 0.000000 -0.000000 -1.000000
    outer loop
      vertex 94.400000 -52.000000 -26.400000
      vertex 94.558450 -52.694214 -26.400000
      vertex 93.847214 -52.760846 -26.400000
    endloop
  endfacet
  facet normal 0.000000 0.000000 -1.000000
    outer loop
      vertex 94.558450 -51.305786 -26.400000
      vertex 93.847214 -51.239154 -26.400000
      vertex 94.530816 -50.220720 -26.400000
    endloop
  endfacet
  facet normal 0.000000 0.000000 -1.000000
    outer loop
      vertex 94.530816 -50.220720 -26.400000
      vertex 93.847214 -51.239154 -26.400000
      vertex 92.952786 -51.529772 -26.400000
    endloop
  endfacet
  facet normal 0.000000 0.000000 -1.000000
    outer loop
      vertex 94.530816 -50.220720 -26.400000
      vertex 92.952786 -51.529772 -26.400000
      vertex 91.816416 -51.987360 -26.400000
    endloop
  endfacet
  facet normal -0.000000 -0.000000 -1.000000
    outer loop
      vertex 97.600000 -52.000000 -26.400000
      vertex 105.600000 -55.062462 -26.400000
      vertex 96.997584 -53.250930 -26.400000
    endloop
  endfacet
  facet normal 0.000000 0.000000 -1.000000
    outer loop
      vertex 93.847214 -52.760846 -26.400000
      vertex 95.643966 -53.559885 -26.400000
      vertex 95.872608 -55.297200 -26.400000
    endloop
  endfacet
  facet normal -0.000000 0.000000 -1.000000
    outer loop
      vertex 96.997584 -50.749070 -26.400000
      vertex 105.600000 -49.555351 -26.400000
      vertex 97.600000 -52.000000 -26.400000
    endloop
  endfacet
  facet normal 0.000000 0.000000 -1.000000
    outer loop
      vertex 96.997584 -53.250930 -26.400000
      vertex 105.600000 -55.062462 -26.400000
      vertex 95.643966 -53.559885 -26.400000
    endloop
  endfacet
  facet normal -0.000000 0.000000 -1.000000
    outer loop
      vertex 95.643966 -50.440115 -26.400000
      vertex 105.600000 -49.555351 -26.400000
      vertex 96.997584 -50.749070 -26.400000
    endloop
  endfacet
  facet normal -0.000000 0.000000 -1.000000
    outer loop
      vertex 94.530816 -50.220720 -26.400000
      vertex 105.600000 -49.555351 -26.400000
      vertex 95.643966 -50.440115 -26.400000
    endloop
  endfacet
  facet normal 0.000000 -0.000000 -1.000000
    outer loop
      vertex 94.558450 -51.305786 -26.400000
      vertex 94.530816 -50.220720 -26.400000
      vertex 95.643966 -50.440115 -26.400000
    endloop
  endfacet
  facet normal 0.000000 0.000000 -1.000000
    outer loop
      vertex 92.952786 -52.470228 -26.400000
      vertex 91.816416 -51.987360 -26.400000
      vertex 92.952786 -51.529772 -26.400000
    endloop
  endfacet
  facet normal 0.000000 -0.000000 -1.000000
    outer loop
      vertex 94.558450 -52.694214 -26.400000
      vertex 94.400000 -52.000000 -26.400000
      vertex 94.558450 -51.305786 -26.400000
    endloop
  endfacet
  facet normal 0.000000 0.000000 -1.000000
    outer loop
      vertex 95.643966 -53.559885 -26.400000
      vertex 93.847214 -52.760846 -26.400000
      vertex 94.558450 -52.694214 -26.400000
    endloop
  endfacet
  facet normal 0.000000 0.000000 -1.000000
    outer loop
      vertex 93.847214 -51.239154 -26.400000
      vertex 94.558450 -51.305786 -26.400000
      vertex 94.400000 -52.000000 -26.400000
    endloop
  endfacet
  facet normal -0.953888 0.300164 0.000000
    outer loop
      vertex 91.816416 -51.987360 -6.400000
      vertex 91.872000 -51.810720 -6.400000
      vertex 91.816416 -51.987360 -26.400000
    endloop
  endfacet
  facet normal -0.953888 0.300164 0.000000
    outer loop
      vertex 91.816416 -51.987360 -26.400000
      vertex 91.872000 -51.810720 -6.400000
      vertex 91.872000 -51.810720 -26.400000
    endloop
  endfacet
  facet normal -0.652223 0.758028 0.000000
    outer loop
      vertex 91.872000 -51.810720 -6.400000
      vertex 92.022624 -51.681120 -6.400000
      vertex 91.872000 -51.810720 -26.400000
    endloop
  endfacet
  facet normal -0.652223 0.758028 0.000000
    outer loop
      vertex 91.872000 -51.810720 -26.400000
      vertex 92.022624 -51.681120 -6.400000
      vertex 92.022624 -51.681120 -26.400000
    endloop
  endfacet
  facet normal -0.462576 0.886580 0.000000
    outer loop
      vertex 92.022624 -51.681120 -6.400000
      vertex 92.316096 -51.528000 -6.400000
      vertex 92.022624 -51.681120 -26.400000
    endloop
  endfacet
  facet normal -0.462576 0.886580 0.000000
    outer loop
      vertex 92.022624 -51.681120 -26.400000
      vertex 92.316096 -51.528000 -6.400000
      vertex 92.316096 -51.528000 -26.400000
    endloop
  endfacet
  facet normal -0.454756 0.890616 0.000000
    outer loop
      vertex 92.316096 -51.528000 -6.400000
      vertex 92.800224 -51.280800 -6.400000
      vertex 92.316096 -51.528000 -26.400000
    endloop
  endfacet
  facet normal -0.454756 0.890616 -0.000000
    outer loop
      vertex 92.316096 -51.528000 -26.400000
      vertex 92.800224 -51.280800 -6.400000
      vertex 92.800224 -51.280800 -26.400000
    endloop
  endfacet
  facet normal -0.495604 0.868548 -0.000000
    outer loop
      vertex 92.800224 -51.280800 -6.400000
      vertex 93.522816 -50.868480 -6.400000
      vertex 92.800224 -51.280800 -26.400000
    endloop
  endfacet
  facet normal -0.495604 0.868548 0.000000
    outer loop
      vertex 92.800224 -51.280800 -26.400000
      vertex 93.522816 -50.868480 -6.400000
      vertex 93.522816 -50.868480 -26.400000
    endloop
  endfacet
  facet normal -0.540616 0.841270 0.000000
    outer loop
      vertex 93.522816 -50.868480 -6.400000
      vertex 94.530816 -50.220720 -6.400000
      vertex 93.522816 -50.868480 -26.400000
    endloop
  endfacet
  facet normal -0.540616 0.841270 -0.000000
    outer loop
      vertex 93.522816 -50.868480 -26.400000
      vertex 94.530816 -50.220720 -6.400000
      vertex 94.530816 -50.220720 -26.400000
    endloop
  endfacet
  facet normal -0.579458 0.815002 -0.000000
    outer loop
      vertex 94.530816 -50.220720 -6.400000
      vertex 95.872608 -49.266720 -6.400000
      vertex 94.530816 -50.220720 -26.400000
    endloop
  endfacet
  facet normal -0.579458 0.815002 0.000000
    outer loop
      vertex 94.530816 -50.220720 -26.400000
      vertex 95.872608 -49.266720 -6.400000
      vertex 95.872608 -49.266720 -26.400000
    endloop
  endfacet
  facet normal 0.029659 0.999560 -0.000000
    outer loop
      vertex 95.872608 -49.266720 -6.400000
      vertex 98.651389 -49.349172 -6.400000
      vertex 95.872608 -49.266720 -26.400000
    endloop
  endfacet
  facet normal 0.029659 0.999560 -0.000000
    outer loop
      vertex 95.872608 -49.266720 -26.400000
      vertex 98.651389 -49.349172 -6.400000
      vertex 107.309664 -49.606080 -11.602417
    endloop
  endfacet
  facet normal 0.029659 0.999560 -0.000000
    outer loop
      vertex 105.600000 -49.555351 -81.600000
      vertex 107.309664 -49.606080 -11.602417
      vertex 107.309664 -49.606080 -96.000000
    endloop
  endfacet
  facet normal 0.029659 0.999560 -0.000000
    outer loop
      vertex 95.872608 -49.266720 -81.600000
      vertex 107.309664 -49.606080 -96.000000
      vertex 95.872608 -49.266720 -96.000000
    endloop
  endfacet
  facet normal 0.029659 0.999560 -0.000000
    outer loop
      vertex 105.600000 -49.555351 -26.400000
      vertex 107.309664 -49.606080 -11.602417
      vertex 105.600000 -49.555351 -81.600000
    endloop
  endfacet
  facet normal 0.029659 0.999560 -0.000000
    outer loop
      vertex 95.872608 -49.266720 -26.400000
      vertex 107.309664 -49.606080 -11.602417
      vertex 105.600000 -49.555351 -26.400000
    endloop
  endfacet
  facet normal 0.029659 0.999560 -0.000000
    outer loop
      vertex 105.600000 -49.555351 -81.600000
      vertex 107.309664 -49.606080 -96.000000
      vertex 95.872608 -49.266720 -81.600000
    endloop
  endfacet
  facet normal 0.515038 -0.000000 0.857167
    outer loop
      vertex 98.651389 -55.230144 -6.400000
      vertex 107.220384 -55.023360 -11.548772
      vertex 117.066816 -54.717120 -17.465105
    endloop
  endfacet
  facet normal 0.515038 0.000000 0.857167
    outer loop
      vertex 132.246432 -54.023040 -26.585939
      vertex 98.651389 -55.230144 -6.400000
      vertex 125.409888 -54.382320 -22.478128
    endloop
  endfacet
  facet normal 0.515038 0.000000 0.857167
    outer loop
      vertex 125.409888 -54.382320 -22.478128
      vertex 98.651389 -55.230144 -6.400000
      vertex 117.066816 -54.717120 -17.465105
    endloop
  endfacet
  facet normal 0.515038 -0.000000 0.857167
    outer loop
      vertex 137.574432 -53.643360 -29.787324
      vertex 98.651389 -55.230144 -6.400000
      vertex 132.246432 -54.023040 -26.585939
    endloop
  endfacet
  facet normal 0.515038 0.000000 0.857167
    outer loop
      vertex 141.391008 -53.247120 -32.080554
      vertex 98.651389 -55.230144 -6.400000
      vertex 137.574432 -53.643360 -29.787324
    endloop
  endfacet
  facet normal 0.515038 -0.000000 0.857167
    outer loop
      vertex 143.693856 -52.838640 -33.464245
      vertex 98.651389 -55.230144 -6.400000
      vertex 141.391008 -53.247120 -32.080554
    endloop
  endfacet
  facet normal 0.515038 0.000000 0.857167
    outer loop
      vertex 144.480096 -52.421760 -33.936665
      vertex 98.651389 -55.230144 -6.400000
      vertex 143.693856 -52.838640 -33.464245
    endloop
  endfacet
  facet normal 0.515038 0.000000 0.857167
    outer loop
      vertex 143.747424 -52.000560 -33.496432
      vertex 98.651389 -55.230144 -6.400000
      vertex 144.480096 -52.421760 -33.936665
    endloop
  endfacet
  facet normal 0.515038 -0.000000 0.857167
    outer loop
      vertex 141.493248 -51.578880 -32.141986
      vertex 98.651389 -55.230144 -6.400000
      vertex 143.747424 -52.000560 -33.496432
    endloop
  endfacet
  facet normal 0.515038 0.000000 0.857167
    outer loop
      vertex 137.714976 -51.160800 -29.871771
      vertex 98.651389 -55.230144 -6.400000
      vertex 141.493248 -51.578880 -32.141986
    endloop
  endfacet
  facet normal 0.515038 0.000000 0.857167
    outer loop
      vertex 132.410016 -50.750640 -26.684230
      vertex 98.651389 -55.230144 -6.400000
      vertex 137.714976 -51.160800 -29.871771
    endloop
  endfacet
  facet normal 0.515038 -0.000000 0.857167
    outer loop
      vertex 125.575776 -50.352000 -22.577804
      vertex 98.651389 -55.230144 -6.400000
      vertex 132.410016 -50.750640 -26.684230
    endloop
  endfacet
  facet normal 0.515038 -0.000000 0.857167
    outer loop
      vertex 117.209952 -49.969200 -17.551110
      vertex 98.651389 -55.230144 -6.400000
      vertex 125.575776 -50.352000 -22.577804
    endloop
  endfacet
  facet normal 0.515038 0.000000 0.857167
    outer loop
      vertex 107.309664 -49.606080 -11.602417
      vertex 98.651389 -55.230144 -6.400000
      vertex 117.209952 -49.969200 -17.551110
    endloop
  endfacet
  facet normal 0.515038 0.000000 0.857167
    outer loop
      vertex 98.651389 -49.349172 -6.400000
      vertex 98.651389 -55.230144 -6.400000
      vertex 107.309664 -49.606080 -11.602417
    endloop
  endfacet
  facet normal 0.024125 -0.999709 0.000000
    outer loop
      vertex 98.651389 -55.230144 -6.400000
      vertex 95.872608 -55.297200 -6.400000
      vertex 95.872608 -55.297200 -26.400000
    endloop
  endfacet
  facet normal 0.024125 -0.999709 0.000000
    outer loop
      vertex 107.220384 -55.023360 -11.548772
      vertex 98.651389 -55.230144 -6.400000
      vertex 105.600000 -55.062462 -26.400000
    endloop
  endfacet
  facet normal 0.024125 -0.999709 0.000000
    outer loop
      vertex 105.600000 -55.062462 -26.400000
      vertex 98.651389 -55.230144 -6.400000
      vertex 95.872608 -55.297200 -26.400000
    endloop
  endfacet
  facet normal 0.024125 -0.999709 0.000000
    outer loop
      vertex 107.220384 -55.023360 -96.000000
      vertex 105.600000 -55.062462 -26.400000
      vertex 105.600000 -55.062462 -81.600000
    endloop
  endfacet
  facet normal 0.024125 -0.999709 0.000000
    outer loop
      vertex 95.872608 -55.297200 -96.000000
      vertex 105.600000 -55.062462 -81.600000
      vertex 95.872608 -55.297200 -81.600000
    endloop
  endfacet
  facet normal 0.024125 -0.999709 -0.000000
    outer loop
      vertex 107.220384 -55.023360 -96.000000
      vertex 105.600000 -55.062462 -81.600000
      vertex 95.872608 -55.297200 -96.000000
    endloop
  endfacet
  facet normal 0.024125 -0.999709 0.000000
    outer loop
      vertex 107.220384 -55.023360 -11.548772
      vertex 105.600000 -55.062462 -26.400000
      vertex 107.220384 -55.023360 -96.000000
    endloop
  endfacet
  facet normal -0.579637 -0.814875 0.000000
    outer loop
      vertex 95.872608 -55.297200 -6.400000
      vertex 94.531104 -54.342960 -6.400000
      vertex 94.531104 -54.342960 -26.400000
    endloop
  endfacet
  facet normal -0.579637 -0.814875 0.000000
    outer loop
      vertex 95.872608 -55.297200 -26.400000
      vertex 95.872608 -55.297200 -6.400000
      vertex 94.531104 -54.342960 -26.400000
    endloop
  endfacet
  facet normal -0.540758 -0.841178 0.000000
    outer loop
      vertex 94.531104 -54.342960 -6.400000
      vertex 93.523104 -53.694960 -6.400000
      vertex 93.523104 -53.694960 -26.400000
    endloop
  endfacet
  facet normal -0.540758 -0.841178 -0.000000
    outer loop
      vertex 94.531104 -54.342960 -26.400000
      vertex 94.531104 -54.342960 -6.400000
      vertex 93.523104 -53.694960 -26.400000
    endloop
  endfacet
  facet normal -0.495536 -0.868587 0.000000
    outer loop
      vertex 93.523104 -53.694960 -6.400000
      vertex 92.800800 -53.282880 -6.400000
      vertex 92.800800 -53.282880 -26.400000
    endloop
  endfacet
  facet normal -0.495536 -0.868587 -0.000000
    outer loop
      vertex 93.523104 -53.694960 -26.400000
      vertex 93.523104 -53.694960 -6.400000
      vertex 92.800800 -53.282880 -26.400000
    endloop
  endfacet
  facet normal -0.455106 -0.890437 0.000000
    outer loop
      vertex 92.800800 -53.282880 -6.400000
      vertex 92.316672 -53.035440 -6.400000
      vertex 92.316672 -53.035440 -26.400000
    endloop
  endfacet
  facet normal -0.455106 -0.890437 -0.000000
    outer loop
      vertex 92.800800 -53.282880 -26.400000
      vertex 92.800800 -53.282880 -6.400000
      vertex 92.316672 -53.035440 -26.400000
    endloop
  endfacet
  facet normal -0.461649 -0.887062 0.000000
    outer loop
      vertex 92.316672 -53.035440 -6.400000
      vertex 92.022912 -52.882560 -6.400000
      vertex 92.022912 -52.882560 -26.400000
    endloop
  endfacet
  facet normal -0.461649 -0.887062 0.000000
    outer loop
      vertex 92.316672 -53.035440 -26.400000
      vertex 92.316672 -53.035440 -6.400000
      vertex 92.022912 -52.882560 -26.400000
    endloop
  endfacet
  facet normal -0.651506 -0.758643 0.000000
    outer loop
      vertex 92.022912 -52.882560 -6.400000
      vertex 91.872000 -52.752960 -6.400000
      vertex 91.872000 -52.752960 -26.400000
    endloop
  endfacet
  facet normal -0.651506 -0.758643 -0.000000
    outer loop
      vertex 92.022912 -52.882560 -26.400000
      vertex 92.022912 -52.882560 -6.400000
      vertex 91.872000 -52.752960 -26.400000
    endloop
  endfacet
  facet normal 0.623490 -0.781831 0.000000
    outer loop
      vertex 94.558450 -51.305786 -26.400000
      vertex 95.643966 -50.440115 -26.400000
      vertex 95.643966 -50.440115 -6.400000
    endloop
  endfacet
  facet normal 0.623490 -0.781831 0.000000
    outer loop
      vertex 94.558450 -51.305786 -6.400000
      vertex 94.558450 -51.305786 -26.400000
      vertex 95.643966 -50.440115 -6.400000
    endloop
  endfacet
  facet normal 1.000000 0.000000 -0.000000
    outer loop
      vertex 94.558450 -52.694214 -6.400000
      vertex 94.558450 -52.694214 -26.400000
      vertex 94.558450 -51.305786 -26.400000
    endloop
  endfacet
  facet normal 1.000000 0.000000 0.000000
    outer loop
      vertex 94.558450 -51.305786 -6.400000
      vertex 94.558450 -52.694214 -6.400000
      vertex 94.558450 -51.305786 -26.400000
    endloop
  endfacet
  facet normal 0.623490 0.781831 0.000000
    outer loop
      vertex 95.643966 -53.559885 -26.400000
      vertex 94.558450 -52.694214 -26.400000
      vertex 95.643966 -53.559885 -6.400000
    endloop
  endfacet
  facet normal 0.623490 0.781831 -0.000000
    outer loop
      vertex 95.643966 -53.559885 -6.400000
      vertex 94.558450 -52.694214 -26.400000
      vertex 94.558450 -52.694214 -6.400000
    endloop
  endfacet
  facet normal -0.222521 0.974928 0.000000
    outer loop
      vertex 96.997584 -53.250930 -26.400000
      vertex 95.643966 -53.559885 -26.400000
      vertex 96.997584 -53.250930 -6.400000
    endloop
  endfacet
  facet normal -0.222521 0.974928 0.000000
    outer loop
      vertex 96.997584 -53.250930 -6.400000
      vertex 95.643966 -53.559885 -26.400000
      vertex 95.643966 -53.559885 -6.400000
    endloop
  endfacet
  facet normal -0.900969 0.433884 0.000000
    outer loop
      vertex 97.600000 -52.000000 -26.400000
      vertex 96.997584 -53.250930 -26.400000
      vertex 97.600000 -52.000000 -6.400000
    endloop
  endfacet
  facet normal -0.900969 0.433884 0.000000
    outer loop
      vertex 97.600000 -52.000000 -6.400000
      vertex 96.997584 -53.250930 -26.400000
      vertex 96.997584 -53.250930 -6.400000
    endloop
  endfacet
  facet normal -0.900969 -0.433884 -0.000000
    outer loop
      vertex 97.600000 -52.000000 -26.400000
      vertex 97.600000 -52.000000 -6.400000
      vertex 96.997584 -50.749070 -26.400000
    endloop
  endfacet
  facet normal -0.900969 -0.433884 0.000000
    outer loop
      vertex 96.997584 -50.749070 -26.400000
      vertex 97.600000 -52.000000 -6.400000
      vertex 96.997584 -50.749070 -6.400000
    endloop
  endfacet
  facet normal -0.222521 -0.974928 0.000000
    outer loop
      vertex 95.643966 -50.440115 -26.400000
      vertex 96.997584 -50.749070 -26.400000
      vertex 96.997584 -50.749070 -6.400000
    endloop
  endfacet
  facet normal -0.222521 -0.974928 0.000000
    outer loop
      vertex 95.643966 -50.440115 -6.400000
      vertex 95.643966 -50.440115 -26.400000
      vertex 96.997584 -50.749070 -6.400000
    endloop
  endfacet
  facet normal -1.000000 -0.000000 0.000000
    outer loop
      vertex 105.600000 -55.062462 -81.600000
      vertex 105.600000 -55.062462 -26.400000
      vertex 105.600000 -49.555351 -81.600000
    endloop
  endfacet
  facet normal -1.000000 0.000000 -0.000000
    outer loop
      vertex 105.600000 -49.555351 -81.600000
      vertex 105.600000 -55.062462 -26.400000
      vertex 105.600000 -49.555351 -26.400000
    endloop
  endfacet
  facet normal -1.000000 0.000000 0.000000
    outer loop
      vertex 92.952786 -51.529772 -26.400000
      vertex 92.952786 -51.529772 -81.600000
      vertex 92.952786 -52.470228 -26.400000
    endloop
  endfacet
  facet normal -1.000000 0.000000 0.000000
    outer loop
      vertex 92.952786 -52.470228 -26.400000
      vertex 92.952786 -51.529772 -81.600000
      vertex 92.952786 -52.470228 -81.600000
    endloop
  endfacet
  facet normal -0.309018 -0.951056 0.000000
    outer loop
      vertex 93.847214 -52.760846 -26.400000
      vertex 92.952786 -52.470228 -26.400000
      vertex 92.952786 -52.470228 -81.600000
    endloop
  endfacet
  facet normal -0.309018 -0.951056 0.000000
    outer loop
      vertex 93.847214 -52.760846 -81.600000
      vertex 93.847214 -52.760846 -26.400000
      vertex 92.952786 -52.470228 -81.600000
    endloop
  endfacet
  facet normal -0.309018 0.951056 -0.000000
    outer loop
      vertex 92.952786 -51.529772 -26.400000
      vertex 93.847214 -51.239154 -26.400000
      vertex 92.952786 -51.529772 -81.600000
    endloop
  endfacet
  facet normal -0.309018 0.951056 -0.000000
    outer loop
      vertex 92.952786 -51.529772 -81.600000
      vertex 93.847214 -51.239154 -26.400000
      vertex 93.847214 -51.239154 -81.600000
    endloop
  endfacet
  facet normal 0.809017 0.587785 -0.000000
    outer loop
      vertex 93.847214 -51.239154 -81.600000
      vertex 93.847214 -51.239154 -26.400000
      vertex 94.400000 -52.000000 -26.400000
    endloop
  endfacet
  facet normal 0.809017 0.587785 -0.000000
    outer loop
      vertex 94.400000 -52.000000 -81.600000
      vertex 93.847214 -51.239154 -81.600000
      vertex 94.400000 -52.000000 -26.400000
    endloop
  endfacet
  facet normal 0.809017 -0.587785 0.000000
    outer loop
      vertex 94.400000 -52.000000 -26.400000
      vertex 93.847214 -52.760846 -26.400000
      vertex 93.847214 -52.760846 -81.600000
    endloop
  endfacet
  facet normal 0.809017 -0.587785 0.000000
    outer loop
      vertex 94.400000 -52.000000 -81.600000
      vertex 94.400000 -52.000000 -26.400000
      vertex 93.847214 -52.760846 -81.600000
    endloop
  endfacet
  facet normal 0.000000 0.000000 1.000000
    outer loop
      vertex 91.816416 -52.576320 -81.600000
      vertex 91.872000 -52.752960 -81.600000
      vertex 92.022912 -52.882560 -81.600000
    endloop
  endfacet
  facet normal 0.000000 0.000000 1.000000
    outer loop
      vertex 92.800800 -53.282880 -81.600000
      vertex 91.816416 -52.576320 -81.600000
      vertex 92.316672 -53.035440 -81.600000
    endloop
  endfacet
  facet normal 0.000000 0.000000 1.000000
    outer loop
      vertex 92.316672 -53.035440 -81.600000
      vertex 91.816416 -52.576320 -81.600000
      vertex 92.022912 -52.882560 -81.600000
    endloop
  endfacet
  facet normal 0.000000 0.000000 1.000000
    outer loop
      vertex 93.523104 -53.694960 -81.600000
      vertex 91.816416 -52.576320 -81.600000
      vertex 92.800800 -53.282880 -81.600000
    endloop
  endfacet
  facet normal 0.000000 0.000000 1.000000
    outer loop
      vertex 94.531104 -54.342960 -81.600000
      vertex 91.816416 -52.576320 -81.600000
      vertex 93.523104 -53.694960 -81.600000
    endloop
  endfacet
  facet normal -0.000000 0.000000 1.000000
    outer loop
      vertex 95.643966 -53.559885 -81.600000
      vertex 91.816416 -52.576320 -81.600000
      vertex 94.531104 -54.342960 -81.600000
    endloop
  endfacet
  facet normal -0.000000 0.000000 1.000000
    outer loop
      vertex 105.600000 -55.062462 -81.600000
      vertex 94.531104 -54.342960 -81.600000
      vertex 95.872608 -55.297200 -81.600000
    endloop
  endfacet
  facet normal 0.000000 0.000000 1.000000
    outer loop
      vertex 95.643966 -53.559885 -81.600000
      vertex 94.558450 -52.694214 -81.600000
      vertex 93.847214 -52.760846 -81.600000
    endloop
  endfacet
  facet normal 0.000000 -0.000000 1.000000
    outer loop
      vertex 92.800224 -51.280800 -81.600000
      vertex 91.816416 -52.576320 -81.600000
      vertex 93.522816 -50.868480 -81.600000
    endloop
  endfacet
  facet normal 0.000000 -0.000000 1.000000
    outer loop
      vertex 92.316096 -51.528000 -81.600000
      vertex 91.816416 -52.576320 -81.600000
      vertex 92.800224 -51.280800 -81.600000
    endloop
  endfacet
  facet normal 0.000000 -0.000000 1.000000
    outer loop
      vertex 92.022624 -51.681120 -81.600000
      vertex 91.816416 -52.576320 -81.600000
      vertex 92.316096 -51.528000 -81.600000
    endloop
  endfacet
  facet normal 0.000000 -0.000000 1.000000
    outer loop
      vertex 91.872000 -51.810720 -81.600000
      vertex 91.816416 -52.576320 -81.600000
      vertex 92.022624 -51.681120 -81.600000
    endloop
  endfacet
  facet normal 0.000000 -0.000000 1.000000
    outer loop
      vertex 91.816416 -51.987360 -81.600000
      vertex 91.816416 -52.576320 -81.600000
      vertex 91.872000 -51.810720 -81.600000
    endloop
  endfacet
  facet normal 0.000000 0.000000 1.000000
    outer loop
      vertex 91.808640 -52.281840 -81.600000
      vertex 91.816416 -52.576320 -81.600000
      vertex 91.816416 -51.987360 -81.600000
    endloop
  endfacet
  facet normal 0.000000 -0.000000 1.000000
    outer loop
      vertex 93.522816 -50.868480 -81.600000
      vertex 92.952786 -51.529772 -81.600000
      vertex 94.530816 -50.220720 -81.600000
    endloop
  endfacet
  facet normal 0.000000 0.000000 1.000000
    outer loop
      vertex 93.522816 -50.868480 -81.600000
      vertex 91.816416 -52.576320 -81.600000
      vertex 92.952786 -51.529772 -81.600000
    endloop
  endfacet
  facet normal 0.000000 0.000000 1.000000
    outer loop
      vertex 96.997584 -50.749070 -81.600000
      vertex 97.600000 -52.000000 -81.600000
      vertex 105.600000 -49.555351 -81.600000
    endloop
  endfacet
  facet normal -0.000000 0.000000 1.000000
    outer loop
      vertex 94.558450 -52.694214 -81.600000
      vertex 94.400000 -52.000000 -81.600000
      vertex 93.847214 -52.760846 -81.600000
    endloop
  endfacet
  facet normal 0.000000 0.000000 1.000000
    outer loop
      vertex 94.558450 -52.694214 -81.600000
      vertex 94.558450 -51.305786 -81.600000
      vertex 94.400000 -52.000000 -81.600000
    endloop
  endfacet
  facet normal 0.000000 -0.000000 1.000000
    outer loop
      vertex 92.952786 -52.470228 -81.600000
      vertex 91.816416 -52.576320 -81.600000
      vertex 93.847214 -52.760846 -81.600000
    endloop
  endfacet
  facet normal 0.000000 0.000000 1.000000
    outer loop
      vertex 95.643966 -53.559885 -81.600000
      vertex 93.847214 -52.760846 -81.600000
      vertex 91.816416 -52.576320 -81.600000
    endloop
  endfacet
  facet normal 0.000000 -0.000000 1.000000
    outer loop
      vertex 96.997584 -53.250930 -81.600000
      vertex 95.643966 -53.559885 -81.600000
      vertex 105.600000 -55.062462 -81.600000
    endloop
  endfacet
  facet normal 0.000000 0.000000 1.000000
    outer loop
      vertex 93.847214 -51.239154 -81.600000
      vertex 94.400000 -52.000000 -81.600000
      vertex 94.558450 -51.305786 -81.600000
    endloop
  endfacet
  facet normal 0.000000 -0.000000 1.000000
    outer loop
      vertex 95.872608 -49.266720 -81.600000
      vertex 95.643966 -50.440115 -81.600000
      vertex 105.600000 -49.555351 -81.600000
    endloop
  endfacet
  facet normal 0.000000 0.000000 1.000000
    outer loop
      vertex 95.872608 -49.266720 -81.600000
      vertex 93.847214 -51.239154 -81.600000
      vertex 95.643966 -50.440115 -81.600000
    endloop
  endfacet
  facet normal 0.000000 0.000000 1.000000
    outer loop
      vertex 95.643966 -50.440115 -81.600000
      vertex 96.997584 -50.749070 -81.600000
      vertex 105.600000 -49.555351 -81.600000
    endloop
  endfacet
  facet normal 0.000000 0.000000 1.000000
    outer loop
      vertex 105.600000 -49.555351 -81.600000
      vertex 97.600000 -52.000000 -81.600000
      vertex 105.600000 -55.062462 -81.600000
    endloop
  endfacet
  facet normal 0.000000 0.000000 1.000000
    outer loop
      vertex 94.558450 -51.305786 -81.600000
      vertex 95.643966 -50.440115 -81.600000
      vertex 93.847214 -51.239154 -81.600000
    endloop
  endfacet
  facet normal 0.000000 -0.000000 1.000000
    outer loop
      vertex 97.600000 -52.000000 -81.600000
      vertex 96.997584 -53.250930 -81.600000
      vertex 105.600000 -55.062462 -81.600000
    endloop
  endfacet
  facet normal 0.000000 0.000000 1.000000
    outer loop
      vertex 105.600000 -55.062462 -81.600000
      vertex 95.643966 -53.559885 -81.600000
      vertex 94.531104 -54.342960 -81.600000
    endloop
  endfacet
  facet normal 0.000000 0.000000 1.000000
    outer loop
      vertex 92.952786 -51.529772 -81.600000
      vertex 95.872608 -49.266720 -81.600000
      vertex 94.530816 -50.220720 -81.600000
    endloop
  endfacet
  facet normal 0.000000 0.000000 1.000000
    outer loop
      vertex 92.952786 -51.529772 -81.600000
      vertex 93.847214 -51.239154 -81.600000
      vertex 95.872608 -49.266720 -81.600000
    endloop
  endfacet
  facet normal -0.000000 0.000000 1.000000
    outer loop
      vertex 92.952786 -52.470228 -81.600000
      vertex 92.952786 -51.529772 -81.600000
      vertex 91.816416 -52.576320 -81.600000
    endloop
  endfacet
  facet normal -0.579458 0.815002 0.000000
    outer loop
      vertex 94.530816 -50.220720 -81.600000
      vertex 95.872608 -49.266720 -81.600000
      vertex 94.530816 -50.220720 -96.000000
    endloop
  endfacet
  facet normal -0.579458 0.815002 0.000000
    outer loop
      vertex 94.530816 -50.220720 -96.000000
      vertex 95.872608 -49.266720 -81.600000
      vertex 95.872608 -49.266720 -96.000000
    endloop
  endfacet
  facet normal -0.000000 0.000000 -1.000000
    outer loop
      vertex 91.808640 -52.281840 -96.000000
      vertex 91.816416 -51.987360 -96.000000
      vertex 91.816416 -52.576320 -96.000000
    endloop
  endfacet
  facet normal 0.000000 -0.000000 -1.000000
    outer loop
      vertex 91.816416 -52.576320 -96.000000
      vertex 91.816416 -51.987360 -96.000000
      vertex 91.872000 -51.810720 -96.000000
    endloop
  endfacet
  facet normal 0.000000 0.000000 -1.000000
    outer loop
      vertex 91.816416 -52.576320 -96.000000
      vertex 91.872000 -51.810720 -96.000000
      vertex 92.022624 -51.681120 -96.000000
    endloop
  endfacet
  facet normal 0.000000 0.000000 -1.000000
    outer loop
      vertex 91.816416 -52.576320 -96.000000
      vertex 92.022624 -51.681120 -96.000000
      vertex 92.316096 -51.528000 -96.000000
    endloop
  endfacet
  facet normal 0.000000 0.000000 -1.000000
    outer loop
      vertex 91.816416 -52.576320 -96.000000
      vertex 92.316096 -51.528000 -96.000000
      vertex 92.800224 -51.280800 -96.000000
    endloop
  endfacet
  facet normal 0.000000 0.000000 -1.000000
    outer loop
      vertex 91.816416 -52.576320 -96.000000
      vertex 92.800224 -51.280800 -96.000000
      vertex 93.522816 -50.868480 -96.000000
    endloop
  endfacet
  facet normal -0.000000 0.000000 -1.000000
    outer loop
      vertex 93.522816 -50.868480 -96.000000
      vertex 94.530816 -50.220720 -96.000000
      vertex 91.816416 -52.576320 -96.000000
    endloop
  endfacet
  facet normal -0.000000 0.000000 -1.000000
    outer loop
      vertex 94.530816 -50.220720 -96.000000
      vertex 95.872608 -49.266720 -96.000000
      vertex 91.816416 -52.576320 -96.000000
    endloop
  endfacet
  facet normal 0.000000 -0.000000 -1.000000
    outer loop
      vertex 96.997584 -50.749070 -96.000000
      vertex 95.872608 -49.266720 -96.000000
      vertex 107.309664 -49.606080 -96.000000
    endloop
  endfacet
  facet normal 0.000000 0.000000 -1.000000
    outer loop
      vertex 97.600000 -52.000000 -96.000000
      vertex 117.209952 -49.969200 -96.000000
      vertex 125.575776 -50.352000 -96.000000
    endloop
  endfacet
  facet normal 0.000000 0.000000 -1.000000
    outer loop
      vertex 96.997584 -53.250930 -96.000000
      vertex 107.220384 -55.023360 -96.000000
      vertex 95.643966 -53.559885 -96.000000
    endloop
  endfacet
  facet normal -0.000000 0.000000 -1.000000
    outer loop
      vertex 96.997584 -50.749070 -96.000000
      vertex 117.209952 -49.969200 -96.000000
      vertex 97.600000 -52.000000 -96.000000
    endloop
  endfacet
  facet normal 0.000000 0.000000 -1.000000
    outer loop
      vertex 96.997584 -53.250930 -96.000000
      vertex 117.066816 -54.717120 -96.000000
      vertex 107.220384 -55.023360 -96.000000
    endloop
  endfacet
  facet normal 0.000000 0.000000 -1.000000
    outer loop
      vertex 94.531104 -54.342960 -96.000000
      vertex 107.220384 -55.023360 -96.000000
      vertex 95.872608 -55.297200 -96.000000
    endloop
  endfacet
  facet normal 0.000000 0.000000 -1.000000
    outer loop
      vertex 95.643966 -53.559885 -96.000000
      vertex 107.220384 -55.023360 -96.000000
      vertex 94.531104 -54.342960 -96.000000
    endloop
  endfacet
  facet normal 0.000000 0.000000 -1.000000
    outer loop
      vertex 91.816416 -52.576320 -96.000000
      vertex 94.531104 -54.342960 -96.000000
      vertex 93.523104 -53.694960 -96.000000
    endloop
  endfacet
  facet normal 0.000000 0.000000 -1.000000
    outer loop
      vertex 94.558450 -52.694214 -96.000000
      vertex 91.816416 -52.576320 -96.000000
      vertex 94.558450 -51.305786 -96.000000
    endloop
  endfacet
  facet normal 0.000000 0.000000 -1.000000
    outer loop
      vertex 91.816416 -52.576320 -96.000000
      vertex 92.800800 -53.282880 -96.000000
      vertex 92.316672 -53.035440 -96.000000
    endloop
  endfacet
  facet normal 0.000000 0.000000 -1.000000
    outer loop
      vertex 91.816416 -52.576320 -96.000000
      vertex 92.316672 -53.035440 -96.000000
      vertex 92.022912 -52.882560 -96.000000
    endloop
  endfacet
  facet normal 0.000000 0.000000 -1.000000
    outer loop
      vertex 91.816416 -52.576320 -96.000000
      vertex 92.022912 -52.882560 -96.000000
      vertex 91.872000 -52.752960 -96.000000
    endloop
  endfacet
  facet normal 0.000000 0.000000 -1.000000
    outer loop
      vertex 91.816416 -52.576320 -96.000000
      vertex 95.872608 -49.266720 -96.000000
      vertex 94.558450 -51.305786 -96.000000
    endloop
  endfacet
  facet normal 0.000000 0.000000 -1.000000
    outer loop
      vertex 95.643966 -53.559885 -96.000000
      vertex 91.816416 -52.576320 -96.000000
      vertex 94.558450 -52.694214 -96.000000
    endloop
  endfacet
  facet normal 0.000000 0.000000 -1.000000
    outer loop
      vertex 97.600000 -52.000000 -96.000000
      vertex 132.246432 -54.023040 -96.000000
      vertex 125.409888 -54.382320 -96.000000
    endloop
  endfacet
  facet normal 0.000000 0.000000 -1.000000
    outer loop
      vertex 91.816416 -52.576320 -96.000000
      vertex 95.643966 -53.559885 -96.000000
      vertex 94.531104 -54.342960 -96.000000
    endloop
  endfacet
  facet normal 0.000000 0.000000 -1.000000
    outer loop
      vertex 97.600000 -52.000000 -96.000000
      vertex 117.066816 -54.717120 -96.000000
      vertex 96.997584 -53.250930 -96.000000
    endloop
  endfacet
  facet normal 0.000000 0.000000 -1.000000
    outer loop
      vertex 97.600000 -52.000000 -96.000000
      vertex 125.409888 -54.382320 -96.000000
      vertex 117.066816 -54.717120 -96.000000
    endloop
  endfacet
  facet normal -0.000000 0.000000 -1.000000
    outer loop
      vertex 95.643966 -50.440115 -96.000000
      vertex 95.872608 -49.266720 -96.000000
      vertex 96.997584 -50.749070 -96.000000
    endloop
  endfacet
  facet normal 0.000000 0.000000 -1.000000
    outer loop
      vertex 94.558450 -51.305786 -96.000000
      vertex 95.872608 -49.266720 -96.000000
      vertex 95.643966 -50.440115 -96.000000
    endloop
  endfacet
  facet normal -0.000000 -0.000000 -1.000000
    outer loop
      vertex 92.800800 -53.282880 -96.000000
      vertex 91.816416 -52.576320 -96.000000
      vertex 93.523104 -53.694960 -96.000000
    endloop
  endfacet
  facet normal 0.000000 0.000000 -1.000000
    outer loop
      vertex 97.600000 -52.000000 -96.000000
      vertex 125.575776 -50.352000 -96.000000
      vertex 132.410016 -50.750640 -96.000000
    endloop
  endfacet
  facet normal 0.000000 0.000000 -1.000000
    outer loop
      vertex 97.600000 -52.000000 -96.000000
      vertex 132.410016 -50.750640 -96.000000
      vertex 137.714976 -51.160800 -96.000000
    endloop
  endfacet
  facet normal 0.000000 0.000000 -1.000000
    outer loop
      vertex 97.600000 -52.000000 -96.000000
      vertex 137.714976 -51.160800 -96.000000
      vertex 141.493248 -51.578880 -96.000000
    endloop
  endfacet
  facet normal -0.000000 0.000000 -1.000000
    outer loop
      vertex 97.600000 -52.000000 -96.000000
      vertex 141.493248 -51.578880 -96.000000
      vertex 143.747424 -52.000560 -96.000000
    endloop
  endfacet
  facet normal 0.000000 0.000000 -1.000000
    outer loop
      vertex 97.600000 -52.000000 -96.000000
      vertex 143.747424 -52.000560 -96.000000
      vertex 144.480096 -52.421760 -96.000000
    endloop
  endfacet
  facet normal 0.000000 0.000000 -1.000000
    outer loop
      vertex 97.600000 -52.000000 -96.000000
      vertex 144.480096 -52.421760 -96.000000
      vertex 143.693856 -52.838640 -96.000000
    endloop
  endfacet
  facet normal 0.000000 0.000000 -1.000000
    outer loop
      vertex 97.600000 -52.000000 -96.000000
      vertex 143.693856 -52.838640 -96.000000
      vertex 141.391008 -53.247120 -96.000000
    endloop
  endfacet
  facet normal 0.000000 0.000000 -1.000000
    outer loop
      vertex 97.600000 -52.000000 -96.000000
      vertex 141.391008 -53.247120 -96.000000
      vertex 137.574432 -53.643360 -96.000000
    endloop
  endfacet
  facet normal 0.000000 0.000000 -1.000000
    outer loop
      vertex 97.600000 -52.000000 -96.000000
      vertex 137.574432 -53.643360 -96.000000
      vertex 132.246432 -54.023040 -96.000000
    endloop
  endfacet
  facet normal 0.000000 0.000000 -1.000000
    outer loop
      vertex 96.997584 -50.749070 -96.000000
      vertex 107.309664 -49.606080 -96.000000
      vertex 117.209952 -49.969200 -96.000000
    endloop
  endfacet
  facet normal 0.036653 0.999328 -0.000000
    outer loop
      vertex 107.309664 -49.606080 -11.602417
      vertex 117.209952 -49.969200 -17.551110
      vertex 107.309664 -49.606080 -96.000000
    endloop
  endfacet
  facet normal 0.036653 0.999328 -0.000000
    outer loop
      vertex 107.309664 -49.606080 -96.000000
      vertex 117.209952 -49.969200 -17.551110
      vertex 117.209952 -49.969200 -96.000000
    endloop
  endfacet
  facet normal 0.045710 0.998955 -0.000000
    outer loop
      vertex 117.209952 -49.969200 -17.551110
      vertex 125.575776 -50.352000 -22.577804
      vertex 117.209952 -49.969200 -96.000000
    endloop
  endfacet
  facet normal 0.045710 0.998955 -0.000000
    outer loop
      vertex 117.209952 -49.969200 -96.000000
      vertex 125.575776 -50.352000 -22.577804
      vertex 125.575776 -50.352000 -96.000000
    endloop
  endfacet
  facet normal 0.058231 0.998303 -0.000000
    outer loop
      vertex 125.575776 -50.352000 -22.577804
      vertex 132.410016 -50.750640 -26.684230
      vertex 125.575776 -50.352000 -96.000000
    endloop
  endfacet
  facet normal 0.058231 0.998303 -0.000000
    outer loop
      vertex 125.575776 -50.352000 -96.000000
      vertex 132.410016 -50.750640 -26.684230
      vertex 132.410016 -50.750640 -96.000000
    endloop
  endfacet
  facet normal 0.077086 0.997024 -0.000000
    outer loop
      vertex 132.410016 -50.750640 -26.684230
      vertex 137.714976 -51.160800 -29.871771
      vertex 132.410016 -50.750640 -96.000000
    endloop
  endfacet
  facet normal 0.077086 0.997024 -0.000000
    outer loop
      vertex 132.410016 -50.750640 -96.000000
      vertex 137.714976 -51.160800 -29.871771
      vertex 137.714976 -51.160800 -96.000000
    endloop
  endfacet
  facet normal 0.109982 0.993934 -0.000000
    outer loop
      vertex 137.714976 -51.160800 -29.871771
      vertex 141.493248 -51.578880 -32.141986
      vertex 137.714976 -51.160800 -96.000000
    endloop
  endfacet
  facet normal 0.109982 0.993934 -0.000000
    outer loop
      vertex 137.714976 -51.160800 -96.000000
      vertex 141.493248 -51.578880 -32.141986
      vertex 141.493248 -51.578880 -96.000000
    endloop
  endfacet
  facet normal 0.183877 0.982949 -0.000000
    outer loop
      vertex 141.493248 -51.578880 -32.141986
      vertex 143.747424 -52.000560 -33.496432
      vertex 141.493248 -51.578880 -96.000000
    endloop
  endfacet
  facet normal 0.183877 0.982949 -0.000000
    outer loop
      vertex 141.493248 -51.578880 -96.000000
      vertex 143.747424 -52.000560 -33.496432
      vertex 143.747424 -52.000560 -96.000000
    endloop
  endfacet
  facet normal 0.498394 0.866950 -0.000000
    outer loop
      vertex 143.747424 -52.000560 -33.496432
      vertex 144.480096 -52.421760 -33.936665
      vertex 143.747424 -52.000560 -96.000000
    endloop
  endfacet
  facet normal 0.498394 0.866950 -0.000000
    outer loop
      vertex 143.747424 -52.000560 -96.000000
      vertex 144.480096 -52.421760 -33.936665
      vertex 144.480096 -52.421760 -96.000000
    endloop
  endfacet
  facet normal 0.468445 -0.883493 0.000000
    outer loop
      vertex 144.480096 -52.421760 -33.936665
      vertex 143.693856 -52.838640 -33.464245
      vertex 143.693856 -52.838640 -96.000000
    endloop
  endfacet
  facet normal 0.468445 -0.883493 0.000000
    outer loop
      vertex 144.480096 -52.421760 -96.000000
      vertex 144.480096 -52.421760 -33.936665
      vertex 143.693856 -52.838640 -96.000000
    endloop
  endfacet
  facet normal 0.174654 -0.984630 0.000000
    outer loop
      vertex 143.693856 -52.838640 -33.464245
      vertex 141.391008 -53.247120 -32.080554
      vertex 141.391008 -53.247120 -96.000000
    endloop
  endfacet
  facet normal 0.174654 -0.984630 0.000000
    outer loop
      vertex 143.693856 -52.838640 -96.000000
      vertex 143.693856 -52.838640 -33.464245
      vertex 141.391008 -53.247120 -96.000000
    endloop
  endfacet
  facet normal 0.103266 -0.994654 0.000000
    outer loop
      vertex 141.391008 -53.247120 -32.080554
      vertex 137.574432 -53.643360 -29.787324
      vertex 137.574432 -53.643360 -96.000000
    endloop
  endfacet
  facet normal 0.103266 -0.994654 0.000000
    outer loop
      vertex 141.391008 -53.247120 -96.000000
      vertex 141.391008 -53.247120 -32.080554
      vertex 137.574432 -53.643360 -96.000000
    endloop
  endfacet
  facet normal 0.071081 -0.997471 0.000000
    outer loop
      vertex 137.574432 -53.643360 -29.787324
      vertex 132.246432 -54.023040 -26.585939
      vertex 132.246432 -54.023040 -96.000000
    endloop
  endfacet
  facet normal 0.071081 -0.997471 0.000000
    outer loop
      vertex 137.574432 -53.643360 -96.000000
      vertex 137.574432 -53.643360 -29.787324
      vertex 132.246432 -54.023040 -96.000000
    endloop
  endfacet
  facet normal 0.052480 -0.998622 0.000000
    outer loop
      vertex 132.246432 -54.023040 -26.585939
      vertex 125.409888 -54.382320 -22.478128
      vertex 125.409888 -54.382320 -96.000000
    endloop
  endfacet
  facet normal 0.052480 -0.998622 0.000000
    outer loop
      vertex 132.246432 -54.023040 -96.000000
      vertex 132.246432 -54.023040 -26.585939
      vertex 125.409888 -54.382320 -96.000000
    endloop
  endfacet
  facet normal 0.040097 -0.999196 0.000000
    outer loop
      vertex 125.409888 -54.382320 -22.478128
      vertex 117.066816 -54.717120 -17.465105
      vertex 117.066816 -54.717120 -96.000000
    endloop
  endfacet
  facet normal 0.040097 -0.999196 0.000000
    outer loop
      vertex 125.409888 -54.382320 -96.000000
      vertex 125.409888 -54.382320 -22.478128
      vertex 117.066816 -54.717120 -96.000000
    endloop
  endfacet
  facet normal 0.031087 -0.999517 0.000000
    outer loop
      vertex 117.066816 -54.717120 -17.465105
      vertex 107.220384 -55.023360 -11.548772
      vertex 107.220384 -55.023360 -96.000000
    endloop
  endfacet
  facet normal 0.031087 -0.999517 0.000000
    outer loop
      vertex 117.066816 -54.717120 -96.000000
      vertex 117.066816 -54.717120 -17.465105
      vertex 107.220384 -55.023360 -96.000000
    endloop
  endfacet
  facet normal -0.579637 -0.814875 0.000000
    outer loop
      vertex 95.872608 -55.297200 -81.600000
      vertex 94.531104 -54.342960 -81.600000
      vertex 94.531104 -54.342960 -96.000000
    endloop
  endfacet
  facet normal -0.579637 -0.814875 -0.000000
    outer loop
      vertex 95.872608 -55.297200 -96.000000
      vertex 95.872608 -55.297200 -81.600000
      vertex 94.531104 -54.342960 -96.000000
    endloop
  endfacet
  facet normal -0.953888 -0.300164 0.000000
    outer loop
      vertex 91.816416 -52.576320 -81.600000
      vertex 91.816416 -52.576320 -96.000000
      vertex 91.872000 -52.752960 -81.600000
    endloop
  endfacet
  facet normal -0.953888 -0.300164 0.000000
    outer loop
      vertex 91.872000 -52.752960 -81.600000
      vertex 91.816416 -52.576320 -96.000000
      vertex 91.872000 -52.752960 -96.000000
    endloop
  endfacet
  facet normal -0.999652 -0.026397 0.000000
    outer loop
      vertex 91.808640 -52.281840 -81.600000
      vertex 91.808640 -52.281840 -96.000000
      vertex 91.816416 -52.576320 -81.600000
    endloop
  endfacet
  facet normal -0.999652 -0.026397 0.000000
    outer loop
      vertex 91.816416 -52.576320 -81.600000
      vertex 91.808640 -52.281840 -96.000000
      vertex 91.816416 -52.576320 -96.000000
    endloop
  endfacet
  facet normal -0.999652 0.026397 0.000000
    outer loop
      vertex 91.808640 -52.281840 -81.600000
      vertex 91.816416 -51.987360 -81.600000
      vertex 91.808640 -52.281840 -96.000000
    endloop
  endfacet
  facet normal -0.999652 0.026397 0.000000
    outer loop
      vertex 91.808640 -52.281840 -96.000000
      vertex 91.816416 -51.987360 -81.600000
      vertex 91.816416 -51.987360 -96.000000
    endloop
  endfacet
  facet normal -0.953888 0.300164 0.000000
    outer loop
      vertex 91.816416 -51.987360 -81.600000
      vertex 91.872000 -51.810720 -81.600000
      vertex 91.816416 -51.987360 -96.000000
    endloop
  endfacet
  facet normal -0.953888 0.300164 0.000000
    outer loop
      vertex 91.816416 -51.987360 -96.000000
      vertex 91.872000 -51.810720 -81.600000
      vertex 91.872000 -51.810720 -96.000000
    endloop
  endfacet
  facet normal -0.652223 0.758028 0.000000
    outer loop
      vertex 91.872000 -51.810720 -81.600000
      vertex 92.022624 -51.681120 -81.600000
      vertex 91.872000 -51.810720 -96.000000
    endloop
  endfacet
  facet normal -0.652223 0.758028 0.000000
    outer loop
      vertex 91.872000 -51.810720 -96.000000
      vertex 92.022624 -51.681120 -81.600000
      vertex 92.022624 -51.681120 -96.000000
    endloop
  endfacet
  facet normal -0.462576 0.886580 0.000000
    outer loop
      vertex 92.022624 -51.681120 -81.600000
      vertex 92.316096 -51.528000 -81.600000
      vertex 92.022624 -51.681120 -96.000000
    endloop
  endfacet
  facet normal -0.462576 0.886580 0.000000
    outer loop
      vertex 92.022624 -51.681120 -96.000000
      vertex 92.316096 -51.528000 -81.600000
      vertex 92.316096 -51.528000 -96.000000
    endloop
  endfacet
  facet normal -0.454756 0.890616 0.000000
    outer loop
      vertex 92.316096 -51.528000 -81.600000
      vertex 92.800224 -51.280800 -81.600000
      vertex 92.316096 -51.528000 -96.000000
    endloop
  endfacet
  facet normal -0.454756 0.890616 0.000000
    outer loop
      vertex 92.316096 -51.528000 -96.000000
      vertex 92.800224 -51.280800 -81.600000
      vertex 92.800224 -51.280800 -96.000000
    endloop
  endfacet
  facet normal -0.495604 0.868548 0.000000
    outer loop
      vertex 92.800224 -51.280800 -81.600000
      vertex 93.522816 -50.868480 -81.600000
      vertex 92.800224 -51.280800 -96.000000
    endloop
  endfacet
  facet normal -0.495604 0.868548 0.000000
    outer loop
      vertex 92.800224 -51.280800 -96.000000
      vertex 93.522816 -50.868480 -81.600000
      vertex 93.522816 -50.868480 -96.000000
    endloop
  endfacet
  facet normal -0.540616 0.841270 0.000000
    outer loop
      vertex 93.522816 -50.868480 -81.600000
      vertex 94.530816 -50.220720 -81.600000
      vertex 93.522816 -50.868480 -96.000000
    endloop
  endfacet
  facet normal -0.540616 0.841270 0.000000
    outer loop
      vertex 93.522816 -50.868480 -96.000000
      vertex 94.530816 -50.220720 -81.600000
      vertex 94.530816 -50.220720 -96.000000
    endloop
  endfacet
  facet normal -0.540758 -0.841178 0.000000
    outer loop
      vertex 94.531104 -54.342960 -81.600000
      vertex 93.523104 -53.694960 -81.600000
      vertex 93.523104 -53.694960 -96.000000
    endloop
  endfacet
  facet normal -0.540758 -0.841178 0.000000
    outer loop
      vertex 94.531104 -54.342960 -96.000000
      vertex 94.531104 -54.342960 -81.600000
      vertex 93.523104 -53.694960 -96.000000
    endloop
  endfacet
  facet normal -0.495536 -0.868587 0.000000
    outer loop
      vertex 93.523104 -53.694960 -81.600000
      vertex 92.800800 -53.282880 -81.600000
      vertex 92.800800 -53.282880 -96.000000
    endloop
  endfacet
  facet normal -0.495536 -0.868587 0.000000
    outer loop
      vertex 93.523104 -53.694960 -96.000000
      vertex 93.523104 -53.694960 -81.600000
      vertex 92.800800 -53.282880 -96.000000
    endloop
  endfacet
  facet normal -0.455106 -0.890437 0.000000
    outer loop
      vertex 92.800800 -53.282880 -81.600000
      vertex 92.316672 -53.035440 -81.600000
      vertex 92.316672 -53.035440 -96.000000
    endloop
  endfacet
  facet normal -0.455106 -0.890437 -0.000000
    outer loop
      vertex 92.800800 -53.282880 -96.000000
      vertex 92.800800 -53.282880 -81.600000
      vertex 92.316672 -53.035440 -96.000000
    endloop
  endfacet
  facet normal -0.461649 -0.887062 0.000000
    outer loop
      vertex 92.316672 -53.035440 -81.600000
      vertex 92.022912 -52.882560 -81.600000
      vertex 92.022912 -52.882560 -96.000000
    endloop
  endfacet
  facet normal -0.461649 -0.887062 -0.000000
    outer loop
      vertex 92.316672 -53.035440 -96.000000
      vertex 92.316672 -53.035440 -81.600000
      vertex 92.022912 -52.882560 -96.000000
    endloop
  endfacet
  facet normal -0.651506 -0.758643 0.000000
    outer loop
      vertex 92.022912 -52.882560 -81.600000
      vertex 91.872000 -52.752960 -81.600000
      vertex 91.872000 -52.752960 -96.000000
    endloop
  endfacet
  facet normal -0.651506 -0.758643 -0.000000
    outer loop
      vertex 92.022912 -52.882560 -96.000000
      vertex 92.022912 -52.882560 -81.600000
      vertex 91.872000 -52.752960 -96.000000
    endloop
  endfacet
  facet normal 0.623490 -0.781831 0.000000
    outer loop
      vertex 94.558450 -51.305786 -96.000000
      vertex 95.643966 -50.440115 -96.000000
      vertex 95.643966 -50.440115 -81.600000
    endloop
  endfacet
  facet normal 0.623490 -0.781831 0.000000
    outer loop
      vertex 94.558450 -51.305786 -81.600000
      vertex 94.558450 -51.305786 -96.000000
      vertex 95.643966 -50.440115 -81.600000
    endloop
  endfacet
  facet normal 1.000000 0.000000 -0.000000
    outer loop
      vertex 94.558450 -52.694214 -81.600000
      vertex 94.558450 -52.694214 -96.000000
      vertex 94.558450 -51.305786 -96.000000
    endloop
  endfacet
  facet normal 1.000000 0.000000 0.000000
    outer loop
      vertex 94.558450 -51.305786 -81.600000
      vertex 94.558450 -52.694214 -81.600000
      vertex 94.558450 -51.305786 -96.000000
    endloop
  endfacet
  facet normal 0.623490 0.781831 -0.000000
    outer loop
      vertex 95.643966 -53.559885 -96.000000
      vertex 94.558450 -52.694214 -96.000000
      vertex 95.643966 -53.559885 -81.600000
    endloop
  endfacet
  facet normal 0.623490 0.781831 0.000000
    outer loop
      vertex 95.643966 -53.559885 -81.600000
      vertex 94.558450 -52.694214 -96.000000
      vertex 94.558450 -52.694214 -81.600000
    endloop
  endfacet
  facet normal -0.222521 0.974928 0.000000
    outer loop
      vertex 96.997584 -53.250930 -96.000000
      vertex 95.643966 -53.559885 -96.000000
      vertex 96.997584 -53.250930 -81.600000
    endloop
  endfacet
  facet normal -0.222521 0.974928 -0.000000
    outer loop
      vertex 96.997584 -53.250930 -81.600000
      vertex 95.643966 -53.559885 -96.000000
      vertex 95.643966 -53.559885 -81.600000
    endloop
  endfacet
  facet normal -0.900969 0.433884 -0.000000
    outer loop
      vertex 97.600000 -52.000000 -96.000000
      vertex 96.997584 -53.250930 -96.000000
      vertex 97.600000 -52.000000 -81.600000
    endloop
  endfacet
  facet normal -0.900969 0.433884 0.000000
    outer loop
      vertex 97.600000 -52.000000 -81.600000
      vertex 96.997584 -53.250930 -96.000000
      vertex 96.997584 -53.250930 -81.600000
    endloop
  endfacet
  facet normal -0.900969 -0.433884 0.000000
    outer loop
      vertex 97.600000 -52.000000 -96.000000
      vertex 97.600000 -52.000000 -81.600000
      vertex 96.997584 -50.749070 -96.000000
    endloop
  endfacet
  facet normal -0.900969 -0.433884 -0.000000
    outer loop
      vertex 96.997584 -50.749070 -96.000000
      vertex 97.600000 -52.000000 -81.600000
      vertex 96.997584 -50.749070 -81.600000
    endloop
  endfacet
  facet normal -0.222521 -0.974928 0.000000
    outer loop
      vertex 95.643966 -50.440115 -96.000000
      vertex 96.997584 -50.749070 -96.000000
      vertex 96.997584 -50.749070 -81.600000
    endloop
  endfacet
  facet normal -0.222521 -0.974928 0.000000
    outer loop
      vertex 95.643966 -50.440115 -81.600000
      vertex 95.643966 -50.440115 -96.000000
      vertex 96.997584 -50.749070 -81.600000
    endloop
  endfacet
endsolid OpenSCAD_Model
